<?xml version="1.0" standalone="no"?>
<!DOCTYPE svg PUBLIC "-//W3C//DTD SVG 1.1//EN" "http://www.w3.org/Graphics/SVG/1.1/DTD/svg11.dtd" >
<svg>
<metadata>
Created by FontForge 20090914 at Sat Jun 25 17:06:10 2016
 By www-data
Copyright (c) 2011 by Avraham Cornfeld. All rights reserved.
</metadata>
<defs>
<font id="." horiz-adv-x="0" >
  <font-face 
    font-family="."
    font-weight="900"
    font-stretch="normal"
    units-per-em="2048"
    panose-1="2 11 10 0 0 0 0 2 0 4"
    ascent="1638"
    descent="-410"
    x-height="928"
    cap-height="1278"
    bbox="-382 -560.002 2984 1736"
    underline-thickness="90"
    underline-position="-201"
    unicode-range="U+000D-U+FFFC"
  />
<missing-glyph horiz-adv-x="416" 
 />
    <glyph glyph-name=".notdef" horiz-adv-x="416" 
 />
    <glyph glyph-name="uni000D" unicode="&#xd;" horiz-adv-x="682" 
 />
    <glyph glyph-name="space" unicode=" " horiz-adv-x="416" 
 />
    <glyph glyph-name="exclam" unicode="!" horiz-adv-x="615" 
d="M505 1279v-483l-37 -301h-315l-37 301v483h389zM123 0v322h382v-322h-382z" />
    <glyph glyph-name="quotedbl" unicode="&#x22;" horiz-adv-x="655" 
d="M102 1235h220v-169l-149 -362h-122zM394 1233h220v-169l-150 -361h-122z" />
    <glyph glyph-name="numbersign" unicode="#" horiz-adv-x="1274" 
d="M1152 504h-176l-60 -162h183l-56 -149h-186l-68 -193h-204l67 193h-205l-67 -193h-205l70 193h-172l53 149h178l57 162h-180l53 149h189l61 170h205l-63 -170h206l64 170h203l-64 -170h172zM714 342l57 162h-205l-57 -162h205z" />
    <glyph glyph-name="dollar" unicode="$" horiz-adv-x="1008" 
d="M948 285c0 -41.333 -6.83594 -78.8271 -20.5029 -112.494s-35.167 -62.667 -64.5 -87s-67.166 -43.666 -113.499 -57.999s-102.166 -22.833 -167.499 -25.5v-135h-182v135c-64 1.33301 -117.5 11 -160.5 29s-77.667 42.167 -104 72.5s-45.166 65.666 -56.499 105.999
s-17 84.166 -17 131.499h246c-0.666992 -16 0.5 -32.333 3.5 -49s8 -31.834 15 -45.501s16.5 -25.5 28.5 -35.5s27 -16.333 45 -19v249c-52 22 -99 45.167 -141 69.5s-77.5 50.666 -106.5 78.999s-51.333 59.666 -67 93.999s-23.5 72.833 -23.5 115.5
c0 35.333 5.33301 68.666 16 99.999s29 58.833 55 82.5s60.667 42.834 104 57.501s97.666 22.667 162.999 24v135h182v-137c122.667 -5.33301 213.667 -34.166 273 -86.499s91 -131.833 95 -238.5h-265c-1.33301 43.333 -11.666 76.666 -30.999 99.999s-43.333 37 -72 41
v-246l70.5 -30c25.667 -10.667 51.667 -22.834 78 -36.501s52 -29 77 -46s47.667 -36.667 68 -59s37 -47.833 50 -76.5s20.5 -61.334 22.5 -98.001zM301.997 809.006c0 -10 1.33398 -19.502 4.00098 -28.502s7.66699 -18 15 -27s17.333 -18.333 30 -28s29 -19.5 49 -29.5
v185c-12.667 -1.33301 -24.834 -3.16602 -36.501 -5.49902s-22 -6.16602 -31 -11.499s-16.333 -12.333 -22 -21s-8.5 -20 -8.5 -34zM581.998 194.004c32.667 1.33301 57.834 6.16797 75.501 14.501s26.5 26.166 26.5 53.499c0 30.667 -7.33301 55.5 -22 74.5
s-41.334 36.167 -80.001 51.5v-194z" />
    <glyph glyph-name="percent" unicode="%" horiz-adv-x="1171" 
d="M353 0h-170l656 1062h170zM288 1071c68 0 120.167 -18.832 156.5 -56.499s54.5 -91.834 54.5 -162.501v-116c0 -72.667 -18.167 -127.667 -54.5 -165s-88.5 -56 -156.5 -56s-120 19 -156 57s-54 92.667 -54 164v116c0 72 18 126.5 54 163.5s88 55.5 156 55.5z
M288 633.001c16 0 28.835 6.5 38.502 19.5s14.5 29.167 14.5 48.5v188c0 19.333 -5.33301 34.666 -16 45.999s-23.334 17 -38.001 17s-26.834 -5.66699 -36.501 -17s-14.5 -26.666 -14.5 -45.999v-188c0 -18.667 4.83301 -34.667 14.5 -48s22.167 -20 37.5 -20z
M910.002 545.001c68.667 0 121 -18.832 157 -56.499s54 -91.834 54 -162.501v-116c0 -72.667 -18 -127.667 -54 -165s-88.333 -56 -157 -56c-67.333 0 -119 19 -155 57s-54 92.667 -54 164v116c0 72 18 126.5 54 163.5s87.667 55.5 155 55.5zM910.002 107.002
c16.667 0 29.834 6.5 39.501 19.5s14.5 29.167 14.5 48.5v188c0 18.667 -5.33301 33.667 -16 45s-23.667 17 -39 17c-14.667 0 -26.834 -5.66699 -36.501 -17s-14.5 -26.333 -14.5 -45v-188c0 -18.667 4.83301 -34.667 14.5 -48s22.167 -20 37.5 -20z" />
    <glyph glyph-name="ampersand" unicode="&#x26;" horiz-adv-x="1274" 
d="M1181 662c0.666992 -36 -0.665039 -72.3379 -3.99805 -109.005s-9.66602 -72.5 -18.999 -107.5s-22.333 -68.333 -39 -100s-38 -60.5 -64 -86.5l229 -258h-322l-71 81c-54 -36 -113.167 -62 -177.5 -78s-131.833 -24 -202.5 -24c-38 0 -75.667 2.33301 -113 7
s-72.833 13 -106.5 25s-64.167 28 -91.5 48s-50 45 -68 75c-24.667 40.667 -40.5 79.334 -47.5 116.001s-7.16699 71.834 -0.5 105.501s19 65.834 37 96.501s39.5 60.167 64.5 88.5s52.333 55.5 82 81.5l89.5 75c-20.667 21.333 -42.334 46 -65.001 74l-64 80
c-30 35.333 -50.167 70.833 -60.5 106.5s-12.333 70.167 -6 103.5s20.333 64.5 42 93.5s50.167 54.333 85.5 76s76.666 38.667 123.999 51s99.333 18.5 156 18.5s108.167 -7.16699 154.5 -21.5s86.333 -33.166 120 -56.499s61 -50.333 82 -81s34.5 -62.5 40.5 -95.5
s4 -65.833 -6 -98.5s-28.333 -63 -55 -91c-36 -37.333 -72.5 -70.666 -109.5 -99.999s-74.167 -56 -111.5 -80l226 -254c4.66699 14 8 30.167 10 48.5s3.16699 38 3.5 59s0.166016 42.833 -0.500977 65.5l-2 66h260zM563.001 1121
c-35.333 0 -62.668 -6.16602 -82.001 -18.499s-31.333 -29 -36 -50s-2 -45.167 8 -72.5s27 -56.333 51 -87l20.5 -25.5c6.33301 -7.66699 13.833 -15.834 22.5 -24.501l26 22.5l20 18l17.5 17c5.66699 5.66699 11.834 12.167 18.501 19.5c14.667 14 26 32.5 34 55.5
s10.5 45.167 7.5 66.5s-12.833 39.833 -29.5 55.5s-42.667 23.5 -78 23.5zM400.999 259.996c22 -31.333 48.333 -54.833 79 -70.5s62.5 -24.167 95.5 -25.5s65.667 4.16699 98 16.5s61.5 30.5 87.5 54.5l-263 300c-24 -16 -46 -34.333 -66 -55s-35.5 -43 -46.5 -67
s-15.833 -49 -14.5 -75s11.333 -52 30 -78z" />
    <glyph glyph-name="quotesingle" unicode="'" horiz-adv-x="426" 
d="M66 698l58 537h247v-171l-168 -366h-137v0z" />
    <glyph glyph-name="parenleft" unicode="(" horiz-adv-x="637" 
d="M660 -257c-4.66699 -0.666992 -12.834 -1.33008 -24.501 -1.99707s-24.334 -1.33398 -38.001 -2.00098s-26.5 -1.16699 -38.5 -1.5s-20.667 -0.5 -26 -0.5c-45.333 0 -86.666 5.33301 -123.999 16s-71.166 28.167 -101.499 52.5s-56.833 56.5 -79.5 96.5
s-41.5 89.5 -56.5 148.5s-26.333 128.167 -34 207.5s-11.5 170.666 -11.5 273.999c0 104 3.83301 195 11.5 273s19 145.167 34 201.5s33.833 103 56.5 140s49.167 66.333 79.5 88s64.166 36.834 101.499 45.501s78.666 13 123.999 13c5.33301 0 14 -0.333008 26 -1
s24.833 -1.5 38.5 -2.5s26.334 -1.83301 38.001 -2.5s19.834 -1.33398 24.501 -2.00098v-116c-37.333 0.666992 -70 -0.833008 -98 -4.5s-52.167 -12.667 -72.5 -27s-37.166 -35.5 -50.499 -63.5s-23.833 -65.667 -31.5 -113s-13.167 -106 -16.5 -176s-5 -154.333 -5 -253
s1.66699 -183.834 5 -255.501s8.83301 -132.5 16.5 -182.5s18.167 -90.5 31.5 -121.5s30.166 -55 50.499 -72s44.5 -28.333 72.5 -34s60.667 -8.16699 98 -7.5v-116z" />
    <glyph glyph-name="parenright" unicode=")" horiz-adv-x="624" 
d="M-35 -141c37.333 -0.666992 70 1.8291 98 7.49609s52.167 17 72.5 34s37.166 41 50.499 72s23.833 71.5 31.5 121.5s13.167 110.833 16.5 182.5s5 156.834 5 255.501s-1.66699 183 -5 253s-8.83301 128.667 -16.5 176s-18.167 85 -31.5 113s-30.166 49.167 -50.499 63.5
s-44.5 23.333 -72.5 27s-60.667 5.16699 -98 4.5v116c4.66699 0.666992 12.834 1.33398 24.501 2.00098s24.334 1.5 38.001 2.5s26.5 1.83301 38.5 2.5s20.667 1 26 1c44.667 0 85.834 -4.33301 123.501 -13s71.667 -23.834 102 -45.501s56.833 -51 79.5 -88
s41.5 -83.667 56.5 -140s26.333 -123.5 34 -201.5s11.5 -169 11.5 -273c0 -103.333 -3.83301 -194.666 -11.5 -273.999s-19 -148.5 -34 -207.5s-33.833 -108.5 -56.5 -148.5s-49.167 -72.167 -79.5 -96.5s-64.333 -41.833 -102 -52.5s-78.834 -16 -123.501 -16
c-5.33301 0 -14 0.166992 -26 0.5s-24.833 0.833008 -38.5 1.5s-26.334 1.33398 -38.001 2.00098s-19.834 1.33398 -24.501 2.00098v116v0z" />
    <glyph glyph-name="asterisk" unicode="*" horiz-adv-x="692" 
d="M57 1329l186 -72l-10 197h226l-13 -197l190 70l70 -218l-189 -50l128 -152l-188 -133l-112 167l-111 -167l-184 133l128 153l-193 48z" />
    <glyph glyph-name="plus" unicode="+" horiz-adv-x="952" 
d="M888 434h-303v-313h-203v313h-305v193h305v305h203v-305h303v-193z" />
    <glyph glyph-name="comma" unicode="," horiz-adv-x="427" 
d="M32 -377l65 602h276v-192l-188 -410h-153v0z" />
    <glyph glyph-name="hyphen" unicode="-" horiz-adv-x="760" 
d="M83 660h586v-268h-586v268z" />
    <glyph glyph-name="period" unicode="." horiz-adv-x="561" 
d="M90 0v332h374v-332h-374z" />
    <glyph glyph-name="slash" unicode="/" horiz-adv-x="700" 
d="M220 -260h-215l475 1552h217z" />
    <glyph glyph-name="zero" unicode="0" horiz-adv-x="1005" 
d="M500 1077c132.667 0 234.833 -35.332 306.5 -105.999s107.5 -175.334 107.5 -314.001v-257c0 -70.667 -9.16699 -132 -27.5 -184s-45 -95 -80 -129s-78.167 -59.333 -129.5 -76s-110.333 -25 -177 -25c-132 0 -233.5 34.167 -304.5 102.5s-106.5 172.166 -106.5 311.499
v257c0 140.667 35.5 245.834 106.5 315.501s172.5 104.5 304.5 104.5zM499.999 237.001c32 0 57.499 11.168 76.499 33.501s28.5 52.166 28.5 89.499v349c0 37.333 -10.5 65.5 -31.5 84.5s-46.167 28.5 -75.5 28.5c-28.667 0 -52.5 -9.5 -71.5 -28.5
s-28.5 -47.167 -28.5 -84.5v-349c0 -36 9.33301 -65.5 28 -88.5s43.334 -34.5 74.001 -34.5z" />
    <glyph glyph-name="one" unicode="1" horiz-adv-x="717" 
d="M74 258l169.001 -0.000976562v391h-165v199c30 -0.666992 56.667 1.83301 80 7.5s44 13.334 62 23.001s33.5 21 46.5 34s24.167 26.167 33.5 39.5c21.333 32 35.666 68.333 42.999 109h216v-803h131v-258h-616v258z" />
    <glyph glyph-name="two" unicode="2" horiz-adv-x="938" 
d="M856 260l0.000976562 -260.001h-792l179 251l76 105.5l76.5 106.5l71.5 98.5l60 81.5c14.667 20.667 24.167 40.5 28.5 59.5s4.33301 36 0 51s-13 27.5 -26 37.5s-29.167 16 -48.5 18c-28 4 -50.833 1.5 -68.5 -7.5s-31.334 -22 -41.001 -39s-15.5 -36.333 -17.5 -58
s-1.33301 -43.5 2 -65.5h-303c-7.33301 64.667 -3 123.5 13 176.5s42.333 98.5 79 136.5s82.667 67.333 138 88s118.666 31 189.999 31c49.333 0 95.333 -6.5 138 -19.5s80.334 -31.167 113.001 -54.5s59.5 -51.166 80.5 -83.499s34.5 -68.333 40.5 -108
s3.33301 -82.167 -8 -127.5s-33 -92.333 -65 -141l-65.5 -98l-61.5 -89l-63 -90h274z" />
    <glyph glyph-name="three" unicode="3" horiz-adv-x="932" 
d="M663 549c34 0.666992 64.1641 -6.32227 90.4971 -20.9893s48.5 -34.334 66.5 -59.001s31.667 -52.667 41 -84s14 -63.333 14 -96c0 -43.333 -8.33301 -83.333 -25 -120s-41.667 -68.334 -75 -95.001s-75.333 -47.334 -126 -62.001s-110 -22 -178 -22
c-71.333 0 -132.833 6.5 -184.5 19.5s-94.167 33.833 -127.5 62.5s-57.666 65.5 -72.999 110.5s-21.666 99.167 -18.999 162.5h297c0 -20.667 1.83301 -39.334 5.5 -56.001s9.5 -30.834 17.5 -42.501s18.667 -20.667 32 -27s29.666 -9.5 48.999 -9.5
c14.667 0 28.334 1.33301 41.001 4s23.334 8 32.001 16s15.5 19 20.5 33s7.5 32 7.5 54c0 42.667 -13.167 74.667 -39.5 96s-65.5 34.666 -117.5 39.999v157c89.333 10 134 52.667 134 128c0 32 -6 55 -18 69s-31.667 21 -59 21c-39.333 0 -67.333 -10.333 -84 -31
s-24 -52.667 -22 -96h-278c-2.66699 58.667 1.5 111.167 12.5 157.5s31.333 85.666 61 117.999s70 57.166 121 74.499s114.833 26 191.5 26c61.333 0 114.833 -7.66699 160.5 -23s83.5 -36.166 113.5 -62.499s52.333 -56.833 67 -91.5s22 -71 22 -109
c0 -24.667 -3.33301 -49.834 -10 -75.501s-17 -49.834 -31 -72.501s-31.833 -42.334 -53.5 -59.001s-47.167 -28.334 -76.5 -35.001z" />
    <glyph glyph-name="four" unicode="4" horiz-adv-x="999" 
d="M963 420v-241h-120v-179h-281v179h-574l348 882h330l-264 -650h160v191h281v-182h120v0z" />
    <glyph glyph-name="five" unicode="5" horiz-adv-x="955" 
d="M385 320c0 -36.667 8.33301 -63.0029 25 -79.0029s39 -24 67 -24c32.667 0 57.334 12 74.001 36s25 66.667 25 128c0 56.667 -9.16699 98.667 -27.5 126s-42.5 41 -72.5 41c-26.667 0 -49.167 -6.16699 -67.5 -18.5s-31.5 -34.166 -39.5 -65.499h-252v597h721v-245h-477
v-136c8 12 21 22.833 39 32.5s39.667 16.834 65 21.501s53.333 6.5 84 5.5s62.667 -5.83301 96 -14.5c73.333 -17.333 127.833 -56.666 163.5 -117.999s53.5 -138 53.5 -230c0 -56 -7.83301 -107.667 -23.5 -155s-40.167 -88 -73.5 -122s-76 -60.5 -128 -79.5
s-114.667 -28.5 -188 -28.5c-58.667 0 -108.834 8.33301 -150.501 25s-76 39.667 -103 69s-46.833 64 -59.5 104s-19 83.333 -19 130h268z" />
    <glyph glyph-name="six" unicode="6" horiz-adv-x="883" 
d="M433 -10c-51.333 0 -98.3379 4.50195 -141.005 13.502s-80.167 24.333 -112.5 46s-59 50.167 -80 85.5s-35.5 79 -43.5 131c-8 52.667 -5.83301 104.5 6.5 155.5s28.833 97.5 49.5 139.5c7.33301 15.333 17 34.333 29 57l39.5 74l44.5 82.5l46 83.5l113 203h352
l-267 -428c48.667 10 94 10.167 136 0.5s78.333 -27.834 109 -54.501s54.334 -61.5 71.001 -104.5s23.667 -93.167 21 -150.5c-5.33301 -57.333 -18.166 -106.833 -38.499 -148.5s-46.666 -76.334 -78.999 -104.001s-70.166 -48.167 -113.499 -61.5
s-90.666 -20 -141.999 -20zM323.995 336.002c-2.66699 -49.333 5.16895 -86.167 23.502 -110.5s42.833 -37.5 73.5 -39.5s56.667 9.33301 78 34s32.666 61.667 33.999 111c0.666992 16 -1 32 -5 48s-10 30.5 -18 43.5s-17.833 23.833 -29.5 32.5
s-24.834 13.334 -39.501 14.001c-17.333 1.33301 -32.833 -1.83398 -46.5 -9.50098s-25.5 -18 -35.5 -31s-18 -27.667 -24 -44s-9.66699 -32.5 -11 -48.5z" />
    <glyph glyph-name="seven" unicode="7" horiz-adv-x="810" 
d="M448 0h-336l297 799h-330v262h729l-360 -1061v0z" />
    <glyph glyph-name="eight" unicode="8" horiz-adv-x="944" 
d="M676 567c36 -8 67.832 -21 95.499 -39s51 -39.333 70 -64s33.333 -51.667 43 -81s14.5 -59.333 14.5 -90c0 -45.333 -9.66699 -86.833 -29 -124.5s-47.333 -70 -84 -97s-81.334 -48 -134.001 -63s-112.334 -22.5 -179.001 -22.5s-126.167 7.5 -178.5 22.5
s-96.666 36 -132.999 63s-64.166 59.333 -83.499 97s-29 79.167 -29 124.5c0 30.667 4.83301 60.667 14.5 90s24 56.333 43 81s42.333 46 70 64s59.834 31 96.501 39c-30 7.33301 -55.833 19.166 -77.5 35.499s-39.5 35.166 -53.5 56.499s-24.333 44.5 -31 69.5
s-10 49.833 -10 74.5c0 38.667 8.33301 75 25 109s40.834 63.5 72.501 88.5s70.5 44.667 116.5 59s98.667 21.5 158 21.5c60 0 113.167 -7.16699 159.5 -21.5s85.333 -34 117 -59s55.667 -54.5 72 -88.5s24.5 -70.333 24.5 -109c0 -24.667 -3.33301 -49.5 -10 -74.5
s-16.834 -48.167 -30.501 -69.5s-31.167 -40.166 -52.5 -56.499s-47 -28.166 -77 -35.499zM470.999 877c-22 0 -41.667 -8.83301 -59 -26.5s-26 -45.167 -26 -82.5s8.33301 -65 25 -83s36 -27 58 -27c23.333 0 43.833 9 61.5 27s26.5 45.667 26.5 83
c0 38 -8.5 65.667 -25.5 83s-37.167 26 -60.5 26zM472.999 179c28.667 0 51.333 11 68 33s25 55 25 99c0 22 -2.83301 41.167 -8.5 57.5s-13 29.666 -22 39.999s-19 18 -30 23s-21.833 7.5 -32.5 7.5c-10 0 -20.5 -2.5 -31.5 -7.5s-21 -12.667 -30 -23
s-16.5 -23.666 -22.5 -39.999s-9 -35.5 -9 -57.5c0 -44 8.5 -77 25.5 -99s39.5 -33 67.5 -33z" />
    <glyph glyph-name="nine" unicode="9" horiz-adv-x="880" 
d="M443 1070c51.333 0 98.3379 -4.50098 141.005 -13.501s80.167 -24.333 112.5 -46s59 -50.167 80 -85.5s35.5 -79 43.5 -131c8 -52.667 5.83301 -104.5 -6.5 -155.5s-28.833 -97.5 -49.5 -139.5l-29.5 -58l-39 -73.5l-45 -82l-45.5 -83.5l-113 -203h-352l267 428
c-48.667 -10 -94 -10.167 -136 -0.5s-78.333 27.834 -109 54.501s-54.334 61.5 -71.001 104.5s-23.667 93.167 -21 150.5c5.33301 56.667 18.166 106 38.499 148s46.666 76.833 78.999 104.5s70.166 48.167 113.499 61.5s90.666 20 141.999 20zM552.005 723.999
c2.66699 49.333 -5.16699 86.167 -23.5 110.5s-42.833 37.5 -73.5 39.5s-56.667 -9.33301 -78 -34s-32.666 -61.667 -33.999 -111c-0.666992 -16 1 -32 5 -48s10 -30.5 18 -43.5s17.667 -23.833 29 -32.5s24.666 -13.334 39.999 -14.001
c17.333 -1.33301 32.833 1.83398 46.5 9.50098s25.5 18 35.5 31s18 27.667 24 44s9.66699 32.5 11 48.5z" />
    <glyph glyph-name="colon" unicode=":" horiz-adv-x="660" 
d="M148 568v332h374v-332h-374zM150 0v332h374v-332h-374z" />
    <glyph glyph-name="semicolon" unicode=";" horiz-adv-x="670" 
d="M148 568v332h374v-332h-374zM202 236h319v-194l-217 -415h-178z" />
    <glyph glyph-name="less" unicode="&#x3c;" horiz-adv-x="899" 
d="M57 619l777 385v-307l-456 -166l456 -162v-304l-777 385v169z" />
    <glyph glyph-name="equal" unicode="=" horiz-adv-x="862" 
d="M77 450h716v-249h-716v249zM77 871h716v-249h-716v249z" />
    <glyph glyph-name="greater" unicode="&#x3e;" horiz-adv-x="893" 
d="M838 450l-777 -385v304l456 162l-456 166v307l777 -385v-169z" />
    <glyph glyph-name="question" unicode="?" horiz-adv-x="909" 
d="M454 1285c64.667 0 122.335 -7.99805 173.002 -23.998s93.5 -38.5 128.5 -67.5s61.667 -63.667 80 -104s27.5 -85.166 27.5 -134.499c0 -48.667 -6.16699 -89.834 -18.5 -123.501s-27.833 -63 -46.5 -88s-39 -47.167 -61 -66.5s-42.5 -38.833 -61.5 -58.5
s-35 -41 -48 -64s-19.833 -50.5 -20.5 -82.5h-308c-6 40 -4.16699 76.167 5.5 108.5s23.167 61.833 40.5 88.5s37.166 51 59.499 73l62.5 62.5c19.333 19.667 35.666 38.667 48.999 57s20 37.166 20 56.499c0 48 -6.33301 81.833 -19 101.5s-34 29.5 -64 29.5
c-36.667 0 -63 -12.333 -79 -37s-24.333 -66.334 -25 -125.001h-321c-4.66699 56.667 -0.833984 109.334 11.499 158.001s35.333 90.667 69 126s78.834 63.166 135.501 83.499s126.667 30.5 210 30.5zM291.001 0.00195312v297h332v-297h-332z" />
    <glyph glyph-name="at" unicode="@" horiz-adv-x="1614" 
d="M914 -236c-101.333 -15.333 -193.668 -20.3213 -277.001 -14.9883s-157.666 19.833 -222.999 43.5s-121.833 55.167 -169.5 94.5s-87.167 85 -118.5 137s-54.666 109.333 -69.999 172s-22.666 129 -21.999 199c0 61.333 8.83301 121.166 26.5 179.499
s42.834 113 75.501 164s72.5 97.833 119.5 140.5s100.5 79.5 160.5 110.5s125.667 55 197 72s148 25.5 230 25.5c122.667 0 232.5 -15.333 329.5 -46s178.333 -73 244 -127s114 -118 145 -192s41.833 -154.333 32.5 -241s-29 -162 -59 -226s-65.833 -117.167 -107.5 -159.5
s-86.834 -74.333 -135.501 -96s-96 -33.167 -142 -34.5c-37.333 -1.33301 -71.333 2.16699 -102 10.5s-56.834 20.166 -78.501 35.499s-38.5 34.166 -50.5 56.499s-18.333 47.166 -19 74.499c-10 -13.333 -20.333 -23.833 -31 -31.5s-22.5 -13.5 -35.5 -17.5
s-27.5 -6.5 -43.5 -7.5s-34 -1.5 -54 -1.5c-40.667 0 -78.667 6.33301 -114 19s-64.166 33.667 -86.499 63s-36.5 67.666 -42.5 114.999s0 106 18 176c14 54 31.5 98.833 52.5 134.5s45.5 63.834 73.5 84.501s59.167 34.667 93.5 42s71.833 9.66602 112.5 6.99902
c17.333 -1.33301 31.833 -3.33301 43.5 -6s21.5 -6.16699 29.5 -10.5s15 -10 21 -17s12 -14.833 18 -23.5l5 23.5c1.33301 6.33301 2.66602 11.833 3.99902 16.5c1.33301 5.33301 2 9.66602 2 12.999h210c-12 -40.667 -22.833 -81.167 -32.5 -121.5l-27.5 -116l-23.5 -103.5
c-7 -32 -13.5 -59.333 -19.5 -82c-18.667 -66.667 -18.5 -113.334 0.5 -140.001s51.5 -37.334 97.5 -32.001c54.667 6 98 40.333 130 103s51.333 157.667 58 285c2.66699 66 -9 124.333 -35 175s-62.333 93 -109 127s-101.834 59.833 -165.501 77.5s-132.5 26.5 -206.5 26.5
c-73.333 0 -143 -10.667 -209 -32s-124 -53.833 -174 -97.5s-89.833 -98.334 -119.5 -164.001s-44.5 -142.834 -44.5 -231.501s11 -165.834 33 -231.501s57.5 -118.667 106.5 -159s112.667 -66.833 191 -79.5s173.5 -10.334 285.5 6.99902zM905.998 420.012
c9.33301 38.667 13.667 68.832 13 90.499s-4.5 37.834 -11.5 48.501s-16.167 17.167 -27.5 19.5s-22.333 3.5 -33 3.5c-9.33301 0 -19.5 -1.66699 -30.5 -5s-22 -10.5 -33 -21.5s-22 -27.167 -33 -48.5s-20.833 -50.333 -29.5 -87
c-8.66699 -34 -13.334 -63.167 -14.001 -87.5s1.83301 -44.333 7.5 -60s13.667 -27.167 24 -34.5s22.166 -11 35.499 -11c14.667 0 27.834 2.33301 39.501 7s22.5 14 32.5 28s19.833 33.667 29.5 59s19.834 58.333 30.501 99z" />
    <glyph glyph-name="A" unicode="A" horiz-adv-x="1151" 
d="M362 1278h422l399 -1278h-364l-62 307h-368l-62 -307h-364zM442 526h262l-131 537z" />
    <glyph glyph-name="B" unicode="B" horiz-adv-x="1114" 
d="M814 696c48.667 -7.33301 90.3359 -22.002 125.003 -44.002s62.667 -49 84 -81s36.5 -68.167 45.5 -108.5s12.167 -82.5 9.5 -126.5c-3.33301 -51.333 -14.166 -97.666 -32.499 -138.999s-43.833 -76.666 -76.5 -105.999s-72.334 -51.833 -119.001 -67.5
s-100.334 -23.5 -161.001 -23.5h-588v1278h621c53.333 0 99.5 -9.16699 138.5 -27.5s71.333 -42 97 -71s44.667 -61.833 57 -98.5s18.5 -73.334 18.5 -110.001c0 -34 -4.16699 -66.5 -12.5 -97.5s-21.333 -58.833 -39 -83.5s-40.334 -45.167 -68.001 -61.5
s-60.834 -27.166 -99.501 -32.499zM421.002 794.998l139.001 0.00292969c58 0 99.833 12.167 125.5 36.5s38.5 57.166 38.5 98.499c0 22.667 -2.83301 43 -8.5 61s-15.334 33.167 -29.001 45.5s-31.5 21.666 -53.5 27.999s-49 9.16602 -81 8.49902h-131v-278z
M550.003 214.001c70 0 123.333 15.001 160 45.001s55 74 55 132c0 67.333 -18 115.666 -54 144.999s-89.667 44 -161 44h-129v-366h129z" />
    <glyph glyph-name="C" unicode="C" horiz-adv-x="1159" 
d="M589 229c33.333 0 61.8281 4.16797 85.4951 12.501s43.334 21.5 59.001 39.5s27.5 41.333 35.5 70s12.667 63.334 14 104.001h330c0 -90 -12.5 -165 -37.5 -225s-60.333 -108.167 -106 -144.5s-100.667 -62.166 -165 -77.499s-136.166 -23 -215.499 -23
c-83.333 0 -157 9.5 -221 28.5s-118.167 49.667 -162.5 92s-78.666 97.833 -102.999 166.5s-38.5 152.667 -42.5 252c-0.666992 22.667 -1.16699 42.5 -1.5 59.5s-0.5 33.667 -0.5 50s0.166992 34.333 0.5 54s0.833008 43.834 1.5 72.501c3.33301 96 17 177.833 41 245.5
s58.333 123.167 103 166.5s99.167 75 163.5 95s138.166 30 221.499 30c78.667 0 150.167 -7.83301 214.5 -23.5s119.5 -41.5 165.5 -77.5s81.5 -83.667 106.5 -143s37.5 -132.333 37.5 -219h-330c-2.66699 40 -8 74.167 -16 102.5s-19.667 51.166 -35 68.499
s-34.666 30 -57.999 38s-51.666 12 -84.999 12s-61.666 -4.83301 -84.999 -14.5s-42.833 -24.334 -58.5 -44.001s-27.5 -44.334 -35.5 -74.001s-13.333 -64.834 -16 -105.501c-1.33301 -18 -2 -42.333 -2 -73v-97c0 -34 0.166992 -66.833 0.5 -98.5
s0.833008 -57.5 1.5 -77.5c2.66699 -82 19.167 -142.833 49.5 -182.5s78.833 -59.5 145.5 -59.5z" />
    <glyph glyph-name="D" unicode="D" horiz-adv-x="1170" 
d="M594 1278c70 0 131.5 -7.16699 184.5 -21.5s98.5 -34.833 136.5 -61.5s69.5 -59 94.5 -97s44.833 -80.667 59.5 -128s25 -98.833 31 -154.5s9 -114.5 9 -176.5c0 -94 -7 -180 -21 -258s-40 -145.333 -78 -202s-90.5 -100.667 -157.5 -132s-153.167 -47 -258.5 -47h-485
v1278h485zM492 221c44.667 0 82.668 3.66992 114.001 11.0029s57.166 18.666 77.499 33.999s36.166 34.5 47.499 57.5s19.666 49.833 24.999 80.5s8.5 65.667 9.5 105s1.5 82.666 1.5 129.999s-0.5 90.333 -1.5 129s-4.16699 73.5 -9.5 104.5s-13.5 57.833 -24.5 80.5
s-26.667 41.667 -47 57s-46.166 26.666 -77.499 33.999s-69.666 11 -114.999 11h-51v-834h51z" />
    <glyph glyph-name="E" unicode="E" horiz-adv-x="954" 
d="M93 0v1278h807v-246h-477v-233h395v-244h-395v-306h477v-249h-807v0z" />
    <glyph glyph-name="F" unicode="F" horiz-adv-x="855" 
d="M97 0v1278h764l-2 -246h-430v-233h358v-244h-358v-555h-332v0z" />
    <glyph glyph-name="G" unicode="G" horiz-adv-x="1159" 
d="M974 719l140.998 0.00195312c0.666992 -22 1 -41 1 -57v-46c0 -14.667 -0.333008 -29.5 -1 -44.5s-1.33398 -32.833 -2.00098 -53.5c-3.33301 -100 -17 -184.167 -41 -252.5s-58 -123.666 -102 -165.999s-98 -72.833 -162 -91.5s-137.667 -28 -221 -28
s-157 9.66699 -221 29s-118.167 50.666 -162.5 93.999s-78.666 99.5 -102.999 168.5s-38.5 153.167 -42.5 252.5c-0.666992 22.667 -1.16699 42.5 -1.5 59.5s-0.5 33.667 -0.5 50s0.166992 34.333 0.5 54s0.833008 43.834 1.5 72.501c3.33301 96 17 178.333 41 247
s58.333 125 103 169s99.167 76.5 163.5 97.5s138.166 31.5 221.499 31.5c142.667 0 257.167 -31.833 343.5 -95.5s142.5 -165.167 168.5 -304.5h-330c-11.333 52 -31.166 90 -59.499 114s-69.166 36 -122.499 36c-33.333 0 -61.666 -4.83301 -84.999 -14.5
s-42.833 -24.334 -58.5 -44.001s-27.5 -44.334 -35.5 -74.001s-13.333 -64.834 -16 -105.501c-1.33301 -18 -2 -42.333 -2 -73v-97c0 -34 0.166992 -66.833 0.5 -98.5s0.833008 -57.5 1.5 -77.5c2.66699 -82 19.167 -142.833 49.5 -182.5s78.833 -59.5 145.5 -59.5
c37.333 0 68.5 5 93.5 15s45 26 60 48s25.5 50.167 31.5 84.5s9 75.5 9 123.5h-190v219h383z" />
    <glyph glyph-name="H" unicode="H" horiz-adv-x="1257" 
d="M818 774v504h334v-1278h-334v506h-381v-506h-334v1278h334v-504h381v0z" />
    <glyph glyph-name="I" unicode="I" horiz-adv-x="524" 
d="M98 0v1278h338v-1278h-338v0z" />
    <glyph glyph-name="J" unicode="J" horiz-adv-x="616" 
d="M191 1278l339.999 0.000976562v-979c0 -54 -6 -100 -18 -138s-28.667 -69 -50 -93s-47.166 -41.333 -77.499 -52s-63.5 -16 -99.5 -16h-285v256h78c20.667 0 38.167 1.16699 52.5 3.5s26 8.16602 35 17.499s15.333 23.5 19 42.5s5.5 45.5 5.5 79.5v879z" />
    <glyph glyph-name="K" unicode="K" horiz-adv-x="1151" 
d="M97 1278h324v-1278h-324v1278zM1150 1278l-402 -580l389 -698h-380l-334 674l395 604h332z" />
    <glyph glyph-name="L" unicode="L" horiz-adv-x="821" 
d="M445 1278v-1016h377v-262h-719v1278h342v0z" />
    <glyph glyph-name="M" unicode="M" horiz-adv-x="1532" 
d="M767 649l172 629h489v-1278h-313v965l-174 -732h-350l-175 732v-965h-313v1278h492l172 -629v0z" />
    <glyph glyph-name="N" unicode="N" horiz-adv-x="1345" 
d="M919 350v928h319v-1278h-490l-325 963v-963h-322v1278h492l326 -928v0z" />
    <glyph glyph-name="O" unicode="O" horiz-adv-x="1167" 
d="M580 1305c83.333 0 156.836 -10.5 220.503 -31.5s117.167 -53.5 160.5 -97.5s76.5 -100.333 99.5 -169s35.833 -151 38.5 -247c0.666992 -28.667 1.33398 -52.834 2.00098 -72.501s1 -37.667 1 -54s-0.333008 -33 -1 -50s-1.33398 -36.833 -2.00098 -59.5
c-4 -99.333 -17.5 -183.5 -40.5 -252.5s-56 -125.167 -99 -168.5s-96.167 -74.666 -159.5 -93.999s-136.666 -29 -219.999 -29s-156.5 9.66699 -219.5 29s-116 50.666 -159 93.999s-76.333 99.5 -100 168.5s-37.5 153.167 -41.5 252.5
c-0.666992 22.667 -1.16699 42.5 -1.5 59.5s-0.5 33.667 -0.5 50s0.166992 34.333 0.5 54s0.833008 43.834 1.5 72.501c3.33301 96 16.666 178.333 39.999 247s56.666 125 99.999 169s96.666 76.5 159.999 97.5s136.666 31.5 219.999 31.5zM746.003 471
c0.666992 20 1.16699 45.833 1.5 77.5s0.5 64.5 0.5 98.5s-0.166992 66.333 -0.5 97s-0.833008 55 -1.5 73c-2.66699 40.667 -6.5 75.834 -11.5 105.501s-13.333 54.334 -25 74.001s-27.834 34.334 -48.501 44.001s-47.667 14.5 -81 14.5s-60.166 -4.83301 -80.499 -14.5
s-36.333 -24.334 -48 -44.001s-20 -44.334 -25 -74.001s-8.83301 -64.834 -11.5 -105.501c-1.33301 -18 -2 -42.333 -2 -73v-97c0 -34 0.166992 -66.833 0.5 -98.5s0.833008 -57.5 1.5 -77.5c1.33301 -41.333 4.5 -77.166 9.5 -107.499s13.5 -55.5 25.5 -75.5
s28.333 -34.833 49 -44.5s47.667 -14.5 81 -14.5s60.5 4.83301 81.5 14.5s37.5 24.5 49.5 44.5s20.5 45.167 25.5 75.5s8.16699 66.166 9.5 107.499z" />
    <glyph glyph-name="P" unicode="P" horiz-adv-x="1093" 
d="M623 1278c62 0 119.501 -7.5 172.501 -22.5s99 -38.833 138 -71.5s69.5 -74.667 91.5 -126s33 -113.333 33 -186s-11 -136.5 -33 -191.5s-52.333 -101 -91 -138s-83.834 -65 -135.501 -84s-107.167 -28.5 -166.5 -28.5h-205v-430h-328v1278h524zM517.001 668
c30 0 58.666 1.83301 85.999 5.5s51.5 12 72.5 25s37.667 32 50 57s18.5 58.5 18.5 100.5c0 41.333 -5.16699 74.666 -15.5 99.999s-25.166 44.833 -44.499 58.5s-43 22.834 -71 27.501s-60 7 -96 7h-90v-381h90z" />
    <glyph glyph-name="Q" unicode="Q" horiz-adv-x="1167" 
d="M587 1305c83.333 0 157.165 -10.501 221.498 -31.501s118.666 -53.5 162.999 -97.5s78.333 -100.333 102 -169s36.834 -151 39.501 -247c0.666992 -28.667 1.33398 -52.834 2.00098 -72.501s1 -37.667 1 -54s-0.333008 -33 -1 -50s-1.33398 -36.833 -2.00098 -59.5
c-3.33301 -85.333 -14 -158.666 -32 -219.999s-43.833 -112.333 -77.5 -153s-74.667 -72 -123 -94s-103.833 -37 -166.5 -45c18.667 -0.666992 37.834 -1.5 57.501 -2.5s38.834 -2.5 57.501 -4.5s35.834 -4.33301 51.501 -7s28.834 -6 39.501 -10
c15.333 -6.66699 32.333 -13.667 51 -21l52 -21c18.667 -7.33301 37.667 -15.333 57 -24l-76 -213l-140 59l-155.5 65l-196.5 81c-68.667 28 -130.334 60.333 -185.001 97s-101.5 79.5 -140.5 128.5s-69.5 105.167 -91.5 168.5s-34.333 135.333 -37 216
c-0.666992 22.667 -1.16699 42.5 -1.5 59.5s-0.5 33.667 -0.5 50s0.166992 34.333 0.5 54s0.833008 43.834 1.5 72.501c3.33301 96 17 178.333 41 247s58.333 125 103 169s99.167 76.5 163.5 97.5s138.166 31.5 221.499 31.5zM780.999 454.999
c0.666992 20 1.16309 46.667 1.49609 80s0.5 68 0.5 104s-0.166992 70.167 -0.5 102.5s-0.833008 57.5 -1.5 75.5c-2.66699 40.667 -8 75.834 -16 105.501s-19.667 54.334 -35 74.001s-34.666 34.334 -57.999 44.001s-51.666 14.5 -84.999 14.5
s-61.666 -4.83301 -84.999 -14.5s-42.833 -24.334 -58.5 -44.001s-27.5 -44.334 -35.5 -74.001s-13.333 -64.834 -16 -105.501c-1.33301 -18 -2 -43.167 -2 -75.5v-102.5c0 -36 0.166992 -70.667 0.5 -104s0.833008 -60 1.5 -80c3.33301 -81.333 20 -142 50 -182
s78.333 -60 145 -60s114.834 20 144.501 60s46.167 100.667 49.5 182z" />
    <glyph glyph-name="R" unicode="R" horiz-adv-x="1094" 
d="M1052 872c0 -56 -6.66699 -106.667 -20 -152s-31.833 -85.5 -55.5 -120.5s-52.167 -64.5 -85.5 -88.5s-70 -42.667 -110 -56l260 -455h-323l-195 430h-100v-430h-322v1278h516c68 0 129 -7.5 183 -22.5s99.667 -38.833 137 -71.5s65.833 -74.667 85.5 -126
s29.5 -113.333 29.5 -186zM527 651c30 0 57.833 2.83301 83.5 8.5s48 16 67 31s33.833 35.833 44.5 62.5s16 61 16 103c0 41.333 -4.66699 74.666 -14 99.999s-23.333 44.833 -42 58.5s-41.5 22.834 -68.5 27.501s-58.5 7 -94.5 7h-96v-398h104z" />
    <glyph glyph-name="S" unicode="S" horiz-adv-x="969" 
d="M474 1296c85.333 0 157.83 -10.1621 217.497 -30.4951s108.167 -48.666 145.5 -84.999s64 -79.333 80 -129s23.333 -103.834 22 -162.501h-311c0 20 -1.66699 41 -5 63s-9.66602 42.333 -18.999 61s-22.166 34 -38.499 46s-37.833 18 -64.5 18
c-16.667 0 -32.667 -2.5 -48 -7.5s-29 -12 -41 -21s-21.667 -19.833 -29 -32.5s-11 -26.334 -11 -41.001c0 -15.333 1.66699 -29.833 5 -43.5s9.83301 -27.167 19.5 -40.5s23 -26.333 40 -39s39.167 -25 66.5 -37c78.667 -35.333 145.5 -68.833 200.5 -100.5
s99.833 -65 134.5 -100s59.834 -73.333 75.501 -115s23.5 -90.167 23.5 -145.5c0 -66.667 -11.833 -123.334 -35.5 -170.001s-56.5 -84.834 -98.5 -114.501s-92.167 -51.334 -150.5 -65.001s-121.833 -20.5 -190.5 -20.5c-57.333 0 -111.333 6.83301 -162 20.5
s-95.5 37.5 -134.5 71.5s-70.333 79.833 -94 137.5s-36.834 130.5 -39.501 218.5h335c0 -44.667 3 -80.667 9 -108s14 -48.5 24 -63.5s21.667 -25 35 -30s27.333 -7.5 42 -7.5c39.333 0 69.5 11.167 90.5 33.5s31.5 55.5 31.5 99.5c0 24 -5.16699 44.667 -15.5 62
s-23.666 32.666 -39.999 45.999s-34.5 24.833 -54.5 34.5l-58 27.5c-76 34.667 -140.5 68.5 -193.5 101.5s-95.5 67.833 -127.5 104.5s-54 76.667 -66 120s-15.333 93 -10 149c4 44.667 16.167 85.167 36.5 121.5s49 67.333 86 93s81.833 45.5 134.5 59.5s113.667 21 183 21
z" />
    <glyph glyph-name="T" unicode="T" horiz-adv-x="877" 
d="M18 1032v246h847v-246h-254v-1032h-342v1032h-251v0z" />
    <glyph glyph-name="U" unicode="U" horiz-adv-x="1120" 
d="M703 1278h346.002v-811c0 -82.667 -11.333 -153.834 -34 -213.501s-55 -108.834 -97 -147.501s-93 -67.334 -153 -86.001s-127.667 -28 -203 -28c-76 0 -144.167 9.33301 -204.5 28s-111.5 47.334 -153.5 86.001s-74.333 87.834 -97 147.501s-34 130.834 -34 213.501v811
h346v-838c0 -35.333 3.66699 -65 11 -89s17.5 -43.5 30.5 -58.5s28.167 -25.833 45.5 -32.5s36 -10 56 -10c22 0 41.667 3.16699 59 9.5s32.166 16.833 44.499 31.5s21.666 34.167 27.999 58.5s9.5 54.5 9.5 90.5v838z" />
    <glyph glyph-name="V" unicode="V" horiz-adv-x="1084" 
d="M542 367l176 911h365l-338 -1278h-406l-340 1278h365l178 -911v0z" />
    <glyph glyph-name="W" unicode="W" horiz-adv-x="1610" 
d="M1169 399l86 879h358l-258 -1278h-381l-174 935l-180 -935h-381l-252 1278h358l86 -879l136 879h466l136 -879v0z" />
    <glyph glyph-name="X" unicode="X" horiz-adv-x="1042" 
d="M651 1278h401l-304 -639l304 -639h-401l-126 402l-125 -402h-403l303 639l-303 639h403l125 -394l126 394v0z" />
    <glyph glyph-name="Y" unicode="Y" horiz-adv-x="995" 
d="M496 803l162 475h364l-368 -778v-500h-324v500l-360 778h364l162 -475v0z" />
    <glyph glyph-name="Z" unicode="Z" horiz-adv-x="925" 
d="M916 1278l-438 -1024h414v-254h-875l437 1024h-413l1 254h874v0z" />
    <glyph glyph-name="bracketleft" unicode="[" horiz-adv-x="579" 
d="M566 1113h-141v-1194h141v-180h-392v1552h392v-178v0z" />
    <glyph glyph-name="backslash" unicode="\" horiz-adv-x="704" 
d="M-4 1292h217l475 -1552h-215z" />
    <glyph glyph-name="bracketright" unicode="]" horiz-adv-x="579" 
d="M19 1113v178h392v-1552h-392v180h141v1194h-141v0z" />
    <glyph glyph-name="asciicircum" unicode="^" horiz-adv-x="1093" 
d="M640 1278l208 -350h-242l-62 119l-55 -119h-233l197 350h187z" />
    <glyph glyph-name="underscore" unicode="_" horiz-adv-x="1149" 
d="M1 273h1147v-273h-1147v273z" />
    <glyph glyph-name="grave" unicode="`" horiz-adv-x="456" 
d="M70 698l58 537h247v-171l-168 -366h-137v0z" />
    <glyph glyph-name="a" unicode="a" horiz-adv-x="1018" 
d="M636 121c-30 -47.333 -69.667 -81.6641 -119 -102.997s-109.333 -32 -180 -32c-52 0 -96.667 6.83301 -134 20.5s-67.666 32.667 -90.999 57s-40.5 53 -51.5 86s-16.5 69.167 -16.5 108.5s5.33301 76.666 16 111.999s27.5 67.166 50.5 95.499s52.5 53 88.5 74
s79.333 37.167 130 48.5c68.667 14 127.667 24.167 177 30.5l128 16.5c0 38 -7.83301 64.833 -23.5 80.5s-42.167 23.5 -79.5 23.5c-12 0 -27.167 -0.166992 -45.5 -0.5s-38.333 -0.833008 -60 -1.5s-44.334 -1.5 -68.001 -2.5s-46.834 -1.83301 -69.501 -2.5
c-53.333 -2.66699 -110 -5 -170 -7l-9 197l233 9c30.667 0.666992 61.334 1.5 92.001 2.5s59.5 1.83301 86.5 2.5s51 1 72 1s36.833 -0.333008 47.5 -1c66 -4 118.667 -15.333 158 -34s69.5 -44.334 90.5 -77.001s34.667 -72.5 41 -119.5s9.5 -100.5 9.5 -160.5v-545h-303
v121zM454 195.002c30.667 0 57.499 5.16602 80.499 15.499s42 24.833 57 43.5s26.167 41.334 33.5 68.001s11 56 11 88v62c-10 -2 -22.5 -5 -37.5 -9s-30.333 -8.33301 -46 -13l-44.5 -13l-32 -9c-45.333 -14 -77.166 -32.667 -95.499 -56s-27.5 -50.333 -27.5 -81
c0 -28 8.5 -51 25.5 -69s42.167 -27 75.5 -27z" />
    <glyph glyph-name="b" unicode="b" horiz-adv-x="1042" 
d="M404 0l-313.001 0.000976562v1278h313v-383c20.667 17.333 44.834 30.333 72.501 39s58.834 14.667 93.501 18c70.667 6.66699 132.667 0.666992 186 -18s98 -49 134 -91s63 -94.833 81 -158.5s27 -136.834 27 -219.501c0 -166 -35.833 -289.333 -107.5 -370
s-175.834 -115.667 -312.501 -105c-77.333 6 -135.333 30.333 -174 73v-63zM539.999 745.001c-21.333 0 -40.665 -3.49805 -57.998 -10.498s-32.5 -20.333 -45.5 -40s-23 -47.167 -30 -82.5s-10.5 -81 -10.5 -137s3.5 -102.5 10.5 -139.5s17 -66.167 30 -87.5
s28.167 -36.333 45.5 -45s36.666 -13 57.999 -13s41 4 59 12s33.333 22.667 46 44s22.5 50.333 29.5 87s10.5 84 10.5 142c0 57.333 -3.66699 103.666 -11 138.999s-17.5 62.666 -30.5 81.999s-28.333 32.333 -46 39s-36.834 10 -57.501 10z" />
    <glyph glyph-name="c" unicode="c" horiz-adv-x="981" 
d="M515 -20c-74 0 -140.001 10.333 -198.001 31s-107 51.334 -147 92.001s-70.667 91 -92 151s-32 129.667 -32 209c0 78.667 10.667 148 32 208s52 110.167 92 150.5s89 70.833 147 91.5s124 31 198 31c61.333 0 117.5 -6.5 168.5 -19.5s95.167 -33 132.5 -60
s67.166 -61.5 89.499 -103.5s35.5 -92.333 39.5 -151h-319c-4 25.333 -9.16699 46.166 -15.5 62.499s-14.166 29.333 -23.499 39s-20 16.334 -32 20.001s-25.333 5.5 -40 5.5c-20.667 0 -39.334 -4.16699 -56.001 -12.5s-31 -23.333 -43 -45s-21.333 -50.834 -28 -87.501
s-10 -83 -10 -139c0 -56.667 3.33301 -102.667 10 -138s16 -62.833 28 -82.5s26.333 -33 43 -40s35.334 -10.5 56.001 -10.5c17.333 0 33.333 2.5 48 7.5s27.334 14 38.001 27s19 30.833 25 53.5s9.33301 52 10 88h317c-3.33301 -68 -15.666 -126 -36.999 -174
s-51 -87 -89 -117s-83.333 -52 -136 -66s-111.334 -21 -176.001 -21z" />
    <glyph glyph-name="d" unicode="d" horiz-adv-x="1038" 
d="M632 1278l313 -0.000976562v-1278h-313v63c-40.667 -42.667 -98.667 -67 -174 -73c-136.667 -10.667 -240.834 24.333 -312.501 105s-107.5 204 -107.5 370c0 82.667 9 155.834 27 219.501s44.833 116.5 80.5 158.5s80.167 72.333 133.5 91s115 24.667 185 18
c36 -3.33301 67.833 -9.33301 95.5 -18s51.834 -21.667 72.501 -39v383zM494 189.999c21.333 0 41 4.33105 59 12.998s33.5 23.667 46.5 45s23 50.5 30 87.5s10.5 83.5 10.5 139.5s-3.5 101.667 -10.5 137s-17 62.833 -30 82.5s-28.5 33 -46.5 40s-37.667 10.5 -59 10.5
c-20.667 0 -39.834 -3.33301 -57.501 -10s-32.834 -19.667 -45.501 -39s-22.5 -46.666 -29.5 -81.999s-10.5 -81.666 -10.5 -138.999c0 -58 3.5 -105.333 10.5 -142s16.833 -65.667 29.5 -87s27.834 -36 45.501 -44s36.834 -12 57.501 -12z" />
    <glyph glyph-name="e" unicode="e" horiz-adv-x="1028" 
d="M509 944c74 0 140.171 -9.49902 198.504 -28.499s107.666 -48.167 147.999 -87.5s71.166 -89.333 92.499 -150s32 -132.334 32 -215.001c0 -15.333 -0.333008 -29.333 -1 -42s-2 -27.334 -4 -44.001h-616c0 -36 4.66699 -68 14 -96s21.166 -51.5 35.499 -70.5
s30.333 -33.5 48 -43.5s35.167 -15 52.5 -15c12.667 0 25.667 2.33301 39 7s25.833 11.834 37.5 21.501s22 21.5 31 35.5s15.5 30.667 19.5 50h325c-14 -54 -34.667 -99.667 -62 -137s-60.333 -67.333 -99 -90s-82.334 -39 -131.001 -49s-102 -15 -160 -15
c-74 0 -140 10.667 -198 32s-107 52.5 -147 93.5s-70.667 91.833 -92 152.5s-32 130.667 -32 210c0 78.667 10.667 148 32 208s52 110.167 92 150.5s89 70.833 147 91.5s124 31 198 31zM654.004 532.001c1.33301 36.667 -2.16992 68.333 -10.5029 95
s-19.666 48.667 -33.999 66s-30.333 30.333 -48 39s-35.167 13 -52.5 13s-34.5 -4 -51.5 -12s-32.667 -20.5 -47 -37.5s-26.166 -39 -35.499 -66s-14.666 -59.5 -15.999 -97.5h295z" />
    <glyph glyph-name="f" unicode="f" horiz-adv-x="678" 
d="M169 705l-125.002 -0.000976562v223h125v71c0 54.667 6.16699 99.834 18.5 135.501s28.5 64.167 48.5 85.5s42.5 36.333 67.5 45s50.5 13 76.5 13h272v-197h-86c-14 0 -27.167 -0.833008 -39.5 -2.5s-23.166 -6 -32.499 -13s-16.666 -17.667 -21.999 -32
s-8 -33.833 -8 -58.5v-47h166v-223h-162v-705h-299v705z" />
    <glyph glyph-name="g" unicode="g" horiz-adv-x="1038" 
d="M476 0c-70.667 -6.66699 -132.667 -0.834961 -186 17.498s-98 48 -134 89s-63 92.5 -81 154.5s-27 133.333 -27 214c0 162.667 35.667 283 107 361s175.666 111.333 312.999 100c40 -2 74.167 -9 102.5 -21s52.166 -28.333 71.499 -49v62h305v-811
c0 -76.667 -5.5 -144.667 -16.5 -204s-30.5 -109.166 -58.5 -149.499s-65.833 -71 -113.5 -92s-108.5 -31.5 -182.5 -31.5c-28 0.666992 -60.167 2.83398 -96.5 6.50098s-71.166 7.5 -104.499 11.5c-38.667 4.66699 -78 10 -118 16l18 191c35.333 -6 69.333 -11 102 -15
c28 -3.33301 56.5 -6 85.5 -8s53.167 -1.33301 72.5 2c16.667 2.66699 32 6.66699 46 12s26 14.333 36 27s17.667 29.834 23 51.501s8 50.167 8 85.5v48c-20.667 -16.667 -45.667 -31.334 -75 -44.001s-61.666 -20.667 -96.999 -24zM353 464.999
c0 -56 4 -101.166 12 -135.499s19 -61 33 -80s30.333 -31.833 49 -38.5s38.667 -10 60 -10c20.667 0 40.5 3.5 59.5 10.5s35.833 20.167 50.5 39.5s26.167 46.166 34.5 80.499s12.5 78.833 12.5 133.5s-4.16699 100 -12.5 136s-19.833 64.5 -34.5 85.5
s-31.5 35.667 -50.5 44s-38.833 12.5 -59.5 12.5c-21.333 0 -41.333 -4 -60 -12s-35 -22.333 -49 -43s-25 -49 -33 -85s-12 -82 -12 -138z" />
    <glyph glyph-name="h" unicode="h" horiz-adv-x="1054" 
d="M664 508c0 64 -11.8311 110.334 -35.498 139.001s-57.5 43 -101.5 43c-38 0 -67.667 -15.333 -89 -46s-32 -76 -32 -136v-508h-303v1278h303v-467c21.333 38 49.833 67.5 85.5 88.5s76.167 33.167 121.5 36.5c60 3.33301 112.667 -4.33398 158 -23.001
s83.166 -45.334 113.499 -80.001s53.166 -75.667 68.499 -123s23 -97.666 23 -150.999v-559h-312v508v0z" />
    <glyph glyph-name="i" unicode="i" horiz-adv-x="528" 
d="M427 928v-928h-324v928h324zM427 1278v-231h-324v231h324z" />
    <glyph glyph-name="j" unicode="j" horiz-adv-x="545" 
d="M439 14c0 -38 -3.16797 -74 -9.50098 -108s-16.166 -65.167 -29.499 -93.5s-30.166 -53 -50.499 -74s-44.5 -37.5 -72.5 -49.5c-29.333 -12.667 -62 -20.834 -98 -24.501s-72.333 -4.33398 -109 -2.00098s-71.334 7 -104.001 14s-60 14.5 -82 22.5l21 203l27.5 -7
c13 -3.33301 27.5 -6.16602 43.5 -8.49902s32.5 -3.66602 49.5 -3.99902s32.167 1.83398 45.5 6.50098c17.333 6.66699 31.5 22.667 42.5 48s16.5 60.666 16.5 105.999v885h309v-914zM438.999 1047h-309v231h309v-231z" />
    <glyph glyph-name="k" unicode="k" horiz-adv-x="1001" 
d="M87 1278h299v-797v-481h-299v1278zM695 508l328 -508h-367l-270 481l311 447h320z" />
    <glyph glyph-name="l" unicode="l" horiz-adv-x="549" 
d="M284 0c-25.333 0 -49.833 2.66602 -73.5 7.99902s-44.667 16.5 -63 33.5s-33 41.833 -44 74.5s-16.5 76 -16.5 130v1032h311v-921c0 -25.333 2 -45 6 -59s9.66699 -24.167 17 -30.5s16.333 -10.166 27 -11.499s22.667 -2 36 -2h58v-254h-258v0z" />
    <glyph glyph-name="m" unicode="m" horiz-adv-x="1491" 
d="M611 508c0 64 -9.83398 110.334 -29.501 139.001s-50.167 43 -91.5 43c-36 0 -62.667 -15.333 -80 -46s-26 -76 -26 -136v-508h-293v928h293v-76c20.667 26.667 46.5 46.5 77.5 59.5s67.167 21.167 108.5 24.5c72.667 4 133.667 -9.83301 183 -41.5
s86.666 -74.5 111.999 -128.5c16.667 56.667 44.167 98.167 82.5 124.5s87.5 41.5 147.5 45.5c56 3.33301 104.833 -4.33398 146.5 -23.001s76.5 -45.334 104.5 -80.001s49 -75.667 63 -123s21 -97.666 21 -150.999v-559h-297v508c0 64 -9.66699 110.333 -29 139
s-49.666 43 -90.999 43c-35.333 0 -61.666 -15.333 -78.999 -46s-26 -76 -26 -136v-508h-297v508v0z" />
    <glyph glyph-name="n" unicode="n" horiz-adv-x="1032" 
d="M402 0l-313 0.000976562v928h313v-76c22.667 26.667 50.5 46.5 83.5 59.5s72.167 21.167 117.5 24.5c59.333 3.33301 111.5 -4.33398 156.5 -23.001s82.5 -45.334 112.5 -80.001s52.667 -75.667 68 -123s23 -97.666 23 -150.999v-559h-319v508
c0 64 -10.5 110.333 -31.5 139s-53.5 43 -97.5 43c-38 0 -66.333 -15.333 -85 -46s-28 -76 -28 -136v-508z" />
    <glyph glyph-name="o" unicode="o" horiz-adv-x="1028" 
d="M511 944c74 0 140 -9.49805 198 -28.498s107 -48.167 147 -87.5s70.667 -89.333 92 -150s32 -132.334 32 -215.001c0 -83.333 -10.667 -155.333 -32 -216s-52 -110.834 -92 -150.501s-89 -69.167 -147 -88.5s-124 -29 -198 -29s-140.167 10.333 -198.5 31
s-107.5 51.5 -147.5 92.5s-70.5 91.5 -91.5 151.5s-31.5 129.667 -31.5 209c0 78.667 10.5 148 31.5 208s51.5 110.167 91.5 150.5s89.167 70.833 147.5 91.5s124.5 31 198.5 31zM511 182.002c20.667 0 39.502 3.33398 56.502 10.001s31.833 19.667 44.5 39
s22.5 46.833 29.5 82.5s10.5 82.167 10.5 139.5s-3.5 104.333 -10.5 141s-16.833 65.667 -29.5 87s-27.5 36 -44.5 44s-35.833 12 -56.5 12c-21.333 0 -40.5 -4.16699 -57.5 -12.5s-31.833 -23.333 -44.5 -45s-22.334 -50.834 -29.001 -87.501s-10 -83 -10 -139
c0 -56.667 3.5 -102.667 10.5 -138s16.667 -62.833 29 -82.5s27.166 -33 44.499 -40s36.333 -10.5 57 -10.5z" />
    <glyph glyph-name="p" unicode="p" horiz-adv-x="1038" 
d="M404 -260l-320.998 -0.000976562v1188h321v-64c38 42 96 66 174 72c136.667 10.667 242.167 -24 316.5 -104s111.5 -203 111.5 -369c0 -83.333 -9.5 -156.166 -28.5 -218.499s-46.833 -113.833 -83.5 -154.5s-82.167 -70 -136.5 -88s-116.833 -23.667 -187.5 -17
c-34.667 3.33301 -65.834 9.5 -93.501 18.5s-51.834 22.167 -72.501 39.5v-303zM540.002 736.999c-21.333 0 -40.667 -4.16602 -58 -12.499s-32.5 -23.333 -45.5 -45s-23 -50.834 -30 -87.501s-10.5 -83 -10.5 -139c0 -56.667 3.5 -102.667 10.5 -138s17 -62.833 30 -82.5
s28.167 -33 45.5 -40s36.666 -10.5 57.999 -10.5c20.667 0 39.834 3.33301 57.501 10s33 19.667 46 39s23.167 46.833 30.5 82.5s11 82.167 11 139.5s-3.5 104.333 -10.5 141s-16.833 65.667 -29.5 87s-28 36 -46 44s-37.667 12 -59 12z" />
    <glyph glyph-name="q" unicode="q" horiz-adv-x="1063" 
d="M652 43c-20.667 -17.333 -44.668 -30.499 -72.001 -39.499s-58.666 -15.167 -93.999 -18.5c-70.667 -6.66699 -133 -1 -187 17s-99.5 47.333 -136.5 88s-65 92.167 -84 154.5s-28.5 135.166 -28.5 218.499c0 166 37.333 289 112 369s180 114.667 316 104
c78 -6 136 -30 174 -72v64h322v-1188h-322v303zM516.999 182.001c20.667 0 39.999 3.49902 57.999 10.499s33.333 20.333 46 40s22.667 47.167 30 82.5s11 81.333 11 138c0 56 -3.66699 102.333 -11 139s-17.333 65.834 -30 87.501s-28 36.667 -46 45s-37.333 12.5 -58 12.5
c-21.333 0 -41 -4 -59 -12s-33.333 -22.667 -46 -44s-22.5 -50.333 -29.5 -87s-10.5 -83.667 -10.5 -141s3.66699 -103.833 11 -139.5s17.333 -63.167 30 -82.5s27.834 -32.333 45.501 -39s37.167 -10 58.5 -10z" />
    <glyph glyph-name="r" unicode="r" horiz-adv-x="766" 
d="M732 618c-14.667 0.666992 -28.332 1.33496 -40.999 2.00195c-11.333 0.666992 -23 1.16699 -35 1.5s-22 0.166016 -30 -0.500977c-40 -2 -73.833 -10.667 -101.5 -26s-50.167 -35.5 -67.5 -60.5s-30 -53.833 -38 -86.5s-12.333 -67.334 -13 -104.001v-344h-307v928h307
v-199c8.66699 22.667 20.5 45.334 35.5 68.001s33 43.167 54 61.5s45 33.833 72 46.5s56.5 20.334 88.5 23.001c11.333 1.33301 22.166 1.66602 32.499 0.999023s19.5 -1.33398 27.5 -2.00098c9.33301 -1.33301 18 -2.33301 26 -3z" />
    <glyph glyph-name="s" unicode="s" horiz-adv-x="874" 
d="M435 172c22.667 0 40.5049 4.83301 53.5049 14.5s20.5 26.167 22.5 49.5c0.666992 12 -0.5 22.5 -3.5 31.5s-8.83301 17.667 -17.5 26s-19.834 17 -33.501 26s-30.5 19.167 -50.5 30.5l-142.5 83c-43.667 24.667 -81.334 50.5 -113.001 77.5s-55.5 57 -71.5 90
s-21.333 73.167 -16 120.5c4 38 16.333 70.833 37 98.5s47.834 50.834 81.501 69.501s73.167 32.5 118.5 41.5s95 13.5 149 13.5c59.333 0 113.5 -6.5 162.5 -19.5s91 -32.833 126 -59.5s61.833 -59.834 80.5 -99.501s27.334 -86.5 26.001 -140.5h-307
c4 19.333 5 37.833 3 55.5s-6.5 33.334 -13.5 47.001s-16.167 24.5 -27.5 32.5s-24.333 12 -39 12c-26 0 -46.167 -6.83301 -60.5 -20.5s-21.5 -34.834 -21.5 -63.501c0 -14.667 2.83301 -27 8.5 -37s13.667 -19 24 -27s23 -15.667 38 -23s31.833 -16 50.5 -26l131 -70
c40.667 -21.333 76.167 -44.5 106.5 -69.5s54.333 -53.333 72 -85s26.5 -69.834 26.5 -114.501c0 -37.333 -9 -71.5 -27 -102.5s-44.167 -57.5 -78.5 -79.5s-76.5 -39.167 -126.5 -51.5s-107.333 -18.5 -172 -18.5c-60.667 0 -114.834 7.66699 -162.501 23
s-88.334 37.166 -122.001 65.499s-59.334 62.333 -77.001 102s-26.834 83.834 -27.501 132.501h315c0.666992 -21.333 3.16699 -40.333 7.5 -57s10.166 -30.667 17.499 -42s15.5 -20.166 24.5 -26.499s18.5 -9.5 28.5 -9.5z" />
    <glyph glyph-name="t" unicode="t" horiz-adv-x="622" 
d="M152 690l-139.001 0.000976562v238h139v235h299v-235h148v-238h-148v-334c0 -24.667 1.66699 -43.834 5 -57.501s8.5 -24 15.5 -31s15.5 -11.333 25.5 -13s22 -2.5 36 -2.5h90v-252h-268c-25.333 0 -50.166 2.66699 -74.499 8s-46 16.5 -65 33.5s-34.333 41.833 -46 74.5
s-17.5 76 -17.5 130v444z" />
    <glyph glyph-name="u" unicode="u" horiz-adv-x="1028" 
d="M628 0v76.001c-22.667 -26.667 -50.834 -46.5 -84.501 -59.5s-72.5 -21.167 -116.5 -24.5c-59.333 -4 -111.5 3.5 -156.5 22.5s-82.667 45.833 -113 80.5s-53.166 75.667 -68.499 123s-23 97.666 -23 150.999v559h318v-508c0 -64 10.833 -110.333 32.5 -139
s54.5 -43 98.5 -43c38 0 66.333 15.333 85 46s28 76 28 136v508h313v-928h-313z" />
    <glyph glyph-name="v" unicode="v" horiz-adv-x="985" 
d="M626 928h365l-299 -928h-406l-299 928h365l137 -624h10l127 624v0z" />
    <glyph glyph-name="w" unicode="w" horiz-adv-x="1343" 
d="M792 0l-111 574l-111 -574h-383l-215 928h340l64 -586h10l113 586h364l109 -586h10l65 586h342l-215 -928h-382v0z" />
    <glyph glyph-name="x" unicode="x" horiz-adv-x="858" 
d="M347 0h-356l242 489l-242 439h356l80 -244l80 244h356l-244 -439l244 -489h-356l-80 285l-80 -285v0z" />
    <glyph glyph-name="y" unicode="y" horiz-adv-x="848" 
d="M153 -170l129 307l-308 791h355l104 -427l123 427h323l-415 -1098h-311v0z" />
    <glyph glyph-name="z" unicode="z" horiz-adv-x="745" 
d="M763 928l-348 -680h315v-248h-737l346 680h-322v248h746v0z" />
    <glyph glyph-name="braceleft" unicode="{" horiz-adv-x="661" 
d="M482 739c0 -18 -2.49902 -38.0049 -7.49902 -60.0049s-13.5 -43 -25.5 -63s-27.833 -37.833 -47.5 -53.5s-43.834 -25.834 -72.501 -30.501c28.667 -4.66699 52.667 -14.667 72 -30s35 -33 47 -53s20.667 -41 26 -63s8 -42 8 -60v-197
c0 -50.667 0.833008 -94.667 2.5 -132s8.66699 -68 21 -92s32.166 -41.5 59.499 -52.5s66.666 -15.833 117.999 -14.5v-104c-33.333 -3.33301 -66.166 -5 -98.499 -5s-63.166 3 -92.499 9s-56.5 15.833 -81.5 29.5s-46.667 32.834 -65 57.501s-32.833 55.334 -43.5 92.001
s-16 81.334 -16 134.001v291c-2 24.667 -7.66699 47 -17 67c-4 8.66699 -9 17 -15 25s-13.167 15.167 -21.5 21.5s-18 11.5 -29 15.5s-23.833 6 -38.5 6v111c29.333 0 52 6.83301 68 20.5s28 29.167 36 46.5c9.33301 20 15 42.667 17 68v291
c0 52.667 5.33301 97.334 16 134.001s25.167 67.334 43.5 92.001s40 43.834 65 57.501s52.167 23.5 81.5 29.5s60.166 8.83301 92.499 8.5s65.166 -1.83301 98.499 -4.5v-104c-51.333 1.33301 -90.666 -3.66699 -117.999 -15s-47.166 -29 -59.499 -53
s-19.333 -54.5 -21 -91.5s-2.5 -80.833 -2.5 -131.5v-197v0z" />
    <glyph glyph-name="bar" unicode="|" horiz-adv-x="542" 
d="M345 -261h-141v1553h141v-1553z" />
    <glyph glyph-name="braceright" unicode="}" horiz-adv-x="628" 
d="M157 936c0 50.667 -0.833984 94.5049 -2.50098 131.505s-8.66699 67.5 -21 91.5s-32.166 41.667 -59.499 53s-66.666 16.333 -117.999 15v104c33.333 3.33301 66.166 5 98.499 5s63.166 -3 92.499 -9s56.5 -15.833 81.5 -29.5s46.667 -32.834 65 -57.501
s32.666 -55.334 42.999 -92.001s15.833 -81.334 16.5 -134.001v-291c2 -25.333 7.66699 -48 17 -68c8 -17.333 20 -32.833 36 -46.5s38.667 -20.5 68 -20.5v-111c-14.667 0 -27.667 -2 -39 -6s-21.166 -9.16699 -29.499 -15.5s-15.333 -13.5 -21 -21.5
s-10.5 -16.333 -14.5 -25c-9.33301 -20 -15 -42.333 -17 -67v-291c0 -52.667 -5.33301 -97.334 -16 -134.001s-25.167 -67.334 -43.5 -92.001s-40 -43.834 -65 -57.501s-52.167 -23.5 -81.5 -29.5s-60.166 -9 -92.499 -9s-65.166 1.66699 -98.499 5v104
c51.333 -1.33301 90.666 3.5 117.999 14.5s47.166 28.5 59.499 52.5s19.333 54.667 21 92s2.5 81.333 2.5 132v197c0 18 2.66699 38 8 60s14 43 26 63s27.667 37.667 47 53s43.333 25.333 72 30c-29.333 4.66699 -53.666 14.834 -72.999 30.501s-35 33.5 -47 53.5
s-20.5 41 -25.5 63s-7.5 42 -7.5 60v197z" />
    <glyph glyph-name="asciitilde" unicode="~" horiz-adv-x="563" 
d="M30 649l26.5039 30.0039c9 10 19 19.167 30 27.5s23.667 15.166 38 20.499s31.166 8 50.499 8c26 0 48.167 -4.16699 66.5 -12.5s35 -17.5 50 -27.5l42.5 -27.5c13.333 -8.33301 28 -12.5 44 -12.5c19.333 0 36 2.5 50 7.5s26.167 11.5 36.5 19.5
s19.666 16.667 27.999 26l24.5 27v-166c-8 -9.33301 -15.667 -19 -23 -29s-16 -19 -26 -27s-21.667 -14.667 -35 -20s-29.666 -8 -48.999 -8c-24.667 0 -44.334 4.66699 -59.001 14s-28.834 19.666 -42.501 30.999s-28.334 21.666 -44.001 30.999s-36.834 14 -63.501 14
c-21.333 0 -39.333 -3.16699 -54 -9.5s-27.5 -14.333 -38.5 -24s-20.667 -19.834 -29 -30.501s-16.166 -20 -23.499 -28v166z" />
    <glyph glyph-name="nonbreakingspace" unicode="&#xa0;" horiz-adv-x="402" 
 />
    <glyph glyph-name="exclamdown" unicode="&#xa1;" horiz-adv-x="565" 
d="M91 -215v514l51 251h295l43 -251v-514h-389zM102 729v332h374v-332h-374z" />
    <glyph glyph-name="cent" unicode="&#xa2;" horiz-adv-x="878" 
d="M425 -17c-60 4.66699 -113.665 18.5029 -160.998 41.5029s-87.333 54.667 -120 95s-57.667 89.166 -75 146.499s-26 123 -26 197c0 73.333 8.66699 138.666 26 195.999s42.333 106 75 146s72.667 71.333 120 94s101 36.667 161 42v149h100v-148
c50.667 -3.33301 97 -12.333 139 -27s78.167 -35.5 108.5 -62.5s54.666 -60.667 72.999 -101s29.166 -87.5 32.499 -141.5h-297c-3.33301 25.333 -8 46.166 -14 62.499s-13.333 29.333 -22 39s-18.5 16.334 -29.5 20.001s-23.5 5.5 -37.5 5.5
c-19.333 0 -36.666 -4.16699 -51.999 -12.5s-28.666 -23.333 -39.999 -45s-20 -50.834 -26 -87.501s-9 -83 -9 -139c0 -56.667 3 -102.667 9 -138s14.667 -62.833 26 -82.5s24.666 -33 39.999 -40s32.666 -10.5 51.999 -10.5c16 0 30.833 2.5 44.5 7.5s25.5 14 35.5 27
s17.833 30.833 23.5 53.5s8.83398 52 9.50098 88h294c-2.66699 -63.333 -12.834 -118 -30.501 -164s-42 -84.167 -73 -114.5s-68 -53.333 -111 -69s-91.5 -25.167 -145.5 -28.5v-158h-100v159z" />
    <glyph glyph-name="sterling" unicode="&#xa3;" horiz-adv-x="655" 
d="M66 218l106.002 -0.000976562v487h-117v223h117v71c0 54.667 5.66699 99.834 17 135.501s26.333 64.167 45 85.5s39.667 36.333 63 45s47 13 71 13h253v-197h-80c-12.667 0 -24.834 -0.833008 -36.501 -2.5s-21.834 -6 -30.501 -13s-15.5 -17.667 -20.5 -32
s-7.5 -33.833 -7.5 -58.5v-47h155v-223h-151v-487h149v-218h-533v218z" />
    <glyph glyph-name="currency" unicode="&#xa4;" horiz-adv-x="948" 
d="M636 336c-24 -18 -49.998 -31.5029 -77.998 -40.5029s-56.5 -13.667 -85.5 -14s-58 3.5 -87 11.5s-56.167 20.333 -81.5 37l-111 -109l-133 133l107 109c-19.333 25.333 -34 52.833 -44 82.5s-15.333 59.834 -16 90.501s3.66602 60.834 12.999 90.501
s23.666 57.167 42.999 82.5l-113 113l137 135l111 -113c25.333 17.333 52.833 30.333 82.5 39s59.5 12.667 89.5 12s59.5 -6 88.5 -16s56.167 -24.333 81.5 -43l104 106l133 -139l-106 -106c15.333 -24.667 26.833 -51 34.5 -79s11.5 -56.333 11.5 -85s-4 -56.667 -12 -84
s-20 -52.666 -36 -75.999l104 -104l-135 -136zM372.002 544.997c12.667 -12 26.832 -21 42.499 -27s31.834 -9 48.501 -9s33 3 49 9s30.667 15 44 27c12 12 21 26.167 27 42.5s9.16699 32.833 9.5 49.5s-2.5 33.167 -8.5 49.5s-15.333 30.5 -28 42.5
c-12 12 -26.167 21.167 -42.5 27.5s-32.833 9.5 -49.5 9.5s-33.167 -3.16699 -49.5 -9.5s-30.5 -15.5 -42.5 -27.5c-12.667 -12.667 -22 -27 -28 -43s-9 -32.167 -9 -48.5s3.16699 -32.5 9.5 -48.5s15.5 -30.667 27.5 -44z" />
    <glyph glyph-name="yen" unicode="&#xa5;" horiz-adv-x="934" 
d="M95 514h219l-360 764h364l162 -535l162 535h364l-368 -764h178v-120h-178v-105h178v-120h-178v-169h-324v169h-219v120h219v105h-219v120z" />
    <glyph glyph-name="brokenbar" unicode="&#xa6;" horiz-adv-x="311" 
d="M224 690h-141v588h141v-588zM224 -260h-141v588h141v-588z" />
    <glyph glyph-name="section" unicode="&#xa7;" horiz-adv-x="950" 
d="M472 -47c20.667 0 37.6729 2.83691 51.0059 8.50391s23.666 13.167 30.999 22.5s12 20.333 14 33s2 25.667 0 39c-2.66699 18.667 -16.5 42.334 -41.5 71.001s-63.5 62 -115.5 100l-140.5 103c-42.333 31.333 -78.833 61.5 -109.5 90.5s-54.334 57.833 -71.001 86.5
s-25.334 59 -26.001 91c-2 20 0 39.5 6 58.5s15.333 37.5 28 55.5s28 35.167 46 51.5s37.667 31.5 59 45.5c-19.333 17.333 -38.333 35.333 -57 54s-35.334 37.834 -50.001 57.501s-26.334 40.167 -35.001 61.5s-13 43.666 -13 66.999
c-1.33301 44.667 7.16699 82.834 25.5 114.501s44.333 57.667 78 78s74.5 35.166 122.5 44.499s101 14 159 14c65.333 0 123.666 -8.33301 174.999 -25s94.5 -39.834 129.5 -69.501s61.5 -64.834 79.5 -105.501s26.667 -85 26 -133h-254
c1.33301 19.333 -0.166992 38.5 -4.5 57.5s-11.833 36 -22.5 51s-24.667 27.333 -42 37s-38 14.834 -62 15.501c-40 1.33301 -69.167 -6.83398 -87.5 -24.501s-27.5 -41.5 -27.5 -71.5c0 -16.667 5.5 -33 16.5 -49s25.167 -31.667 42.5 -47s36.5 -30.333 57.5 -45l61.5 -43
l93.5 -66.5c32.333 -23 63 -46.167 92 -69.5s54.667 -46.166 77 -68.499s38.5 -42.833 48.5 -61.5c27.333 -51.333 34 -102.833 20 -154.5s-54.333 -102.5 -121 -152.5c30 -24.667 54.167 -49.834 72.5 -75.501s32.166 -50.834 41.499 -75.501s15 -47.834 17 -69.501
s1.66699 -40.834 -1 -57.501c-13.333 -75.333 -52 -133.333 -116 -174s-155 -61 -273 -61c-68.667 0 -129.667 7.83301 -183 23.5s-98 38.5 -134 68.5s-62.833 67 -80.5 111s-25.167 94 -22.5 150h268c-1.33301 -58 10.834 -99.5 36.501 -124.5s64.167 -37.5 115.5 -37.5z
M545.006 553.004c-13.333 11.333 -29.5 24.335 -48.5 39.002l-56.5 43l-50.5 38c-15 11.333 -25.5 19.666 -31.5 24.999c-16 -12 -27 -24.333 -33 -37s-8 -25 -6 -37s7 -23.333 15 -34s18 -20.334 30 -29.001l60.5 -47l65.5 -51.5l58.5 -47l39.5 -32.5
c24 18.667 37.5 36.167 40.5 52.5s0.333008 31.5 -8 45.5s-20 27 -35 39z" />
    <glyph glyph-name="dieresis" unicode="&#xa8;" horiz-adv-x="567" 
d="M40 1276c0 28.667 9 52.167 27 70.5s40.333 27.5 67 27.5c28.667 0 51.834 -9.16699 69.501 -27.5s26.5 -41.833 26.5 -70.5c0 -26.667 -8.83301 -48.667 -26.5 -66s-40.834 -26 -69.501 -26c-26.667 0 -49 8.66699 -67 26s-27 39.333 -27 66zM339 1276
c0 28.667 8.66699 52.167 26 70.5s39.333 27.5 66 27.5c28.667 0 52.167 -9.16699 70.5 -27.5s27.5 -41.833 27.5 -70.5c0 -26.667 -9.16699 -48.667 -27.5 -66s-41.833 -26 -70.5 -26c-26.667 0 -48.667 8.66699 -66 26s-26 39.333 -26 66z" />
    <glyph glyph-name="copyright" unicode="&#xa9;" horiz-adv-x="1478" 
d="M60 641c0 92 13.667 178.33 41 258.997s69 151.167 125 211.5s127 108 213 143s187.667 52.5 305 52.5s219 -17.5 305 -52.5s157.333 -82.667 214 -143s98.667 -130.833 126 -211.5s41 -167 41 -259c0 -61.333 -6 -120.166 -18 -176.499s-30.5 -109.166 -55.5 -158.499
s-56.167 -94.166 -93.5 -134.499s-81.5 -75 -132.5 -104s-108.667 -51.333 -173 -67s-135.5 -23.5 -213.5 -23.5c-117.333 0 -219 17.333 -305 52s-157 82 -213 142s-97.667 130.333 -125 211s-41 167 -41 259zM261 638.997c0 -169.333 40.4961 -299 121.496 -389
s200.833 -135 359.5 -135s278.667 45 360 135s122 219.667 122 389c0 84.667 -10.167 159.5 -30.5 224.5s-50.666 119.667 -90.999 164s-90.666 78 -150.999 101s-130.166 34.5 -209.499 34.5s-149 -11.5 -209 -34.5s-110.167 -56.667 -150.5 -101s-70.666 -99 -90.999 -164
s-30.5 -139.833 -30.5 -224.5zM1080 527.997c-9.33301 -91.333 -41.335 -160.832 -96.002 -208.499s-134.667 -71.5 -240 -71.5c-50 0 -95.5 6.83301 -136.5 20.5s-76.5 34.167 -106.5 61.5s-53.667 61.166 -71 101.499s-27.333 87.5 -30 141.5
c-0.666992 12 -1.16699 22.667 -1.5 32s-0.5 18.5 -0.5 27.5s0.166992 18.833 0.5 29.5s0.833008 23.334 1.5 38.001c2 51.333 11.667 97 29 137s41 73.833 71 101.5s65.667 48.834 107 63.501s87 22 137 22c98.667 0 176.334 -24.333 233.001 -73s91 -115 103 -199h-229
c-5.33301 41.333 -16.166 72 -32.499 92s-41.166 30 -74.499 30c-23.333 0 -41.833 -3.5 -55.5 -10.5s-24.5 -17.333 -32.5 -31s-13.667 -30.834 -17 -51.501s-6.33301 -44.667 -9 -72v-125c1.33301 -28.667 3.83301 -54.5 7.5 -77.5s9.5 -42.667 17.5 -59
s19 -28.833 33 -37.5s32.667 -13 56 -13c18.667 0 34.5 3.16699 47.5 9.5s23.667 15.166 32 26.499s14.666 25 18.999 41s7.83301 34 10.5 54h227z" />
    <glyph glyph-name="ordfeminine" unicode="&#xaa;" horiz-adv-x="692" 
d="M427 761c-18.667 -29.333 -43.165 -50.6709 -73.498 -64.0039s-67.5 -20 -111.5 -20c-32.667 0 -60.5 4.33301 -83.5 13s-41.833 20.5 -56.5 35.5s-25.334 32.833 -32.001 53.5s-10 43 -10 67c0 24.667 3.33301 47.834 10 69.501s17.167 41.334 31.5 59.001
s32.666 32.834 54.999 45.501s49.166 22.667 80.499 30c42.667 9.33301 79.167 15.833 109.5 19.5l79.5 9.5c0 23.333 -4.83301 40 -14.5 50s-26.167 15 -49.5 15c-7.33301 0 -16.833 -0.166992 -28.5 -0.5s-24.167 -0.833008 -37.5 -1.5s-27.333 -1.16699 -42 -1.5
s-29 -0.833008 -43 -1.5l-105 -4l-5 122c52 2 100 4 144 6l56.5 2c19 0.666992 36.833 1 53.5 1h44.5h29.5c40.667 -2.66699 73.334 -9.66699 98.001 -21s43.5 -27.166 56.5 -47.499s21.5 -45 25.5 -74s6 -62.167 6 -99.5v-338h-188v75zM314.002 806.995
c38.667 0 67.168 12.166 85.501 36.499s27.5 56.5 27.5 96.5v38c-6 -1.33301 -13.667 -3.16602 -23 -5.49902s-18.833 -4.83301 -28.5 -7.5s-18.834 -5.33398 -27.501 -8.00098l-20 -6c-28.667 -8.66699 -48.5 -20.167 -59.5 -34.5s-16.5 -31.166 -16.5 -50.499
c0 -17.333 5.16699 -31.5 15.5 -42.5s25.833 -16.5 46.5 -16.5z" />
    <glyph glyph-name="guillemotleft" unicode="&#xab;" horiz-adv-x="661" 
d="M102 1235h220v-169l-149 -362h-122zM394 1233h220v-169l-150 -361h-122z" />
    <glyph glyph-name="logicalnot" unicode="&#xac;" horiz-adv-x="829" 
d="M16 1111v168h780v-346h-165v178h-615z" />
    <glyph glyph-name="uni00AD" unicode="&#xad;" horiz-adv-x="770" 
d="M83 660h586v-268h-586v268z" />
    <glyph glyph-name="registered" unicode="&#xae;" horiz-adv-x="1485" 
d="M1060 778c0 -35.333 -4.66699 -65.832 -14 -91.499s-22.166 -47.334 -38.499 -65.001s-35.833 -31.5 -58.5 -41.5s-47.334 -17 -74.001 -21l174 -282h-188l-141 278h-49v-278h-183v727h326c35.333 0 68 -5 98 -15s56 -24.5 78 -43.5s39.167 -42.5 51.5 -70.5
s18.5 -60.333 18.5 -97zM753 670.001c42 0 72.832 8.50098 92.499 25.501s29.5 44.5 29.5 82.5c0 37.333 -8.16699 66.166 -24.5 86.499s-42.166 30.5 -77.499 30.5h-102v-225h82zM59.999 641.002c0 92 13.667 178.33 41 258.997s69 151.167 125 211.5s127 108 213 143
s187.667 52.5 305 52.5s219 -17.5 305 -52.5s157.333 -82.667 214 -143s98.667 -130.833 126 -211.5s41 -167 41 -259c0 -61.333 -6 -120.166 -18 -176.499s-30.5 -109.166 -55.5 -158.499s-56.167 -94.166 -93.5 -134.499s-81.5 -75 -132.5 -104s-108.667 -51.333 -173 -67
s-135.5 -23.5 -213.5 -23.5c-117.333 0 -219 17.333 -305 52s-157 82 -213 142s-97.667 130.333 -125 211s-41 167 -41 259zM260.999 638.999c0 -169.333 40.4961 -299 121.496 -389s200.833 -135 359.5 -135s278.667 45 360 135s122 219.667 122 389
c0 84.667 -10.167 159.5 -30.5 224.5s-50.666 119.667 -90.999 164s-90.666 78 -150.999 101s-130.166 34.5 -209.499 34.5s-149 -11.5 -209 -34.5s-110.167 -56.667 -150.5 -101s-70.666 -99 -90.999 -164s-30.5 -139.833 -30.5 -224.5z" />
    <glyph glyph-name="macron" unicode="&#xaf;" horiz-adv-x="1036" 
d="M2 1626h1032v-202h-1032v202z" />
    <glyph glyph-name="degree" unicode="&#xb0;" horiz-adv-x="741" 
d="M89 1001c0 39.333 7.5 76.5 22.5 111.5s35.5 65.5 61.5 91.5s56.5 46.5 91.5 61.5s72.167 22.5 111.5 22.5s76.333 -7.5 111 -22.5s65 -35.5 91 -61.5s46.5 -56.5 61.5 -91.5s22.5 -72.167 22.5 -111.5s-7.5 -76.333 -22.5 -111s-35.5 -65 -61.5 -91
s-56.333 -46.5 -91 -61.5s-71.667 -22.5 -111 -22.5s-76.5 7.5 -111.5 22.5s-65.5 35.5 -91.5 61.5s-46.5 56.333 -61.5 91s-22.5 71.667 -22.5 111zM261 1001c0 -16 2.83301 -30.833 8.5 -44.5s13.667 -25.5 24 -35.5s22.333 -17.833 36 -23.5s28.5 -8.5 44.5 -8.5
c32 0 58.667 10.667 80 32s32 48 32 80c0 16 -2.83301 30.833 -8.5 44.5s-13.5 25.667 -23.5 36s-21.833 18.333 -35.5 24s-28.5 8.5 -44.5 8.5s-30.833 -2.83301 -44.5 -8.5s-25.667 -13.667 -36 -24s-18.333 -22.333 -24 -36s-8.5 -28.5 -8.5 -44.5z" />
    <glyph glyph-name="plusminus" unicode="&#xb1;" horiz-adv-x="569" 
d="M23 672h154v133h219v-133h154v-226h-154v-153h-219v153h-154v226zM30 199h510v-199h-510v199z" />
    <glyph glyph-name="twosuperior" unicode="&#xb2;" horiz-adv-x="565" 
d="M489 819v-132.999h-438l99 139l41.5 58.5l42.5 59l39.5 54l33.5 45.5c8 11.333 13.333 22.5 16 33.5s2.66699 21 0 30s-7.5 16.5 -14.5 22.5s-15.833 9.66699 -26.5 11c-15.333 2 -28 0.333008 -38 -5s-17.5 -13 -22.5 -23s-8.16699 -21.333 -9.5 -34s-1 -25 1 -37h-168
c-4 36 -1.5 68.667 7.5 98s23.5 54.5 43.5 75.5s45.333 37.167 76 48.5s65.667 17 105 17c40.667 0 77.167 -7.83301 109.5 -23.5s57 -37 74 -64s24.833 -58.333 23.5 -94s-15 -73.834 -41 -114.501c-12 -18 -25.333 -36.667 -40 -56l-42 -53l-46 -55h174z" />
    <glyph glyph-name="threesuperior" unicode="&#xb3;" horiz-adv-x="529" 
d="M374 990c22.667 -2 41.835 -7.16504 57.502 -15.498s28.5 -19 38.5 -32s17.167 -28 21.5 -45s6.5 -34.5 6.5 -52.5c0 -24 -4.5 -46.333 -13.5 -67s-22.833 -38.334 -41.5 -53.001s-42 -26.167 -70 -34.5s-61 -12.5 -99 -12.5c-79.333 0 -138.5 15.667 -177.5 47
s-54.5 81.666 -46.5 150.999h165c0 -8 0.833008 -17.833 2.5 -29.5s4.66699 -23 9 -34s10.333 -20.5 18 -28.5s17.5 -12 29.5 -12c17.333 0 31.833 6.33301 43.5 19s17.5 33.667 17.5 63c0 27.333 -8.33301 48.5 -25 63.5s-39.667 21.167 -69 18.5v88
c11.333 -1.33301 22 0 32 4s18.667 9.83301 26 17.5s13.166 16.834 17.499 27.501s6.5 22 6.5 34c0 17.333 -3.5 33.5 -10.5 48.5s-18.167 22.5 -33.5 22.5c-24.667 0 -42 -9.83301 -52 -29.5s-14.333 -44.5 -13 -74.5h-154c-4 30 -3.16699 57.667 2.5 83s17 47.5 34 66.5
s40.167 33.833 69.5 44.5s65.333 16 108 16c34 0 63.667 -4.33301 89 -13s46.333 -20.334 63 -35.001s29 -31.667 37 -51s12 -39.666 12 -60.999c0 -14 -1.33301 -27.833 -4 -41.5s-7.83398 -26.5 -15.501 -38.5s-18 -22.833 -31 -32.5s-29.833 -16.834 -50.5 -21.501z" />
    <glyph glyph-name="acute" unicode="&#xb4;" horiz-adv-x="559" 
d="M296 1330l272 -28l-358 -144l-141 21z" />
    <glyph glyph-name="mu1" unicode="&#xb5;" horiz-adv-x="1020" 
d="M66 928l318 -0.000976562v-508c0 -64 10.833 -110.333 32.5 -139s54.5 -43 98.5 -43c38 0 66.333 15.333 85 46s28 76 28 136v508h313v-928h-313v76c-12 -15.333 -27.833 -28.666 -47.5 -39.999s-40.834 -19.166 -63.501 -23.499s-46.167 -4.33301 -70.5 0
s-47.166 14.166 -68.499 29.499v-290h-312v1176z" />
    <glyph glyph-name="paragraph" unicode="&#xb6;" horiz-adv-x="925" 
d="M630 1108l-88.002 0.00390625v-1108h-160v649c-48.667 0 -93 6.66699 -133 20s-74.167 32.666 -102.5 57.999s-50.166 56.166 -65.499 92.499s-23 77.833 -23 124.5s7.66699 88.167 23 124.5s37 67.166 65 92.499s61.333 44.666 100 57.999s81.334 20 128.001 20h518
v-131h-105v-1108h-157v1108z" />
    <glyph glyph-name="periodcentered" unicode="&#xb7;" horiz-adv-x="560" 
d="M98 621v332h374v-332h-374z" />
    <glyph glyph-name="cedilla" unicode="&#xb8;" horiz-adv-x="436" 
d="M111 -391l0.00390625 117h136c18 0 31.5 3.66699 40.5 11s13.5 15.166 13.5 23.499s-4 16.166 -12 23.499s-20 11 -36 11h-115c-16.667 0 -31.334 4.66699 -44.001 14s-22.5 21.333 -29.5 36s-11.167 30.834 -12.5 48.501s1.16699 34.667 7.5 51s16.666 31 30.999 44
s33.5 22.167 57.5 27.5c-9.33301 -13.333 -14.5 -26 -15.5 -38s1 -22.667 6 -32s12.833 -16.666 23.5 -21.999s23.334 -8 38.001 -8h114c20.667 0 38.667 -7.5 54 -22.5s26.833 -34 34.5 -57s11.167 -47.667 10.5 -74s-6.33398 -51 -17.001 -74s-26.834 -42 -48.501 -57
s-49.834 -22.5 -84.501 -22.5h-152z" />
    <glyph glyph-name="onesuperior" unicode="&#xb9;" horiz-adv-x="452" 
d="M40 818l97 0.000976562v227h-95v111c16.667 -0.666992 31.667 0.5 45 3.5s25 7.33301 35 13s18.5 12 25.5 19s13.167 14.167 18.5 21.5c12 17.333 20 37.666 24 60.999h122v-456h73v-134h-345v134z" />
    <glyph glyph-name="ordmasculine" unicode="&#xba;" horiz-adv-x="691" 
d="M344 1280c46 0 87 -5.83203 123 -17.499s66.5 -29.834 91.5 -54.501s44.167 -55.667 57.5 -93s20 -82 20 -134c0 -103.333 -25.833 -179.5 -77.5 -228.5s-123.167 -73.5 -214.5 -73.5c-93.333 0 -165.5 25.5 -216.5 76.5s-76.5 126.167 -76.5 225.5
c0 98.667 25.5 173.167 76.5 223.5s123.167 75.5 216.5 75.5zM344 805.001c12.667 0 24.334 2.16699 35.001 6.5s19.834 12.5 27.501 24.5s13.667 29 18 51s6.5 51 6.5 87s-2.16699 65.333 -6.5 88s-10.333 40.667 -18 54s-16.834 22.5 -27.501 27.5
s-22.334 7.5 -35.001 7.5c-13.333 0 -25.333 -2.66699 -36 -8s-19.834 -14.666 -27.501 -27.999s-13.667 -31.333 -18 -54s-6.5 -51.667 -6.5 -87s2.16699 -63.833 6.5 -85.5s10.333 -38.834 18 -51.501s16.834 -21.167 27.501 -25.5s22.667 -6.5 36 -6.5z" />
    <glyph glyph-name="guillemotright" unicode="&#xbb;" horiz-adv-x="659" 
d="M102 1235h220v-169l-149 -362h-122zM394 1233h220v-169l-150 -361h-122z" />
    <glyph glyph-name="onequarter" unicode="&#xbc;" horiz-adv-x="1419" 
d="M65 736h112.999v270h-111v131c20 -0.666992 37.667 0.833008 53 4.5s28.833 8.83398 40.5 15.501s21.834 14.167 30.501 22.5s16 17.166 22 26.499c14 21.333 23.333 45.333 28 72h142v-542h86v-159h-404v159zM586.999 0h-216l403 1278h218zM1396 119h-82v-119h-164v119
h-402l231 586h220l-194 -440h145v135h164v-129h82v-152z" />
    <glyph glyph-name="onehalf" unicode="&#xbd;" horiz-adv-x="1392" 
d="M1305 158l0.00390625 -158h-522l118 166l50 70l50.5 70l47 64.5l39.5 54.5c10 13.333 16.333 26.666 19 39.999s2.5 25.5 -0.5 36.5s-8.66699 20 -17 27s-18.833 11.167 -31.5 12.5c-18.667 2.66699 -33.834 0.666992 -45.501 -6s-20.5 -16 -26.5 -28
s-9.66699 -25.667 -11 -41s-1 -30 1 -44h-200c-4.66699 42.667 -1.83398 81.5 8.49902 116.5s27.5 65 51.5 90s54.333 44.333 91 58s78.667 20.5 126 20.5c48.667 0 92.167 -9.33301 130.5 -28s67.666 -44 87.999 -76s29.666 -69.333 27.999 -112s-18.167 -88 -49.5 -136
c-14 -21.333 -30 -43.666 -48 -66.999l-50 -64l-55 -66h208zM65.0039 736h112.999v270h-111v131c20 -0.666992 37.667 0.833008 53 4.5s28.833 8.83398 40.5 15.501s21.834 14.167 30.501 22.5s16 17.166 22 26.499c14 21.333 23.333 45.333 28 72h142v-542h86v-159h-404
v159zM557.003 0h-216l403 1278h218z" />
    <glyph glyph-name="threequarters" unicode="&#xbe;" horiz-adv-x="1465" 
d="M458 942c26.667 -2 49.333 -8 68 -18s33.834 -22.833 45.501 -38.5s20.167 -33.334 25.5 -53.001s8 -40.167 8 -61.5c0 -28.667 -5.5 -55.167 -16.5 -79.5s-27.5 -45.166 -49.5 -62.499s-49.667 -31 -83 -41s-72.333 -15 -117 -15c-94 0 -164.333 18.5 -211 55.5
s-65.334 96.833 -56.001 179.5h196c0 -9.33301 1 -21 3 -35s5.5 -27.667 10.5 -41s12.167 -24.666 21.5 -33.999s21.333 -14 36 -14c19.333 0 36.166 7.66699 50.499 23s21.5 40 21.5 74c0 32.667 -10 58 -30 76s-47 25.333 -81 22v104c13.333 -2 25.833 -0.5 37.5 4.5
s21.834 12.167 30.501 21.5s15.5 20.166 20.5 32.499s7.5 25.5 7.5 39.5c0 10.667 -1 21 -3 31s-5.16699 19 -9.5 27s-9.83301 14.333 -16.5 19s-14.334 7 -23.001 7c-29.333 0 -50 -11.667 -62 -35s-17 -52.333 -15 -87h-183c-5.33301 35.333 -4.5 68.166 2.5 98.499
s20.667 56.5 41 78.5s48 39.333 83 52s77.833 19 128.5 19c40.667 0 76 -5.16699 106 -15.5s54.833 -24.166 74.5 -41.499s34.334 -37.333 44.001 -60s14.5 -46.667 14.5 -72c0 -16 -1.66699 -32.167 -5 -48.5s-9.5 -31.833 -18.5 -46.5s-21.167 -27.667 -36.5 -39
s-35.333 -20 -60 -26zM1424 118h-81v-118h-164v118h-400l230 583h219l-193 -437h144v134h164v-128h81v-152zM646.999 0h-216l403 1278h218z" />
    <glyph glyph-name="questiondown" unicode="&#xbf;" horiz-adv-x="890" 
d="M428 -221c83.333 0 153.334 9.33301 210.001 28s101.834 45 135.501 79s56.667 74.667 69 122s16.166 99.333 11.499 156h-321c0 -29.333 -2 -53.666 -6 -72.999s-10.333 -34.666 -19 -45.999s-19.5 -19.166 -32.5 -23.499s-28.5 -6.5 -46.5 -6.5
c-29.333 0 -50.5 9.66699 -63.5 29s-19.5 52.666 -19.5 99.999c0 19.333 6.66699 38.166 20 56.499s29.666 37.333 48.999 57l62.5 62.5c22.333 22 42.166 46.333 59.499 73s30.833 56.167 40.5 88.5s11.5 68.5 5.5 108.5h-308c-0.666992 -32 -7.5 -59.5 -20.5 -82.5
s-29 -44.333 -48 -64s-39.5 -39.167 -61.5 -58.5s-42.333 -41.5 -61 -66.5s-34.167 -54.333 -46.5 -88s-18.5 -74.834 -18.5 -123.501c0 -49.333 9.16699 -94.166 27.5 -134.499s45 -74.833 80 -103.5s77.833 -50.834 128.5 -66.501s108.334 -23.5 173.001 -23.5z
M591.001 1062v-297h-332v297h332z" />
    <glyph glyph-name="Agrave" unicode="&#xc0;" horiz-adv-x="1188" 
d="M384 1278h422l399 -1278h-364l-62 307h-368l-62 -307h-364zM464 526h262l-131 537zM773 1408l-141 -21l-358 144l272 28z" />
    <glyph glyph-name="Aacute" unicode="&#xc1;" horiz-adv-x="1194" 
d="M384 1278h422l399 -1278h-364l-62 307h-368l-62 -307h-364zM464 526h262l-131 537zM593 1559l272 -28l-358 -144l-141 21z" />
    <glyph glyph-name="Acircumflex" unicode="&#xc2;" horiz-adv-x="1194" 
d="M384 1278h422l399 -1278h-364l-62 307h-368l-62 -307h-364zM464 526h262l-131 537zM672 1661l187 -203h-191l-70 162l-90 -162h-192l207 203h149z" />
    <glyph glyph-name="Atilde" unicode="&#xc3;" horiz-adv-x="1198" 
d="M806 1278l399 -1278h-364l-62 307h-368l-62 -307h-364l399 1278h422zM726 526l-131 537l-131 -537h262zM380 1557c7.33301 7.33301 15.835 17.0029 25.502 29.0029s20.334 23.667 32.001 35s24.5 21.166 38.5 29.499s29 12.5 45 12.5c21.333 0 39.833 -5.5 55.5 -16.5
s29.667 -23.167 42 -36.5s24.166 -25.5 35.499 -36.5s23.666 -16.5 36.999 -16.5c16 0 30.667 3.83301 44 11.5s25.666 16.5 36.999 26.5s21.5 20.167 30.5 30.5s16.833 18.166 23.5 23.499v-133l-22.5 -31.5c-8.33301 -11.667 -17.833 -22.5 -28.5 -32.5
s-22.5 -18.5 -35.5 -25.5s-27.833 -10.5 -44.5 -10.5c-20.667 0 -37.167 5.33301 -49.5 16s-24 22.5 -35 35.5s-23.167 25 -36.5 36s-31 16.5 -53 16.5c-17.333 0 -33.333 -4.33301 -48 -13s-27.667 -18.5 -39 -29.5s-21.5 -21.833 -30.5 -32.5
s-16.833 -18.334 -23.5 -23.001v135z" />
    <glyph glyph-name="Adieresis" unicode="&#xc4;" horiz-adv-x="1188" 
d="M806 1278l399 -1278h-364l-62 307h-368l-62 -307h-364l399 1278h422zM726 526l-131 537l-131 -537h262zM355 1507c0 28.667 9 52.167 27 70.5s40.333 27.5 67 27.5c28.667 0 51.834 -9.16699 69.501 -27.5s26.5 -41.833 26.5 -70.5c0 -26.667 -8.83301 -48.667 -26.5 -66
s-40.834 -26 -69.501 -26c-26.667 0 -49 8.66699 -67 26s-27 39.333 -27 66zM654 1507c0 28.667 8.66699 52.167 26 70.5s39.333 27.5 66 27.5c28.667 0 52.167 -9.16699 70.5 -27.5s27.5 -41.833 27.5 -70.5c0 -26.667 -9.16699 -48.667 -27.5 -66s-41.833 -26 -70.5 -26
c-26.667 0 -48.667 8.66699 -66 26s-26 39.333 -26 66z" />
    <glyph glyph-name="Aring" unicode="&#xc5;" horiz-adv-x="1188" 
d="M318 1459c0 37.333 7.33398 72.833 22.001 106.5s34.5 63.167 59.5 88.5s54.333 45.333 88 60s69.5 22 107.5 22c37.333 0 72.666 -7.33301 105.999 -22s62.666 -34.667 87.999 -60s45.333 -54.833 60 -88.5s22 -69.167 22 -106.5c0 -34.667 -5.5 -67.5 -16.5 -98.5
s-27.167 -58.5 -48.5 -82.5h-422c-21.333 24 -37.666 51.5 -48.999 82.5s-17 63.833 -17 98.5zM486.001 1459c0 -14.667 2.83301 -28.834 8.5 -42.501s13.5 -25.667 23.5 -36s21.667 -18.5 35 -24.5s27.333 -9 42 -9c15.333 0 29.5 3 42.5 9s24.333 14.167 34 24.5
s17.334 22.333 23.001 36s8.5 27.834 8.5 42.501c0 31.333 -10.333 57.333 -31 78s-46.334 31 -77.001 31c-14.667 0 -28.667 -2.83301 -42 -8.5s-25 -13.334 -35 -23.001s-17.833 -21.167 -23.5 -34.5s-8.5 -27.666 -8.5 -42.999zM806.001 1278l399 -1278h-364l-62 307
h-368l-62 -307h-364l399 1278h422zM726.001 526l-131 537l-131 -537h262z" />
    <glyph glyph-name="AE" unicode="&#xc6;" horiz-adv-x="1493" 
d="M608 1278h165v-173l-284 -620h284v-213h-359l-119 -272h-316zM772 0v1278h646v-246h-382v-233h316v-244h-316v-306h382v-249h-646z" />
    <glyph glyph-name="Ccedilla" unicode="&#xc7;" horiz-adv-x="1194" 
d="M589 229c33.333 0 61.8281 4.16895 85.4951 12.502s43.334 21.5 59.001 39.5s27.5 41.333 35.5 70s12.667 63.334 14 104.001h330c0 -90 -12.5 -165.167 -37.5 -225.5s-60.333 -108.833 -106 -145.5s-100.667 -62.834 -165 -78.501s-136.166 -23.5 -215.499 -23.5
c-83.333 0 -157 9.66699 -221 29s-118.167 50.5 -162.5 93.5s-78.666 98.833 -102.999 167.5s-38.5 152.667 -42.5 252c-0.666992 22.667 -1.16699 42.5 -1.5 59.5s-0.5 33.667 -0.5 50s0.166992 34.333 0.5 54s0.833008 43.834 1.5 72.501c3.33301 96 17 178.333 41 247
s58.333 125 103 169s99.167 76.5 163.5 97.5s138.166 31.5 221.499 31.5c78.667 0 150.167 -8.16699 214.5 -24.5s119.5 -43.166 165.5 -80.499s81.5 -86 106.5 -146s37.5 -133.333 37.5 -220h-330c-2.66699 40 -8 74.167 -16 102.5s-19.667 51.166 -35 68.499
s-34.666 30 -57.999 38s-51.666 12 -84.999 12s-61.666 -4.83301 -84.999 -14.5s-42.833 -24.334 -58.5 -44.001s-27.5 -44.334 -35.5 -74.001s-13.333 -64.834 -16 -105.501c-1.33301 -18 -2 -42.333 -2 -73v-97c0 -34 0.166992 -66.833 0.5 -98.5
s0.833008 -57.5 1.5 -77.5c2.66699 -82 19.167 -142.833 49.5 -182.5s78.833 -59.5 145.5 -59.5zM398.995 -412.998l0.00390625 117h136c18 0 31.5 3.66699 40.5 11s13.5 15.166 13.5 23.499s-4 16.166 -12 23.499s-20 11 -36 11h-115c-16.667 0 -31.334 4.66699 -44.001 14
s-22.5 21.333 -29.5 36s-11.167 30.834 -12.5 48.501s1.16699 34.667 7.5 51s16.666 31 30.999 44s33.5 22.167 57.5 27.5c-9.33301 -13.333 -14.5 -26 -15.5 -38s1 -22.667 6 -32s12.833 -16.666 23.5 -21.999s23.334 -8 38.001 -8h114c20.667 0 38.667 -7.5 54 -22.5
s26.833 -34 34.5 -57s11.167 -47.667 10.5 -74s-6.33398 -51 -17.001 -74s-26.834 -42 -48.501 -57s-49.834 -22.5 -84.501 -22.5h-152z" />
    <glyph glyph-name="Egrave" unicode="&#xc8;" horiz-adv-x="1001" 
d="M93 0v1278h807v-246h-477v-233h395v-244h-395v-306h477v-249h-807zM773 1408l-141 -21l-358 144l272 28z" />
    <glyph glyph-name="Eacute" unicode="&#xc9;" horiz-adv-x="1001" 
d="M93 0v1278h807v-246h-477v-233h395v-244h-395v-306h477v-249h-807zM593 1559l272 -28l-358 -144l-141 21z" />
    <glyph glyph-name="Ecircumflex" unicode="&#xca;" horiz-adv-x="1001" 
d="M93 0v1278h807v-246h-477v-233h395v-244h-395v-306h477v-249h-807zM617 1661l187 -203h-191l-70 162l-90 -162h-192l207 203h149z" />
    <glyph glyph-name="Edieresis" unicode="&#xcb;" horiz-adv-x="993" 
d="M93 1278h807v-246h-477v-233h395v-244h-395v-306h477v-249h-807v1278zM284 1507c0 28.667 9 52.167 27 70.5s40.333 27.5 67 27.5c28.667 0 51.834 -9.16699 69.501 -27.5s26.5 -41.833 26.5 -70.5c0 -26.667 -8.83301 -48.667 -26.5 -66s-40.834 -26 -69.501 -26
c-26.667 0 -49 8.66699 -67 26s-27 39.333 -27 66zM583 1507c0 28.667 8.66699 52.167 26 70.5s39.333 27.5 66 27.5c28.667 0 52.167 -9.16699 70.5 -27.5s27.5 -41.833 27.5 -70.5c0 -26.667 -9.16699 -48.667 -27.5 -66s-41.833 -26 -70.5 -26
c-26.667 0 -48.667 8.66699 -66 26s-26 39.333 -26 66z" />
    <glyph glyph-name="Igrave" unicode="&#xcc;" horiz-adv-x="528" 
d="M98 0v1278h338v-1278h-338zM427 1408l-141 -21l-358 144l272 28z" />
    <glyph glyph-name="Iacute" unicode="&#xcd;" horiz-adv-x="528" 
d="M98 0v1278h338v-1278h-338zM245 1559l272 -28l-358 -144l-141 21z" />
    <glyph glyph-name="Icircumflex" unicode="&#xce;" horiz-adv-x="524" 
d="M98 0v1278h338v-1278h-338zM341 1661l187 -203h-191l-70 162l-90 -162h-192l207 203h149z" />
    <glyph glyph-name="Idieresis" unicode="&#xcf;" horiz-adv-x="532" 
d="M98 1278h338v-1278h-338v1278zM20 1507c0 28.667 9 52.167 27 70.5s40.333 27.5 67 27.5c28.667 0 51.834 -9.16699 69.501 -27.5s26.5 -41.833 26.5 -70.5c0 -26.667 -8.83301 -48.667 -26.5 -66s-40.834 -26 -69.501 -26c-26.667 0 -49 8.66699 -67 26
s-27 39.333 -27 66zM319 1507c0 28.667 8.66699 52.167 26 70.5s39.333 27.5 66 27.5c28.667 0 52.167 -9.16699 70.5 -27.5s27.5 -41.833 27.5 -70.5c0 -26.667 -9.16699 -48.667 -27.5 -66s-41.833 -26 -70.5 -26c-26.667 0 -48.667 8.66699 -66 26s-26 39.333 -26 66z
" />
    <glyph glyph-name="Eth" unicode="&#xd0;" horiz-adv-x="1169" 
d="M1 742l183 -0.00195312v536h446c96.667 0 175.834 -15.833 237.501 -47.5s110 -75.667 145 -132s59 -123.666 72 -201.999s19.5 -164.166 19.5 -257.499c0 -94 -6.5 -180 -19.5 -258s-37 -145.333 -72 -202s-83.333 -100.667 -145 -132s-140.834 -47 -237.501 -47h-446
v541h-183v201zM536 220.998c62 0 110.167 8.33398 144.5 25.001s59.5 42.334 75.5 77.001s25.5 78.167 28.5 130.5s4.5 114.166 4.5 185.499c0 70.667 -1.5 132.167 -4.5 184.5s-12.5 95.666 -28.5 129.999s-41 59.833 -75 76.5s-82.333 25 -145 25h-47v-313h172v-201h-172
v-320h47z" />
    <glyph glyph-name="Ntilde" unicode="&#xd1;" horiz-adv-x="1329" 
d="M929 1278h309v-1278h-490l-335 1063v-1063h-312v1278h492l336 -1038v1038zM464 1587c7.33301 7.33301 15.835 17.0029 25.502 29.0029s20.334 23.667 32.001 35s24.5 21.166 38.5 29.499s29 12.5 45 12.5c21.333 0 39.833 -5.5 55.5 -16.5s29.667 -23.167 42 -36.5
s24.166 -25.5 35.499 -36.5s23.666 -16.5 36.999 -16.5c16 0 30.667 3.83301 44 11.5s25.666 16.5 36.999 26.5s21.5 20.167 30.5 30.5s16.833 18.166 23.5 23.499v-133l-22.5 -31.5c-8.33301 -11.667 -17.833 -22.5 -28.5 -32.5s-22.5 -18.5 -35.5 -25.5
s-27.833 -10.5 -44.5 -10.5c-20.667 0 -37.167 5.33301 -49.5 16s-24 22.5 -35 35.5s-23.167 25 -36.5 36s-31 16.5 -53 16.5c-17.333 0 -33.333 -4.33301 -48 -13s-27.667 -18.5 -39 -29.5s-21.5 -21.833 -30.5 -32.5s-16.833 -18.334 -23.5 -23.001v135z" />
    <glyph glyph-name="Ograve" unicode="&#xd2;" horiz-adv-x="1175" 
d="M588 1305c83.333 0 156.836 -10.5 220.503 -31.5s117.167 -53.5 160.5 -97.5s76.5 -100.333 99.5 -169s35.833 -151 38.5 -247c0.666992 -28.667 1.33398 -52.834 2.00098 -72.501s1 -37.667 1 -54s-0.333008 -33 -1 -50s-1.33398 -36.833 -2.00098 -59.5
c-4 -99.333 -17.5 -183.5 -40.5 -252.5s-56 -125.167 -99 -168.5s-96.167 -74.666 -159.5 -93.999s-136.666 -29 -219.999 -29s-156.5 9.66699 -219.5 29s-116 50.666 -159 93.999s-76.333 99.5 -100 168.5s-37.5 153.167 -41.5 252.5
c-0.666992 22.667 -1.16699 42.5 -1.5 59.5s-0.5 33.667 -0.5 50s0.166992 34.333 0.5 54s0.833008 43.834 1.5 72.501c3.33301 96 16.666 178.333 39.999 247s56.666 125 99.999 169s96.666 76.5 159.999 97.5s136.666 31.5 219.999 31.5zM754.003 471
c0.666992 20 1.16699 45.833 1.5 77.5s0.5 64.5 0.5 98.5s-0.166992 66.333 -0.5 97s-0.833008 55 -1.5 73c-2.66699 40.667 -6.5 75.834 -11.5 105.501s-13.333 54.334 -25 74.001s-27.834 34.334 -48.501 44.001s-47.667 14.5 -81 14.5s-60.166 -4.83301 -80.499 -14.5
s-36.333 -24.334 -48 -44.001s-20 -44.334 -25 -74.001s-8.83301 -64.834 -11.5 -105.501c-1.33301 -18 -2 -42.333 -2 -73v-97c0 -34 0.166992 -66.833 0.5 -98.5s0.833008 -57.5 1.5 -77.5c1.33301 -41.333 4.5 -77.166 9.5 -107.499s13.5 -55.5 25.5 -75.5
s28.333 -34.833 49 -44.5s47.667 -14.5 81 -14.5s60.5 4.83301 81.5 14.5s37.5 24.5 49.5 44.5s20.5 45.167 25.5 75.5s8.16699 66.166 9.5 107.499zM855.003 1408l-141 -21l-358 144l272 28z" />
    <glyph glyph-name="Oacute" unicode="&#xd3;" horiz-adv-x="1161" 
d="M580 1305c83.333 0 156.836 -10.5 220.503 -31.5s117.167 -53.5 160.5 -97.5s76.5 -100.333 99.5 -169s35.833 -151 38.5 -247c0.666992 -28.667 1.33398 -52.834 2.00098 -72.501s1 -37.667 1 -54s-0.333008 -33 -1 -50s-1.33398 -36.833 -2.00098 -59.5
c-4 -99.333 -17.5 -183.5 -40.5 -252.5s-56 -125.167 -99 -168.5s-96.167 -74.666 -159.5 -93.999s-136.666 -29 -219.999 -29s-156.5 9.66699 -219.5 29s-116 50.666 -159 93.999s-76.333 99.5 -100 168.5s-37.5 153.167 -41.5 252.5
c-0.666992 22.667 -1.16699 42.5 -1.5 59.5s-0.5 33.667 -0.5 50s0.166992 34.333 0.5 54s0.833008 43.834 1.5 72.501c3.33301 96 16.666 178.333 39.999 247s56.666 125 99.999 169s96.666 76.5 159.999 97.5s136.666 31.5 219.999 31.5zM746.003 471
c0.666992 20 1.16699 45.833 1.5 77.5s0.5 64.5 0.5 98.5s-0.166992 66.333 -0.5 97s-0.833008 55 -1.5 73c-2.66699 40.667 -6.5 75.834 -11.5 105.501s-13.333 54.334 -25 74.001s-27.834 34.334 -48.501 44.001s-47.667 14.5 -81 14.5s-60.166 -4.83301 -80.499 -14.5
s-36.333 -24.334 -48 -44.001s-20 -44.334 -25 -74.001s-8.83301 -64.834 -11.5 -105.501c-1.33301 -18 -2 -42.333 -2 -73v-97c0 -34 0.166992 -66.833 0.5 -98.5s0.833008 -57.5 1.5 -77.5c1.33301 -41.333 4.5 -77.166 9.5 -107.499s13.5 -55.5 25.5 -75.5
s28.333 -34.833 49 -44.5s47.667 -14.5 81 -14.5s60.5 4.83301 81.5 14.5s37.5 24.5 49.5 44.5s20.5 45.167 25.5 75.5s8.16699 66.166 9.5 107.499zM656.003 1559l272 -28l-358 -144l-141 21z" />
    <glyph glyph-name="Ocircumflex" unicode="&#xd4;" horiz-adv-x="1161" 
d="M580 1305c83.333 0 156.836 -10.5 220.503 -31.5s117.167 -53.5 160.5 -97.5s76.5 -100.333 99.5 -169s35.833 -151 38.5 -247c0.666992 -28.667 1.33398 -52.834 2.00098 -72.501s1 -37.667 1 -54s-0.333008 -33 -1 -50s-1.33398 -36.833 -2.00098 -59.5
c-4 -99.333 -17.5 -183.5 -40.5 -252.5s-56 -125.167 -99 -168.5s-96.167 -74.666 -159.5 -93.999s-136.666 -29 -219.999 -29s-156.5 9.66699 -219.5 29s-116 50.666 -159 93.999s-76.333 99.5 -100 168.5s-37.5 153.167 -41.5 252.5
c-0.666992 22.667 -1.16699 42.5 -1.5 59.5s-0.5 33.667 -0.5 50s0.166992 34.333 0.5 54s0.833008 43.834 1.5 72.501c3.33301 96 16.666 178.333 39.999 247s56.666 125 99.999 169s96.666 76.5 159.999 97.5s136.666 31.5 219.999 31.5zM746.003 471
c0.666992 20 1.16699 45.833 1.5 77.5s0.5 64.5 0.5 98.5s-0.166992 66.333 -0.5 97s-0.833008 55 -1.5 73c-2.66699 40.667 -6.5 75.834 -11.5 105.501s-13.333 54.334 -25 74.001s-27.834 34.334 -48.501 44.001s-47.667 14.5 -81 14.5s-60.166 -4.83301 -80.499 -14.5
s-36.333 -24.334 -48 -44.001s-20 -44.334 -25 -74.001s-8.83301 -64.834 -11.5 -105.501c-1.33301 -18 -2 -42.333 -2 -73v-97c0 -34 0.166992 -66.833 0.5 -98.5s0.833008 -57.5 1.5 -77.5c1.33301 -41.333 4.5 -77.166 9.5 -107.499s13.5 -55.5 25.5 -75.5
s28.333 -34.833 49 -44.5s47.667 -14.5 81 -14.5s60.5 4.83301 81.5 14.5s37.5 24.5 49.5 44.5s20.5 45.167 25.5 75.5s8.16699 66.166 9.5 107.499zM685.003 1661l187 -203h-191l-70 162l-90 -162h-192l207 203h149z" />
    <glyph glyph-name="Otilde" unicode="&#xd5;" horiz-adv-x="1169" 
d="M580 1305c83.333 0 156.836 -10.5 220.503 -31.5s117.167 -53.5 160.5 -97.5s76.5 -100.333 99.5 -169s35.833 -151 38.5 -247c0.666992 -28.667 1.33398 -52.834 2.00098 -72.501s1 -37.667 1 -54s-0.333008 -33 -1 -50s-1.33398 -36.833 -2.00098 -59.5
c-4 -99.333 -17.5 -183.5 -40.5 -252.5s-56 -125.167 -99 -168.5s-96.167 -74.666 -159.5 -93.999s-136.666 -29 -219.999 -29s-156.5 9.66699 -219.5 29s-116 50.666 -159 93.999s-76.333 99.5 -100 168.5s-37.5 153.167 -41.5 252.5
c-0.666992 22.667 -1.16699 42.5 -1.5 59.5s-0.5 33.667 -0.5 50s0.166992 34.333 0.5 54s0.833008 43.834 1.5 72.501c3.33301 96 16.666 178.333 39.999 247s56.666 125 99.999 169s96.666 76.5 159.999 97.5s136.666 31.5 219.999 31.5zM746.003 471
c0.666992 20 1.16699 45.833 1.5 77.5s0.5 64.5 0.5 98.5s-0.166992 66.333 -0.5 97s-0.833008 55 -1.5 73c-2.66699 40.667 -6.5 75.834 -11.5 105.501s-13.333 54.334 -25 74.001s-27.834 34.334 -48.501 44.001s-47.667 14.5 -81 14.5s-60.166 -4.83301 -80.499 -14.5
s-36.333 -24.334 -48 -44.001s-20 -44.334 -25 -74.001s-8.83301 -64.834 -11.5 -105.501c-1.33301 -18 -2 -42.333 -2 -73v-97c0 -34 0.166992 -66.833 0.5 -98.5s0.833008 -57.5 1.5 -77.5c1.33301 -41.333 4.5 -77.166 9.5 -107.499s13.5 -55.5 25.5 -75.5
s28.333 -34.833 49 -44.5s47.667 -14.5 81 -14.5s60.5 4.83301 81.5 14.5s37.5 24.5 49.5 44.5s20.5 45.167 25.5 75.5s8.16699 66.166 9.5 107.499zM392.003 1587c7.33301 7.33301 15.835 17.0029 25.502 29.0029s20.334 23.667 32.001 35s24.5 21.166 38.5 29.499
s29 12.5 45 12.5c21.333 0 39.833 -5.5 55.5 -16.5s29.667 -23.167 42 -36.5s24.166 -25.5 35.499 -36.5s23.666 -16.5 36.999 -16.5c16 0 30.667 3.83301 44 11.5s25.666 16.5 36.999 26.5s21.5 20.167 30.5 30.5s16.833 18.166 23.5 23.499v-133l-22.5 -31.5
c-8.33301 -11.667 -17.833 -22.5 -28.5 -32.5s-22.5 -18.5 -35.5 -25.5s-27.833 -10.5 -44.5 -10.5c-20.667 0 -37.167 5.33301 -49.5 16s-24 22.5 -35 35.5s-23.167 25 -36.5 36s-31 16.5 -53 16.5c-17.333 0 -33.333 -4.33301 -48 -13s-27.667 -18.5 -39 -29.5
s-21.5 -21.833 -30.5 -32.5s-16.833 -18.334 -23.5 -23.001v135z" />
    <glyph glyph-name="Odieresis" unicode="&#xd6;" horiz-adv-x="1165" 
d="M580 1305c83.333 0 156.836 -10.5 220.503 -31.5s117.167 -53.5 160.5 -97.5s76.5 -100.333 99.5 -169s35.833 -151 38.5 -247c0.666992 -28.667 1.33398 -52.834 2.00098 -72.501s1 -37.667 1 -54s-0.333008 -33 -1 -50s-1.33398 -36.833 -2.00098 -59.5
c-4 -99.333 -17.5 -183.5 -40.5 -252.5s-56 -125.167 -99 -168.5s-96.167 -74.666 -159.5 -93.999s-136.666 -29 -219.999 -29s-156.5 9.66699 -219.5 29s-116 50.666 -159 93.999s-76.333 99.5 -100 168.5s-37.5 153.167 -41.5 252.5
c-0.666992 22.667 -1.16699 42.5 -1.5 59.5s-0.5 33.667 -0.5 50s0.166992 34.333 0.5 54s0.833008 43.834 1.5 72.501c3.33301 96 16.666 178.333 39.999 247s56.666 125 99.999 169s96.666 76.5 159.999 97.5s136.666 31.5 219.999 31.5zM746.003 471
c0.666992 20 1.16699 45.833 1.5 77.5s0.5 64.5 0.5 98.5s-0.166992 66.333 -0.5 97s-0.833008 55 -1.5 73c-2.66699 40.667 -6.5 75.834 -11.5 105.501s-13.333 54.334 -25 74.001s-27.834 34.334 -48.501 44.001s-47.667 14.5 -81 14.5s-60.166 -4.83301 -80.499 -14.5
s-36.333 -24.334 -48 -44.001s-20 -44.334 -25 -74.001s-8.83301 -64.834 -11.5 -105.501c-1.33301 -18 -2 -42.333 -2 -73v-97c0 -34 0.166992 -66.833 0.5 -98.5s0.833008 -57.5 1.5 -77.5c1.33301 -41.333 4.5 -77.166 9.5 -107.499s13.5 -55.5 25.5 -75.5
s28.333 -34.833 49 -44.5s47.667 -14.5 81 -14.5s60.5 4.83301 81.5 14.5s37.5 24.5 49.5 44.5s20.5 45.167 25.5 75.5s8.16699 66.166 9.5 107.499zM327.003 1507c0 28.667 9 52.167 27 70.5s40.333 27.5 67 27.5c28.667 0 51.834 -9.16699 69.501 -27.5
s26.5 -41.833 26.5 -70.5c0 -26.667 -8.83301 -48.667 -26.5 -66s-40.834 -26 -69.501 -26c-26.667 0 -49 8.66699 -67 26s-27 39.333 -27 66zM626.003 1507c0 28.667 8.66699 52.167 26 70.5s39.333 27.5 66 27.5c28.667 0 52.167 -9.16699 70.5 -27.5
s27.5 -41.833 27.5 -70.5c0 -26.667 -9.16699 -48.667 -27.5 -66s-41.833 -26 -70.5 -26c-26.667 0 -48.667 8.66699 -66 26s-26 39.333 -26 66z" />
    <glyph glyph-name="multiply" unicode="&#xd7;" horiz-adv-x="778" 
d="M202 847l188 -189l188 189l121 -121l-188 -189l188 -188l-121 -121l-188 188l-188 -188l-121 121l188 188l-188 189z" />
    <glyph glyph-name="Oslash" unicode="&#xd8;" horiz-adv-x="1173" 
d="M586 1305c74.667 0 140.335 -8.33301 197.002 -25l62 131l139 -65l-61 -133c58 -42.667 102 -101 132 -175s46.667 -166.667 50 -278c0.666992 -28.667 1.33398 -52.834 2.00098 -72.501s1 -37.667 1 -54s-0.333008 -33 -1 -50s-1.33398 -36.833 -2.00098 -59.5
c-4 -99.333 -17.5 -183.5 -40.5 -252.5s-56 -125.167 -99 -168.5s-96.167 -74.666 -159.5 -93.999s-136.666 -29 -219.999 -29c-76 0 -144 8 -204 24l-76 -168l-139 68l77 167c-55.333 42 -97.666 99.667 -126.999 173s-46.333 166.666 -51 279.999
c-0.666992 22.667 -1.16699 42.5 -1.5 59.5s-0.5 33.667 -0.5 50s0.166992 34.333 0.5 54s0.833008 43.834 1.5 72.501c3.33301 96 16.666 178.333 39.999 247s56.666 125 99.999 169s96.666 76.5 159.999 97.5s136.666 31.5 219.999 31.5zM752.001 471
c0.666992 20 1.16699 45.833 1.5 77.5s0.5 64.5 0.5 98.5s-0.166992 66.333 -0.5 97s-0.833008 55 -1.5 73c-2.66699 40.667 -6.5 75.834 -11.5 105.501s-13.333 54.334 -25 74.001s-27.834 34.334 -48.501 44.001s-47.667 14.5 -81 14.5s-60.166 -4.83301 -80.499 -14.5
s-36.333 -24.334 -48 -44.001s-20 -44.334 -25 -74.001s-8.83301 -64.834 -11.5 -105.501c-1.33301 -18 -2 -42.333 -2 -73v-97c0 -34 0.166992 -66.833 0.5 -98.5s0.833008 -57.5 1.5 -77.5c1.33301 -41.333 4.5 -77.166 9.5 -107.499s13.5 -55.5 25.5 -75.5
s28.333 -34.833 49 -44.5s47.667 -14.5 81 -14.5s60.5 4.83301 81.5 14.5s37.5 24.5 49.5 44.5s20.5 45.167 25.5 75.5s8.16699 66.166 9.5 107.499z" />
    <glyph glyph-name="Ugrave" unicode="&#xd9;" horiz-adv-x="1140" 
d="M703 1278h346.002v-811c0 -82.667 -11.333 -153.834 -34 -213.501s-55 -108.834 -97 -147.501s-93 -67.334 -153 -86.001s-127.667 -28 -203 -28c-76 0 -144.167 9.33301 -204.5 28s-111.5 47.334 -153.5 86.001s-74.333 87.834 -97 147.501s-34 130.834 -34 213.501v811
h346v-838c0 -35.333 3.66699 -65 11 -89s17.5 -43.5 30.5 -58.5s28.167 -25.833 45.5 -32.5s36 -10 56 -10c22 0 41.667 3.16699 59 9.5s32.166 16.833 44.499 31.5s21.666 34.167 27.999 58.5s9.5 54.5 9.5 90.5v838zM793.002 1408l-141 -21l-358 144l272 28z" />
    <glyph glyph-name="Uacute" unicode="&#xda;" horiz-adv-x="1138" 
d="M703 1278h346.002v-811c0 -82.667 -11.333 -153.834 -34 -213.501s-55 -108.834 -97 -147.501s-93 -67.334 -153 -86.001s-127.667 -28 -203 -28c-76 0 -144.167 9.33301 -204.5 28s-111.5 47.334 -153.5 86.001s-74.333 87.834 -97 147.501s-34 130.834 -34 213.501v811
h346v-838c0 -35.333 3.66699 -65 11 -89s17.5 -43.5 30.5 -58.5s28.167 -25.833 45.5 -32.5s36 -10 56 -10c22 0 41.667 3.16699 59 9.5s32.166 16.833 44.499 31.5s21.666 34.167 27.999 58.5s9.5 54.5 9.5 90.5v838zM595.002 1559l272 -28l-358 -144l-141 21z" />
    <glyph glyph-name="Ucircumflex" unicode="&#xdb;" horiz-adv-x="1134" 
d="M703 1278h346.002v-811c0 -82.667 -11.333 -153.834 -34 -213.501s-55 -108.834 -97 -147.501s-93 -67.334 -153 -86.001s-127.667 -28 -203 -28c-76 0 -144.167 9.33301 -204.5 28s-111.5 47.334 -153.5 86.001s-74.333 87.834 -97 147.501s-34 130.834 -34 213.501v811
h346v-838c0 -35.333 3.66699 -65 11 -89s17.5 -43.5 30.5 -58.5s28.167 -25.833 45.5 -32.5s36 -10 56 -10c22 0 41.667 3.16699 59 9.5s32.166 16.833 44.499 31.5s21.666 34.167 27.999 58.5s9.5 54.5 9.5 90.5v838zM634.002 1661l187 -203h-191l-70 162l-90 -162h-192
l207 203h149z" />
    <glyph glyph-name="Udieresis" unicode="&#xdc;" horiz-adv-x="1140" 
d="M703 1278h346.002v-811c0 -82.667 -11.333 -153.834 -34 -213.501s-55 -108.834 -97 -147.501s-93 -67.334 -153 -86.001s-127.667 -28 -203 -28c-76 0 -144.167 9.33301 -204.5 28s-111.5 47.334 -153.5 86.001s-74.333 87.834 -97 147.501s-34 130.834 -34 213.501v811
h346v-838c0 -35.333 3.66699 -65 11 -89s17.5 -43.5 30.5 -58.5s28.167 -25.833 45.5 -32.5s36 -10 56 -10c22 0 41.667 3.16699 59 9.5s32.166 16.833 44.499 31.5s21.666 34.167 27.999 58.5s9.5 54.5 9.5 90.5v838zM325.002 1507c0 28.667 9 52.167 27 70.5
s40.333 27.5 67 27.5c28.667 0 51.834 -9.16699 69.501 -27.5s26.5 -41.833 26.5 -70.5c0 -26.667 -8.83301 -48.667 -26.5 -66s-40.834 -26 -69.501 -26c-26.667 0 -49 8.66699 -67 26s-27 39.333 -27 66zM624.002 1507c0 28.667 8.66699 52.167 26 70.5
s39.333 27.5 66 27.5c28.667 0 52.167 -9.16699 70.5 -27.5s27.5 -41.833 27.5 -70.5c0 -26.667 -9.16699 -48.667 -27.5 -66s-41.833 -26 -70.5 -26c-26.667 0 -48.667 8.66699 -66 26s-26 39.333 -26 66z" />
    <glyph glyph-name="Yacute" unicode="&#xdd;" horiz-adv-x="897" 
d="M445 743l162 535h364l-368 -778v-500h-324v500l-360 778h364zM511 1559l272 -28l-358 -144l-141 21z" />
    <glyph glyph-name="Thorn" unicode="&#xde;" horiz-adv-x="1046" 
d="M106 1278l311.001 0.00195312v-298c5.33301 7.33301 13 14.166 23 20.499s21.167 12 33.5 17s25.166 9 38.499 12s26 4.5 38 4.5c70 0 132.667 -10.5 188 -31.5s102.166 -52.5 140.499 -94.5s67.5 -94.333 87.5 -157s30 -135.334 30 -218.001
c0 -83.333 -10 -157.333 -30 -222s-49.167 -119.5 -87.5 -164.5s-85.166 -79.167 -140.499 -102.5s-118 -35 -188 -35c-24 0 -48.333 5.33301 -73 16s-44.667 23.667 -60 39v-324h-311v1538zM550.001 212.002c19.333 0 37.1641 5.3291 53.4971 15.9961
s30.5 28.334 42.5 53.001s21.333 56.834 28 96.501s10 88.167 10 145.5s-3.33301 105.333 -10 144s-16 69.834 -28 93.501s-26.167 40.667 -42.5 51s-34.166 15.5 -53.499 15.5c-18 0 -34.5 -3.33301 -49.5 -10s-28.333 -18.167 -40 -34.5s-21.167 -38.333 -28.5 -66
s-12.333 -62.5 -15 -104.5v-199c2.66699 -41.333 7.83398 -75.166 15.501 -101.499s17.334 -46.833 29.001 -61.5s25 -24.667 40 -30s31.167 -8 48.5 -8z" />
    <glyph glyph-name="germandbls" unicode="&#xdf;" horiz-adv-x="1181" 
d="M411 0l-299.994 -0.00878906v854c0 62.667 9.16699 120 27.5 172s46.5 96.667 84.5 134s86.333 66.333 145 87s128 31 208 31c49.333 0 99.5 -5.16699 150.5 -15.5s97.167 -27.666 138.5 -51.999s75.166 -56.666 101.499 -96.999s39.5 -90.5 39.5 -150.5
c0 -36 -5.16699 -66.5 -15.5 -91.5s-23 -46.667 -38 -65s-31.5 -34.166 -49.5 -47.499s-34.5 -26.166 -49.5 -38.499s-27.667 -25.333 -38 -39s-15.5 -29.834 -15.5 -48.501c0 -17.333 8.16699 -31.5 24.5 -42.5s36.666 -21.5 60.999 -31.5l79.5 -32.5
c28.667 -11.667 55.167 -26.667 79.5 -45s44.666 -41.666 60.999 -69.999s24.833 -63.833 25.5 -106.5c0.666992 -52 -5.16602 -97 -17.499 -135s-33.5 -69.667 -63.5 -95s-69.667 -44.166 -119 -56.499s-111 -18.5 -185 -18.5h-151v203h94
c52.667 0 91.167 8.33301 115.5 25s30.833 47 19.5 91c-6 22.667 -16.667 41.834 -32 57.501s-33 29.667 -53 42s-41 24.166 -63 35.499s-42.167 24.333 -60.5 39s-33.333 32 -45 52s-17.5 45 -17.5 75c3.33301 22 9.83301 41.167 19.5 57.5s20.667 31.333 33 45
s25.166 26.834 38.499 39.501s25.666 26.834 36.999 42.501s20.666 33.5 27.999 53.5s11 44 11 72c0 22 -2 42.667 -6 62s-11.5 36.333 -22.5 51s-25.833 26.334 -44.5 35.001s-43 13.334 -73 14.001c-26.667 0.666992 -50.334 -3.33301 -71.001 -12s-38 -23 -52 -43
s-24.667 -45.833 -32 -77.5s-11 -70.167 -11 -115.5z" />
    <glyph glyph-name="agrave" unicode="&#xe0;" horiz-adv-x="1007" 
d="M636 121c-30 -47.333 -69.667 -81.6641 -119 -102.997s-109.333 -32 -180 -32c-52 0 -96.667 6.83301 -134 20.5s-67.666 32.667 -90.999 57s-40.5 53 -51.5 86s-16.5 69.167 -16.5 108.5s5.33301 76.666 16 111.999s27.5 67.166 50.5 95.499s52.5 53 88.5 74
s79.333 37.167 130 48.5c68.667 14 127.667 24.167 177 30.5l128 16.5c0 38 -7.83301 64.833 -23.5 80.5s-42.167 23.5 -79.5 23.5c-12 0 -27.167 -0.166992 -45.5 -0.5s-38.333 -0.833008 -60 -1.5s-44.334 -1.5 -68.001 -2.5s-46.834 -1.83301 -69.501 -2.5
c-53.333 -2.66699 -110 -5 -170 -7l-9 197l233 9c30.667 0.666992 61.334 1.5 92.001 2.5s59.5 1.83301 86.5 2.5s51 1 72 1s36.833 -0.333008 47.5 -1c66 -4 118.667 -15.333 158 -34s69.5 -44.334 90.5 -77.001s34.667 -72.5 41 -119.5s9.5 -100.5 9.5 -160.5v-545h-303
v121zM454 195.002c30.667 0 57.499 5.16602 80.499 15.499s42 24.833 57 43.5s26.167 41.334 33.5 68.001s11 56 11 88v62c-10 -2 -22.5 -5 -37.5 -9s-30.333 -8.33301 -46 -13l-44.5 -13l-32 -9c-45.333 -14 -77.166 -32.667 -95.499 -56s-27.5 -50.333 -27.5 -81
c0 -28 8.5 -51 25.5 -69s42.167 -27 75.5 -27zM683.999 1093l-141 -21l-358 144l272 28z" />
    <glyph glyph-name="aacute" unicode="&#xe1;" horiz-adv-x="997" 
d="M636 121c-30 -47.333 -69.667 -81.6641 -119 -102.997s-109.333 -32 -180 -32c-52 0 -96.667 6.83301 -134 20.5s-67.666 32.667 -90.999 57s-40.5 53 -51.5 86s-16.5 69.167 -16.5 108.5s5.33301 76.666 16 111.999s27.5 67.166 50.5 95.499s52.5 53 88.5 74
s79.333 37.167 130 48.5c68.667 14 127.667 24.167 177 30.5l128 16.5c0 38 -7.83301 64.833 -23.5 80.5s-42.167 23.5 -79.5 23.5c-12 0 -27.167 -0.166992 -45.5 -0.5s-38.333 -0.833008 -60 -1.5s-44.334 -1.5 -68.001 -2.5s-46.834 -1.83301 -69.501 -2.5
c-53.333 -2.66699 -110 -5 -170 -7l-9 197l233 9c30.667 0.666992 61.334 1.5 92.001 2.5s59.5 1.83301 86.5 2.5s51 1 72 1s36.833 -0.333008 47.5 -1c66 -4 118.667 -15.333 158 -34s69.5 -44.334 90.5 -77.001s34.667 -72.5 41 -119.5s9.5 -100.5 9.5 -160.5v-545h-303
v121zM454 195.002c30.667 0 57.499 5.16602 80.499 15.499s42 24.833 57 43.5s26.167 41.334 33.5 68.001s11 56 11 88v62c-10 -2 -22.5 -5 -37.5 -9s-30.333 -8.33301 -46 -13l-44.5 -13l-32 -9c-45.333 -14 -77.166 -32.667 -95.499 -56s-27.5 -50.333 -27.5 -81
c0 -28 8.5 -51 25.5 -69s42.167 -27 75.5 -27zM510.999 1251l272 -28l-358 -144l-141 21z" />
    <glyph glyph-name="acircumflex" unicode="&#xe2;" horiz-adv-x="987" 
d="M636 121c-30 -47.333 -69.667 -81.6641 -119 -102.997s-109.333 -32 -180 -32c-52 0 -96.667 6.83301 -134 20.5s-67.666 32.667 -90.999 57s-40.5 53 -51.5 86s-16.5 69.167 -16.5 108.5s5.33301 76.666 16 111.999s27.5 67.166 50.5 95.499s52.5 53 88.5 74
s79.333 37.167 130 48.5c68.667 14 127.667 24.167 177 30.5l128 16.5c0 38 -7.83301 64.833 -23.5 80.5s-42.167 23.5 -79.5 23.5c-12 0 -27.167 -0.166992 -45.5 -0.5s-38.333 -0.833008 -60 -1.5s-44.334 -1.5 -68.001 -2.5s-46.834 -1.83301 -69.501 -2.5
c-53.333 -2.66699 -110 -5 -170 -7l-9 197l233 9c30.667 0.666992 61.334 1.5 92.001 2.5s59.5 1.83301 86.5 2.5s51 1 72 1s36.833 -0.333008 47.5 -1c66 -4 118.667 -15.333 158 -34s69.5 -44.334 90.5 -77.001s34.667 -72.5 41 -119.5s9.5 -100.5 9.5 -160.5v-545h-303
v121zM454 195.002c30.667 0 57.499 5.16602 80.499 15.499s42 24.833 57 43.5s26.167 41.334 33.5 68.001s11 56 11 88v62c-10 -2 -22.5 -5 -37.5 -9s-30.333 -8.33301 -46 -13l-44.5 -13l-32 -9c-45.333 -14 -77.166 -32.667 -95.499 -56s-27.5 -50.333 -27.5 -81
c0 -28 8.5 -51 25.5 -69s42.167 -27 75.5 -27zM581.999 1277l187 -203h-191l-70 162l-90 -162h-192l207 203h149z" />
    <glyph glyph-name="atilde" unicode="&#xe3;" horiz-adv-x="997" 
d="M636 121c-30 -47.333 -69.667 -81.6641 -119 -102.997s-109.333 -32 -180 -32c-52 0 -96.667 6.83301 -134 20.5s-67.666 32.667 -90.999 57s-40.5 53 -51.5 86s-16.5 69.167 -16.5 108.5s5.33301 76.666 16 111.999s27.5 67.166 50.5 95.499s52.5 53 88.5 74
s79.333 37.167 130 48.5c68.667 14 127.667 24.167 177 30.5l128 16.5c0 38 -7.83301 64.833 -23.5 80.5s-42.167 23.5 -79.5 23.5c-12 0 -27.167 -0.166992 -45.5 -0.5s-38.333 -0.833008 -60 -1.5s-44.334 -1.5 -68.001 -2.5s-46.834 -1.83301 -69.501 -2.5
c-53.333 -2.66699 -110 -5 -170 -7l-9 197l233 9c30.667 0.666992 61.334 1.5 92.001 2.5s59.5 1.83301 86.5 2.5s51 1 72 1s36.833 -0.333008 47.5 -1c66 -4 118.667 -15.333 158 -34s69.5 -44.334 90.5 -77.001s34.667 -72.5 41 -119.5s9.5 -100.5 9.5 -160.5v-545h-303
v121zM454 195.002c30.667 0 57.499 5.16602 80.499 15.499s42 24.833 57 43.5s26.167 41.334 33.5 68.001s11 56 11 88v62c-10 -2 -22.5 -5 -37.5 -9s-30.333 -8.33301 -46 -13l-44.5 -13l-32 -9c-45.333 -14 -77.166 -32.667 -95.499 -56s-27.5 -50.333 -27.5 -81
c0 -28 8.5 -51 25.5 -69s42.167 -27 75.5 -27zM305.999 1201c7.33301 7.33301 15.835 17.0029 25.502 29.0029s20.334 23.667 32.001 35s24.5 21.166 38.5 29.499s29 12.5 45 12.5c21.333 0 39.833 -5.5 55.5 -16.5s29.667 -23.167 42 -36.5s24.166 -25.5 35.499 -36.5
s23.666 -16.5 36.999 -16.5c16 0 30.667 3.83301 44 11.5s25.666 16.5 36.999 26.5s21.5 20.167 30.5 30.5s16.833 18.166 23.5 23.499v-133l-22.5 -31.5c-8.33301 -11.667 -17.833 -22.5 -28.5 -32.5s-22.5 -18.5 -35.5 -25.5s-27.833 -10.5 -44.5 -10.5
c-20.667 0 -37.167 5.33301 -49.5 16s-24 22.5 -35 35.5s-23.167 25 -36.5 36s-31 16.5 -53 16.5c-17.333 0 -33.333 -4.33301 -48 -13s-27.667 -18.5 -39 -29.5s-21.5 -21.833 -30.5 -32.5s-16.833 -18.334 -23.5 -23.001v135z" />
    <glyph glyph-name="adieresis" unicode="&#xe4;" horiz-adv-x="991" 
d="M636 121c-30 -47.333 -69.667 -81.6641 -119 -102.997s-109.333 -32 -180 -32c-52 0 -96.667 6.83301 -134 20.5s-67.666 32.667 -90.999 57s-40.5 53 -51.5 86s-16.5 69.167 -16.5 108.5s5.33301 76.666 16 111.999s27.5 67.166 50.5 95.499s52.5 53 88.5 74
s79.333 37.167 130 48.5c68.667 14 127.667 24.167 177 30.5l128 16.5c0 38 -7.83301 64.833 -23.5 80.5s-42.167 23.5 -79.5 23.5c-12 0 -27.167 -0.166992 -45.5 -0.5s-38.333 -0.833008 -60 -1.5s-44.334 -1.5 -68.001 -2.5s-46.834 -1.83301 -69.501 -2.5
c-53.333 -2.66699 -110 -5 -170 -7l-9 197l233 9c30.667 0.666992 61.334 1.5 92.001 2.5s59.5 1.83301 86.5 2.5s51 1 72 1s36.833 -0.333008 47.5 -1c66 -4 118.667 -15.333 158 -34s69.5 -44.334 90.5 -77.001s34.667 -72.5 41 -119.5s9.5 -100.5 9.5 -160.5v-545h-303
v121zM454 195.002c30.667 0 57.499 5.16602 80.499 15.499s42 24.833 57 43.5s26.167 41.334 33.5 68.001s11 56 11 88v62c-10 -2 -22.5 -5 -37.5 -9s-30.333 -8.33301 -46 -13l-44.5 -13l-32 -9c-45.333 -14 -77.166 -32.667 -95.499 -56s-27.5 -50.333 -27.5 -81
c0 -28 8.5 -51 25.5 -69s42.167 -27 75.5 -27zM274.999 1165c0 28.667 9 52.167 27 70.5s40.333 27.5 67 27.5c28.667 0 51.834 -9.16699 69.501 -27.5s26.5 -41.833 26.5 -70.5c0 -26.667 -8.83301 -48.667 -26.5 -66s-40.834 -26 -69.501 -26
c-26.667 0 -49 8.66699 -67 26s-27 39.333 -27 66zM573.999 1165c0 28.667 8.66699 52.167 26 70.5s39.333 27.5 66 27.5c28.667 0 52.167 -9.16699 70.5 -27.5s27.5 -41.833 27.5 -70.5c0 -26.667 -9.16699 -48.667 -27.5 -66s-41.833 -26 -70.5 -26
c-26.667 0 -48.667 8.66699 -66 26s-26 39.333 -26 66z" />
    <glyph glyph-name="aring" unicode="&#xe5;" horiz-adv-x="1001" 
d="M267 1262c0 31.333 6 61 18 89s28.5 52.5 49.5 73.5s45.333 37.667 73 50s57.5 18.5 89.5 18.5c31.333 0 60.833 -6.16699 88.5 -18.5s52 -29 73 -50s37.667 -45.5 50 -73.5s18.5 -57.667 18.5 -89s-6.16699 -61 -18.5 -89s-29 -52.5 -50 -73.5s-45.333 -37.5 -73 -49.5
s-57.167 -18 -88.5 -18c-32 0 -61.833 6 -89.5 18s-52 28.5 -73 49.5s-37.5 45.5 -49.5 73.5s-18 57.667 -18 89zM390 1262c0 -14.667 2.83301 -29 8.5 -43s13.334 -26.5 23.001 -37.5s21 -19.833 34 -26.5s26.833 -10 41.5 -10s28.5 3.33301 41.5 10s24.333 15.5 34 26.5
s17.167 23.5 22.5 37.5s8 28.333 8 43c0 15.333 -2.66699 30 -8 44s-12.833 26.333 -22.5 37s-21 19.167 -34 25.5s-26.833 9.5 -41.5 9.5s-28.5 -3.16699 -41.5 -9.5s-24.333 -14.833 -34 -25.5s-17.334 -23 -23.001 -37s-8.5 -28.667 -8.5 -44zM636 121
c-30 -47.333 -69.667 -81.6641 -119 -102.997s-109.333 -32 -180 -32c-52 0 -96.667 6.83301 -134 20.5s-67.666 32.667 -90.999 57s-40.5 53 -51.5 86s-16.5 69.167 -16.5 108.5s5.33301 76.666 16 111.999s27.5 67.166 50.5 95.499s52.5 53 88.5 74
s79.333 37.167 130 48.5c68.667 14 127.667 24.167 177 30.5l128 16.5c0 38 -7.83301 64.833 -23.5 80.5s-42.167 23.5 -79.5 23.5c-12 0 -27.167 -0.166992 -45.5 -0.5s-38.333 -0.833008 -60 -1.5s-44.334 -1.5 -68.001 -2.5s-46.834 -1.83301 -69.501 -2.5
c-53.333 -2.66699 -110 -5 -170 -7l-9 197l233 9c30.667 0.666992 61.334 1.5 92.001 2.5s59.5 1.83301 86.5 2.5s51 1 72 1s36.833 -0.333008 47.5 -1c66 -4 118.667 -15.333 158 -34s69.5 -44.334 90.5 -77.001s34.667 -72.5 41 -119.5s9.5 -100.5 9.5 -160.5v-545h-303
v121zM454 195.002c30.667 0 57.499 5.16602 80.499 15.499s42 24.833 57 43.5s26.167 41.334 33.5 68.001s11 56 11 88v62c-10 -2 -22.5 -5 -37.5 -9s-30.333 -8.33301 -46 -13l-44.5 -13l-32 -9c-45.333 -14 -77.166 -32.667 -95.499 -56s-27.5 -50.333 -27.5 -81
c0 -28 8.5 -51 25.5 -69s42.167 -27 75.5 -27z" />
    <glyph glyph-name="ae" unicode="&#xe6;" horiz-adv-x="1560" 
d="M770 150c-24 -31.333 -49.6748 -57.333 -77.0078 -78s-58.166 -37.5 -92.499 -50.5s-73.166 -22.167 -116.499 -27.5s-92.333 -8 -147 -8c-49.333 0 -91.333 6.83301 -126 20.5s-63 32.667 -85 57s-38.167 53 -48.5 86s-15.5 69.167 -15.5 108.5s5 76.666 15 111.999
s25.833 67.166 47.5 95.499s49.334 53 83.001 74s74.5 37.167 122.5 48.5c64.667 14 120 24.167 166 30.5l120 16.5c0 38 -7.33301 64.833 -22 80.5s-39.667 23.5 -75 23.5c-11.333 0 -25.5 -0.166992 -42.5 -0.5s-35.667 -0.833008 -56 -1.5s-41.666 -1.5 -63.999 -2.5
s-44.166 -1.83301 -65.499 -2.5c-50.667 -2.66699 -104 -5 -160 -7l-8 197l219 9c28.667 0.666992 57.5 1.5 86.5 2.5s56.167 1.83301 81.5 2.5s47.833 1 67.5 1s34.5 -0.333008 44.5 -1c40.667 -3.33301 74 -14.666 100 -33.999s49.667 -45.333 71 -78
c15.333 26.667 33.333 48.334 54 65.001s42.667 29.5 66 38.5s47.833 15 73.5 18s51.5 4.5 77.5 4.5c70 0 132.333 -9.5 187 -28.5s101 -48.333 139 -88s67 -90 87 -151s30 -133.167 30 -216.5c0 -15.333 -0.333008 -29.333 -1 -42s-2 -27.667 -4 -45h-579
c0 -36 4.33301 -68.167 13 -96.5s19.834 -52 33.501 -71s28.834 -33.5 45.501 -43.5s33 -15 49 -15c12 0 24.167 2.33301 36.5 7s24 11.834 35 21.501s20.833 21.667 29.5 36s15 31.166 19 50.499h305c-13.333 -54.667 -32.833 -100.667 -58.5 -138s-56.667 -67.5 -93 -90.5
s-77.5 -39.5 -123.5 -49.5s-96 -15 -150 -15c-32 0 -63 4.5 -93 13.5s-57.667 21.333 -83 37s-48.166 34.167 -68.499 55.5s-36.833 44.333 -49.5 69zM446.992 195c29.333 0 54.666 5.16602 75.999 15.499s39 24.833 53 43.5s24.5 41.334 31.5 68.001s10.5 56 10.5 88v62
c-9.33301 -2 -21.166 -5 -35.499 -9s-28.833 -8.33301 -43.5 -13l-41.5 -13l-29.5 -9c-43.333 -14 -73.5 -32.667 -90.5 -56s-25.5 -50.333 -25.5 -81c0 -28 8 -51 24 -69s39.667 -27 71 -27zM1199.99 534.999c1.33301 36.667 -1.83398 68.498 -9.50098 95.498
s-18.167 49.333 -31.5 67s-28.5 30.834 -45.5 39.501s-33.5 13 -49.5 13s-32.167 -4 -48.5 -12s-31.166 -20.667 -44.499 -38s-24.333 -39.666 -33 -66.999s-13.667 -60 -15 -98h277z" />
    <glyph glyph-name="ccedilla" unicode="&#xe7;" horiz-adv-x="1005" 
d="M515 -20c-74 0 -140.001 10.333 -198.001 31s-107 51.334 -147 92.001s-70.667 91 -92 151s-32 129.667 -32 209c0 78.667 10.667 148 32 208s52 110.167 92 150.5s89 70.833 147 91.5s124 31 198 31c61.333 0 117.5 -6.5 168.5 -19.5s95.167 -33 132.5 -60
s67.166 -61.5 89.499 -103.5s35.5 -92.333 39.5 -151h-319c-4 25.333 -9.16699 46.166 -15.5 62.499s-14.166 29.333 -23.499 39s-20 16.334 -32 20.001s-25.333 5.5 -40 5.5c-20.667 0 -39.334 -4.16699 -56.001 -12.5s-31 -23.333 -43 -45s-21.333 -50.834 -28 -87.501
s-10 -83 -10 -139c0 -56.667 3.33301 -102.667 10 -138s16 -62.833 28 -82.5s26.333 -33 43 -40s35.334 -10.5 56.001 -10.5c17.333 0 33.333 2.5 48 7.5s27.334 14 38.001 27s19 30.833 25 53.5s9.33301 52 10 88h317c-3.33301 -68 -15.666 -126 -36.999 -174
s-51 -87 -89 -117s-83.333 -52 -136 -66s-111.334 -21 -176.001 -21zM324.999 -411l0.00390625 117h136c18 0 31.5 3.66699 40.5 11s13.5 15.166 13.5 23.499s-4 16.166 -12 23.499s-20 11 -36 11h-115c-16.667 0 -31.334 4.66699 -44.001 14s-22.5 21.333 -29.5 36
s-11.167 30.834 -12.5 48.501s1.16699 34.667 7.5 51s16.666 31 30.999 44s33.5 22.167 57.5 27.5c-9.33301 -13.333 -14.5 -26 -15.5 -38s1 -22.667 6 -32s12.833 -16.666 23.5 -21.999s23.334 -8 38.001 -8h114c20.667 0 38.667 -7.5 54 -22.5s26.833 -34 34.5 -57
s11.167 -47.667 10.5 -74s-6.33398 -51 -17.001 -74s-26.834 -42 -48.501 -57s-49.834 -22.5 -84.501 -22.5h-152z" />
    <glyph glyph-name="egrave" unicode="&#xe8;" horiz-adv-x="1046" 
d="M509 944c74 0 140.171 -9.49902 198.504 -28.499s107.666 -48.167 147.999 -87.5s71.166 -89.333 92.499 -150s32 -132.334 32 -215.001c0 -15.333 -0.333008 -29.333 -1 -42s-2 -27.334 -4 -44.001h-616c0 -36 4.66699 -68 14 -96s21.166 -51.5 35.499 -70.5
s30.333 -33.5 48 -43.5s35.167 -15 52.5 -15c12.667 0 25.667 2.33301 39 7s25.833 11.834 37.5 21.501s22 21.5 31 35.5s15.5 30.667 19.5 50h325c-14 -54 -34.667 -99.667 -62 -137s-60.333 -67.333 -99 -90s-82.334 -39 -131.001 -49s-102 -15 -160 -15
c-74 0 -140 10.667 -198 32s-107 52.5 -147 93.5s-70.667 91.833 -92 152.5s-32 130.667 -32 210c0 78.667 10.667 148 32 208s52 110.167 92 150.5s89 70.833 147 91.5s124 31 198 31zM654.004 532.001c1.33301 36.667 -2.16992 68.333 -10.5029 95
s-19.666 48.667 -33.999 66s-30.333 30.333 -48 39s-35.167 13 -52.5 13s-34.5 -4 -51.5 -12s-32.667 -20.5 -47 -37.5s-26.166 -39 -35.499 -66s-14.666 -59.5 -15.999 -97.5h295zM720.001 1080l-141 -21l-358 144l272 28z" />
    <glyph glyph-name="eacute" unicode="&#xe9;" horiz-adv-x="1046" 
d="M509 944c74 0 140.171 -9.49902 198.504 -28.499s107.666 -48.167 147.999 -87.5s71.166 -89.333 92.499 -150s32 -132.334 32 -215.001c0 -15.333 -0.333008 -29.333 -1 -42s-2 -27.334 -4 -44.001h-616c0 -36 4.66699 -68 14 -96s21.166 -51.5 35.499 -70.5
s30.333 -33.5 48 -43.5s35.167 -15 52.5 -15c12.667 0 25.667 2.33301 39 7s25.833 11.834 37.5 21.501s22 21.5 31 35.5s15.5 30.667 19.5 50h325c-14 -54 -34.667 -99.667 -62 -137s-60.333 -67.333 -99 -90s-82.334 -39 -131.001 -49s-102 -15 -160 -15
c-74 0 -140 10.667 -198 32s-107 52.5 -147 93.5s-70.667 91.833 -92 152.5s-32 130.667 -32 210c0 78.667 10.667 148 32 208s52 110.167 92 150.5s89 70.833 147 91.5s124 31 198 31zM654.004 532.001c1.33301 36.667 -2.16992 68.333 -10.5029 95
s-19.666 48.667 -33.999 66s-30.333 30.333 -48 39s-35.167 13 -52.5 13s-34.5 -4 -51.5 -12s-32.667 -20.5 -47 -37.5s-26.166 -39 -35.499 -66s-14.666 -59.5 -15.999 -97.5h295zM555.001 1244l272 -28l-358 -144l-141 21z" />
    <glyph glyph-name="ecircumflex" unicode="&#xea;" horiz-adv-x="1034" 
d="M509 944c74 0 140.171 -9.49902 198.504 -28.499s107.666 -48.167 147.999 -87.5s71.166 -89.333 92.499 -150s32 -132.334 32 -215.001c0 -15.333 -0.333008 -29.333 -1 -42s-2 -27.334 -4 -44.001h-616c0 -36 4.66699 -68 14 -96s21.166 -51.5 35.499 -70.5
s30.333 -33.5 48 -43.5s35.167 -15 52.5 -15c12.667 0 25.667 2.33301 39 7s25.833 11.834 37.5 21.501s22 21.5 31 35.5s15.5 30.667 19.5 50h325c-14 -54 -34.667 -99.667 -62 -137s-60.333 -67.333 -99 -90s-82.334 -39 -131.001 -49s-102 -15 -160 -15
c-74 0 -140 10.667 -198 32s-107 52.5 -147 93.5s-70.667 91.833 -92 152.5s-32 130.667 -32 210c0 78.667 10.667 148 32 208s52 110.167 92 150.5s89 70.833 147 91.5s124 31 198 31zM654.004 532.001c1.33301 36.667 -2.16992 68.333 -10.5029 95
s-19.666 48.667 -33.999 66s-30.333 30.333 -48 39s-35.167 13 -52.5 13s-34.5 -4 -51.5 -12s-32.667 -20.5 -47 -37.5s-26.166 -39 -35.499 -66s-14.666 -59.5 -15.999 -97.5h295zM589.001 1277l187 -203h-191l-70 162l-90 -162h-192l207 203h149z" />
    <glyph glyph-name="edieresis" unicode="&#xeb;" horiz-adv-x="1046" 
d="M509 944c74 0 140.171 -9.49902 198.504 -28.499s107.666 -48.167 147.999 -87.5s71.166 -89.333 92.499 -150s32 -132.334 32 -215.001c0 -15.333 -0.333008 -29.333 -1 -42s-2 -27.334 -4 -44.001h-616c0 -36 4.66699 -68 14 -96s21.166 -51.5 35.499 -70.5
s30.333 -33.5 48 -43.5s35.167 -15 52.5 -15c12.667 0 25.667 2.33301 39 7s25.833 11.834 37.5 21.501s22 21.5 31 35.5s15.5 30.667 19.5 50h325c-14 -54 -34.667 -99.667 -62 -137s-60.333 -67.333 -99 -90s-82.334 -39 -131.001 -49s-102 -15 -160 -15
c-74 0 -140 10.667 -198 32s-107 52.5 -147 93.5s-70.667 91.833 -92 152.5s-32 130.667 -32 210c0 78.667 10.667 148 32 208s52 110.167 92 150.5s89 70.833 147 91.5s124 31 198 31zM654.004 532.001c1.33301 36.667 -2.16992 68.333 -10.5029 95
s-19.666 48.667 -33.999 66s-30.333 30.333 -48 39s-35.167 13 -52.5 13s-34.5 -4 -51.5 -12s-32.667 -20.5 -47 -37.5s-26.166 -39 -35.499 -66s-14.666 -59.5 -15.999 -97.5h295zM279.001 1161c0 28.667 9 52.167 27 70.5s40.333 27.5 67 27.5
c28.667 0 51.834 -9.16699 69.501 -27.5s26.5 -41.833 26.5 -70.5c0 -26.667 -8.83301 -48.667 -26.5 -66s-40.834 -26 -69.501 -26c-26.667 0 -49 8.66699 -67 26s-27 39.333 -27 66zM578.001 1161c0 28.667 8.66699 52.167 26 70.5s39.333 27.5 66 27.5
c28.667 0 52.167 -9.16699 70.5 -27.5s27.5 -41.833 27.5 -70.5c0 -26.667 -9.16699 -48.667 -27.5 -66s-41.833 -26 -70.5 -26c-26.667 0 -48.667 8.66699 -66 26s-26 39.333 -26 66z" />
    <glyph glyph-name="igrave" unicode="&#xec;" horiz-adv-x="491" 
d="M455 1096l-141 -21l-358 144l272 28zM78 0v934h338v-934h-338z" />
    <glyph glyph-name="iacute" unicode="&#xed;" horiz-adv-x="479" 
d="M226 1248l272 -28l-358 -144l-141 21zM78 0v934h338v-934h-338z" />
    <glyph glyph-name="icircumflex" unicode="&#xee;" horiz-adv-x="491" 
d="M329 1283l187 -203h-191l-70 162l-90 -162h-192l207 203h149zM78 0v934h338v-934h-338z" />
    <glyph glyph-name="idieresis" unicode="&#xef;" horiz-adv-x="497" 
d="M17 1168c0 28.667 9 52.167 27 70.5s40.333 27.5 67 27.5c28.667 0 51.834 -9.16699 69.501 -27.5s26.5 -41.833 26.5 -70.5c0 -26.667 -8.83301 -48.667 -26.5 -66s-40.834 -26 -69.501 -26c-26.667 0 -49 8.66699 -67 26s-27 39.333 -27 66zM316 1168
c0 28.667 8.66699 52.167 26 70.5s39.333 27.5 66 27.5c28.667 0 52.167 -9.16699 70.5 -27.5s27.5 -41.833 27.5 -70.5c0 -26.667 -9.16699 -48.667 -27.5 -66s-41.833 -26 -70.5 -26c-26.667 0 -48.667 8.66699 -66 26s-26 39.333 -26 66zM78 934h338v-934h-338v934z" />
    <glyph glyph-name="eth" unicode="&#xf0;" horiz-adv-x="866" 
d="M716 1009l-148.998 -74l53.5 -97.5l55.5 -102.5l50.5 -93.5l38.5 -70.5c22.667 -41.333 38.5 -87 47.5 -137s9.5 -101.333 1.5 -154c-7.33301 -47.333 -21.166 -88.333 -41.499 -123s-46.333 -63.5 -78 -86.5s-68.5 -40.167 -110.5 -51.5s-88.333 -17 -139 -17
c-46.667 0 -91.334 6.5 -134.001 19.5s-81 32.667 -115 59s-61.833 59.666 -83.5 99.999s-34.834 87.833 -39.501 142.5c-4 46 -1 87.5 9 124.5s24.5 69.5 43.5 97.5s41.167 51.5 66.5 70.5s51.666 33.5 78.999 43.5c7.33301 2.66699 17.166 5.16699 29.499 7.5
s25.833 3.83301 40.5 4.5s29.334 0.333984 44.001 -0.999023s28 -4.33301 40 -9l-107 152l-157 -77l-37 71l155 76l-105 157l258 137l99 -171l147 72zM587.002 362c0 24 -3.66699 45.833 -11 65.5s-17 36.667 -29 51s-25.667 25.5 -41 33.5s-31 12 -47 12
c-36 0 -65.667 -15 -89 -45s-35 -75 -35 -135c0 -58.667 12.167 -100.667 36.5 -126s55.833 -38 94.5 -38c38 0 68.167 15 90.5 45s32.5 75.667 30.5 137z" />
    <glyph glyph-name="ntilde" unicode="&#xf1;" horiz-adv-x="1057" 
d="M402 0l-313 0.000976562v928h313v-76c22.667 26.667 50.5 46.5 83.5 59.5s72.167 21.167 117.5 24.5c59.333 3.33301 111.5 -4.33398 156.5 -23.001s82.5 -45.334 112.5 -80.001s52.667 -75.667 68 -123s23 -97.666 23 -150.999v-559h-319v508
c0 64 -10.5 110.333 -31.5 139s-53.5 43 -97.5 43c-38 0 -66.333 -15.333 -85 -46s-28 -76 -28 -136v-508zM299 1194c7.33301 7.33301 15.835 17.0029 25.502 29.0029s20.334 23.667 32.001 35s24.5 21.166 38.5 29.499s29 12.5 45 12.5c21.333 0 39.833 -5.5 55.5 -16.5
s29.667 -23.167 42 -36.5s24.166 -25.5 35.499 -36.5s23.666 -16.5 36.999 -16.5c16 0 30.667 3.83301 44 11.5s25.666 16.5 36.999 26.5s21.5 20.167 30.5 30.5s16.833 18.166 23.5 23.499v-133l-22.5 -31.5c-8.33301 -11.667 -17.833 -22.5 -28.5 -32.5
s-22.5 -18.5 -35.5 -25.5s-27.833 -10.5 -44.5 -10.5c-20.667 0 -37.167 5.33301 -49.5 16s-24 22.5 -35 35.5s-23.167 25 -36.5 36s-31 16.5 -53 16.5c-17.333 0 -33.333 -4.33301 -48 -13s-27.667 -18.5 -39 -29.5s-21.5 -21.833 -30.5 -32.5
s-16.833 -18.334 -23.5 -23.001v135z" />
    <glyph glyph-name="ograve" unicode="&#xf2;" horiz-adv-x="1042" 
d="M517 944c74 0 140 -9.49805 198 -28.498s107 -48.167 147 -87.5s70.667 -89.333 92 -150s32 -132.334 32 -215.001c0 -83.333 -10.667 -155.333 -32 -216s-52 -110.834 -92 -150.501s-89 -69.167 -147 -88.5s-124 -29 -198 -29s-140.167 10.333 -198.5 31
s-107.5 51.5 -147.5 92.5s-70.5 91.5 -91.5 151.5s-31.5 129.667 -31.5 209c0 78.667 10.5 148 31.5 208s51.5 110.167 91.5 150.5s89.167 70.833 147.5 91.5s124.5 31 198.5 31zM517 182.002c20.667 0 39.502 3.33398 56.502 10.001s31.833 19.667 44.5 39
s22.5 46.833 29.5 82.5s10.5 82.167 10.5 139.5s-3.5 104.333 -10.5 141s-16.833 65.667 -29.5 87s-27.5 36 -44.5 44s-35.833 12 -56.5 12c-21.333 0 -40.5 -4.16699 -57.5 -12.5s-31.833 -23.333 -44.5 -45s-22.334 -50.834 -29.001 -87.501s-10 -83 -10 -139
c0 -56.667 3.5 -102.667 10.5 -138s16.667 -62.833 29 -82.5s27.166 -33 44.499 -40s36.333 -10.5 57 -10.5zM692.002 1089l-141 -21l-358 144l272 28z" />
    <glyph glyph-name="oacute" unicode="&#xf3;" horiz-adv-x="1034" 
d="M517 944c74 0 140 -9.49805 198 -28.498s107 -48.167 147 -87.5s70.667 -89.333 92 -150s32 -132.334 32 -215.001c0 -83.333 -10.667 -155.333 -32 -216s-52 -110.834 -92 -150.501s-89 -69.167 -147 -88.5s-124 -29 -198 -29s-140.167 10.333 -198.5 31
s-107.5 51.5 -147.5 92.5s-70.5 91.5 -91.5 151.5s-31.5 129.667 -31.5 209c0 78.667 10.5 148 31.5 208s51.5 110.167 91.5 150.5s89.167 70.833 147.5 91.5s124.5 31 198.5 31zM517 182.002c20.667 0 39.502 3.33398 56.502 10.001s31.833 19.667 44.5 39
s22.5 46.833 29.5 82.5s10.5 82.167 10.5 139.5s-3.5 104.333 -10.5 141s-16.833 65.667 -29.5 87s-27.5 36 -44.5 44s-35.833 12 -56.5 12c-21.333 0 -40.5 -4.16699 -57.5 -12.5s-31.833 -23.333 -44.5 -45s-22.334 -50.834 -29.001 -87.501s-10 -83 -10 -139
c0 -56.667 3.5 -102.667 10.5 -138s16.667 -62.833 29 -82.5s27.166 -33 44.499 -40s36.333 -10.5 57 -10.5zM491.002 1228l272 -28l-358 -144l-141 21z" />
    <glyph glyph-name="ocircumflex" unicode="&#xf4;" horiz-adv-x="1030" 
d="M517 944c74 0 140 -9.49805 198 -28.498s107 -48.167 147 -87.5s70.667 -89.333 92 -150s32 -132.334 32 -215.001c0 -83.333 -10.667 -155.333 -32 -216s-52 -110.834 -92 -150.501s-89 -69.167 -147 -88.5s-124 -29 -198 -29s-140.167 10.333 -198.5 31
s-107.5 51.5 -147.5 92.5s-70.5 91.5 -91.5 151.5s-31.5 129.667 -31.5 209c0 78.667 10.5 148 31.5 208s51.5 110.167 91.5 150.5s89.167 70.833 147.5 91.5s124.5 31 198.5 31zM517 182.002c20.667 0 39.502 3.33398 56.502 10.001s31.833 19.667 44.5 39
s22.5 46.833 29.5 82.5s10.5 82.167 10.5 139.5s-3.5 104.333 -10.5 141s-16.833 65.667 -29.5 87s-27.5 36 -44.5 44s-35.833 12 -56.5 12c-21.333 0 -40.5 -4.16699 -57.5 -12.5s-31.833 -23.333 -44.5 -45s-22.334 -50.834 -29.001 -87.501s-10 -83 -10 -139
c0 -56.667 3.5 -102.667 10.5 -138s16.667 -62.833 29 -82.5s27.166 -33 44.499 -40s36.333 -10.5 57 -10.5zM601.002 1268l187 -203h-191l-70 162l-90 -162h-192l207 203h149z" />
    <glyph glyph-name="otilde" unicode="&#xf5;" horiz-adv-x="1038" 
d="M517 944c74 0 140 -9.49805 198 -28.498s107 -48.167 147 -87.5s70.667 -89.333 92 -150s32 -132.334 32 -215.001c0 -83.333 -10.667 -155.333 -32 -216s-52 -110.834 -92 -150.501s-89 -69.167 -147 -88.5s-124 -29 -198 -29s-140.167 10.333 -198.5 31
s-107.5 51.5 -147.5 92.5s-70.5 91.5 -91.5 151.5s-31.5 129.667 -31.5 209c0 78.667 10.5 148 31.5 208s51.5 110.167 91.5 150.5s89.167 70.833 147.5 91.5s124.5 31 198.5 31zM517 182.002c20.667 0 39.502 3.33398 56.502 10.001s31.833 19.667 44.5 39
s22.5 46.833 29.5 82.5s10.5 82.167 10.5 139.5s-3.5 104.333 -10.5 141s-16.833 65.667 -29.5 87s-27.5 36 -44.5 44s-35.833 12 -56.5 12c-21.333 0 -40.5 -4.16699 -57.5 -12.5s-31.833 -23.333 -44.5 -45s-22.334 -50.834 -29.001 -87.501s-10 -83 -10 -139
c0 -56.667 3.5 -102.667 10.5 -138s16.667 -62.833 29 -82.5s27.166 -33 44.499 -40s36.333 -10.5 57 -10.5zM331.002 1169c7.33301 7.33301 15.835 17.0029 25.502 29.0029s20.334 23.667 32.001 35s24.5 21.166 38.5 29.499s29 12.5 45 12.5
c21.333 0 39.833 -5.5 55.5 -16.5s29.667 -23.167 42 -36.5s24.166 -25.5 35.499 -36.5s23.666 -16.5 36.999 -16.5c16 0 30.667 3.83301 44 11.5s25.666 16.5 36.999 26.5s21.5 20.167 30.5 30.5s16.833 18.166 23.5 23.499v-133l-22.5 -31.5
c-8.33301 -11.667 -17.833 -22.5 -28.5 -32.5s-22.5 -18.5 -35.5 -25.5s-27.833 -10.5 -44.5 -10.5c-20.667 0 -37.167 5.33301 -49.5 16s-24 22.5 -35 35.5s-23.167 25 -36.5 36s-31 16.5 -53 16.5c-17.333 0 -33.333 -4.33301 -48 -13s-27.667 -18.5 -39 -29.5
s-21.5 -21.833 -30.5 -32.5s-16.833 -18.334 -23.5 -23.001v135z" />
    <glyph glyph-name="odieresis" unicode="&#xf6;" horiz-adv-x="1042" 
d="M517 944c74 0 140 -9.49805 198 -28.498s107 -48.167 147 -87.5s70.667 -89.333 92 -150s32 -132.334 32 -215.001c0 -83.333 -10.667 -155.333 -32 -216s-52 -110.834 -92 -150.501s-89 -69.167 -147 -88.5s-124 -29 -198 -29s-140.167 10.333 -198.5 31
s-107.5 51.5 -147.5 92.5s-70.5 91.5 -91.5 151.5s-31.5 129.667 -31.5 209c0 78.667 10.5 148 31.5 208s51.5 110.167 91.5 150.5s89.167 70.833 147.5 91.5s124.5 31 198.5 31zM517 182.002c20.667 0 39.502 3.33398 56.502 10.001s31.833 19.667 44.5 39
s22.5 46.833 29.5 82.5s10.5 82.167 10.5 139.5s-3.5 104.333 -10.5 141s-16.833 65.667 -29.5 87s-27.5 36 -44.5 44s-35.833 12 -56.5 12c-21.333 0 -40.5 -4.16699 -57.5 -12.5s-31.833 -23.333 -44.5 -45s-22.334 -50.834 -29.001 -87.501s-10 -83 -10 -139
c0 -56.667 3.5 -102.667 10.5 -138s16.667 -62.833 29 -82.5s27.166 -33 44.499 -40s36.333 -10.5 57 -10.5zM287.002 1175c0 28.667 9 52.167 27 70.5s40.333 27.5 67 27.5c28.667 0 51.834 -9.16699 69.501 -27.5s26.5 -41.833 26.5 -70.5
c0 -26.667 -8.83301 -48.667 -26.5 -66s-40.834 -26 -69.501 -26c-26.667 0 -49 8.66699 -67 26s-27 39.333 -27 66zM586.002 1175c0 28.667 8.66699 52.167 26 70.5s39.333 27.5 66 27.5c28.667 0 52.167 -9.16699 70.5 -27.5s27.5 -41.833 27.5 -70.5
c0 -26.667 -9.16699 -48.667 -27.5 -66s-41.833 -26 -70.5 -26c-26.667 0 -48.667 8.66699 -66 26s-26 39.333 -26 66z" />
    <glyph glyph-name="divide" unicode="&#xf7;" horiz-adv-x="957" 
d="M347 784v279h315v-279h-315zM6 641h950v-217h-950v217zM347 0v279h315v-279h-315z" />
    <glyph glyph-name="oslash" unicode="&#xf8;" horiz-adv-x="1001" 
d="M484 944c52 0 100.667 -4.99902 146 -14.999l63 127l104 -47l-58 -117c68.667 -34.667 121.5 -87.167 158.5 -157.5s55.5 -160.833 55.5 -271.5c0 -83.333 -10.667 -155.333 -32 -216s-52 -110.834 -92 -150.501s-89 -69.167 -147 -88.5s-124 -29 -198 -29
c-50.667 0 -97 5 -139 15l-79 -152l-105 49l74 140c-71.333 36.667 -125.833 91 -163.5 163s-56.5 161.667 -56.5 269c0 78.667 10.5 148 31.5 208s51.5 110.167 91.5 150.5s89.167 70.833 147.5 91.5s124.5 31 198.5 31zM484 182.001
c20.667 0 39.502 3.33398 56.502 10.001s31.833 19.667 44.5 39s22.5 46.833 29.5 82.5s10.5 82.167 10.5 139.5s-3.5 104.333 -10.5 141s-16.833 65.667 -29.5 87s-27.5 36 -44.5 44s-35.833 12 -56.5 12c-21.333 0 -40.5 -4.16699 -57.5 -12.5s-31.833 -23.333 -44.5 -45
s-22.334 -50.834 -29.001 -87.501s-10 -83 -10 -139c0 -56.667 3.5 -102.667 10.5 -138s16.667 -62.833 29 -82.5s27.166 -33 44.499 -40s36.333 -10.5 57 -10.5z" />
    <glyph glyph-name="ugrave" unicode="&#xf9;" horiz-adv-x="1014" 
d="M628 0v76.001c-22.667 -26.667 -50.834 -46.5 -84.501 -59.5s-72.5 -21.167 -116.5 -24.5c-59.333 -4 -111.5 3.5 -156.5 22.5s-82.667 45.833 -113 80.5s-53.166 75.667 -68.499 123s-23 97.666 -23 150.999v559h318v-508c0 -64 10.833 -110.333 32.5 -139
s54.5 -43 98.5 -43c38 0 66.333 15.333 85 46s28 76 28 136v508h313v-928h-313zM697 1087l-141 -21l-358 144l272 28z" />
    <glyph glyph-name="uacute" unicode="&#xfa;" horiz-adv-x="1024" 
d="M628 0v76.001c-22.667 -26.667 -50.834 -46.5 -84.501 -59.5s-72.5 -21.167 -116.5 -24.5c-59.333 -4 -111.5 3.5 -156.5 22.5s-82.667 45.833 -113 80.5s-53.166 75.667 -68.499 123s-23 97.666 -23 150.999v559h318v-508c0 -64 10.833 -110.333 32.5 -139
s54.5 -43 98.5 -43c38 0 66.333 15.333 85 46s28 76 28 136v508h313v-928h-313zM532 1244l272 -28l-358 -144l-141 21z" />
    <glyph glyph-name="ucircumflex" unicode="&#xfb;" horiz-adv-x="1018" 
d="M628 0v76.001c-22.667 -26.667 -50.834 -46.5 -84.501 -59.5s-72.5 -21.167 -116.5 -24.5c-59.333 -4 -111.5 3.5 -156.5 22.5s-82.667 45.833 -113 80.5s-53.166 75.667 -68.499 123s-23 97.666 -23 150.999v559h318v-508c0 -64 10.833 -110.333 32.5 -139
s54.5 -43 98.5 -43c38 0 66.333 15.333 85 46s28 76 28 136v508h313v-928h-313zM592 1284l187 -203h-191l-70 162l-90 -162h-192l207 203h149z" />
    <glyph glyph-name="udieresis" unicode="&#xfc;" horiz-adv-x="1028" 
d="M628 0v76.001c-22.667 -26.667 -50.834 -46.5 -84.501 -59.5s-72.5 -21.167 -116.5 -24.5c-59.333 -4 -111.5 3.5 -156.5 22.5s-82.667 45.833 -113 80.5s-53.166 75.667 -68.499 123s-23 97.666 -23 150.999v559h318v-508c0 -64 10.833 -110.333 32.5 -139
s54.5 -43 98.5 -43c38 0 66.333 15.333 85 46s28 76 28 136v508h313v-928h-313zM264 1165c0 28.667 9 52.167 27 70.5s40.333 27.5 67 27.5c28.667 0 51.834 -9.16699 69.501 -27.5s26.5 -41.833 26.5 -70.5c0 -26.667 -8.83301 -48.667 -26.5 -66s-40.834 -26 -69.501 -26
c-26.667 0 -49 8.66699 -67 26s-27 39.333 -27 66zM563 1165c0 28.667 8.66699 52.167 26 70.5s39.333 27.5 66 27.5c28.667 0 52.167 -9.16699 70.5 -27.5s27.5 -41.833 27.5 -70.5c0 -26.667 -9.16699 -48.667 -27.5 -66s-41.833 -26 -70.5 -26
c-26.667 0 -48.667 8.66699 -66 26s-26 39.333 -26 66z" />
    <glyph glyph-name="yacute" unicode="&#xfd;" horiz-adv-x="852" 
d="M163 -170l127 291l-316 807h355l94 -539l133 539h323l-415 -1098h-301zM481 1231l272 -28l-358 -144l-141 21z" />
    <glyph glyph-name="thorn" unicode="&#xfe;" horiz-adv-x="887" 
d="M98 1063l254 -0.00195312v-239c10 7.33301 20.333 14.333 31 21s23 12.334 37 17.001s30.167 8.33398 48.5 11.001s40.5 4 66.5 4c52.667 0 99.667 -6 141 -18s76.166 -31.833 104.499 -59.5s49.833 -64.167 64.5 -109.5s22 -101.333 22 -168
c0 -66 -7.33301 -121.833 -22 -167.5s-36 -82.5 -64 -110.5s-62.667 -48.167 -104 -60.5s-88.666 -18.5 -141.999 -18.5c-26 0 -48.167 1.16699 -66.5 3.5s-34.5 5.5 -48.5 9.5s-26.333 9 -37 15s-21 13 -31 21v-214h-254v1063zM485 327.998c16.667 0 32 2.00195 46 6.00195
s26.167 12.5 36.5 25.5s18.333 31.667 24 56s8.5 57.166 8.5 98.499c0 40.667 -2.83301 74 -8.5 100s-13.667 46.167 -24 60.5s-22.5 24.166 -36.5 29.499s-29.333 8 -46 8c-17.333 0 -33 -2.83301 -47 -8.5s-26 -15.834 -36 -30.501s-17.833 -34.834 -23.5 -60.501
s-8.5 -58.5 -8.5 -98.5s2.83301 -72.167 8.5 -96.5s13.667 -43.166 24 -56.499s22.5 -22.166 36.5 -26.499s29.333 -6.5 46 -6.5z" />
    <glyph glyph-name="ydieresis" unicode="&#xff;" horiz-adv-x="848" 
d="M290 121l-316 807h355l112 -473l115 473h323l-415 -1098h-301zM202 1161c0 28.667 9 52.167 27 70.5s40.333 27.5 67 27.5c28.667 0 51.834 -9.16699 69.501 -27.5s26.5 -41.833 26.5 -70.5c0 -26.667 -8.83301 -48.667 -26.5 -66s-40.834 -26 -69.501 -26
c-26.667 0 -49 8.66699 -67 26s-27 39.333 -27 66zM501 1161c0 28.667 8.66699 52.167 26 70.5s39.333 27.5 66 27.5c28.667 0 52.167 -9.16699 70.5 -27.5s27.5 -41.833 27.5 -70.5c0 -26.667 -9.16699 -48.667 -27.5 -66s-41.833 -26 -70.5 -26
c-26.667 0 -48.667 8.66699 -66 26s-26 39.333 -26 66z" />
    <glyph glyph-name="OE" unicode="&#x152;" horiz-adv-x="1526" 
d="M549 1295c26.667 0 53.002 -3.33301 79.002 -10s50 -15.167 72 -25.5s41.167 -21.666 57.5 -33.999s28.166 -23.833 35.499 -34.5v87h644v-246h-410v-233h340v-244h-340v-306h410v-249h-644v87c-7.33301 -10.667 -19 -21.834 -35 -33.501s-35 -22.334 -57 -32.001
s-46.167 -17.667 -72.5 -24s-52.833 -9.5 -79.5 -9.5c-75.333 0 -141.333 9.5 -198 28.5s-104.5 50 -143.5 93s-69 98.667 -90 167s-33.5 152.166 -37.5 251.499c-0.666992 22.667 -1.16699 42.334 -1.5 59.001s-0.5 33.167 -0.5 49.5s0.166992 34.166 0.5 53.499
s0.833008 43.333 1.5 72c2.66699 95.333 14.5 176.833 35.5 244.5s51 122.834 90 165.501s87.167 73.834 144.5 93.501s123.666 29.5 198.999 29.5zM698.002 475c0 13.333 0.171875 29.3311 0.504883 47.998s0.666016 38.834 0.999023 60.501s0.5 43.834 0.5 66.501v65.5
c0 21 -0.166992 40.5 -0.5 58.5s-0.833008 33 -1.5 45c-2 40 -5.33301 75 -10 105s-12.334 54.667 -23.001 74s-25.167 33.833 -43.5 43.5s-42.5 14.5 -72.5 14.5s-54.167 -4.83301 -72.5 -14.5s-32.833 -24.167 -43.5 -43.5s-18.334 -44 -23.001 -74s-8 -65 -10 -105
c-1.33301 -18 -2 -42.333 -2 -73v-96c0 -33.333 0.166992 -65.833 0.5 -97.5s0.833008 -57.5 1.5 -77.5c1.33301 -40.667 4.16602 -76.167 8.49902 -106.5s12 -55.5 23 -75.5s25.833 -34.833 44.5 -44.5s43 -14.5 73 -14.5s54.333 4.83301 73 14.5s33.5 24.5 44.5 44.5
s18.667 45.167 23 75.5s7.16602 65.833 8.49902 106.5z" />
    <glyph glyph-name="oe" unicode="&#x153;" horiz-adv-x="1649" 
d="M1131 944c79.333 0 149.169 -12.666 209.502 -37.999s109.666 -62.333 147.999 -111s65.333 -108 81 -178s18.5 -150 8.5 -240h-591c0 -36 4.5 -68 13.5 -96s20.5 -51.5 34.5 -70.5s29.5 -33.5 46.5 -43.5s33.5 -15 49.5 -15c12 0 24.5 2.33301 37.5 7
s25 11.834 36 21.501s20.833 21.5 29.5 35.5s15 30.667 19 50h311c-13.333 -54 -33 -99.667 -59 -137s-57.5 -67.333 -94.5 -90s-79 -39 -126 -49s-98.167 -15 -153.5 -15c-62 0 -119.5 14 -172.5 42s-95.167 69 -126.5 123c-17.333 -30 -37.333 -55.333 -60 -76
s-47.5 -37.334 -74.5 -50.001s-55.667 -21.667 -86 -27s-61.833 -8 -94.5 -8c-74 0 -140.167 10.333 -198.5 31s-107.5 51.5 -147.5 92.5s-70.5 91.5 -91.5 151.5s-31.5 129.667 -31.5 209c0 78.667 10.5 148 31.5 208s51.5 110.167 91.5 150.5s89.167 70.833 147.5 91.5
s124.5 31 198.5 31c66 0 126.167 -12.833 180.5 -38.5s99.833 -66.834 136.5 -123.501c40 58 84.167 99.5 132.5 124.5s103.166 37.5 164.499 37.5zM517.003 182.001c20.667 0 39.502 3.33398 56.502 10.001s31.833 19.667 44.5 39s22.5 46.833 29.5 82.5
s10.5 82.167 10.5 139.5s-3.5 104.333 -10.5 141s-16.833 65.667 -29.5 87s-27.5 36 -44.5 44s-35.833 12 -56.5 12c-21.333 0 -40.5 -4.16699 -57.5 -12.5s-31.833 -23.333 -44.5 -45s-22.334 -50.834 -29.001 -87.501s-10 -83 -10 -139c0 -56.667 3.5 -102.667 10.5 -138
s16.667 -62.833 29 -82.5s27.166 -33 44.499 -40s36.333 -10.5 57 -10.5zM1270 532.002c1.33301 36.667 -1.99902 68.333 -9.99902 95s-18.833 48.667 -32.5 66s-29 30.333 -46 39s-33.833 13 -50.5 13c-16 0 -32.333 -4 -49 -12s-31.834 -20.5 -45.501 -37.5
s-25 -39 -34 -66s-14.167 -59.5 -15.5 -97.5h283z" />
    <glyph glyph-name="Scaron" unicode="&#x160;" horiz-adv-x="1042" 
d="M456 1415l-234 236h196l113 -174l109 174h196l-231 -236h-149zM507 1296c85.333 0 158.332 -10.1641 218.999 -30.4971s110.334 -48.666 149.001 -84.999s66.5 -79.333 83.5 -129s24.833 -103.834 23.5 -162.501h-311c0 20 -2.16699 41 -6.5 63s-11.833 42.333 -22.5 61
s-24.667 34 -42 46s-39.333 18 -66 18c-16.667 0 -32.667 -2.5 -48 -7.5s-29 -12 -41 -21s-21.667 -19.833 -29 -32.5s-11 -26.334 -11 -41.001c0 -15.333 1.66699 -29.833 5 -43.5s9.83301 -27.167 19.5 -40.5s23 -26.333 40 -39s39.167 -25 66.5 -37
c78.667 -35.333 146 -68.833 202 -100.5s102 -65 138 -100s62.333 -73.333 79 -115s25 -90.167 25 -145.5c0 -60 -10.5 -113 -31.5 -159s-51.833 -84.667 -92.5 -116s-90.334 -55 -149.001 -71s-126 -24 -202 -24c-56.667 0 -111 8.33301 -163 25s-98.167 42.5 -138.5 77.5
s-73 79.5 -98 133.5s-38.5 118 -40.5 192h335c0 -62.667 9.33301 -109.834 28 -141.501s49.334 -47.5 92.001 -47.5c42 0 72.833 11.167 92.5 33.5s29.5 55.5 29.5 99.5c0 24 -5.66699 44.667 -17 62s-25.833 32.666 -43.5 45.999s-37 24.833 -58 34.5l-59.5 27.5
c-76 34.667 -140.5 68.5 -193.5 101.5s-95.5 67.833 -127.5 104.5s-54 76.667 -66 120s-15.333 93 -10 149c4 44.667 16.167 85.167 36.5 121.5s49 67.333 86 93s81.833 45.5 134.5 59.5s113.667 21 183 21z" />
    <glyph glyph-name="scaron" unicode="&#x161;" horiz-adv-x="893" 
d="M359 1041l-233 235h217l92 -153l88 153h217l-231 -235h-150zM435 172c22.667 0 40.5049 4.83301 53.5049 14.5s20.5 26.167 22.5 49.5c0.666992 12 -0.5 22.5 -3.5 31.5s-8.83301 17.667 -17.5 26s-19.834 17 -33.501 26s-30.5 19.167 -50.5 30.5l-142.5 83
c-43.667 24.667 -81.334 50.5 -113.001 77.5s-55.5 57 -71.5 90s-21.333 73.167 -16 120.5c4 38 16.333 70.833 37 98.5s47.834 50.834 81.501 69.501s73.167 32.5 118.5 41.5s95 13.5 149 13.5c59.333 0 113.5 -6.5 162.5 -19.5s91 -32.833 126 -59.5
s61.833 -59.834 80.5 -99.501s27.334 -86.5 26.001 -140.5h-307c4 19.333 5 37.833 3 55.5s-6.5 33.334 -13.5 47.001s-16.167 24.5 -27.5 32.5s-24.333 12 -39 12c-26 0 -46.167 -6.83301 -60.5 -20.5s-21.5 -34.834 -21.5 -63.501c0 -14.667 2.83301 -27 8.5 -37
s13.667 -19 24 -27s23 -15.667 38 -23s31.833 -16 50.5 -26l131 -70c40.667 -21.333 76.167 -44.5 106.5 -69.5s54.333 -53.333 72 -85s26.5 -69.834 26.5 -114.501c0 -37.333 -9 -71.5 -27 -102.5s-44.167 -57.5 -78.5 -79.5s-76.5 -39.167 -126.5 -51.5
s-107.333 -18.5 -172 -18.5c-60.667 0 -114.834 7.66699 -162.501 23s-88.334 37.166 -122.001 65.499s-59.334 62.333 -77.001 102s-26.834 83.834 -27.501 132.501h315c0.666992 -21.333 3.16699 -40.333 7.5 -57s10.166 -30.667 17.499 -42s15.5 -20.166 24.5 -26.499
s18.5 -9.5 28.5 -9.5z" />
    <glyph glyph-name="Ydieresis" unicode="&#x178;" horiz-adv-x="966" 
d="M642 1278h364l-368 -778v-500h-324v500l-360 778h364l162 -535zM255 1507c0 28.667 9 52.167 27 70.5s40.333 27.5 67 27.5c28.667 0 51.834 -9.16699 69.501 -27.5s26.5 -41.833 26.5 -70.5c0 -26.667 -8.83301 -48.667 -26.5 -66s-40.834 -26 -69.501 -26
c-26.667 0 -49 8.66699 -67 26s-27 39.333 -27 66zM554 1507c0 28.667 8.66699 52.167 26 70.5s39.333 27.5 66 27.5c28.667 0 52.167 -9.16699 70.5 -27.5s27.5 -41.833 27.5 -70.5c0 -26.667 -9.16699 -48.667 -27.5 -66s-41.833 -26 -70.5 -26
c-26.667 0 -48.667 8.66699 -66 26s-26 39.333 -26 66z" />
    <glyph glyph-name="Zcaron" unicode="&#x17d;" horiz-adv-x="925" 
d="M369 1361l-233 235h217l92 -153l88 153h217l-231 -235h-150zM916 1278l-438 -1024h414v-254h-875l437 1024h-413l1 254h874z" />
    <glyph glyph-name="zcaron" unicode="&#x17e;" horiz-adv-x="771" 
d="M329 1041l-233 235h217l92 -153l88 153h217l-231 -235h-150zM763 928l-348 -680h315v-248h-737l346 680h-322v248h746z" />
    <glyph glyph-name="florin" unicode="&#x192;" horiz-adv-x="637" 
d="M155 720l-143.999 0.00488281v209h144v85c0 54.667 7.16699 99.167 21.5 133.5s32.833 61.166 55.5 80.499s47.667 32.5 75 39.5s53.666 10.5 78.999 10.5h209v-184h-79c-14 0 -27.167 -1.16699 -39.5 -3.5s-23 -7.33301 -32 -15s-16.167 -18.834 -21.5 -33.501
s-8 -34.334 -8 -59.001v-54h133v-209h-135v-802c0 -54 -4.66699 -99.333 -14 -136s-23.333 -66.167 -42 -88.5s-41.834 -38.333 -69.501 -48s-59.5 -14.5 -95.5 -14.5h-195v218h69c20.667 0 36.834 4 48.501 12s20.5 19.167 26.5 33.5s9.83301 31.666 11.5 51.999
s2.5 43.166 2.5 68.499v705z" />
    <glyph glyph-name="circumflex" unicode="&#x2c6;" horiz-adv-x="704" 
d="M441 1430l187 -203h-191l-70 162l-90 -162h-192l207 203h149z" />
    <glyph glyph-name="tilde" unicode="&#x2dc;" horiz-adv-x="559" 
d="M75 1356c7.33301 7.33301 15.835 17.0029 25.502 29.0029s20.334 23.667 32.001 35s24.5 21.166 38.5 29.499s29 12.5 45 12.5c21.333 0 39.833 -5.5 55.5 -16.5s29.667 -23.167 42 -36.5s24.166 -25.5 35.499 -36.5s23.666 -16.5 36.999 -16.5
c16 0 30.667 3.83301 44 11.5s25.666 16.5 36.999 26.5s21.5 20.167 30.5 30.5s16.833 18.166 23.5 23.499v-133l-22.5 -31.5c-8.33301 -11.667 -17.833 -22.5 -28.5 -32.5s-22.5 -18.5 -35.5 -25.5s-27.833 -10.5 -44.5 -10.5c-20.667 0 -37.167 5.33301 -49.5 16
s-24 22.5 -35 35.5s-23.167 25 -36.5 36s-31 16.5 -53 16.5c-17.333 0 -33.333 -4.33301 -48 -13s-27.667 -18.5 -39 -29.5s-21.5 -21.833 -30.5 -32.5s-16.833 -18.334 -23.5 -23.001v135z" />
    <glyph glyph-name="sheva" unicode="&#x5b0;" 
d="M1 -140c11.333 0 22.166 -2.16699 32.499 -6.5s19.333 -10.333 27 -18s13.667 -16.5 18 -26.5s6.5 -21 6.5 -33c0 -24.667 -8.16699 -44.834 -24.5 -60.501s-36.166 -23.5 -59.499 -23.5c-24.667 0 -45.167 7.83301 -61.5 23.5s-24.5 35.834 -24.5 60.501
c0 10 1.83301 20 5.5 30s9 19 16 27s16 14.5 27 19.5s23.5 7.5 37.5 7.5zM1 -392c11.333 0 22.166 -2.16797 32.499 -6.50098s19.333 -10.333 27 -18s13.667 -16.5 18 -26.5s6.5 -21 6.5 -33c0 -24.667 -8.16699 -44.834 -24.5 -60.501s-36.166 -23.5 -59.499 -23.5
c-24.667 0 -45.167 7.83301 -61.5 23.5s-24.5 35.834 -24.5 60.501s8.16699 44.834 24.5 60.501s36.833 23.5 61.5 23.5z" />
    <glyph glyph-name="hatafsegol" unicode="&#x5b1;" 
d="M-267 -140c23.333 0 43.165 -8.16797 59.498 -24.501s24.5 -36.166 24.5 -59.499c0 -24.667 -8.16699 -44.834 -24.5 -60.501s-36.166 -23.5 -59.499 -23.5s-43.166 7.83301 -59.499 23.5s-24.5 35.834 -24.5 60.501c0 10 1.83301 20 5.5 30s9 19 16 27
s15.667 14.5 26 19.5s22.5 7.5 36.5 7.5zM-1.00098 -140.001c22 0 41.501 -7.00098 58.501 -21.001s25.5 -35 25.5 -63c0 -24.667 -7.66699 -44.834 -23 -60.501s-35.666 -23.5 -60.999 -23.5c-22.667 0 -42.334 7.83301 -59.001 23.5s-25 35.834 -25 60.501
s8.16699 44.834 24.5 60.501s36.166 23.5 59.499 23.5zM267 -140.002c14 0 26.1641 -2.49902 36.4971 -7.49902s19 -11.5 26 -19.5s12.333 -17 16 -27s5.5 -20 5.5 -30c0 -24.667 -8.16699 -44.834 -24.5 -60.501s-36.166 -23.5 -59.499 -23.5s-43.166 8.16699 -59.499 24.5
s-24.5 36.166 -24.5 59.499c0 24.667 7.83301 44.834 23.5 60.501s35.834 23.5 60.501 23.5zM-136.003 -362.001c22 0 41.502 -7.00098 58.502 -21.001s25.5 -35 25.5 -63c0 -23.333 -7.83301 -43.166 -23.5 -59.499s-35.834 -24.5 -60.501 -24.5c-10.667 0 -21 2 -31 6
s-19 9.83301 -27 17.5s-14.333 16.667 -19 27s-7 21.5 -7 33.5c0 10 2 20 6 30s9.5 19 16.5 27s15.667 14.5 26 19.5s22.166 7.5 35.499 7.5zM266.999 -392.002c21.333 0 40.665 -7.33008 57.998 -21.9971s26 -35.334 26 -62.001c0 -24.667 -8.16699 -44.834 -24.5 -60.501
s-36.166 -23.5 -59.499 -23.5c-9.33301 0 -19 1.83301 -29 5.5s-19 9.16699 -27 16.5s-14.667 16.166 -20 26.499s-8 22.166 -8 35.499c0 24.667 7.83301 44.834 23.5 60.501s35.834 23.5 60.501 23.5z" />
    <glyph glyph-name="hatafpatah" unicode="&#x5b2;" 
d="M-332 -260v116h376v-116h-376zM267 -134c14 0 26.1641 -2.49902 36.4971 -7.49902s19 -11.5 26 -19.5s12.333 -17 16 -27s5.5 -20 5.5 -30c0 -24.667 -8.16699 -44.834 -24.5 -60.501s-36.166 -23.5 -59.499 -23.5s-43.166 8.16699 -59.499 24.5
s-24.5 36.166 -24.5 59.499c0 24.667 7.83301 44.834 23.5 60.501s35.834 23.5 60.501 23.5zM266.997 -381.999c21.333 0 40.665 -7.33008 57.998 -21.9971s26 -35.334 26 -62.001c0 -24.667 -8.16699 -44.834 -24.5 -60.501s-36.166 -23.5 -59.499 -23.5
c-9.33301 0 -19 1.83301 -29 5.5s-19 9.16699 -27 16.5s-14.667 16.166 -20 26.499s-8 22.166 -8 35.499c0 24.667 7.83301 44.834 23.5 60.501s35.834 23.5 60.501 23.5z" />
    <glyph glyph-name="hatafqamats" unicode="&#x5b3;" 
d="M-229 -465v204h-153v118h436v-118h-146v-204h-137zM267 -130c14 0 26.1641 -2.49902 36.4971 -7.49902s19 -11.5 26 -19.5s12.333 -17 16 -27s5.5 -20 5.5 -30c0 -24.667 -8.16699 -44.834 -24.5 -60.501s-36.166 -23.5 -59.499 -23.5s-43.166 8.16699 -59.499 24.5
s-24.5 36.166 -24.5 59.499c0 24.667 7.83301 44.834 23.5 60.501s35.834 23.5 60.501 23.5zM266.997 -381.999c21.333 0 40.665 -7.33008 57.998 -21.9971s26 -35.334 26 -62.001c0 -24.667 -8.16699 -44.834 -24.5 -60.501s-36.166 -23.5 -59.499 -23.5
c-9.33301 0 -19 1.83301 -29 5.5s-19 9.16699 -27 16.5s-14.667 16.166 -20 26.499s-8 22.166 -8 35.499c0 24.667 7.83301 44.834 23.5 60.501s35.834 23.5 60.501 23.5z" />
    <glyph glyph-name="hiriq" unicode="&#x5b4;" 
d="M1 -140c12.667 0 24.834 -2.49805 36.501 -7.49805s21.834 -11.667 30.501 -20s15.5 -18.333 20.5 -30s7.5 -24.167 7.5 -37.5c0 -14 -2.5 -26.667 -7.5 -38s-11.833 -21.333 -20.5 -30s-18.834 -15.334 -30.501 -20.001s-23.834 -7 -36.501 -7
c-28 0 -51.167 8.83301 -69.5 26.5s-27.5 40.5 -27.5 68.5c0 11.333 2 22.666 6 33.999s10.167 21.5 18.5 30.5s18.5 16.333 30.5 22s26 8.5 42 8.5z" />
    <glyph glyph-name="tsere" unicode="&#x5b5;" 
d="M-133 -132c23.333 0 43.165 -8.16797 59.498 -24.501s24.5 -36.166 24.5 -59.499c0 -24.667 -8.16699 -44.834 -24.5 -60.501s-36.166 -23.5 -59.499 -23.5s-43.166 7.83301 -59.499 23.5s-24.5 35.834 -24.5 60.501c0 10 1.83301 20 5.5 30s9 19 16 27
s15.667 14.5 26 19.5s22.5 7.5 36.5 7.5zM132.999 -132.001c22 0 41.501 -7.00098 58.501 -21.001s25.5 -35 25.5 -63c0 -24.667 -7.66699 -44.834 -23 -60.501s-35.666 -23.5 -60.999 -23.5c-22.667 0 -42.334 7.83301 -59.001 23.5s-25 35.834 -25 60.501
s8.16699 44.834 24.5 60.501s36.166 23.5 59.499 23.5z" />
    <glyph glyph-name="segol" unicode="&#x5b6;" 
d="M-133 -132c23.333 0 43.165 -8.16797 59.498 -24.501s24.5 -36.166 24.5 -59.499c0 -24.667 -8.16699 -44.834 -24.5 -60.501s-36.166 -23.5 -59.499 -23.5s-43.166 7.83301 -59.499 23.5s-24.5 35.834 -24.5 60.501c0 10 1.83301 20 5.5 30s9 19 16 27
s15.667 14.5 26 19.5s22.5 7.5 36.5 7.5zM132.999 -132.001c22 0 41.501 -7.00098 58.501 -21.001s25.5 -35 25.5 -63c0 -24.667 -7.66699 -44.834 -23 -60.501s-35.666 -23.5 -60.999 -23.5c-22.667 0 -42.334 7.83301 -59.001 23.5s-25 35.834 -25 60.501
s8.16699 44.834 24.5 60.501s36.166 23.5 59.499 23.5zM-2 -342.002c22 0 41.502 -7.00098 58.502 -21.001s25.5 -35 25.5 -63c0 -23.333 -7.83301 -43.166 -23.5 -59.499s-35.834 -24.5 -60.501 -24.5c-10.667 0 -21 2 -31 6s-19 9.83301 -27 17.5s-14.333 16.667 -19 27
s-7 21.5 -7 33.5c0 10 2 20 6 30s9.5 19 16.5 27s15.667 14.5 26 19.5s22.166 7.5 35.499 7.5z" />
    <glyph glyph-name="patah" unicode="&#x5b7;" 
d="M391 -262v118h404v-118h-404z" />
    <glyph glyph-name="qamats" unicode="&#x5b8;" 
d="M-68 -481v220h-174v117h484v-117h-172v-220h-138z" />
    <glyph glyph-name="holam" unicode="&#x5b9;" 
d="M1 1393c12 0 24.334 -2.50098 37.001 -7.50098s24.167 -12.167 34.5 -21.5s18.833 -20.5 25.5 -33.5s10 -27.833 10 -44.5c0 -15.333 -2.83301 -29.5 -8.5 -42.5s-13.334 -24.167 -23.001 -33.5s-21 -16.833 -34 -22.5s-26.833 -8.5 -41.5 -8.5s-28.667 2.83301 -42 8.5
s-25 13.167 -35 22.5s-17.833 20.5 -23.5 33.5s-8.5 27.167 -8.5 42.5c0 14.667 2.83301 28.5 8.5 41.5s13.334 24.333 23.001 34s21.167 17.334 34.5 23.001s27.666 8.5 42.999 8.5z" />
    <glyph glyph-name="qubuts" unicode="&#x5bb;" 
d="M-181 -120c22 0 41.501 -7.83203 58.501 -23.499s25.5 -35.834 25.5 -60.501s-7.83301 -44.834 -23.5 -60.501s-35.834 -23.5 -60.501 -23.5c-23.333 0 -43.166 7.83301 -59.499 23.5s-24.5 35.834 -24.5 60.501c0 9.33301 2 19 6 29s9.66699 19 17 27
s16.166 14.667 26.499 20s21.833 8 34.5 8zM1.00098 -248.999c11.333 0 22.166 -2.16797 32.499 -6.50098s19.333 -10.333 27 -18s13.667 -16.5 18 -26.5s6.5 -21 6.5 -33c0 -24.667 -8.16699 -44.834 -24.5 -60.501s-36.166 -23.5 -59.499 -23.5
c-24.667 0 -45.167 7.83301 -61.5 23.5s-24.5 35.834 -24.5 60.501s8.16699 44.834 24.5 60.501s36.833 23.5 61.5 23.5zM181.001 -372c12 0 23.002 -2.16797 33.002 -6.50098s18.833 -10.333 26.5 -18s13.667 -16.667 18 -27s6.5 -21.166 6.5 -32.499
s-2.16699 -22.166 -6.5 -32.499s-10.333 -19.5 -18 -27.5s-16.5 -14.333 -26.5 -19s-21 -7 -33 -7c-24.667 0 -44.834 8.5 -60.501 25.5s-23.5 37.167 -23.5 60.5s8.16699 43.166 24.5 59.499s36.166 24.5 59.499 24.5z" />
    <glyph glyph-name="dagesh" unicode="&#x5bc;" 
d="M0 662c10 0 19.998 -1.83691 29.998 -5.50391s19 -9.16699 27 -16.5s14.5 -16.166 19.5 -26.499s7.5 -22.166 7.5 -35.499c0 -23.333 -8.16699 -43.166 -24.5 -59.499s-36.166 -24.5 -59.499 -24.5s-43.166 7.83301 -59.499 23.5s-24.5 35.834 -24.5 60.501
c0 10 1.83301 20 5.5 30s9 19 16 27s15.667 14.5 26 19.5s22.5 7.5 36.5 7.5z" />
    <glyph glyph-name="meteg" unicode="&#x5bd;" 
d="M-52 -81h104v-349h-104v349z" />
    <glyph glyph-name="maqaf" unicode="&#x5be;" horiz-adv-x="569" 
d="M49 1061h471v-274h-471v274z" />
    <glyph glyph-name="paseq" unicode="&#x5c0;" 
d="M-97 0v1277h195v-1277h-195z" />
    <glyph glyph-name="shindot" unicode="&#x5c1;" 
d="M1 1393c12 0 24.334 -2.50098 37.001 -7.50098s24.167 -12.167 34.5 -21.5s18.833 -20.5 25.5 -33.5s10 -27.833 10 -44.5c0 -15.333 -2.83301 -29.5 -8.5 -42.5s-13.334 -24.167 -23.001 -33.5s-21 -16.833 -34 -22.5s-26.833 -8.5 -41.5 -8.5s-28.667 2.83301 -42 8.5
s-25 13.167 -35 22.5s-17.833 20.5 -23.5 33.5s-8.5 27.167 -8.5 42.5c0 14.667 2.83301 28.5 8.5 41.5s13.334 24.333 23.001 34s21.167 17.334 34.5 23.001s27.666 8.5 42.999 8.5z" />
    <glyph glyph-name="sindot" unicode="&#x5c2;" 
d="M1 1393c12 0 24.334 -2.50098 37.001 -7.50098s24.167 -12.167 34.5 -21.5s18.833 -20.5 25.5 -33.5s10 -27.833 10 -44.5c0 -15.333 -2.83301 -29.5 -8.5 -42.5s-13.334 -24.167 -23.001 -33.5s-21 -16.833 -34 -22.5s-26.833 -8.5 -41.5 -8.5s-28.667 2.83301 -42 8.5
s-25 13.167 -35 22.5s-17.833 20.5 -23.5 33.5s-8.5 27.167 -8.5 42.5c0 14.667 2.83301 28.5 8.5 41.5s13.334 24.333 23.001 34s21.167 17.334 34.5 23.001s27.666 8.5 42.999 8.5z" />
    <glyph glyph-name="alef" unicode="&#x5d0;" horiz-adv-x="1237" 
d="M763 0l-298.999 530.004c-6 -0.666992 -12.5 -1.83398 -19.5 -3.50098s-13.5 -5.33398 -19.5 -11.001s-11 -13.667 -15 -24s-6 -24.5 -6 -42.5v-449h-331v383c0 42 4.66699 82.167 14 120.5s24.833 72.666 46.5 102.999s49.834 55.833 84.501 76.5s77 34 127 40l-221 338
h354l272 -464c12 0.666992 22.5 2.16699 31.5 4.5s16.667 7.16602 23 14.499s11.166 18 14.499 32s5 33 5 57v356h340v-332c0 -52 -6.5 -96.833 -19.5 -134.5s-32 -69.167 -57 -94.5s-55.333 -45.333 -91 -60s-75.834 -24.667 -120.501 -30l258 -410h-371z" />
    <glyph glyph-name="bet" unicode="&#x5d1;" horiz-adv-x="1001" 
d="M959 274v-274h-884l-2 274h405v510h-401v277h755v-787h127v0z" />
    <glyph glyph-name="gimel" unicode="&#x5d2;" horiz-adv-x="782" 
d="M402 279c-2 -46 -10.833 -86.5 -26.5 -121.5s-36.334 -64.167 -62.001 -87.5s-55.5 -40.833 -89.5 -52.5s-70.333 -17.5 -109 -17.5h-73v322h127c46.667 0 82.834 6.16699 108.501 18.5s44 30.333 55 54s16 52.334 15 86.001s-5.16699 71.5 -12.5 113.5
c-4 21.333 -7.83301 43.166 -11.5 65.499l-10.5 61.5c-3.33301 22 -7 43 -11 63h-180v277h496l149 -1061h-298l-52 279h-15z" />
    <glyph glyph-name="dalet" unicode="&#x5d3;" horiz-adv-x="971" 
d="M441 0v784h-391v277h860v-277h-109v-784h-360v0z" />
    <glyph glyph-name="he" unicode="&#x5d4;" horiz-adv-x="1124" 
d="M108 0v582h344v-582h-344zM106 1061h909v-1061h-357v784h-552v277z" />
    <glyph glyph-name="vav" unicode="&#x5d5;" horiz-adv-x="587" 
d="M112 1061h364v-1061h-364v1061v0z" />
    <glyph glyph-name="zayin" unicode="&#x5d6;" horiz-adv-x="788" 
d="M271 0l-30.999 134.001c-4 18.667 -8.33301 37.834 -13 57.501l-13.5 57.5l-12 53c-3.66699 16.667 -6.83398 31.667 -9.50098 45c-10 47.333 -17.5 92.333 -22.5 135s-4.5 82.5 1.5 119.5s19.5 70.833 40.5 101.5s52.5 57.667 94.5 81h-258v277h678v-277h-174
c-23.333 -27.333 -38.5 -56.833 -45.5 -88.5s-9.5 -63.834 -7.5 -96.501s7 -65.334 15 -98.001l22 -93l13.5 -56c5 -20.667 10.5 -42.167 16.5 -64.5l18 -67.5l18 -66l42 -154h-373v0z" />
    <glyph glyph-name="het" unicode="&#x5d7;" horiz-adv-x="1184" 
d="M716 1061c72.667 0 132.833 -9.16699 180.5 -27.5s85.5 -45.333 113.5 -81s47.667 -79.667 59 -132s17 -112.166 17 -179.499v-641h-360v573c0 39.333 -2 72.666 -6 99.999s-12 49.5 -24 66.5s-29.167 29.167 -51.5 36.5s-51.833 11 -88.5 11h-90v-787h-355l-2 1061h607z
" />
    <glyph glyph-name="tet" unicode="&#x5d8;" horiz-adv-x="1169" 
d="M1080 1061v-528.999c0 -102.667 -11.5 -188.167 -34.5 -256.5s-55.833 -122.833 -98.5 -163.5s-94.167 -69.5 -154.5 -86.5s-127.5 -25.5 -201.5 -25.5h-412l-121 1061h342l94 -791h46c30 0 57.667 2.33301 83 7s47 15.167 65 31.5s32.167 40.166 42.5 71.499
s15.5 74 15.5 128v276h-174v277h508z" />
    <glyph glyph-name="yod" unicode="&#x5d9;" horiz-adv-x="580" 
d="M107 1061h366v-629h-366v629v0z" />
    <glyph glyph-name="finalkaf" unicode="&#x5da;" horiz-adv-x="861" 
d="M763 1061v-1321h-356v1044h-385v277h741v0z" />
    <glyph glyph-name="kaf" unicode="&#x5db;" horiz-adv-x="954" 
d="M466 1061c143.333 0 249.164 -34.832 317.497 -104.499s102.5 -176.834 102.5 -321.501v-211c0 -143.333 -35.5 -249.833 -106.5 -319.5s-175.5 -104.5 -313.5 -104.5h-377v275h231c34.667 0 64.667 0.333008 90 1s46.333 6.66699 63 18s28.834 30.5 36.501 57.5
s11.5 66.833 11.5 119.5v119c0 52 -3.83301 91.5 -11.5 118.5s-19.667 46 -36 57s-37.166 16.833 -62.499 17.5s-55.666 1 -90.999 1h-233v277h379z" />
    <glyph glyph-name="lamed" unicode="&#x5dc;" horiz-adv-x="946" 
d="M943 1061l-334 -1061h-368l247 784h-452v494h338v-217h569z" />
    <glyph glyph-name="finalmem" unicode="&#x5dd;" horiz-adv-x="1154" 
d="M1059 0l-948 -0.00195312v1061h598c67.333 0 123.5 -8.33301 168.5 -25s81 -41.667 108 -75s46 -75.166 57 -125.499s16.5 -109.166 16.5 -176.499v-659zM727 613.998c0 36.667 -2.16699 66.332 -6.5 88.999s-12 40.334 -23 53.001s-26.167 21.167 -45.5 25.5
s-44 6.5 -74 6.5h-133v-520h282v346z" />
    <glyph glyph-name="mem" unicode="&#x5de;" horiz-adv-x="1184" 
d="M591 274h188.001v307c0 40 -3.66699 73.167 -11 99.5s-17.833 47.333 -31.5 63s-30.334 26.667 -50.001 33s-41.5 9.5 -65.5 9.5h-86l-181 -786h-321l207 784h-142v277h585c80 0 146.833 -10.667 200.5 -32s97 -53.5 130 -96.5s56.5 -96.667 70.5 -161
s21 -139.833 21 -226.5v-545h-514v274z" />
    <glyph glyph-name="finalnun" unicode="&#x5df;" horiz-adv-x="622" 
d="M132 1061h365v-1321h-365v1321v0z" />
    <glyph glyph-name="nun" unicode="&#x5e0;" horiz-adv-x="721" 
d="M187 276c18 0 32.8291 1.66895 44.4961 5.00195s20.834 9.16602 27.501 17.499s11.334 19.666 14.001 33.999s4 32.5 4 54.5v397h-145v277h504v-756c0 -56.667 -6 -104.5 -18 -143.5s-29.667 -70.5 -53 -94.5s-52.166 -41.167 -86.499 -51.5
s-74.166 -15.5 -119.499 -15.5h-314v276h142z" />
    <glyph glyph-name="samekh" unicode="&#x5e1;" horiz-adv-x="1128" 
d="M1052 1061v-520c0 -103.333 -12 -189.5 -36 -258.5s-57.833 -124.5 -101.5 -166.5s-96.167 -71.833 -157.5 -89.5s-129 -26.5 -203 -26.5h-356l-138 1061h992zM732 790h-305l59 -524h74c30 0 55.833 2.83301 77.5 8.5s39.5 17.834 53.5 36.501s24.333 45.167 31 79.5
s10 80.166 10 137.499v262z" />
    <glyph glyph-name="ayin" unicode="&#x5e2;" horiz-adv-x="1128" 
d="M1047 1061l0.000976562 -477.001c0 -74 -5.16699 -140 -15.5 -198s-29 -109 -56 -153s-63.833 -81.5 -110.5 -112.5s-106 -56.167 -178 -75.5l-94.5 -25.5l-99.5 -26.5l-98.5 -25.5l-92.5 -23.5l-205 -52l-74 278l220 57l-183 834h357l129 -764
c24.667 5.33301 46.167 11.5 64.5 18.5s33.166 16.5 44.499 28.5s19.833 27.833 25.5 47.5s8.5 44.834 8.5 75.501v594h358z" />
    <glyph glyph-name="finalpe" unicode="&#x5e3;" horiz-adv-x="1108" 
d="M1023 -260h-367v852c0 30.667 -1 57.667 -3 81s-6.5 43 -13.5 59s-17.333 28 -31 36s-32.5 12 -56.5 12h-117v-356h-334v637h533c74 0 136 -8 186 -24s90 -40.833 120 -74.5s51.333 -76.667 64 -129s19 -114.5 19 -186.5v-907z" />
    <glyph glyph-name="pe" unicode="&#x5e4;" horiz-adv-x="1102" 
d="M597 1061c143.333 0 249.165 -34.833 317.498 -104.5s102.5 -176.834 102.5 -321.501v-211c0 -143.333 -35.5 -249.833 -106.5 -319.5s-175.5 -104.5 -313.5 -104.5h-475v275h344c34.667 0 66.334 0.333008 95.001 1s53.334 6.66699 74.001 18s36.667 30.5 48 57.5
s17 66.833 17 119.5v127c0 52 -4.16699 91.333 -12.5 118s-21.333 45.334 -39 56.001s-40.5 16.167 -68.5 16.5s-61.333 0.5 -100 0.5h-61v-302h-299v574h477z" />
    <glyph glyph-name="finaltsadi" unicode="&#x5e5;" horiz-adv-x="1024" 
d="M613 1061l340.001 0.000976562v-283c0 -73.333 -8.66699 -135.833 -26 -187.5s-43.5 -94.334 -78.5 -128.001s-78.5 -59.667 -130.5 -78s-113 -30.5 -183 -36.5l134 -608h-351l-282 1321h331l114 -458c32.667 0 58 4 76 12s31.167 20 39.5 36s13.166 36.167 14.499 60.5
s2 53.5 2 87.5v262z" />
    <glyph glyph-name="tsadi" unicode="&#x5e6;" horiz-adv-x="1148" 
d="M1081 754c0 -50.667 -3.3291 -95.501 -9.99609 -134.501s-19.834 -72.5 -39.501 -100.5s-47.834 -50.667 -84.501 -68s-85 -29.666 -145 -36.999l292 -414h-986v274h463l-590 787h395l294 -419c17.333 -1.33301 30.666 0.166992 39.999 4.5s16.166 10.5 20.499 18.5
s6.83301 17.5 7.5 28.5s1 23.167 1 36.5v331h342v-307z" />
    <glyph glyph-name="qof" unicode="&#x5e7;" horiz-adv-x="1206" 
d="M1109 1061l0.000976562 -549.999c0 -103.333 -9 -188 -27 -254s-45.667 -118 -83 -156s-84.833 -64.333 -142.5 -79s-125.834 -22 -204.501 -22h-65v267h16c36.667 0 65 4 85 12s34.833 21.167 44.5 39.5s15.5 42.666 17.5 72.999s3 67.833 3 112.5v280h-654v277h1010z
M111.001 613.001h332v-873h-332v873z" />
    <glyph glyph-name="resh" unicode="&#x5e8;" horiz-adv-x="921" 
d="M456 1061c72 0 131.167 -10.832 177.5 -32.499s83 -52.167 110 -91.5s45.833 -87 56.5 -143s16 -118 16 -186v-608h-365l3 532c0 39.333 -2 74.666 -6 105.999s-12.167 57.833 -24.5 79.5s-29.833 38.167 -52.5 49.5s-52.667 17 -90 17h-225v277h400z" />
    <glyph glyph-name="shin" unicode="&#x5e9;" horiz-adv-x="1493" 
d="M1390 1061l0.000976562 -526c0 -92 -11.167 -171.5 -33.5 -238.5s-55.333 -122.5 -99 -166.5s-97.5 -76.667 -161.5 -98s-138 -32 -222 -32h-709l-98 1061h339l72 -792h298c42.667 0 81.667 2 117 6s65.666 14 90.999 30s44.833 40.333 58.5 73s20.5 78 20.5 136v547h327
zM911.001 442h-310v619h310v-619z" />
    <glyph glyph-name="tav" unicode="&#x5ea;" horiz-adv-x="1202" 
d="M741 1061c72 0 131.833 -10.834 179.5 -32.501s85.5 -52.167 113.5 -91.5s47.667 -86.666 59 -141.999s17 -116.666 17 -183.999v-611h-350l2 591c0 32 -1.33301 60.167 -4 84.5s-9 44.666 -19 60.999s-24.833 28.833 -44.5 37.5s-46.5 13 -80.5 13h-94v-787h-469v276
h172v508h-110v277h628z" />
    <glyph glyph-name="uni2000" unicode="&#x2000;" horiz-adv-x="868" 
 />
    <glyph glyph-name="uni2001" unicode="&#x2001;" horiz-adv-x="1736" 
 />
    <glyph glyph-name="uni2002" unicode="&#x2002;" horiz-adv-x="868" 
 />
    <glyph glyph-name="uni2003" unicode="&#x2003;" horiz-adv-x="1736" 
 />
    <glyph glyph-name="uni2004" unicode="&#x2004;" horiz-adv-x="578" 
 />
    <glyph glyph-name="uni2005" unicode="&#x2005;" horiz-adv-x="434" 
 />
    <glyph glyph-name="uni2006" unicode="&#x2006;" horiz-adv-x="289" 
 />
    <glyph glyph-name="uni2007" unicode="&#x2007;" horiz-adv-x="289" 
 />
    <glyph glyph-name="uni2008" unicode="&#x2008;" horiz-adv-x="217" 
 />
    <glyph glyph-name="uni2009" unicode="&#x2009;" horiz-adv-x="347" 
 />
    <glyph glyph-name="uni200A" unicode="&#x200a;" horiz-adv-x="96" 
 />
    <glyph glyph-name="uni2010" unicode="&#x2010;" horiz-adv-x="760" 
d="M83 660h586v-268h-586v268z" />
    <glyph glyph-name="uni2011" unicode="&#x2011;" horiz-adv-x="760" 
d="M83 660h586v-268h-586v268z" />
    <glyph glyph-name="figuredash" unicode="&#x2012;" horiz-adv-x="760" 
d="M83 660h586v-268h-586v268z" />
    <glyph glyph-name="endash" unicode="&#x2013;" horiz-adv-x="1104" 
d="M41 629h1032v-202h-1032v202z" />
    <glyph glyph-name="emdash" unicode="&#x2014;" horiz-adv-x="2173" 
d="M67 611h2064v-165h-2064v165z" />
    <glyph glyph-name="quoteleft" unicode="&#x2018;" horiz-adv-x="413" 
d="M70 698l58 537h247v-171l-168 -366h-137v0z" />
    <glyph glyph-name="quoteright" unicode="&#x2019;" horiz-adv-x="422" 
d="M70 698l58 537h247v-171l-168 -366h-137v0z" />
    <glyph glyph-name="quotesinglbase" unicode="&#x201a;" horiz-adv-x="440" 
d="M70 698l58 537h247v-171l-168 -366h-137v0z" />
    <glyph glyph-name="quotedblleft" unicode="&#x201c;" horiz-adv-x="661" 
d="M102 1235h220v-169l-149 -362h-122zM394 1233h220v-169l-150 -361h-122z" />
    <glyph glyph-name="quotedblright" unicode="&#x201d;" horiz-adv-x="659" 
d="M102 1235h220v-169l-149 -362h-122zM394 1233h220v-169l-150 -361h-122z" />
    <glyph glyph-name="quotedblbase" unicode="&#x201e;" horiz-adv-x="659" 
d="M102 1235h220v-169l-149 -362h-122zM394 1233h220v-169l-150 -361h-122z" />
    <glyph glyph-name="dagger" unicode="&#x2020;" horiz-adv-x="778" 
d="M-28 752h862l-213 -371.5l-219 -378.5zM511 551h-203l103 -180z" />
    <glyph glyph-name="daggerdbl" unicode="&#x2021;" horiz-adv-x="821" 
d="M845 231h-863l433 750zM306 432h203l-103 180z" />
    <glyph glyph-name="bullet" unicode="&#x2022;" horiz-adv-x="669" 
d="M103 534c0 31.333 5.83301 60.666 17.5 87.999s27.834 51.166 48.501 71.499s44.667 36.333 72 48s56.666 17.5 87.999 17.5s60.666 -5.83301 87.999 -17.5s51.166 -27.667 71.499 -48s36.333 -44.166 48 -71.499s17.5 -56.666 17.5 -87.999
s-5.83301 -60.666 -17.5 -87.999s-27.667 -51.166 -48 -71.499s-44.166 -36.333 -71.499 -48s-56.666 -17.5 -87.999 -17.5s-60.666 5.83301 -87.999 17.5s-51.333 27.667 -72 48s-36.834 44.166 -48.501 71.499s-17.5 56.666 -17.5 87.999z" />
    <glyph glyph-name="ellipsis" unicode="&#x2026;" horiz-adv-x="1906" 
d="M193 0v332h374v-332h-374zM763 0v332h374v-332h-374zM1357 0v332h374v-332h-374z" />
    <glyph glyph-name="uni202F" unicode="&#x202f;" horiz-adv-x="347" 
 />
    <glyph glyph-name="perthousand" unicode="&#x2030;" horiz-adv-x="1432" 
d="M230 0h-131l647 1061h129zM261 1072c68.667 0 121 -18.833 157 -56.5s54 -92.167 54 -163.5v-116c0 -72.667 -18 -127.667 -54 -165s-88.333 -56 -157 -56c-67.333 0 -119 19 -155 57s-54 92.667 -54 164v116c0 72.667 18 127.5 54 164.5s87.667 55.5 155 55.5zM261 633
c16.667 0 29.834 6.5 39.501 19.5s14.5 29.167 14.5 48.5v188c0 19.333 -5.33301 34.666 -16 45.999s-23.667 17 -39 17c-14.667 0 -26.834 -5.66699 -36.501 -17s-14.5 -26.666 -14.5 -45.999v-188c0 -18.667 4.83301 -34.667 14.5 -48s22.167 -20 37.5 -20zM741 548
c68 0 120 -18.999 156 -56.999s54 -92.333 54 -163v-117c0 -72.667 -18 -127.834 -54 -165.501s-88 -56.5 -156 -56.5s-120 19 -156 57s-54 93 -54 165v117c0 72 18 126.667 54 164s88 56 156 56zM741 107.001c16 0 28.835 6.5 38.502 19.5s14.5 29.167 14.5 48.5v189
c0 19.333 -5.33301 34.666 -16 45.999s-23.334 17 -38.001 17s-26.834 -5.66699 -36.501 -17s-14.5 -26.666 -14.5 -45.999v-189c0 -18 4.66699 -33.833 14 -47.5s22 -20.5 38 -20.5zM1187 548.001c68.667 0 121 -18.999 157 -56.999s54 -92.667 54 -164v-116
c0 -72.667 -18 -127.834 -54 -165.501s-88.333 -56.5 -157 -56.5c-67.333 0 -119 19 -155 57s-54 93 -54 165v116c0 72.667 18 127.667 54 165s87.667 56 155 56zM1187 107.002c16.667 0 29.834 6.5 39.501 19.5s14.5 29.167 14.5 48.5v189
c0 19.333 -5.33301 34.666 -16 45.999s-23.667 17 -39 17c-14.667 0 -26.834 -5.66699 -36.501 -17s-14.5 -26.666 -14.5 -45.999v-189c0 -18 4.83301 -33.833 14.5 -47.5s22.167 -20.5 37.5 -20.5z" />
    <glyph glyph-name="guilsinglleft" unicode="&#x2039;" horiz-adv-x="907" 
d="M28 619l777 385v-307l-456 -166l456 -162v-304l-777 385v169z" />
    <glyph glyph-name="guilsinglright" unicode="&#x203a;" horiz-adv-x="941" 
d="M866 450l-777 -385v304l456 162l-456 166v307l777 -385v-169z" />
    <glyph glyph-name="uni205F" unicode="&#x205f;" horiz-adv-x="434" 
 />
    <glyph glyph-name="newsheqelsign" unicode="&#x20aa;" horiz-adv-x="1839" 
d="M1294 375l-309.001 -0.000976562v296c0 24 -1.16699 43.833 -3.5 59.5s-7.16602 28.334 -14.499 38.001s-18 16.667 -32 21s-33 6.83301 -57 7.5h-443v-797h-303v1061h880c40.667 0 78.167 -6.66699 112.5 -20s64 -32.166 89 -56.499s44.667 -53.833 59 -88.5
s21.5 -73.334 21.5 -116.001v-405zM568.999 -0.000976562l0.000976562 686.001h290v-425h429c26 0.666992 47.333 4 64 10s29.667 15.333 39 28s15.833 28.667 19.5 48s5.5 42.666 5.5 69.999v644h292v-760c0 -46 -8 -87.667 -24 -125s-38.167 -69 -66.5 -95
s-62.333 -46 -102 -60s-82.834 -21 -129.501 -21h-817z" />
    <glyph glyph-name="Euro" unicode="&#x20ac;" horiz-adv-x="899" 
d="M-30 600l131.002 -0.000976562v92h-131v139h131v105c0 60 10.833 112 32.5 156s51 80.333 88 109s80.5 50 130.5 64s103 21 159 21c68.667 0 127.667 -8.83301 177 -26.5s89.666 -41.834 120.999 -72.501s54.333 -66.167 69 -106.5s22 -83.5 22 -129.5h-246
c-6 48.667 -19.5 84.5 -40.5 107.5s-55.167 34.5 -102.5 34.5c-13.333 0 -28 -2 -44 -6s-30.833 -12.167 -44.5 -24.5s-25.167 -29.833 -34.5 -52.5s-14 -52.667 -14 -90v-89h143v-139h-143v-92h143v-139h-143v-90c0 -34 3.5 -63 10.5 -87s16.5 -43.667 28.5 -59
s26.333 -26.5 43 -33.5s35 -10.5 55 -10.5c21.333 0 39.833 2.33301 55.5 7s29.167 12.667 40.5 24s20.666 26.666 27.999 45.999s13.666 43.666 18.999 72.999h248c-0.666992 -50.667 -9 -97.167 -25 -139.5s-40.333 -78.666 -73 -108.999s-73.334 -54 -122.001 -71
s-105.667 -25.5 -171 -25.5c-55.333 0 -107.666 6.33301 -156.999 19s-92.666 32.834 -129.999 60.501s-66.833 63.334 -88.5 107.001s-32.5 96.834 -32.5 159.501v129h-133v139z" />
    <glyph glyph-name="trademark" unicode="&#x2122;" horiz-adv-x="1456" 
d="M62 1145v133h488v-133h-142v-428h-194v428h-152zM1082 1278h281v-561h-178v421l-86 -315h-201l-88 315v-421h-180v561h288l78 -285z" />
    <glyph glyph-name="arrowleft" unicode="&#x2190;" horiz-adv-x="2058" 
d="M617 824l-245 -209h1581v-162h-1581l247 -209h-231l-303 285l303 295h229z" />
    <glyph glyph-name="arrowright" unicode="&#x2192;" horiz-adv-x="2058" 
d="M1659 825l303 -295l-303 -285h-231l247 209h-1581v162h1581l-245 209h229z" />
    <glyph glyph-name="minus" unicode="&#x2212;" horiz-adv-x="774" 
d="M103 666h586v-268h-586v268z" />
    <glyph glyph-name="uni25FC" unicode="&#x25fc;" horiz-adv-x="930" 
d="M0 930h930v-930h-930v930z" />
    <glyph glyph-name="peace" unicode="&#x262e;" horiz-adv-x="931" 
d="M39 757v8v153h850v-823h-850v662zM206 517h-5v7h-9v2h9v14h-3v10h3v4h-11v2h-20v10h-4v39h-5v-71h23v-16h-15v-1h-7v1h-1v-1h-8v1h-5v-1h-3v1h-5v-1h-1v1h-1v-1h-1v1h-2v-1h-14v-16h16v-11h4v11h156v12h-31v1h5v7h-34v3h-31v-7zM826 771h13v16h-2v7h2v11h-2v8h2v13h-2v2
h2v30h-7v2h7v25h-67v-14h3v-15h-3v-6h11v30h2v-30h1v-1h-1v-28h10v44h3v-44h5v40h9v-40h2v52h12v-52h3v-19h-3v-31zM533 130h34v21h6v-21h11v9h1v-9h2v35h-9v2h9v14h-4v11h4v3h-11v3h-20v9h-3v37h-7v-68h24v-17h-24v-21h-4v-3h-9v-5zM342 297h17v12h-3v24h-25v33h-4v-24h-8
v24h-6v-27h4v-30h-4v-22h4v-2h-4v-5h6v1h8v-1h4v3h17v-3h11v8h-17v9zM720 297h16v12h-2v24h-26v33h-3v-24h-8v24h-6v-27h5v-30h-5v-22h5v-2h-5v-5h6v1h8v-1h3v3h18v-3h10v8h-16v9zM712 655h17v12h-3v24h-25v34h-4v-25h-8v25h-6v-27h5v-31h-5v-21h5v-3h-5v-3h18v2h17v-2h11v6
h-17v9zM291 412v7h-3v1h3v8h-3v36h69v-20h5v14h7v5h-7v9h6v23h-7v-17h-2v17h-6v-14h-2v14h-3v-23h9v-2h-187v-6h106v-45h3v-7h4v7h4v-7h4zM335 655h16v12h-3v24h-25v34h-3v-25h-9v25h-5v-27h4v-31h-4v-21h4v-3h-4v-3h17v2h18v-2h10v6h-16v9zM463 847v38h-68v-14h1v-15h-1v-6
h10v30h3v-30h1v-1h-1v-2h10v18h2v-18h5v14h10v-14h2v26h11v7h3v-33h12zM592 130h89v5h-6v1h-65v5h-13v9h52v3h2v2h12v3h-3v4h-37v3h-31v-35zM105 253h4v33h-11v-24h3v-4h-3v-18h2v-5h-2v-33h1v-6h-1v-11h8v-5h-8v-10h4v-3h-4v-12h2v-2h9v54h-9v14h9v29h-4v3zM188 140h7v-10
h7v18h7v17h-10v2h10v14h-3v11h3v3h-11v3h-10v-22h4v-17h-4v-19zM179 771v-33h8v13h5v20h4v-17h18v20h-18v-2h-4v7h-5v11h-8v-18h-2v-1h2zM574 754h17v20h-17v-2h-4v7h-5v11h-8v-52h8v13h5v20h4v-17zM215 144h4v6h52v3h2v2h13v3h-3v4h-37v3h-31v-21zM565 412v-33h7v13h6v20h4
v-17h17v20h-17v-2h-4v7h-6v11h-7v-18h-3v-1h3zM85 512v76h-12v-76h4v9h5v-9h3zM557 512h23v12h-10v2h10v14h-4v10h4v4h-12v2h-11v-22h5v-16h-5v-6zM204 395h17v20h-17v-2h-5v7h-5v11h-6v-52h6v13h5v20h5v-17zM233 318h3v-25h4v25h5v-25h3v65h-15v-40zM739 698h10v-21h17v36
h-27v-15zM547 566h-3v60h-3v3h-2v-95h17v22h-9v10zM604 677h2v-26h4v26h5v-26h3v67h-14v-41zM729 871v14h-81v-5h2v-9h2v8h5v-8h4v5h9v-5h3v13h10v-13h18v9h17v-9h11zM179 207h-4v43h-6v-74h18v22h-8v9zM848 571h-6v-17h4v6h5v-6h2v-3h-2v-139h4v159h-6v-9h-1v9zM612 450
v-30h3v32h7v-32h3v9h2v29h-2v3h-77v-5h64v-5h-47v-1h47zM493 885h-25v-38h10v28h8v-28h7v38zM475 511v-10h-4v10h-3v-10h-5v10h-3v-10h-35v10h-5v-1h4v-9h-7v-6h-1v-7h9v6h2v-6h7v6h26v-6h11v6h4v-6h3v6h1v7h-1v10h-3zM233 539v1h-27v-14h31v4h29v2h8v7h-20v-2h-14v2h-7z
M611 539v1h-27v-14h31v4h28v2h9v7h-20v-2h-14v2h-7zM227 677h2v-26h3v26h4v-26h4v67h-13v-41zM738 130h85v33h-3v-25h-8v25h-7v-13h5v-14h-17v-5h-3v5h-52v-6zM369 339h11v-21h15v36h-26v-15zM612 318h2v-25h4v25h4v-25h3v65h-13v-40zM100 580v25h-10v-6h3v-5h4v-6h-7v-76h3
v15h5v-15h2v54h-8v14h8zM351 871v14h-75v-6h3v-8h4v5h10v-5h3v13h10v-13h17v9h18v-9h10zM620 180v1h-28v-14h31v5h28v2h9v6h-21v-2h-14v2h-5zM241 180v1h-26v-14h31v5h27v2h10v6h-21v-2h-14v2h-7zM567 574h13v52h-13v-52zM758 318h2v7h5v-7h8v36h-26v-15h11v-21zM114 885
h-24v-38h10v28h9v-28h5v38zM584 512h3v6h5v-6h51v2h7v7h-35v3h-31v-12zM834 412h12v120h-4v-5h3v-5h-3v-98h-5v19h-3v-31zM201 698v20h-11v-30h4v-4h-4v-30h11v30h-5v14h5zM503 472v43h-14v-43h14zM369 472h26v23h-26v-23zM747 495v-23h26v23h-26zM708 379v32h8v26h-18v-17
h15v-1h-15v-8h6v-32h4zM190 574h11v52h-11v-52zM701 738v32h6v26h-16v-17h14v-1h-14v-8h5v-32h5zM475 174v-21h11v54h-9v6h-2v-18h9v-3h-9v-15h6v-3h-6zM69 885v-38h2v33h2v-33h12v38h-16zM493 580v81h-7v-21h2v-4h-2v-8h2v-15h-2v-33h7zM457 130h29v22h-11v-16h-4v16h-11
v-16h-3v-6zM726 495v-23h9v-28h4v14h7v5h-7v9h6v23h-7v-17h-2v17h-5v-14h-2v14h-3zM580 698v20h-13v-28h6v-7h-6v-13h13v14h-5v14h5zM631 438h11v16h-5v4h-8v-29h2v-9h19v8h-8v9h-11v1zM475 670h3v43h-10v-15h2v-7h3v-7h-5v-29h10v6h-3v9zM209 339v19h-13v-43h13v9h-4v15h4z
M660 357v1h-3v-1h-7v1h-11v-19h11v7h7v-7h3v7h4v-7h5v21h-5v-3h-4zM532 885h-29v-29h5v24h2v-24h4v27h2v-27h1v15h6v13h2v-13h7v14zM722 739h7v9h-11v-50h11v32h-7v9zM352 380h7v9h-11v-50h11v32h-7v9zM154 885h-28v-29h4v24h2v-24h5v27h1v-27h1v15h7v13h2v-13h6v14z
M739 831h27v18h-27v-18zM739 536h27v18h-27v-18zM353 837h-2v12h-10v-18h8v-28h5v14h7v5h-7v9h5v18h-6v-12zM283 357v1h-4v-1h-8v1h-9v-1h-1v-11h1v-7h9v7h8v-7h4v7h4v-7h4v21h-4v-3h-4zM623 797h11v17h-6v3h-6v-30h1v-8h18v7h-7v10h-11v1zM584 871h8v14h-35v-14h23v6h4v-6z
M246 797h10v17h-5v3h-7v-30h2v-8h17v7h-7v10h-10v1zM254 438h10v16h-5v4h-7v-29h2v-9h17v8h-7v9h-10v1zM245 430v-10h3v9h2v29h-17v-38h4v32h8v-1h-4v-21h4zM731 380h5v9h-10v-50h10v32h-5v9zM494 130h8v5h-2v20h2v4h-7v17h7v31h-8v-54h4v-1h-4v-22zM274 715v3h-3v-3h-8v3
h-9v-20h9v7h8v-7h3v7h5v-7h4v20h-4v-3h-5zM652 715v3h-2v-3h-9v3h-9v-3h-1v-10h1v-7h9v7h9v-7h2v7h5v-7h4v20h-4v-3h-5zM362 831h25v18h-25v-18zM389 136v-6h57v22h-3v-14h-9v14h-7v-2h4v-14h-15v-5h-3v5h-24zM523 390v-56h8v56h-8zM731 837h-2v12h-11v-18h9v-28h4v14h7v5
h-7v9h5v18h-5v-12zM345 739h6v9h-10v-50h10v32h-6v9zM468 532v-20h3v15h4v-15h3v54h-9v5h-1v-17h7v-3h-7v-15h5v-4h-5zM209 216v34h-13v-34h13zM494 389v-55h8v55h-8zM320 411h1v1h17v25h-18v-17h15v-1h-15v-8zM739 580h27v16h-27v-16zM69 152v-22h23v22h-10v-16h-5v16h-8z
M793 495v-33h10v60h-5v-12h3v-15h-8zM369 412h26v16h-26v-16zM747 412h26v16h-26v-16zM122 302h1v10h-7v-59h7v48h-1v1zM313 771h17v25h-17v-17h14v-1h-14v-7zM497 312h-3v-32h2v-3h-2v-7h2v-15h-2v-4h8v52h-5v9zM486 748v-58h7v58h-7zM516 748v-58h7v58h-7zM739 771h27v15
h-27v-15zM582 324v8h-7v-37h12v29h-5zM236 136v-6h67v5h-5v1h-62zM116 149h1v-18h-1v-1h7v5h-1v20h1v4h-6v17h6v31h-7v-54h4v-1h-4v-3zM73 623h12v38h-12v-18h7v-9h-5v-2h-1v2h-1v-11zM613 876h20v9h-35v-14h15v5zM463 599v14h-12v-33h12v13h-1v6h1zM90 623h10v38h-10v-38z
M766 871v14h-27v-14h27zM166 138v-8h4v10h17v19h-18v-21h-3zM362 771h25v15h-25v-15zM69 467v-51h8v30h-6v6h6v15h-8zM471 221v14h-1v5h1v15h-11v-34h11zM604 817v-38h4v32h7v-32h3v8h2v30h-16zM826 580h11v33h-11v-33zM73 805v-30h12v30h-12zM452 805v-3h-1v-27h12v30h-11z
M387 871v14h-25v-14h25zM849 713v-58h6v58h-6zM584 497v-8h-4v8h-15v-17h-3v-4h5v12h8v-12h12v21h-3zM525 629v-49h7v49h-7zM516 629v-49h7v49h-7zM587 216v28h-12v-28h12zM533 376v-42h8v42h-8zM793 177h10v36h-10v-10h3v-8h-3v-18zM408 536h10v35h-10v-8h2v-9h-2v-18z
M785 536h10v35h-10v-8h2v-9h-2v-18zM82 446v-30h11v30h-11zM98 446v-30h11v30h-11zM475 446v-30h11v30h-11zM227 817v-38h2v32h7v-32h4v8h2v30h-15zM848 713h-22v-15h22v15zM206 497v-8h-5v8h-13v-21h2v12h6v-12h13v21h-3zM461 446v-3h-1v-27h11v30h-10zM739 655h27v12h-27
v-12zM402 449v-37h11v16h-4v21h-7zM478 580v33h-10v-14h2v-6h-2v-13h10zM348 245h11v32h-11v-4h6v-6h-6v-22zM408 339h5v15h-11v-36h6v6h5v5h-5v10zM855 339v15h-21v-15h21zM525 735v-45h7v45h-7zM826 655h22v29h-3v-17h-19v-12zM484 323h2v9h-5v-8h-6v-27h11v15h-2v11z
M369 297h26v12h-26v-12zM73 722h12v26h-12v-26zM718 604h11v32h-11v-4h7v-6h-7v-22zM146 390v-44h7v44h-7zM305 798v22h-14v-22h14zM691 439v22h-14v-22h14zM416 177h9v36h-9v-10h3v-8h-3v-18zM90 805v-30h10v30h-10zM468 805v-30h10v30h-10zM503 642v-50h2v-3h-2v-9h5v49
h-1v6h1v7h-5zM777 698h6v15h-11v-36h5v7h6v4h-6v10zM747 410h-11v-21h2v-9h7v9h2v21zM780 495v-23h3v-10h7v33h-5v-4h-2v4h-3zM780 449v-37h10v16h-4v21h-6zM313 439v22h-13v-22h13zM682 798v22h-13v-22h13zM341 604h10v32h-10v-4h6v-6h-6v-22zM785 339h5v15h-10v-36h5v6h5
v5h-5v10zM775 821h8v28h-11v-18h3v-10zM138 805v-34h8v34h-8zM523 446v-34h8v34h-8zM154 446v-34h8v34h-8zM533 446v-34h8v34h-8zM739 720h27v10h-27v-10zM747 516h19v14h-19v-14zM146 651v33h-8v-33h8zM587 339v19h-12v-24h7v5h5zM395 361v10h-26v-10h26zM773 361v10h-26
v-10h26zM90 748v-26h10v26h-10zM109 609h5v52h-5v-52zM399 698h6v15h-10v-36h4v7h6v4h-6v10zM77 691h8v8h-12v-26h12v11h-8v7zM856 397v3h-85v-3h85zM486 516h7v2h-6v16h6v32h-7v-50zM650 472v23h-11v-23h11zM416 501v4h-63v-4h63zM380 713v-36h7v36h-7zM262 183h21v12h-21
v-12zM639 183h21v12h-21v-12zM739 768h-10v-20h2v-9h5v9h3v20zM812 462v35h-7v-35h7zM834 462h3v60h-11v-8h8v-52zM739 739h27v9h-27v-9zM739 604h27v9h-27v-9zM431 195h3v18h-7v-36h7v15h-3v3zM809 195h3v18h-7v-36h7v15h-3v3zM530 486v22h-11v-22h11zM650 221v22h-11v-22
h11zM154 376v-30h8v30h-8zM300 733v24h-10v-24h10zM678 733v24h-10v-24h10zM687 374v24h-10v-24h10zM637 318v40h-6v-40h6zM768 437v17h-14v-17h14zM146 446v-34h7v34h-7zM516 805v-34h7v34h-7zM556 871v14h-17v-14h17zM525 805v-34h7v34h-7zM553 412v34h-7v-34h7zM475 221
h11v23h-11v-4h3v-5h-3v-14zM145 556h1v10h-8v-32h8v2h-1v20zM847 843h1v15h-8v-30h8v10h-1v5zM747 380h26v9h-26v-9zM369 177h13v18h-13v-18zM747 177h13v18h-13v-18zM369 380h26v9h-26v-9zM162 221v29h-8v-29h8zM530 198h1v9h-8v-31h8v1h-1v21zM503 735v-45h5v45h-5z
M90 673h10v26h-10v-8h5v-7h-5v-11zM361 245h7v32h-7v-32zM98 291h11v21h-11v-12h9v-1h-9v-8zM510 745h1v-10h-1v-45h4v58h-4v-3zM209 295v17h-13v-17h13zM826 720h22v10h-22v-10zM632 543h20v11h-20v-11zM254 543h20v11h-20v-11zM82 262h11v24h-11v-1h5v-9h-5v-14zM726 251
h10v26h-10v-4h7v-6h-7v-16zM138 748v-27h8v27h-8zM494 439v-27h8v27h-8zM739 563h27v8h-27v-8zM308 374v24h-9v-24h9zM739 628h27v8h-27v-8zM557 835h1v12h9v-12h13v14h-23v-14zM518 389v-3h1v-10h-1v-42h4v56h-3v-1h-1zM436 402v-3h-18v-3h18v-7h6v7h2v3h-2v3h7v2h-7v6h-6
v-6h-6v-2h6zM834 361h21v10h-21v-10zM369 221h13v16h-13v-16zM747 221h13v16h-13v-16zM181 835v12h9v-12h11v14h-22v-10h-2v-4h4zM271 472v23h-9v-23h9zM402 495v-23h4v-10h7v5h-5v21h5v7h-5v-4h-3v4h-3zM628 677v41h-5v-41h5zM251 677v41h-5v-41h5zM478 334h8v20h-11v-15h3
v-5zM451 554h12v17h-12v-17zM834 221h6v34h-6v-34zM148 805v-34h6v34h-6zM522 556h1v10h-7v-32h7v2h-1v20zM175 412v34h-6v-34h6zM153 221v29h-7v-29h7zM123 221v29h-7v-29h7zM259 318v40h-5v-40h5zM146 580v25h-8v-25h8zM402 177h11v18h-11v-18zM140 389v-3h2v-10h-2v-30h5
v44h-3v-1h-2zM718 536h11v18h-11v-18zM772 536h11v18h-11v-18zM637 365v33h-6v-33h6zM639 249h11v18h-11v-18zM849 613v-33h6v33h-6zM842 613v-33h6v33h-6zM271 221v22h-9v-22h9zM263 580v22h-9v-22h9zM641 580v22h-9v-22h9zM460 195h11v18h-11v-18zM348 177h11v18h-11v-18z
M152 198h1v9h-7v-31h7v1h-1v21zM510 629v-49h4v49h-4zM219 885v-14h14v14h-14zM683 831h6v16h8v-16h4v18h-18v-18zM839 148h1v15h-6v-33h6v15h-1v3zM639 293h8v-6h3v22h-11v-16zM353 604h6v32h-6v-32zM834 297h6v9h10v-9h5v27h-2v-15h-19v-12zM154 654v30h-6v-33h4v3h2z
M575 251h12v16h-12v-16zM116 439v-27h7v27h-7zM486 798v-27h7v27h-7zM82 241h11v17h-11v-17zM82 202h11v17h-11v-17zM161 871h8v9h15v5h-23v-14zM826 554h11v17h-11v-17zM109 516h5v2h-4v16h4v32h-5v-50zM502 221v23h-8v-23h8zM541 221v23h-8v-23h8zM531 221v23h-8v-23h8z
M196 253h13v14h-13v-14zM738 251h7v26h-7v-26zM341 536h10v18h-10v-18zM395 536h10v18h-10v-18zM726 177h10v18h-10v-18zM780 177h10v18h-10v-18zM451 698h12v15h-12v-15zM451 536h12v15h-12v-15zM362 536h10v18h-10v-18zM348 412h11v16h-11v-16zM359 221v16h-11v-16h11z
M402 221h11v16h-11v-16zM729 580v16h-11v-16h11zM772 580h11v16h-11v-16zM221 427v25h-7v-25h7zM82 511v-23h11v23h-3v-16h-5v16h-3zM70 185h7v11h-8v-26h8v10h-7v5zM544 771v34h-5v-34h5zM166 771v34h-5v-34h5zM850 255v-34h5v34h-5zM747 158h13v13h-13v-13zM423 554h2v17
h-5v-35h5v15h-2v3zM369 158h13v13h-13v-13zM512 376v-42h4v42h-4zM546 334h7v24h-7v-24zM359 401v-4h10v4h5v4h-5v1h-10v-1h-14v-4h14zM800 554h3v17h-5v-35h5v15h-3v3zM106 149h3v3h-10v-22h10v1h-3v18zM369 280h13v6h7v-6h6v8h-26v-8zM251 724v33h-5v-33h5zM628 724v33h-5
v-33h5zM460 339h11v15h-11v-15zM460 177h11v15h-11v-15zM718 771h11v15h-11v-15zM772 771h11v15h-11v-15zM259 365v33h-5v-33h5zM116 389v-13h1v-3h-1v-8h7v24h-7zM137 651v33h-5v-33h5zM826 536h11v15h-11v-15zM306 831h5v16h9v-16h3v18h-17v-18zM766 640v6h-27v-6h27z
M262 249h9v18h-9v-18zM632 608h9v18h-9v-18zM254 608h9v18h-9v-18zM632 831h9v18h-9v-18zM254 831h9v18h-9v-18zM739 850h27v6h-27v-6zM726 412h10v16h-10v-16zM793 412h10v16h-10v-16zM351 580v16h-10v-16h10zM405 580v16h-10v-16h10zM780 221h10v16h-10v-16zM736 221v16
h-10v-16h10zM503 566v-32h5v32h-5zM132 566v-32h5v32h-5zM418 580v16h-10v-16h10zM785 580h10v16h-10v-16zM793 221h10v16h-10v-16zM731 604h5v32h-5v-32zM138 629v-20h8v20h-8zM362 580h10v16h-10v-16zM641 771v7h-18v-10h11v3h7zM747 297h13v12h-13v-12zM262 293h7v-6h2
v22h-9v-16zM240 563v39h-4v-39h4zM140 439v-27h5v34h-3v-7h-2zM132 798v-27h5v34h-3v-7h-2zM313 494v-22h6v16h4v6h-10zM691 494v-22h6v16h4v6h-10zM397 821h8v5h-5v21h5v2h-10v-18h2v-10zM650 412v7h-19v-9h11v2h8zM140 207v-31h5v31h-5zM123 315v22h-7v-22h7zM632 651h7
v-5h2v21h-9v-16zM254 651h7v-5h2v21h-9v-16zM71 512v76h-2v-76h2zM69 511v-23h8v23h-4v-16h-2v16h-2zM533 270v-19h8v19h-8zM523 270v-19h8v19h-8zM362 698h10v15h-10v-15zM154 580v25h-6v-25h6zM341 771h10v15h-10v-15zM395 771h10v15h-10v-15zM362 850h25v6h-25v-6z
M785 771h10v15h-10v-15zM795 698v15h-10v-15h10zM418 698v15h-10v-15h10zM803 339v15h-10v-15h10zM166 654v30h-5v-30h5zM263 771v7h-17v-10h10v3h7zM849 748v-9h6v28h-5v-19h-1zM109 673h5v31h-5v-2h3v-3h-3v-26zM145 221v29h-5v-29h5zM765 195v-18h8v18h-8zM73 609h12v12
h-12v-12zM451 655h12v12h-12v-12zM416 221h9v16h-9v-16zM98 389v-13h11v13h-11zM82 376h11v13h-11v-13zM567 216v28h-5v-28h5zM539 690h5v28h-5v-28zM271 412v7h-17v-9h10v2h7zM557 850h23v6h-23v-6zM69 202h8v17h-8v-17zM206 550h34v4h-34v-4zM584 550h34v4h-34v-4zM69 241
h8v17h-8v-17zM154 270v-17h8v17h-8zM109 798v-27h5v27h-5zM425 339v15h-9v-15h9zM503 798v-27h5v27h-5zM85 594v11h-12v-11h12zM82 155h11v12h-11v-12zM460 297h11v12h-11v-12zM416 412h6v4h3v12h-9v-16zM93 300v12h-11v-12h11zM179 850h22v6h-22v-6zM683 532h6v22h-6v-22z
M402 297h11v12h-11v-12zM772 655h11v12h-11v-12zM73 826v-15h12v9h-8v6h-4zM240 724v33h-4v-33h4zM237 365v33h-4v-33h4zM608 724v33h-4v-33h4zM319 221v22h-6v-22h6zM689 580v22h-6v-22h6zM126 642v-33h4v33h-4zM369 203h13v10h-13v-10zM382 245v10h-13v-10h13zM747 203h13
v10h-13v-10zM109 748v-26h5v26h-5zM408 771h5v4h5v11h-10v-15zM803 150v13h-10v-13h10zM694 243h-3v-22h6v21h-3v1zM510 798v-27h4v34h-3v-7h-1zM518 439v-27h4v34h-3v-7h-1zM512 283v-32h4v32h-4zM765 237v-16h8v16h-8zM138 688h8v16h-8v-16zM126 566v-32h4v32h-4zM510 566
v-32h4v32h-4zM451 826v-5h1v-10h11v9h-7v6h-5zM361 130h21v6h-21v-6zM380 554v-18h7v18h-7zM313 174h6v21h-6v-21zM691 174h6v21h-6v-21zM361 177h7v18h-7v-18zM738 177h7v18h-7v-18zM137 580v25h-5v-25h5zM114 580v25h-5v-25h5zM181 574v31h-4v-31h4zM135 207v-31h4v31h-4z
M518 207v-31h4v31h-4zM512 207v-31h4v31h-4zM525 566v-10h5v-20h-5v-2h7v32h-7zM533 207v-9h6v-21h-6v-1h8v31h-8zM82 185h11v11h-11v-11zM82 224h11v11h-11v-11zM593 431v15h-8v-15h8zM562 334h5v24h-5v-24zM362 655h10v12h-10v-12zM181 654v30h-4v-30h4zM148 629v-20h6v20
h-6zM772 807v-20h6v20h-6zM395 807v-20h6v20h-6zM248 203v40h-3v-40h3zM625 203v40h-3v-40h3zM395 655h10v12h-10v-12zM780 297h10v12h-10v-12zM793 297h10v12h-10v-12zM785 655h10v12h-10v-12zM451 720h12v10h-12v-10zM135 376v-30h4v30h-4zM90 609h10v12h-10v-12zM840 860
h8v15h-8v-15zM146 270v-17h7v17h-7zM546 251h7v16h-5v3h-2v-19zM826 739h13v9h-13v-9zM98 315h11v12h-6v-3h-5v-9zM618 563v39h-3v-39h3zM425 150v13h-9v-13h9zM403 168h10v3h-11v-13h8v-8h3v13h-10v5zM610 465v2h-58v-2h58zM132 745h2v-10h-2v-14h5v27h-5v-3zM850 163v-15
h5v26h-5v-6h3v-5h-3zM135 283v-30h4v17h-1v6h1v7h-4zM380 596v-16h7v16h-7zM69 276v-14h8v14h-8zM664 495v-23h5v22h-3v1h-2zM812 221v16h-7v-16h7zM745 221v16h-7v-16h7zM427 221h7v16h-7v-16zM368 221v16h-7v-16h7zM606 574h4v28h-4v-28zM148 566v-10h4v-20h-4v-2h6v32h-6
zM738 412h7v16h-7v-16zM361 412h7v16h-7v-16zM805 412h7v16h-7v-16zM539 402v3h-37v-3h37zM82 170h11v10h-11v-10zM306 532h5v22h-5v-22zM460 361h11v10h-11v-10zM471 153v10h-11v-10h11zM413 361v10h-11v-10h11zM783 720v10h-11v-10h11zM311 580v22h-5v-22h5zM475 361h11
v10h-11v-10zM348 203h11v10h-11v-10zM413 245v10h-11v-10h11zM402 203h11v10h-11v-10zM669 221v22h-5v-22h5zM664 287h5v22h-5v-22zM639 203h11v10h-11v-10zM139 221v29h-4v-17h2v-3h-2v-9h4zM82 467v-15h11v8h-8v7h-3zM389 195v-18h6v18h-6zM834 380h12v9h-12v-9zM130 651
v33h-4v-11h2v-12h-2v-10h4zM85 327h-3v-12h11v9h-8v3zM313 249h6v18h-6v-18zM236 216h4v27h-4v-27zM683 608h6v18h-6v-18zM614 216h4v27h-4v-27zM126 798v-27h4v27h-4zM135 439v-27h4v27h-4zM512 439v-27h4v27h-4zM683 850h18v6h-18v-6zM353 536h6v18h-6v-18zM451 739h12v9
h-12v-9zM812 339v15h-7v-15h7zM745 339v15h-7v-15h7zM434 339v15h-7v-15h7zM368 339v15h-7v-15h7zM602 375v7h-15v-7h15zM69 389v-13h8v13h-8zM554 574h2v52h-2v-52zM765 171v-13h8v13h-8zM747 280h13v8h-13v-8zM840 813h8v13h-8v-13zM154 324h8v13h-8v-13zM823 221v34h-3
v-34h3zM446 221v34h-3v-34h3zM306 850h17v6h-17v-6zM187 216v34h-3v-34h3zM691 249h3v2h3v16h-6v-18zM154 207v-9h7v-21h-7v-1h8v31h-8zM726 203h10v10h-10v-10zM780 203h10v10h-10v-10zM790 361v10h-10v-10h10zM372 720v10h-10v-10h10zM405 720v10h-10v-10h10zM468 720h10
v10h-10v-10zM132 629v-20h5v20h-5zM418 720v10h-10v-10h10zM795 720v10h-10v-10h10zM803 361v10h-10v-10h10zM618 724v33h-3v-33h3zM615 365v33h-3v-33h3zM625 365v33h-3v-33h3zM592 192h33v3h-33v-3zM783 604v9h-11v-9h11zM460 380h11v9h-11v-9zM402 380h11v9h-11v-9z
M772 739h11v9h-11v-9zM475 389v-9h11v9h-11zM664 174h5v21h-5v-12h2v-3h-2v-6zM460 467v-5h1v-10h10v8h-8v7h-3zM248 365v33h-3v-33h3zM215 192h33v3h-33v-3zM348 158h11v13h-6v-9h-5v-4zM70 153v2h7v12h-8v-14h1zM380 530v-14h7v14h-7zM359 580v16h-6v-16h6zM69 315h8v12
h-8v-12zM77 300v12h-8v-12h8zM148 688h6v16h-6v-16zM765 309v-12h8v12h-8zM389 237v-16h6v16h-6zM288 381v12h-8v-12h8zM130 580v25h-4v-13h2v-3h-2v-9h4zM843 782h5v5h-8v-16h8v4h-5v7zM522 221v23h-4v-23h4zM240 472v23h-4v-23h4zM283 472v23h-4v-23h4zM618 472v23h-4v-23
h4zM738 158h7v13h-7v-13zM580 654v7h-13v-7h13zM361 158h7v13h-7v-13zM209 276v7h-13v-7h13zM580 635v7h-13v-7h13zM146 324h7v13h-7v-13zM161 609h5v17h-3v3h-2v-20zM486 670h7v13h-7v-13zM516 670h7v13h-7v-13zM525 670h7v13h-7v-13zM747 270h13v7h-13v-7zM369 270h13v7
h-13v-7zM785 739h10v9h-10v-9zM313 130h18v5h-18v-5zM793 380h10v9h-10v-9zM606 318v18h-5v-18h5zM229 318v18h-5v-18h5zM664 249h5v18h-5v-18zM287 495v-23h4v22h-2v1h-2zM306 608h5v18h-5v-18zM425 361v10h-9v-10h9zM731 536h5v18h-5v-18zM405 604v9h-10v-9h10zM418 604v9
h-10v-9h10zM425 245v10h-9v-10h9zM795 604v9h-10v-9h10zM353 771h6v15h-6v-15zM359 698v15h-6v-15h6zM395 739h10v9h-10v-9zM780 380h10v9h-10v-9zM262 203h9v10h-9v-10zM468 748v-9h10v9h-10zM90 820v-9h10v9h-10zM408 739h10v9h-10v-9zM468 820v-9h10v9h-10zM834 177h6v15
h-6v-15zM169 253h6v14h-4v3h-2v-17zM372 604v9h-10v-9h10zM362 739h10v9h-10v-9zM849 858v-15h6v15h-6zM849 875v-15h6v15h-6zM119 482v18h-5v-18h5zM287 287h4v22h-4v-22zM718 563h11v8h-11v-8zM82 291h11v8h-11v-8zM283 580v22h-4v-22h4zM291 221v22h-4v-22h4zM772 628h11
v8h-11v-8zM279 287h4v22h-4v-22zM283 221v22h-4v-22h4zM413 280v8h-11v-8h11zM98 460v-8h11v8h-11zM697 532h4v22h-4v-22zM69 224h8v11h-8v-11zM351 757h11v8h-11v-8zM661 580v22h-4v-22h4zM475 460v-8h11v8h-11zM475 280h11v8h-11v-8zM772 563h11v8h-11v-8zM98 365h11v8
h-11v-8zM82 365h11v8h-11v-8zM840 794h8v11h-8v-11zM826 628h11v8h-11v-8zM790 510v11h3v-11h2v12h-10v-12h5zM413 510v11h3v-11h2v12h-10v-12h5zM516 221v23h-4v-11h2v-3h-2v-9h4zM567 295v17h-5v-17h5zM726 158h10v13h-5v-9h-5v-4zM691 130h17v5h-17v-5zM140 270v-17h5v17
h-5zM353 516h6v14h-6v-14zM148 735v-14h6v14h-6zM657 646h4v21h-4v-21zM657 532h4v22h-4v-11h1v-4h-1v-7zM586 574h3v28h-3v-28zM738 297h7v12h-7v-12zM327 174h4v21h-4v-21zM229 574h3v28h-3v-28zM427 416h7v12h-7v-12zM359 871v14h-6v-14h6zM739 516h6v14h-6v-14zM805 297
h7v12h-7v-12zM361 297h7v12h-7v-12zM279 532h4v22h-4v-11h1v-4h-1v-7zM362 516h6v14h-6v-14zM587 276v7h-12v-7h12zM380 667v-12h7v12h-7zM279 646h4v21h-4v-21zM416 380h9v9h-9v-9zM300 339h3v27h-3v-27zM670 698h3v27h-3v-27zM287 174h4v21h-4v-12h1v-3h-1v-6zM293 698h3
v27h-3v-27zM678 339h3v27h-3v-27zM785 628h10v8h-10v-8zM798 580h5v16h-5v-16zM468 628h10v8h-10v-8zM803 280v8h-10v-8h10zM362 628h10v8h-10v-8zM395 628h10v8h-10v-8zM341 563h10v8h-10v-8zM736 580v16h-5v-16h5zM132 688h5v16h-5v-16zM562 251h5v16h-5v-16zM154 302h8
v10h-8v-10zM765 213v-10h8v10h-8zM531 293v10h-8v-10h8zM362 563h10v8h-10v-8zM395 563h10v8h-10v-8zM790 280v8h-10v-8h10zM451 628h12v8h-5v-2h-5v-2h-1v2h-1v-6zM161 688h5v16h-5v-16zM408 628h10v8h-10v-8zM420 580h5v16h-5v-16zM389 171v-13h6v13h-6zM169 324h6v13h-6
v-13zM849 826v-13h6v13h-6zM402 270h11v7h-11v-7zM650 276v7h-11v-7h11zM201 635v7h-11v-7h11zM475 270h11v7h-11v-7zM518 270v-19h4v19h-4zM803 698v15h-5v-15h5zM736 698v15h-5v-15h5zM425 698v15h-5v-15h5zM850 145v-15h5v15h-5zM731 771h5v15h-5v-15zM850 192v-15h5v15
h-5zM798 771h5v15h-5v-15zM463 512v10h-12v-8h5v7h4v-9h3zM780 158h7v-8h3v13h-10v-5zM541 295v8h-8v-10h5v2h3zM279 249h4v18h-4v-18zM279 608h4v18h-4v-18zM697 608h4v18h-4v-18zM236 831h4v18h-4v-18zM353 655h6v12h-6v-12zM606 831h4v18h-4v-18zM425 280v8h-9v-8h9z
M327 249h4v18h-4v-18zM606 608h4v18h-4v-18zM254 563h9v8h-9v-8zM169 346h6v12h-6v-12zM287 249h4v18h-4v-18zM614 249h4v18h-4v-18zM279 831h4v18h-4v-18zM236 249h4v18h-4v-18zM236 608h4v18h-4v-18zM657 831h4v18h-4v-18zM494 323h8v9h-8v-9zM632 563h9v8h-9v-8zM523 323
h8v9h-8v-9zM533 323h8v9h-8v-9zM840 739h8v9h-8v-9zM657 608h4v18h-4v-18zM793 270h10v7h-10v-7zM427 153h7v10h-7v-10zM736 871v14h-5v-14h5zM361 203h7v10h-7v-10zM434 245v10h-7v-10h7zM745 361v10h-7v-10h7zM738 203h7v10h-7v-10zM380 730v-10h7v10h-7zM146 302h7v10h-7
v-10zM731 516h5v14h-5v-14zM812 245v10h-7v-10h7zM780 270h10v7h-10v-7zM413 391v10h-7v-10h7zM812 361v10h-7v-10h7zM460 270h11v7h-6v-1h-3v-2h-1v2h-1v-6zM434 361v10h-7v-10h7zM368 361v10h-7v-10h7zM523 651v10h-7v-10h7zM592 488h3v-12h2v21h-5v-9zM625 472v23h-3v-23
h3zM660 472v23h-3v-23h3zM723 521h3v-5h3v14h-6v-9zM345 521h3v-5h3v14h-6v-9zM248 472v23h-3v-23h3zM664 158h17v4h-17v-4zM177 609h4v17h-4v-17zM98 346h11v7h-11v-2h3v-3h-3v-2zM190 216v34h-2v-34h2zM597 677v17h-4v-17h4zM220 677v17h-4v-17h4zM460 168h11v6h-11v-6z
M274 580v22h-3v-22h3zM678 287h3v22h-3v-22zM437 580v33h-2v-33h2zM300 287h3v22h-3v-22zM303 221v22h-3v-22h3zM293 532h3v22h-3v-22zM673 580v22h-3v-22h3zM320 532h3v22h-3v-22zM670 532h3v22h-3v-22zM296 580v22h-3v-22h3zM783 640v6h-11v-6h11zM229 724v33h-2v-33h2z
M660 221v22h-3v-22h3zM718 850h11v6h-11v-6zM826 640h11v6h-11v-6zM814 580v33h-2v-33h2zM348 130h11v6h-11v-6zM681 221v22h-3v-22h3zM657 287h3v22h-3v-22zM849 805v-11h6v11h-6zM140 324h5v13h-5v-13zM539 670h5v13h-5v-13zM503 670h5v13h-5v-13zM701 580v16h-4v-16h4z
M162 315v8h-8v-8h8zM331 221v16h-4v-16h4zM126 688h4v16h-4v-16zM69 365h8v8h-8v-8zM494 460v-8h8v8h-8zM532 654v7h-7v-10h5v3h2zM69 291h8v8h-8v-8zM287 158h16v4h-16v-4zM279 516h4v4h4v-4h4v1h5v4h-17v-5zM765 288v-8h8v8h-8zM177 688h4v16h-4v-16zM416 270h9v7h-9v-7z
M271 276v7h-9v-7h9zM486 820v-9h7v9h-7zM271 646h3v21h-3v-21zM427 380h7v9h-7v-9zM546 323h7v9h-7v-9zM641 635v7h-9v-7h9zM380 748v-9h7v9h-7zM300 174h3v21h-3v-21zM368 389h-7v-9h7v9zM263 635v7h-9v-7h9zM670 646h3v21h-3v-21zM293 646h3v21h-3v-21zM465 280h6v8h-11
v-3h5v-5zM805 380h7v9h-7v-9zM380 613v-9h7v9h-7zM678 174h3v21h-3v-21zM705 174h3v21h-3v-21zM103 330h6v7h-11v-4h5v-3zM546 518v-6h10v6h-10zM691 203h6v10h-6v-10zM215 488h2v-12h2v21h-4v-9zM589 698v20h-3v-20h3zM451 527h12v5h-12v-5zM389 213v-10h6v10h-6zM731 655
h5v12h-5v-12zM418 655v6h-10v-6h10zM418 640v6h-10v-6h10zM162 295v6h-8v-8h6v2h2zM657 516h3v4h4v-4h5v1h4v4h-16v-5zM169 302h6v10h-6v-10zM405 640v6h-10v-6h10zM798 655h5v12h-5v-12zM359 720v10h-6v-10h6zM372 640v6h-10v-6h10zM795 640v6h-10v-6h10zM726 130h10v6h-10
v-6zM389 255v-10h6v10h-6zM849 838v-10h6v10h-6zM209 654h2v30h-2v-30zM341 850h10v6h-10v-6zM840 195v10h-6v-10h6zM313 203h6v10h-6v-10zM849 730v-10h6v10h-6zM69 805v-30h2v30h-2zM842 551v-15h4v15h-4zM468 640h10v6h-10v-6zM77 751v14h-4v-11h-1v-3h5zM668 768h10v4
h-5v6h-3v-6h-2v-4zM217 295h2v29h-2v-29zM140 832h6v7h-8v-8h2v1zM290 768h10v4h-4v6h-3v-6h-3v-4zM595 295h2v29h-2v-29zM434 280v8h-7v-8h7zM138 642v-7h8v7h-8zM523 283v-7h8v7h-8zM154 283v-7h8v7h-8zM368 280v8h-7v-8h7zM745 280v8h-7v-8h7zM533 480v-7h8v7h-8z
M812 280v8h-7v-8h7zM116 460v-8h7v8h-7zM77 330v7h-8v-7h8zM553 295v8h-7v-8h7zM380 636v-8h7v8h-7zM533 283v-7h8v7h-8zM153 293v8h-7v-8h7zM153 315v8h-7v-8h7zM234 871h4v14h-4v-14zM209 574h2v28h-2v-28zM154 480v-7h8v7h-8zM554 690h2v28h-2v-28zM126 735v-14h4v14h-4z
M765 277v-7h8v7h-8zM380 571v-8h7v8h-7zM826 527h11v5h-11v-5zM186 880h11v5h-11v-5zM420 775h5v11h-5v-11zM271 831h3v18h-3v-18zM293 831h3v18h-3v-18zM245 249h3v18h-3v-18zM229 608h3v18h-3v-18zM320 608h3v18h-3v-18zM670 831h3v18h-3v-18zM678 249h3v18h-3v-18z
M293 608h3v18h-3v-18zM820 195h3v18h-3v-18zM359 748h-6v-9h6v9zM615 608h3v18h-3v-18zM670 608h3v18h-3v-18zM657 249h3v18h-3v-18zM443 195h3v18h-3v-18zM229 831h3v18h-3v-18zM300 249h3v18h-3v-18zM615 831h3v18h-3v-18zM622 249h3v18h-3v-18zM271 608h3v18h-3v-18z
M254 850h9v6h-9v-6zM93 333v4h-11v-7h3v3h8zM217 216h2v26h-2v-26zM557 574h1v52h-1v-52zM69 673h2v26h-2v-26zM135 324h4v13h-4v-13zM510 670h4v13h-4v-13zM747 251h13v4h-13v-4zM69 748v-26h2v26h-2zM595 216h2v26h-2v-26zM518 832h5v7h-7v-8h2v1zM458 640h5v6h-12v-3h7
v-3zM135 130h10v5h-10v-5zM425 720v10h-5v-10h5zM850 205v-10h5v10h-5zM420 512h5v10h-5v-10zM664 203h5v10h-5v-10zM803 720v10h-5v-10h5zM736 720v10h-5v-10h5zM140 302h5v10h-5v-10zM512 130h10v5h-10v-5zM323 738v10h-5v-10h5zM508 651v10h-5v-10h5zM418 821v5h-10v-5
h10zM516 642v-7h7v7h-7zM146 283v-7h7v7h-7zM525 839v-7h7v7h-7zM427 270h7v7h-7v-7zM525 642v-7h7v7h-7zM805 270h7v7h-7v-7zM123 346v7h-7v-7h7zM553 276v7h-7v-7h7zM175 315v8h-6v-8h6zM708 221v16h-3v-16h3zM677 410h10v3h-6v6h-3v-6h-1v-3zM834 280h6v8h-6v-8zM842 636
v-8h6v8h-6zM85 392v14h-3v-11h-2v-3h5zM313 420h6v8h-6v-8zM331 472v12h-4v-12h4zM691 420h6v8h-6v-8zM820 412h3v16h-3v-16zM323 580v16h-3v-16h3zM683 563h6v8h-6v-8zM823 462v16h-3v-16h3zM353 563h6v8h-6v-8zM705 251h3v16h-3v-16zM849 636v-8h6v8h-6zM840 879h8v6h-8
v-6zM632 850h9v5h-8v1h-1v-6zM98 511v-23h2v23h-2zM586 835h3v14h-5v-2h2v-12zM299 410h9v3h-5v6h-3v-6h-1v-3zM562 323h5v9h-5v-9zM109 820v-9h5v9h-5zM798 739h5v9h-5v-9zM425 297v5h-9v-5h9zM823 177v15h-3v-15h3zM446 339v15h-3v-15h3zM803 604v9h-5v-9h5zM425 462v5h-9
v-5h9zM425 604v9h-5v-9h5zM503 820v-9h5v9h-5zM132 820v-9h5v9h-5zM823 339v15h-3v-15h3zM420 739h5v9h-5v-9zM446 177v15h-3v-15h3zM652 580v22h-2v-22h2zM475 251h11v4h-11v-4zM526 473h5v7h-6v-8h1v1zM369 516h3v14h-3v-14zM380 646v-6h7v6h-7zM184 253h3v14h-3v-14z
M834 270h6v7h-6v-7zM689 771v7h-6v-7h6zM683 779h6v7h-6v-7zM175 276v7h-6v-7h6zM389 277v-7h6v7h-6zM586 670h3v14h-3v-14zM148 839v-7h6v7h-6zM319 412v7h-6v-7h6zM148 642v-7h6v7h-6zM650 646h2v21h-2v-21zM697 412v7h-6v-7h6zM279 203h4v10h-4v-10zM503 839v-8h5v8h-5z
M135 302h4v10h-4v-10zM306 563h5v8h-5v-8zM211 698v20h-2v-20h2zM731 563h5v8h-5v-8zM798 628h5v8h-5v-8zM140 480v-8h5v8h-5zM516 293v10h-4v-10h4zM145 293v8h-5v-8h5zM140 460v-8h5v8h-5zM780 251h10v4h-10v-4zM132 839v-8h5v8h-5zM331 379v10h-4v-10h4zM850 288v-8h5v8
h-5zM664 420h5v8h-5v-8zM420 628h5v8h-5v-8zM793 251h10v4h-10v-4zM145 315v8h-5v-8h5zM523 130h8v5h-8v-5zM812 502h2v20h-2v-20zM522 293v10h-4v-10h4zM608 768v10h-4v-10h4zM240 768v10h-4v-10h4zM514 651v10h-4v-10h4zM287 203h4v10h-4v-10zM327 203h4v10h-4v-10z
M184 324h3v13h-3v-13zM849 775v-4h1v-3h5v7h-6zM219 339v19h-2v-19h2zM597 339v19h-2v-19h2zM254 724h12v6h-5v-5h-7v-1zM237 410v9h-4v-9h4zM126 820v-9h4v9h-4zM184 346h3v12h-3v-12zM849 885v-6h6v6h-6zM650 831h2v18h-2v-18zM443 416h3v12h-3v-12zM849 646v-6h6v6h-6z
M650 608h2v18h-2v-18zM71 643v18h-2v-18h2zM443 297h3v12h-3v-12zM842 646v-6h6v6h-6zM820 297h3v12h-3v-12zM359 640v6h-6v-6h6zM851 389v-9h4v9h-4zM708 472v12h-3v-12h3zM175 295v6h-6v-6h6zM834 168h6v6h-6v-6zM639 365h12v7h-4v-6h-8v-1zM518 323h4v9h-4v-9zM510 820
v-9h4v9h-4zM149 473h4v7h-5v-8h1v1zM353 850h6v6h-6v-6zM512 323h4v9h-4v-9zM140 283v-7h5v7h-5zM434 297v5h-7v-5h7zM544 635v7h-5v-7h5zM434 462v5h-7v-5h7zM105 394v7h-5v-7h5zM544 654v7h-5v-7h5zM562 276h5v7h-5v-7zM166 635v7h-5v-7h5zM146 130h7v5h-7v-5zM262 365h11
v7h-4v-6h-7v-1zM132 642v-7h5v7h-5zM306 779h5v7h-5v-7zM669 412v7h-5v-7h5zM311 771v7h-5v-7h5zM850 277v-7h5v7h-5zM209 835h2v14h-5v-2h3v-12zM435 554h2v17h-2v-17zM812 554h2v17h-2v-17zM533 159v-4h8v4h-8zM135 460v-8h4v8h-4zM518 480v-8h4v8h-4zM139 293v8h-4v-8h4z
M512 460v-8h4v8h-4zM510 839v-8h4v8h-4zM279 563h4v8h-4v-8zM139 315v8h-4v-8h4zM518 460v-8h4v8h-4zM523 159v-4h8v4h-8zM697 563h4v8h-4v-8zM512 480v-8h4v8h-4zM126 839v-8h4v8h-4zM97 753v8h-4v-8h4zM657 563h4v8h-4v-8zM154 159v-4h8v4h-8zM135 480v-8h4v8h-4zM765 255
v-4h8v4h-8zM632 724h11v6h-4v-5h-7v-1zM780 522v-10h3v10h-3zM823 361v10h-3v-10h3zM849 787v-5h6v5h-6zM681 472v10h-3v-10h3zM814 698v15h-2v-15h2zM814 536v15h-2v-15h2zM812 771h2v15h-2v-15zM731 850h5v6h-5v-6zM300 203h3v10h-3v-10zM793 168h10v3h-10v-3zM834 208h6
v5h-6v-5zM803 640v6h-5v-6h5zM785 527h10v3h-10v-3zM780 168h10v3h-10v-3zM206 850h5v6h-5v-6zM705 203h3v10h-3v-10zM584 850h5v6h-5v-6zM446 361v10h-3v-10h3zM303 472v10h-3v-10h3zM618 768v10h-3v-10h3zM443 153h3v10h-3v-10zM657 203h3v10h-3v-10zM69 826v-15h2v15h-2z
M402 522v-10h3v10h-3zM408 527h10v3h-10v-3zM184 302h3v10h-3v-10zM736 640v6h-5v-6h5zM425 640v6h-5v-6h5zM437 536v15h-2v-15h2zM678 203h3v10h-3v-10zM425 655v6h-5v-6h5zM437 698v15h-2v-15h2zM618 276v7h-4v-7h4zM610 635v7h-4v-7h4zM279 779h4v7h-4v-7zM510 642v-7h4
v7h-4zM657 779h4v7h-4v-7zM283 276v7h-4v-7h4zM240 635v7h-4v-7h4zM181 635v7h-4v-7h4zM77 392v14h-2v-14h2zM188 253h2v14h-2v-14zM283 771v7h-4v-7h4zM71 751v14h-2v-14h2zM518 283v-7h4v7h-4zM661 771v7h-4v-7h4zM240 276v7h-4v-7h4zM557 690h1v28h-1v-28zM146 159v-4h7
v4h-7zM553 476v4h-7v-4h7zM615 410v9h-3v-9h3zM248 410v9h-3v-9h3zM820 380h3v9h-3v-9zM625 410v9h-3v-9h3zM443 380h3v9h-3v-9zM416 168h9v3h-9v-3zM188 324h2v13h-2v-13zM554 670h2v13h-2v-13zM425 821v5h-5v-5h5zM850 213v-5h5v5h-5zM664 361h5v5h-5v-5zM200 435v25h-1
v-25h1zM85 702v2h-12v-2h12zM691 273h6v4h-6v-4zM313 273h6v4h-6v-4zM657 850h4v6h-4v-6zM236 850h4v6h-4v-6zM812 655h2v12h-2v-12zM187 315v8h-3v-8h3zM691 158h6v4h-6v-4zM670 563h3v8h-3v-8zM175 476v4h-6v-4h6zM271 563h3v8h-3v-8zM279 850h4v6h-4v-6zM435 655h2v12h-2
v-12zM188 346h2v12h-2v-12zM300 420h3v8h-3v-8zM69 609h2v12h-2v-12zM293 563h3v8h-3v-8zM823 280v8h-3v-8h3zM525 514h6v4h-6v-4zM154 389v-3h8v3h-8zM657 420h3v8h-3v-8zM606 850h4v6h-4v-6zM533 389v-3h8v3h-8zM683 632h6v4h-6v-4zM146 460v-8h3v8h-3zM313 158h6v4h-6v-4
zM523 460v-8h3v8h-3zM320 563h3v8h-3v-8zM678 420h3v8h-3v-8zM435 775h2v11h-2v-11zM82 346h11v2h-11v-2zM184 432h2v11h-2v-11zM93 351v2h-11v-2h11zM71 594v11h-2v-11h2zM69 634v-11h2v11h-2zM618 635v7h-3v-7h3zM805 168h7v3h-7v-3zM293 779h3v7h-3v-7zM232 635v7h-3v-7
h3zM427 168h7v3h-7v-3zM625 276v7h-3v-7h3zM271 779h3v7h-3v-7zM820 270h3v7h-3v-7zM525 748v-3h7v3h-7zM248 276v7h-3v-7h3zM274 771v7h-3v-7h3zM660 276v7h-3v-7h3zM589 635v7h-3v-7h3zM274 635v7h-3v-7h3zM187 276v7h-3v-7h3zM670 779h3v7h-3v-7zM660 412v7h-3v-7h3z
M589 654v7h-3v-7h3zM287 361h4v5h-4v-5zM166 835v4h-5v-4h5zM279 720h4v5h-4v-5zM188 302h2v10h-2v-10zM544 835v4h-5v-4h5zM229 768v10h-2v-10h2zM657 720h4v5h-4v-5zM697 516h4v5h-4v-5zM306 632h5v4h-5v-4zM140 159v-4h5v4h-5zM437 720v10h-2v-10h2zM100 702v2h-10v-2h10
zM154 130h4v5h-4v-5zM814 720v10h-2v-10h2zM435 512h2v10h-2v-10zM413 443v18h-1v-18h1zM435 502h2v9h-2v-9zM446 270v6h-3v-6h3zM443 168h3v6h-3v-6zM148 748v-3h6v3h-6zM670 850h3v6h-3v-6zM435 739h2v9h-2v-9zM783 802v18h-1v-18h1zM812 739h2v9h-2v-9zM271 850h3v6h-3
v-6zM229 850h3v6h-3v-6zM138 820v-9h2v9h-2zM615 850h3v6h-3v-6zM405 802v18h-1v-18h1zM516 820v-9h2v9h-2zM820 168h3v6h-3v-6zM187 295v6h-3v-6h3zM293 850h3v6h-3v-6zM327 158h4v4h-4v-4zM69 346h8v2h-8v-2zM812 628h2v8h-2v-8zM518 514h4v4h-4v-4zM77 351v2h-8v-2h8z
M472 761v-8h2v8h-2zM135 159v-4h4v4h-4zM512 159v-4h4v4h-4zM697 632h4v4h-4v-4zM188 517h-1v16h1v-16zM518 159v-4h4v4h-4zM327 273h4v4h-4v-4zM650 563h2v8h-2v-8zM190 315v8h-2v-8h2zM420 527h5v3h-5v-3zM503 748v-3h5v3h-5zM446 462v5h-3v-5h3zM669 280v3h-5v-3h5z
M681 280v5h-3v-5h3zM320 516h3v5h-3v-5zM798 527h5v3h-5v-3zM556 635v7h-2v-7h2zM652 635v7h-2v-7h2zM556 654v7h-2v-7h2zM772 530v-14h1v14h-1zM211 635v7h-2v-7h2zM597 276v7h-2v-7h2zM650 779h2v7h-2v-7zM219 276v7h-2v-7h2zM480 401v-7h2v7h-2zM190 276v7h-2v-7h2z
M652 771v7h-2v-7h2zM303 280v5h-2v-2h-1v-3h3zM196 365h13v1h-13v-1zM567 724h13v1h-13v-1zM557 670h1v13h-1v-13zM187 476v4h-3v-4h3zM575 365h12v1h-12v-1zM814 640v6h-2v-6h2zM360 751v3h-4v-3h4zM190 295v6h-2v-6h2zM678 273h3v4h-3v-4zM650 850h2v6h-2v-6zM539 512h2v6
h-2v-6zM293 632h3v4h-3v-4zM135 389v-3h4v3h-4zM300 273h3v4h-3v-4zM291 280v3h-4v-3h4zM437 628v6h-2v-6h2zM126 748v-3h4v3h-4zM512 389v-3h4v3h-4zM705 158h3v4h-3v-4zM705 273h3v4h-3v-4zM320 632h3v4h-3v-4zM670 632h3v4h-3v-4zM177 791h1v11h-1v-11zM562 432h1v11h-1
v-11zM190 724h11v1h-11v-1zM554 791h1v11h-1v-11zM437 821v5h-2v-5h2zM812 527h2v5h-2v-5zM435 527h2v5h-2v-5zM793 329v-5h2v5h-2zM443 285h3v3h-3v-3zM780 530v-3h3v3h-3zM368 392v3h-3v-3h3zM296 640v3h-3v-3h3zM402 530v-3h3v3h-3zM77 285v1h-8v-1h8zM283 640v2h-4v-2h4
zM512 518v-4h2v4h-2zM556 835v4h-2v-4h2zM673 640v3h-2v-1h-1v-2h3zM661 640v2h-4v-2h4zM558 654v7h-1v-7h1zM558 635v7h-1v-7h1zM435 643h2v3h-2v-3zM215 517h-6v1h6v-1zM416 329v-5h1v5h-1zM539 724h5v1h-5v-1zM562 365h5v1h-5v-1zM161 724h5v1h-5v-1zM664 276h5v1h-5v-1z
M408 688v-4h1v4h-1zM177 724h4v1h-4v-1zM71 702v2h-2v-2h2zM287 276h4v1h-4v-1zM279 635h4v1h-4v-1zM785 688v-4h1v4h-1zM657 635h4v1h-4v-1zM279 365h4v1h-4v-1zM187 412v1h-3v-1h3zM586 724h3v1h-3v-1zM184 365h3v1h-3v-1zM657 365h3v1h-3v-1zM271 724h3v1h-3v-1zM217 365
h2v1h-2v-1zM188 365h2v1h-2v-1zM595 365h2v1h-2v-1zM556 771v1h-2v-1h2zM554 724h2v1h-2v-1zM650 724h2v1h-2v-1zM209 724h2v1h-2v-1zM557 724h1v1h-1v-1z" />
    </font>
</defs>
</svg>
