<?xml version="1.0" standalone="no"?>
<!DOCTYPE svg PUBLIC "-//W3C//DTD SVG 1.1//EN" "http://www.w3.org/Graphics/SVG/1.1/DTD/svg11.dtd" >
<svg>
<metadata>
Created by FontForge 20090914 at Sat Jun 25 17:02:32 2016
 By www-data
Copyright (c) 2012 by Avraham Cornfeld. All rights reserved.
</metadata>
<defs>
<font id="." horiz-adv-x="0" >
  <font-face 
    font-family="."
    font-weight="400"
    font-stretch="normal"
    units-per-em="2048"
    panose-1="2 11 5 0 0 0 0 2 0 4"
    ascent="1638"
    descent="-410"
    x-height="928"
    cap-height="1278"
    bbox="-353 -477 2984 1654"
    underline-thickness="70"
    underline-position="-217"
    unicode-range="U+0020-U+FFFC"
  />
<missing-glyph horiz-adv-x="524" 
 />
    <glyph glyph-name=".notdef" horiz-adv-x="524" 
 />
    <glyph glyph-name="space" unicode=" " horiz-adv-x="524" 
 />
    <glyph glyph-name="exclam" unicode="!" horiz-adv-x="473" 
d="M143 1278h191v-493l-42 -429h-105l-44 429v493zM135 0v197h203v-197h-203z" />
    <glyph glyph-name="quotedbl" unicode="&#x22;" horiz-adv-x="604" 
d="M169 1205h122v-130l-130 -310h-63zM382 1205h122v-130l-131 -310h-62z" />
    <glyph glyph-name="numbersign" unicode="#" horiz-adv-x="1157" 
d="M1049 520h-230l-78 -205h234l-25 -79h-237l-88 -236h-84l88 236h-226l-88 -236h-84l88 236h-233l25 79h237l78 205h-242l25 80h248l84 223h84l-84 -223h225l84 223h84l-84 -223h223zM657 315l78 205h-223l-80 -205h225z" />
    <glyph glyph-name="dollar" unicode="$" horiz-adv-x="801" 
d="M754 283c0 -41.333 -7.66699 -78.8398 -23 -112.507s-36.833 -62.667 -64.5 -87s-60.5 -43.666 -98.5 -57.999s-80 -22.833 -126 -25.5v-135h-80v135c-41.333 1.33301 -79.5 7.33301 -114.5 18s-66 26.667 -93 48s-49 48.833 -66 82.5s-28.167 74.167 -33.5 121.5h164
c10.667 -38.667 28.167 -72.5 52.5 -101.5s54.5 -46.167 90.5 -51.5v384c-42.667 22.667 -81.667 44.334 -117 65.001s-65.666 42.334 -90.999 65.001s-45 47.334 -59 74.001s-21 57.334 -21 92.001c0 35.333 6.16699 68.666 18.5 99.999s30.5 58.833 54.5 82.5
s54 42.834 90 57.501s77.667 22.667 125 24v135h80v-137c88.667 -5.33301 157.167 -29.833 205.5 -73.5s73.5 -109.167 75.5 -196.5v-4h-160c-0.666992 20.667 -2.5 40.667 -5.5 60s-8.83301 36.5 -17.5 51.5s-20.834 27 -36.501 36s-36.167 13.5 -61.5 13.5v-331
c23.333 -13.333 47 -26.166 71 -38.499s47.167 -25.166 69.5 -38.499s43.5 -28 63.5 -44s37.667 -34 53 -54s27.833 -42.833 37.5 -68.5s15.5 -55.167 17.5 -88.5zM219 804.993c0 -30 12.5 -56.835 37.5 -80.502s60.167 -49.167 105.5 -76.5v302
c-24 0 -45 -4.16699 -63 -12.5s-33 -19.166 -45 -32.499s-20.833 -28.666 -26.5 -45.999s-8.5 -35.333 -8.5 -54zM442 116.991c27.333 0.666992 51.332 5.5 71.999 14.5s37.834 21 51.501 36s23.834 32 30.501 51s10 39.167 10 60.5s-3.16699 40.333 -9.5 57
s-16.333 32.334 -30 47.001s-30.834 28.667 -51.501 42s-45 27.666 -73 42.999v-351z" />
    <glyph glyph-name="percent" unicode="%" horiz-adv-x="1008" 
d="M173 0l548 1062h91l-551 -1062h-88zM233 1062c54.667 0 96.667 -15 126 -45s44 -74.333 44 -133v-189c0 -58.667 -14.667 -103.5 -44 -134.5s-71.333 -46.5 -126 -46.5c-55.333 0 -97.666 15.5 -126.999 46.5s-44 75.833 -44 134.5v189c0 58.667 14.667 103 44 133
s71.666 45 126.999 45zM233 584c25.333 0 44.999 9.66699 58.999 29s20.667 43 20 71v213c0.666992 26.667 -6 49 -20 67s-33.667 27 -59 27s-45 -8.33301 -59 -25s-21 -39.667 -21 -69v-213c0 -12.667 1.83301 -25 5.5 -37s9 -22.667 16 -32s15.333 -16.833 25 -22.5
s20.834 -8.5 33.501 -8.5zM758.999 542c54.667 0 96.667 -15 126 -45s44 -74.333 44 -133v-189c0 -58.667 -14.667 -103.5 -44 -134.5s-71.333 -46.5 -126 -46.5c-55.333 0 -97.666 15.5 -126.999 46.5s-44 75.833 -44 134.5v189c0 58.667 14.667 103 44 133
s71.666 45 126.999 45zM758.999 64c25.333 0 44.999 9.66699 58.999 29s20.667 43 20 71v213c0.666992 26.667 -6 49 -20 67s-33.667 27 -59 27s-45 -8.33301 -59 -25s-21 -39.667 -21 -69v-213c0 -12.667 1.83301 -25 5.5 -37s9 -22.667 16 -32s15.333 -16.833 25 -22.5
s20.834 -8.5 33.501 -8.5z" />
    <glyph glyph-name="ampersand" unicode="&#x26;" horiz-adv-x="1112" 
d="M401 -28c-32 2 -61.9951 5.33105 -89.9951 9.99805s-54 12 -78 22s-46.5 23.333 -67.5 40s-40.5 37.667 -58.5 63c-36 54 -54.833 107.833 -56.5 161.5s10 106.334 35 158.001s61.167 101.334 108.5 149.001s101.666 92.5 162.999 134.5
c-18.667 20.667 -37.834 44.5 -57.501 71.5l-55.5 75.5c-39.333 55.333 -62 109.333 -68 162s2.66699 99.667 26 141s60.666 74.5 111.999 99.5s114.666 37.5 189.999 37.5c50 0 93.333 -7.33301 130 -22s67.167 -34.167 91.5 -58.5s42 -52.333 53 -84
s15.833 -64.167 14.5 -97.5s-9.16602 -66.5 -23.499 -99.5s-34.833 -63.167 -61.5 -90.5c-28.667 -28.667 -58.334 -54.834 -89.001 -78.501l-86 -64.5l292 -356c8 14.667 14.167 32 18.5 52s7.5 41.5 9.5 64.5s2.83301 46.833 2.5 71.5s-0.833008 49.334 -1.5 74.001h146
c5.33301 -65.333 0.5 -127.5 -14.5 -186.5s-41.167 -114.5 -78.5 -166.5l199 -256h-193l-94 116c-26 -23.333 -55.167 -44.333 -87.5 -63s-66.5 -34.167 -102.5 -46.5s-73.333 -21.5 -112 -27.5s-77.334 -8 -116.001 -6zM496.005 1193
c-34.667 0 -64.999 -8.33496 -90.999 -25.002s-44.5 -39.5 -55.5 -68.5s-12.833 -62.833 -5.5 -101.5s27.666 -80 60.999 -124l29.5 -36l30.5 -38l69.5 57c23.667 18.667 43.167 35.334 58.5 50.001c30 28.667 48.333 59.834 55 93.501s4.5 64.667 -6.5 93
s-29.5 52 -55.5 71s-56 28.5 -90 28.5zM418.006 611.996c-19.333 -15.333 -39.334 -32.834 -60.001 -52.501s-40 -41 -58 -64s-34 -47.5 -48 -73.5s-23.667 -52.5 -29 -79.5s-5.66602 -54.333 -0.999023 -82s16.334 -54.834 35.001 -81.501
c12 -17.333 28.667 -32.666 50 -45.999s45.5 -23.666 72.5 -30.999s56 -11.5 87 -12.5s62.667 2 95 9s64.166 18.333 95.499 34s61 36.5 89 62.5z" />
    <glyph glyph-name="quotesingle" unicode="'" horiz-adv-x="401" 
d="M88 760l80 444h137v-131l-147 -313h-70v0z" />
    <glyph glyph-name="parenleft" unicode="(" horiz-adv-x="641" 
d="M635 -257c-9.33301 -2 -22 -3.16797 -38 -3.50098s-29.333 -0.5 -40 -0.5c-67.333 0 -125 15 -173 45s-87.667 77 -119 141s-54.333 146.167 -69 246.5s-22 220.5 -22 360.5c0 140.667 7.33301 259.5 22 356.5s37.667 175.333 69 235s71 102.667 119 129
s105.667 39.5 173 39.5c10.667 0 24 -0.5 40 -1.5s28.667 -2.5 38 -4.5v-51c-40.667 -2.66699 -75.834 -9.16699 -105.501 -19.5s-55 -26.166 -76 -47.499s-38.167 -49.166 -51.5 -83.499s-23.666 -77 -30.999 -128s-12.333 -111.5 -15 -181.5s-4 -151 -4 -243
c0 -137.333 3.33301 -252.333 10 -345s20 -167.334 40 -224.001s48.5 -98 85.5 -124s86.167 -41 147.5 -45v-51z" />
    <glyph glyph-name="parenright" unicode=")" horiz-adv-x="659" 
d="M2 -206c60.667 4 109.667 19.001 147 45.001s66 67.333 86 124s33.333 131.334 40 224.001s10 207.667 10 345c0 92 -1.33301 173 -4 243s-7.66699 130.5 -15 181.5s-17.666 93.667 -30.999 128s-30.5 62.166 -51.5 83.499s-46.333 37.166 -76 47.499
s-64.834 16.833 -105.501 19.5v51c9.33301 2 22 3.5 38 4.5s29.333 1.5 40 1.5c66.667 0 124.167 -13.167 172.5 -39.5s88.166 -69.333 119.499 -129s54.333 -138 69 -235s22 -215.833 22 -356.5c0 -140 -7.33301 -260.167 -22 -360.5s-37.667 -182.5 -69 -246.5
s-71.166 -111 -119.499 -141s-105.833 -45 -172.5 -45c-10.667 0 -24 0.166992 -40 0.5s-28.667 1.5 -38 3.5v51v0z" />
    <glyph glyph-name="asterisk" unicode="*" horiz-adv-x="797" 
d="M63 1196l48 143l231 -98l-20 250h145l-25 -248l238 96l45 -143l-250 -55l172 -189l-119 -86l-136 212l-132 -212l-117 86l166 192z" />
    <glyph glyph-name="plus" unicode="+" horiz-adv-x="942" 
d="M883 464h-344v-342h-123v342h-344v125h344v344h123v-344h344v-125z" />
    <glyph glyph-name="comma" unicode="," horiz-adv-x="438" 
d="M111 -282l76 472h131v-140l-140 -332h-67v0z" />
    <glyph glyph-name="hyphen" unicode="-" horiz-adv-x="803" 
d="M688 601v-140h-588v140h588z" />
    <glyph glyph-name="period" unicode="." horiz-adv-x="483" 
d="M139 0v197h203v-197h-203z" />
    <glyph glyph-name="slash" unicode="/" horiz-adv-x="549" 
d="M94 -261h-91l454 1553h90l-453 -1553v0z" />
    <glyph glyph-name="zero" unicode="0" horiz-adv-x="878" 
d="M436 1067c108 0 190.667 -29.5 248 -88.5s86 -145.5 86 -259.5v-371c0 -115.333 -28.667 -203.333 -86 -264s-140 -91 -248 -91s-190.667 30.333 -248 91s-86 148.667 -86 264v371c0 114 28.667 200.5 86 259.5s140 88.5 248 88.5zM436 130
c25.333 0 47.833 5.16504 67.5 15.498s36.167 24.333 49.5 42s23.333 38.334 30 62.001s9.66699 49.167 9 76.5v417c0.666992 26 -2.33301 50.333 -9 73s-16.667 42.334 -30 59.001s-29.833 29.667 -49.5 39s-42.167 14 -67.5 14c-49.333 0 -87.5 -16.333 -114.5 -49
s-40.5 -78 -40.5 -136v-417c0 -25.333 3.5 -49.833 10.5 -73.5s17.167 -44.5 30.5 -62.5s29.5 -32.5 48.5 -43.5s40.833 -16.5 65.5 -16.5z" />
    <glyph glyph-name="one" unicode="1" horiz-adv-x="534" 
d="M73 142h122.001v658h-117v107c18.667 0 35.834 2.16699 51.501 6.5s29.667 10.333 42 18s23.166 16.5 32.499 26.5s17.666 20 24.999 30c16.667 24 29 51.333 37 82h111v-928h106v-142h-410v142z" />
    <glyph glyph-name="two" unicode="2" horiz-adv-x="803" 
d="M723 143v-143.001h-649l133.5 207l116 176.5l103 157.5l93.5 149c14.667 25.333 23.5 51.5 26.5 78.5s0.333008 51.833 -8 74.5s-22.5 41.834 -42.5 57.501s-45.333 25.167 -76 28.5c-35.333 4 -63.5 -0.333008 -84.5 -13s-37.333 -30.167 -49 -52.5
s-19.167 -47.5 -22.5 -75.5s-4.66602 -55.667 -3.99902 -83h-178c-4.66699 60.667 0.666016 113.667 15.999 159s38.333 83 69 113s68 52.5 112 67.5s92.333 22.5 145 22.5c64 0 119.5 -14 166.5 -42s81.333 -65.833 103 -113.5s28.667 -103 21 -166
s-34.167 -129.833 -79.5 -200.5l-88.5 -133l-88.5 -130l-96 -139h361z" />
    <glyph glyph-name="three" unicode="3" horiz-adv-x="828" 
d="M350 606c20.667 0.666992 43.3311 3.50098 67.998 8.50098s47.334 13.667 68.001 26s38 29.5 52 51.5s21 50.667 21 86s-4.83301 63.666 -14.5 84.999s-22 37.5 -37 48.5s-31.167 18.167 -48.5 21.5s-33.333 5 -48 5c-28 0 -51 -4.66699 -69 -14s-32.167 -22 -42.5 -38
s-17.666 -34.667 -21.999 -56s-6.83301 -44 -7.5 -68h-172c-4 44.667 -0.833008 85.667 9.5 123s28.166 69.5 53.499 96.5s58.5 48 99.5 63s90.5 22.5 148.5 22.5c46 0 88.5 -4.66699 127.5 -14s72.667 -24.333 101 -45s50.333 -47.334 66 -80.001
s23.5 -72.334 23.5 -119.001c0 -68 -17.333 -123.667 -52 -167s-85 -72.333 -151 -87c32.667 -7.33301 62 -19.166 88 -35.499s48.167 -36.166 66.5 -59.499s32.333 -49.333 42 -78s14.5 -59 14.5 -91c0 -52 -8.33301 -96.667 -25 -134s-39.5 -68.333 -68.5 -93
s-63.5 -42.834 -103.5 -54.501s-83 -17.5 -129 -17.5s-89.667 7.16699 -131 21.5s-76.666 35 -105.999 62s-51 60 -65 99s-17 83.167 -9 132.5h174c-2 -23.333 -1.16699 -45.5 2.5 -66.5s11 -39.5 22 -55.5s25.833 -28.667 44.5 -38s42 -14 70 -14c18.667 0 37 2.66699 55 8
s34 14.333 48 27s25.333 29.667 34 51s13 48 13 80c0 32.667 -5.33301 61.334 -16 86.001s-25.5 45.167 -44.5 61.5s-41.333 29 -67 38s-53.5 14.167 -83.5 15.5v106z" />
    <glyph glyph-name="four" unicode="4" horiz-adv-x="815" 
d="M763 402v-147h-103v-255h-171v255h-473l365 806h193l-295 -659h215v180h166v-180h103v0z" />
    <glyph glyph-name="five" unicode="5" horiz-adv-x="875" 
d="M586 725c36 -12 66.002 -29.668 90.002 -53.001s43.167 -51.333 57.5 -84s24.333 -69.167 30 -109.5s8.5 -83.5 8.5 -129.5c0 -56 -7.66699 -106.167 -23 -150.5s-37.5 -81.666 -66.5 -111.999s-64.5 -53.5 -106.5 -69.5s-89.333 -24 -142 -24
c-51.333 0 -96.666 7.33301 -135.999 22s-72.166 35.5 -98.499 62.5s-45.833 59.167 -58.5 96.5s-18 79 -16 125h172c0 -20.667 3 -40.834 9 -60.501s15.167 -37.167 27.5 -52.5s27.5 -27.666 45.5 -36.999s39 -14 63 -14c22.667 0 44 3.16699 64 9.5
s37.167 17.833 51.5 34.5s25.666 39.5 33.999 68.5s12.5 65.833 12.5 110.5c0 89.333 -14.333 154.5 -43 195.5s-68.334 61.5 -119.001 61.5c-32.667 0 -62.334 -7 -89.001 -21s-46 -38 -58 -72h-168v539h622v-143h-449v-233c9.33301 12 23.166 23 41.499 33
s40 17.5 65 22.5s52.667 6.5 83 4.5s62.5 -8.66699 96.5 -20z" />
    <glyph glyph-name="six" unicode="6" horiz-adv-x="760" 
d="M377 -7c-42 0 -81.668 6.83887 -119.001 20.5059s-70.333 32.667 -99 57s-51.667 53.166 -69 86.499s-27 69.666 -29 108.999c-1.33301 19.333 -1.66602 38.666 -0.999023 57.999s3.33398 39.666 8.00098 60.999s11.834 44.5 21.501 69.5s22.834 53.167 39.501 84.5
c6.66699 14 16.167 32 28.5 54l41.5 73.5l49 85.5l51 89l127 220h192l-280 -469c11.333 3.33301 25.166 5.66602 41.499 6.99902s35.166 1 56.499 -1c33.333 -4 65.333 -13.333 96 -28s57.667 -34.667 81 -60s42 -56.333 56 -93s21 -79.334 21 -128.001
c0 -39.333 -8.5 -77 -25.5 -113s-39.833 -67.5 -68.5 -94.5s-61.834 -48.5 -99.501 -64.5s-77.5 -24 -119.5 -24zM373.999 472.006c-24.667 0 -46.5 -4.5 -65.5 -13.5s-35 -21.333 -48 -37s-22.833 -33.834 -29.5 -54.501s-10 -42.667 -10 -66
c0 -24 3.33301 -46.167 10 -66.5s16.5 -38 29.5 -53s29 -26.667 48 -35s40.833 -12.5 65.5 -12.5c22 0 42.5 4.16699 61.5 12.5s35.333 20 49 35s24.334 32.667 32.001 53s11.5 42.5 11.5 66.5c0 23.333 -3.83301 45.333 -11.5 66s-18.334 38.834 -32.001 54.501
s-30 28 -49 37s-39.5 13.5 -61.5 13.5z" />
    <glyph glyph-name="seven" unicode="7" horiz-adv-x="764" 
d="M356 0h-191l317 913h-391v148h617l-352 -1061v0z" />
    <glyph glyph-name="eight" unicode="8" horiz-adv-x="864" 
d="M613 596c53.333 -28 95.5049 -66.001 126.505 -114.001s46.5 -102.333 46.5 -163c0 -46.667 -8.83301 -89.834 -26.5 -129.501s-42.334 -74 -74.001 -103s-69.334 -51.833 -113.001 -68.5s-91.167 -25 -142.5 -25c-52 0 -100.167 8.33301 -144.5 25
s-82.5 39.5 -114.5 68.5s-57 63.333 -75 103s-27 82.834 -27 129.501c0 30 4.16699 58.833 12.5 86.5s20.166 53.334 35.499 77.001s33.666 45 54.999 64s44.666 35.5 69.999 49.5c-36.667 23.333 -66.5 52 -89.5 86s-34.5 73.667 -34.5 119c0 38 7.66699 73.167 23 105.5
s36.833 60.166 64.5 83.499s60.5 41.666 98.5 54.999s80 20 126 20c44.667 0 86 -6.66699 124 -20s70.667 -31.666 98 -54.999s48.666 -51.166 63.999 -83.499s23 -67.5 23 -105.5c0 -45.333 -11.167 -85 -33.5 -119s-53.166 -62.667 -92.499 -86zM430.005 926.999
c-48 0 -84.833 -12.333 -110.5 -37s-38.5 -57.667 -38.5 -99c0 -42 12.833 -76.167 38.5 -102.5s62.5 -39.5 110.5 -39.5c47.333 0 83.5 13.167 108.5 39.5s37.5 60.5 37.5 102.5c0 41.333 -12.5 74.333 -37.5 99s-61.167 37 -108.5 37zM430.005 128.999
c26 0 50.333 4.33301 73 13s42.334 21.167 59.001 37.5s29.834 36.666 39.501 60.999s14.5 52.166 14.5 83.499c0 30.667 -4.83301 58.167 -14.5 82.5s-22.834 45 -39.501 62s-36.334 30.167 -59.001 39.5s-47 14 -73 14c-26.667 0 -51.5 -4.66699 -74.5 -14
s-43 -22.5 -60 -39.5s-30.333 -37.667 -40 -62s-14.5 -51.833 -14.5 -82.5c0 -31.333 4.83301 -59.166 14.5 -83.499s23 -44.666 40 -60.999s37 -28.833 60 -37.5s47.833 -13 74.5 -13z" />
    <glyph glyph-name="nine" unicode="9" horiz-adv-x="764" 
d="M379 1065c42 0 81.501 -6.66797 118.501 -20.001s69.667 -32 98 -56s51.166 -52.5 68.499 -85.5s27.333 -69.167 30 -108.5c0.666992 -19.333 0.666992 -38.666 0 -57.999s-3.33398 -39.833 -8.00098 -61.5s-11.667 -45 -21 -70s-22 -52.833 -38 -83.5
c-7.33301 -14 -17.333 -32 -30 -54l-42 -73.5l-49 -85.5l-51 -89l-127 -220h-193l283 471l-41.5 -7c-16.333 -2.66699 -35.166 -2.33398 -56.499 0.999023c-34 2.66699 -66.333 11 -97 25s-57.667 33.5 -81 58.5s-41.833 55.833 -55.5 92.5s-20.5 79.334 -20.5 128.001
c0 39.333 8.33301 77 25 113s39.167 67.5 67.5 94.5s61.5 48.5 99.5 64.5s78.333 24 121 24zM379.001 595.999c23.333 0 45.167 4.33496 65.5 13.002s38 20.5 53 35.5s26.667 32.667 35 53s12.5 42.166 12.5 65.499c0 47.333 -14.167 85.166 -42.5 113.499
s-69.5 42.5 -123.5 42.5c-21.333 0 -41.333 -3.83301 -60 -11.5s-34.834 -18.5 -48.501 -32.5s-24.5 -30.833 -32.5 -50.5s-12 -41.167 -12 -64.5s4 -45 12 -65s18.833 -37.333 32.5 -52s29.834 -26.167 48.501 -34.5s38.667 -12.5 60 -12.5z" />
    <glyph glyph-name="colon" unicode=":" horiz-adv-x="569" 
d="M190 618v197h203v-197h-203zM192 0v197h203v-197h-203z" />
    <glyph glyph-name="semicolon" unicode=";" horiz-adv-x="569" 
d="M190 618v197h203v-197h-203zM223 190h131v-140l-140 -332h-67z" />
    <glyph glyph-name="less" unicode="&#x3c;" horiz-adv-x="957" 
d="M52 588l817 405v-176l-617 -287l617 -284v-172l-817 405v109z" />
    <glyph glyph-name="equal" unicode="=" horiz-adv-x="930" 
d="M820 771v-137h-698v137h698zM820 411v-137h-698v137h698z" />
    <glyph glyph-name="greater" unicode="&#x3e;" horiz-adv-x="979" 
d="M896 479l-817 -405v172l617 284l-617 287v176l817 -405v-109z" />
    <glyph glyph-name="question" unicode="?" horiz-adv-x="848" 
d="M430 1280c62 0 114.167 -8.66895 156.5 -26.002s76.5 -40.666 102.5 -69.999s44.667 -63 56 -101s17 -78 17 -120c0 -45.333 -6.5 -84 -19.5 -116s-29.5 -61 -49.5 -87s-41.5 -50.667 -64.5 -74s-44.5 -48.666 -64.5 -75.999s-36.667 -58.5 -50 -93.5
s-20.333 -77.167 -21 -126.5h-128c-6 48.667 -4.5 91.834 4.5 129.501s22 72.167 39 103.5s36 60.333 57 87s41 53.334 60 80.001s34.833 54.167 47.5 82.5s19 59.5 19 93.5c0 24.667 -2 48 -6 70s-12 41.167 -24 57.5s-28.667 29.166 -50 38.499s-49 14 -83 14
c-40 0 -73.333 -5.83301 -100 -17.5s-47.5 -29 -62.5 -52s-24.833 -51.5 -29.5 -85.5s-5.66699 -73.333 -3 -118h-167c-4.66699 54 -2.5 105.667 6.5 155s27.333 92.666 55 129.999s66 67 115 89s111.167 33 186.5 33zM328 -0.00195312v197h203v-197h-203z" />
    <glyph glyph-name="at" unicode="@" horiz-adv-x="1450" 
d="M862 -203c-93.333 -17.333 -178.331 -23.1641 -254.998 -17.4971s-145.5 20.5 -206.5 44.5s-114.167 55.667 -159.5 95s-83 84 -113 134s-52.333 104.167 -67 162.5s-22 118.166 -22 179.499s7.16699 121.166 21.5 179.499s35.333 113 63 164
s61.834 97.833 102.501 140.5s87.334 79.5 140.001 110.5s111.167 55 175.5 72s133.833 25.5 208.5 25.5c106 0 199.167 -13.5 279.5 -40.5s147.5 -65.833 201.5 -116.5s94.833 -112.5 122.5 -185.5s42.167 -155.167 43.5 -246.5c0 -68 -9.16699 -132 -27.5 -192
s-43 -113 -74 -159s-67 -83.5 -108 -112.5s-84.5 -45.833 -130.5 -50.5c-37.333 -4 -70 -2.33301 -98 5s-51.667 18.833 -71 34.5s-34.166 35 -44.499 58s-15.833 48.5 -16.5 76.5c-20.667 -24.667 -45 -42.834 -73 -54.501s-61.667 -16.834 -101 -15.501
c-41.333 0.666992 -78.666 8 -111.999 22s-60 36.833 -80 68.5s-32 72.667 -36 123s3 112.166 21 185.499c14 56.667 31.5 104.167 52.5 142.5s45.333 68.833 73 91.5s58.834 38.334 93.501 47.001s72.667 11.667 114 9c47.333 -3.33301 82.5 -14.5 105.5 -33.5
s38.833 -47.167 47.5 -84.5l9 35.5l7 26.5c2.66699 8.66699 4.66699 16.667 6 24h113l-59 -212l-23.5 -84.5l-21.5 -80.5l-18.5 -68.5c-5.66699 -20.333 -9.83398 -36.166 -12.501 -47.499c-9.33301 -32.667 -13.166 -60.667 -11.499 -84s7.5 -42 17.5 -56
s23.667 -23.833 41 -29.5s37.666 -7.16699 60.999 -4.5c34.667 2.66699 66.167 17.167 94.5 43.5s52.666 59.333 72.999 99s36.166 83.834 47.499 132.501s17 97 17 145c-0.666992 88 -12.834 163 -36.501 225s-57.834 112.833 -102.501 152.5s-99.167 68.5 -163.5 86.5
s-137.5 27 -219.5 27c-78 0 -152.5 -14.333 -223.5 -43s-133.5 -69 -187.5 -121s-97 -114.5 -129 -187.5s-48 -153.833 -48 -242.5s11.167 -168.334 33.5 -239.001s60.166 -129 113.499 -175s124.666 -77.667 213.999 -95s201 -17 335 1zM877.002 442.002
c23.333 87.333 24.5 151.501 3.5 192.501s-60.5 61.5 -118.5 61.5c-23.333 0 -45.666 -4.33301 -66.999 -13s-41.333 -22.667 -60 -42s-35.5 -44.666 -50.5 -75.999s-28.167 -69.333 -39.5 -114c-12 -47.333 -17.167 -89 -15.5 -125s8.66699 -66 21 -90s29.5 -42 51.5 -54
s47.333 -17.333 76 -16c28 1.33301 51.667 7.66602 71 18.999s36.166 28 50.499 50s27.5 50.167 39.5 84.5s24.667 75.166 38 122.499z" />
    <glyph glyph-name="A" unicode="A" horiz-adv-x="1124" 
d="M475 1278h178l504 -1278h-188l-140 387h-530l-141 -387h-187zM346 518h436l-219 608z" />
    <glyph glyph-name="B" unicode="B" horiz-adv-x="1151" 
d="M772 696c48.667 -7.33301 89.8271 -20.667 123.494 -40s60.834 -44 81.501 -74s35.667 -65 45 -105s14 -84.333 14 -133c0 -115.333 -32.667 -201.5 -98 -258.5s-162.333 -85.5 -291 -85.5h-489v1278h506c49.333 0 94.333 -7.16699 135 -21.5s75.334 -34.333 104.001 -60
s50.834 -56.334 66.501 -92.001s23.5 -74.834 23.5 -117.501c0 -41.333 -3.66699 -78.166 -11 -110.499s-19.666 -60.666 -36.999 -84.999s-40.166 -44.333 -68.499 -60s-63.166 -27.5 -104.499 -35.5zM321.993 753.999l293.999 -0.000976562
c36.667 0 69.167 5.33301 97.5 16s52 25.5 71 44.5s33.333 41.333 43 67s14.5 53.5 14.5 83.5c0 28.667 -4.16699 55.167 -12.5 79.5s-21.166 45.333 -38.499 63s-39.833 31.334 -67.5 41.001s-60.5 14.5 -98.5 14.5h-303v-409zM652.992 122.998
c35.333 0 67.333 5.00098 96 15.001s53 25.5 73 46.5s35.5 47.167 46.5 78.5s16.5 68.666 16.5 111.999c0 42.667 -5.83301 80 -17.5 112s-28 58.5 -49 79.5s-46.167 36.667 -75.5 47s-62 15.5 -98 15.5h-323v-506h331z" />
    <glyph glyph-name="C" unicode="C" horiz-adv-x="1178" 
d="M606 109c91.333 0 164.668 23.333 220.001 70s89.333 120.667 102 222h168c-10 -74.667 -28.167 -138 -54.5 -190s-60.333 -94.167 -102 -126.5s-90.334 -55.666 -146.001 -69.999s-118.167 -21.5 -187.5 -21.5c-76 0 -143 10 -201 30s-107.167 50.667 -147.5 92
s-71.5 93.5 -93.5 156.5s-34.333 137.833 -37 224.5c-2 40 -3 85 -3 135s1 99.667 3 149c5.33301 167.333 48.333 293.333 129 378s197.334 127 350.001 127c65.333 0 125.666 -6.83301 180.999 -20.5s103.833 -35.334 145.5 -65.001s76 -68 103 -115
s45.167 -104.167 54.5 -171.5h-168c-16.667 90.667 -52 155.5 -106 194.5s-124 58.5 -210 58.5c-99.333 0 -174.166 -29.833 -224.499 -89.5s-79.166 -145.5 -86.499 -257.5c-1.33301 -25.333 -2.33301 -53 -3 -83s-1 -60.5 -1 -91.5s0.333008 -61.833 1 -92.5
s1.66699 -59.667 3 -87c5.33301 -114 33.666 -201.833 84.999 -263.5s126.666 -92.5 225.999 -92.5z" />
    <glyph glyph-name="D" unicode="D" horiz-adv-x="1167" 
d="M567 1278c70 0 131.331 -7.16699 183.998 -21.5s97.834 -34.833 135.501 -61.5s68.667 -59 93 -97s43.5 -80.667 57.5 -128s23.833 -98.833 29.5 -154.5s8.5 -114.5 8.5 -176.5c0 -94 -6.66699 -180 -20 -258s-38.5 -145.333 -75.5 -202s-88.667 -100.667 -155 -132
s-152.166 -47 -257.499 -47h-413v1278h413zM542.998 131c57.333 0 106.166 5.99902 146.499 17.999s74 28.833 101 50.5s48.167 47.834 63.5 78.501s26.666 64.834 33.999 102.501s12 78.334 14 122.001s3 89.167 3 136.5s-1 92.833 -3 136.5s-6.66699 84.5 -14 122.5
s-18.666 72.667 -33.999 104s-36.5 58.166 -63.5 80.499s-60.667 39.666 -101 51.999s-89.166 18.5 -146.499 18.5h-219v-1022h219z" />
    <glyph glyph-name="E" unicode="E" horiz-adv-x="1022" 
d="M154 0v1278h774v-133h-604v-395h522v-132h-522v-485h604v-133h-774v0z" />
    <glyph glyph-name="F" unicode="F" horiz-adv-x="963" 
d="M139 0v1278h768l-2 -133h-596v-395h496v-132h-496v-618h-170v0z" />
    <glyph glyph-name="G" unicode="G" horiz-adv-x="1176" 
d="M659 668l408.001 -0.00195312v-168c0 -166 -41 -292 -123 -378s-200.667 -129 -356 -129c-153.333 0 -269 40.667 -347 122s-121.333 205.333 -130 372c-0.666992 14.667 -1.16699 35.167 -1.5 61.5s-0.666016 54.333 -0.999023 84s-0.333008 58.5 0 86.5
s1.16602 51 2.49902 69c3.33301 88 15.666 163.333 36.999 226s51.833 114.334 91.5 155.001s88.5 70.5 146.5 89.5s125.333 28.5 202 28.5c69.333 0 131.666 -6.83301 186.999 -20.5s103 -35.334 143 -65.001s72.167 -68.167 96.5 -115.5s40.5 -105 48.5 -173h-174
c-7.33301 90.667 -36.333 157.167 -87 199.5s-121.334 63.5 -212.001 63.5c-50 0 -93.167 -5.83301 -129.5 -17.5s-66.666 -31 -90.999 -58s-43.333 -62.667 -57 -107s-22.834 -99.166 -27.501 -164.499c-1.33301 -25.333 -2.5 -53.5 -3.5 -84.5s-1.5 -62.667 -1.5 -95
s0.5 -64.5 1.5 -96.5s2.16699 -61.333 3.5 -88c3.33301 -55.333 11.833 -105.166 25.5 -149.499s32.834 -82.166 57.501 -113.499s55.334 -55.333 92.001 -72s80 -25 130 -25c54 0 100.833 8.66699 140.5 26s72.5 41.833 98.5 73.5s45.167 69.667 57.5 114
s18.5 93.166 18.5 146.499v76h-246v127z" />
    <glyph glyph-name="H" unicode="H" horiz-adv-x="1243" 
d="M913 709v569h170v-1278h-170v571h-596v-571h-170v1278h170v-569h596v0z" />
    <glyph glyph-name="I" unicode="I" horiz-adv-x="508" 
d="M174 0v1278h168v-1278h-168v0z" />
    <glyph glyph-name="J" unicode="J" horiz-adv-x="592" 
d="M276 1278h169.999v-991c0 -54 -4.5 -99.333 -13.5 -136s-22.667 -66.167 -41 -88.5s-41 -38.333 -68 -48s-58.5 -14.5 -94.5 -14.5h-266v133h193c20.667 0 38.667 1.66699 54 5s27.833 10.5 37.5 21.5s16.834 26.5 21.501 46.5s7 47 7 81v991z" />
    <glyph glyph-name="K" unicode="K" horiz-adv-x="1057" 
d="M1015 1278l-508 -580l547 -698h-203l-524 674l524 604h164zM154 1278h170v-1278h-170v1278z" />
    <glyph glyph-name="L" unicode="L" horiz-adv-x="881" 
d="M324 1278v-1145h557v-133h-727v1278h170v0z" />
    <glyph glyph-name="M" unicode="M" horiz-adv-x="1421" 
d="M713 472l313 806h246v-1278h-162v1116l-291 -801h-213l-291 801v-1116h-161v1278h247l312 -806v0z" />
    <glyph glyph-name="N" unicode="N" horiz-adv-x="1241" 
d="M930 208v1070h166v-1278h-232l-543 1093v-1093h-167v1278h239l537 -1070v0z" />
    <glyph glyph-name="O" unicode="O" horiz-adv-x="1188" 
d="M598 1287c152.667 0 269.331 -42.667 349.998 -128s123.667 -211.666 129 -378.999c1.33301 -49.333 2 -99 2 -149s-0.666992 -95 -2 -135c-7.33301 -173.333 -51.5 -300.5 -132.5 -381.5s-197.167 -121.5 -348.5 -121.5c-76 0 -143 10 -201 30
s-107.167 50.667 -147.5 92s-71.666 93.5 -93.999 156.5s-35.166 137.833 -38.499 224.5c-1.33301 40 -2 85 -2 135s0.666992 99.667 2 149c5.33301 167.333 49 293.666 131 378.999s199.333 128 352 128zM906.997 465c0.666992 27.333 1.5 56.332 2.5 86.999
s1.5 61.5 1.5 92.5s-0.333008 61.5 -1 91.5s-1.66699 57.667 -3 83c-3.33301 56 -12 105.667 -26 149s-33.833 79.833 -59.5 109.5s-57.167 52.334 -94.5 68.001s-81 23.5 -131 23.5c-100.667 0 -176 -30.5 -226 -91.5s-78.333 -147.167 -85 -258.5
c-1.33301 -25.333 -2.33301 -53 -3 -83s-1 -60.5 -1 -91.5s0.333008 -61.833 1 -92.5s1.66699 -59.667 3 -87c4 -113.333 31.667 -201 83 -263s127.333 -93 228 -93s176.667 31 228 93s79 149.667 83 263z" />
    <glyph glyph-name="P" unicode="P" horiz-adv-x="1051" 
d="M524 1278c69.333 0 131.5 -7.16895 186.5 -21.502s101.5 -37.166 139.5 -68.499s67 -72.166 87 -122.499s30 -111.833 30 -184.5c0 -73.333 -11.833 -134.666 -35.5 -183.999s-55.667 -88.833 -96 -118.5s-87.333 -50.834 -141 -63.501s-110.5 -19 -170.5 -19h-194v-496
h-176v1278h370zM506 620.998c20 0 41.334 0.831055 64.001 2.49805s45.167 5.5 67.5 11.5s43.666 14.833 63.999 26.5s38.333 27.334 54 47.001s28.167 44.167 37.5 73.5s14 65 14 107c0 62.667 -9.83301 111.834 -29.5 147.501s-44.5 62 -74.5 79s-62.667 27.5 -98 31.5
s-68.333 6 -99 6h-176v-532h176z" />
    <glyph glyph-name="Q" unicode="Q" horiz-adv-x="1231" 
d="M608 1288c152.667 0 269.501 -42.834 350.501 -128.501s124.833 -212.167 131.5 -379.5c1.33301 -49.333 2 -99 2 -149s-0.666992 -95 -2 -135c-4 -79.333 -15.5 -148.166 -34.5 -206.499s-45.5 -107.5 -79.5 -147.5s-75.5 -71.167 -124.5 -93.5
s-105.5 -36.5 -169.5 -42.5c16 -1.33301 33.167 -3.16602 51.5 -5.49902s36.833 -4.83301 55.5 -7.5s36.667 -5.66699 54 -9s32.666 -7 45.999 -11l63.5 -18.5l56.5 -17.5l56 -17l-43 -131l-178 62l-79.5 27.5l-82.5 29.5l-81 29.5l-75 27.5l-80.5 30
c-31 11.333 -63.5 27.333 -97.5 48c-68.667 38 -121.5 94.167 -158.5 168.5s-57.833 169.166 -62.5 284.499c-2 40 -3 85 -3 135s1 99.667 3 149c5.33301 167.333 48.5 293.833 129.5 379.5s198.167 128.5 351.5 128.5zM920.001 464.999c0.666992 27.333 1.5 56.333 2.5 87
s1.5 61.5 1.5 92.5s-0.333008 61.5 -1 91.5s-1.66699 57.667 -3 83c-7.33301 111.333 -36 197.5 -86 258.5s-125.333 91.5 -226 91.5c-100 0 -175.333 -30.5 -226 -91.5s-79 -147.167 -85 -258.5c-2 -25.333 -3.33301 -53 -4 -83s-1 -60.5 -1 -91.5s0.5 -61.833 1.5 -92.5
s2.16699 -59.667 3.5 -87c4 -113.333 31.833 -201.5 83.5 -264.5s127.5 -94.5 227.5 -94.5c99.333 0 174.833 31.5 226.5 94.5s80.167 151.167 85.5 264.5z" />
    <glyph glyph-name="R" unicode="R" horiz-adv-x="1065" 
d="M950 887c0 -65.333 -9 -120.832 -27 -166.499s-42.667 -83.5 -74 -113.5s-68.333 -52.833 -111 -68.5s-88.667 -25.834 -138 -30.501l327 -508h-194l-301 504h-108v-504h-170v1278h356c60 0 116.667 -6.66699 170 -20s100 -35.333 140 -66s71.667 -71 95 -121
s35 -111.333 35 -184zM502 616.001c32.667 0 66.167 2.33008 100.5 6.99707s65.5 16.334 93.5 35.001s50.833 46 68.5 82s26.5 85.667 26.5 149c0 42.667 -4.16699 78.834 -12.5 108.501s-19.833 54.334 -34.5 74.001s-31.5 35.167 -50.5 46.5s-39.333 20 -61 26
s-43.667 9.66699 -66 11s-43.833 2 -64.5 2h-178v-541h178z" />
    <glyph glyph-name="S" unicode="S" horiz-adv-x="973" 
d="M481 1296c67.333 0 126.499 -8.83496 177.499 -26.502s93.667 -43 128 -76s59.833 -73.167 76.5 -120.5s24.667 -100.666 24 -159.999h-164c0 36.667 -4.83301 71.334 -14.5 104.001s-24.5 61 -44.5 85s-45.167 43 -75.5 57s-66.166 21 -107.499 21
c-31.333 0 -60.833 -4.66699 -88.5 -14s-52 -22.333 -73 -39s-37.5 -36.5 -49.5 -59.5s-18 -47.833 -18 -74.5s4.66699 -50.834 14 -72.501s25 -42.5 47 -62.5s50.833 -40.333 86.5 -61s79.834 -43.334 132.501 -68.001c48 -22 93.5 -45.833 136.5 -71.5
s80.5 -55.167 112.5 -88.5s57.333 -71.166 76 -113.499s28 -91.166 28 -146.499c0 -51.333 -10.833 -97.166 -32.5 -137.499s-51.167 -74.333 -88.5 -102s-80.666 -48.834 -129.999 -63.501s-101.666 -22 -156.999 -22c-52 0 -102.833 7 -152.5 21s-93.667 36.167 -132 66.5
s-68.833 69.166 -91.5 116.499s-33 104.666 -31 171.999h170c0 -44.667 7.16699 -82.667 21.5 -114s32.666 -57 54.999 -77s47.666 -34.667 75.999 -44s56.5 -14 84.5 -14c77.333 0 136.333 18.833 177 56.5s61 91.167 61 160.5c0 36 -6.5 67.833 -19.5 95.5
s-31 52.667 -54 75s-50.667 42.833 -83 61.5s-67.5 36.667 -105.5 54c-62.667 28.667 -116.834 56.834 -162.501 84.501s-83.5 56.334 -113.5 86.001s-52.333 61.5 -67 95.5s-22 71.667 -22 113c0 44.667 9.83301 85.5 29.5 122.5s47 68.833 82 95.5s76.5 47.5 124.5 62.5
s100.333 22.5 157 22.5z" />
    <glyph glyph-name="T" unicode="T" horiz-adv-x="889" 
d="M18 1145v133h852v-133h-344v-1145h-164l-2 1145h-342v0z" />
    <glyph glyph-name="U" unicode="U" horiz-adv-x="1167" 
d="M862 1278h176.002v-795c0 -165.333 -37.833 -288.333 -113.5 -369s-189.834 -121 -342.501 -121c-151.333 0 -265 40.333 -341 121s-114 203.667 -114 369v795h174v-813c0 -50 5.33301 -95.833 16 -137.5s27.5 -77.167 50.5 -106.5s52.167 -52.166 87.5 -68.499
s77.666 -24.5 126.999 -24.5s91.666 8.16699 126.999 24.5s64.333 39.166 87 68.499s39.334 64.833 50.001 106.5s16 87.5 16 137.5v813z" />
    <glyph glyph-name="V" unicode="V" horiz-adv-x="975" 
d="M483 188l316 1090h186l-420 -1278h-162l-421 1278h188l313 -1090v0z" />
    <glyph glyph-name="W" unicode="W" horiz-adv-x="1563" 
d="M1151 180l266 1098h178l-356 -1278h-178l-279 1100l-278 -1100h-178l-357 1278h178l267 -1098l266 1098h203l268 -1098v0z" />
    <glyph glyph-name="X" unicode="X" horiz-adv-x="924" 
d="M737 1278h187l-361 -639l361 -639h-187l-274 510l-275 -510h-186l363 639l-363 639h186l275 -510l274 510v0z" />
    <glyph glyph-name="Y" unicode="Y" horiz-adv-x="846" 
d="M422 696l272 582h183l-373 -729v-549h-162v549l-373 729h187l266 -582v0z" />
    <glyph glyph-name="Z" unicode="Z" horiz-adv-x="956" 
d="M889 1278l-584 -1145h559v-133h-803l582 1145h-558l1 133h803v0z" />
    <glyph glyph-name="bracketleft" unicode="[" horiz-adv-x="569" 
d="M502 1194h-144v-1354h144v-100h-275v1552h275v-98v0z" />
    <glyph glyph-name="backslash" unicode="\" horiz-adv-x="548" 
d="M455 -261l-453 1553h90l454 -1553h-91v0z" />
    <glyph glyph-name="bracketright" unicode="]" horiz-adv-x="569" 
d="M53 1194v98h275v-1552h-275v100h144v1354h-144v0z" />
    <glyph glyph-name="asciicircum" unicode="^" horiz-adv-x="720" 
d="M390 1066l306 -355h-126l-207 247l-195 -247h-132l305 355h49z" />
    <glyph glyph-name="underscore" unicode="_" horiz-adv-x="1139" 
d="M1138 145v-145h-1138v145h1138z" />
    <glyph glyph-name="grave" unicode="`" horiz-adv-x="428" 
d="M92 760l80 444h137v-131l-147 -313h-70v0z" />
    <glyph glyph-name="a" unicode="a" horiz-adv-x="956" 
d="M358 -18c-52 0 -96.666 7.00098 -133.999 21.001s-67.833 33.5 -91.5 58.5s-41.167 54.167 -52.5 87.5s-17 69.666 -17 108.999c0 79.333 24.167 143 72.5 191s123.833 83.333 226.5 106l101 21.5l93.5 19.5l78 16.5c23 5 41.5 9.16699 55.5 12.5c0 34 -3 62.667 -9 86
s-15.667 42 -29 56s-30.5 24 -51.5 30s-46.5 9 -76.5 9c-12 0 -26.833 -0.333008 -44.5 -1s-36.834 -1.66699 -57.501 -3s-42 -2.83301 -64 -4.5s-43.667 -3.5 -65 -5.5l-158 -13l-8 133c67.333 4.66699 129.666 8.66699 186.999 12
c24.667 1.33301 49.334 2.83301 74.001 4.5l69 4.5c21.333 1.33301 40.333 2.33301 57 3s29 1 37 1c64.667 0 116.167 -9.16699 154.5 -27.5s67.833 -44.5 88.5 -78.5s34.167 -75.167 40.5 -123.5s9.5 -102.5 9.5 -162.5v-545h-154v152
c-36 -58.667 -82.5 -101.667 -139.5 -129s-121.167 -41 -192.5 -41zM406.001 444.001c-56.667 -15.333 -102.331 -38.167 -136.998 -68.5s-52 -67.5 -52 -111.5c0 -22 3 -42.667 9 -62s15.5 -36.333 28.5 -51s29.667 -26.167 50 -34.5s45.166 -12.5 74.499 -12.5
c54 0 100.5 7.33301 139.5 22s71.167 34 96.5 58s44.166 51.333 56.499 82s18.5 62 18.5 94v156l-129 -33z" />
    <glyph glyph-name="b" unicode="b" horiz-adv-x="987" 
d="M555 -8c-24.667 0 -50.002 2.33105 -76.002 6.99805s-51.167 12.667 -75.5 24s-46.666 26.333 -66.999 45s-36.833 41.667 -49.5 69v-137h-154v1278h154v-474c16.667 28 35.5 50.833 56.5 68.5s43 31.667 66 42s46.833 17.5 71.5 21.5s49.334 6 74.001 6
c30 0 60 -3 90 -9s58.667 -16.167 86 -30.5s52.666 -33.5 75.999 -57.5s43.666 -54 60.999 -90s31 -78.667 41 -128s15 -106.666 15 -171.999c0 -66 -5 -123.167 -15 -171.5s-23.667 -89.666 -41 -123.999s-37.666 -62.333 -60.999 -84s-48.666 -38.667 -75.999 -51
s-56 -20.833 -86 -25.5s-60 -7 -90 -7zM282.998 458.998c0 -64.667 6.33301 -118.666 19 -161.999s29.834 -78 51.501 -104s47.167 -44.5 76.5 -55.5s60.666 -16.5 93.999 -16.5c34 0 65.833 4.16699 95.5 12.5s55.5 24.833 77.5 49.5s39.333 59 52 103s19 101.667 19 173
s-6.33301 130 -19 176s-30 82.167 -52 108.5s-47.833 44.666 -77.5 54.999s-61.5 15.5 -95.5 15.5c-33.333 0 -64.666 -6 -93.999 -18s-54.833 -31.833 -76.5 -59.5s-38.834 -64.167 -51.501 -109.5s-19 -101.333 -19 -168z" />
    <glyph glyph-name="c" unicode="c" horiz-adv-x="901" 
d="M840 305c-14.667 -99.333 -51.332 -175.833 -109.999 -229.5s-144.334 -80.5 -257.001 -80.5c-61.333 0 -116.666 8.66699 -165.999 26s-91.666 45.166 -126.999 83.499s-62.5 87.833 -81.5 148.5s-28.5 134.667 -28.5 222c0 86.667 9.5 159.834 28.5 219.501
s46.167 107.834 81.5 144.501s77.666 63 126.999 79s104.666 24 165.999 24c56 0 105 -5.33301 147 -16s77.833 -27.667 107.5 -51s53.5 -53.166 71.5 -89.499s31 -80.5 39 -132.5h-176c-2 18.667 -7.16699 38 -15.5 58s-20.166 38.167 -35.499 54.5
s-34.333 29.666 -57 39.999s-49.667 15.5 -81 15.5c-40 0 -74.833 -6.5 -104.5 -19.5s-54.334 -33.333 -74.001 -61s-34.334 -63 -44.001 -106s-14.5 -94.833 -14.5 -155.5c0 -120.667 19.333 -209.334 58 -266.001s98.334 -85 179.001 -85c33.333 0 61.833 5 85.5 15
s43.167 23.333 58.5 40s26.833 35.667 34.5 57s12.5 43 14.5 65h174v0z" />
    <glyph glyph-name="d" unicode="d" horiz-adv-x="1006" 
d="M713 137c-12.667 -27.333 -29.1719 -50.335 -49.5049 -69.002s-42.666 -33.5 -66.999 -44.5s-49.833 -18.833 -76.5 -23.5s-52.667 -7 -78 -7c-30 0 -59.667 2.33301 -89 7s-57.666 13.167 -84.999 25.5s-52.666 29.333 -75.999 51s-43.5 49.5 -60.5 83.5
s-30.5 75.167 -40.5 123.5s-15 105.5 -15 171.5c0 98 10.667 178.333 32 241s49.333 112.334 84 149.001s73.834 62 117.501 76s87.834 21 132.501 21c25.333 0 50.5 -1.66699 75.5 -5s49.167 -9.66602 72.5 -18.999s45.333 -22.5 66 -39.5s39.667 -39.5 57 -67.5v467h153
v-1278h-153v137zM472.995 120.998c34 0 65.833 5.49902 95.5 16.499s55.5 29.5 77.5 55.5s39.333 60.667 52 104s19 97.333 19 162c0 66.667 -6.33301 123 -19 169s-30 83.333 -52 112s-47.833 49.334 -77.5 62.001s-61.5 19 -95.5 19c-33.333 0 -64.666 -5.5 -93.999 -16.5
s-55 -30.167 -77 -57.5s-39.333 -64.333 -52 -111s-19 -105.667 -19 -177s6.33301 -129 19 -173s30 -78.333 52 -103s47.667 -41.167 77 -49.5s60.666 -12.5 93.999 -12.5z" />
    <glyph glyph-name="e" unicode="e" horiz-adv-x="936" 
d="M848 287c-15.333 -99.333 -53 -173.162 -113 -221.495s-146 -72.5 -258 -72.5c-61.333 0 -116.833 8 -166.5 24s-92 42.167 -127 78.5s-62 84.166 -81 143.499s-28.5 132.666 -28.5 219.999c0 86.667 9.5 160.667 28.5 222s46 111.166 81 149.499s77.333 66.333 127 84
s105.167 26.5 166.5 26.5c55.333 0 106.333 -9.33301 153 -28s87 -48.834 121 -90.501s60.667 -96 80 -163s29 -148.5 29 -244.5h-627c6.66699 -102.667 30.667 -177.834 72 -225.501s98.666 -71.5 171.999 -71.5c33.333 0 62.5 4.66699 87.5 14s45.833 21.833 62.5 37.5
s29.334 33.667 38.001 54s13.667 41.5 15 63.5h168zM477 817.004c-74.667 0 -132.667 -22.667 -174 -68s-64.666 -119.333 -69.999 -222h463c-4 56.667 -11.833 103.667 -23.5 141s-26.834 67 -45.501 89s-40.667 37.5 -66 46.5s-53.333 13.5 -84 13.5z" />
    <glyph glyph-name="f" unicode="f" horiz-adv-x="588" 
d="M170 802l-130.999 -0.000976562v127h131v70c0 54.667 6.16699 99.834 18.5 135.501s28.5 64.167 48.5 85.5s42.333 36.333 67 45s49.667 13 75 13h192v-123h-143c-14 0 -27.333 -1.5 -40 -4.5s-23.834 -8.66699 -33.501 -17s-17.5 -20.333 -23.5 -36s-9 -36.167 -9 -61.5
v-107h198v-127h-196v-802h-154v802z" />
    <glyph glyph-name="g" unicode="g" horiz-adv-x="979" 
d="M532 -172c30 2 55.998 5.99707 77.998 11.9971s40.333 15.333 55 28s25.667 29.334 33 50.001s11.666 46.667 12.999 78l2 149c-17.333 -27.333 -36.833 -50.5 -58.5 -69.5s-44.5 -34.167 -68.5 -45.5s-48.833 -19.5 -74.5 -24.5s-50.834 -7.5 -75.501 -7.5
c-45.333 0 -89.5 6.33301 -132.5 19s-81.333 36.334 -115 71.001s-60.834 82.667 -81.501 144s-31 141 -31 239c0 65.333 4.66699 122.333 14 171s22.333 90.334 39 125.001s36.5 63 59.5 85s47.833 39.333 74.5 52s54.667 21.5 84 26.5s59 7.5 89 7.5
c24.667 0 50.334 -2.5 77.001 -7.5s52.334 -13.167 77.001 -24.5s47.334 -26.333 68.001 -45s37.667 -41.334 51 -68.001v135h149v-848c0 -70.667 -5.33301 -129.167 -16 -175.5s-28.167 -83.333 -52.5 -111s-56.166 -47.5 -95.499 -59.5s-87.666 -19 -144.999 -21
c-36.667 -1.33301 -72.667 -1.66602 -108 -0.999023s-67 1.66699 -95 3l-94 6l8 121c32.667 -4 65 -7.33301 97 -10c28 -2.66699 57.667 -4.5 89 -5.5s60 -0.5 86 1.5zM474.998 122.997c33.333 0 64.666 5.50195 93.999 16.502s55 29.667 77 56s39.333 61.5 52 105.5
s19 99.333 19 166c0 56.667 -6.33301 106.667 -19 150s-30 79.666 -52 108.999s-47.667 51.5 -77 66.5s-60.666 22.5 -93.999 22.5c-34 0 -65.833 -6 -95.5 -18s-55.5 -31.5 -77.5 -58.5s-39.333 -62.833 -52 -107.5s-19 -99.334 -19 -164.001
c0 -71.333 6.33301 -129.333 19 -174s30 -79.667 52 -105s47.833 -42.5 77.5 -51.5s61.5 -13.5 95.5 -13.5z" />
    <glyph glyph-name="h" unicode="h" horiz-adv-x="1028" 
d="M535 811c-32 0 -62.499 -5.33203 -91.499 -15.999s-54.333 -26.5 -76 -47.5s-38.834 -46.833 -51.501 -77.5s-19 -65.667 -19 -105v-565h-156v1278h156v-447c30.667 33.333 69.834 59.166 117.501 77.499s101.167 27.5 160.5 27.5c58.667 0 109.667 -10 153 -30
s79 -47.5 107 -82.5s48.833 -75.833 62.5 -122.5s20.5 -96.667 20.5 -150v-551h-154v565c0 39.333 -6 74.333 -18 105s-28.333 56.5 -49 77.5s-44.834 36.833 -72.501 47.5s-57.5 16 -89.5 16z" />
    <glyph glyph-name="i" unicode="i" horiz-adv-x="451" 
d="M143 1120v158h162v-158h-162zM143 0v928h162v-928h-162z" />
    <glyph glyph-name="j" unicode="j" horiz-adv-x="457" 
d="M311 1120h-153v158h153v-158zM311 -10c0 -76.667 -10.166 -136.167 -30.499 -178.5s-47.5 -71.333 -81.5 -87s-73.333 -20.167 -118 -13.5s-91.334 21 -140.001 43l34 103c24.667 -15.333 48 -24.5 70 -27.5s41.333 0.5 58 10.5s30 27 40 51s15 55.667 15 95v942h153
v-938z" />
    <glyph glyph-name="k" unicode="k" horiz-adv-x="848" 
d="M127 1278h154v-797v-481h-154v1278zM438 492l416 -492h-180l-391 481l391 447h155z" />
    <glyph glyph-name="l" unicode="l" horiz-adv-x="475" 
d="M342 0c-25.333 0 -49.667 2.66699 -73 8s-44.333 16.5 -63 33.5s-33.5 41.833 -44.5 74.5s-16.5 76 -16.5 130v1032h152v-1032c0 -25.333 2 -45.5 6 -60.5s9.66699 -26.333 17 -34s16.333 -12.667 27 -15s22.667 -3.5 36 -3.5h74v-133h-115z" />
    <glyph glyph-name="m" unicode="m" horiz-adv-x="1569" 
d="M1126 936c56 0 104.331 -10 144.998 -30s74.334 -47.5 101.001 -82.5s46.334 -75.833 59.001 -122.5s19 -96.667 19 -150v-551h-154v565c0 39.333 -5.33301 74.333 -16 105s-25.334 56.5 -44.001 77.5s-41 36.833 -67 47.5s-54 16 -84 16
c-29.333 0 -57.166 -5.33301 -83.499 -16s-49.333 -26.5 -69 -47.5s-35.334 -46.833 -47.001 -77.5s-17.5 -65.667 -17.5 -105v-565h-155v565c0 39.333 -5.16699 74.333 -15.5 105s-24.833 56.5 -43.5 77.5s-40.834 36.833 -66.501 47.5s-53.5 16 -83.5 16
s-58.333 -5.33301 -85 -16s-50 -26.5 -70 -47.5s-35.667 -46.833 -47 -77.5s-17 -65.667 -17 -105v-565h-154v928h154v-107c26.667 36 61.334 64.167 104.001 84.5s94 30.5 154 30.5c72 0 131.167 -16 177.5 -48s81.833 -74.667 106.5 -128
c25.333 55.333 62.833 98.5 112.5 129.5s111.834 46.5 186.501 46.5z" />
    <glyph glyph-name="n" unicode="n" horiz-adv-x="1051" 
d="M764 0l0.000976562 565c0 39.333 -6 74.333 -18 105s-28.333 56.5 -49 77.5s-44.834 36.833 -72.501 47.5s-57.5 16 -89.5 16s-62.333 -5.33301 -91 -16s-53.834 -26.5 -75.501 -47.5s-39 -46.833 -52 -77.5s-19.5 -65.667 -19.5 -105v-565h-155v928h155v-109
c28 38 65.333 67 112 87s102.334 30 167.001 30c58.667 0 109.5 -10 152.5 -30s78.5 -47.5 106.5 -82.5s48.833 -75.833 62.5 -122.5s20.5 -96.667 20.5 -150v-551h-154z" />
    <glyph glyph-name="o" unicode="o" horiz-adv-x="944" 
d="M471 -7c-113.333 0 -201.833 29.833 -265.5 89.5s-98.167 152.167 -103.5 277.5c-1.33301 29.333 -2 62.5 -2 99.5s0.666992 73.5 2 109.5c4.66699 122 38.834 214.333 102.501 277s152.5 94 266.5 94c114.667 0 204.167 -31.667 268.5 -95s98.5 -155.333 102.5 -276
c1.33301 -36 2 -72.5 2 -109.5s-0.666992 -70.167 -2 -99.5c-6.66699 -126 -41.334 -218.667 -104.001 -278s-151.667 -89 -267 -89zM260 578c-2 -34 -2.83203 -70.167 -2.49902 -108.5s1.16602 -76.166 2.49902 -113.499c3.33301 -76.667 22.333 -136.334 57 -179.001
s86 -64 154 -64s119.333 21.333 154 64s53.667 102.334 57 179.001c2 37.333 3 75.166 3 113.499s-1 74.5 -3 108.5c-4 76.667 -23.167 135.667 -57.5 177s-85.5 62 -153.5 62s-118.833 -20.667 -152.5 -62s-53.167 -100.333 -58.5 -177z" />
    <glyph glyph-name="p" unicode="p" horiz-adv-x="1028" 
d="M930 474c0 -98 -10.8281 -178.33 -32.4951 -240.997s-49.834 -111.834 -84.501 -147.501s-74.167 -60.167 -118.5 -73.5s-88.833 -20 -133.5 -20c-24.667 0 -49.334 2.16699 -74.001 6.5s-48.5 12 -71.5 23s-45 25.5 -66 43.5s-39.833 41 -56.5 69v-394h-146v1188h146
v-142c12.667 27.333 29.167 50.166 49.5 68.499s42.666 33.166 66.999 44.499s49.5 19.333 75.5 24s51.333 7 76 7c30 0 60 -2.16699 90 -6.5s58.667 -12.5 86 -24.5s52.666 -28.667 75.999 -50s43.666 -49 60.999 -83s31 -74.833 41 -122.5s15 -104.167 15 -169.5z
M295.005 468.003c0 -66.667 6.5 -122.168 19.5 -166.501s30.5 -79.666 52.5 -105.999s47.667 -45 77 -56s60.333 -16.5 93 -16.5s63.334 4.66699 92.001 14s53.834 26.666 75.501 51.999s38.667 60.333 51 105s18.5 102.667 18.5 174c0 72 -6.16699 129.833 -18.5 173.5
s-29.333 77.334 -51 101.001s-46.834 39.334 -75.501 47.001s-59.334 11.5 -92.001 11.5s-63.667 -5.33301 -93 -16s-55 -28.667 -77 -54s-39.5 -59.333 -52.5 -102s-19.5 -96.334 -19.5 -161.001z" />
    <glyph glyph-name="q" unicode="q" horiz-adv-x="1007" 
d="M721 135c-17.333 -28 -36.332 -51 -56.999 -69s-42.5 -32.5 -65.5 -43.5s-46.833 -18.667 -71.5 -23s-49.334 -6.5 -74.001 -6.5c-45.333 0 -90 6.66699 -134 20s-83.167 37.666 -117.5 72.999s-62.166 84.333 -83.499 147s-32 143 -32 241
c0 65.333 4.83301 122 14.5 170s23.167 89.167 40.5 123.5s37.666 62.5 60.999 84.5s48.5 39.333 75.5 52s55.5 21.334 85.5 26.001s60 7 90 7c24.667 0 50.167 -2.83301 76.5 -8.5s51.5 -14.5 75.5 -26.5s46.167 -27.5 66.5 -46.5s36.833 -42.167 49.5 -69.5v142h149v-1188
h-149v395zM479.001 124c32.667 0 63.5 5.50098 92.5 16.501s54.167 29.667 75.5 56s38.333 61.5 51 105.5s19 99.333 19 166c0 64.667 -6.33301 118.667 -19 162s-29.667 78.166 -51 104.499s-46.5 45.166 -75.5 56.499s-59.833 17 -92.5 17s-63.334 -4.33301 -92.001 -13
s-53.834 -25.167 -75.501 -49.5s-38.667 -58.666 -51 -102.999s-18.5 -102.5 -18.5 -174.5c0 -71.333 6.16699 -129.333 18.5 -174s29.333 -79.667 51 -105s46.834 -42.5 75.501 -51.5s59.334 -13.5 92.001 -13.5z" />
    <glyph glyph-name="r" unicode="r" horiz-adv-x="626" 
d="M532 928c13.333 1.33301 26.1641 1.66504 38.4971 0.998047s23.166 -1.66699 32.499 -3c10.667 -1.33301 20.334 -2.66602 29.001 -3.99902l-6 -150l-31 2c-9.33301 0.666992 -19.5 1 -30.5 1s-21.167 -0.333008 -30.5 -1c-40.667 -2 -75.667 -10.667 -105 -26
s-53.666 -35.5 -72.999 -60.5s-33.666 -54 -42.999 -87s-14.333 -67.833 -15 -104.5v-496h-162v928h162v-199c8 22.667 19.333 45.5 34 68.5s31.834 43.833 51.501 62.5s42 34.334 67 47.001s52.167 19.667 81.5 21z" />
    <glyph glyph-name="s" unicode="s" horiz-adv-x="786" 
d="M374 108c24.667 0 47.834 1.33301 69.501 4s40.667 8.33398 57 17.001s29.166 21 38.499 37s14 37.667 14 65c0 26 -3.83301 47.333 -11.5 64s-19.334 31.167 -35.001 43.5s-35.5 24.333 -59.5 36s-52.333 26.167 -85 43.5l-106.5 57c-33 18 -61.667 38.167 -86 60.5
s-43.666 48.166 -57.999 77.499s-21.5 65.333 -21.5 108c0 33.333 8 63.666 24 90.999s37.667 50.833 65 70.5s59.5 34.834 96.5 45.501s76.167 16 117.5 16c42 0 82 -5 120 -15s71.5 -25.667 100.5 -47s51.667 -48.5 68 -81.5s24.166 -72.5 23.499 -118.5h-144
c0 18 -4.33301 36.333 -13 55s-20.5 35.5 -35.5 50.5s-32.667 27.333 -53 37s-42.5 14.5 -66.5 14.5c-26 0 -48.5 -4.33301 -67.5 -13s-34.667 -19.834 -47 -33.501s-21.5 -29.334 -27.5 -47.001s-9 -35.5 -9 -53.5c0 -18.667 4.66699 -35.5 14 -50.5
s23.166 -29.5 41.499 -43.5s40.833 -28 67.5 -42s57.334 -29 92.001 -45l94.5 -46c30.333 -15.333 57.166 -33.333 80.499 -54s42 -45 56 -73s21 -62 21 -102c0 -40.667 -8.33301 -76.167 -25 -106.5s-39.667 -55.666 -69 -75.999s-64.333 -35.666 -105 -45.999
s-85 -15.5 -133 -15.5c-89.333 0 -160.666 22.5 -213.999 67.5s-83.666 109.167 -90.999 192.5h157c3.33301 -44 17.5 -79 42.5 -105s59.167 -39 102.5 -39z" />
    <glyph glyph-name="t" unicode="t" horiz-adv-x="592" 
d="M393 0c-25.333 0 -50.168 2.66699 -74.501 8s-46 16.5 -65 33.5s-34.333 41.833 -46 74.5s-17.5 76 -17.5 130v555h-139v127h139v235h158v-235h158v-127h-158v-557c0 -25.333 2 -45.5 6 -60.5s9.83301 -26.333 17.5 -34s16.834 -12.667 27.501 -15s23 -3.5 37 -3.5h84
v-131h-127z" />
    <glyph glyph-name="u" unicode="u" horiz-adv-x="1028" 
d="M735 0l-0.00195312 101c-52 -72.667 -142 -109 -270 -109c-59.333 0 -110.666 9.5 -153.999 28.5s-79 45 -107 78s-48.833 72 -62.5 117s-20.5 93.833 -20.5 146.5v566h162v-578c0 -40 5.66699 -75.5 17 -106.5s27 -57 47 -78s43.5 -36.833 70.5 -47.5s56.5 -16 88.5 -16
s61.833 5.33301 89.5 16s51.834 26.5 72.501 47.5s37 47 49 78s18 66.5 18 106.5v578h164v-928h-164z" />
    <glyph glyph-name="v" unicode="v" horiz-adv-x="782" 
d="M472 0h-164l-323 928h182l223 -747l221 747h183l-322 -928v0z" />
    <glyph glyph-name="w" unicode="w" horiz-adv-x="1280" 
d="M1010 0h-164l-205 761l-205 -761h-164l-282 928h178l186 -722l185 722h204l185 -722l186 722h178l-282 -928v0z" />
    <glyph glyph-name="x" unicode="x" horiz-adv-x="739" 
d="M170 0h-176l272 489l-272 439h176l195 -351l192 351h178l-274 -439l274 -489h-178l-192 400l-195 -400v0z" />
    <glyph glyph-name="y" unicode="y" horiz-adv-x="797" 
d="M250 -260l121 362l-375 826h176l267 -620l194 620h153l-378 -1188h-158v0z" />
    <glyph glyph-name="z" unicode="z" horiz-adv-x="670" 
d="M635 0h-617l409 801h-384v127h616l-408 -801h384v-127v0z" />
    <glyph glyph-name="braceleft" unicode="{" horiz-adv-x="651" 
d="M418 721c0 -18.667 -2.5 -37.998 -7.5 -57.998s-13.5 -39 -25.5 -57s-28 -33.667 -48 -47s-45 -22.333 -75 -27c29.333 -4.66699 54 -13.5 74 -26.5s36 -28.5 48 -46.5s20.667 -37 26 -57s8 -39.333 8 -58v-215c0 -50.667 1.83301 -96.834 5.5 -138.501
s12.667 -77.667 27 -108s36.166 -54.5 65.499 -72.5s69.666 -28.333 120.999 -31v-45c-53.333 -8 -101.333 -7.66699 -144 1s-79.167 27.834 -109.5 57.501s-53.666 70.667 -69.999 123s-24.5 118.166 -24.5 197.499v249c1.33301 25.333 -1.66699 48 -9 68
c-6.66699 17.333 -18.5 33 -35.5 47s-42.5 21 -76.5 21v69c34 0 59.5 6.83301 76.5 20.5s28.833 29.167 35.5 46.5c7.33301 20 10.333 42.667 9 68v250c0 79.333 8.16699 145.166 24.5 197.499s39.666 93.333 69.999 123s66.833 48.834 109.5 57.501s90.667 9 144 1v-45
c-51.333 -3.33301 -91.666 -13.833 -120.999 -31.5s-51.166 -41.667 -65.499 -72s-23.333 -66.333 -27 -108s-5.5 -87.834 -5.5 -138.501v-215v0z" />
    <glyph glyph-name="bar" unicode="|" horiz-adv-x="532" 
d="M305 -261h-82v1552h82v-1552z" />
    <glyph glyph-name="braceright" unicode="}" horiz-adv-x="618" 
d="M221 936c0 50.667 -1.83301 96.832 -5.5 138.499s-12.667 77.667 -27 108s-36.166 54.333 -65.499 72s-69.666 28.167 -120.999 31.5v45c52.667 8 100.5 7.66699 143.5 -1s79.667 -27.834 110 -57.501s53.666 -70.667 69.999 -123s24.5 -118.166 24.5 -197.499v-250
c-1.33301 -25.333 1.66699 -48 9 -68c6.66699 -17.333 18.334 -32.833 35.001 -46.5s42.334 -20.5 77.001 -20.5v-69c-17.333 0 -32.333 -2 -45 -6s-23.334 -9.16699 -32.001 -15.5s-15.834 -13.5 -21.501 -21.5s-10.167 -16.333 -13.5 -25
c-7.33301 -20 -10.333 -42.667 -9 -68v-249c0 -79.333 -8.16699 -145.166 -24.5 -197.499s-39.666 -93.333 -69.999 -123s-67 -48.834 -110 -57.501s-90.833 -9 -143.5 -1v45c51.333 2.66699 91.666 13 120.999 31s51.166 42.167 65.499 72.5s23.333 66.333 27 108
s5.5 87.834 5.5 138.501v215c0 18.667 2.66699 38 8 58s14 39 26 57s28 33.5 48 46.5s44.667 21.833 74 26.5c-30 4.66699 -55 13.667 -75 27s-36 29 -48 47s-20.5 37 -25.5 57s-7.5 39.333 -7.5 58v215z" />
    <glyph glyph-name="asciitilde" unicode="~" horiz-adv-x="553" 
d="M25 575l26.5039 30.0029c9 10 19 19.333 30 28s23.667 15.667 38 21s31.166 8 50.499 8c26 0 48.167 -4.16699 66.5 -12.5s35 -17.5 50 -27.5l42.5 -27.5c13.333 -8.33301 28 -12.5 44 -12.5c19.333 0 36 2.5 50 7.5s26.167 11.5 36.5 19.5s19.666 16.667 27.999 26
l24.5 27v-99c-8 -9.33301 -15.667 -19 -23 -29s-16 -19 -26 -27s-21.667 -14.667 -35 -20s-29.666 -8 -48.999 -8c-24.667 0 -44.334 4.66699 -59.001 14s-28.834 19.666 -42.501 30.999s-28.334 21.666 -44.001 30.999s-36.834 14 -63.501 14
c-21.333 0 -39.333 -3.16699 -54 -9.5s-27.5 -14.333 -38.5 -24s-20.667 -19.834 -29 -30.501s-16.166 -20 -23.499 -28v98z" />
    <glyph glyph-name="nonbreakingspace" unicode="&#xa0;" horiz-adv-x="533" 
 />
    <glyph glyph-name="exclamdown" unicode="&#xa1;" horiz-adv-x="465" 
d="M143 -217l-4 468l38 409h123l30 -409l4 -468h-191zM136 864v197h203v-197h-203z" />
    <glyph glyph-name="cent" unicode="&#xa2;" horiz-adv-x="868" 
d="M780 305c-13.333 -93.333 -44.166 -166.5 -92.499 -219.5s-118.5 -82.5 -210.5 -88.5v-124h-61v123c-53.333 2 -101.666 12.333 -144.999 31s-80.166 47.167 -110.499 85.5s-53.833 87.333 -70.5 147s-25 131.5 -25 215.5s8.33301 155.167 25 213.5
s40.167 105.833 70.5 142.5s67.166 63.667 110.499 81s91.666 27 144.999 29v149h61v-149c45.333 -2.66699 85.333 -10 120 -22s64.167 -29.667 88.5 -53s44.166 -52.5 59.499 -87.5s26.333 -76.833 33 -125.5h-164c-2 16.667 -6 33.834 -12 51.501s-14.5 34.167 -25.5 49.5
s-24.833 28.666 -41.5 39.999s-36 19 -58 23v-686c24 4 44.5 11.667 61.5 23s31.167 24.833 42.5 40.5s20 33 26 52s9.66699 38.5 11 58.5h162zM219 479c0 -114.667 16 -200.332 48 -256.999s81.667 -87.667 149 -93v691c-33.333 -2.66699 -62.333 -11.167 -87 -25.5
s-45.167 -35.333 -61.5 -63s-28.5 -62.334 -36.5 -104.001s-12 -91.167 -12 -148.5z" />
    <glyph glyph-name="sterling" unicode="&#xa3;" horiz-adv-x="645" 
d="M172 124l0.00195312 677.999h-122v127h122v70c0 54.667 5.83301 99.834 17.5 135.501s26.667 64.167 45 85.5s39.166 36.333 62.499 45s46.666 13 69.999 13h179v-123h-134c-12.667 0 -25 -1.5 -37 -4.5s-22.5 -8.66699 -31.5 -17s-16.167 -20.333 -21.5 -36
s-8 -36.167 -8 -61.5v-107h184v-127h-182v-678h203v-125h-422v125h75z" />
    <glyph glyph-name="currency" unicode="&#xa4;" horiz-adv-x="938" 
d="M668 373c-29.333 -23.333 -61.1699 -40.6699 -95.5029 -52.0029s-69.333 -17.166 -105 -17.499s-71.167 4.83398 -106.5 15.501s-68.333 26.667 -99 48l-110 -109l-60 59l107 109c-24 30.667 -42.5 64 -55.5 100s-19.667 72.667 -20 110s5.33398 74 17.001 110
s29.834 69.333 54.501 100l-113 112l63 62l111 -113c30.667 22.667 64 39.334 100 50.001s72.333 15.5 109 14.5s72.834 -7.66699 108.501 -20s68.5 -30.5 98.5 -54.5l104 107l60 -64l-107 -106c20.667 -30 36.167 -62.167 46.5 -96.5s15.5 -69 15.5 -104
s-5.33301 -69.5 -16 -103.5s-26.667 -65.333 -48 -94l104 -104l-61 -62zM294.996 469.996c22.667 -22 48.1699 -38.6709 76.5029 -50.0039s57 -17 86 -17s57.667 5.33301 86 16s54.166 27 77.499 49c22 22.667 38.833 48.834 50.5 78.501s17.667 60 18 91s-5 61.333 -16 91
s-27.833 56.167 -50.5 79.5c-22.667 22 -48.167 38.333 -76.5 49s-57.5 15.834 -87.5 15.501s-59.167 -6.16602 -87.5 -17.499s-53.833 -28.333 -76.5 -51s-39.334 -48.5 -50.001 -77.5s-16 -58.667 -16 -89s5.66699 -60.166 17 -89.499s27.666 -55.333 48.999 -78z" />
    <glyph glyph-name="yen" unicode="&#xa5;" horiz-adv-x="852" 
d="M342 523v26l-373 729h187l266 -612l272 612h183l-373 -729v-26h219v-109h-219v-124h219v-109h-219v-181h-162v181h-217v109h217v124h-217v109h217z" />
    <glyph glyph-name="brokenbar" unicode="&#xa6;" horiz-adv-x="301" 
d="M193 690h-82v587h82v-587zM193 -261h-82v587h82v-587z" />
    <glyph glyph-name="section" unicode="&#xa7;" horiz-adv-x="745" 
d="M395 -151c26 0 47.999 4.16797 65.999 12.501s32.5 18.666 43.5 30.999s18.833 26 23.5 41s7 29.167 7 42.5c0 31.333 -10 61.333 -30 90s-45.5 57.167 -76.5 85.5s-64.833 57 -101.5 86s-71.5 59.167 -104.5 90.5s-62.167 64.5 -87.5 99.5s-41.666 72.833 -48.999 113.5
c-5.33301 36.667 -5.5 69.667 -0.5 99s13.667 55.5 26 78.5s27.666 43.5 45.999 61.5s38.166 34 59.499 48l-55.5 50.5c-18.333 16.333 -34.833 33.166 -49.5 50.499s-26.5 35.5 -35.5 54.5s-13.5 40.167 -13.5 63.5c-1.33301 44.667 6.33398 81.834 23.001 111.501
s39.334 53.5 68.001 71.5s62.167 30.833 100.5 38.5s79.166 11.5 122.499 11.5c44.667 0 86.334 -5.83301 125.001 -17.5s72.167 -29.5 100.5 -53.5s50.166 -53.833 65.499 -89.5s22.666 -77.5 21.999 -125.5h-125c1.33301 19.333 0 40.666 -4 63.999s-12.667 45 -26 65
s-32.666 36.667 -57.999 50s-58.666 19.666 -99.999 18.999c-30 -0.666992 -57 -4.5 -81 -11.5s-44.333 -16.667 -61 -29s-29.167 -26.833 -37.5 -43.5s-11.833 -35 -10.5 -55c1.33301 -23.333 10.833 -46.666 28.5 -69.999s40.334 -47.166 68.001 -71.499
s58.667 -49 93 -74l103 -78c34.333 -27 67.333 -55.167 99 -84.5s58.5 -60.333 80.5 -93c19.333 -28.667 31.833 -60.167 37.5 -94.5s3.5 -67.833 -6.5 -100.5s-28.333 -62.5 -55 -89.5s-63 -47.5 -109 -61.5c19.333 -16.667 38.5 -35 57.5 -55s36 -41.167 51 -63.5
s27.167 -45.666 36.5 -69.999s13.666 -48.833 12.999 -73.5c-0.666992 -36.667 -9 -69.334 -25 -98.001s-37.5 -53 -64.5 -73s-58 -35.167 -93 -45.5s-71.833 -15.5 -110.5 -15.5c-48 0 -92.5 8 -133.5 24s-76 38.5 -105 67.5s-51.167 63.5 -66.5 103.5
s-21.333 84.333 -18 133h149c0 -26 2.5 -52.167 7.5 -78.5s14.167 -50 27.5 -71s31.5 -38.167 54.5 -51.5s52.5 -20 88.5 -20zM507.999 560.001c-22.667 24.667 -44.168 46.5059 -64.501 65.5059s-39.666 36 -57.999 51s-36 28.333 -53 40l-49.5 33.5
c-21.333 -13.333 -37.666 -29 -48.999 -47s-19.166 -36.333 -23.499 -55s-5.66602 -36.834 -3.99902 -54.501s5.16699 -32.834 10.5 -45.501c4.66699 -10.667 13 -23.334 25 -38.001s25.667 -30.334 41 -47.001s31.666 -33.334 48.999 -50.001l50 -47l42.5 -38.5
c12.333 -11 21.5 -18.833 27.5 -23.5c36.667 14 63.167 32.167 79.5 54.5s25.166 45.5 26.499 69.5s-2.83398 47.667 -12.501 71s-22.167 43.666 -37.5 60.999z" />
    <glyph glyph-name="dieresis" unicode="&#xa8;" horiz-adv-x="557" 
d="M70 1263c0 21.333 7.5 39.5 22.5 54.5s33.167 22.5 54.5 22.5s39.666 -7.5 54.999 -22.5s23 -33.167 23 -54.5s-7.66699 -39.666 -23 -54.999s-33.666 -23 -54.999 -23s-39.5 7.66699 -54.5 23s-22.5 33.666 -22.5 54.999zM340 1263c0 21.333 7.66699 39.5 23 54.5
s33.666 22.5 54.999 22.5s39.666 -7.5 54.999 -22.5s23 -33.167 23 -54.5s-7.66699 -39.666 -23 -54.999s-33.666 -23 -54.999 -23s-39.666 7.66699 -54.999 23s-23 33.666 -23 54.999z" />
    <glyph glyph-name="copyright" unicode="&#xa9;" horiz-adv-x="1437" 
d="M55 641c0 102 17.334 194 52.001 276s82 152 142 210s130.333 102.5 211 133.5s167 46.5 259 46.5c91.333 0 177.333 -15.5 258 -46.5s151.167 -75.5 211.5 -133.5s108 -128 143 -210s52.5 -174 52.5 -276s-17.5 -194 -52.5 -276s-82.667 -151.667 -143 -209
s-130.833 -101.5 -211.5 -132.5s-166.667 -46.5 -258 -46.5c-102 0 -193.833 15.5 -275.5 46.5s-151.334 75.167 -209.001 132.5s-102 127 -133 209s-46.5 174 -46.5 276zM174.001 639c0 -84.667 12.666 -162.167 37.999 -232.5s61.666 -130.666 108.999 -180.999
s104.833 -89.5 172.5 -117.5s143.834 -42 228.501 -42s160.334 14 227.001 42s123 67.167 169 117.5s81.167 110.666 105.5 180.999s36.5 147.833 36.5 232.5s-12.5 162.334 -37.5 233.001s-60.833 131.5 -107.5 182.5s-103.5 90.667 -170.5 119s-142.833 42.5 -227.5 42.5
s-160.5 -14.167 -227.5 -42.5s-123.833 -68 -170.5 -119s-82.5 -111.833 -107.5 -182.5s-37.5 -148.334 -37.5 -233.001zM731 324c34.667 0 63.5 3.6709 86.5 11.0039s41.667 18.833 56 34.5s25.166 35.5 32.499 59.5s12.666 53 15.999 87h98
c-4 -83.333 -30.5 -147.833 -79.5 -193.5s-118.833 -68.5 -209.5 -68.5c-92 0 -164.833 25 -218.5 75s-82.5 124.667 -86.5 224c-2 45.333 -2 97.333 0 156c3.33301 96.667 31.833 170.667 85.5 222s126.834 77 219.501 77c42.667 0 81.167 -5.5 115.5 -16.5
s63.666 -26.667 87.999 -47s43.333 -44.833 57 -73.5s21.834 -60.334 24.501 -95.001h-101c-4.66699 28 -11 52.167 -19 72.5s-19.167 37.166 -33.5 50.499s-32.166 23.166 -53.499 29.499s-47.333 9.5 -78 9.5c-38 0 -69.333 -4.83301 -94 -14.5
s-44.5 -24.334 -59.5 -44.001s-26 -44.667 -33 -75s-11.833 -65.833 -14.5 -106.5c-1.33301 -18.667 -2.16602 -32 -2.49902 -40s-0.5 -15.167 -0.5 -21.5s0.166992 -14 0.5 -23s1.16602 -23.833 2.49902 -44.5c2 -41.333 6.5 -77.333 13.5 -108s18 -56.167 33 -76.5
s35 -35.5 60 -45.5s56.5 -15 94.5 -15z" />
    <glyph glyph-name="ordfeminine" unicode="&#xaa;" horiz-adv-x="645" 
d="M255 675c-32 0 -59.665 4.33301 -82.998 13s-42.333 20.667 -57 36s-25.5 33.5 -32.5 54.5s-10.5 43.5 -10.5 67.5c0 49.333 15 88.833 45 118.5s76.667 51.5 140 65.5l62 13.5l58 12l48.5 10c14.333 3 25.833 5.5 34.5 7.5c0 42.667 -7.83301 72 -23.5 88
s-41.834 24 -78.501 24c-15.333 0 -36.333 -1 -63 -3l-80 -6l-98 -8l-5 83c42 2 80.667 4.33301 116 7c14.667 0.666992 29.667 1.5 45 2.5s29.5 2 42.5 3s24.667 1.66699 35 2s18.166 0.5 23.499 0.5c40 0 72 -5.66699 96 -17s42.333 -27.5 55 -48.5s21 -46.333 25 -76
s6 -63.167 6 -100.5v-338h-96v94c-22 -36 -50.667 -62.5 -86 -79.5s-75 -25.5 -119 -25.5zM284.002 961c-35.333 -9.33301 -63.668 -23.333 -85.001 -42s-32 -41.667 -32 -69s7.66699 -50.833 23 -70.5s41.333 -29.5 78 -29.5c33.333 0 62 4.5 86 13.5s43.833 21 59.5 36
s27.334 32 35.001 51s11.5 38.5 11.5 58.5v97c-22 -6 -48.5 -12.833 -79.5 -20.5z" />
    <glyph glyph-name="guillemotleft" unicode="&#xab;" horiz-adv-x="651" 
d="M157 1203h122v-129l-131 -309h-63zM397 1203h121v-129l-130 -309h-62z" />
    <glyph glyph-name="logicalnot" unicode="&#xac;" horiz-adv-x="833" 
d="M16 1171v108h780v-346h-105v238h-675z" />
    <glyph glyph-name="uni00AD" unicode="&#xad;" horiz-adv-x="783" 
d="M688 601v-140h-588v140h588z" />
    <glyph glyph-name="registered" unicode="&#xae;" horiz-adv-x="1446" 
d="M975 782c0 -28.667 -3.83301 -54.501 -11.5 -77.501s-18.167 -43 -31.5 -60s-28.833 -30.833 -46.5 -41.5s-36.5 -17.667 -56.5 -21l146 -310h-111l-135 301h-135v-301h-100v725h243c32.667 0 63.5 -3.83301 92.5 -11.5s54.167 -20 75.5 -37s38.333 -39.167 51 -66.5
s19 -60.666 19 -99.999zM737 648.999c6 0 16.334 0.5 31.001 1.5s29.667 5.5 45 13.5s29 21.333 41 40s18 46 18 82s-6.33301 62.833 -19 80.5s-28.334 30 -47.001 37s-38.5 10.333 -59.5 10s-39.833 -0.5 -56.5 -0.5h-96v-264h143zM55.001 640.999
c0 102 17.3301 194 51.9971 276s82 152 142 210s130.333 102.5 211 133.5s167 46.5 259 46.5c91.333 0 177.333 -15.5 258 -46.5s151.167 -75.5 211.5 -133.5s108 -128 143 -210s52.5 -174 52.5 -276s-17.5 -194 -52.5 -276s-82.667 -151.667 -143 -209
s-130.833 -101.5 -211.5 -132.5s-166.667 -46.5 -258 -46.5c-61.333 0 -120.166 7 -176.499 21s-109.166 34.167 -158.499 60.5s-94.166 58.833 -134.499 97.5s-75 82.5 -104 131.5s-51.333 103.167 -67 162.5s-23.5 123 -23.5 191zM173.998 638.999
c0 -84.667 12.5 -162.167 37.5 -232.5s60.833 -131 107.5 -182s103.5 -90.667 170.5 -119s142.833 -42.5 227.5 -42.5s160.5 14.167 227.5 42.5s123.833 68 170.5 119s82.5 111.667 107.5 182s37.5 147.833 37.5 232.5s-12.5 162.167 -37.5 232.5
s-60.833 130.833 -107.5 181.5s-103.5 90.167 -170.5 118.5s-142.833 42.5 -227.5 42.5s-160.5 -14.167 -227.5 -42.5s-123.833 -67.833 -170.5 -118.5s-82.5 -111.167 -107.5 -181.5s-37.5 -147.833 -37.5 -232.5z" />
    <glyph glyph-name="macron" unicode="&#xaf;" horiz-adv-x="1117" 
d="M1117 1283v-140h-1117v140h1117z" />
    <glyph glyph-name="degree" unicode="&#xb0;" horiz-adv-x="731" 
d="M81 1001c0 39.333 7.5 76.166 22.5 110.499s35.5 64.333 61.5 90s56.5 45.834 91.5 60.501s72.167 22 111.5 22s76.333 -7.33301 111 -22s65 -34.834 91 -60.501s46.5 -55.667 61.5 -90s22.5 -71.166 22.5 -110.499s-7.5 -76.333 -22.5 -111s-35.5 -64.834 -61.5 -90.501
s-56.333 -46 -91 -61s-71.667 -22.5 -111 -22.5s-76.5 7.5 -111.5 22.5s-65.5 35.333 -91.5 61s-46.5 55.834 -61.5 90.501s-22.5 71.667 -22.5 111zM165 1001c0 -29.333 4.83301 -56.666 14.5 -81.999s23.334 -47.333 41.001 -66s38.834 -33.334 63.501 -44.001
s52 -16 82 -16c29.333 0 56.833 5.33301 82.5 16s47.834 25.334 66.501 44.001s33.334 40.667 44.001 66s16 52.666 16 81.999c0 30 -5.33301 57.833 -16 83.5s-25.334 48.167 -44.001 67.5s-40.834 34.5 -66.501 45.5s-53.167 16.5 -82.5 16.5
c-30 0 -57.333 -5.5 -82 -16.5s-45.834 -26.167 -63.501 -45.5s-31.334 -41.833 -41.001 -67.5s-14.5 -53.5 -14.5 -83.5z" />
    <glyph glyph-name="plusminus" unicode="&#xb1;" horiz-adv-x="559" 
d="M18 606h220v203h88v-203h219v-94h-219v-219h-88v219h-220v94zM25 84h510v-84h-510v84z" />
    <glyph glyph-name="twosuperior" unicode="&#xb2;" horiz-adv-x="487" 
d="M416 765l-0.000976562 -78.998h-359l74 115l64 97.5l56.5 87l51.5 82.5c8.66699 14 13.834 28.5 15.501 43.5s0.166992 28.667 -4.5 41s-12.667 22.833 -24 31.5s-25.333 14 -42 16c-19.333 2 -34.833 -0.5 -46.5 -7.5s-20.667 -16.667 -27 -29s-10.5 -26.333 -12.5 -42
s-2.66699 -30.834 -2 -45.501h-99c-2.66699 33.333 0.333008 62.666 9 87.999s21.5 46.333 38.5 63s37.5 29.167 61.5 37.5s50.667 12.5 80 12.5c35.333 0 66.166 -7.66699 92.499 -23s45.5 -36.333 57.5 -63s15.833 -57.5 11.5 -92.5s-19.166 -71.833 -44.499 -110.5
l-49 -74l-49 -72l-53 -77h200z" />
    <glyph glyph-name="threesuperior" unicode="&#xb3;" horiz-adv-x="446" 
d="M185 1021c12 0.666992 24.6611 2.33203 37.9941 4.99902s25.833 7.5 37.5 14.5s21.334 16.667 29.001 29s11.5 28.166 11.5 47.499c0 20 -2.66699 36.167 -8 48.5s-12.166 22 -20.499 29s-17.333 11.667 -27 14s-18.5 3.5 -26.5 3.5c-15.333 0 -28 -2.83301 -38 -8.5
s-17.667 -13.334 -23 -23.001s-9.16602 -20.834 -11.499 -33.501s-3.5 -25.667 -3.5 -39h-98c-2 24.667 -0.166992 47.5 5.5 68.5s15.5 39 29.5 54s32.5 26.667 55.5 35s50.5 12.5 82.5 12.5c26 0 49.833 -2.66699 71.5 -8s40.334 -13.666 56.001 -24.999
s27.834 -26.166 36.501 -44.499s13 -40.5 13 -66.5c0 -38 -9.66699 -69 -29 -93s-47.333 -40 -84 -48c36.667 -8 65.334 -25.5 86.001 -52.5s31 -58.5 31 -94.5c0 -28.667 -4.66699 -53.5 -14 -74.5s-22 -38.167 -38 -51.5s-35 -23.333 -57 -30s-46 -10 -72 -10
s-50.5 4 -73.5 12s-42.667 19.5 -59 34.5s-28.333 33.333 -36 55s-9.16699 46.167 -4.5 73.5h96c-1.33301 -13.333 -1 -26.166 1 -38.499s6.16699 -23.166 12.5 -32.499s14.666 -17 24.999 -23s23.5 -9 39.5 -9c10 0 20 1.83301 30 5.5s19 9.33398 27 17.001
s14.333 17.667 19 30s7 27.5 7 45.5c0 36.667 -11.167 64.167 -33.5 82.5s-50.166 28.166 -83.499 29.499v59z" />
    <glyph glyph-name="acute" unicode="&#xb4;" horiz-adv-x="549" 
d="M356 1352h162l-311 -203h-113z" />
    <glyph glyph-name="mu1" unicode="&#xb5;" horiz-adv-x="948" 
d="M121 928h156.999v-578c0 -40 6 -75.5 18 -106.5s28.167 -57 48.5 -78s44.333 -36.833 72 -47.5s57.5 -16 89.5 -16s61.833 5.33301 89.5 16s51.834 26.5 72.501 47.5s37 47 49 78s18 66.5 18 106.5v578h164v-928h-164v101c-52 -72.667 -142 -109 -270 -109
c-40 0 -77.833 9 -113.5 27s-62.167 41.667 -79.5 71v-350h-150z" />
    <glyph glyph-name="paragraph" unicode="&#xb6;" horiz-adv-x="915" 
d="M657 1118l-168 0.00390625v-1118h-92v649h-28c-46.667 0 -89.334 6.66699 -128.001 20s-72 32.666 -100 57.999s-49.667 56.166 -65 92.499s-23 77.833 -23 124.5s7.66699 88.167 23 124.5s37 67.166 65 92.499s61.333 44.666 100 57.999s81.334 20 128.001 20h518v-121
h-123v-1118h-107v1118z" />
    <glyph glyph-name="periodcentered" unicode="&#xb7;" horiz-adv-x="569" 
d="M184 430v197h203v-197h-203z" />
    <glyph glyph-name="cedilla" unicode="&#xb8;" horiz-adv-x="426" 
d="M147 -334l0.00488281 64h97c28.667 0 50 6.66699 64 20s21.5 27.833 22.5 43.5s-4 30.167 -15 43.5s-27.5 20 -49.5 20h-123c-22 0 -37.833 6.33301 -47.5 19s-13.834 27.334 -12.501 44.001s7.16602 32.667 17.499 48s24.5 26 42.5 32
c-18.667 -26.667 -23 -47.334 -13 -62.001s29.333 -22 58 -22h121c20.667 0 38.667 -6.16699 54 -18.5s26.833 -27.833 34.5 -46.5s11.167 -38.667 10.5 -60s-6.33398 -41.333 -17.001 -60s-26.834 -34.167 -48.501 -46.5s-49.834 -18.5 -84.501 -18.5h-111z" />
    <glyph glyph-name="onesuperior" unicode="&#xb9;" horiz-adv-x="393" 
d="M88 761l68.001 0.000976562v368h-65v59c21.333 -0.666992 38.666 3.83301 51.999 13.5s24 20.167 32 31.5c9.33301 13.333 16.333 28.666 21 45.999h55v-518h60v-77h-223v77z" />
    <glyph glyph-name="ordmasculine" unicode="&#xba;" horiz-adv-x="642" 
d="M319 688c-71.333 0 -126.67 18.333 -166.003 55s-60.666 94.334 -63.999 173.001c-1.33301 18.667 -2 39.5 -2 62.5s0.666992 45.833 2 68.5c2.66699 76 23.834 133.5 63.501 172.5s95.167 58.5 166.5 58.5s127 -19.5 167 -58.5s61.333 -96.5 64 -172.5
c0.666992 -22.667 1 -45.5 1 -68.5s-0.333008 -43.833 -1 -62.5c-4 -78.667 -25.667 -136.334 -65 -173.001s-94.666 -55 -165.999 -55zM186.996 1052c-1.33301 -21.333 -1.83398 -43.833 -1.50098 -67.5s0.833008 -47.167 1.5 -70.5c2 -48 13.833 -85.333 35.5 -112
s53.834 -40 96.501 -40c42 0 73.833 13.333 95.5 40s33.5 64 35.5 112c1.33301 23.333 2 46.833 2 70.5s-0.666992 46.167 -2 67.5c-2.66699 48 -14.667 84.833 -36 110.5s-53 38.5 -95 38.5c-42.667 0 -74.5 -12.833 -95.5 -38.5s-33.167 -62.5 -36.5 -110.5z" />
    <glyph glyph-name="guillemotright" unicode="&#xbb;" horiz-adv-x="653" 
d="M157 1203h122v-129l-131 -309h-63zM397 1203h121v-129l-130 -309h-62z" />
    <glyph glyph-name="onequarter" unicode="&#xbc;" horiz-adv-x="1409" 
d="M157 666h80v437h-77v70c25.333 -0.666992 45.833 4.83301 61.5 16.5s28.167 24.167 37.5 37.5c10.667 16 18.667 34 24 54h65v-615h70v-92h-261v92zM503 0h-96l447 1278h95zM1299 170h-69v-170h-106v170h-314l242 535h121l-209 -444h163v126h103v-126h69v-91z" />
    <glyph glyph-name="onehalf" unicode="&#xbd;" horiz-adv-x="1413" 
d="M1238 94l-0.00292969 -94.001h-427l87.5 137l76.5 116.5l68 104l62 98.5c10 16.667 15.833 33.834 17.5 51.501s-0.166016 34 -5.49902 49s-14.666 27.667 -27.999 38s-30 16.5 -50 18.5c-23.333 2.66699 -42 -0.166016 -56 -8.49902s-24.833 -19.833 -32.5 -34.5
s-12.667 -31.167 -15 -49.5s-3.16602 -36.5 -2.49902 -54.5h-117c-3.33301 40 0.166992 74.833 10.5 104.5s25.5 54.5 45.5 74.5s44.5 35 73.5 45s60.833 15 95.5 15c42 0 78.5 -9.33301 109.5 -28s53.667 -43.667 68 -75s19 -67.833 14 -109.5
s-22.5 -85.834 -52.5 -132.501l-58 -88l-58 -86l-63 -92h237zM156.997 668.999h80v437h-77v70c25.333 -0.666992 45.833 4.83301 61.5 16.5s28.167 24.167 37.5 37.5c10.667 16 18.667 34 24 54h65v-615h70v-92h-261v92zM502.997 -0.000976562h-96l447 1278h95z" />
    <glyph glyph-name="threequarters" unicode="&#xbe;" horiz-adv-x="1413" 
d="M286 980c14 0.666992 28.9951 2.49902 44.9951 5.49902s31 8.66699 45 17s25.5 19.666 34.5 33.999s13.5 33.166 13.5 56.499s-3.16699 42.333 -9.5 57s-14.5 26 -24.5 34s-20.667 13.5 -32 16.5s-22 4.5 -32 4.5c-18 0 -32.833 -3.33301 -44.5 -10
s-20.834 -15.667 -27.501 -27s-11.334 -24.333 -14.001 -39s-4 -30 -4 -46h-116c-2.66699 29.333 -0.666992 56.333 6 81s18.334 45.834 35.001 63.501s38.667 31.5 66 41.5s60 15 98 15c30.667 0 58.834 -3.16699 84.501 -9.5s47.834 -16.333 66.501 -30
s33.167 -31.167 43.5 -52.5s15.5 -47.333 15.5 -78c0 -44.667 -11.333 -81.5 -34 -110.5s-56 -48.167 -100 -57.5c44 -9.33301 78.167 -30.166 102.5 -62.499s36.5 -69.5 36.5 -111.5c0 -34 -5.5 -63.5 -16.5 -88.5s-26.167 -45.5 -45.5 -61.5s-42 -27.833 -68 -35.5
s-54.333 -11.5 -85 -11.5c-30 0 -58.667 4.66699 -86 14s-50.666 23 -69.999 41s-33.666 39.833 -42.999 65.5s-11.333 54.834 -6 87.501h115c-1.33301 -15.333 -0.833008 -30.333 1.5 -45s7 -27.667 14 -39s16.667 -20.5 29 -27.5s27.833 -10.5 46.5 -10.5c12 0 24 2 36 6
s22.833 10.667 32.5 20s17.334 21.333 23.001 36s8.5 32.667 8.5 54c0 22 -3.66699 41 -11 57s-17.166 29.5 -29.499 40.5s-27 19.333 -44 25s-35.5 9.16699 -55.5 10.5v70zM1307 168.999h-69v-169h-105v169h-313l241 532h121l-209 -442h163v126h102v-126h69v-90z
M532.995 -0.000976562h-96l447 1278h95z" />
    <glyph glyph-name="questiondown" unicode="&#xbf;" horiz-adv-x="825" 
d="M391 -219c75.333 0 137.5 10.998 186.5 32.998s87.333 51.667 115 89s46 80.666 55 129.999s11.167 101 6.5 155h-167c2.66699 -44.667 1.5 -84 -3.5 -118s-15 -62.5 -30 -85.5s-35.667 -40.333 -62 -52s-59.5 -17.5 -99.5 -17.5c-34 0 -61.667 4.66699 -83 14
s-38 22.166 -50 38.499s-20 35.333 -24 57s-6 45.167 -6 70.5c0 34 6.33301 65.167 19 93.5s28.5 55.833 47.5 82.5s39 53.334 60 80.001s40 55.667 57 87s30 65.833 39 103.5s10.5 80.834 4.5 129.501h-128c-0.666992 -49.333 -7.66699 -91.5 -21 -126.5
s-30 -66.167 -50 -93.5s-41.5 -52.666 -64.5 -75.999s-44.5 -48 -64.5 -74s-36.5 -55 -49.5 -87s-19.5 -70.667 -19.5 -116c0 -42 5.66699 -82 17 -120s30 -71.667 56 -101s60.167 -52.666 102.5 -69.999s94.5 -26 156.5 -26zM493 1061v-197h-203v197h203z" />
    <glyph glyph-name="Agrave" unicode="&#xc0;" horiz-adv-x="1163" 
d="M491 1278h178l504 -1278h-188l-140 387h-530l-141 -387h-187zM362 518h436l-219 608zM768 1378h-113l-311 203h162z" />
    <glyph glyph-name="Aacute" unicode="&#xc1;" horiz-adv-x="1176" 
d="M475 1278h178l504 -1278h-188l-140 387h-530l-141 -387h-187zM346 518h436l-219 608zM653 1581h162l-311 -203h-113z" />
    <glyph glyph-name="Acircumflex" unicode="&#xc2;" horiz-adv-x="1153" 
d="M475 1278h178l504 -1278h-188l-140 387h-530l-141 -387h-187zM346 518h436l-219 608zM606 1647l200 -203h-90l-123 160l-143 -160h-92l221 203h27z" />
    <glyph glyph-name="Atilde" unicode="&#xc3;" horiz-adv-x="1161" 
d="M653 1278l504 -1278h-188l-140 387h-530l-141 -387h-187l504 1278h178zM782 518l-219 608l-217 -608h436zM377 1510l24.0039 26.999c8.66699 10 18.167 19.5 28.5 28.5s22 16.667 35 23s27.5 9.5 43.5 9.5c21.333 0 39.666 -3.83301 54.999 -11.5
s29.333 -16.167 42 -25.5l36 -25.5c11.333 -7.66699 23.666 -11.5 36.999 -11.5c16 0 30.167 2 42.5 6s23.5 9 33.5 15s19 12.167 27 18.5l22 17.5v-63l-19.5 -25c-7 -8.66699 -15.333 -16.834 -25 -24.501s-20.834 -14 -33.501 -19s-27 -7.5 -43 -7.5
c-20.667 0 -37.167 3.66699 -49.5 11s-24 15.5 -35 24.5s-23.167 17.333 -36.5 25s-31 11.5 -53 11.5c-17.333 0 -32.666 -3.16699 -45.999 -9.5s-25.333 -13.666 -36 -21.999s-19.834 -16.666 -27.501 -24.999s-14.834 -14.833 -21.501 -19.5v72z" />
    <glyph glyph-name="Adieresis" unicode="&#xc4;" horiz-adv-x="1153" 
d="M653 1278l504 -1278h-188l-140 387h-530l-141 -387h-187l504 1278h178zM782 518l-219 608l-217 -608h436zM365 1494c0 21.333 7.5 39.5 22.5 54.5s33.167 22.5 54.5 22.5s39.666 -7.5 54.999 -22.5s23 -33.167 23 -54.5s-7.66699 -39.666 -23 -54.999
s-33.666 -23 -54.999 -23s-39.5 7.66699 -54.5 23s-22.5 33.666 -22.5 54.999zM635 1494c0 21.333 7.66699 39.5 23 54.5s33.666 22.5 54.999 22.5s39.666 -7.5 54.999 -22.5s23 -33.167 23 -54.5s-7.66699 -39.666 -23 -54.999s-33.666 -23 -54.999 -23
s-39.666 7.66699 -54.999 23s-23 33.666 -23 54.999z" />
    <glyph glyph-name="Aring" unicode="&#xc5;" horiz-adv-x="1153" 
d="M366 1455c0 27.333 5.33398 53.001 16.001 77.001s25 45 43 63s39.167 32.333 63.5 43s50.166 16 77.499 16s53 -5.33301 77 -16s45 -25 63 -43s32.333 -39 43 -63s16 -49.667 16 -77c0 -38.667 -10.167 -74.334 -30.5 -107.001s-47.5 -56 -81.5 -70h-178
c-32 16.667 -58.167 40.667 -78.5 72s-30.5 66.333 -30.5 105zM429.001 1455c0 -18.667 3.66699 -36.334 11 -53.001s17.166 -31.167 29.499 -43.5s26.833 -22.166 43.5 -29.499s34.334 -11 53.001 -11s36.5 3.66699 53.5 11s31.667 17.166 44 29.499
s22.166 26.833 29.499 43.5s11 34.334 11 53.001s-3.66699 36.5 -11 53.5s-17.166 31.667 -29.499 44s-27 22.166 -44 29.499s-34.833 11 -53.5 11s-36.334 -3.66699 -53.001 -11s-31.167 -17.166 -43.5 -29.499s-22.166 -27 -29.499 -44s-11 -34.833 -11 -53.5z
M653.001 1278l504 -1278h-188l-140 387h-530l-141 -387h-187l504 1278h178zM782.001 518.001l-219 608l-217 -608h436z" />
    <glyph glyph-name="AE" unicode="&#xc6;" horiz-adv-x="1323" 
d="M516 1278h103v-81l-330 -742h330v-131h-385l-146 -324h-180zM619 0v1278h618v-133h-482v-395h416v-132h-416v-485h482v-133h-618z" />
    <glyph glyph-name="Ccedilla" unicode="&#xc7;" horiz-adv-x="1206" 
d="M606 106c91.333 0 164.668 23.833 220.001 71.5s89.333 122.167 102 223.5h168c-10 -74.667 -28.167 -138.167 -54.5 -190.5s-60.333 -94.833 -102 -127.5s-90.334 -56.334 -146.001 -71.001s-118.167 -22 -187.5 -22c-151.333 0 -267.5 41 -348.5 123
s-124.5 209.667 -130.5 383c-2 40 -3 85 -3 135s1 99.667 3 149c5.33301 167.333 48.333 293.833 129 379.5s197.334 128.5 350.001 128.5c65.333 0 125.666 -7 180.999 -21s103.833 -36 145.5 -66s76 -68.667 103 -116s45.167 -104.666 54.5 -171.999h-168
c-16.667 90.667 -52 156 -106 196s-124 60 -210 60c-99.333 0 -174.166 -30.333 -224.499 -91s-79.166 -147 -86.499 -259c-1.33301 -25.333 -2.33301 -53 -3 -83s-1 -60.5 -1 -91.5s0.333008 -61.833 1 -92.5s1.66699 -59.667 3 -87
c5.33301 -114 33.666 -202.333 84.999 -265s126.666 -94 225.999 -94zM500.002 -336l0.00488281 64h97c28.667 0 50 6.66699 64 20s21.5 27.833 22.5 43.5s-4 30.167 -15 43.5s-27.5 20 -49.5 20h-123c-22 0 -37.833 6.33301 -47.5 19s-13.834 27.334 -12.501 44.001
s7.16602 32.667 17.499 48s24.5 26 42.5 32c-18.667 -26.667 -23 -47.334 -13 -62.001s29.333 -22 58 -22h121c20.667 0 38.667 -6.16699 54 -18.5s26.833 -27.833 34.5 -46.5s11.167 -38.667 10.5 -60s-6.33398 -41.333 -17.001 -60s-26.834 -34.167 -48.501 -46.5
s-49.834 -18.5 -84.501 -18.5h-111z" />
    <glyph glyph-name="Egrave" unicode="&#xc8;" horiz-adv-x="1063" 
d="M154 0v1278h774v-133h-604v-395h522v-132h-522v-485h604v-133h-774zM748 1378h-113l-311 203h162z" />
    <glyph glyph-name="Eacute" unicode="&#xc9;" horiz-adv-x="1051" 
d="M154 0v1278h774v-133h-604v-395h522v-132h-522v-485h604v-133h-774zM653 1581h162l-311 -203h-113z" />
    <glyph glyph-name="Ecircumflex" unicode="&#xca;" horiz-adv-x="1057" 
d="M154 0v1278h774v-133h-604v-395h522v-132h-522v-485h604v-133h-774zM551 1647l200 -203h-90l-123 160l-143 -160h-92l221 203h27z" />
    <glyph glyph-name="Edieresis" unicode="&#xcb;" horiz-adv-x="1073" 
d="M154 1278h774v-133h-604v-395h522v-132h-522v-485h604v-133h-774v1278zM349 1494c0 21.333 7.5 39.5 22.5 54.5s33.167 22.5 54.5 22.5s39.666 -7.5 54.999 -22.5s23 -33.167 23 -54.5s-7.66699 -39.666 -23 -54.999s-33.666 -23 -54.999 -23s-39.5 7.66699 -54.5 23
s-22.5 33.666 -22.5 54.999zM619 1494c0 21.333 7.66699 39.5 23 54.5s33.666 22.5 54.999 22.5s39.666 -7.5 54.999 -22.5s23 -33.167 23 -54.5s-7.66699 -39.666 -23 -54.999s-33.666 -23 -54.999 -23s-39.666 7.66699 -54.999 23s-23 33.666 -23 54.999z" />
    <glyph glyph-name="Igrave" unicode="&#xcc;" horiz-adv-x="496" 
d="M174 0v1278h168v-1278h-168zM441 1378h-113l-311 203h162z" />
    <glyph glyph-name="Iacute" unicode="&#xcd;" horiz-adv-x="500" 
d="M174 0v1278h168v-1278h-168zM305 1581h162l-311 -203h-113z" />
    <glyph glyph-name="Icircumflex" unicode="&#xce;" horiz-adv-x="500" 
d="M174 0v1278h168v-1278h-168zM281 1647l200 -203h-90l-123 160l-143 -160h-92l221 203h27z" />
    <glyph glyph-name="Idieresis" unicode="&#xcf;" horiz-adv-x="483" 
d="M174 1278h168v-1278h-168v1278zM47 1494c0 21.333 7.5 39.5 22.5 54.5s33.167 22.5 54.5 22.5s39.666 -7.5 54.999 -22.5s23 -33.167 23 -54.5s-7.66699 -39.666 -23 -54.999s-33.666 -23 -54.999 -23s-39.5 7.66699 -54.5 23s-22.5 33.666 -22.5 54.999zM317 1494
c0 21.333 7.66699 39.5 23 54.5s33.666 22.5 54.999 22.5s39.666 -7.5 54.999 -22.5s23 -33.167 23 -54.5s-7.66699 -39.666 -23 -54.999s-33.666 -23 -54.999 -23s-39.666 7.66699 -54.999 23s-23 33.666 -23 54.999z" />
    <glyph glyph-name="Eth" unicode="&#xd0;" horiz-adv-x="1227" 
d="M238 718v559.998h380c96.667 0 175.5 -15.833 236.5 -47.5s108.5 -75.667 142.5 -132s57.167 -123.666 69.5 -201.999s18.5 -164.166 18.5 -257.499c0 -94 -6.16699 -180 -18.5 -258s-35.5 -145.333 -69.5 -202s-81.5 -100.667 -142.5 -132s-139.833 -47 -236.5 -47h-380
v578h-234v140h234zM596 130.998c53.333 0 98.5 5.99902 135.5 17.999s67.833 28.833 92.5 50.5s44 47.834 58 78.501s24.5 64.834 31.5 102.501s11.333 78.334 13 122.001s2.5 89.167 2.5 136.5s-0.833008 92.833 -2.5 136.5s-6 84.5 -13 122.5s-17.5 72.667 -31.5 104
s-33.333 58.166 -58 80.499s-55.667 39.666 -93 51.999s-82.333 18.5 -135 18.5h-202v-435h198v-140h-198v-447h202z" />
    <glyph glyph-name="Ntilde" unicode="&#xd1;" horiz-adv-x="1266" 
d="M940 1278h156v-1278h-232l-553 1143v-1143h-157v1278h239l547 -1120v1120zM414 1540l24.0039 26.999c8.66699 10 18.167 19.5 28.5 28.5s22 16.667 35 23s27.5 9.5 43.5 9.5c21.333 0 39.666 -3.83301 54.999 -11.5s29.333 -16.167 42 -25.5l36 -25.5
c11.333 -7.66699 23.666 -11.5 36.999 -11.5c16 0 30.167 2 42.5 6s23.5 9 33.5 15s19 12.167 27 18.5l22 17.5v-63l-19.5 -25c-7 -8.66699 -15.333 -16.834 -25 -24.501s-20.834 -14 -33.501 -19s-27 -7.5 -43 -7.5c-20.667 0 -37.167 3.66699 -49.5 11s-24 15.5 -35 24.5
s-23.167 17.333 -36.5 25s-31 11.5 -53 11.5c-17.333 0 -32.666 -3.16699 -45.999 -9.5s-25.333 -13.666 -36 -21.999s-19.834 -16.666 -27.501 -24.999s-14.834 -14.833 -21.501 -19.5v72z" />
    <glyph glyph-name="Ograve" unicode="&#xd2;" horiz-adv-x="1202" 
d="M598 1287c152.667 0 269.331 -42.667 349.998 -128s123.667 -211.666 129 -378.999c1.33301 -49.333 2 -99 2 -149s-0.666992 -95 -2 -135c-7.33301 -173.333 -51.5 -300.5 -132.5 -381.5s-197.167 -121.5 -348.5 -121.5c-76 0 -143 10 -201 30
s-107.167 50.667 -147.5 92s-71.666 93.5 -93.999 156.5s-35.166 137.833 -38.499 224.5c-1.33301 40 -2 85 -2 135s0.666992 99.667 2 149c5.33301 167.333 49 293.666 131 378.999s199.333 128 352 128zM906.997 465c0.666992 27.333 1.5 56.332 2.5 86.999
s1.5 61.5 1.5 92.5s-0.333008 61.5 -1 91.5s-1.66699 57.667 -3 83c-3.33301 56 -12 105.667 -26 149s-33.833 79.833 -59.5 109.5s-57.167 52.334 -94.5 68.001s-81 23.5 -131 23.5c-100.667 0 -176 -30.5 -226 -91.5s-78.333 -147.167 -85 -258.5
c-1.33301 -25.333 -2.33301 -53 -3 -83s-1 -60.5 -1 -91.5s0.333008 -61.833 1 -92.5s1.66699 -59.667 3 -87c4 -113.333 31.667 -201 83 -263s127.333 -93 228 -93s176.667 31 228 93s79 149.667 83 263zM769.997 1378h-113l-311 203h162z" />
    <glyph glyph-name="Oacute" unicode="&#xd3;" horiz-adv-x="1190" 
d="M598 1287c152.667 0 269.331 -42.667 349.998 -128s123.667 -211.666 129 -378.999c1.33301 -49.333 2 -99 2 -149s-0.666992 -95 -2 -135c-7.33301 -173.333 -51.5 -300.5 -132.5 -381.5s-197.167 -121.5 -348.5 -121.5c-76 0 -143 10 -201 30
s-107.167 50.667 -147.5 92s-71.666 93.5 -93.999 156.5s-35.166 137.833 -38.499 224.5c-1.33301 40 -2 85 -2 135s0.666992 99.667 2 149c5.33301 167.333 49 293.666 131 378.999s199.333 128 352 128zM906.997 465c0.666992 27.333 1.5 56.332 2.5 86.999
s1.5 61.5 1.5 92.5s-0.333008 61.5 -1 91.5s-1.66699 57.667 -3 83c-3.33301 56 -12 105.667 -26 149s-33.833 79.833 -59.5 109.5s-57.167 52.334 -94.5 68.001s-81 23.5 -131 23.5c-100.667 0 -176 -30.5 -226 -91.5s-78.333 -147.167 -85 -258.5
c-1.33301 -25.333 -2.33301 -53 -3 -83s-1 -60.5 -1 -91.5s0.333008 -61.833 1 -92.5s1.66699 -59.667 3 -87c4 -113.333 31.667 -201 83 -263s127.333 -93 228 -93s176.667 31 228 93s79 149.667 83 263zM646.997 1581h162l-311 -203h-113z" />
    <glyph glyph-name="Ocircumflex" unicode="&#xd4;" horiz-adv-x="1190" 
d="M598 1287c152.667 0 269.331 -42.667 349.998 -128s123.667 -211.666 129 -378.999c1.33301 -49.333 2 -99 2 -149s-0.666992 -95 -2 -135c-7.33301 -173.333 -51.5 -300.5 -132.5 -381.5s-197.167 -121.5 -348.5 -121.5c-76 0 -143 10 -201 30
s-107.167 50.667 -147.5 92s-71.666 93.5 -93.999 156.5s-35.166 137.833 -38.499 224.5c-1.33301 40 -2 85 -2 135s0.666992 99.667 2 149c5.33301 167.333 49 293.666 131 378.999s199.333 128 352 128zM906.997 465c0.666992 27.333 1.5 56.332 2.5 86.999
s1.5 61.5 1.5 92.5s-0.333008 61.5 -1 91.5s-1.66699 57.667 -3 83c-3.33301 56 -12 105.667 -26 149s-33.833 79.833 -59.5 109.5s-57.167 52.334 -94.5 68.001s-81 23.5 -131 23.5c-100.667 0 -176 -30.5 -226 -91.5s-78.333 -147.167 -85 -258.5
c-1.33301 -25.333 -2.33301 -53 -3 -83s-1 -60.5 -1 -91.5s0.333008 -61.833 1 -92.5s1.66699 -59.667 3 -87c4 -113.333 31.667 -201 83 -263s127.333 -93 228 -93s176.667 31 228 93s79 149.667 83 263zM618.997 1647l200 -203h-90l-123 160l-143 -160h-92l221 203h27z
" />
    <glyph glyph-name="Otilde" unicode="&#xd5;" horiz-adv-x="1194" 
d="M598 1287c152.667 0 269.331 -42.667 349.998 -128s123.667 -211.666 129 -378.999c1.33301 -49.333 2 -99 2 -149s-0.666992 -95 -2 -135c-7.33301 -173.333 -51.5 -300.5 -132.5 -381.5s-197.167 -121.5 -348.5 -121.5c-76 0 -143 10 -201 30
s-107.167 50.667 -147.5 92s-71.666 93.5 -93.999 156.5s-35.166 137.833 -38.499 224.5c-1.33301 40 -2 85 -2 135s0.666992 99.667 2 149c5.33301 167.333 49 293.666 131 378.999s199.333 128 352 128zM906.997 465c0.666992 27.333 1.5 56.332 2.5 86.999
s1.5 61.5 1.5 92.5s-0.333008 61.5 -1 91.5s-1.66699 57.667 -3 83c-3.33301 56 -12 105.667 -26 149s-33.833 79.833 -59.5 109.5s-57.167 52.334 -94.5 68.001s-81 23.5 -131 23.5c-100.667 0 -176 -30.5 -226 -91.5s-78.333 -147.167 -85 -258.5
c-1.33301 -25.333 -2.33301 -53 -3 -83s-1 -60.5 -1 -91.5s0.333008 -61.833 1 -92.5s1.66699 -59.667 3 -87c4 -113.333 31.667 -201 83 -263s127.333 -93 228 -93s176.667 31 228 93s79 149.667 83 263zM388.997 1540l24.0039 26.999c8.66699 10 18.167 19.5 28.5 28.5
s22 16.667 35 23s27.5 9.5 43.5 9.5c21.333 0 39.666 -3.83301 54.999 -11.5s29.333 -16.167 42 -25.5l36 -25.5c11.333 -7.66699 23.666 -11.5 36.999 -11.5c16 0 30.167 2 42.5 6s23.5 9 33.5 15s19 12.167 27 18.5l22 17.5v-63l-19.5 -25
c-7 -8.66699 -15.333 -16.834 -25 -24.501s-20.834 -14 -33.501 -19s-27 -7.5 -43 -7.5c-20.667 0 -37.167 3.66699 -49.5 11s-24 15.5 -35 24.5s-23.167 17.333 -36.5 25s-31 11.5 -53 11.5c-17.333 0 -32.666 -3.16699 -45.999 -9.5s-25.333 -13.666 -36 -21.999
s-19.834 -16.666 -27.501 -24.999s-14.834 -14.833 -21.501 -19.5v72z" />
    <glyph glyph-name="Odieresis" unicode="&#xd6;" horiz-adv-x="1190" 
d="M598 1287c152.667 0 269.331 -42.667 349.998 -128s123.667 -211.666 129 -378.999c1.33301 -49.333 2 -99 2 -149s-0.666992 -95 -2 -135c-7.33301 -173.333 -51.5 -300.5 -132.5 -381.5s-197.167 -121.5 -348.5 -121.5c-76 0 -143 10 -201 30
s-107.167 50.667 -147.5 92s-71.666 93.5 -93.999 156.5s-35.166 137.833 -38.499 224.5c-1.33301 40 -2 85 -2 135s0.666992 99.667 2 149c5.33301 167.333 49 293.666 131 378.999s199.333 128 352 128zM906.997 465c0.666992 27.333 1.5 56.332 2.5 86.999
s1.5 61.5 1.5 92.5s-0.333008 61.5 -1 91.5s-1.66699 57.667 -3 83c-3.33301 56 -12 105.667 -26 149s-33.833 79.833 -59.5 109.5s-57.167 52.334 -94.5 68.001s-81 23.5 -131 23.5c-100.667 0 -176 -30.5 -226 -91.5s-78.333 -147.167 -85 -258.5
c-1.33301 -25.333 -2.33301 -53 -3 -83s-1 -60.5 -1 -91.5s0.333008 -61.833 1 -92.5s1.66699 -59.667 3 -87c4 -113.333 31.667 -201 83 -263s127.333 -93 228 -93s176.667 31 228 93s79 149.667 83 263zM388.997 1494c0 21.333 7.5 39.5 22.5 54.5s33.167 22.5 54.5 22.5
s39.666 -7.5 54.999 -22.5s23 -33.167 23 -54.5s-7.66699 -39.666 -23 -54.999s-33.666 -23 -54.999 -23s-39.5 7.66699 -54.5 23s-22.5 33.666 -22.5 54.999zM658.997 1494c0 21.333 7.66699 39.5 23 54.5s33.666 22.5 54.999 22.5s39.666 -7.5 54.999 -22.5
s23 -33.167 23 -54.5s-7.66699 -39.666 -23 -54.999s-33.666 -23 -54.999 -23s-39.666 7.66699 -54.999 23s-23 33.666 -23 54.999z" />
    <glyph glyph-name="multiply" unicode="&#xd7;" horiz-adv-x="768" 
d="M176 818l209 -209l209 209l80 -80l-209 -209l209 -208l-80 -80l-209 208l-209 -208l-80 80l209 208l-209 209z" />
    <glyph glyph-name="Oslash" unicode="&#xd8;" horiz-adv-x="1124" 
d="M565 1287c44.667 0 86 -3.83203 124 -11.499s73.333 -18.834 106 -33.501l49 110l71 -29l-53 -120c115.333 -82.667 176 -223.667 182 -423c1.33301 -49.333 2 -99 2 -149s-0.666992 -95 -2 -135c-7.33301 -173.333 -51.5 -300.5 -132.5 -381.5
s-197.167 -121.5 -348.5 -121.5c-84.667 0 -157.667 12.333 -219 37l-68 -155l-71 31l70 159c-60 38.667 -106.167 93.334 -138.5 164.001s-50.5 159.667 -54.5 267c-1.33301 40 -2 85 -2 135s0.666992 99.667 2 149c5.33301 167.333 49 293.666 131 378.999
s199.333 128 352 128zM252 465.001c2 -57.333 9.83301 -108.167 23.5 -152.5s33.5 -81.5 59.5 -111.5l406 919c-46.667 32.667 -106 49 -178 49c-100.667 0 -176 -30.5 -226 -91.5s-78.333 -147.167 -85 -258.5c-1.33301 -25.333 -2.33301 -53 -3 -83s-1 -60.5 -1 -91.5
s0.333008 -61.833 1 -92.5s1.66699 -59.667 3 -87zM874 465c0.666992 27.333 1.49805 56.333 2.49805 87s1.5 61.5 1.5 92.5s-0.333008 61.5 -1 91.5s-1.66699 57.667 -3 83c-3.33301 51.333 -11.166 97.333 -23.499 138s-29.166 76 -50.499 106l-403 -914
c46 -26.667 101.333 -40 166 -40c100.667 0 176.667 31 228 93s79 149.667 83 263z" />
    <glyph glyph-name="Ugrave" unicode="&#xd9;" horiz-adv-x="1245" 
d="M862 1278h176.002v-795c0 -165.333 -37.833 -288.333 -113.5 -369s-189.834 -121 -342.501 -121c-151.333 0 -265 40.333 -341 121s-114 203.667 -114 369v795h174v-813c0 -50 5.33301 -95.833 16 -137.5s27.5 -77.167 50.5 -106.5s52.167 -52.166 87.5 -68.499
s77.666 -24.5 126.999 -24.5s91.666 8.16699 126.999 24.5s64.333 39.166 87 68.499s39.334 64.833 50.001 106.5s16 87.5 16 137.5v813zM736.002 1378h-113l-311 203h162z" />
    <glyph glyph-name="Uacute" unicode="&#xda;" horiz-adv-x="1233" 
d="M862 1278h176.002v-795c0 -165.333 -37.833 -288.333 -113.5 -369s-189.834 -121 -342.501 -121c-151.333 0 -265 40.333 -341 121s-114 203.667 -114 369v795h174v-813c0 -50 5.33301 -95.833 16 -137.5s27.5 -77.167 50.5 -106.5s52.167 -52.166 87.5 -68.499
s77.666 -24.5 126.999 -24.5s91.666 8.16699 126.999 24.5s64.333 39.166 87 68.499s39.334 64.833 50.001 106.5s16 87.5 16 137.5v813zM745.002 1581h162l-311 -203h-113z" />
    <glyph glyph-name="Ucircumflex" unicode="&#xdb;" horiz-adv-x="1237" 
d="M862 1278h176.002v-795c0 -165.333 -37.833 -288.333 -113.5 -369s-189.834 -121 -342.501 -121c-151.333 0 -265 40.333 -341 121s-114 203.667 -114 369v795h174v-813c0 -50 5.33301 -95.833 16 -137.5s27.5 -77.167 50.5 -106.5s52.167 -52.166 87.5 -68.499
s77.666 -24.5 126.999 -24.5s91.666 8.16699 126.999 24.5s64.333 39.166 87 68.499s39.334 64.833 50.001 106.5s16 87.5 16 137.5v813zM601.002 1647l200 -203h-90l-123 160l-143 -160h-92l221 203h27z" />
    <glyph glyph-name="Udieresis" unicode="&#xdc;" horiz-adv-x="1237" 
d="M862 1278h176.002v-795c0 -165.333 -37.833 -288.333 -113.5 -369s-189.834 -121 -342.501 -121c-151.333 0 -265 40.333 -341 121s-114 203.667 -114 369v795h174v-813c0 -50 5.33301 -95.833 16 -137.5s27.5 -77.167 50.5 -106.5s52.167 -52.166 87.5 -68.499
s77.666 -24.5 126.999 -24.5s91.666 8.16699 126.999 24.5s64.333 39.166 87 68.499s39.334 64.833 50.001 106.5s16 87.5 16 137.5v813zM365.002 1494c0 21.333 7.5 39.5 22.5 54.5s33.167 22.5 54.5 22.5s39.666 -7.5 54.999 -22.5s23 -33.167 23 -54.5
s-7.66699 -39.666 -23 -54.999s-33.666 -23 -54.999 -23s-39.5 7.66699 -54.5 23s-22.5 33.666 -22.5 54.999zM635.002 1494c0 21.333 7.66699 39.5 23 54.5s33.666 22.5 54.999 22.5s39.666 -7.5 54.999 -22.5s23 -33.167 23 -54.5s-7.66699 -39.666 -23 -54.999
s-33.666 -23 -54.999 -23s-39.666 7.66699 -54.999 23s-23 33.666 -23 54.999z" />
    <glyph glyph-name="Yacute" unicode="&#xdd;" horiz-adv-x="811" 
d="M401 666l272 612h183l-373 -729v-549h-162v549l-373 729h187zM534 1581h162l-311 -203h-113z" />
    <glyph glyph-name="Thorn" unicode="&#xde;" horiz-adv-x="889" 
d="M99 1275l154 0.000976562v-317c30 37.333 64.5 64.5 103.5 81.5s82.5 25.5 130.5 25.5c114.667 0 204.167 -31.667 268.5 -95s98.5 -155.333 102.5 -276c0 -12 0.166992 -27.167 0.5 -45.5s0.5 -38.333 0.5 -60s0.166992 -43.834 0.5 -66.501s0.333008 -44.5 0 -65.5
s-0.666016 -40 -0.999023 -57s-0.5 -30.167 -0.5 -39.5c-6.66699 -126 -41.334 -218.667 -104.001 -278s-151.667 -89 -267 -89c-48 0 -91.5 8.16699 -130.5 24.5s-73.5 42.5 -103.5 78.5v-356h-154v1535zM276 703.001c-0.666992 -11.333 -1.16699 -26 -1.5 -44
s-0.5 -37.833 -0.5 -59.5v-67.5c0 -23.333 0.166992 -46 0.5 -68s0.5 -42.5 0.5 -61.5s0.333008 -34.5 1 -46.5c3.33301 -76.667 22.333 -136.334 57 -179.001s86 -64 154 -64s119.333 21.333 154 64s53.667 102.334 57 179.001c0.666992 12 1.16699 27.5 1.5 46.5
s0.666016 39.5 0.999023 61.5s0.5 44.667 0.5 68s-0.166992 45.833 -0.5 67.5s-0.666016 41.5 -0.999023 59.5s-0.833008 32.667 -1.5 44c-4 76.667 -23.167 135.667 -57.5 177s-85.5 62 -153.5 62s-118.833 -20.667 -152.5 -62s-53.167 -100.333 -58.5 -177z" />
    <glyph glyph-name="germandbls" unicode="&#xdf;" horiz-adv-x="1083" 
d="M283 0l-148.001 0.00390625v895c0 57.333 8.66699 109.5 26 156.5s42.5 87.333 75.5 121s73.167 59.667 120.5 78s101 27.5 161 27.5c59.333 0 113 -6.5 161 -19.5s88.833 -31.833 122.5 -56.5s59.667 -54.834 78 -90.501s27.5 -75.834 27.5 -120.501
c0 -42.667 -7.5 -76.834 -22.5 -102.501s-33.833 -46.5 -56.5 -62.5s-47.167 -28.5 -73.5 -37.5s-50.833 -18.167 -73.5 -27.5s-41.5 -20.333 -56.5 -33s-22.5 -30.667 -22.5 -54c0 -20.667 7.66699 -38 23 -52s35 -26.833 59 -38.5s50.833 -23.667 80.5 -36
s59.167 -27.166 88.5 -44.499s56.5 -38.5 81.5 -63.5s45.167 -56.167 60.5 -93.5c14.667 -36 19.5 -74.167 14.5 -114.5s-20.667 -77.666 -47 -111.999s-63.833 -62.833 -112.5 -85.5s-110 -34 -184 -34h-111v113h51c62.667 0 113.167 5.5 151.5 16.5s67 26 86 45
s29.5 41 31.5 66s-1.66699 51.167 -11 78.5c-9.33301 28 -25.166 52 -47.499 72s-47.5 37.833 -75.5 53.5s-57 30.667 -87 45s-57.5 30 -82.5 47s-45.667 36.167 -62 57.5s-24.5 47.333 -24.5 78c3.33301 35.333 12.666 64.166 27.999 86.499s33.333 41 54 56
s42.667 27.833 66 38.5s44.833 22.167 64.5 34.5s36 27.166 49 44.499s19.5 40.333 19.5 69c0 64.667 -21.5 110.667 -64.5 138s-104.833 41.666 -185.5 42.999c-32 0.666992 -62.167 -5.5 -90.5 -18.5s-53.166 -31.667 -74.499 -56s-38.333 -54.5 -51 -90.5
s-19 -76.667 -19 -122z" />
    <glyph glyph-name="agrave" unicode="&#xe0;" horiz-adv-x="954" 
d="M358 -18c-52 0 -96.666 7.00098 -133.999 21.001s-67.833 33.5 -91.5 58.5s-41.167 54.167 -52.5 87.5s-17 69.666 -17 108.999c0 79.333 24.167 143 72.5 191s123.833 83.333 226.5 106l101 21.5l93.5 19.5l78 16.5c23 5 41.5 9.16699 55.5 12.5c0 34 -3 62.667 -9 86
s-15.667 42 -29 56s-30.5 24 -51.5 30s-46.5 9 -76.5 9c-12 0 -26.833 -0.333008 -44.5 -1s-36.834 -1.66699 -57.501 -3s-42 -2.83301 -64 -4.5s-43.667 -3.5 -65 -5.5l-158 -13l-8 133c67.333 4.66699 129.666 8.66699 186.999 12
c24.667 1.33301 49.334 2.83301 74.001 4.5l69 4.5c21.333 1.33301 40.333 2.33301 57 3s29 1 37 1c64.667 0 116.167 -9.16699 154.5 -27.5s67.833 -44.5 88.5 -78.5s34.167 -75.167 40.5 -123.5s9.5 -102.5 9.5 -162.5v-545h-154v152
c-36 -58.667 -82.5 -101.667 -139.5 -129s-121.167 -41 -192.5 -41zM406.001 444.001c-56.667 -15.333 -102.331 -38.167 -136.998 -68.5s-52 -67.5 -52 -111.5c0 -22 3 -42.667 9 -62s15.5 -36.333 28.5 -51s29.667 -26.167 50 -34.5s45.166 -12.5 74.499 -12.5
c54 0 100.5 7.33301 139.5 22s71.167 34 96.5 58s44.166 51.333 56.499 82s18.5 62 18.5 94v156l-129 -33zM662.004 1050h-113l-311 203h162z" />
    <glyph glyph-name="aacute" unicode="&#xe1;" horiz-adv-x="948" 
d="M358 -18c-52 0 -96.666 7.00098 -133.999 21.001s-67.833 33.5 -91.5 58.5s-41.167 54.167 -52.5 87.5s-17 69.666 -17 108.999c0 79.333 24.167 143 72.5 191s123.833 83.333 226.5 106l101 21.5l93.5 19.5l78 16.5c23 5 41.5 9.16699 55.5 12.5c0 34 -3 62.667 -9 86
s-15.667 42 -29 56s-30.5 24 -51.5 30s-46.5 9 -76.5 9c-12 0 -26.833 -0.333008 -44.5 -1s-36.834 -1.66699 -57.501 -3s-42 -2.83301 -64 -4.5s-43.667 -3.5 -65 -5.5l-158 -13l-8 133c67.333 4.66699 129.666 8.66699 186.999 12
c24.667 1.33301 49.334 2.83301 74.001 4.5l69 4.5c21.333 1.33301 40.333 2.33301 57 3s29 1 37 1c64.667 0 116.167 -9.16699 154.5 -27.5s67.833 -44.5 88.5 -78.5s34.167 -75.167 40.5 -123.5s9.5 -102.5 9.5 -162.5v-545h-154v152
c-36 -58.667 -82.5 -101.667 -139.5 -129s-121.167 -41 -192.5 -41zM406.001 444.001c-56.667 -15.333 -102.331 -38.167 -136.998 -68.5s-52 -67.5 -52 -111.5c0 -22 3 -42.667 9 -62s15.5 -36.333 28.5 -51s29.667 -26.167 50 -34.5s45.166 -12.5 74.499 -12.5
c54 0 100.5 7.33301 139.5 22s71.167 34 96.5 58s44.166 51.333 56.499 82s18.5 62 18.5 94v156l-129 -33zM571.004 1252h162l-311 -203h-113z" />
    <glyph glyph-name="acircumflex" unicode="&#xe2;" horiz-adv-x="932" 
d="M358 -18c-52 0 -96.666 7.00098 -133.999 21.001s-67.833 33.5 -91.5 58.5s-41.167 54.167 -52.5 87.5s-17 69.666 -17 108.999c0 79.333 24.167 143 72.5 191s123.833 83.333 226.5 106l101 21.5l93.5 19.5l78 16.5c23 5 41.5 9.16699 55.5 12.5c0 34 -3 62.667 -9 86
s-15.667 42 -29 56s-30.5 24 -51.5 30s-46.5 9 -76.5 9c-12 0 -26.833 -0.333008 -44.5 -1s-36.834 -1.66699 -57.501 -3s-42 -2.83301 -64 -4.5s-43.667 -3.5 -65 -5.5l-158 -13l-8 133c67.333 4.66699 129.666 8.66699 186.999 12
c24.667 1.33301 49.334 2.83301 74.001 4.5l69 4.5c21.333 1.33301 40.333 2.33301 57 3s29 1 37 1c64.667 0 116.167 -9.16699 154.5 -27.5s67.833 -44.5 88.5 -78.5s34.167 -75.167 40.5 -123.5s9.5 -102.5 9.5 -162.5v-545h-154v152
c-36 -58.667 -82.5 -101.667 -139.5 -129s-121.167 -41 -192.5 -41zM406.001 444.001c-56.667 -15.333 -102.331 -38.167 -136.998 -68.5s-52 -67.5 -52 -111.5c0 -22 3 -42.667 9 -62s15.5 -36.333 28.5 -51s29.667 -26.167 50 -34.5s45.166 -12.5 74.499 -12.5
c54 0 100.5 7.33301 139.5 22s71.167 34 96.5 58s44.166 51.333 56.499 82s18.5 62 18.5 94v156l-129 -33zM490.004 1297l200 -203h-90l-123 160l-143 -160h-92l221 203h27z" />
    <glyph glyph-name="atilde" unicode="&#xe3;" horiz-adv-x="948" 
d="M358 -18c-52 0 -96.666 7.00098 -133.999 21.001s-67.833 33.5 -91.5 58.5s-41.167 54.167 -52.5 87.5s-17 69.666 -17 108.999c0 79.333 24.167 143 72.5 191s123.833 83.333 226.5 106l101 21.5l93.5 19.5l78 16.5c23 5 41.5 9.16699 55.5 12.5c0 34 -3 62.667 -9 86
s-15.667 42 -29 56s-30.5 24 -51.5 30s-46.5 9 -76.5 9c-12 0 -26.833 -0.333008 -44.5 -1s-36.834 -1.66699 -57.501 -3s-42 -2.83301 -64 -4.5s-43.667 -3.5 -65 -5.5l-158 -13l-8 133c67.333 4.66699 129.666 8.66699 186.999 12
c24.667 1.33301 49.334 2.83301 74.001 4.5l69 4.5c21.333 1.33301 40.333 2.33301 57 3s29 1 37 1c64.667 0 116.167 -9.16699 154.5 -27.5s67.833 -44.5 88.5 -78.5s34.167 -75.167 40.5 -123.5s9.5 -102.5 9.5 -162.5v-545h-154v152
c-36 -58.667 -82.5 -101.667 -139.5 -129s-121.167 -41 -192.5 -41zM406.001 444.001c-56.667 -15.333 -102.331 -38.167 -136.998 -68.5s-52 -67.5 -52 -111.5c0 -22 3 -42.667 9 -62s15.5 -36.333 28.5 -51s29.667 -26.167 50 -34.5s45.166 -12.5 74.499 -12.5
c54 0 100.5 7.33301 139.5 22s71.167 34 96.5 58s44.166 51.333 56.499 82s18.5 62 18.5 94v156l-129 -33zM262.004 1166l24.0039 26.999c8.66699 10 18.167 19.5 28.5 28.5s22 16.667 35 23s27.5 9.5 43.5 9.5c21.333 0 39.666 -3.83301 54.999 -11.5
s29.333 -16.167 42 -25.5l36 -25.5c11.333 -7.66699 23.666 -11.5 36.999 -11.5c16 0 30.167 2 42.5 6s23.5 9 33.5 15s19 12.167 27 18.5l22 17.5v-63l-19.5 -25c-7 -8.66699 -15.333 -16.834 -25 -24.501s-20.834 -14 -33.501 -19s-27 -7.5 -43 -7.5
c-20.667 0 -37.167 3.66699 -49.5 11s-24 15.5 -35 24.5s-23.167 17.333 -36.5 25s-31 11.5 -53 11.5c-17.333 0 -32.666 -3.16699 -45.999 -9.5s-25.333 -13.666 -36 -21.999s-19.834 -16.666 -27.501 -24.999s-14.834 -14.833 -21.501 -19.5v72z" />
    <glyph glyph-name="adieresis" unicode="&#xe4;" horiz-adv-x="932" 
d="M358 -18c-52 0 -96.666 7.00098 -133.999 21.001s-67.833 33.5 -91.5 58.5s-41.167 54.167 -52.5 87.5s-17 69.666 -17 108.999c0 79.333 24.167 143 72.5 191s123.833 83.333 226.5 106l101 21.5l93.5 19.5l78 16.5c23 5 41.5 9.16699 55.5 12.5c0 34 -3 62.667 -9 86
s-15.667 42 -29 56s-30.5 24 -51.5 30s-46.5 9 -76.5 9c-12 0 -26.833 -0.333008 -44.5 -1s-36.834 -1.66699 -57.501 -3s-42 -2.83301 -64 -4.5s-43.667 -3.5 -65 -5.5l-158 -13l-8 133c67.333 4.66699 129.666 8.66699 186.999 12
c24.667 1.33301 49.334 2.83301 74.001 4.5l69 4.5c21.333 1.33301 40.333 2.33301 57 3s29 1 37 1c64.667 0 116.167 -9.16699 154.5 -27.5s67.833 -44.5 88.5 -78.5s34.167 -75.167 40.5 -123.5s9.5 -102.5 9.5 -162.5v-545h-154v152
c-36 -58.667 -82.5 -101.667 -139.5 -129s-121.167 -41 -192.5 -41zM406.001 444.001c-56.667 -15.333 -102.331 -38.167 -136.998 -68.5s-52 -67.5 -52 -111.5c0 -22 3 -42.667 9 -62s15.5 -36.333 28.5 -51s29.667 -26.167 50 -34.5s45.166 -12.5 74.499 -12.5
c54 0 100.5 7.33301 139.5 22s71.167 34 96.5 58s44.166 51.333 56.499 82s18.5 62 18.5 94v156l-129 -33zM265.004 1169c0 21.333 7.5 39.5 22.5 54.5s33.167 22.5 54.5 22.5s39.666 -7.5 54.999 -22.5s23 -33.167 23 -54.5s-7.66699 -39.666 -23 -54.999
s-33.666 -23 -54.999 -23s-39.5 7.66699 -54.5 23s-22.5 33.666 -22.5 54.999zM535.004 1169c0 21.333 7.66699 39.5 23 54.5s33.666 22.5 54.999 22.5s39.666 -7.5 54.999 -22.5s23 -33.167 23 -54.5s-7.66699 -39.666 -23 -54.999s-33.666 -23 -54.999 -23
s-39.666 7.66699 -54.999 23s-23 33.666 -23 54.999z" />
    <glyph glyph-name="aring" unicode="&#xe5;" horiz-adv-x="944" 
d="M293 1280c0 27.333 5.33301 53 16 77s25 45 43 63s39.167 32.333 63.5 43s50.5 16 78.5 16c26.667 0 52 -5.33301 76 -16s45 -25 63 -43s32.333 -39 43 -63s16 -49.667 16 -77s-5.33301 -53.166 -16 -77.499s-25 -45.5 -43 -63.5s-39 -32.333 -63 -43
s-49.333 -16 -76 -16c-28 0 -54.167 5.33301 -78.5 16s-45.5 25 -63.5 43s-32.333 39.167 -43 63.5s-16 50.166 -16 77.499zM357 1280c0 -18.667 3.5 -36.334 10.5 -53.001s16.833 -31.167 29.5 -43.5s27.167 -22.166 43.5 -29.499s34.166 -11 53.499 -11
c18.667 0 36.334 3.66699 53.001 11s31.334 17.166 44.001 29.499s22.5 26.833 29.5 43.5s10.5 34.334 10.5 53.001s-3.5 36.5 -10.5 53.5s-16.833 31.667 -29.5 44s-27.334 22.166 -44.001 29.499s-34.334 11 -53.001 11c-19.333 0 -37.166 -3.66699 -53.499 -11
s-30.833 -17.166 -43.5 -29.499s-22.5 -27 -29.5 -44s-10.5 -34.833 -10.5 -53.5zM358 -18c-52 0 -96.666 7.00098 -133.999 21.001s-67.833 33.5 -91.5 58.5s-41.167 54.167 -52.5 87.5s-17 69.666 -17 108.999c0 79.333 24.167 143 72.5 191s123.833 83.333 226.5 106
l101 21.5l93.5 19.5l78 16.5c23 5 41.5 9.16699 55.5 12.5c0 34 -3 62.667 -9 86s-15.667 42 -29 56s-30.5 24 -51.5 30s-46.5 9 -76.5 9c-12 0 -26.833 -0.333008 -44.5 -1s-36.834 -1.66699 -57.501 -3s-42 -2.83301 -64 -4.5s-43.667 -3.5 -65 -5.5l-158 -13l-8 133
c67.333 4.66699 129.666 8.66699 186.999 12c24.667 1.33301 49.334 2.83301 74.001 4.5l69 4.5c21.333 1.33301 40.333 2.33301 57 3s29 1 37 1c64.667 0 116.167 -9.16699 154.5 -27.5s67.833 -44.5 88.5 -78.5s34.167 -75.167 40.5 -123.5s9.5 -102.5 9.5 -162.5v-545
h-154v152c-36 -58.667 -82.5 -101.667 -139.5 -129s-121.167 -41 -192.5 -41zM406.001 444.001c-56.667 -15.333 -102.331 -38.167 -136.998 -68.5s-52 -67.5 -52 -111.5c0 -22 3 -42.667 9 -62s15.5 -36.333 28.5 -51s29.667 -26.167 50 -34.5s45.166 -12.5 74.499 -12.5
c54 0 100.5 7.33301 139.5 22s71.167 34 96.5 58s44.166 51.333 56.499 82s18.5 62 18.5 94v156l-129 -33z" />
    <glyph glyph-name="ae" unicode="&#xe6;" horiz-adv-x="1501" 
d="M402 444c-54 -15.333 -97.167 -38.167 -129.5 -68.5s-48.5 -67.5 -48.5 -111.5c0 -22 2.83301 -42.667 8.5 -62s14.5 -36.333 26.5 -51s27.667 -26.167 47 -34.5s42.666 -12.5 69.999 -12.5c50.667 0 94.334 7.33301 131.001 22s67 34 91 58s41.833 51.333 53.5 82
s17.5 62 17.5 94v152l-121.5 -30.5zM1051 824.999c-70 0 -124.332 -22.834 -162.999 -68.501s-60.667 -120.167 -66 -223.5h434c-4 56.667 -11.5 103.834 -22.5 141.501s-25.167 67.667 -42.5 90s-37.833 38 -61.5 47s-49.834 13.5 -78.501 13.5zM1399 288.998
c-14.667 -99.333 -50.167 -173.499 -106.5 -222.499s-136.833 -73.5 -241.5 -73.5c-24 0 -50 3.66699 -78 11s-56.167 18.666 -84.5 33.999s-55.5 34.5 -81.5 57.5s-48.667 50.167 -68 81.5c-12 -36.667 -32.5 -67.334 -61.5 -92.001s-61.667 -44.667 -98 -60
s-74.166 -26.333 -113.499 -33s-75.666 -10 -108.999 -10c-49.333 0 -91.5 7 -126.5 21s-63.667 33.5 -86 58.5s-38.833 54.167 -49.5 87.5s-16 69.666 -16 108.999c0 79.333 22.833 143 68.5 191s116.5 83.333 212.5 106l95 21l88 18c27.333 5.33301 51.833 10.333 73.5 15
s39.167 8.66699 52.5 12c0 34 -3 62.833 -9 86.5s-15.167 42.834 -27.5 57.501s-28.333 25.167 -48 31.5s-43.5 9.5 -71.5 9.5c-12 0 -26.333 -0.333008 -43 -1s-34.667 -1.66699 -54 -3s-39.333 -2.83301 -60 -4.5s-41 -3.5 -61 -5.5l-148 -13l-8 133
c63.333 4.66699 122 8.66699 176 12c22.667 1.33301 45.667 2.83301 69 4.5l65.5 4.5c20.333 1.33301 38.166 2.33301 53.499 3s27 1 35 1c62 0 111 -10.667 147 -32s63.667 -57.333 83 -108c14 26 31 48.5 51 67.5s42.333 34.5 67 46.5s50.834 21 78.501 27s56.5 9 86.5 9
c52 0 99.833 -9 143.5 -27s81.5 -47.5 113.5 -88.5s57 -94.667 75 -161s27 -147.833 27 -244.5h-588c6.66699 -104 29.167 -181.167 67.5 -231.5s92.166 -75.5 161.499 -75.5c31.333 0 58.666 4.66699 81.999 14s42.833 21.833 58.5 37.5s27.667 33.834 36 54.501
s12.833 42 13.5 64h158z" />
    <glyph glyph-name="ccedilla" unicode="&#xe7;" horiz-adv-x="961" 
d="M840 305c-14.667 -99.333 -51.332 -175.833 -109.999 -229.5s-144.334 -80.5 -257.001 -80.5c-61.333 0 -116.666 8.66699 -165.999 26s-91.666 45.166 -126.999 83.499s-62.5 87.833 -81.5 148.5s-28.5 134.667 -28.5 222c0 86.667 9.5 159.834 28.5 219.501
s46.167 107.834 81.5 144.501s77.666 63 126.999 79s104.666 24 165.999 24c56 0 105 -5.33301 147 -16s77.833 -27.667 107.5 -51s53.5 -53.166 71.5 -89.499s31 -80.5 39 -132.5h-176c-2 18.667 -7.16699 38 -15.5 58s-20.166 38.167 -35.499 54.5
s-34.333 29.666 -57 39.999s-49.667 15.5 -81 15.5c-40 0 -74.833 -6.5 -104.5 -19.5s-54.334 -33.333 -74.001 -61s-34.334 -63 -44.001 -106s-14.5 -94.833 -14.5 -155.5c0 -120.667 19.333 -209.334 58 -266.001s98.334 -85 179.001 -85c33.333 0 61.833 5 85.5 15
s43.167 23.333 58.5 40s26.833 35.667 34.5 57s12.5 43 14.5 65h174zM390.002 -333l0.00488281 64h97c28.667 0 50 6.66699 64 20s21.5 27.833 22.5 43.5s-4 30.167 -15 43.5s-27.5 20 -49.5 20h-123c-22 0 -37.833 6.33301 -47.5 19s-13.834 27.334 -12.501 44.001
s7.16602 32.667 17.499 48s24.5 26 42.5 32c-18.667 -26.667 -23 -47.334 -13 -62.001s29.333 -22 58 -22h121c20.667 0 38.667 -6.16699 54 -18.5s26.833 -27.833 34.5 -46.5s11.167 -38.667 10.5 -60s-6.33398 -41.333 -17.001 -60s-26.834 -34.167 -48.501 -46.5
s-49.834 -18.5 -84.501 -18.5h-111z" />
    <glyph glyph-name="egrave" unicode="&#xe8;" horiz-adv-x="952" 
d="M848 287c-15.333 -99.333 -53 -173.162 -113 -221.495s-146 -72.5 -258 -72.5c-61.333 0 -116.833 8 -166.5 24s-92 42.167 -127 78.5s-62 84.166 -81 143.499s-28.5 132.666 -28.5 219.999c0 86.667 9.5 160.667 28.5 222s46 111.166 81 149.499s77.333 66.333 127 84
s105.167 26.5 166.5 26.5c55.333 0 106.333 -9.33301 153 -28s87 -48.834 121 -90.501s60.667 -96 80 -163s29 -148.5 29 -244.5h-627c6.66699 -102.667 30.667 -177.834 72 -225.501s98.666 -71.5 171.999 -71.5c33.333 0 62.5 4.66699 87.5 14s45.833 21.833 62.5 37.5
s29.334 33.667 38.001 54s13.667 41.5 15 63.5h168zM477 817.004c-74.667 0 -132.667 -22.667 -174 -68s-64.666 -119.333 -69.999 -222h463c-4 56.667 -11.833 103.667 -23.5 141s-26.834 67 -45.501 89s-40.667 37.5 -66 46.5s-53.333 13.5 -84 13.5zM653 1059h-113
l-311 203h162z" />
    <glyph glyph-name="eacute" unicode="&#xe9;" horiz-adv-x="963" 
d="M848 287c-15.333 -99.333 -53 -173.162 -113 -221.495s-146 -72.5 -258 -72.5c-61.333 0 -116.833 8 -166.5 24s-92 42.167 -127 78.5s-62 84.166 -81 143.499s-28.5 132.666 -28.5 219.999c0 86.667 9.5 160.667 28.5 222s46 111.166 81 149.499s77.333 66.333 127 84
s105.167 26.5 166.5 26.5c55.333 0 106.333 -9.33301 153 -28s87 -48.834 121 -90.501s60.667 -96 80 -163s29 -148.5 29 -244.5h-627c6.66699 -102.667 30.667 -177.834 72 -225.501s98.666 -71.5 171.999 -71.5c33.333 0 62.5 4.66699 87.5 14s45.833 21.833 62.5 37.5
s29.334 33.667 38.001 54s13.667 41.5 15 63.5h168zM477 817.004c-74.667 0 -132.667 -22.667 -174 -68s-64.666 -119.333 -69.999 -222h463c-4 56.667 -11.833 103.667 -23.5 141s-26.834 67 -45.501 89s-40.667 37.5 -66 46.5s-53.333 13.5 -84 13.5zM581 1262h162
l-311 -203h-113z" />
    <glyph glyph-name="ecircumflex" unicode="&#xea;" horiz-adv-x="948" 
d="M848 287c-15.333 -99.333 -53 -173.162 -113 -221.495s-146 -72.5 -258 -72.5c-61.333 0 -116.833 8 -166.5 24s-92 42.167 -127 78.5s-62 84.166 -81 143.499s-28.5 132.666 -28.5 219.999c0 86.667 9.5 160.667 28.5 222s46 111.166 81 149.499s77.333 66.333 127 84
s105.167 26.5 166.5 26.5c55.333 0 106.333 -9.33301 153 -28s87 -48.834 121 -90.501s60.667 -96 80 -163s29 -148.5 29 -244.5h-627c6.66699 -102.667 30.667 -177.834 72 -225.501s98.666 -71.5 171.999 -71.5c33.333 0 62.5 4.66699 87.5 14s45.833 21.833 62.5 37.5
s29.334 33.667 38.001 54s13.667 41.5 15 63.5h168zM477 817.004c-74.667 0 -132.667 -22.667 -174 -68s-64.666 -119.333 -69.999 -222h463c-4 56.667 -11.833 103.667 -23.5 141s-26.834 67 -45.501 89s-40.667 37.5 -66 46.5s-53.333 13.5 -84 13.5zM482 1276l200 -203
h-90l-123 160l-143 -160h-92l221 203h27z" />
    <glyph glyph-name="edieresis" unicode="&#xeb;" horiz-adv-x="948" 
d="M848 287c-15.333 -99.333 -53 -173.162 -113 -221.495s-146 -72.5 -258 -72.5c-61.333 0 -116.833 8 -166.5 24s-92 42.167 -127 78.5s-62 84.166 -81 143.499s-28.5 132.666 -28.5 219.999c0 86.667 9.5 160.667 28.5 222s46 111.166 81 149.499s77.333 66.333 127 84
s105.167 26.5 166.5 26.5c55.333 0 106.333 -9.33301 153 -28s87 -48.834 121 -90.501s60.667 -96 80 -163s29 -148.5 29 -244.5h-627c6.66699 -102.667 30.667 -177.834 72 -225.501s98.666 -71.5 171.999 -71.5c33.333 0 62.5 4.66699 87.5 14s45.833 21.833 62.5 37.5
s29.334 33.667 38.001 54s13.667 41.5 15 63.5h168zM477 817.004c-74.667 0 -132.667 -22.667 -174 -68s-64.666 -119.333 -69.999 -222h463c-4 56.667 -11.833 103.667 -23.5 141s-26.834 67 -45.501 89s-40.667 37.5 -66 46.5s-53.333 13.5 -84 13.5zM272 1159
c0 21.333 7.5 39.5 22.5 54.5s33.167 22.5 54.5 22.5s39.666 -7.5 54.999 -22.5s23 -33.167 23 -54.5s-7.66699 -39.666 -23 -54.999s-33.666 -23 -54.999 -23s-39.5 7.66699 -54.5 23s-22.5 33.666 -22.5 54.999zM542 1159c0 21.333 7.66699 39.5 23 54.5
s33.666 22.5 54.999 22.5s39.666 -7.5 54.999 -22.5s23 -33.167 23 -54.5s-7.66699 -39.666 -23 -54.999s-33.666 -23 -54.999 -23s-39.666 7.66699 -54.999 23s-23 33.666 -23 54.999z" />
    <glyph glyph-name="igrave" unicode="&#xec;" horiz-adv-x="391" 
d="M398 1067h-113l-311 203h162zM154 0v934h168v-934h-168z" />
    <glyph glyph-name="iacute" unicode="&#xed;" horiz-adv-x="391" 
d="M260 1263h162l-311 -203h-113zM154 0v934h168v-934h-168z" />
    <glyph glyph-name="icircumflex" unicode="&#xee;" horiz-adv-x="391" 
d="M226 1280l200 -203h-90l-123 160l-143 -160h-92l221 203h27zM154 0v934h168v-934h-168z" />
    <glyph glyph-name="idieresis" unicode="&#xef;" horiz-adv-x="391" 
d="M-2 1174c0 21.333 7.5 39.5 22.5 54.5s33.167 22.5 54.5 22.5s39.666 -7.5 54.999 -22.5s23 -33.167 23 -54.5s-7.66699 -39.666 -23 -54.999s-33.666 -23 -54.999 -23s-39.5 7.66699 -54.5 23s-22.5 33.666 -22.5 54.999zM268 1174c0 21.333 7.66699 39.5 23 54.5
s33.666 22.5 54.999 22.5s39.666 -7.5 54.999 -22.5s23 -33.167 23 -54.5s-7.66699 -39.666 -23 -54.999s-33.666 -23 -54.999 -23s-39.666 7.66699 -54.999 23s-23 33.666 -23 54.999zM154 934h168v-934h-168v934z" />
    <glyph glyph-name="eth" unicode="&#xf0;" horiz-adv-x="760" 
d="M100 753l179.999 92.9961l-114 188l146 57l103 -182l208 83l34 -59l-201 -90l50 -85l50.5 -84l44 -73l30.5 -52c16 -30.667 28.667 -58.5 38 -83.5s16.333 -48.333 21 -70s7.33398 -42.167 8.00098 -61.5s0.666992 -38.666 0 -57.999
c-2.66699 -39.333 -12.667 -75.5 -30 -108.5s-40.166 -61.5 -68.499 -85.5s-61 -42.667 -98 -56s-76.5 -20 -118.5 -20c-42.667 0 -83 7.83301 -121 23.5s-71.167 36.834 -99.5 63.501s-50.833 57.834 -67.5 93.501s-25 73.167 -25 112.5
c0 48.667 6.83301 91.334 20.5 128.001s32.167 67.834 55.5 93.501s50.333 45.5 81 59.5s63 22.667 97 26c21.333 3.33301 40.166 3.66602 56.499 0.999023l41.5 -7l-101 179l-181 -92zM382.999 488.996c-21.333 0 -41.666 -4.83203 -60.999 -14.499
s-36.166 -22.667 -50.499 -39s-25.666 -35.333 -33.999 -57s-12.5 -44.167 -12.5 -67.5s4.16699 -45.333 12.5 -66s19.666 -38.667 33.999 -54s31.166 -27.333 50.499 -36s39.666 -13 60.999 -13c26.667 0 50.667 4.16699 72 12.5s39.333 20 54 35s26 32.667 34 53
s12 42.166 12 65.499s-4.83301 46 -14.5 68s-22.5 41.333 -38.5 58s-34.333 30 -55 40s-42 15 -64 15z" />
    <glyph glyph-name="ntilde" unicode="&#xf1;" horiz-adv-x="1030" 
d="M764 0l0.000976562 565c0 39.333 -6 74.333 -18 105s-28.333 56.5 -49 77.5s-44.834 36.833 -72.501 47.5s-57.5 16 -89.5 16s-62.333 -5.33301 -91 -16s-53.834 -26.5 -75.501 -47.5s-39 -46.833 -52 -77.5s-19.5 -65.667 -19.5 -105v-565h-155v928h155v-109
c28 38 65.333 67 112 87s102.334 30 167.001 30c58.667 0 109.5 -10 152.5 -30s78.5 -47.5 106.5 -82.5s48.833 -75.833 62.5 -122.5s20.5 -96.667 20.5 -150v-551h-154zM336.001 1151l24.0039 26.999c8.66699 10 18.167 19.5 28.5 28.5s22 16.667 35 23s27.5 9.5 43.5 9.5
c21.333 0 39.666 -3.83301 54.999 -11.5s29.333 -16.167 42 -25.5l36 -25.5c11.333 -7.66699 23.666 -11.5 36.999 -11.5c16 0 30.167 2 42.5 6s23.5 9 33.5 15s19 12.167 27 18.5l22 17.5v-63l-19.5 -25c-7 -8.66699 -15.333 -16.834 -25 -24.501s-20.834 -14 -33.501 -19
s-27 -7.5 -43 -7.5c-20.667 0 -37.167 3.66699 -49.5 11s-24 15.5 -35 24.5s-23.167 17.333 -36.5 25s-31 11.5 -53 11.5c-17.333 0 -32.666 -3.16699 -45.999 -9.5s-25.333 -13.666 -36 -21.999s-19.834 -16.666 -27.501 -24.999s-14.834 -14.833 -21.501 -19.5v72z" />
    <glyph glyph-name="ograve" unicode="&#xf2;" horiz-adv-x="948" 
d="M477 -7c-113.333 0 -201.833 29.833 -265.5 89.5s-98.167 152.167 -103.5 277.5c-1.33301 29.333 -2 62.5 -2 99.5s0.666992 73.5 2 109.5c4.66699 122 38.834 214.333 102.501 277s152.5 94 266.5 94c114.667 0 204.167 -31.667 268.5 -95s98.5 -155.333 102.5 -276
c1.33301 -36 2 -72.5 2 -109.5s-0.666992 -70.167 -2 -99.5c-6.66699 -126 -41.334 -218.667 -104.001 -278s-151.667 -89 -267 -89zM266 578c-2 -34 -2.83203 -70.167 -2.49902 -108.5s1.16602 -76.166 2.49902 -113.499c3.33301 -76.667 22.333 -136.334 57 -179.001
s86 -64 154 -64s119.333 21.333 154 64s53.667 102.334 57 179.001c2 37.333 3 75.166 3 113.499s-1 74.5 -3 108.5c-4 76.667 -23.167 135.667 -57.5 177s-85.5 62 -153.5 62s-118.833 -20.667 -152.5 -62s-53.167 -100.333 -58.5 -177zM660.001 1043h-113l-311 203h162z
" />
    <glyph glyph-name="oacute" unicode="&#xf3;" horiz-adv-x="948" 
d="M477 -7c-113.333 0 -201.833 29.833 -265.5 89.5s-98.167 152.167 -103.5 277.5c-1.33301 29.333 -2 62.5 -2 99.5s0.666992 73.5 2 109.5c4.66699 122 38.834 214.333 102.501 277s152.5 94 266.5 94c114.667 0 204.167 -31.667 268.5 -95s98.5 -155.333 102.5 -276
c1.33301 -36 2 -72.5 2 -109.5s-0.666992 -70.167 -2 -99.5c-6.66699 -126 -41.334 -218.667 -104.001 -278s-151.667 -89 -267 -89zM266 578c-2 -34 -2.83203 -70.167 -2.49902 -108.5s1.16602 -76.166 2.49902 -113.499c3.33301 -76.667 22.333 -136.334 57 -179.001
s86 -64 154 -64s119.333 21.333 154 64s53.667 102.334 57 179.001c2 37.333 3 75.166 3 113.499s-1 74.5 -3 108.5c-4 76.667 -23.167 135.667 -57.5 177s-85.5 62 -153.5 62s-118.833 -20.667 -152.5 -62s-53.167 -100.333 -58.5 -177zM551.001 1236h162l-311 -203h-113z
" />
    <glyph glyph-name="ocircumflex" unicode="&#xf4;" horiz-adv-x="956" 
d="M477 -7c-113.333 0 -201.833 29.833 -265.5 89.5s-98.167 152.167 -103.5 277.5c-1.33301 29.333 -2 62.5 -2 99.5s0.666992 73.5 2 109.5c4.66699 122 38.834 214.333 102.501 277s152.5 94 266.5 94c114.667 0 204.167 -31.667 268.5 -95s98.5 -155.333 102.5 -276
c1.33301 -36 2 -72.5 2 -109.5s-0.666992 -70.167 -2 -99.5c-6.66699 -126 -41.334 -218.667 -104.001 -278s-151.667 -89 -267 -89zM266 578c-2 -34 -2.83203 -70.167 -2.49902 -108.5s1.16602 -76.166 2.49902 -113.499c3.33301 -76.667 22.333 -136.334 57 -179.001
s86 -64 154 -64s119.333 21.333 154 64s53.667 102.334 57 179.001c2 37.333 3 75.166 3 113.499s-1 74.5 -3 108.5c-4 76.667 -23.167 135.667 -57.5 177s-85.5 62 -153.5 62s-118.833 -20.667 -152.5 -62s-53.167 -100.333 -58.5 -177zM511.001 1257l200 -203h-90
l-123 160l-143 -160h-92l221 203h27z" />
    <glyph glyph-name="otilde" unicode="&#xf5;" horiz-adv-x="956" 
d="M477 -7c-113.333 0 -201.833 29.833 -265.5 89.5s-98.167 152.167 -103.5 277.5c-1.33301 29.333 -2 62.5 -2 99.5s0.666992 73.5 2 109.5c4.66699 122 38.834 214.333 102.501 277s152.5 94 266.5 94c114.667 0 204.167 -31.667 268.5 -95s98.5 -155.333 102.5 -276
c1.33301 -36 2 -72.5 2 -109.5s-0.666992 -70.167 -2 -99.5c-6.66699 -126 -41.334 -218.667 -104.001 -278s-151.667 -89 -267 -89zM266 578c-2 -34 -2.83203 -70.167 -2.49902 -108.5s1.16602 -76.166 2.49902 -113.499c3.33301 -76.667 22.333 -136.334 57 -179.001
s86 -64 154 -64s119.333 21.333 154 64s53.667 102.334 57 179.001c2 37.333 3 75.166 3 113.499s-1 74.5 -3 108.5c-4 76.667 -23.167 135.667 -57.5 177s-85.5 62 -153.5 62s-118.833 -20.667 -152.5 -62s-53.167 -100.333 -58.5 -177zM283.001 1141l24.0039 26.999
c8.66699 10 18.167 19.5 28.5 28.5s22 16.667 35 23s27.5 9.5 43.5 9.5c21.333 0 39.666 -3.83301 54.999 -11.5s29.333 -16.167 42 -25.5l36 -25.5c11.333 -7.66699 23.666 -11.5 36.999 -11.5c16 0 30.167 2 42.5 6s23.5 9 33.5 15s19 12.167 27 18.5l22 17.5v-63
l-19.5 -25c-7 -8.66699 -15.333 -16.834 -25 -24.501s-20.834 -14 -33.501 -19s-27 -7.5 -43 -7.5c-20.667 0 -37.167 3.66699 -49.5 11s-24 15.5 -35 24.5s-23.167 17.333 -36.5 25s-31 11.5 -53 11.5c-17.333 0 -32.666 -3.16699 -45.999 -9.5
s-25.333 -13.666 -36 -21.999s-19.834 -16.666 -27.501 -24.999s-14.834 -14.833 -21.501 -19.5v72z" />
    <glyph glyph-name="odieresis" unicode="&#xf6;" horiz-adv-x="944" 
d="M477 -7c-113.333 0 -201.833 29.833 -265.5 89.5s-98.167 152.167 -103.5 277.5c-1.33301 29.333 -2 62.5 -2 99.5s0.666992 73.5 2 109.5c4.66699 122 38.834 214.333 102.501 277s152.5 94 266.5 94c114.667 0 204.167 -31.667 268.5 -95s98.5 -155.333 102.5 -276
c1.33301 -36 2 -72.5 2 -109.5s-0.666992 -70.167 -2 -99.5c-6.66699 -126 -41.334 -218.667 -104.001 -278s-151.667 -89 -267 -89zM266 578c-2 -34 -2.83203 -70.167 -2.49902 -108.5s1.16602 -76.166 2.49902 -113.499c3.33301 -76.667 22.333 -136.334 57 -179.001
s86 -64 154 -64s119.333 21.333 154 64s53.667 102.334 57 179.001c2 37.333 3 75.166 3 113.499s-1 74.5 -3 108.5c-4 76.667 -23.167 135.667 -57.5 177s-85.5 62 -153.5 62s-118.833 -20.667 -152.5 -62s-53.167 -100.333 -58.5 -177zM274.001 1181
c0 21.333 7.5 39.5 22.5 54.5s33.167 22.5 54.5 22.5s39.666 -7.5 54.999 -22.5s23 -33.167 23 -54.5s-7.66699 -39.666 -23 -54.999s-33.666 -23 -54.999 -23s-39.5 7.66699 -54.5 23s-22.5 33.666 -22.5 54.999zM544.001 1181c0 21.333 7.66699 39.5 23 54.5
s33.666 22.5 54.999 22.5s39.666 -7.5 54.999 -22.5s23 -33.167 23 -54.5s-7.66699 -39.666 -23 -54.999s-33.666 -23 -54.999 -23s-39.666 7.66699 -54.999 23s-23 33.666 -23 54.999z" />
    <glyph glyph-name="divide" unicode="&#xf7;" horiz-adv-x="627" 
d="M196 760v197h203v-197h-203zM198 91v197h203v-197h-203zM602 601v-140h-588v140h588z" />
    <glyph glyph-name="oslash" unicode="&#xf8;" horiz-adv-x="880" 
d="M444 -7c-66.667 0 -124.333 10 -173 30l-68 -148l-53 29l67 147c-44 28.667 -77.833 68.5 -101.5 119.5s-37.167 114.167 -40.5 189.5c-1.33301 29.333 -2 62.5 -2 99.5s0.666992 73.5 2 109.5c4.66699 122 38.834 214.333 102.501 277s152.5 94 266.5 94
c62.667 0 118.667 -10 168 -30l47 102l54 -27l-47 -103c46 -30 81.667 -71 107 -123s39.333 -115.333 42 -190c1.33301 -36 2 -72.5 2 -109.5s-0.666992 -70.167 -2 -99.5c-6.66699 -126 -41.334 -218.667 -104.001 -278s-151.667 -89 -267 -89zM655.001 578
c-4 72.667 -21.333 128.667 -52 168l-276 -602c32 -20.667 71 -31 117 -31c68 0 119.333 21.333 154 64s53.667 102.334 57 179.001c2 37.333 3 75.166 3 113.499s-1 74.5 -3 108.5zM233.001 578c-2 -34 -2.83301 -70.167 -2.5 -108.5s1.16602 -76.166 2.49902 -113.499
c1.33301 -35.333 6 -66.833 14 -94.5s19.333 -51.834 34 -72.501l275 600c-31.333 18.667 -68.666 28 -111.999 28c-68 0 -118.833 -20.667 -152.5 -62s-53.167 -100.333 -58.5 -177z" />
    <glyph glyph-name="ugrave" unicode="&#xf9;" horiz-adv-x="1006" 
d="M735 0l-0.00195312 101c-52 -72.667 -142 -109 -270 -109c-59.333 0 -110.666 9.5 -153.999 28.5s-79 45 -107 78s-48.833 72 -62.5 117s-20.5 93.833 -20.5 146.5v566h162v-578c0 -40 5.66699 -75.5 17 -106.5s27 -57 47 -78s43.5 -36.833 70.5 -47.5s56.5 -16 88.5 -16
s61.833 5.33301 89.5 16s51.834 26.5 72.501 47.5s37 47 49 78s18 66.5 18 106.5v578h164v-928h-164zM659.998 1036h-113l-311 203h162z" />
    <glyph glyph-name="uacute" unicode="&#xfa;" horiz-adv-x="1014" 
d="M735 0l-0.00195312 101c-52 -72.667 -142 -109 -270 -109c-59.333 0 -110.666 9.5 -153.999 28.5s-79 45 -107 78s-48.833 72 -62.5 117s-20.5 93.833 -20.5 146.5v566h162v-578c0 -40 5.66699 -75.5 17 -106.5s27 -57 47 -78s43.5 -36.833 70.5 -47.5s56.5 -16 88.5 -16
s61.833 5.33301 89.5 16s51.834 26.5 72.501 47.5s37 47 49 78s18 66.5 18 106.5v578h164v-928h-164zM597.998 1245h162l-311 -203h-113z" />
    <glyph glyph-name="ucircumflex" unicode="&#xfb;" horiz-adv-x="1014" 
d="M735 0l-0.00195312 101c-52 -72.667 -142 -109 -270 -109c-59.333 0 -110.666 9.5 -153.999 28.5s-79 45 -107 78s-48.833 72 -62.5 117s-20.5 93.833 -20.5 146.5v566h162v-578c0 -40 5.66699 -75.5 17 -106.5s27 -57 47 -78s43.5 -36.833 70.5 -47.5s56.5 -16 88.5 -16
s61.833 5.33301 89.5 16s51.834 26.5 72.501 47.5s37 47 49 78s18 66.5 18 106.5v578h164v-928h-164zM493.998 1250l200 -203h-90l-123 160l-143 -160h-92l221 203h27z" />
    <glyph glyph-name="udieresis" unicode="&#xfc;" horiz-adv-x="1026" 
d="M735 0l-0.00195312 101c-52 -72.667 -142 -109 -270 -109c-59.333 0 -110.666 9.5 -153.999 28.5s-79 45 -107 78s-48.833 72 -62.5 117s-20.5 93.833 -20.5 146.5v566h162v-578c0 -40 5.66699 -75.5 17 -106.5s27 -57 47 -78s43.5 -36.833 70.5 -47.5s56.5 -16 88.5 -16
s61.833 5.33301 89.5 16s51.834 26.5 72.501 47.5s37 47 49 78s18 66.5 18 106.5v578h164v-928h-164zM276.998 1148c0 21.333 7.5 39.5 22.5 54.5s33.167 22.5 54.5 22.5s39.666 -7.5 54.999 -22.5s23 -33.167 23 -54.5s-7.66699 -39.666 -23 -54.999
s-33.666 -23 -54.999 -23s-39.5 7.66699 -54.5 23s-22.5 33.666 -22.5 54.999zM546.998 1148c0 21.333 7.66699 39.5 23 54.5s33.666 22.5 54.999 22.5s39.666 -7.5 54.999 -22.5s23 -33.167 23 -54.5s-7.66699 -39.666 -23 -54.999s-33.666 -23 -54.999 -23
s-39.666 7.66699 -54.999 23s-23 33.666 -23 54.999z" />
    <glyph glyph-name="yacute" unicode="&#xfd;" horiz-adv-x="766" 
d="M250 -260l121 362l-375 826h176l256 -645l205 645h153l-378 -1188h-158zM483 1251h162l-311 -203h-113z" />
    <glyph glyph-name="thorn" unicode="&#xfe;" horiz-adv-x="822" 
d="M130 1063l127.003 -0.000976562v-295c48 50 107.333 75 178 75c93.333 0 166.166 -26.667 218.499 -80s80.166 -128.666 83.499 -225.999c1.33301 -46 -3.83398 -88 -15.501 -126s-30 -70.833 -55 -98.5s-56.833 -49.167 -95.5 -64.5s-84 -23 -136 -23
c-72 0 -131.333 24 -178 72v-297h-127v1063zM260.003 543.999c-1.33301 -21.333 0 -45 4 -71s12.333 -50.333 25 -73s30.667 -41.5 54 -56.5s54 -22.5 92 -22.5c34 0 62.333 6.5 85 19.5s40.667 30 54 51s22.5 44.833 27.5 71.5s6.83301 53.667 5.5 81
c-3.33301 62 -19 111 -47 147s-69.667 54 -125 54s-97.333 -18 -126 -54s-45 -85 -49 -147z" />
    <glyph glyph-name="ydieresis" unicode="&#xff;" horiz-adv-x="758" 
d="M371 102l-375 826h176l256 -645l205 645h153l-378 -1188h-158zM204 1159c0 21.333 7.5 39.5 22.5 54.5s33.167 22.5 54.5 22.5s39.666 -7.5 54.999 -22.5s23 -33.167 23 -54.5s-7.66699 -39.666 -23 -54.999s-33.666 -23 -54.999 -23s-39.5 7.66699 -54.5 23
s-22.5 33.666 -22.5 54.999zM474 1159c0 21.333 7.66699 39.5 23 54.5s33.666 22.5 54.999 22.5s39.666 -7.5 54.999 -22.5s23 -33.167 23 -54.5s-7.66699 -39.666 -23 -54.999s-33.666 -23 -54.999 -23s-39.666 7.66699 -54.999 23s-23 33.666 -23 54.999z" />
    <glyph glyph-name="OE" unicode="&#x152;" horiz-adv-x="1630" 
d="M562 1287c64.667 0 123.667 -12.832 177 -38.499s96 -59.167 128 -100.5v130h666v-133h-519v-395h448v-132h-448v-485h519v-133h-666v127c-16 -20 -34.833 -38.167 -56.5 -54.5s-45.667 -30.5 -72 -42.5s-54.5 -21.167 -84.5 -27.5s-61.333 -9.5 -94 -9.5
c-141.333 0 -249.5 40.5 -324.5 121.5s-115.833 208.167 -122.5 381.5c-1.33301 40 -2 85 -2 135s0.666992 99.667 2 149c4.66699 167.333 45.167 293.666 121.5 378.999s185.5 128 327.5 128zM852 465.001c0.666992 27.333 1.33301 56.334 2 87.001s1 61.5 1 92.5
s-0.166992 61.5 -0.5 91.5s-1.16602 57.667 -2.49902 83c-6.66699 112 -33.667 198.333 -81 259s-117.666 91 -210.999 91c-46.667 0 -87.334 -7.83301 -122.001 -23.5s-63.834 -38.334 -87.501 -68.001s-42 -66.167 -55 -109.5s-21.167 -93 -24.5 -149
c-1.33301 -25.333 -2.33301 -53 -3 -83s-1 -60.5 -1 -91.5s0.333008 -61.833 1 -92.5s1.66699 -59.667 3 -87c3.33301 -114 28.833 -201.833 76.5 -263.5s118.5 -92.5 212.5 -92.5c93.333 0 164.333 30.833 213 92.5s75 149.5 79 263.5z" />
    <glyph glyph-name="oe" unicode="&#x153;" horiz-adv-x="1532" 
d="M1450 287c-14.667 -99.333 -50.668 -173.165 -108.001 -221.498s-139.666 -72.5 -246.999 -72.5c-68 0 -128.5 13.167 -181.5 39.5s-95.833 69.5 -128.5 129.5c-30.667 -57.333 -71.834 -99.833 -123.501 -127.5s-113.167 -41.5 -184.5 -41.5
c-113.333 0 -201.833 29.833 -265.5 89.5s-98.167 152.167 -103.5 277.5c-1.33301 29.333 -2 62.5 -2 99.5s0.666992 73.5 2 109.5c4.66699 122 38.834 214.333 102.501 277s152.5 94 266.5 94c71.333 0 133 -14.667 185 -44s93.333 -73.333 124 -132c34 62 77 107 129 135
s112 42 180 42c55.333 0 105.666 -9.33301 150.999 -28s84 -48.834 116 -90.501s56.667 -96 74 -163s26 -148.5 26 -244.5h-605c6.66699 -102.667 30.334 -177.834 71.001 -225.501s96.334 -71.5 167.001 -71.5c32 0 59.833 4.66699 83.5 14s43.667 21.833 60 37.5
s28.666 33.667 36.999 54s12.833 41.5 13.5 63.5h161zM265.999 578.001c-2 -34 -2.83203 -70.167 -2.49902 -108.5s1.16602 -76.166 2.49902 -113.499c3.33301 -76.667 22.333 -136.334 57 -179.001s86 -64 154 -64s120.333 21.333 157 64s56.667 102.334 60 179.001
c2 37.333 3 75.166 3 113.499s-1 74.5 -3 108.5c-4 76.667 -24.167 135.667 -60.5 177s-88.5 62 -156.5 62s-118.833 -20.667 -152.5 -62s-53.167 -100.333 -58.5 -177zM1095 817.001c-71.333 0 -127.5 -22.667 -168.5 -68s-64.167 -119.333 -69.5 -222h448
c-4 56.667 -11.667 103.667 -23 141s-26 67 -44 89s-39 37.5 -63 46.5s-50.667 13.5 -80 13.5z" />
    <glyph glyph-name="Scaron" unicode="&#x160;" horiz-adv-x="1032" 
d="M488 1411l-193 215h119l98 -170l99 170h114l-190 -215h-47zM503 1296c67.333 0 126.499 -8.83496 177.499 -26.502s93.667 -43 128 -76s59.833 -73.167 76.5 -120.5s24.667 -100.666 24 -159.999h-164c0 36.667 -4.83301 71.334 -14.5 104.001s-24.5 61 -44.5 85
s-45.167 43 -75.5 57s-66.166 21 -107.499 21c-31.333 0 -60.833 -4.66699 -88.5 -14s-52 -22.333 -73 -39s-37.5 -36.5 -49.5 -59.5s-18 -47.833 -18 -74.5s4.66699 -50.834 14 -72.501s25 -42.5 47 -62.5s50.833 -40.333 86.5 -61s79.834 -43.334 132.501 -68.001
c48 -22 93.5 -45.833 136.5 -71.5s80.5 -55.167 112.5 -88.5s57.333 -71.166 76 -113.499s28 -91.166 28 -146.499c0 -51.333 -10.833 -97.166 -32.5 -137.499s-51.167 -74.333 -88.5 -102s-80.666 -48.834 -129.999 -63.501s-101.666 -22 -156.999 -22
c-52 0 -102.833 7 -152.5 21s-93.667 36.167 -132 66.5s-68.833 69.166 -91.5 116.499s-33 104.666 -31 171.999h170c0 -44.667 7.16699 -82.667 21.5 -114s32.666 -57 54.999 -77s47.666 -34.667 75.999 -44s56.5 -14 84.5 -14c77.333 0 136.333 18.833 177 56.5
s61 91.167 61 160.5c0 36 -6.5 67.833 -19.5 95.5s-31 52.667 -54 75s-50.667 42.833 -83 61.5s-67.5 36.667 -105.5 54c-62.667 28.667 -116.834 56.834 -162.501 84.501s-83.5 56.334 -113.5 86.001s-52.333 61.5 -67 95.5s-22 71.667 -22 113
c0 44.667 9.83301 85.5 29.5 122.5s47 68.833 82 95.5s76.5 47.5 124.5 62.5s100.333 22.5 157 22.5z" />
    <glyph glyph-name="scaron" unicode="&#x161;" horiz-adv-x="774" 
d="M373 1031l-193 215h119l98 -170l99 170h114l-190 -215h-47zM374 108c24.667 0 47.834 1.33301 69.501 4s40.667 8.33398 57 17.001s29.166 21 38.499 37s14 37.667 14 65c0 26 -3.83301 47.333 -11.5 64s-19.334 31.167 -35.001 43.5s-35.5 24.333 -59.5 36
s-52.333 26.167 -85 43.5l-106.5 57c-33 18 -61.667 38.167 -86 60.5s-43.666 48.166 -57.999 77.499s-21.5 65.333 -21.5 108c0 33.333 8 63.666 24 90.999s37.667 50.833 65 70.5s59.5 34.834 96.5 45.501s76.167 16 117.5 16c42 0 82 -5 120 -15s71.5 -25.667 100.5 -47
s51.667 -48.5 68 -81.5s24.166 -72.5 23.499 -118.5h-144c0 18 -4.33301 36.333 -13 55s-20.5 35.5 -35.5 50.5s-32.667 27.333 -53 37s-42.5 14.5 -66.5 14.5c-26 0 -48.5 -4.33301 -67.5 -13s-34.667 -19.834 -47 -33.501s-21.5 -29.334 -27.5 -47.001s-9 -35.5 -9 -53.5
c0 -18.667 4.66699 -35.5 14 -50.5s23.166 -29.5 41.499 -43.5s40.833 -28 67.5 -42s57.334 -29 92.001 -45l94.5 -46c30.333 -15.333 57.166 -33.333 80.499 -54s42 -45 56 -73s21 -62 21 -102c0 -40.667 -8.33301 -76.167 -25 -106.5s-39.667 -55.666 -69 -75.999
s-64.333 -35.666 -105 -45.999s-85 -15.5 -133 -15.5c-89.333 0 -160.666 22.5 -213.999 67.5s-83.666 109.167 -90.999 192.5h157c3.33301 -44 17.5 -79 42.5 -105s59.167 -39 102.5 -39z" />
    <glyph glyph-name="Ydieresis" unicode="&#x178;" horiz-adv-x="805" 
d="M684 1278h183l-373 -729v-549h-162v549l-373 729h187l266 -612zM195 1494c0 21.333 7.5 39.5 22.5 54.5s33.167 22.5 54.5 22.5s39.666 -7.5 54.999 -22.5s23 -33.167 23 -54.5s-7.66699 -39.666 -23 -54.999s-33.666 -23 -54.999 -23s-39.5 7.66699 -54.5 23
s-22.5 33.666 -22.5 54.999zM465 1494c0 21.333 7.66699 39.5 23 54.5s33.666 22.5 54.999 22.5s39.666 -7.5 54.999 -22.5s23 -33.167 23 -54.5s-7.66699 -39.666 -23 -54.999s-33.666 -23 -54.999 -23s-39.666 7.66699 -54.999 23s-23 33.666 -23 54.999z" />
    <glyph glyph-name="Zcaron" unicode="&#x17d;" horiz-adv-x="956" 
d="M503 1381l-193 215h119l98 -170l99 170h114l-190 -215h-47zM889 1278l-584 -1145h559v-133h-803l582 1145h-558l1 133h803z" />
    <glyph glyph-name="zcaron" unicode="&#x17e;" horiz-adv-x="670" 
d="M333 1031l-193 215h119l98 -170l99 170h114l-190 -215h-47zM635 0h-617l409 801h-384v127h616l-408 -801h384v-127z" />
    <glyph glyph-name="florin" unicode="&#x192;" horiz-adv-x="465" 
d="M123 715l-123 0.00195312v114h123v185c0 54.667 5.33301 99.167 16 133.5s25 61.166 43 80.499s38.667 32.5 62 39.5s47.666 10.5 72.999 10.5h168v-109h-112c-28 0 -51.833 -11.167 -71.5 -33.5s-29.5 -58.166 -29.5 -107.499v-199h131v-114h-133v-797
c0 -54 -3.83301 -99.333 -11.5 -136s-19.667 -66.167 -36 -88.5s-37.5 -38.333 -63.5 -48s-57 -14.5 -93 -14.5h-80v119h49c20.667 0 36.834 4 48.501 12s20.5 19.167 26.5 33.5s9.66699 31.666 11 51.999s2 43.166 2 68.499v799z" />
    <glyph glyph-name="circumflex" unicode="&#x2c6;" horiz-adv-x="694" 
d="M365 1416l210 -203h-90l-133 160l-133 -160h-92l211 203h27z" />
    <glyph glyph-name="tilde" unicode="&#x2dc;" horiz-adv-x="549" 
d="M72 1309l24.0039 26.999c8.66699 10 18.167 19.5 28.5 28.5s22 16.667 35 23s27.5 9.5 43.5 9.5c21.333 0 39.666 -3.83301 54.999 -11.5s29.333 -16.167 42 -25.5l36 -25.5c11.333 -7.66699 23.666 -11.5 36.999 -11.5c16 0 30.167 2 42.5 6s23.5 9 33.5 15
s19 12.167 27 18.5l22 17.5v-63l-19.5 -25c-7 -8.66699 -15.333 -16.834 -25 -24.501s-20.834 -14 -33.501 -19s-27 -7.5 -43 -7.5c-20.667 0 -37.167 3.66699 -49.5 11s-24 15.5 -35 24.5s-23.167 17.333 -36.5 25s-31 11.5 -53 11.5
c-17.333 0 -32.666 -3.16699 -45.999 -9.5s-25.333 -13.666 -36 -21.999s-19.834 -16.666 -27.501 -24.999s-14.834 -14.833 -21.501 -19.5v72z" />
    <glyph glyph-name="sheva" unicode="&#x5b0;" 
d="M1 -133c18 0 33.833 -6.5 47.5 -19.5s20.5 -29.167 20.5 -48.5c0 -18.667 -6.83301 -34.5 -20.5 -47.5s-29.5 -19.5 -47.5 -19.5c-19.333 0 -35.833 6.5 -49.5 19.5s-20.5 28.833 -20.5 47.5c0 16.667 5.83301 32.167 17.5 46.5s29.167 21.5 52.5 21.5zM1 -342
c18 0 33.833 -6.5 47.5 -19.5s20.5 -29.167 20.5 -48.5s-6.83301 -35.333 -20.5 -48s-29.5 -19 -47.5 -19c-19.333 0 -35.833 6.33301 -49.5 19s-20.5 28.667 -20.5 48s6.5 35.5 19.5 48.5s29.833 19.5 50.5 19.5z" />
    <glyph glyph-name="hatafsegol" unicode="&#x5b1;" 
d="M-206 -133c19.333 0 35.5 -6.5 48.5 -19.5s19.5 -29.167 19.5 -48.5c0 -18.667 -6.5 -34.5 -19.5 -47.5s-29.167 -19.5 -48.5 -19.5s-35.333 6.5 -48 19.5s-19 28.833 -19 47.5c0 16.667 5.66699 32.167 17 46.5s28 21.5 50 21.5zM7 -133c17.333 0 33 -5.5 47 -16.5
s21 -28.167 21 -51.5c0 -18.667 -6.16699 -34.5 -18.5 -47.5s-28.833 -19.5 -49.5 -19.5c-18.667 0 -34.5 6.5 -47.5 19.5s-19.5 28.833 -19.5 47.5c0 20.667 6.33301 37.167 19 49.5s28.667 18.5 48 18.5zM206 -133c22 0 38.667 -7.16699 50 -21.5s17 -29.833 17 -46.5
c0 -18.667 -6.5 -34.5 -19.5 -47.5s-28.833 -19.5 -47.5 -19.5c-19.333 0 -35.5 6.83301 -48.5 20.5s-19.5 29.167 -19.5 46.5c0 20.667 6.16699 37.167 18.5 49.5s28.833 18.5 49.5 18.5zM-101 -312c17.333 0 32.833 -5.83301 46.5 -17.5s20.5 -28.5 20.5 -50.5
c0 -18.667 -6.16699 -34.5 -18.5 -47.5s-28.5 -19.5 -48.5 -19.5c-17.333 0 -33 6.33301 -47 19s-21 28.667 -21 48c0 16.667 6.16699 32.167 18.5 46.5s28.833 21.5 49.5 21.5zM206 -322c17.333 0 32.833 -6 46.5 -18s20.5 -28.667 20.5 -50
c0 -19.333 -6.5 -35.333 -19.5 -48s-28.833 -19 -47.5 -19c-16 0 -31.333 5.83301 -46 17.5s-22 28.167 -22 49.5c0 19.333 6.16699 35.5 18.5 48.5s28.833 19.5 49.5 19.5z" />
    <glyph glyph-name="hatafpatah" unicode="&#x5b2;" 
d="M179 -133c22 0 38.333 -7.16699 49 -21.5s16 -29.833 16 -46.5c0 -16 -5.33301 -31.167 -16 -45.5s-27 -21.5 -49 -21.5c-20.667 0 -37.167 6.83301 -49.5 20.5s-18.5 29.167 -18.5 46.5c0 19.333 6.5 35.5 19.5 48.5s29.167 19.5 48.5 19.5zM-263 -227v86h301v-86h-301z
M179 -342c15.333 0 30 -6 44 -18s21 -28.667 21 -50c0 -16 -5.33301 -31.167 -16 -45.5s-27 -21.5 -49 -21.5c-18.667 0 -34.667 5.83301 -48 17.5s-20 28.167 -20 49.5c0 17.333 5.5 33 16.5 47s28.167 21 51.5 21z" />
    <glyph glyph-name="hatafqamats" unicode="&#x5b3;" 
d="M169 -133c22 0 38.333 -7.16699 49 -21.5s16 -29.833 16 -46.5c0 -16 -5.33301 -31.167 -16 -45.5s-27 -21.5 -49 -21.5c-20.667 0 -37.167 6.83301 -49.5 20.5s-18.5 29.167 -18.5 46.5c0 19.333 6.5 35.5 19.5 48.5s29.167 19.5 48.5 19.5zM-222 -382v157h-131v84h351
v-84h-126v-157h-94zM169 -342c15.333 0 30 -6 44 -18s21 -28.667 21 -50c0 -16 -5.33301 -31.167 -16 -45.5s-27 -21.5 -49 -21.5c-18.667 0 -34.667 5.83301 -48 17.5s-20 28.167 -20 49.5c0 17.333 5.5 33 16.5 47s28.167 21 51.5 21z" />
    <glyph glyph-name="hiriq" unicode="&#x5b4;" 
d="M1 -142c20 0 37.501 -7 52.501 -21s22.5 -31.667 22.5 -53c0 -22 -7.5 -40 -22.5 -54s-32.5 -21 -52.5 -21c-21.333 0 -39.5 7 -54.5 21s-22.5 32 -22.5 54c0 8.66699 1.5 17.5 4.5 26.5s7.83301 17 14.5 24s14.667 12.667 24 17s20.666 6.5 33.999 6.5z" />
    <glyph glyph-name="tsere" unicode="&#x5b5;" 
d="M-103 -145c7.33301 0 14.833 -1.5 22.5 -4.5s14.667 -7.33301 21 -13s11.5 -12.667 15.5 -21s6 -17.833 6 -28.5c0 -19.333 -6.5 -35.5 -19.5 -48.5s-28.167 -19.5 -45.5 -19.5c-21.333 0 -38 6.33301 -50 19s-18 29 -18 49c0 18.667 6.16699 34.5 18.5 47.5
s28.833 19.5 49.5 19.5zM103 -145c22 0 38.832 -7.16699 50.499 -21.5s17.5 -29.5 17.5 -45.5c0 -20 -6 -36.333 -18 -49s-28.667 -19 -50 -19c-7.33301 0 -15 1.5 -23 4.5s-15.167 7.5 -21.5 13.5s-11.666 13.167 -15.999 21.5s-6.5 17.833 -6.5 28.5
c0 17.333 6.33301 32.833 19 46.5s28.667 20.5 48 20.5z" />
    <glyph glyph-name="segol" unicode="&#x5b6;" 
d="M-103 -139c14.667 0 29.167 -5.49902 43.5 -16.499s21.5 -27.5 21.5 -49.5c0 -18.667 -6.5 -34.5 -19.5 -47.5s-28.167 -19.5 -45.5 -19.5c-21.333 0 -38 6.33301 -50 19s-18 28.667 -18 48s6.16699 35.166 18.5 47.499s28.833 18.5 49.5 18.5zM103 -138.999
c22 0 38.832 -6.83105 50.499 -20.498s17.5 -28.834 17.5 -45.501c0 -19.333 -6 -35.333 -18 -48s-28.667 -19 -50 -19c-7.33301 0 -15 1.5 -23 4.5s-15.167 7.33301 -21.5 13s-11.666 12.667 -15.999 21s-6.5 17.833 -6.5 28.5c0 17.333 6.33301 32.666 19 45.999
s28.667 20 48 20zM0.999023 -306.997c18 0 33.833 -6.5 47.5 -19.5s20.5 -29.167 20.5 -48.5c0 -18.667 -6.83301 -34.5 -20.5 -47.5s-29.5 -19.5 -47.5 -19.5c-19.333 0 -35.833 6.5 -49.5 19.5s-20.5 28.833 -20.5 47.5c0 19.333 6.5 35.5 19.5 48.5
s29.833 19.5 50.5 19.5z" />
    <glyph glyph-name="patah" unicode="&#x5b7;" 
d="M401 -243v89h322v-89h-322z" />
    <glyph glyph-name="qamats" unicode="&#x5b8;" 
d="M-46 -409v175h-135v82h362v-82h-135v-175h-92z" />
    <glyph glyph-name="holam" unicode="&#x5b9;" 
d="M0 1330c24 0 42.499 -7.5 55.499 -22.5s19.5 -32.5 19.5 -52.5c0 -19.333 -7.16699 -36 -21.5 -50s-32.166 -21 -53.499 -21s-39.166 7 -53.499 21s-21.5 31.333 -21.5 52c0 23.333 7.66699 41.333 23 54s32.666 19 51.999 19z" />
    <glyph glyph-name="qubuts" unicode="&#x5bb;" 
d="M-134 -93c19.333 0 35.5 -6.16797 48.5 -18.501s19.5 -28.166 19.5 -47.499s-6.33301 -35.333 -19 -48s-29 -19 -49 -19c-19.333 0 -35 6.33301 -47 19s-18 28.667 -18 48c0 8 1.5 15.833 4.5 23.5s7.33301 14.667 13 21s12.5 11.5 20.5 15.5s17 6 27 6zM1 -216.001
c18 0 33.833 -6.33301 47.5 -19s20.5 -28.667 20.5 -48c0 -18.667 -6.83301 -34.667 -20.5 -48s-29.5 -20 -47.5 -20c-19.333 0 -35.833 6.66699 -49.5 20s-20.5 29.333 -20.5 48c0 20.667 6.5 37 19.5 49s29.833 18 50.5 18zM131 -334.001c20 0 36.333 -6.5 49 -19.5
s19 -28.833 19 -47.5c0 -19.333 -6.33301 -35.5 -19 -48.5s-29 -19.5 -49 -19.5c-19.333 0 -35 6.5 -47 19.5s-18 29.167 -18 48.5c0 18.667 6.5 34.5 19.5 47.5s28.167 19.5 45.5 19.5z" />
    <glyph glyph-name="dagesh" unicode="&#x5bc;" 
d="M0 650c24 0 42.499 -7.5 55.499 -22.5s19.5 -32.5 19.5 -52.5c0 -19.333 -7.16699 -36 -21.5 -50s-32.166 -21 -53.499 -21s-39.166 7 -53.499 21s-21.5 31.333 -21.5 52c0 23.333 7.66699 41.333 23 54s32.666 19 51.999 19z" />
    <glyph glyph-name="meteg" unicode="&#x5bd;" 
d="M-42 -150h84v-303h-84v303z" />
    <glyph glyph-name="maqaf" unicode="&#x5be;" horiz-adv-x="614" 
d="M555 1061v-145h-494v145h494z" />
    <glyph glyph-name="paseq" unicode="&#x5c0;" 
d="M-77 0v1061h155v-1061h-155z" />
    <glyph glyph-name="shindot" unicode="&#x5c1;" 
d="M0 1330c24 0 42.499 -7.5 55.499 -22.5s19.5 -32.5 19.5 -52.5c0 -19.333 -7.16699 -36 -21.5 -50s-32.166 -21 -53.499 -21s-39.166 7 -53.499 21s-21.5 31.333 -21.5 52c0 23.333 7.66699 41.333 23 54s32.666 19 51.999 19z" />
    <glyph glyph-name="sindot" unicode="&#x5c2;" 
d="M0 1330c24 0 42.499 -7.5 55.499 -22.5s19.5 -32.5 19.5 -52.5c0 -19.333 -7.16699 -36 -21.5 -50s-32.166 -21 -53.499 -21s-39.166 7 -53.499 21s-21.5 31.333 -21.5 52c0 23.333 7.66699 41.333 23 54s32.666 19 51.999 19z" />
    <glyph glyph-name="alef" unicode="&#x5d0;" horiz-adv-x="1094" 
d="M813 0l-404 608c-41.333 -11.333 -72 -33.333 -92 -66s-30 -74.667 -30 -126l3 -416h-180v354c0 42 3.16699 82.333 9.5 121s18 73.834 35 105.501s40.333 59 70 82s68.167 39.833 115.5 50.5l-232 348h186l349 -535c26 4 49.667 10.333 71 19s39.333 20.5 54 35.5
s26 33.167 34 54.5s12 46.666 12 75.999v350h177v-305c0 -104 -23.833 -183.5 -71.5 -238.5s-114.167 -87.5 -199.5 -97.5l291 -420h-198z" />
    <glyph glyph-name="bet" unicode="&#x5d1;" horiz-adv-x="1007" 
d="M955 145v-145h-858v145h535v768h-535v148h719v-916h139z" />
    <glyph glyph-name="gimel" unicode="&#x5d2;" horiz-adv-x="664" 
d="M396 239c-7.33301 -36 -18.6689 -68.665 -34.002 -97.998s-34.833 -54.5 -58.5 -75.5s-52.167 -37.167 -85.5 -48.5s-71.666 -17 -114.999 -17h-61v160h78c46.667 0 85.834 6.66699 117.501 20s57 31.5 76 54.5s32.5 50.333 40.5 82s12 66.167 12 103.5
c0 13.333 -0.5 26.666 -1.5 39.999s-2.16699 26.666 -3.5 39.999c-2 19.333 -4.33301 40 -7 62l-8 67.5c-2.66699 23 -5.5 45.833 -8.5 68.5l-8.5 66c-6.66699 49.333 -13 99 -19 149h-204v148h354l135 -1061h-162l-33 239h-4z" />
    <glyph glyph-name="dalet" unicode="&#x5d3;" horiz-adv-x="954" 
d="M571 0v913h-505v148h802v-148h-108v-913h-189z" />
    <glyph glyph-name="he" unicode="&#x5d4;" horiz-adv-x="1090" 
d="M133 582h180v-582h-180v582zM940 1061v-1061h-180v913h-635v148h815z" />
    <glyph glyph-name="vav" unicode="&#x5d5;" horiz-adv-x="499" 
d="M346 1061v-1061h-188v1061h188z" />
    <glyph glyph-name="zayin" unicode="&#x5d6;" horiz-adv-x="715" 
d="M352 0l-30.001 154.999l-27.5 144.5l-26.5 146.5c-7.33301 44 -14.166 87.333 -20.499 130s-9.5 83 -9.5 121c0 45.333 6.16699 86.5 18.5 123.5s35.5 67.833 69.5 92.5h-254v148h567v-148h-186c-20.667 -27.333 -35 -55.166 -43 -83.499s-12 -58.833 -12 -91.5
c0 -38.667 4.16699 -80.334 12.5 -125.001l28.5 -151l34 -179l28 -147c9.33301 -49.333 18.333 -94.666 27 -135.999h-176z" />
    <glyph glyph-name="het" unicode="&#x5d7;" horiz-adv-x="1096" 
d="M631 1061c72 0 130.5 -10.6699 175.5 -32.0029s80 -51.666 105 -90.999s41.833 -86.666 50.5 -141.999s13 -116.666 13 -183.999v-612h-184v633c0 38.667 -2 75 -6 109s-12 63.667 -24 89s-29.167 45.333 -51.5 60s-51.833 22 -88.5 22h-295v-913h-181v1061h486z" />
    <glyph glyph-name="tet" unicode="&#x5d8;" horiz-adv-x="1128" 
d="M989 1061l-0.000976562 -511.999c0 -103.333 -12.167 -190 -36.5 -260s-58.5 -126.333 -102.5 -169s-96.667 -73.334 -158 -92.001s-129 -28 -203 -28h-295l-104 1061h186l87 -916h118c51.333 0 97.333 5.5 138 16.5s75.334 33 104.001 66s50.5 80.167 65.5 141.5
s22.5 142.333 22.5 243v301h-240v148h418z" />
    <glyph glyph-name="yod" unicode="&#x5d9;" horiz-adv-x="498" 
d="M350 1062v-550h-188v550h188z" />
    <glyph glyph-name="finalkaf" unicode="&#x5da;" horiz-adv-x="821" 
d="M688 1061v-1321h-186v1173h-443v148h629v0z" />
    <glyph glyph-name="kaf" unicode="&#x5db;" horiz-adv-x="915" 
d="M395 1061c145.333 0 253.001 -34.666 323.001 -103.999s105 -176.666 105 -321.999v-211c0 -143.333 -36.667 -249.833 -110 -319.5s-179.333 -104.5 -318 -104.5h-297v145h305c34.667 0 66.5 4.66699 95.5 14s53.667 24.666 74 45.999s36.166 49.833 47.499 85.5
s17 79.5 17 131.5v207c0 52.667 -5.5 97.167 -16.5 133.5s-26.667 65.666 -47 87.999s-45 38.333 -74 48s-61.167 14.5 -96.5 14.5h-307v148h299z" />
    <glyph glyph-name="lamed" unicode="&#x5dc;" horiz-adv-x="899" 
d="M864 1061l-389 -1061h-180l328 913h-543v365h160v-217h624z" />
    <glyph glyph-name="finalmem" unicode="&#x5dd;" horiz-adv-x="1092" 
d="M971 0l-844 -0.000976562v1061h485c68 0 125 -8.5 171 -25.5s83 -42.167 111 -75.5s47.833 -75.166 59.5 -125.499s17.5 -108.833 17.5 -175.5v-659zM800 649.999c0 36.667 -1.66797 70.999 -5.00098 102.999s-11.833 59.833 -25.5 83.5s-34.167 42.334 -61.5 56.001
s-64.666 20.5 -111.999 20.5h-294v-767h498v504z" />
    <glyph glyph-name="mem" unicode="&#x5de;" horiz-adv-x="1090" 
d="M506 145l291.001 0.00195312v488c0 42.667 -3 81.167 -9 115.5s-17.333 63.666 -34 87.999s-39.334 43.166 -68.001 56.499s-65.667 20 -111 20h-126l-193 -913h-184l200 913h-172v148h467c80 0 146.167 -10.667 198.5 -32s93.833 -53.5 124.5 -96.5
s52.167 -96.667 64.5 -161s18.5 -139.833 18.5 -226.5v-545h-467v145z" />
    <glyph glyph-name="finalnun" unicode="&#x5df;" horiz-adv-x="504" 
d="M344 1061v-1321h-188v1321h188z" />
    <glyph glyph-name="nun" unicode="&#x5e0;" horiz-adv-x="641" 
d="M190 145c25.333 0 46.5 2.49902 63.5 7.49902s30.5 14 40.5 27s17.167 30.667 21.5 53s6.5 50.5 6.5 84.5v596h-144v148h326v-756c0 -47.333 -6 -89.666 -18 -126.999s-29.5 -69.333 -52.5 -96s-51.333 -47 -85 -61s-72.167 -21 -115.5 -21h-161v145h118z" />
    <glyph glyph-name="samekh" unicode="&#x5e1;" horiz-adv-x="1092" 
d="M977 1061v-511.999c0 -103.333 -12.333 -190 -37 -260s-59.167 -126.333 -103.5 -169s-97.5 -73.334 -159.5 -92.001s-130 -28 -204 -28h-242l-131 1061h877zM807 913.001l-506.998 0.00195312l94 -768h69c34.667 0 67.167 1.66699 97.5 5s58.166 10.5 83.499 21.5
s48.166 26.5 68.499 46.5s37.5 46.667 51.5 80s24.667 74.166 32 122.499s11 106.166 11 173.499v319z" />
    <glyph glyph-name="ayin" unicode="&#x5e2;" horiz-adv-x="1040" 
d="M918 1061l-0.000976562 -440.002c0 -74 -6.66699 -140 -20 -198s-36.5 -110 -69.5 -156s-77.167 -87.167 -132.5 -123.5s-124.666 -69.5 -207.999 -99.5l-54.5 -19.5l-67 -24l-74 -26l-74.5 -26.5l-179 -62l-45 139l295 104l-187 932h191l162 -877
c41.333 16 79.5 32.833 114.5 50.5s65 40.334 90 68.001s44.5 62.334 58.5 104.001s21 94.5 21 158.5v496h179z" />
    <glyph glyph-name="finalpe" unicode="&#x5e3;" horiz-adv-x="995" 
d="M862 -260h-188.001v909c0 52.667 -4.33301 96 -13 130s-22 61 -40 81s-41.167 33.833 -69.5 41.5s-62.5 11.5 -102.5 11.5h-143v-430h-181v578h313c74.667 0 138.834 -8 192.501 -24s97.667 -40.833 132 -74.5s59.5 -76.667 75.5 -129s24 -114.5 24 -186.5v-907z" />
    <glyph glyph-name="pe" unicode="&#x5e4;" horiz-adv-x="1104" 
d="M524 1061c145.333 0 253 -34.6699 323 -104.003s105 -176.666 105 -321.999v-211c0 -143.333 -36.5 -249.833 -109.5 -319.5s-179.167 -104.5 -318.5 -104.5h-368v145h376c34.667 0 66.5 4.16699 95.5 12.5s54 22.833 75 43.5s37.167 48.334 48.5 83.001s17 78 17 130
v237c0 52 -5.5 95 -16.5 129s-26.833 60.833 -47.5 80.5s-45.5 33.334 -74.5 41.001s-61.5 11.5 -97.5 11.5h-199v-424h-179v572h370z" />
    <glyph glyph-name="finaltsadi" unicode="&#x5e5;" horiz-adv-x="961" 
d="M672 1061h174.001v-262c0 -73.333 -9.5 -137.166 -28.5 -191.499s-46.833 -100.166 -83.5 -137.499s-81.834 -66.5 -135.501 -87.5s-115.167 -34.5 -184.5 -40.5l131 -602h-172l-285 1321h170l125 -585c53.333 1.33301 98.333 8.33301 135 21s66.5 31.667 89.5 57
s39.5 57.666 49.5 96.999s15 86.666 15 141.999v268z" />
    <glyph glyph-name="tsadi" unicode="&#x5e6;" horiz-adv-x="1075" 
d="M956 731c0 -36 -5.99707 -71.166 -17.9971 -105.499s-29.833 -65.5 -53.5 -93.5s-52.834 -52 -87.501 -72s-74.334 -34 -119.001 -42l274 -418h-815v145h528l-606 916h203l347 -523c61.333 11.333 105.166 33.166 131.499 65.499s39.5 73.5 39.5 123.5v334h176v-330z" />
    <glyph glyph-name="qof" unicode="&#x5e7;" horiz-adv-x="1130" 
d="M985 1061l0.000976562 -537c0 -102 -10.833 -186.667 -32.5 -254s-52.834 -121 -93.501 -161s-90.5 -68.167 -149.5 -84.5s-125.5 -24.5 -199.5 -24.5h-25v145h15c50.667 0 95 4 133 12s69.333 26 94 54s43.167 69 55.5 123s18.5 126.667 18.5 218v361h-697v148h881z
M143.001 668h168v-928h-168v928z" />
    <glyph glyph-name="resh" unicode="&#x5e8;" horiz-adv-x="899" 
d="M424 1061c72.667 0 132.166 -11.666 178.499 -34.999s82.666 -55.833 108.999 -97.5s44.333 -91 54 -148s14.5 -119.167 14.5 -186.5v-594h-186v606c0 39.333 -2.33301 77.5 -7 114.5s-13.667 69.667 -27 98s-31.666 51.166 -54.999 68.499s-53.666 26 -90.999 26h-320
v148h330z" />
    <glyph glyph-name="shin" unicode="&#x5e9;" horiz-adv-x="1331" 
d="M1014 1061h174.001v-514c0 -183.333 -44 -320.333 -132 -411s-215.333 -136 -382 -136h-459l-98 1061h175l86 -915h275c54 0 103.333 6 148 18s82.667 32 114 60s55.666 65 72.999 111s26 103 26 171v555zM745.001 1061v-668h-168v668h168z" />
    <glyph glyph-name="tav" unicode="&#x5ea;" horiz-adv-x="1176" 
d="M680 1061c72 0 131.167 -11.3359 177.5 -34.0029s82.833 -54.167 109.5 -94.5s45.167 -88.666 55.5 -144.999s15.5 -118.166 15.5 -185.499v-602h-180v637c0 38.667 -2.5 74.834 -7.5 108.501s-14.5 63 -28.5 88s-33.333 44.5 -58 58.5s-56.667 21 -96 21h-245v-913h-370
v145h193v768h-115v148h549z" />
    <glyph glyph-name="uni2000" unicode="&#x2000;" horiz-adv-x="827" 
 />
    <glyph glyph-name="uni2001" unicode="&#x2001;" horiz-adv-x="1654" 
 />
    <glyph glyph-name="uni2002" unicode="&#x2002;" horiz-adv-x="827" 
 />
    <glyph glyph-name="uni2003" unicode="&#x2003;" horiz-adv-x="1654" 
 />
    <glyph glyph-name="uni2004" unicode="&#x2004;" horiz-adv-x="551" 
 />
    <glyph glyph-name="uni2005" unicode="&#x2005;" horiz-adv-x="413" 
 />
    <glyph glyph-name="uni2006" unicode="&#x2006;" horiz-adv-x="275" 
 />
    <glyph glyph-name="uni2007" unicode="&#x2007;" horiz-adv-x="275" 
 />
    <glyph glyph-name="uni2008" unicode="&#x2008;" horiz-adv-x="206" 
 />
    <glyph glyph-name="uni2009" unicode="&#x2009;" horiz-adv-x="330" 
 />
    <glyph glyph-name="uni200A" unicode="&#x200a;" horiz-adv-x="91" 
 />
    <glyph glyph-name="uni2010" unicode="&#x2010;" horiz-adv-x="803" 
d="M688 601v-140h-588v140h588z" />
    <glyph glyph-name="uni2011" unicode="&#x2011;" horiz-adv-x="803" 
d="M688 601v-140h-588v140h588z" />
    <glyph glyph-name="figuredash" unicode="&#x2012;" horiz-adv-x="803" 
d="M688 601v-140h-588v140h588z" />
    <glyph glyph-name="endash" unicode="&#x2013;" horiz-adv-x="1094" 
d="M1062 587v-113h-1042v113h1042z" />
    <glyph glyph-name="emdash" unicode="&#x2014;" horiz-adv-x="2163" 
d="M2120 574v-92h-2067v92h2067z" />
    <glyph glyph-name="quoteleft" unicode="&#x2018;" horiz-adv-x="428" 
d="M92 760l80 444h137v-131l-147 -313h-70v0z" />
    <glyph glyph-name="quoteright" unicode="&#x2019;" horiz-adv-x="426" 
d="M92 760l80 444h137v-131l-147 -313h-70v0z" />
    <glyph glyph-name="quotesinglbase" unicode="&#x201a;" horiz-adv-x="428" 
d="M92 760l80 444h137v-131l-147 -313h-70v0z" />
    <glyph glyph-name="quotedblleft" unicode="&#x201c;" horiz-adv-x="618" 
d="M157 1203h122v-129l-131 -309h-63zM397 1203h121v-129l-130 -309h-62z" />
    <glyph glyph-name="quotedblright" unicode="&#x201d;" horiz-adv-x="635" 
d="M157 1203h122v-129l-131 -309h-63zM397 1203h121v-129l-130 -309h-62z" />
    <glyph glyph-name="quotedblbase" unicode="&#x201e;" horiz-adv-x="625" 
d="M157 1203h122v-129l-131 -309h-63zM397 1203h121v-129l-130 -309h-62z" />
    <glyph glyph-name="dagger" unicode="&#x2020;" horiz-adv-x="768" 
d="M-33 752h862l-213 -371.5l-219 -378.5zM649 647h-499l251 -436z" />
    <glyph glyph-name="daggerdbl" unicode="&#x2021;" horiz-adv-x="811" 
d="M827 252h-862l432 749zM145 356h500l-252 437z" />
    <glyph glyph-name="bullet" unicode="&#x2022;" horiz-adv-x="659" 
d="M98 527c0 31.333 5.83301 60.666 17.5 87.999s27.834 51.166 48.501 71.499s44.667 36.333 72 48s56.666 17.5 87.999 17.5s60.666 -5.83301 87.999 -17.5s51.166 -27.667 71.499 -48s36.333 -44.166 48 -71.499s17.5 -56.666 17.5 -87.999
s-5.83301 -60.666 -17.5 -87.999s-27.667 -51.166 -48 -71.499s-44.166 -36.333 -71.499 -48s-56.666 -17.5 -87.999 -17.5s-60.666 5.83301 -87.999 17.5s-51.333 27.667 -72 48s-36.834 44.166 -48.501 71.499s-17.5 56.666 -17.5 87.999z" />
    <glyph glyph-name="ellipsis" unicode="&#x2026;" horiz-adv-x="1612" 
d="M199 0v197h203v-197h-203zM687 0v197h203v-197h-203zM1209 0v197h203v-197h-203z" />
    <glyph glyph-name="uni202F" unicode="&#x202f;" horiz-adv-x="330" 
 />
    <glyph glyph-name="perthousand" unicode="&#x2030;" horiz-adv-x="1200" 
d="M163 0h-69l615 1061h67zM245 1066c55.333 0 97.5 -14.833 126.5 -44.5s43.5 -73.834 43.5 -132.501v-189c0 -58.667 -14.5 -103.667 -43.5 -135s-71.167 -47 -126.5 -47c-54.667 0 -96.667 15.667 -126 47s-44 76.333 -44 135v189c0 58.667 14.667 102.834 44 132.501
s71.333 44.5 126 44.5zM245 588c26 0 45.9971 9.66699 59.9971 29s20.667 43 20 71v213c0.666992 27.333 -6 49.833 -20 67.5s-34 26.5 -60 26.5c-25.333 0 -44.833 -8.16699 -58.5 -24.5s-20.5 -39.5 -20.5 -69.5v-213c0 -12.667 1.83301 -25 5.5 -37
s8.83398 -22.667 15.501 -32s14.834 -16.833 24.501 -22.5s20.834 -8.5 33.501 -8.5zM629.997 542c55.333 0 97.666 -15 126.999 -45s44 -74.333 44 -133v-190c0 -58.667 -14.667 -103.667 -44 -135s-71.666 -47 -126.999 -47c-54.667 0 -96.667 15.667 -126 47
s-44 76.333 -44 135v190c0 58.667 14.667 103 44 133s71.333 45 126 45zM629.997 62c26 0 45.9971 9.83301 59.9971 29.5s20.667 43.5 20 71.5v213c0.666992 27.333 -6 50 -20 68s-34 27 -60 27c-25.333 0 -44.833 -8.33301 -58.5 -25s-20.5 -40 -20.5 -70v-213
c0 -13.333 1.83301 -26 5.5 -38s8.83398 -22.667 15.501 -32s14.834 -16.833 24.501 -22.5s20.834 -8.5 33.501 -8.5zM1018.99 542c55.333 0 97.666 -15 126.999 -45s44 -74.333 44 -133v-190c0 -58.667 -14.667 -103.667 -44 -135s-71.666 -47 -126.999 -47
c-54.667 0 -96.667 15.667 -126 47s-44 76.333 -44 135v190c0 58.667 14.667 103 44 133s71.333 45 126 45zM1018.99 62c26 0 45.9971 9.83301 59.9971 29.5s20.667 43.5 20 71.5v213c0.666992 27.333 -6 50 -20 68s-34 27 -60 27c-25.333 0 -44.833 -8.33301 -58.5 -25
s-20.5 -40 -20.5 -70v-213c0 -13.333 1.83301 -26 5.5 -38s8.83398 -22.667 15.501 -32s14.834 -16.833 24.501 -22.5s20.834 -8.5 33.501 -8.5z" />
    <glyph glyph-name="guilsinglleft" unicode="&#x2039;" horiz-adv-x="689" 
d="M41 570l551 273v-119l-416 -193l416 -191v-116l-551 273v73z" />
    <glyph glyph-name="guilsinglright" unicode="&#x203a;" horiz-adv-x="719" 
d="M642 497l-551 -273v116l416 191l-416 193v119l551 -273v-73z" />
    <glyph glyph-name="uni205F" unicode="&#x205f;" horiz-adv-x="413" 
 />
    <glyph glyph-name="newsheqelsign" unicode="&#x20aa;" horiz-adv-x="1597" 
d="M1083 344h-174v420c0 26 -2.5 48.5 -7.5 67.5s-13.167 34.667 -24.5 47s-26.333 21.5 -45 27.5s-42 9.33301 -70 10h-433v-916h-173v1061h635c93.333 0 165.333 -24.833 216 -74.5s76 -118.5 76 -206.5v-436zM535 0v717.002h171v-572h412
c26 0.666992 48.333 3.66699 67 9s34 14 46 26s20.833 27.667 26.5 47s8.5 42.666 8.5 69.999v764h176v-780c0 -89.333 -26 -157.833 -78 -205.5s-124.333 -72.834 -217 -75.501h-612z" />
    <glyph glyph-name="Euro" unicode="&#x20ac;" horiz-adv-x="913" 
d="M41 567l131 0.000976562v129h-131v101h131v118c0 60.667 6.5 114 19.5 160s34 84.667 63 116s66.5 55 112.5 71s102 24 168 24c48 0 89.333 -4.66699 124 -14s63.667 -21.666 87 -36.999s41.833 -32.5 55.5 -51.5s24.167 -38.167 31.5 -57.5s12 -37.833 14 -55.5
s3 -32.5 3 -44.5h-133c-2 28 -6.5 52.167 -13.5 72.5s-17.667 37.166 -32 50.499s-32.666 23.166 -54.999 29.499s-49.5 9.5 -81.5 9.5c-21.333 0 -44.5 -2.5 -69.5 -7.5s-48.167 -15.167 -69.5 -30.5s-39.166 -37 -53.499 -65s-21.5 -65.333 -21.5 -112l-2 -176h209v-101
h-209v-129h209v-100h-209l1 -139c0 -51.333 6.16699 -93.166 18.5 -125.499s28.5 -57.5 48.5 -75.5s42.833 -30.333 68.5 -37s52.167 -10 79.5 -10c32 0 59.333 4.5 82 13.5s41.5 21.167 56.5 36.5s26 33.5 33 54.5s10.5 43.5 10.5 67.5h135
c-0.666992 -14.667 -2.33398 -31.5 -5.00098 -50.5s-7.83398 -38.333 -15.501 -58s-18.667 -38.834 -33 -57.501s-33.166 -35.5 -56.499 -50.5s-52 -27 -86 -36s-74.333 -13.5 -121 -13.5c-66 0 -121.833 7.33301 -167.5 22s-82.834 36.667 -111.501 66
s-49.667 66.5 -63 111.5s-20 97.833 -20 158.5l1 123h-133v100z" />
    <glyph glyph-name="trademark" unicode="&#x2122;" horiz-adv-x="1092" 
d="M37 1198v80h323v-80h-104v-440h-104v440h-115zM866 1278h131v-520h-85v435l-142 -320h-98l-144 320v-435h-88v520h140l139 -306z" />
    <glyph glyph-name="arrowleft" unicode="&#x2190;" horiz-adv-x="2048" 
d="M498 823l-265 -250h1715v-82h-1715l267 -248h-117l-303 285l303 295h115z" />
    <glyph glyph-name="arrowright" unicode="&#x2192;" horiz-adv-x="2048" 
d="M1646 823l303 -295l-303 -285h-117l267 248h-1715v82h1715l-265 250h115z" />
    <glyph glyph-name="minus" unicode="&#x2212;" horiz-adv-x="793" 
d="M688 601v-140h-588v140h588z" />
    <glyph glyph-name="uni25FC" unicode="&#x25fc;" horiz-adv-x="930" 
d="M0 930h930v-930h-930v930z" />
    <glyph glyph-name="peace" unicode="&#x262e;" horiz-adv-x="931" 
d="M39 757v8v153h850v-823h-850v662zM206 517h-5v7h-9v2h9v14h-3v10h3v4h-11v2h-20v10h-4v39h-5v-71h23v-16h-15v-1h-7v1h-1v-1h-8v1h-5v-1h-3v1h-5v-1h-1v1h-1v-1h-1v1h-2v-1h-14v-16h16v-11h4v11h156v12h-31v1h5v7h-34v3h-31v-7zM826 771h13v16h-2v7h2v11h-2v8h2v13h-2v2
h2v30h-7v2h7v25h-67v-14h3v-15h-3v-6h11v30h2v-30h1v-1h-1v-28h10v44h3v-44h5v40h9v-40h2v52h12v-52h3v-19h-3v-31zM533 130h34v21h6v-21h11v9h1v-9h2v35h-9v2h9v14h-4v11h4v3h-11v3h-20v9h-3v37h-7v-68h24v-17h-24v-21h-4v-3h-9v-5zM342 297h17v12h-3v24h-25v33h-4v-24h-8
v24h-6v-27h4v-30h-4v-22h4v-2h-4v-5h6v1h8v-1h4v3h17v-3h11v8h-17v9zM720 297h16v12h-2v24h-26v33h-3v-24h-8v24h-6v-27h5v-30h-5v-22h5v-2h-5v-5h6v1h8v-1h3v3h18v-3h10v8h-16v9zM712 655h17v12h-3v24h-25v34h-4v-25h-8v25h-6v-27h5v-31h-5v-21h5v-3h-5v-3h18v2h17v-2h11v6
h-17v9zM291 412v7h-3v1h3v8h-3v36h69v-20h5v14h7v5h-7v9h6v23h-7v-17h-2v17h-6v-14h-2v14h-3v-23h9v-2h-187v-6h106v-45h3v-7h4v7h4v-7h4zM335 655h16v12h-3v24h-25v34h-3v-25h-9v25h-5v-27h4v-31h-4v-21h4v-3h-4v-3h17v2h18v-2h10v6h-16v9zM463 847v38h-68v-14h1v-15h-1v-6
h10v30h3v-30h1v-1h-1v-2h10v18h2v-18h5v14h10v-14h2v26h11v7h3v-33h12zM592 130h89v5h-6v1h-65v5h-13v9h52v3h2v2h12v3h-3v4h-37v3h-31v-35zM105 253h4v33h-11v-24h3v-4h-3v-18h2v-5h-2v-33h1v-6h-1v-11h8v-5h-8v-10h4v-3h-4v-12h2v-2h9v54h-9v14h9v29h-4v3zM188 140h7v-10
h7v18h7v17h-10v2h10v14h-3v11h3v3h-11v3h-10v-22h4v-17h-4v-19zM179 771v-33h8v13h5v20h4v-17h18v20h-18v-2h-4v7h-5v11h-8v-18h-2v-1h2zM574 754h17v20h-17v-2h-4v7h-5v11h-8v-52h8v13h5v20h4v-17zM215 144h4v6h52v3h2v2h13v3h-3v4h-37v3h-31v-21zM565 412v-33h7v13h6v20h4
v-17h17v20h-17v-2h-4v7h-6v11h-7v-18h-3v-1h3zM85 512v76h-12v-76h4v9h5v-9h3zM557 512h23v12h-10v2h10v14h-4v10h4v4h-12v2h-11v-22h5v-16h-5v-6zM204 395h17v20h-17v-2h-5v7h-5v11h-6v-52h6v13h5v20h5v-17zM233 318h3v-25h4v25h5v-25h3v65h-15v-40zM739 698h10v-21h17v36
h-27v-15zM547 566h-3v60h-3v3h-2v-95h17v22h-9v10zM604 677h2v-26h4v26h5v-26h3v67h-14v-41zM729 871v14h-81v-5h2v-9h2v8h5v-8h4v5h9v-5h3v13h10v-13h18v9h17v-9h11zM179 207h-4v43h-6v-74h18v22h-8v9zM848 571h-6v-17h4v6h5v-6h2v-3h-2v-139h4v159h-6v-9h-1v9zM612 450
v-30h3v32h7v-32h3v9h2v29h-2v3h-77v-5h64v-5h-47v-1h47zM493 885h-25v-38h10v28h8v-28h7v38zM475 511v-10h-4v10h-3v-10h-5v10h-3v-10h-35v10h-5v-1h4v-9h-7v-6h-1v-7h9v6h2v-6h7v6h26v-6h11v6h4v-6h3v6h1v7h-1v10h-3zM233 539v1h-27v-14h31v4h29v2h8v7h-20v-2h-14v2h-7z
M611 539v1h-27v-14h31v4h28v2h9v7h-20v-2h-14v2h-7zM227 677h2v-26h3v26h4v-26h4v67h-13v-41zM738 130h85v33h-3v-25h-8v25h-7v-13h5v-14h-17v-5h-3v5h-52v-6zM369 339h11v-21h15v36h-26v-15zM612 318h2v-25h4v25h4v-25h3v65h-13v-40zM100 580v25h-10v-6h3v-5h4v-6h-7v-76h3
v15h5v-15h2v54h-8v14h8zM351 871v14h-75v-6h3v-8h4v5h10v-5h3v13h10v-13h17v9h18v-9h10zM620 180v1h-28v-14h31v5h28v2h9v6h-21v-2h-14v2h-5zM241 180v1h-26v-14h31v5h27v2h10v6h-21v-2h-14v2h-7zM567 574h13v52h-13v-52zM758 318h2v7h5v-7h8v36h-26v-15h11v-21zM114 885
h-24v-38h10v28h9v-28h5v38zM584 512h3v6h5v-6h51v2h7v7h-35v3h-31v-12zM834 412h12v120h-4v-5h3v-5h-3v-98h-5v19h-3v-31zM201 698v20h-11v-30h4v-4h-4v-30h11v30h-5v14h5zM503 472v43h-14v-43h14zM369 472h26v23h-26v-23zM747 495v-23h26v23h-26zM708 379v32h8v26h-18v-17
h15v-1h-15v-8h6v-32h4zM190 574h11v52h-11v-52zM701 738v32h6v26h-16v-17h14v-1h-14v-8h5v-32h5zM475 174v-21h11v54h-9v6h-2v-18h9v-3h-9v-15h6v-3h-6zM69 885v-38h2v33h2v-33h12v38h-16zM493 580v81h-7v-21h2v-4h-2v-8h2v-15h-2v-33h7zM457 130h29v22h-11v-16h-4v16h-11
v-16h-3v-6zM726 495v-23h9v-28h4v14h7v5h-7v9h6v23h-7v-17h-2v17h-5v-14h-2v14h-3zM580 698v20h-13v-28h6v-7h-6v-13h13v14h-5v14h5zM631 438h11v16h-5v4h-8v-29h2v-9h19v8h-8v9h-11v1zM475 670h3v43h-10v-15h2v-7h3v-7h-5v-29h10v6h-3v9zM209 339v19h-13v-43h13v9h-4v15h4z
M660 357v1h-3v-1h-7v1h-11v-19h11v7h7v-7h3v7h4v-7h5v21h-5v-3h-4zM532 885h-29v-29h5v24h2v-24h4v27h2v-27h1v15h6v13h2v-13h7v14zM722 739h7v9h-11v-50h11v32h-7v9zM352 380h7v9h-11v-50h11v32h-7v9zM154 885h-28v-29h4v24h2v-24h5v27h1v-27h1v15h7v13h2v-13h6v14z
M739 831h27v18h-27v-18zM739 536h27v18h-27v-18zM353 837h-2v12h-10v-18h8v-28h5v14h7v5h-7v9h5v18h-6v-12zM283 357v1h-4v-1h-8v1h-9v-1h-1v-11h1v-7h9v7h8v-7h4v7h4v-7h4v21h-4v-3h-4zM623 797h11v17h-6v3h-6v-30h1v-8h18v7h-7v10h-11v1zM584 871h8v14h-35v-14h23v6h4v-6z
M246 797h10v17h-5v3h-7v-30h2v-8h17v7h-7v10h-10v1zM254 438h10v16h-5v4h-7v-29h2v-9h17v8h-7v9h-10v1zM245 430v-10h3v9h2v29h-17v-38h4v32h8v-1h-4v-21h4zM731 380h5v9h-10v-50h10v32h-5v9zM494 130h8v5h-2v20h2v4h-7v17h7v31h-8v-54h4v-1h-4v-22zM274 715v3h-3v-3h-8v3
h-9v-20h9v7h8v-7h3v7h5v-7h4v20h-4v-3h-5zM652 715v3h-2v-3h-9v3h-9v-3h-1v-10h1v-7h9v7h9v-7h2v7h5v-7h4v20h-4v-3h-5zM362 831h25v18h-25v-18zM389 136v-6h57v22h-3v-14h-9v14h-7v-2h4v-14h-15v-5h-3v5h-24zM523 390v-56h8v56h-8zM731 837h-2v12h-11v-18h9v-28h4v14h7v5
h-7v9h5v18h-5v-12zM345 739h6v9h-10v-50h10v32h-6v9zM468 532v-20h3v15h4v-15h3v54h-9v5h-1v-17h7v-3h-7v-15h5v-4h-5zM209 216v34h-13v-34h13zM494 389v-55h8v55h-8zM320 411h1v1h17v25h-18v-17h15v-1h-15v-8zM739 580h27v16h-27v-16zM69 152v-22h23v22h-10v-16h-5v16h-8z
M793 495v-33h10v60h-5v-12h3v-15h-8zM369 412h26v16h-26v-16zM747 412h26v16h-26v-16zM122 302h1v10h-7v-59h7v48h-1v1zM313 771h17v25h-17v-17h14v-1h-14v-7zM497 312h-3v-32h2v-3h-2v-7h2v-15h-2v-4h8v52h-5v9zM486 748v-58h7v58h-7zM516 748v-58h7v58h-7zM739 771h27v15
h-27v-15zM582 324v8h-7v-37h12v29h-5zM236 136v-6h67v5h-5v1h-62zM116 149h1v-18h-1v-1h7v5h-1v20h1v4h-6v17h6v31h-7v-54h4v-1h-4v-3zM73 623h12v38h-12v-18h7v-9h-5v-2h-1v2h-1v-11zM613 876h20v9h-35v-14h15v5zM463 599v14h-12v-33h12v13h-1v6h1zM90 623h10v38h-10v-38z
M766 871v14h-27v-14h27zM166 138v-8h4v10h17v19h-18v-21h-3zM362 771h25v15h-25v-15zM69 467v-51h8v30h-6v6h6v15h-8zM471 221v14h-1v5h1v15h-11v-34h11zM604 817v-38h4v32h7v-32h3v8h2v30h-16zM826 580h11v33h-11v-33zM73 805v-30h12v30h-12zM452 805v-3h-1v-27h12v30h-11z
M387 871v14h-25v-14h25zM849 713v-58h6v58h-6zM584 497v-8h-4v8h-15v-17h-3v-4h5v12h8v-12h12v21h-3zM525 629v-49h7v49h-7zM516 629v-49h7v49h-7zM587 216v28h-12v-28h12zM533 376v-42h8v42h-8zM793 177h10v36h-10v-10h3v-8h-3v-18zM408 536h10v35h-10v-8h2v-9h-2v-18z
M785 536h10v35h-10v-8h2v-9h-2v-18zM82 446v-30h11v30h-11zM98 446v-30h11v30h-11zM475 446v-30h11v30h-11zM227 817v-38h2v32h7v-32h4v8h2v30h-15zM848 713h-22v-15h22v15zM206 497v-8h-5v8h-13v-21h2v12h6v-12h13v21h-3zM461 446v-3h-1v-27h11v30h-10zM739 655h27v12h-27
v-12zM402 449v-37h11v16h-4v21h-7zM478 580v33h-10v-14h2v-6h-2v-13h10zM348 245h11v32h-11v-4h6v-6h-6v-22zM408 339h5v15h-11v-36h6v6h5v5h-5v10zM855 339v15h-21v-15h21zM525 735v-45h7v45h-7zM826 655h22v29h-3v-17h-19v-12zM484 323h2v9h-5v-8h-6v-27h11v15h-2v11z
M369 297h26v12h-26v-12zM73 722h12v26h-12v-26zM718 604h11v32h-11v-4h7v-6h-7v-22zM146 390v-44h7v44h-7zM305 798v22h-14v-22h14zM691 439v22h-14v-22h14zM416 177h9v36h-9v-10h3v-8h-3v-18zM90 805v-30h10v30h-10zM468 805v-30h10v30h-10zM503 642v-50h2v-3h-2v-9h5v49
h-1v6h1v7h-5zM777 698h6v15h-11v-36h5v7h6v4h-6v10zM747 410h-11v-21h2v-9h7v9h2v21zM780 495v-23h3v-10h7v33h-5v-4h-2v4h-3zM780 449v-37h10v16h-4v21h-6zM313 439v22h-13v-22h13zM682 798v22h-13v-22h13zM341 604h10v32h-10v-4h6v-6h-6v-22zM785 339h5v15h-10v-36h5v6h5
v5h-5v10zM775 821h8v28h-11v-18h3v-10zM138 805v-34h8v34h-8zM523 446v-34h8v34h-8zM154 446v-34h8v34h-8zM533 446v-34h8v34h-8zM739 720h27v10h-27v-10zM747 516h19v14h-19v-14zM146 651v33h-8v-33h8zM587 339v19h-12v-24h7v5h5zM395 361v10h-26v-10h26zM773 361v10h-26
v-10h26zM90 748v-26h10v26h-10zM109 609h5v52h-5v-52zM399 698h6v15h-10v-36h4v7h6v4h-6v10zM77 691h8v8h-12v-26h12v11h-8v7zM856 397v3h-85v-3h85zM486 516h7v2h-6v16h6v32h-7v-50zM650 472v23h-11v-23h11zM416 501v4h-63v-4h63zM380 713v-36h7v36h-7zM262 183h21v12h-21
v-12zM639 183h21v12h-21v-12zM739 768h-10v-20h2v-9h5v9h3v20zM812 462v35h-7v-35h7zM834 462h3v60h-11v-8h8v-52zM739 739h27v9h-27v-9zM739 604h27v9h-27v-9zM431 195h3v18h-7v-36h7v15h-3v3zM809 195h3v18h-7v-36h7v15h-3v3zM530 486v22h-11v-22h11zM650 221v22h-11v-22
h11zM154 376v-30h8v30h-8zM300 733v24h-10v-24h10zM678 733v24h-10v-24h10zM687 374v24h-10v-24h10zM637 318v40h-6v-40h6zM768 437v17h-14v-17h14zM146 446v-34h7v34h-7zM516 805v-34h7v34h-7zM556 871v14h-17v-14h17zM525 805v-34h7v34h-7zM553 412v34h-7v-34h7zM475 221
h11v23h-11v-4h3v-5h-3v-14zM145 556h1v10h-8v-32h8v2h-1v20zM847 843h1v15h-8v-30h8v10h-1v5zM747 380h26v9h-26v-9zM369 177h13v18h-13v-18zM747 177h13v18h-13v-18zM369 380h26v9h-26v-9zM162 221v29h-8v-29h8zM530 198h1v9h-8v-31h8v1h-1v21zM503 735v-45h5v45h-5z
M90 673h10v26h-10v-8h5v-7h-5v-11zM361 245h7v32h-7v-32zM98 291h11v21h-11v-12h9v-1h-9v-8zM510 745h1v-10h-1v-45h4v58h-4v-3zM209 295v17h-13v-17h13zM826 720h22v10h-22v-10zM632 543h20v11h-20v-11zM254 543h20v11h-20v-11zM82 262h11v24h-11v-1h5v-9h-5v-14zM726 251
h10v26h-10v-4h7v-6h-7v-16zM138 748v-27h8v27h-8zM494 439v-27h8v27h-8zM739 563h27v8h-27v-8zM308 374v24h-9v-24h9zM739 628h27v8h-27v-8zM557 835h1v12h9v-12h13v14h-23v-14zM518 389v-3h1v-10h-1v-42h4v56h-3v-1h-1zM436 402v-3h-18v-3h18v-7h6v7h2v3h-2v3h7v2h-7v6h-6
v-6h-6v-2h6zM834 361h21v10h-21v-10zM369 221h13v16h-13v-16zM747 221h13v16h-13v-16zM181 835v12h9v-12h11v14h-22v-10h-2v-4h4zM271 472v23h-9v-23h9zM402 495v-23h4v-10h7v5h-5v21h5v7h-5v-4h-3v4h-3zM628 677v41h-5v-41h5zM251 677v41h-5v-41h5zM478 334h8v20h-11v-15h3
v-5zM451 554h12v17h-12v-17zM834 221h6v34h-6v-34zM148 805v-34h6v34h-6zM522 556h1v10h-7v-32h7v2h-1v20zM175 412v34h-6v-34h6zM153 221v29h-7v-29h7zM123 221v29h-7v-29h7zM259 318v40h-5v-40h5zM146 580v25h-8v-25h8zM402 177h11v18h-11v-18zM140 389v-3h2v-10h-2v-30h5
v44h-3v-1h-2zM718 536h11v18h-11v-18zM772 536h11v18h-11v-18zM637 365v33h-6v-33h6zM639 249h11v18h-11v-18zM849 613v-33h6v33h-6zM842 613v-33h6v33h-6zM271 221v22h-9v-22h9zM263 580v22h-9v-22h9zM641 580v22h-9v-22h9zM460 195h11v18h-11v-18zM348 177h11v18h-11v-18z
M152 198h1v9h-7v-31h7v1h-1v21zM510 629v-49h4v49h-4zM219 885v-14h14v14h-14zM683 831h6v16h8v-16h4v18h-18v-18zM839 148h1v15h-6v-33h6v15h-1v3zM639 293h8v-6h3v22h-11v-16zM353 604h6v32h-6v-32zM834 297h6v9h10v-9h5v27h-2v-15h-19v-12zM154 654v30h-6v-33h4v3h2z
M575 251h12v16h-12v-16zM116 439v-27h7v27h-7zM486 798v-27h7v27h-7zM82 241h11v17h-11v-17zM82 202h11v17h-11v-17zM161 871h8v9h15v5h-23v-14zM826 554h11v17h-11v-17zM109 516h5v2h-4v16h4v32h-5v-50zM502 221v23h-8v-23h8zM541 221v23h-8v-23h8zM531 221v23h-8v-23h8z
M196 253h13v14h-13v-14zM738 251h7v26h-7v-26zM341 536h10v18h-10v-18zM395 536h10v18h-10v-18zM726 177h10v18h-10v-18zM780 177h10v18h-10v-18zM451 698h12v15h-12v-15zM451 536h12v15h-12v-15zM362 536h10v18h-10v-18zM348 412h11v16h-11v-16zM359 221v16h-11v-16h11z
M402 221h11v16h-11v-16zM729 580v16h-11v-16h11zM772 580h11v16h-11v-16zM221 427v25h-7v-25h7zM82 511v-23h11v23h-3v-16h-5v16h-3zM70 185h7v11h-8v-26h8v10h-7v5zM544 771v34h-5v-34h5zM166 771v34h-5v-34h5zM850 255v-34h5v34h-5zM747 158h13v13h-13v-13zM423 554h2v17
h-5v-35h5v15h-2v3zM369 158h13v13h-13v-13zM512 376v-42h4v42h-4zM546 334h7v24h-7v-24zM359 401v-4h10v4h5v4h-5v1h-10v-1h-14v-4h14zM800 554h3v17h-5v-35h5v15h-3v3zM106 149h3v3h-10v-22h10v1h-3v18zM369 280h13v6h7v-6h6v8h-26v-8zM251 724v33h-5v-33h5zM628 724v33h-5
v-33h5zM460 339h11v15h-11v-15zM460 177h11v15h-11v-15zM718 771h11v15h-11v-15zM772 771h11v15h-11v-15zM259 365v33h-5v-33h5zM116 389v-13h1v-3h-1v-8h7v24h-7zM137 651v33h-5v-33h5zM826 536h11v15h-11v-15zM306 831h5v16h9v-16h3v18h-17v-18zM766 640v6h-27v-6h27z
M262 249h9v18h-9v-18zM632 608h9v18h-9v-18zM254 608h9v18h-9v-18zM632 831h9v18h-9v-18zM254 831h9v18h-9v-18zM739 850h27v6h-27v-6zM726 412h10v16h-10v-16zM793 412h10v16h-10v-16zM351 580v16h-10v-16h10zM405 580v16h-10v-16h10zM780 221h10v16h-10v-16zM736 221v16
h-10v-16h10zM503 566v-32h5v32h-5zM132 566v-32h5v32h-5zM418 580v16h-10v-16h10zM785 580h10v16h-10v-16zM793 221h10v16h-10v-16zM731 604h5v32h-5v-32zM138 629v-20h8v20h-8zM362 580h10v16h-10v-16zM641 771v7h-18v-10h11v3h7zM747 297h13v12h-13v-12zM262 293h7v-6h2
v22h-9v-16zM240 563v39h-4v-39h4zM140 439v-27h5v34h-3v-7h-2zM132 798v-27h5v34h-3v-7h-2zM313 494v-22h6v16h4v6h-10zM691 494v-22h6v16h4v6h-10zM397 821h8v5h-5v21h5v2h-10v-18h2v-10zM650 412v7h-19v-9h11v2h8zM140 207v-31h5v31h-5zM123 315v22h-7v-22h7zM632 651h7
v-5h2v21h-9v-16zM254 651h7v-5h2v21h-9v-16zM71 512v76h-2v-76h2zM69 511v-23h8v23h-4v-16h-2v16h-2zM533 270v-19h8v19h-8zM523 270v-19h8v19h-8zM362 698h10v15h-10v-15zM154 580v25h-6v-25h6zM341 771h10v15h-10v-15zM395 771h10v15h-10v-15zM362 850h25v6h-25v-6z
M785 771h10v15h-10v-15zM795 698v15h-10v-15h10zM418 698v15h-10v-15h10zM803 339v15h-10v-15h10zM166 654v30h-5v-30h5zM263 771v7h-17v-10h10v3h7zM849 748v-9h6v28h-5v-19h-1zM109 673h5v31h-5v-2h3v-3h-3v-26zM145 221v29h-5v-29h5zM765 195v-18h8v18h-8zM73 609h12v12
h-12v-12zM451 655h12v12h-12v-12zM416 221h9v16h-9v-16zM98 389v-13h11v13h-11zM82 376h11v13h-11v-13zM567 216v28h-5v-28h5zM539 690h5v28h-5v-28zM271 412v7h-17v-9h10v2h7zM557 850h23v6h-23v-6zM69 202h8v17h-8v-17zM206 550h34v4h-34v-4zM584 550h34v4h-34v-4zM69 241
h8v17h-8v-17zM154 270v-17h8v17h-8zM109 798v-27h5v27h-5zM425 339v15h-9v-15h9zM503 798v-27h5v27h-5zM85 594v11h-12v-11h12zM82 155h11v12h-11v-12zM460 297h11v12h-11v-12zM416 412h6v4h3v12h-9v-16zM93 300v12h-11v-12h11zM179 850h22v6h-22v-6zM683 532h6v22h-6v-22z
M402 297h11v12h-11v-12zM772 655h11v12h-11v-12zM73 826v-15h12v9h-8v6h-4zM240 724v33h-4v-33h4zM237 365v33h-4v-33h4zM608 724v33h-4v-33h4zM319 221v22h-6v-22h6zM689 580v22h-6v-22h6zM126 642v-33h4v33h-4zM369 203h13v10h-13v-10zM382 245v10h-13v-10h13zM747 203h13
v10h-13v-10zM109 748v-26h5v26h-5zM408 771h5v4h5v11h-10v-15zM803 150v13h-10v-13h10zM694 243h-3v-22h6v21h-3v1zM510 798v-27h4v34h-3v-7h-1zM518 439v-27h4v34h-3v-7h-1zM512 283v-32h4v32h-4zM765 237v-16h8v16h-8zM138 688h8v16h-8v-16zM126 566v-32h4v32h-4zM510 566
v-32h4v32h-4zM451 826v-5h1v-10h11v9h-7v6h-5zM361 130h21v6h-21v-6zM380 554v-18h7v18h-7zM313 174h6v21h-6v-21zM691 174h6v21h-6v-21zM361 177h7v18h-7v-18zM738 177h7v18h-7v-18zM137 580v25h-5v-25h5zM114 580v25h-5v-25h5zM181 574v31h-4v-31h4zM135 207v-31h4v31h-4z
M518 207v-31h4v31h-4zM512 207v-31h4v31h-4zM525 566v-10h5v-20h-5v-2h7v32h-7zM533 207v-9h6v-21h-6v-1h8v31h-8zM82 185h11v11h-11v-11zM82 224h11v11h-11v-11zM593 431v15h-8v-15h8zM562 334h5v24h-5v-24zM362 655h10v12h-10v-12zM181 654v30h-4v-30h4zM148 629v-20h6v20
h-6zM772 807v-20h6v20h-6zM395 807v-20h6v20h-6zM248 203v40h-3v-40h3zM625 203v40h-3v-40h3zM395 655h10v12h-10v-12zM780 297h10v12h-10v-12zM793 297h10v12h-10v-12zM785 655h10v12h-10v-12zM451 720h12v10h-12v-10zM135 376v-30h4v30h-4zM90 609h10v12h-10v-12zM840 860
h8v15h-8v-15zM146 270v-17h7v17h-7zM546 251h7v16h-5v3h-2v-19zM826 739h13v9h-13v-9zM98 315h11v12h-6v-3h-5v-9zM618 563v39h-3v-39h3zM425 150v13h-9v-13h9zM403 168h10v3h-11v-13h8v-8h3v13h-10v5zM610 465v2h-58v-2h58zM132 745h2v-10h-2v-14h5v27h-5v-3zM850 163v-15
h5v26h-5v-6h3v-5h-3zM135 283v-30h4v17h-1v6h1v7h-4zM380 596v-16h7v16h-7zM69 276v-14h8v14h-8zM664 495v-23h5v22h-3v1h-2zM812 221v16h-7v-16h7zM745 221v16h-7v-16h7zM427 221h7v16h-7v-16zM368 221v16h-7v-16h7zM606 574h4v28h-4v-28zM148 566v-10h4v-20h-4v-2h6v32h-6
zM738 412h7v16h-7v-16zM361 412h7v16h-7v-16zM805 412h7v16h-7v-16zM539 402v3h-37v-3h37zM82 170h11v10h-11v-10zM306 532h5v22h-5v-22zM460 361h11v10h-11v-10zM471 153v10h-11v-10h11zM413 361v10h-11v-10h11zM783 720v10h-11v-10h11zM311 580v22h-5v-22h5zM475 361h11
v10h-11v-10zM348 203h11v10h-11v-10zM413 245v10h-11v-10h11zM402 203h11v10h-11v-10zM669 221v22h-5v-22h5zM664 287h5v22h-5v-22zM639 203h11v10h-11v-10zM139 221v29h-4v-17h2v-3h-2v-9h4zM82 467v-15h11v8h-8v7h-3zM389 195v-18h6v18h-6zM834 380h12v9h-12v-9zM130 651
v33h-4v-11h2v-12h-2v-10h4zM85 327h-3v-12h11v9h-8v3zM313 249h6v18h-6v-18zM236 216h4v27h-4v-27zM683 608h6v18h-6v-18zM614 216h4v27h-4v-27zM126 798v-27h4v27h-4zM135 439v-27h4v27h-4zM512 439v-27h4v27h-4zM683 850h18v6h-18v-6zM353 536h6v18h-6v-18zM451 739h12v9
h-12v-9zM812 339v15h-7v-15h7zM745 339v15h-7v-15h7zM434 339v15h-7v-15h7zM368 339v15h-7v-15h7zM602 375v7h-15v-7h15zM69 389v-13h8v13h-8zM554 574h2v52h-2v-52zM765 171v-13h8v13h-8zM747 280h13v8h-13v-8zM840 813h8v13h-8v-13zM154 324h8v13h-8v-13zM823 221v34h-3
v-34h3zM446 221v34h-3v-34h3zM306 850h17v6h-17v-6zM187 216v34h-3v-34h3zM691 249h3v2h3v16h-6v-18zM154 207v-9h7v-21h-7v-1h8v31h-8zM726 203h10v10h-10v-10zM780 203h10v10h-10v-10zM790 361v10h-10v-10h10zM372 720v10h-10v-10h10zM405 720v10h-10v-10h10zM468 720h10
v10h-10v-10zM132 629v-20h5v20h-5zM418 720v10h-10v-10h10zM795 720v10h-10v-10h10zM803 361v10h-10v-10h10zM618 724v33h-3v-33h3zM615 365v33h-3v-33h3zM625 365v33h-3v-33h3zM592 192h33v3h-33v-3zM783 604v9h-11v-9h11zM460 380h11v9h-11v-9zM402 380h11v9h-11v-9z
M772 739h11v9h-11v-9zM475 389v-9h11v9h-11zM664 174h5v21h-5v-12h2v-3h-2v-6zM460 467v-5h1v-10h10v8h-8v7h-3zM248 365v33h-3v-33h3zM215 192h33v3h-33v-3zM348 158h11v13h-6v-9h-5v-4zM70 153v2h7v12h-8v-14h1zM380 530v-14h7v14h-7zM359 580v16h-6v-16h6zM69 315h8v12
h-8v-12zM77 300v12h-8v-12h8zM148 688h6v16h-6v-16zM765 309v-12h8v12h-8zM389 237v-16h6v16h-6zM288 381v12h-8v-12h8zM130 580v25h-4v-13h2v-3h-2v-9h4zM843 782h5v5h-8v-16h8v4h-5v7zM522 221v23h-4v-23h4zM240 472v23h-4v-23h4zM283 472v23h-4v-23h4zM618 472v23h-4v-23
h4zM738 158h7v13h-7v-13zM580 654v7h-13v-7h13zM361 158h7v13h-7v-13zM209 276v7h-13v-7h13zM580 635v7h-13v-7h13zM146 324h7v13h-7v-13zM161 609h5v17h-3v3h-2v-20zM486 670h7v13h-7v-13zM516 670h7v13h-7v-13zM525 670h7v13h-7v-13zM747 270h13v7h-13v-7zM369 270h13v7
h-13v-7zM785 739h10v9h-10v-9zM313 130h18v5h-18v-5zM793 380h10v9h-10v-9zM606 318v18h-5v-18h5zM229 318v18h-5v-18h5zM664 249h5v18h-5v-18zM287 495v-23h4v22h-2v1h-2zM306 608h5v18h-5v-18zM425 361v10h-9v-10h9zM731 536h5v18h-5v-18zM405 604v9h-10v-9h10zM418 604v9
h-10v-9h10zM425 245v10h-9v-10h9zM795 604v9h-10v-9h10zM353 771h6v15h-6v-15zM359 698v15h-6v-15h6zM395 739h10v9h-10v-9zM780 380h10v9h-10v-9zM262 203h9v10h-9v-10zM468 748v-9h10v9h-10zM90 820v-9h10v9h-10zM408 739h10v9h-10v-9zM468 820v-9h10v9h-10zM834 177h6v15
h-6v-15zM169 253h6v14h-4v3h-2v-17zM372 604v9h-10v-9h10zM362 739h10v9h-10v-9zM849 858v-15h6v15h-6zM849 875v-15h6v15h-6zM119 482v18h-5v-18h5zM287 287h4v22h-4v-22zM718 563h11v8h-11v-8zM82 291h11v8h-11v-8zM283 580v22h-4v-22h4zM291 221v22h-4v-22h4zM772 628h11
v8h-11v-8zM279 287h4v22h-4v-22zM283 221v22h-4v-22h4zM413 280v8h-11v-8h11zM98 460v-8h11v8h-11zM697 532h4v22h-4v-22zM69 224h8v11h-8v-11zM351 757h11v8h-11v-8zM661 580v22h-4v-22h4zM475 460v-8h11v8h-11zM475 280h11v8h-11v-8zM772 563h11v8h-11v-8zM98 365h11v8
h-11v-8zM82 365h11v8h-11v-8zM840 794h8v11h-8v-11zM826 628h11v8h-11v-8zM790 510v11h3v-11h2v12h-10v-12h5zM413 510v11h3v-11h2v12h-10v-12h5zM516 221v23h-4v-11h2v-3h-2v-9h4zM567 295v17h-5v-17h5zM726 158h10v13h-5v-9h-5v-4zM691 130h17v5h-17v-5zM140 270v-17h5v17
h-5zM353 516h6v14h-6v-14zM148 735v-14h6v14h-6zM657 646h4v21h-4v-21zM657 532h4v22h-4v-11h1v-4h-1v-7zM586 574h3v28h-3v-28zM738 297h7v12h-7v-12zM327 174h4v21h-4v-21zM229 574h3v28h-3v-28zM427 416h7v12h-7v-12zM359 871v14h-6v-14h6zM739 516h6v14h-6v-14zM805 297
h7v12h-7v-12zM361 297h7v12h-7v-12zM279 532h4v22h-4v-11h1v-4h-1v-7zM362 516h6v14h-6v-14zM587 276v7h-12v-7h12zM380 667v-12h7v12h-7zM279 646h4v21h-4v-21zM416 380h9v9h-9v-9zM300 339h3v27h-3v-27zM670 698h3v27h-3v-27zM287 174h4v21h-4v-12h1v-3h-1v-6zM293 698h3
v27h-3v-27zM678 339h3v27h-3v-27zM785 628h10v8h-10v-8zM798 580h5v16h-5v-16zM468 628h10v8h-10v-8zM803 280v8h-10v-8h10zM362 628h10v8h-10v-8zM395 628h10v8h-10v-8zM341 563h10v8h-10v-8zM736 580v16h-5v-16h5zM132 688h5v16h-5v-16zM562 251h5v16h-5v-16zM154 302h8
v10h-8v-10zM765 213v-10h8v10h-8zM531 293v10h-8v-10h8zM362 563h10v8h-10v-8zM395 563h10v8h-10v-8zM790 280v8h-10v-8h10zM451 628h12v8h-5v-2h-5v-2h-1v2h-1v-6zM161 688h5v16h-5v-16zM408 628h10v8h-10v-8zM420 580h5v16h-5v-16zM389 171v-13h6v13h-6zM169 324h6v13h-6
v-13zM849 826v-13h6v13h-6zM402 270h11v7h-11v-7zM650 276v7h-11v-7h11zM201 635v7h-11v-7h11zM475 270h11v7h-11v-7zM518 270v-19h4v19h-4zM803 698v15h-5v-15h5zM736 698v15h-5v-15h5zM425 698v15h-5v-15h5zM850 145v-15h5v15h-5zM731 771h5v15h-5v-15zM850 192v-15h5v15
h-5zM798 771h5v15h-5v-15zM463 512v10h-12v-8h5v7h4v-9h3zM780 158h7v-8h3v13h-10v-5zM541 295v8h-8v-10h5v2h3zM279 249h4v18h-4v-18zM279 608h4v18h-4v-18zM697 608h4v18h-4v-18zM236 831h4v18h-4v-18zM353 655h6v12h-6v-12zM606 831h4v18h-4v-18zM425 280v8h-9v-8h9z
M327 249h4v18h-4v-18zM606 608h4v18h-4v-18zM254 563h9v8h-9v-8zM169 346h6v12h-6v-12zM287 249h4v18h-4v-18zM614 249h4v18h-4v-18zM279 831h4v18h-4v-18zM236 249h4v18h-4v-18zM236 608h4v18h-4v-18zM657 831h4v18h-4v-18zM494 323h8v9h-8v-9zM632 563h9v8h-9v-8zM523 323
h8v9h-8v-9zM533 323h8v9h-8v-9zM840 739h8v9h-8v-9zM657 608h4v18h-4v-18zM793 270h10v7h-10v-7zM427 153h7v10h-7v-10zM736 871v14h-5v-14h5zM361 203h7v10h-7v-10zM434 245v10h-7v-10h7zM745 361v10h-7v-10h7zM738 203h7v10h-7v-10zM380 730v-10h7v10h-7zM146 302h7v10h-7
v-10zM731 516h5v14h-5v-14zM812 245v10h-7v-10h7zM780 270h10v7h-10v-7zM413 391v10h-7v-10h7zM812 361v10h-7v-10h7zM460 270h11v7h-6v-1h-3v-2h-1v2h-1v-6zM434 361v10h-7v-10h7zM368 361v10h-7v-10h7zM523 651v10h-7v-10h7zM592 488h3v-12h2v21h-5v-9zM625 472v23h-3v-23
h3zM660 472v23h-3v-23h3zM723 521h3v-5h3v14h-6v-9zM345 521h3v-5h3v14h-6v-9zM248 472v23h-3v-23h3zM664 158h17v4h-17v-4zM177 609h4v17h-4v-17zM98 346h11v7h-11v-2h3v-3h-3v-2zM190 216v34h-2v-34h2zM597 677v17h-4v-17h4zM220 677v17h-4v-17h4zM460 168h11v6h-11v-6z
M274 580v22h-3v-22h3zM678 287h3v22h-3v-22zM437 580v33h-2v-33h2zM300 287h3v22h-3v-22zM303 221v22h-3v-22h3zM293 532h3v22h-3v-22zM673 580v22h-3v-22h3zM320 532h3v22h-3v-22zM670 532h3v22h-3v-22zM296 580v22h-3v-22h3zM783 640v6h-11v-6h11zM229 724v33h-2v-33h2z
M660 221v22h-3v-22h3zM718 850h11v6h-11v-6zM826 640h11v6h-11v-6zM814 580v33h-2v-33h2zM348 130h11v6h-11v-6zM681 221v22h-3v-22h3zM657 287h3v22h-3v-22zM849 805v-11h6v11h-6zM140 324h5v13h-5v-13zM539 670h5v13h-5v-13zM503 670h5v13h-5v-13zM701 580v16h-4v-16h4z
M162 315v8h-8v-8h8zM331 221v16h-4v-16h4zM126 688h4v16h-4v-16zM69 365h8v8h-8v-8zM494 460v-8h8v8h-8zM532 654v7h-7v-10h5v3h2zM69 291h8v8h-8v-8zM287 158h16v4h-16v-4zM279 516h4v4h4v-4h4v1h5v4h-17v-5zM765 288v-8h8v8h-8zM177 688h4v16h-4v-16zM416 270h9v7h-9v-7z
M271 276v7h-9v-7h9zM486 820v-9h7v9h-7zM271 646h3v21h-3v-21zM427 380h7v9h-7v-9zM546 323h7v9h-7v-9zM641 635v7h-9v-7h9zM380 748v-9h7v9h-7zM300 174h3v21h-3v-21zM368 389h-7v-9h7v9zM263 635v7h-9v-7h9zM670 646h3v21h-3v-21zM293 646h3v21h-3v-21zM465 280h6v8h-11
v-3h5v-5zM805 380h7v9h-7v-9zM380 613v-9h7v9h-7zM678 174h3v21h-3v-21zM705 174h3v21h-3v-21zM103 330h6v7h-11v-4h5v-3zM546 518v-6h10v6h-10zM691 203h6v10h-6v-10zM215 488h2v-12h2v21h-4v-9zM589 698v20h-3v-20h3zM451 527h12v5h-12v-5zM389 213v-10h6v10h-6zM731 655
h5v12h-5v-12zM418 655v6h-10v-6h10zM418 640v6h-10v-6h10zM162 295v6h-8v-8h6v2h2zM657 516h3v4h4v-4h5v1h4v4h-16v-5zM169 302h6v10h-6v-10zM405 640v6h-10v-6h10zM798 655h5v12h-5v-12zM359 720v10h-6v-10h6zM372 640v6h-10v-6h10zM795 640v6h-10v-6h10zM726 130h10v6h-10
v-6zM389 255v-10h6v10h-6zM849 838v-10h6v10h-6zM209 654h2v30h-2v-30zM341 850h10v6h-10v-6zM840 195v10h-6v-10h6zM313 203h6v10h-6v-10zM849 730v-10h6v10h-6zM69 805v-30h2v30h-2zM842 551v-15h4v15h-4zM468 640h10v6h-10v-6zM77 751v14h-4v-11h-1v-3h5zM668 768h10v4
h-5v6h-3v-6h-2v-4zM217 295h2v29h-2v-29zM140 832h6v7h-8v-8h2v1zM290 768h10v4h-4v6h-3v-6h-3v-4zM595 295h2v29h-2v-29zM434 280v8h-7v-8h7zM138 642v-7h8v7h-8zM523 283v-7h8v7h-8zM154 283v-7h8v7h-8zM368 280v8h-7v-8h7zM745 280v8h-7v-8h7zM533 480v-7h8v7h-8z
M812 280v8h-7v-8h7zM116 460v-8h7v8h-7zM77 330v7h-8v-7h8zM553 295v8h-7v-8h7zM380 636v-8h7v8h-7zM533 283v-7h8v7h-8zM153 293v8h-7v-8h7zM153 315v8h-7v-8h7zM234 871h4v14h-4v-14zM209 574h2v28h-2v-28zM154 480v-7h8v7h-8zM554 690h2v28h-2v-28zM126 735v-14h4v14h-4z
M765 277v-7h8v7h-8zM380 571v-8h7v8h-7zM826 527h11v5h-11v-5zM186 880h11v5h-11v-5zM420 775h5v11h-5v-11zM271 831h3v18h-3v-18zM293 831h3v18h-3v-18zM245 249h3v18h-3v-18zM229 608h3v18h-3v-18zM320 608h3v18h-3v-18zM670 831h3v18h-3v-18zM678 249h3v18h-3v-18z
M293 608h3v18h-3v-18zM820 195h3v18h-3v-18zM359 748h-6v-9h6v9zM615 608h3v18h-3v-18zM670 608h3v18h-3v-18zM657 249h3v18h-3v-18zM443 195h3v18h-3v-18zM229 831h3v18h-3v-18zM300 249h3v18h-3v-18zM615 831h3v18h-3v-18zM622 249h3v18h-3v-18zM271 608h3v18h-3v-18z
M254 850h9v6h-9v-6zM93 333v4h-11v-7h3v3h8zM217 216h2v26h-2v-26zM557 574h1v52h-1v-52zM69 673h2v26h-2v-26zM135 324h4v13h-4v-13zM510 670h4v13h-4v-13zM747 251h13v4h-13v-4zM69 748v-26h2v26h-2zM595 216h2v26h-2v-26zM518 832h5v7h-7v-8h2v1zM458 640h5v6h-12v-3h7
v-3zM135 130h10v5h-10v-5zM425 720v10h-5v-10h5zM850 205v-10h5v10h-5zM420 512h5v10h-5v-10zM664 203h5v10h-5v-10zM803 720v10h-5v-10h5zM736 720v10h-5v-10h5zM140 302h5v10h-5v-10zM512 130h10v5h-10v-5zM323 738v10h-5v-10h5zM508 651v10h-5v-10h5zM418 821v5h-10v-5
h10zM516 642v-7h7v7h-7zM146 283v-7h7v7h-7zM525 839v-7h7v7h-7zM427 270h7v7h-7v-7zM525 642v-7h7v7h-7zM805 270h7v7h-7v-7zM123 346v7h-7v-7h7zM553 276v7h-7v-7h7zM175 315v8h-6v-8h6zM708 221v16h-3v-16h3zM677 410h10v3h-6v6h-3v-6h-1v-3zM834 280h6v8h-6v-8zM842 636
v-8h6v8h-6zM85 392v14h-3v-11h-2v-3h5zM313 420h6v8h-6v-8zM331 472v12h-4v-12h4zM691 420h6v8h-6v-8zM820 412h3v16h-3v-16zM323 580v16h-3v-16h3zM683 563h6v8h-6v-8zM823 462v16h-3v-16h3zM353 563h6v8h-6v-8zM705 251h3v16h-3v-16zM849 636v-8h6v8h-6zM840 879h8v6h-8
v-6zM632 850h9v5h-8v1h-1v-6zM98 511v-23h2v23h-2zM586 835h3v14h-5v-2h2v-12zM299 410h9v3h-5v6h-3v-6h-1v-3zM562 323h5v9h-5v-9zM109 820v-9h5v9h-5zM798 739h5v9h-5v-9zM425 297v5h-9v-5h9zM823 177v15h-3v-15h3zM446 339v15h-3v-15h3zM803 604v9h-5v-9h5zM425 462v5h-9
v-5h9zM425 604v9h-5v-9h5zM503 820v-9h5v9h-5zM132 820v-9h5v9h-5zM823 339v15h-3v-15h3zM420 739h5v9h-5v-9zM446 177v15h-3v-15h3zM652 580v22h-2v-22h2zM475 251h11v4h-11v-4zM526 473h5v7h-6v-8h1v1zM369 516h3v14h-3v-14zM380 646v-6h7v6h-7zM184 253h3v14h-3v-14z
M834 270h6v7h-6v-7zM689 771v7h-6v-7h6zM683 779h6v7h-6v-7zM175 276v7h-6v-7h6zM389 277v-7h6v7h-6zM586 670h3v14h-3v-14zM148 839v-7h6v7h-6zM319 412v7h-6v-7h6zM148 642v-7h6v7h-6zM650 646h2v21h-2v-21zM697 412v7h-6v-7h6zM279 203h4v10h-4v-10zM503 839v-8h5v8h-5z
M135 302h4v10h-4v-10zM306 563h5v8h-5v-8zM211 698v20h-2v-20h2zM731 563h5v8h-5v-8zM798 628h5v8h-5v-8zM140 480v-8h5v8h-5zM516 293v10h-4v-10h4zM145 293v8h-5v-8h5zM140 460v-8h5v8h-5zM780 251h10v4h-10v-4zM132 839v-8h5v8h-5zM331 379v10h-4v-10h4zM850 288v-8h5v8
h-5zM664 420h5v8h-5v-8zM420 628h5v8h-5v-8zM793 251h10v4h-10v-4zM145 315v8h-5v-8h5zM523 130h8v5h-8v-5zM812 502h2v20h-2v-20zM522 293v10h-4v-10h4zM608 768v10h-4v-10h4zM240 768v10h-4v-10h4zM514 651v10h-4v-10h4zM287 203h4v10h-4v-10zM327 203h4v10h-4v-10z
M184 324h3v13h-3v-13zM849 775v-4h1v-3h5v7h-6zM219 339v19h-2v-19h2zM597 339v19h-2v-19h2zM254 724h12v6h-5v-5h-7v-1zM237 410v9h-4v-9h4zM126 820v-9h4v9h-4zM184 346h3v12h-3v-12zM849 885v-6h6v6h-6zM650 831h2v18h-2v-18zM443 416h3v12h-3v-12zM849 646v-6h6v6h-6z
M650 608h2v18h-2v-18zM71 643v18h-2v-18h2zM443 297h3v12h-3v-12zM842 646v-6h6v6h-6zM820 297h3v12h-3v-12zM359 640v6h-6v-6h6zM851 389v-9h4v9h-4zM708 472v12h-3v-12h3zM175 295v6h-6v-6h6zM834 168h6v6h-6v-6zM639 365h12v7h-4v-6h-8v-1zM518 323h4v9h-4v-9zM510 820
v-9h4v9h-4zM149 473h4v7h-5v-8h1v1zM353 850h6v6h-6v-6zM512 323h4v9h-4v-9zM140 283v-7h5v7h-5zM434 297v5h-7v-5h7zM544 635v7h-5v-7h5zM434 462v5h-7v-5h7zM105 394v7h-5v-7h5zM544 654v7h-5v-7h5zM562 276h5v7h-5v-7zM166 635v7h-5v-7h5zM146 130h7v5h-7v-5zM262 365h11
v7h-4v-6h-7v-1zM132 642v-7h5v7h-5zM306 779h5v7h-5v-7zM669 412v7h-5v-7h5zM311 771v7h-5v-7h5zM850 277v-7h5v7h-5zM209 835h2v14h-5v-2h3v-12zM435 554h2v17h-2v-17zM812 554h2v17h-2v-17zM533 159v-4h8v4h-8zM135 460v-8h4v8h-4zM518 480v-8h4v8h-4zM139 293v8h-4v-8h4z
M512 460v-8h4v8h-4zM510 839v-8h4v8h-4zM279 563h4v8h-4v-8zM139 315v8h-4v-8h4zM518 460v-8h4v8h-4zM523 159v-4h8v4h-8zM697 563h4v8h-4v-8zM512 480v-8h4v8h-4zM126 839v-8h4v8h-4zM97 753v8h-4v-8h4zM657 563h4v8h-4v-8zM154 159v-4h8v4h-8zM135 480v-8h4v8h-4zM765 255
v-4h8v4h-8zM632 724h11v6h-4v-5h-7v-1zM780 522v-10h3v10h-3zM823 361v10h-3v-10h3zM849 787v-5h6v5h-6zM681 472v10h-3v-10h3zM814 698v15h-2v-15h2zM814 536v15h-2v-15h2zM812 771h2v15h-2v-15zM731 850h5v6h-5v-6zM300 203h3v10h-3v-10zM793 168h10v3h-10v-3zM834 208h6
v5h-6v-5zM803 640v6h-5v-6h5zM785 527h10v3h-10v-3zM780 168h10v3h-10v-3zM206 850h5v6h-5v-6zM705 203h3v10h-3v-10zM584 850h5v6h-5v-6zM446 361v10h-3v-10h3zM303 472v10h-3v-10h3zM618 768v10h-3v-10h3zM443 153h3v10h-3v-10zM657 203h3v10h-3v-10zM69 826v-15h2v15h-2z
M402 522v-10h3v10h-3zM408 527h10v3h-10v-3zM184 302h3v10h-3v-10zM736 640v6h-5v-6h5zM425 640v6h-5v-6h5zM437 536v15h-2v-15h2zM678 203h3v10h-3v-10zM425 655v6h-5v-6h5zM437 698v15h-2v-15h2zM618 276v7h-4v-7h4zM610 635v7h-4v-7h4zM279 779h4v7h-4v-7zM510 642v-7h4
v7h-4zM657 779h4v7h-4v-7zM283 276v7h-4v-7h4zM240 635v7h-4v-7h4zM181 635v7h-4v-7h4zM77 392v14h-2v-14h2zM188 253h2v14h-2v-14zM283 771v7h-4v-7h4zM71 751v14h-2v-14h2zM518 283v-7h4v7h-4zM661 771v7h-4v-7h4zM240 276v7h-4v-7h4zM557 690h1v28h-1v-28zM146 159v-4h7
v4h-7zM553 476v4h-7v-4h7zM615 410v9h-3v-9h3zM248 410v9h-3v-9h3zM820 380h3v9h-3v-9zM625 410v9h-3v-9h3zM443 380h3v9h-3v-9zM416 168h9v3h-9v-3zM188 324h2v13h-2v-13zM554 670h2v13h-2v-13zM425 821v5h-5v-5h5zM850 213v-5h5v5h-5zM664 361h5v5h-5v-5zM200 435v25h-1
v-25h1zM85 702v2h-12v-2h12zM691 273h6v4h-6v-4zM313 273h6v4h-6v-4zM657 850h4v6h-4v-6zM236 850h4v6h-4v-6zM812 655h2v12h-2v-12zM187 315v8h-3v-8h3zM691 158h6v4h-6v-4zM670 563h3v8h-3v-8zM175 476v4h-6v-4h6zM271 563h3v8h-3v-8zM279 850h4v6h-4v-6zM435 655h2v12h-2
v-12zM188 346h2v12h-2v-12zM300 420h3v8h-3v-8zM69 609h2v12h-2v-12zM293 563h3v8h-3v-8zM823 280v8h-3v-8h3zM525 514h6v4h-6v-4zM154 389v-3h8v3h-8zM657 420h3v8h-3v-8zM606 850h4v6h-4v-6zM533 389v-3h8v3h-8zM683 632h6v4h-6v-4zM146 460v-8h3v8h-3zM313 158h6v4h-6v-4
zM523 460v-8h3v8h-3zM320 563h3v8h-3v-8zM678 420h3v8h-3v-8zM435 775h2v11h-2v-11zM82 346h11v2h-11v-2zM184 432h2v11h-2v-11zM93 351v2h-11v-2h11zM71 594v11h-2v-11h2zM69 634v-11h2v11h-2zM618 635v7h-3v-7h3zM805 168h7v3h-7v-3zM293 779h3v7h-3v-7zM232 635v7h-3v-7
h3zM427 168h7v3h-7v-3zM625 276v7h-3v-7h3zM271 779h3v7h-3v-7zM820 270h3v7h-3v-7zM525 748v-3h7v3h-7zM248 276v7h-3v-7h3zM274 771v7h-3v-7h3zM660 276v7h-3v-7h3zM589 635v7h-3v-7h3zM274 635v7h-3v-7h3zM187 276v7h-3v-7h3zM670 779h3v7h-3v-7zM660 412v7h-3v-7h3z
M589 654v7h-3v-7h3zM287 361h4v5h-4v-5zM166 835v4h-5v-4h5zM279 720h4v5h-4v-5zM188 302h2v10h-2v-10zM544 835v4h-5v-4h5zM229 768v10h-2v-10h2zM657 720h4v5h-4v-5zM697 516h4v5h-4v-5zM306 632h5v4h-5v-4zM140 159v-4h5v4h-5zM437 720v10h-2v-10h2zM100 702v2h-10v-2h10
zM154 130h4v5h-4v-5zM814 720v10h-2v-10h2zM435 512h2v10h-2v-10zM413 443v18h-1v-18h1zM435 502h2v9h-2v-9zM446 270v6h-3v-6h3zM443 168h3v6h-3v-6zM148 748v-3h6v3h-6zM670 850h3v6h-3v-6zM435 739h2v9h-2v-9zM783 802v18h-1v-18h1zM812 739h2v9h-2v-9zM271 850h3v6h-3
v-6zM229 850h3v6h-3v-6zM138 820v-9h2v9h-2zM615 850h3v6h-3v-6zM405 802v18h-1v-18h1zM516 820v-9h2v9h-2zM820 168h3v6h-3v-6zM187 295v6h-3v-6h3zM293 850h3v6h-3v-6zM327 158h4v4h-4v-4zM69 346h8v2h-8v-2zM812 628h2v8h-2v-8zM518 514h4v4h-4v-4zM77 351v2h-8v-2h8z
M472 761v-8h2v8h-2zM135 159v-4h4v4h-4zM512 159v-4h4v4h-4zM697 632h4v4h-4v-4zM188 517h-1v16h1v-16zM518 159v-4h4v4h-4zM327 273h4v4h-4v-4zM650 563h2v8h-2v-8zM190 315v8h-2v-8h2zM420 527h5v3h-5v-3zM503 748v-3h5v3h-5zM446 462v5h-3v-5h3zM669 280v3h-5v-3h5z
M681 280v5h-3v-5h3zM320 516h3v5h-3v-5zM798 527h5v3h-5v-3zM556 635v7h-2v-7h2zM652 635v7h-2v-7h2zM556 654v7h-2v-7h2zM772 530v-14h1v14h-1zM211 635v7h-2v-7h2zM597 276v7h-2v-7h2zM650 779h2v7h-2v-7zM219 276v7h-2v-7h2zM480 401v-7h2v7h-2zM190 276v7h-2v-7h2z
M652 771v7h-2v-7h2zM303 280v5h-2v-2h-1v-3h3zM196 365h13v1h-13v-1zM567 724h13v1h-13v-1zM557 670h1v13h-1v-13zM187 476v4h-3v-4h3zM575 365h12v1h-12v-1zM814 640v6h-2v-6h2zM360 751v3h-4v-3h4zM190 295v6h-2v-6h2zM678 273h3v4h-3v-4zM650 850h2v6h-2v-6zM539 512h2v6
h-2v-6zM293 632h3v4h-3v-4zM135 389v-3h4v3h-4zM300 273h3v4h-3v-4zM291 280v3h-4v-3h4zM437 628v6h-2v-6h2zM126 748v-3h4v3h-4zM512 389v-3h4v3h-4zM705 158h3v4h-3v-4zM705 273h3v4h-3v-4zM320 632h3v4h-3v-4zM670 632h3v4h-3v-4zM177 791h1v11h-1v-11zM562 432h1v11h-1
v-11zM190 724h11v1h-11v-1zM554 791h1v11h-1v-11zM437 821v5h-2v-5h2zM812 527h2v5h-2v-5zM435 527h2v5h-2v-5zM793 329v-5h2v5h-2zM443 285h3v3h-3v-3zM780 530v-3h3v3h-3zM368 392v3h-3v-3h3zM296 640v3h-3v-3h3zM402 530v-3h3v3h-3zM77 285v1h-8v-1h8zM283 640v2h-4v-2h4
zM512 518v-4h2v4h-2zM556 835v4h-2v-4h2zM673 640v3h-2v-1h-1v-2h3zM661 640v2h-4v-2h4zM558 654v7h-1v-7h1zM558 635v7h-1v-7h1zM435 643h2v3h-2v-3zM215 517h-6v1h6v-1zM416 329v-5h1v5h-1zM539 724h5v1h-5v-1zM562 365h5v1h-5v-1zM161 724h5v1h-5v-1zM664 276h5v1h-5v-1z
M408 688v-4h1v4h-1zM177 724h4v1h-4v-1zM71 702v2h-2v-2h2zM287 276h4v1h-4v-1zM279 635h4v1h-4v-1zM785 688v-4h1v4h-1zM657 635h4v1h-4v-1zM279 365h4v1h-4v-1zM187 412v1h-3v-1h3zM586 724h3v1h-3v-1zM184 365h3v1h-3v-1zM657 365h3v1h-3v-1zM271 724h3v1h-3v-1zM217 365
h2v1h-2v-1zM188 365h2v1h-2v-1zM595 365h2v1h-2v-1zM556 771v1h-2v-1h2zM554 724h2v1h-2v-1zM650 724h2v1h-2v-1zM209 724h2v1h-2v-1zM557 724h1v1h-1v-1z" />
    </font>
</defs>
</svg>
