<?xml version="1.0" standalone="no"?>
<!DOCTYPE svg PUBLIC "-//W3C//DTD SVG 1.1//EN" "http://www.w3.org/Graphics/SVG/1.1/DTD/svg11.dtd" >
<svg>
<metadata>
Created by FontForge 20090914 at Sat Jun 25 17:05:14 2016
 By www-data
Copyright (c) 2012 by Avraham Cornfeld. All rights reserved.
</metadata>
<defs>
<font id="." horiz-adv-x="0" >
  <font-face 
    font-family="."
    font-weight="700"
    font-stretch="normal"
    units-per-em="2048"
    panose-1="2 11 8 0 0 0 0 2 0 4"
    ascent="1638"
    descent="-410"
    x-height="928"
    cap-height="1278"
    bbox="-307 -533.999 2984 1721"
    underline-thickness="90"
    underline-position="-201"
    unicode-range="U+0020-U+FFFC"
  />
<missing-glyph horiz-adv-x="524" 
 />
    <glyph glyph-name=".notdef" horiz-adv-x="524" 
 />
    <glyph glyph-name="space" unicode=" " horiz-adv-x="524" 
 />
    <glyph glyph-name="exclam" unicode="!" horiz-adv-x="557" 
d="M413 1277v-513l-52 -318h-164l-52 318v513h268zM153 0v260h256v-260h-256z" />
    <glyph glyph-name="quotedbl" unicode="&#x22;" horiz-adv-x="626" 
d="M125 1205h164v-150l-130 -320h-87zM376 1203h164v-149l-130 -320h-87z" />
    <glyph glyph-name="numbersign" unicode="#" horiz-adv-x="1278" 
d="M1159 523h-229l-58 -184h234l-45 -118h-240l-71 -221h-143l71 221h-226l-70 -221h-144l71 221h-231l43 118h237l58 184h-240l43 121h248l81 219h143l-81 -219h225l81 219h146l-81 -219h223zM729 339l55 184h-223l-57 -184h225z" />
    <glyph glyph-name="dollar" unicode="$" horiz-adv-x="896" 
d="M809 285c0 -83.333 -26.5 -149.831 -79.5 -199.498s-132.833 -77.5 -239.5 -83.5v-135h-101v135c-49.333 1.33301 -92 7.83301 -128 19.5s-66.333 29 -91 52s-44.167 51.667 -58.5 86s-24.166 75.166 -29.499 122.499h195c8.66699 -38.667 20.667 -68.5 36 -89.5
s40.666 -34.833 75.999 -41.5v328c-34.667 19.333 -70 40.333 -106 63s-68.5 47.167 -97.5 73.5s-52.667 54.666 -71 84.999s-27.5 63.166 -27.5 98.499s5.33301 68.666 16 99.999s28 58.833 52 82.5s55.167 42.834 93.5 57.501s85.166 22.667 140.499 24v135h101v-137
c48.667 -2.66699 92.5 -10.834 131.5 -24.501s72.333 -32.667 100 -57s48.834 -53.666 63.501 -87.999s22.667 -73.166 24 -116.499l-209 1c-1.33301 42 -11.5 72.667 -30.5 92s-45.5 32.666 -79.5 39.999v-269c36 -22 72.333 -43 109 -63s70 -43 100 -69s55 -56.667 75 -92
s31.667 -78.666 35 -129.999zM286 807.002c0 -14.667 1.16895 -27.5 3.50195 -38.5s7.16602 -21.5 14.499 -31.5s17.666 -20 30.999 -30s31.333 -21.667 54 -35v240c-39.333 -3.33301 -66.333 -12.5 -81 -27.5s-22 -40.833 -22 -77.5zM490.002 153.002
c44 1.33301 77.167 10.668 99.5 28.001s33.5 47 33.5 89c0 21.333 -1.83301 39.666 -5.5 54.999s-10.334 29.5 -20.001 42.5s-23.167 25.5 -40.5 37.5s-39.666 25.667 -66.999 41v-293z" />
    <glyph glyph-name="percent" unicode="%" horiz-adv-x="1056" 
d="M292 0h-131l589 1062h131zM251 1070c58.667 0 103.334 -16.667 134.001 -50s46 -81 46 -143v-166c0 -63.333 -15.333 -111.333 -46 -144s-75.334 -49 -134.001 -49c-58 0 -102.333 16.5 -133 49.5s-46 80.833 -46 143.5v166c0 63.333 15.333 111.333 46 144s75 49 133 49
zM251 603c21.333 0 37.498 8.5 48.498 25.5s16.5 36.167 16.5 57.5v216c0 21.333 -6.16699 39.666 -18.5 54.999s-28.166 23 -47.499 23s-34.666 -7.66699 -45.999 -23s-17 -33.666 -17 -54.999v-216c0 -21.333 5.33301 -40.5 16 -57.5s26.667 -25.5 48 -25.5zM803.998 544
c58 0 102.333 -16.5 133 -49.5s46 -80.833 46 -143.5v-166c0 -63.333 -15.333 -111.333 -46 -144s-75 -49 -133 -49s-102.5 16.5 -133.5 49.5s-46.5 80.833 -46.5 143.5v166c0 63.333 15.5 111.333 46.5 144s75.5 49 133.5 49zM803.998 77c21.333 0 37.333 8.5 48 25.5
s16 36.167 16 57.5v216c0 21.333 -6 39.666 -18 54.999s-27.667 23 -47 23c-20 0 -35.667 -7.66699 -47 -23s-17 -33.666 -17 -54.999v-216c0 -21.333 5.5 -40.5 16.5 -57.5s27.167 -25.5 48.5 -25.5z" />
    <glyph glyph-name="ampersand" unicode="&#x26;" horiz-adv-x="1108" 
d="M411 -27c-32 2 -61.9961 5.33594 -89.9961 10.0029s-54 12 -78 22s-46.5 23.167 -67.5 39.5s-40.5 37.166 -58.5 62.499c-36 54 -55.5 107.667 -58.5 161s7 105.666 30 156.999s57.167 100.666 102.5 147.999s98.666 92 159.999 134
c-18.667 20.667 -38.5 45.334 -59.5 74.001l-57.5 77c-39.333 55.333 -60.833 109.333 -64.5 162s7.66602 99.667 33.999 141s66.833 74.666 121.5 99.999s120.667 38 198 38c51.333 0 96.166 -7.5 134.499 -22.5s70 -35 95 -60s43.667 -53.5 56 -85.5s18 -65 17 -99
s-8.33301 -67.667 -22 -101s-33.834 -63.666 -60.501 -90.999c-28.667 -28 -60.334 -53.333 -95.001 -76s-65.667 -44 -93 -64l266 -329c12 31.333 19 68 21 110s2.33301 87.333 1 136h168c5.33301 -64.667 0.333008 -128.5 -15 -191.5s-41.666 -120.5 -78.999 -172.5
l197 -253h-219l-90 116c-52.667 -47.333 -112 -83.833 -178 -109.5s-138 -36.834 -216 -33.501zM514.004 1175c-34 0 -64.166 -7.33105 -90.499 -21.998s-45.166 -35 -56.499 -61s-13.333 -57.333 -6 -94s27.666 -77 60.999 -121l25.5 -31.5
c9 -11 18.167 -22.833 27.5 -35.5c23.333 19.333 45 38.166 65 56.499s37 35.166 51 50.499c27.333 29.333 45.166 59.333 53.499 90s8.5 58.5 0.5 83.5s-23.333 45.333 -46 61s-51 23.5 -85 23.5zM425.005 597.005c-28.667 -22 -56.668 -47.167 -84.001 -75.5
s-48.833 -59 -64.5 -92s-23 -68 -22 -105s15.5 -75.5 43.5 -115.5c18 -26 42.833 -46.167 74.5 -60.5s67 -21.833 106 -22.5s79.833 6 122.5 20s84.334 36.667 125.001 68z" />
    <glyph glyph-name="quotesingle" unicode="'" horiz-adv-x="417" 
d="M90 729l60 475h184v-151l-146 -324h-98v0z" />
    <glyph glyph-name="parenleft" unicode="(" horiz-adv-x="686" 
d="M662 -190l0.000976562 -68.0029c-4.66699 -1.33301 -12 -2.16602 -22 -2.49902s-20.5 -0.5 -31.5 -0.5s-21.333 0.166992 -31 0.5s-16.834 0.5 -21.501 0.5c-67.333 0 -124.833 11.833 -172.5 35.5s-86.5 65.334 -116.5 125.001s-51.833 140.334 -65.5 242.001
s-20.5 230.167 -20.5 385.5c0 104 3 195 9 273s15.333 145.333 28 202s29 103.5 49 140.5s43.833 66.5 71.5 88.5s59.5 37.5 95.5 46.5s76.667 13.5 122 13.5h21.5c9.66699 0 20 -0.166992 31 -0.5s21.5 -0.833008 31.5 -1.5s17.333 -1.33398 22 -2.00098v-74
c-40.667 -2 -75.834 -7.66699 -105.501 -17s-54.834 -24 -75.501 -44s-37.667 -46.5 -51 -79.5s-23.666 -74.667 -30.999 -125s-12.333 -110 -15 -179s-4 -149.5 -4 -241.5c0 -91.333 1.33301 -172.166 4 -242.499s7.66699 -131.333 15 -183s17.666 -95.167 30.999 -130.5
s30.333 -64.166 51 -86.499s45.834 -38.833 75.501 -49.5s64.834 -17.334 105.501 -20.001v-6z" />
    <glyph glyph-name="parenright" unicode=")" horiz-adv-x="673" 
d="M-5 -184c40.667 2.66699 75.834 9.33594 105.501 20.0029s54.834 27.167 75.501 49.5s37.667 51.166 51 86.499s23.666 78.833 30.999 130.5s12.333 112.5 15 182.5s4 151 4 243s-1.33301 172.5 -4 241.5s-7.66699 128.667 -15 179s-17.666 92 -30.999 125
s-30.333 59.5 -51 79.5s-45.834 34.5 -75.501 43.5s-64.834 14.833 -105.501 17.5v74c4.66699 0.666992 11.834 1.33398 21.501 2.00098s20 1.16699 31 1.5s21.5 0.5 31.5 0.5h22c44.667 0 85.167 -4.5 121.5 -13.5s68.333 -24.5 96 -46.5s51.5 -51.5 71.5 -88.5
s36.333 -83.833 49 -140.5s22 -124 28 -202s9 -169 9 -273c0 -155.333 -6.83301 -283.833 -20.5 -385.5s-35.5 -182.334 -65.5 -242.001s-68.833 -101.334 -116.5 -125.001s-105.167 -35.5 -172.5 -35.5c-4.66699 0 -12 -0.166992 -22 -0.5s-20.5 -0.5 -31.5 -0.5
s-21.333 0.166992 -31 0.5s-16.834 1.16602 -21.501 2.49902v68v6z" />
    <glyph glyph-name="asterisk" unicode="*" horiz-adv-x="811" 
d="M50 1157l60 178l212 -90l-22 230h188l-25 -227l218 88l57 -179l-229 -51l158 -172l-150 -108l-126 198l-121 -198l-146 107l152 174z" />
    <glyph glyph-name="plus" unicode="+" horiz-adv-x="956" 
d="M890 443h-314v-324h-184v324h-313v172h313v315h184v-315h314v-172z" />
    <glyph glyph-name="comma" unicode="," horiz-adv-x="487" 
d="M83 -323l66 553h201v-176l-159 -377h-108v0z" />
    <glyph glyph-name="hyphen" unicode="-" horiz-adv-x="817" 
d="M107 625h588v-176h-588v176z" />
    <glyph glyph-name="period" unicode="." horiz-adv-x="567" 
d="M157 0v260h256v-260h-256z" />
    <glyph glyph-name="slash" unicode="/" horiz-adv-x="606" 
d="M124 -260h-117l476 1539h117l-476 -1539v0z" />
    <glyph glyph-name="zero" unicode="0" horiz-adv-x="917" 
d="M458 1075c114 0 201.167 -32.667 261.5 -98s90.5 -159 90.5 -281v-325c0 -124.667 -30.167 -219 -90.5 -283s-147.5 -96 -261.5 -96s-201.333 32.5 -262 97.5s-91 158.833 -91 281.5v325c0 124 30.333 218.167 91 282.5s148 96.5 262 96.5zM458 176
c42 0 73.668 13.834 95.001 41.501s32 62.5 32 104.5v423c0 20.667 -3.16699 39.667 -9.5 57s-15.333 32 -27 44s-25.334 21.333 -41.001 28s-32.834 10 -51.501 10c-39.333 0 -70 -12.667 -92 -38s-33 -59 -33 -101v-423c0 -20.667 2.66699 -39.834 8 -57.501
s13.333 -33 24 -46s23.834 -23.333 39.501 -31s34.167 -11.5 55.5 -11.5z" />
    <glyph glyph-name="one" unicode="1" horiz-adv-x="653" 
d="M63 189l172 0.000976562v530h-160v133c27.333 0 52 3 74 9s41.5 13.833 58.5 23.5s31.667 20.667 44 33s22.833 25.166 31.5 38.499c20.667 30.667 35 65.667 43 105h142v-872h114v-189h-519v189z" />
    <glyph glyph-name="two" unicode="2" horiz-adv-x="827" 
d="M738 196v-196h-655l53.5 87.5l73 119.5l81.5 135l80.5 134l69.5 116l48 82c14.667 24.667 24.334 48.834 29.001 72.501s4.16699 45.167 -1.5 64.5s-16.334 35.166 -32.001 47.499s-36.5 19.166 -62.5 20.499c-33.333 0.666992 -59.166 -3.66602 -77.499 -12.999
s-32 -22.666 -41 -39.999s-14.167 -37.833 -15.5 -61.5s-1.33301 -49.167 0 -76.5h-226c-4 58 -0.666992 110.5 10 157.5s30.167 87.167 58.5 120.5s66.166 59.166 113.499 77.499s105 27.5 173 27.5c72.667 0 135.5 -14 188.5 -42s92.333 -66 118 -114
s35.667 -103.833 30 -167.5s-30.5 -131.167 -74.5 -202.5l-67.5 -116l-64.5 -113l-68 -120h259z" />
    <glyph glyph-name="three" unicode="3" horiz-adv-x="839" 
d="M564 561c38.667 -5.33301 71.1689 -16.001 97.502 -32.001s47.5 -36 63.5 -60s27.333 -51.167 34 -81.5s10 -61.833 10 -94.5c0 -46 -8.33301 -87.667 -25 -125s-40.334 -69.166 -71.001 -95.499s-67.667 -46.666 -111 -60.999s-91.666 -21.5 -144.999 -21.5
c-54 0 -102 5.33301 -144 16s-77.333 28.5 -106 53.5s-50.334 58.167 -65.001 99.5s-21.667 92.666 -21 153.999h234c0 -49.333 9 -83.833 27 -103.5s45.667 -29.5 83 -29.5c18.667 0 36 2.33301 52 7s29.667 12.167 41 22.5s20.166 23.833 26.499 40.5s9.5 37 9.5 61
c0 110 -66.333 165 -199 165v137c21.333 2.66699 42 7.66699 62 15s37.5 17.333 52.5 30s27 28 36 46s13.5 38.667 13.5 62c0 30.667 -8.5 57.167 -25.5 79.5s-38.5 35.5 -64.5 39.5c-40.667 6 -72.5 -4.5 -95.5 -31.5s-35.167 -66.5 -36.5 -118.5h-218
c-3.33301 50.667 1.5 96.834 14.5 138.501s33.667 77.5 62 107.5s63.666 53.167 105.999 69.5s91.166 24.5 146.499 24.5c54 0 101.5 -7.5 142.5 -22.5s75.333 -35.333 103 -61s48.334 -55.334 62.001 -89.001s20.5 -69.5 20.5 -107.5c0 -24 -2.66699 -48.5 -8 -73.5
s-14.666 -48.333 -27.999 -70s-31 -40.5 -53 -56.5s-49.667 -27.333 -83 -34z" />
    <glyph glyph-name="four" unicode="4" horiz-adv-x="897" 
d="M845 387v-186h-103v-201h-219v201h-514l358 860h226l-264 -678h194l2 219h217v-215h103v0z" />
    <glyph glyph-name="five" unicode="5" horiz-adv-x="852" 
d="M331 299c0.666992 -22.667 4.1709 -41.3369 10.5039 -56.0039s14.166 -26.5 23.499 -35.5s20 -15.333 32 -19s24.333 -5.5 37 -5.5c16 0 32 1.16699 48 3.5s30.5 9.5 43.5 21.5s23.667 30.333 32 55s12.5 59.334 12.5 104.001c0 42.667 -3.33301 76.834 -10 102.501
s-15.334 45.667 -26.001 60s-23.167 24.333 -37.5 30s-28.833 9.83398 -43.5 12.501c-7.33301 1.33301 -17.166 1.66602 -29.499 0.999023s-25 -3.33398 -38 -8.00098s-25.667 -12 -38 -22s-22.166 -23.667 -29.499 -41h-207v559h633v-188h-430v-195
c10 16.667 24.5 31 43.5 43s40.5 20.833 64.5 26.5s49.833 7.66699 77.5 6s55.834 -7.83398 84.501 -18.501c35.333 -13.333 65.166 -31.666 89.499 -54.999s43.833 -51 58.5 -83s25.167 -68 31.5 -108s9.5 -83 9.5 -129c0 -56 -7.5 -106.667 -22.5 -152
s-37.333 -84 -67 -116s-66.334 -56.667 -110.001 -74s-94.5 -26 -152.5 -26c-36.667 0 -73.334 4.33301 -110.001 13s-69.834 24.334 -99.501 47.001s-53.834 53.834 -72.501 93.501s-28 90.834 -28 153.501h220z" />
    <glyph glyph-name="six" unicode="6" horiz-adv-x="827" 
d="M408 -10c-50.667 0 -97.4971 8.00195 -140.497 24.002s-80.5 37.833 -112.5 65.5s-57.833 60 -77.5 97s-30.834 76.5 -33.501 118.5c-2 22.667 -3.16699 44 -3.5 64s1.33398 40.833 5.00098 62.5s10.167 45.167 19.5 70.5s22.666 54.666 39.999 87.999l30 54.5l40 70.5
l45.5 79l46.5 81l115 196h260l-281 -419c12 6 25.5 10.667 40.5 14s30.167 5.16602 45.5 5.49902s30.166 -0.166992 44.499 -1.5s26.833 -3.33301 37.5 -6c33.333 -7.33301 64.333 -19.5 93 -36.5s53.667 -39 75 -66s38 -59.5 50 -97.5s18 -81.333 18 -130
c0 -50 -9 -95.667 -27 -137s-42.833 -76.5 -74.5 -105.5s-69.334 -51.5 -113.001 -67.5s-91.167 -24 -142.5 -24zM422.003 509.002c-24 0 -46.167 -4.5 -66.5 -13.5s-37.833 -21.5 -52.5 -37.5s-26.167 -34.5 -34.5 -55.5s-12.5 -43.5 -12.5 -67.5s3.5 -46.167 10.5 -66.5
s17.333 -38 31 -53s30.167 -26.667 49.5 -35s41.333 -12.5 66 -12.5c22.667 0 43.5 4.16699 62.5 12.5s35.5 20 49.5 35s24.833 32.667 32.5 53s11.5 42.5 11.5 66.5c0 23.333 -3.66699 45.5 -11 66.5s-17.5 39.5 -30.5 55.5s-28.5 28.667 -46.5 38s-37.667 14 -59 14z" />
    <glyph glyph-name="seven" unicode="7" horiz-adv-x="766" 
d="M359 0h-239l321 874h-350v187h641l-373 -1061v0z" />
    <glyph glyph-name="eight" unicode="8" horiz-adv-x="852" 
d="M599 598c32 -10.667 60.002 -25.665 84.002 -44.998s44 -41.333 60 -66s28 -51.334 36 -80.001s12 -58 12 -88c0 -46.667 -9.16699 -90.167 -27.5 -130.5s-44 -75.333 -77 -105s-72 -53 -117 -70s-94.5 -25.5 -148.5 -25.5c-53.333 0 -102.666 8.5 -147.999 25.5
s-84.5 40.333 -117.5 70s-58.833 64.667 -77.5 105s-28 83.833 -28 130.5c0 30 4.5 59.5 13.5 88.5s22 56 39 81s37.333 47 61 66s50.167 33.5 79.5 43.5c-24 7.33301 -44.833 18.333 -62.5 33s-32.5 31.667 -44.5 51s-20.833 40.166 -26.5 62.499s-8.5 44.5 -8.5 66.5
c0 38 7.83301 73.167 23.5 105.5s37.667 60.166 66 83.499s62.166 41.666 101.499 54.999s82.333 20 129 20s89.5 -6.66699 128.5 -20s72.667 -31.666 101 -54.999s50.333 -51.166 66 -83.499s23.5 -67.5 23.5 -105.5c0 -22 -2.83301 -43.667 -8.5 -65
s-14.334 -41.5 -26.001 -60.5s-26.334 -36 -44.001 -51s-38.5 -27.167 -62.5 -36.5zM421.002 902.002c-36 0 -63.499 -10 -82.499 -30s-28.5 -44 -28.5 -72c0 -14.667 2.66699 -29.167 8 -43.5s13 -27.333 23 -39s21.833 -21 35.5 -28s28.5 -10.5 44.5 -10.5s31 3.5 45 10.5
s26.167 16.333 36.5 28s18.333 24.667 24 39s8.5 28.833 8.5 43.5c0 28 -9.83301 52 -29.5 72s-47.834 30 -84.501 30zM421.003 171.002c20.667 0 40.8311 2.50098 60.498 7.50098s36.834 13.5 51.501 25.5s26.5 27.833 35.5 47.5s13.5 43.834 13.5 72.501
c0 28 -4 52.5 -12 73.5s-19.167 38.5 -33.5 52.5s-31.333 24.5 -51 31.5s-41.167 10.5 -64.5 10.5c-46 0 -83.167 -13.833 -111.5 -41.5s-42.5 -69.834 -42.5 -126.501c0 -28.667 4.16699 -52.834 12.5 -72.501s19.5 -35.5 33.5 -47.5s30.333 -20.5 49 -25.5
s38.334 -7.5 59.001 -7.5z" />
    <glyph glyph-name="nine" unicode="9" horiz-adv-x="852" 
d="M417 1070c50.667 0 97.499 -8.00293 140.499 -24.0029s80.5 -37.833 112.5 -65.5s57.667 -60 77 -97s30.666 -76.5 33.999 -118.5c2 -23.333 3.16699 -45 3.5 -65s-1.33398 -40.667 -5.00098 -62s-10.167 -44.666 -19.5 -69.999s-22.666 -54.666 -39.999 -87.999
l-30.5 -54.5l-40 -70.5l-45.5 -79.5l-47 -80.5l-114 -196h-260l281 419c-12 -6 -25.5 -10.667 -40.5 -14s-30.167 -5.16602 -45.5 -5.49902s-30.166 0.166992 -44.499 1.5s-26.833 3.33301 -37.5 6c-33.333 7.33301 -64.333 19.5 -93 36.5s-53.667 39 -75 66
s-38 59.333 -50 97s-18 81.167 -18 130.5c0 50 9 95.667 27 137s42.833 76.5 74.5 105.5s69.334 51.5 113.001 67.5s91.167 24 142.5 24zM402.999 556.997c24 0 46.166 4.16699 66.499 12.5s37.666 20 51.999 35s25.5 32.833 33.5 53.5s12 43 12 67
c0 48 -13.5 87.167 -40.5 117.5s-65.167 45.5 -114.5 45.5c-22.667 0 -43.334 -4 -62.001 -12s-34.667 -19.167 -48 -33.5s-23.666 -31.5 -30.999 -51.5s-11 -42 -11 -66c0 -23.333 3.33301 -45.333 10 -66s16.334 -38.5 29.001 -53.5s27.834 -26.833 45.501 -35.5
s37.167 -13 58.5 -13z" />
    <glyph glyph-name="colon" unicode=":" horiz-adv-x="657" 
d="M208 618v260h256v-260h-256zM210 0v260h256v-260h-256z" />
    <glyph glyph-name="semicolon" unicode=";" horiz-adv-x="657" 
d="M208 618v260h256v-260h-256zM226 192h206v-169l-163 -364h-110z" />
    <glyph glyph-name="less" unicode="&#x3c;" horiz-adv-x="978" 
d="M66 588l817 405v-217l-617 -246l617 -241v-215l-817 405v109z" />
    <glyph glyph-name="equal" unicode="=" horiz-adv-x="954" 
d="M119 448h712v-175h-712v175zM119 785h712v-175h-712v175z" />
    <glyph glyph-name="greater" unicode="&#x3e;" horiz-adv-x="960" 
d="M893 479l-817 -405v215l617 241l-617 246v217l817 -405v-109z" />
    <glyph glyph-name="question" unicode="?" horiz-adv-x="902" 
d="M440 1280c64.667 0 120.831 -8.66895 168.498 -26.002s87.334 -41.5 119.001 -72.5s55.334 -67.5 71.001 -109.5s23.5 -87.667 23.5 -137c0 -48.667 -7 -90.167 -21 -124.5s-31.5 -65 -52.5 -92s-43.667 -51.667 -68 -74s-46.833 -45.666 -67.5 -69.999
s-37.667 -51 -51 -80s-19.666 -63.833 -18.999 -104.5h-208c-6 48.667 -4 92.667 6 132s24.167 75.166 42.5 107.499s39 61.666 62 87.999l65 73.5c20.333 22.667 37.333 43.834 51 63.501s20.5 39.167 20.5 58.5c0 52 -12.333 93.833 -37 125.5s-60 47.5 -106 47.5
c-26.667 0 -50.5 -4 -71.5 -12s-38.5 -20.667 -52.5 -38s-24.333 -39.333 -31 -66s-9 -59 -7 -97h-240c-4.66699 56.667 -0.5 109.834 12.5 159.501s35.667 92.834 68 129.501s75.166 65.5 128.499 86.5s118 31.5 194 31.5zM318.997 -0.00195312v224h243v-224h-243z" />
    <glyph glyph-name="at" unicode="@" horiz-adv-x="1470" 
d="M859 -203c-93.333 -17.333 -179.328 -23.1689 -257.995 -17.502s-150 20.5 -214 44.5s-120.5 55.667 -169.5 95s-90 84 -123 134s-57.833 104.167 -74.5 162.5s-25 118.166 -25 179.499s8.16699 121.166 24.5 179.499s39.833 113 70.5 164s68.167 97.833 112.5 140.5
s94.333 79.5 150 110.5s116.5 55 182.5 72s136.333 25.5 211 25.5c106 0 203 -13.5 291 -40.5s163.667 -65.833 227 -116.5s112.5 -112.5 147.5 -185.5s52.833 -155.167 53.5 -246.5c0 -45.333 -5 -89 -15 -131s-24 -81.5 -42 -118.5s-39 -71 -63 -102
s-50.167 -58 -78.5 -81s-57.833 -41.5 -88.5 -55.5s-61.334 -22.667 -92.001 -26c-37.333 -4 -71.333 -2.16699 -102 5.5s-57.334 19.5 -80.001 35.5s-40.5 35.833 -53.5 59.5s-20.5 49.5 -22.5 77.5c-21.333 -25.333 -46.5 -44.333 -75.5 -57
s-63.167 -18.334 -102.5 -17.001c-41.333 0.666992 -80 8 -116 22s-65.5 36.833 -88.5 68.5s-37.667 72.667 -44 123s-0.5 112.166 17.5 185.499c14 56.667 32.167 104.334 54.5 143.001s48.333 69.334 78 92.001s62.667 38.334 99 47.001s75.166 11.667 116.499 9
c47.333 -3.33301 84 -14.666 110 -33.999s43.333 -47.666 52 -84.999l9 35.5l7 26.5c2.66699 8.66699 4.66699 16.667 6 24h160l-46 -169l-32 -116.5l-21 -77l-14 -51l-11 -39l-11 -40.5c-18.667 -65.333 -19.5 -112 -2.5 -140s49.167 -39.333 96.5 -34
c34 2.66699 64 17.167 90 43.5s47.667 59.333 65 99s30.333 83.834 39 132.501s13 97 13 145c-0.666992 88 -13.334 161.833 -38.001 221.5s-59.834 107.667 -105.501 144s-101.167 62.333 -166.5 78s-139 23.5 -221 23.5c-78 0 -150.167 -13 -216.5 -39
s-124 -63.5 -173 -112.5s-87.333 -108.833 -115 -179.5s-41.5 -150.334 -41.5 -239.001s11.333 -167 34 -235s59.5 -123.5 110.5 -166.5s118 -72.167 201 -87.5s184.5 -14.666 304.5 2.00098l10 -109zM873.005 441.997c12 43.333 18.499 79.6699 19.499 109.003
s-3 53 -12 71s-23 30.833 -42 38.5s-42.833 11.5 -71.5 11.5c-23.333 0 -44 -3 -62 -9s-34.333 -17.333 -49 -34s-28 -39.334 -40 -68.001s-24 -65.334 -36 -110.001c-23.333 -94.667 -26.5 -162.334 -9.5 -203.001s53.833 -60 110.5 -58
c28.667 1.33301 52.334 6.33301 71.001 15s34.667 22.667 48 42s25.5 44.833 36.5 76.5s23.167 71.167 36.5 118.5z" />
    <glyph glyph-name="A" unicode="A" horiz-adv-x="1207" 
d="M459 1278h309l486 -1278h-261l-131 387h-499l-131 -387h-261zM418 551h389l-195 575z" />
    <glyph glyph-name="B" unicode="B" horiz-adv-x="1114" 
d="M777 696c49.333 -7.33301 90.8281 -20.667 124.495 -40s60.834 -44 81.501 -74s35.5 -65 44.5 -105s13.5 -84.333 13.5 -133c0 -115.333 -32.5 -201.5 -97.5 -258.5s-161.5 -85.5 -289.5 -85.5h-524v1278h541c48.667 0 93.167 -7.16699 133.5 -21.5
s74.833 -34.333 103.5 -60s50.834 -56.334 66.501 -92.001s23.5 -74.834 23.5 -117.501c0 -41.333 -3.66699 -78.166 -11 -110.499s-19.666 -60.666 -36.999 -84.999s-40.166 -44.333 -68.499 -60s-63.166 -27.5 -104.499 -35.5zM358.995 769.999h197.001
c74 0 130.333 17.5 169 52.5s58 82.5 58 142.5c0 58 -17.333 98.667 -52 122s-90.334 35 -167.001 35h-205v-352zM592.996 161.999c35.333 0 67.333 3.00098 96 9.00098s53.167 17 73.5 33s36 37.667 47 65s16.5 62.666 16.5 105.999c0 42.667 -5.83301 78.667 -17.5 108
s-28 53 -49 71s-46.333 30.833 -76 38.5s-62.5 11.5 -98.5 11.5h-226v-442h234z" />
    <glyph glyph-name="C" unicode="C" horiz-adv-x="1137" 
d="M601 167c78.667 0 138.328 20.5 178.995 61.5s65.667 101.167 75 180.5h240c-8.66699 -73.333 -26 -136.166 -52 -188.499s-60 -95.333 -102 -129s-91.5 -58.5 -148.5 -74.5s-120.833 -24 -191.5 -24c-81.333 0 -153.166 10.333 -215.499 31
s-115.166 52.834 -158.499 96.501s-76.833 99 -100.5 166s-37.5 146.833 -41.5 239.5c-0.666992 20.667 -1.16699 39.167 -1.5 55.5s-0.5 32.666 -0.5 48.999s0.166992 34 0.5 53s0.833008 41.833 1.5 68.5c6 178 52.833 311.5 140.5 400.5s212.834 133.5 375.501 133.5
c68 0 130 -8.16699 186 -24.5s104.5 -41.333 145.5 -75s74.333 -76.167 100 -127.5s42.167 -112 49.5 -182h-233c-1.33301 30.667 -8.16602 60.167 -20.499 88.5s-29.166 53.333 -50.499 75s-47 39 -77 52s-63.333 19.5 -100 19.5c-92 0 -160.167 -26.333 -204.5 -79
s-69.5 -131.334 -75.5 -236.001c-3.33301 -48 -4.83301 -99 -4.5 -153s1.83301 -107 4.5 -159c4 -106 28.5 -185.5 73.5 -238.5s113.833 -79.5 206.5 -79.5z" />
    <glyph glyph-name="D" unicode="D" horiz-adv-x="1210" 
d="M636 1278c70 0 130.833 -7.16699 182.5 -21.5s95.667 -34.833 132 -61.5s66 -59 89 -97s41 -80.667 54 -128s21.833 -98.833 26.5 -154.5s7 -114.5 7 -176.5c0 -62.667 -2.33301 -121.834 -7 -177.501s-13.5 -107.167 -26.5 -154.5s-31 -90 -54 -128
s-52.667 -70.167 -89 -96.5s-80.333 -46.666 -132 -60.999s-112.5 -21.5 -182.5 -21.5h-463v1278h463zM562 158c58 0 106.333 5.33301 145 16s70.167 25.834 94.5 45.501s42.666 43.667 54.999 72s21.166 60.333 26.499 96s8.16602 74.667 8.49902 117
s0.5 87.166 0.5 134.499s-0.166992 92 -0.5 134s-3.16602 80.833 -8.49902 116.5s-14.166 67.667 -26.499 96s-30.666 52.5 -54.999 72.5s-56 35.333 -95 46s-87.167 16 -144.5 16h-153v-962h153z" />
    <glyph glyph-name="E" unicode="E" horiz-adv-x="962" 
d="M140 0v1278h774v-182h-532v-322h450v-180h-450v-414h532v-180h-774v0z" />
    <glyph glyph-name="F" unicode="F" horiz-adv-x="975" 
d="M140 1v1278h768l-2 -182h-524v-322h426v-180h-426v-594h-242v0z" />
    <glyph glyph-name="G" unicode="G" horiz-adv-x="1220" 
d="M1133 690l-0.00195312 -79.498c0 -28.333 -0.666992 -56.5 -2 -84.5c-4 -92.667 -16.333 -172.667 -37 -240s-51.5 -123 -92.5 -167s-93.167 -76.5 -156.5 -97.5s-140 -31.5 -230 -31.5c-81.333 0 -153.333 10.5 -216 31.5s-115.667 53.5 -159 97.5
s-76.833 99.667 -100.5 167s-37.167 147.333 -40.5 240c-1.33301 20.667 -2.16602 39.167 -2.49902 55.5s-0.5 32.666 -0.5 48.999s0.166992 34 0.5 53s1.16602 41.833 2.49902 68.5c6 178 52.833 312.167 140.5 402.5s212.834 135.5 375.501 135.5
c68 0 131.167 -7.33301 189.5 -22s109.333 -37.5 153 -68.5s79 -70.333 106 -118s42.833 -104.5 47.5 -170.5h-242c-7.33301 71.333 -33.166 123.333 -77.499 156s-103.166 49 -176.499 49c-46.667 0 -86.834 -6.83301 -120.501 -20.5s-61.834 -33.834 -84.501 -60.501
s-40.167 -60 -52.5 -100s-19.833 -86 -22.5 -138c-3.33301 -48 -4.66602 -99 -3.99902 -153s2 -107 4 -159c4 -106 28.333 -186.833 73 -242.5s113.667 -83.5 207 -83.5c52.667 0 97.667 7.83301 135 23.5s68 39 92 70s41.5 69.333 52.5 115s16.833 98.5 17.5 158.5h-272
v164h493z" />
    <glyph glyph-name="H" unicode="H" horiz-adv-x="1181" 
d="M824 733v545h244v-1278h-244v547h-450v-547h-242v1278h242v-545h450v0z" />
    <glyph glyph-name="I" unicode="I" horiz-adv-x="512" 
d="M134 0v1278h240v-1278h-240v0z" />
    <glyph glyph-name="J" unicode="J" horiz-adv-x="596" 
d="M218 1278h243.998v-983c0 -54 -5 -99.833 -15 -137.5s-24.667 -68.167 -44 -91.5s-43 -40.166 -71 -50.499s-60 -15.5 -96 -15.5h-239v180h108c20.667 0 38.334 0.833008 53.001 2.5s26.334 7 35.001 16s15 22.667 19 41s6 44.166 6 77.499v961z" />
    <glyph glyph-name="K" unicode="K" horiz-adv-x="1132" 
d="M1111 1278l-492 -580l533 -698h-269l-507 674l507 604h228zM146 1278h228v-1278h-228v1278z" />
    <glyph glyph-name="L" unicode="L" horiz-adv-x="899" 
d="M404 1278v-1098h484v-180h-727v1278h243v0z" />
    <glyph glyph-name="M" unicode="M" horiz-adv-x="1523" 
d="M767 533l248 745h374v-1278h-215v1093l-301 -860h-213l-301 860v-1093h-217v1278h377l248 -745v0z" />
    <glyph glyph-name="N" unicode="N" horiz-adv-x="1290" 
d="M939 218v1060h221v-1278h-344l-465 1083v-1083h-223v1278h344l467 -1060v0z" />
    <glyph glyph-name="O" unicode="O" horiz-adv-x="1192" 
d="M595 1296c163.333 0 288.666 -45.833 375.999 -137.5s134 -227.167 140 -406.5c0.666992 -26.667 1.33398 -49.5 2.00098 -68.5s1 -36.667 1 -53s-0.333008 -32.666 -1 -48.999s-1.33398 -34.833 -2.00098 -55.5c-7.33301 -185.333 -54.5 -322.333 -141.5 -411
s-211.833 -133 -374.5 -133c-163.333 0 -288.166 44.333 -374.499 133s-133.5 225.667 -141.5 411c-0.666992 20.667 -1.16699 39.167 -1.5 55.5s-0.5 32.666 -0.5 48.999s0.166992 34 0.5 53s0.833008 41.833 1.5 68.5c6 179.333 52.5 314.833 139.5 406.5
s212.5 137.5 376.5 137.5zM875 485c2 52 3.33105 105 3.99805 159s-0.666016 105 -3.99902 153c-6 104.667 -31 185 -75 241s-112.333 84 -205 84s-161.167 -28 -205.5 -84s-69.5 -136.333 -75.5 -241c-3.33301 -48 -4.66602 -99 -3.99902 -153s2 -107 4 -159
c4 -105.333 28.667 -186.833 74 -244.5s114.333 -86.5 207 -86.5s161.5 28.833 206.5 86.5s69.5 139.167 73.5 244.5z" />
    <glyph glyph-name="P" unicode="P" horiz-adv-x="1050" 
d="M572 1278c62 0 119.5 -7.16895 172.5 -21.502s98.833 -37.166 137.5 -68.499s69 -72.166 91 -122.499s33 -111.833 33 -184.5c0 -73.333 -11.5 -135 -34.5 -185s-54.167 -90.5 -93.5 -121.5s-85.333 -53.333 -138 -67s-108.667 -20.5 -168 -20.5h-213v-487h-239v1278h452
zM537 650.998c30 0 60 2.66797 90 8.00098s57 16.166 81 32.499s43.5 39.5 58.5 69.5s22.5 70 22.5 120s-7.33301 90.667 -22 122s-34 55.833 -58 73.5s-51 29.667 -81 36s-60.333 9.5 -91 9.5h-178v-471h178z" />
    <glyph glyph-name="Q" unicode="Q" horiz-adv-x="1204" 
d="M603 1296c164 0 289.502 -45.835 376.502 -137.502s133.5 -227.167 139.5 -406.5c0.666992 -26.667 1.33398 -49.5 2.00098 -68.5s1 -36.667 1 -53s-0.333008 -32.666 -1 -48.999s-1.33398 -34.833 -2.00098 -55.5c-7.33301 -164.667 -47 -289.834 -119 -375.501
s-172.333 -135.167 -301 -148.5c12.667 -1.33301 26.167 -3.16602 40.5 -5.49902s28.333 -4.83301 42 -7.5s26.667 -5.5 39 -8.5s23.166 -6.16699 32.499 -9.5l54 -19c21.333 -7.33301 41.666 -14.666 60.999 -21.999l71 -26l-55 -160l-179 73l-79.5 33l-83.5 34.5l-83 34.5
l-77 32c-41.333 17.333 -80.666 37.333 -117.999 60s-73.666 48.334 -108.999 77.001c-52.667 43.333 -92.834 101.5 -120.501 174.5s-43.5 160.833 -47.5 263.5c-0.666992 20.667 -1.16699 39.167 -1.5 55.5s-0.5 32.666 -0.5 48.999s0.166992 34 0.5 53
s0.833008 41.833 1.5 68.5c6 179.333 52.667 314.833 140 406.5s212.666 137.5 375.999 137.5zM884.002 484.998c2 52 3.33105 105.001 3.99805 159.001s-0.666016 105 -3.99902 153c-3.33301 52 -11 98.333 -23 139s-29.333 74.667 -52 102s-51 48.166 -85 62.499
s-74.333 21.5 -121 21.5c-92 0 -160.167 -28 -204.5 -84s-69.5 -136.333 -75.5 -241c-3.33301 -48 -4.66602 -99 -3.99902 -153s2 -107 4 -159c4 -105.333 28.667 -186.833 74 -244.5s114 -86.5 206 -86.5c93.333 0 162.5 28.833 207.5 86.5s69.5 139.167 73.5 244.5z" />
    <glyph glyph-name="R" unicode="R" horiz-adv-x="1097" 
d="M1035 881c0 -61.333 -7.16699 -114.669 -21.5 -160.002s-34.333 -83.5 -60 -114.5s-56 -55.5 -91 -73.5s-73.5 -30.333 -115.5 -37l266 -496h-244l-239 487h-148v-487h-236v1278h453c62 0 119.5 -7.16699 172.5 -21.5s99 -37.166 138 -68.499s69.667 -72.166 92 -122.499
s33.5 -111.833 33.5 -184.5zM564 650.997c30 0 60 2.66797 90 8.00098s57 16.166 81 32.499s43.5 39.5 58.5 69.5s22.5 70 22.5 120s-7.5 90.667 -22.5 122s-34.5 55.833 -58.5 73.5s-51 29.667 -81 36s-60 9.5 -90 9.5h-182v-471h182z" />
    <glyph glyph-name="S" unicode="S" horiz-adv-x="995" 
d="M492 1296c74 0 138.833 -8.83105 194.5 -26.498s101.834 -43.167 138.501 -76.5s63.834 -73.666 81.501 -120.999s25.834 -100.333 24.501 -159h-226c0 30 -4.5 59 -13.5 87s-22.167 52.5 -39.5 73.5s-39.333 37.833 -66 50.5s-57.334 19 -92.001 19
c-25.333 0 -49.5 -3.83301 -72.5 -11.5s-43 -18.5 -60 -32.5s-30.5 -30.5 -40.5 -49.5s-15 -39.833 -15 -62.5s3.5 -43.167 10.5 -61.5s19 -36.166 36 -53.499s40 -34.833 69 -52.5s65.5 -36.834 109.5 -57.501c68 -31.333 126.5 -61.666 175.5 -90.999s89.333 -61 121 -95
s55 -71.833 70 -113.5s22.5 -90.167 22.5 -145.5c0 -51.333 -11 -97.333 -33 -138s-52.5 -75.5 -91.5 -104.5s-85.333 -51.167 -139 -66.5s-112.5 -23 -176.5 -23c-52 0 -102.333 5.66699 -151 17s-92.167 31.166 -130.5 59.499s-69.5 66.666 -93.5 114.999
s-37 109.5 -39 183.5h226c0 -38 5.33301 -70.167 16 -96.5s24.834 -48 42.501 -65s37.834 -29.333 60.501 -37s45.667 -11.5 69 -11.5c66 0 116.667 15.833 152 47.5s53 76.5 53 134.5c0 30.667 -5.5 57.667 -16.5 81s-26.5 44.166 -46.5 62.499
s-43.833 35.166 -71.5 50.499s-57.834 30.333 -90.501 45c-61.333 28.667 -115.833 57 -163.5 85s-87.834 58.167 -120.501 90.5s-57.667 67.666 -75 105.999s-26 82.5 -26 132.5c0 44.667 9.66699 86 29 124s47.166 70.833 83.499 98.5s80.166 49.334 131.499 65.001
s109 23.5 173 23.5z" />
    <glyph glyph-name="T" unicode="T" horiz-adv-x="860" 
d="M-3 1112v166h860v-166h-311v-1112h-246v1112h-303v0z" />
    <glyph glyph-name="U" unicode="U" horiz-adv-x="1204" 
d="M840 1278l248 0.000976562v-795c0 -82 -11.167 -153.833 -33.5 -215.5s-54.5 -112.834 -96.5 -153.501s-93.167 -71.167 -153.5 -91.5s-128.5 -30.5 -204.5 -30.5c-75.333 0 -143 10.167 -203 30.5s-111 50.833 -153 91.5s-74.333 91.834 -97 153.501
s-34 133.5 -34 215.5v795h248v-780c0 -50 4.33301 -95.333 13 -136s22.667 -75.334 42 -104.001s44 -50.834 74 -66.501s66.667 -23.5 110 -23.5c46 0 84.5 7.5 115.5 22.5s55.667 36.833 74 65.5s31.333 63.334 39 104.001s11.5 86.667 11.5 138v780z" />
    <glyph glyph-name="V" unicode="V" horiz-adv-x="1054" 
d="M529 267l297 1011h268l-444 -1278h-244l-444 1278h268l299 -1011v0z" />
    <glyph glyph-name="W" unicode="W" horiz-adv-x="1558" 
d="M1150 318l186 960h260l-320 -1278h-249l-244 993l-252 -993h-249l-312 1278h258l187 -960l225 960h285l225 -960v0z" />
    <glyph glyph-name="X" unicode="X" horiz-adv-x="1020" 
d="M748 1278h252l-350 -639l350 -639h-252l-233 474l-234 -474h-251l352 639l-352 639h251l234 -474l233 474v0z" />
    <glyph glyph-name="Y" unicode="Y" horiz-adv-x="948" 
d="M472 728l258 550h244l-385 -754v-524h-236v524l-383 754h244l258 -550v0z" />
    <glyph glyph-name="Z" unicode="Z" horiz-adv-x="868" 
d="M851 1278l-510 -1100h485v-178h-803l510 1104h-485v174h803v0z" />
    <glyph glyph-name="bracketleft" unicode="[" horiz-adv-x="583" 
d="M509 1172h-144v-1311h144v-121h-303v1551h303v-119v0z" />
    <glyph glyph-name="backslash" unicode="\" horiz-adv-x="604" 
d="M469 -260l-476 1552h117l476 -1552h-117v0z" />
    <glyph glyph-name="bracketright" unicode="]" horiz-adv-x="583" 
d="M76 1172v119h303v-1551h-303v121h144v1311h-144v0z" />
    <glyph glyph-name="asciicircum" unicode="^" horiz-adv-x="1097" 
d="M638 1277l375 -583h-205l-258 435l-250 -435h-207l375 583h170z" />
    <glyph glyph-name="underscore" unicode="_" horiz-adv-x="1141" 
d="M1 195h1139v-195h-1139v195z" />
    <glyph glyph-name="grave" unicode="`" horiz-adv-x="458" 
d="M104 729l60 475h184v-151l-146 -324h-98v0z" />
    <glyph glyph-name="a" unicode="a" horiz-adv-x="999" 
d="M349 -12c-52 0 -96.1719 6.66895 -132.505 20.002s-65.833 32 -88.5 56s-39 52.5 -49 85.5s-15 69.167 -15 108.5s5.16699 75.666 15.5 108.999s26.833 63.333 49.5 90s52 49.5 88 68.5s79.333 34.167 130 45.5c34 7.33301 67.333 14.166 100 20.499l91.5 17.5l76 14.5
c22.333 4.33301 40.5 8.16602 54.5 11.499c0 34 -4 60.333 -12 79s-19.667 32.334 -35 41.001s-34.333 13.667 -57 15s-49 2 -79 2c-12 0 -26.5 -0.333008 -43.5 -1s-35 -1.5 -54 -2.5s-38.667 -2.16699 -59 -3.5l-59.5 -4c-45.333 -3.33301 -92.666 -7 -141.999 -11l-8 165
c78 4 150 7.33301 216 10l84 4c28 1.33301 54 2.5 78 3.5s45.167 1.83301 63.5 2.5s31.5 1 39.5 1c64.667 0 116.334 -9 155.001 -27s68.334 -44 89.001 -78s34.334 -75.167 41.001 -123.5s10 -102.5 10 -162.5v-545h-225v121c-15.333 -23.333 -34 -43.5 -56 -60.5
s-46.833 -30.833 -74.5 -41.5s-57.667 -18.5 -90 -23.5s-66.166 -7.5 -101.499 -7.5zM444.995 446.002c-56.667 -16 -100.834 -39.3311 -132.501 -69.998s-47.5 -68 -47.5 -112c0 -22 5.16699 -40.667 15.5 -56s22.833 -27.833 37.5 -37.5s30.334 -16.667 47.001 -21
s31 -6.5 43 -6.5c42 0 79.333 7 112 21s60.167 32.5 82.5 55.5s39.333 49.667 51 80s17.5 61.5 17.5 93.5v111c-40 -8.66699 -80.167 -18.334 -120.5 -29.001s-75.5 -20.334 -105.5 -29.001z" />
    <glyph glyph-name="b" unicode="b" horiz-adv-x="1046" 
d="M345 0l-219 -0.00195312v1278h219v-443c16 22 34.333 40.167 55 54.5s42.5 25.833 65.5 34.5s47 14.667 72 18s50.167 5 75.5 5c44.667 0 89 -7.33301 133 -22s83.333 -40.5 118 -77.5s62.667 -87.167 84 -150.5s32 -144 32 -242c0 -98.667 -10.667 -178.167 -32 -238.5
s-49.333 -107.166 -84 -140.499s-74 -55.666 -118 -66.999s-88.333 -17 -133 -17c-25.333 0 -51.666 2.33301 -78.999 7s-53.333 12 -78 22s-46.834 23 -66.501 39s-34.5 35.667 -44.5 59v-119zM548 778.998c-28.667 0 -55.667 -5.5 -81 -16.5s-47.5 -29 -66.5 -54
s-34 -57.833 -45 -98.5s-16.5 -91 -16.5 -151c0 -57.333 5.5 -105.333 16.5 -144s26 -69.667 45 -93s41.167 -39.833 66.5 -49.5s52.333 -14.5 81 -14.5c29.333 0 56.833 3.83301 82.5 11.5s48 22.334 67 44.001s34 52.167 45 91.5s16.5 90.666 16.5 153.999
c0 64 -5.5 116.667 -16.5 158s-26 74 -45 98s-41.333 40.667 -67 50s-53.167 14 -82.5 14z" />
    <glyph glyph-name="c" unicode="c" horiz-adv-x="952" 
d="M892 301c-6 -57.333 -18.0029 -106.002 -36.0029 -146.002s-43 -72.5 -75 -97.5s-71.667 -43.167 -119 -54.5s-104 -17 -170 -17c-127.333 0 -225.833 32.333 -295.5 97s-107.5 164.667 -113.5 300c-1.33301 15.333 -2.16602 28.833 -2.49902 40.5
s-0.5 23.334 -0.5 35.001s0.166992 24.5 0.5 38.5s1.16602 30.667 2.49902 50c2 64.667 12.5 121.5 31.5 170.5s45.833 90.167 80.5 123.5s77 58.5 127 75.5s106.667 25.5 170 25.5c62 0 116.333 -5.83301 163 -17.5s86.167 -30 118.5 -55s58.166 -56.667 77.499 -95
s33 -84.166 41 -137.499h-240c-6 52 -23.833 91 -53.5 117s-65.167 39 -106.5 39c-29.333 0 -54.166 -4.33301 -74.499 -13s-37.166 -21.834 -50.499 -39.501s-23.5 -39.667 -30.5 -66s-11.833 -57.166 -14.5 -92.499c-1.33301 -32 -2 -66.5 -2 -103.5
s0.666992 -72.833 2 -107.5c2 -36 6.33301 -68.5 13 -97.5s16.834 -53.833 30.501 -74.5s30.834 -36.5 51.501 -47.5s45.667 -16.5 75 -16.5c48.667 0 86.5 15.167 113.5 45.5s43.167 70.5 48.5 120.5h238v0z" />
    <glyph glyph-name="d" unicode="d" horiz-adv-x="1011" 
d="M689 119c-10 -23.333 -25.002 -42.998 -45.002 -58.998s-42.5 -29 -67.5 -39s-51 -17.333 -78 -22s-52.833 -7 -77.5 -7c-45.333 0 -90 5.66699 -134 17s-83.5 33.666 -118.5 66.999s-63.167 80.166 -84.5 140.499s-32 139.833 -32 238.5c0 98 10.667 178.667 32 242
s49.5 113.5 84.5 150.5s74.5 62.667 118.5 77s88.667 21.5 134 21.5c24.667 0 49.334 -1.66699 74.001 -5s48.667 -9.33301 72 -18s45.333 -20.167 66 -34.5s39.334 -32.5 56.001 -54.5v444h211v-1278h-211v119zM483.998 158.002c28.667 0 55.667 4.83301 81 14.5
s47.5 26.167 66.5 49.5s34 54.333 45 93s16.5 86.667 16.5 144c0 60 -5.5 110.333 -16.5 151s-26 73.5 -45 98.5s-41.167 42.833 -66.5 53.5s-52.333 16 -81 16c-29.333 0 -56.833 -4.66699 -82.5 -14s-48 -25.833 -67 -49.5s-34 -56.167 -45 -97.5s-16.5 -94 -16.5 -158
c0 -63.333 5.5 -114.666 16.5 -153.999s26 -69.833 45 -91.5s41.333 -36.334 67 -44.001s53.167 -11.5 82.5 -11.5z" />
    <glyph glyph-name="e" unicode="e" horiz-adv-x="991" 
d="M894 248c-5.33301 -45.333 -19.3369 -84.333 -42.0039 -117s-51.834 -59.834 -87.501 -81.501s-76.167 -37.667 -121.5 -48s-93.333 -15.5 -144 -15.5c-133.333 0 -234.5 32.333 -303.5 97s-107.833 164.667 -116.5 300c-1.33301 15.333 -2.16602 28.833 -2.49902 40.5
s-0.5 23.334 -0.5 35.001s0.166992 24.5 0.5 38.5s1.16602 30.667 2.49902 50c6.66699 130 44.834 228.333 114.501 295s171.5 100 305.5 100c66 0 124.833 -9 176.5 -27s95.334 -44.5 131.001 -79.5s62.834 -78.333 81.501 -130s28 -111.167 28 -178.5v-100.5
c0 -27.667 -0.666992 -43.5 -2 -47.5h-610c0.666992 -38.667 5.5 -73.5 14.5 -104.5s21.833 -57.5 38.5 -79.5s36.834 -38.833 60.501 -50.5s50.834 -17.5 81.501 -17.5c45.333 0 80.333 11.167 105 33.5s40 51.5 46 87.5h244zM498.996 801
c-37.333 0 -68.332 -7.5 -92.999 -22.5s-44.667 -35 -60 -60s-26.333 -54.167 -33 -87.5s-10.334 -68.333 -11.001 -105h383c0 31.333 -2.16699 62.833 -6.5 94.5s-13 60.5 -26 86.5s-31.833 47.667 -56.5 65s-57 27 -97 29z" />
    <glyph glyph-name="f" unicode="f" horiz-adv-x="620" 
d="M181 999c0 54.667 5.50098 99.835 16.501 135.502s25.667 64.167 44 85.5s39.333 36.333 63 45s48.167 13 73.5 13h192v-160h-82c-14 0 -27.167 -1 -39.5 -3s-23.333 -6.83301 -33 -14.5s-17.334 -18.834 -23.001 -33.501s-8.5 -34.334 -8.5 -59.001v-80h164v-164h-160
v-764h-207v764h-129v164h129v71v0z" />
    <glyph glyph-name="g" unicode="g" horiz-adv-x="1026" 
d="M695 926l221 0.00292969l-2 -797c0 -60.667 -5 -117.334 -15 -170.001s-26.667 -99 -50 -139s-54.333 -72.167 -93 -96.5s-86.334 -38.5 -143.001 -42.5c-35.333 -3.33301 -74 -4.83301 -116 -4.5s-81.667 1.16602 -119 2.49902c-43.333 1.33301 -87 3.33301 -131 6
l10 155l107 -4c30.667 -1.33301 63.167 -2 97.5 -2s66.5 0.666992 96.5 2c28.667 1.33301 52 7.83301 70 19.5s32 26.5 42 44.5s16.667 38 20 60s5 44.333 5 67v104c-10 -22.667 -25 -41.834 -45 -57.501s-42.333 -28.5 -67 -38.5s-50.667 -17.333 -78 -22
s-53.333 -7 -78 -7c-29.333 0 -58.833 2.5 -88.5 7.5s-58.167 13.833 -85.5 26.5s-52.666 30 -75.999 52s-43.666 50.167 -60.999 84.5s-31 75.666 -41 123.999s-15 105.166 -15 170.499s5 122.166 15 170.499s23.667 89.833 41 124.5s37.666 62.834 60.999 84.501
s48.666 38.834 75.999 51.501s55.666 21.334 84.999 26.001s59 7 89 7c62.667 0 116.834 -14 162.501 -42s80.834 -65.667 105.501 -113v146zM494 178.003c29.333 0 56.666 4.5 81.999 13.5s47.166 24.5 65.499 46.5s32.833 51.667 43.5 89s16 84 16 140
c0 48.667 -5.33301 91.667 -16 129s-25.167 68.5 -43.5 93.5s-40.166 43.833 -65.499 56.5s-52.666 19 -81.999 19s-57 -5.16699 -83 -15.5s-48.667 -27.166 -68 -50.499s-34.5 -54 -45.5 -92s-16.5 -84.667 -16.5 -140c0 -60.667 5.5 -109.834 16.5 -147.501
s26.167 -67 45.5 -88s42 -35.167 68 -42.5s53.667 -11 83 -11z" />
    <glyph glyph-name="h" unicode="h" horiz-adv-x="1079" 
d="M347 0l-227.001 0.000976562v1278h227v-447c30.667 33.333 68.5 59.166 113.5 77.499s97.167 27.5 156.5 27.5c58.667 0 110.834 -10 156.501 -30s84.167 -47.5 115.5 -82.5s55 -75.833 71 -122.5s24 -96.667 24 -150v-551h-217v516c0 40 -5.16699 75.333 -15.5 106
s-25 56.5 -44 77.5s-41.667 37 -68 48s-55.5 16.5 -87.5 16.5c-64 0 -114.167 -21.167 -150.5 -63.5s-54.5 -103.833 -54.5 -184.5v-516z" />
    <glyph glyph-name="i" unicode="i" horiz-adv-x="473" 
d="M355 1278v-191h-227v191h227zM355 928v-928h-227v928h227z" />
    <glyph glyph-name="j" unicode="j" horiz-adv-x="508" 
d="M382 1087h-228v191h228v-191zM226 -287c-22 -8 -46.8369 -12.8359 -74.5039 -14.5029s-55.667 -0.666992 -84 3s-56.166 9.33398 -83.499 17.001s-51.666 16.834 -72.999 27.501l35 135c5.33301 -2.66699 14 -6 26 -10s25.333 -7.33301 40 -10
s29.834 -4.16699 45.501 -4.5s30.167 1.83398 43.5 6.50098c16.667 6 29.667 19.333 39 40s14 53 14 97v928h228v-946c0 -76 -12.167 -135 -36.5 -177s-64.166 -72.667 -119.499 -92z" />
    <glyph glyph-name="k" unicode="k" horiz-adv-x="932" 
d="M590 496l381 -496h-252l-377 481l393 447h229zM120 1278h219v-1278h-219v1278z" />
    <glyph glyph-name="l" unicode="l" horiz-adv-x="503" 
d="M341 292c0 -25.333 1.99805 -45.5 5.99805 -60.5s9.66699 -26.5 17 -34.5s16.333 -13.333 27 -16s22.667 -4 36 -4h67v-177h-180c-24.667 0 -48.667 2.66699 -72 8s-44.166 16.5 -62.499 33.5s-33.166 41.833 -44.499 74.5s-17 76 -17 130v1032h223v-986v0z" />
    <glyph glyph-name="m" unicode="m" horiz-adv-x="1591" 
d="M1291 532c0 79.333 -16.666 140.501 -49.999 183.501s-79.333 64.5 -138 64.5s-105.167 -21.5 -139.5 -64.5s-51.5 -104.167 -51.5 -183.5v-532h-209v532c0 79.333 -16.667 140.5 -50 183.5s-79.333 64.5 -138 64.5s-104.834 -21.5 -138.501 -64.5
s-50.5 -104.167 -50.5 -183.5v-532h-208v928h208v-107c24 36 55.833 64.167 95.5 84.5s88.5 30.5 146.5 30.5c38.667 0 73.834 -3.83301 105.501 -11.5s59.667 -18.5 84 -32.5s45.666 -31 63.999 -51s33.5 -42.333 45.5 -67c28 49.333 66.5 88.666 115.5 117.999
s106.833 44 173.5 44c64 0 117.833 -10 161.5 -30s79 -47.5 106 -82.5s46.5 -75.833 58.5 -122.5s18 -96.667 18 -150v-551h-209v532v0z" />
    <glyph glyph-name="n" unicode="n" horiz-adv-x="1048" 
d="M750 532c0 39.333 -5.16797 74.5 -15.501 105.5s-24.833 57 -43.5 78s-41.334 37 -68.001 48s-56 16.5 -88 16.5c-64 0 -114 -21.5 -150 -64.5s-54 -104.167 -54 -183.5v-532h-228v928h228v-123c22.667 41.333 55.334 73.5 98.001 96.5s98 34.5 166 34.5
c69.333 0 127.833 -10 175.5 -30s86.334 -47.5 116.001 -82.5s51 -75.833 64 -122.5s19.5 -96.667 19.5 -150v-551h-220v532v0z" />
    <glyph glyph-name="o" unicode="o" horiz-adv-x="960" 
d="M888 547c0.666992 -19.333 1.33301 -36 2 -50s1 -26.833 1 -38.5s-0.333008 -23.334 -1 -35.001s-1.33398 -25.167 -2.00098 -40.5c-5.33301 -135.333 -42.5 -235.333 -111.5 -300s-167.833 -97 -296.5 -97c-129.333 0 -228 32.333 -296 97s-105 164.667 -111 300
c-0.666992 15.333 -1.16699 28.833 -1.5 40.5s-0.5 23.334 -0.5 35.001s0.166992 24.5 0.5 38.5s0.833008 30.667 1.5 50c4 130 40.333 228.333 109 295s168 100 298 100s229.333 -33.333 298 -100s105.334 -165 110.001 -295zM661.999 360
c1.33301 35.333 2.16602 71.333 2.49902 108s-0.5 71 -2.5 103c-4 71.333 -20.167 126.166 -48.5 164.499s-72.833 57.5 -133.5 57.5c-60 0 -104 -19.167 -132 -57.5s-44.667 -93.166 -50 -164.499c-1.33301 -32 -2 -66.333 -2 -103s0.666992 -72.667 2 -108
c3.33301 -72 19.5 -127.5 48.5 -166.5s73.5 -58.5 133.5 -58.5c60.667 0 105.334 19.5 134.001 58.5s44.667 94.5 48 166.5z" />
    <glyph glyph-name="p" unicode="p" horiz-adv-x="1030" 
d="M337 -260l-210.994 0.000976562v1188h211v-119c10 22.667 25 42.167 45 58.5s42.5 29.5 67.5 39.5s51.167 17.333 78.5 22s53.666 7 78.999 7c29.333 0 58.833 -2.33301 88.5 -7s58.167 -13.334 85.5 -26.001s52.666 -30 75.999 -52s43.666 -50.167 60.999 -84.5
s31 -75.5 41 -123.5s15 -104.667 15 -170c0 -98 -10.833 -179 -32.5 -243s-49.834 -114.833 -84.501 -152.5s-73.834 -64.167 -117.501 -79.5s-87.834 -23 -132.501 -23c-25.333 0 -50.5 1.83301 -75.5 5.5s-49.167 9.66699 -72.5 18s-45.5 19.833 -66.5 34.5
s-39.5 33 -55.5 55v-348zM542.006 770.001c-28.667 0 -55.667 -5.00195 -81 -15.002s-47.5 -26.667 -66.5 -50s-34 -54.166 -45 -92.499s-16.5 -86.166 -16.5 -143.499c0 -60 5.5 -110.667 16.5 -152s26 -75 45 -101s41.167 -44.667 66.5 -56s52.333 -17 81 -17
s55.834 5 81.501 15s48 27.333 67 52s34 58 45 100s16.5 95 16.5 159c0 63.333 -5.5 114.666 -16.5 153.999s-26 69.833 -45 91.5s-41.333 36.334 -67 44.001s-52.834 11.5 -81.501 11.5z" />
    <glyph glyph-name="q" unicode="q" horiz-adv-x="1015" 
d="M425 -17c-30 0 -59.6689 3.00391 -89.002 9.00391s-57.666 16.333 -84.999 31s-52.666 34.167 -75.999 58.5s-43.666 54.666 -60.999 90.999s-31 79.166 -41 128.499s-15 106.666 -15 171.999s5 122 15 170s23.667 89.167 41 123.5s37.666 62.5 60.999 84.5
s48.666 39.333 75.999 52s55.666 21.334 84.999 26.001s59 7 89 7c24.667 0 50.834 -2.33301 78.501 -7s54 -12 79 -22s47.5 -23.167 67.5 -39.5s35 -35.833 45 -58.5v119h211v-1188h-211v348c-16 -22 -34.5 -39.833 -55.5 -53.5s-43.167 -24.334 -66.5 -32.001
s-47.666 -12.834 -72.999 -15.501s-50.333 -4 -75 -4zM489.998 770.004c-29.333 0 -56.666 -3.83105 -81.999 -11.498s-47.666 -22.334 -66.999 -44.001s-34.5 -52.167 -45.5 -91.5s-16.5 -90.666 -16.5 -153.999c0 -64 5.5 -117 16.5 -159s26.167 -75.333 45.5 -100
s41.666 -42 66.999 -52s52.666 -15 81.999 -15c28.667 0 55.667 5.66699 81 17s47.5 30 66.5 56s34 59.667 45 101s16.5 92 16.5 152c0 57.333 -5.5 105.166 -16.5 143.499s-26 69.166 -45 92.499s-41.167 40 -66.5 50s-52.333 15 -81 15z" />
    <glyph glyph-name="r" unicode="r" horiz-adv-x="678" 
d="M339 0l-211.003 0.000976562v928h211v-199c8.66699 22.667 20.5 45.5 35.5 68.5s33 44.333 54 64s45 36 72 49s56.5 20.833 88.5 23.5c12 1.33301 23.333 1.66602 34 0.999023s19.667 -1.33398 27 -2.00098c8.66699 -1.33301 17 -2.33301 25 -3l-13 -219
c-10.667 0.666992 -21.334 1.66699 -32.001 3c-9.33301 0.666992 -19.166 1.33398 -29.499 2.00098s-19.166 1 -26.499 1c-40 0 -74.667 -8 -104 -24s-53.666 -37.167 -72.999 -63.5s-33.666 -56.833 -42.999 -91.5s-14.333 -70.667 -15 -108v-430z" />
    <glyph glyph-name="s" unicode="s" horiz-adv-x="821" 
d="M410 131c35.333 0 63.1768 7.16699 83.5098 21.5s32.166 37.833 35.499 70.5c1.33301 16.667 -0.333984 32.334 -5.00098 47.001s-13.334 28.834 -26.001 42.501s-29.834 27.167 -51.501 40.5s-48.834 27.333 -81.501 42c-40.667 18 -80.334 36.667 -119.001 56
s-72.334 41.5 -101.001 66.5s-50.5 53.833 -65.5 86.5s-19.5 71.667 -13.5 117c4 32.667 14.167 62.667 30.5 90s38.666 50.833 66.999 70.5s62.5 35 102.5 46s86 16.5 138 16.5s100 -5.5 144 -16.5s82 -27.5 114 -49.5s56.667 -50 74 -84s25.666 -74 24.999 -120h-217
c0 18 -2.16699 34.5 -6.5 49.5s-11.5 28 -21.5 39s-23.167 19.5 -39.5 25.5s-36.833 9 -61.5 9c-42 0 -72.667 -8.5 -92 -25.5s-29 -43.5 -29 -79.5c0 -18.667 4 -34.334 12 -47.001s19.833 -24.5 35.5 -35.5s34.834 -21.667 57.501 -32l79 -36.5
c34 -16.667 67.667 -34.5 101 -53.5s63 -40.5 89 -64.5s47 -51.167 63 -81.5s24 -65.5 24 -105.5c0 -37.333 -7.5 -71.5 -22.5 -102.5s-37.5 -57.5 -67.5 -79.5s-67.5 -39.167 -112.5 -51.5s-97.167 -18.5 -156.5 -18.5c-54 0 -101.5 7 -142.5 21s-75.667 33.5 -104 58.5
s-50.5 55 -66.5 90s-25.667 73.167 -29 114.5h232c0.666992 -22.667 4.66699 -42.5 12 -59.5s16.666 -31.333 27.999 -43s24.166 -20.334 38.499 -26.001s29.5 -8.5 45.5 -8.5z" />
    <glyph glyph-name="t" unicode="t" horiz-adv-x="551" 
d="M142 772l-139.001 -0.000976562v156h139v235h203v-235h168v-156h-168v-488c0 -25.333 2.16699 -45.166 6.5 -59.499s10.333 -25 18 -32s17 -11.333 28 -13s23.5 -2.5 37.5 -2.5h102v-177h-192c-25.333 0 -50.166 2.66699 -74.499 8s-46 16.5 -65 33.5
s-34.333 41.833 -46 74.5s-17.5 76 -17.5 130v526z" />
    <glyph glyph-name="u" unicode="u" horiz-adv-x="1005" 
d="M679 113c-19.333 -38 -47.665 -67.667 -84.998 -89s-86.333 -32 -147 -32c-65.333 0 -119.333 10 -162 30s-76.834 47.5 -102.501 82.5s-43.667 75.833 -54 122.5s-15.5 96.667 -15.5 150v551h213v-533c0 -80 13.167 -139.833 39.5 -179.5s69.166 -59.5 128.499 -59.5
c30 0 56.5 6.16699 79.5 18.5s42.333 30 58 53s27.5 50.833 35.5 83.5s12 69 12 109v508h213v-928h-213v113v0z" />
    <glyph glyph-name="v" unicode="v" horiz-adv-x="723" 
d="M765 928l-299 -928h-211l-299 928h252l161 -670l144 670h252v0z" />
    <glyph glyph-name="w" unicode="w" horiz-adv-x="1231" 
d="M902 313l121 615h241l-276 -928h-178l-197 776l-197 -776h-179l-275 928h244l120 -615l146 615h285l145 -615v0z" />
    <glyph glyph-name="x" unicode="x" horiz-adv-x="811" 
d="M257 0h-256l281 489l-281 439h256l141 -277l141 277h256l-280 -439l280 -489h-256l-141 328l-141 -328v0z" />
    <glyph glyph-name="y" unicode="y" horiz-adv-x="747" 
d="M165 -260l133 387l-326 801h242l175 -558l138 558h236l-375 -1188h-223v0z" />
    <glyph glyph-name="z" unicode="z" horiz-adv-x="688" 
d="M662 0h-657l362 758h-337v170h657l-363 -751h338v-177v0z" />
    <glyph glyph-name="braceleft" unicode="{" horiz-adv-x="665" 
d="M443 721c0 -18.667 -2.49902 -38.0078 -7.49902 -58.0078s-13.5 -39 -25.5 -57s-27.833 -33.667 -47.5 -47s-43.834 -22.333 -72.501 -27c28.667 -4.66699 52.667 -13.5 72 -26.5s35 -28.5 47 -46.5s20.667 -37 26 -57s8 -39.333 8 -58v-215
c0 -50.667 0.833008 -96.667 2.5 -138s8.66699 -76.666 21 -105.999s32.166 -51.666 59.499 -66.999s66.666 -22.333 117.999 -21v-63c-52 -6.66699 -99.833 -6.66699 -143.5 0s-81.167 23.334 -112.5 50.001s-55.833 64.834 -73.5 114.501s-26.5 114.167 -26.5 193.5v270
c1.33301 25.333 -1.66699 48 -9 68c-6.66699 17.333 -18.5 33 -35.5 47s-42.5 21 -76.5 21v69c34 0 59.5 6.83301 76.5 20.5s28.833 29.167 35.5 46.5c7.33301 20 10.333 42.667 9 68v271c0 79.333 8.83301 143.833 26.5 193.5s42.167 87.834 73.5 114.501
s68.833 43.334 112.5 50.001s91.5 6.66699 143.5 0v-63c-51.333 1.33301 -90.666 -5.66699 -117.999 -21s-47.166 -37.666 -59.499 -66.999s-19.333 -64.666 -21 -105.999s-2.5 -87.333 -2.5 -138v-215v0z" />
    <glyph glyph-name="bar" unicode="|" horiz-adv-x="546" 
d="M333 -260h-113v1551h113v-1551z" />
    <glyph glyph-name="braceright" unicode="}" horiz-adv-x="632" 
d="M196 936c0 50.667 -0.833984 96.6748 -2.50098 138.008s-8.66699 76.666 -21 105.999s-32.166 51.666 -59.499 66.999s-66.666 22.333 -117.999 21v63c52 6.66699 99.833 6.66699 143.5 0s81.167 -23.334 112.5 -50.001s55.833 -64.834 73.5 -114.501
s26.5 -114.167 26.5 -193.5v-271c-1.33301 -25.333 1.66699 -48 9 -68c6.66699 -17.333 18.334 -32.833 35.001 -46.5s42.334 -20.5 77.001 -20.5v-69c-17.333 0 -32.333 -2 -45 -6s-23.334 -9.16699 -32.001 -15.5s-15.834 -13.5 -21.501 -21.5s-10.167 -16.333 -13.5 -25
c-7.33301 -20 -10.333 -42.667 -9 -68v-270c0 -79.333 -8.83301 -143.833 -26.5 -193.5s-42.167 -87.834 -73.5 -114.501s-68.833 -43.334 -112.5 -50.001s-91.5 -6.66699 -143.5 0v63c51.333 -1.33301 90.666 5.66699 117.999 21s47.166 37.666 59.499 66.999
s19.333 64.666 21 105.999s2.5 87.333 2.5 138v215c0 18.667 2.66699 38 8 58s14 39 26 57s27.667 33.5 47 46.5s43.333 21.833 72 26.5c-29.333 4.66699 -53.666 13.667 -72.999 27s-35 29 -47 47s-20.5 37 -25.5 57s-7.5 39.333 -7.5 58v215z" />
    <glyph glyph-name="asciitilde" unicode="~" horiz-adv-x="567" 
d="M32 559l26.5039 30.0039c9 10 19 19.167 30 27.5s23.667 15.166 38 20.499s31.166 8 50.499 8c26 0 48.167 -4.16699 66.5 -12.5s35 -17.5 50 -27.5l42.5 -27.5c13.333 -8.33301 28 -12.5 44 -12.5c19.333 0 36 2.5 50 7.5s26.167 11.5 36.5 19.5
s19.666 16.667 27.999 26l24.5 27v-146c-8 -9.33301 -15.667 -19 -23 -29s-16 -19 -26 -27s-21.667 -14.667 -35 -20s-29.666 -8 -48.999 -8c-24.667 0 -44.334 4.66699 -59.001 14s-28.834 19.666 -42.501 30.999s-28.334 21.666 -44.001 30.999s-36.834 14 -63.501 14
c-21.333 0 -39.333 -3.16699 -54 -9.5s-27.5 -14.333 -38.5 -24s-20.667 -19.834 -29 -30.501s-16.166 -20 -23.499 -28v146z" />
    <glyph glyph-name="nonbreakingspace" unicode="&#xa0;" horiz-adv-x="515" 
 />
    <glyph glyph-name="exclamdown" unicode="&#xa1;" horiz-adv-x="510" 
d="M132 -216v505l42 338h184l42 -338v-505h-268zM137 800v260h256v-260h-256z" />
    <glyph glyph-name="cent" unicode="&#xa2;" horiz-adv-x="882" 
d="M828 301c-5.33301 -54.667 -15.668 -101.331 -31.001 -139.998s-36.5 -70.5 -63.5 -95.5s-60.333 -43.833 -100 -56.5s-86.834 -20 -141.501 -22v-114h-75v115c-106 6.66699 -187.667 42.167 -245 106.5s-88.666 160.5 -93.999 288.5
c-1.33301 15.333 -2.16602 28.833 -2.49902 40.5s-0.5 23.334 -0.5 35.001s0.166992 24.5 0.5 38.5s1.16602 30.667 2.49902 50c3.33301 122 34 216.167 92 282.5s140.333 103.166 247 110.499v150h75v-149c102.667 -4.66699 181 -31.334 235 -80.001
s87.667 -123.334 101 -224.001h-222c-5.33301 44 -18.166 78.5 -38.499 103.5s-45.5 41.167 -75.5 48.5v-650c34 7.33301 60.667 25.333 80 54s31 64.667 35 108h221zM298.998 371.003c3.33301 -62.667 13.833 -114.333 31.5 -155s46.5 -66.334 86.5 -77.001v650
c-40 -8 -68.5 -29.167 -85.5 -63.5s-27.833 -82.166 -32.5 -143.499c-1.33301 -32 -2 -66.5 -2 -103.5s0.666992 -72.833 2 -107.5z" />
    <glyph glyph-name="sterling" unicode="&#xa3;" horiz-adv-x="659" 
d="M87 153l96.001 0.000976562v611h-120v164h120v71c0 54.667 5.16699 99.834 15.5 135.501s24 64.167 41 85.5s36.5 36.333 58.5 45s44.667 13 68 13h179v-160h-76c-12.667 0 -24.834 -1 -36.501 -3s-22 -6.83301 -31 -14.5s-16.167 -18.834 -21.5 -33.501
s-8 -34.334 -8 -59.001v-80h153v-164h-149v-611h207v-154h-496v154z" />
    <glyph glyph-name="currency" unicode="&#xa4;" horiz-adv-x="952" 
d="M675 373c-29.333 -23.333 -61.1699 -40.6699 -95.5029 -52.0029s-69.333 -17.166 -105 -17.499s-71.167 4.83398 -106.5 15.501s-68.333 26.667 -99 48l-110 -109l-60 59l107 109c-24 30.667 -42.5 64 -55.5 100s-19.667 72.667 -20 110s5.33398 74 17.001 110
s29.834 69.333 54.501 100l-113 112l63 62l111 -113c30.667 22.667 64 39.334 100 50.001s72.333 15.5 109 14.5s72.834 -7.66699 108.501 -20s68.5 -30.5 98.5 -54.5l104 107l60 -64l-107 -106c20.667 -30 36.167 -62.167 46.5 -96.5s15.5 -69 15.5 -104
s-5.33301 -69.5 -16 -103.5s-26.667 -65.333 -48 -94l104 -104l-61 -62zM330.996 501.996c18.667 -18 39.668 -31.667 63.001 -41s47 -14 71 -14s47.833 4.5 71.5 13.5s45.167 22.833 64.5 41.5c18 18 31.667 38.667 41 62s14.166 47.5 14.499 72.5
s-4.16699 49.333 -13.5 73s-23.333 44.5 -42 62.5c-18 18.667 -38.833 32.5 -62.5 41.5s-48 13.5 -73 13.5s-49.167 -4.5 -72.5 -13.5s-44 -22.833 -62 -41.5c-18.667 -19.333 -32.5 -40.5 -41.5 -63.5s-13.5 -46.5 -13.5 -70.5s4.66699 -47.833 14 -71.5
s23 -45.167 41 -64.5z" />
    <glyph glyph-name="yen" unicode="&#xa5;" horiz-adv-x="938" 
d="M124 541h229l-383 737h244l258 -600l258 600h244l-385 -737h221v-116h-221v-97h221v-116h-221v-212h-236v212h-229v116h229v97h-229v116z" />
    <glyph glyph-name="brokenbar" unicode="&#xa6;" horiz-adv-x="315" 
d="M212 692h-113v586h113v-586zM212 -259h-113v586h113v-586z" />
    <glyph glyph-name="section" unicode="&#xa7;" horiz-adv-x="776" 
d="M423 -88c26 0 47.8262 3.66797 65.4932 11.001s31.667 16.666 42 27.999s17.333 24.166 21 38.499s4.5 28.166 2.5 41.499c-2 12 -10.167 26.5 -24.5 43.5s-31.166 34.167 -50.499 51.5s-39.5 34.5 -60.5 51.5l-53.5 43.5l-56 46.5l-66 56
c-22.667 19.667 -44.667 40.334 -66 62.001s-40.333 43.5 -57 65.5s-30 44 -40 66s-14.667 43 -14 63c-1.33301 32.667 2.33398 61 11.001 85s20.167 44.5 34.5 61.5s30.833 30.833 49.5 41.5s37.667 19 57 25c-19.333 17.333 -39 37 -59 59s-38 45.167 -54 69.5
s-29.167 48.833 -39.5 73.5s-15.5 48.667 -15.5 72c-1.33301 44.667 6.83398 81.834 24.501 111.501s41.5 53.5 71.5 71.5s64.667 30.833 104 38.5s80.666 11.5 123.999 11.5c50 0 96.167 -5.16699 138.5 -15.5s78.666 -26.5 108.999 -48.5s53.833 -50.167 70.5 -84.5
s24.667 -75.5 24 -123.5h-170c1.33301 19.333 -0.166992 38.333 -4.5 57s-12.166 35.167 -23.499 49.5s-26.833 26 -46.5 35s-44.167 13.833 -73.5 14.5c-50 1.33301 -88.5 -8.83398 -115.5 -30.501s-38.833 -52.5 -35.5 -92.5c2 -24 8.83301 -46.5 20.5 -67.5
s26.5 -41 44.5 -60s38 -37.333 60 -55l67 -53.5l73.5 -53.5c27 -19 53.5 -38.667 79.5 -59s49.833 -41.333 71.5 -63s37.834 -43.5 48.501 -65.5c12.667 -26 20.834 -52.667 24.501 -80s2 -55 -5 -83s-20.167 -55.667 -39.5 -83s-45.666 -53.333 -78.999 -78
c46 -32 78.667 -70.833 98 -116.5s28.333 -93.5 27 -143.5c-0.666992 -38 -9.83398 -71.833 -27.501 -101.5s-41.167 -54.5 -70.5 -74.5s-63.666 -35.333 -102.999 -46s-80.666 -16 -123.999 -16c-53.333 0 -102.5 7.16699 -147.5 21.5s-83.667 34.833 -116 61.5
s-57.166 59.334 -74.499 98.001s-24.333 82.334 -21 131.001h186c0 -52.667 15 -92.834 45 -120.501s76 -41.5 138 -41.5zM506.993 557.001c-10 9.33301 -22.499 20.332 -37.499 32.999l-46 38.5l-46 36.5c-15 11.333 -27.833 20.333 -38.5 27
c-37.333 -16.667 -63.5 -34.5 -78.5 -53.5s-16.833 -41.5 -5.5 -67.5c4.66699 -10.667 13.167 -22.834 25.5 -36.501s26.833 -28 43.5 -43l52.5 -45l53 -42l45 -34.5l28.5 -22c29.333 20 49.666 38.833 60.999 56.5s16 34.834 14 51.501s-9.5 33.334 -22.5 50.001
s-29.167 33.667 -48.5 51z" />
    <glyph glyph-name="dieresis" unicode="&#xa8;" horiz-adv-x="571" 
d="M79 1271c0 23.333 7.5 42.833 22.5 58.5s34.167 23.5 57.5 23.5s42.666 -7.83301 57.999 -23.5s23 -35.167 23 -58.5c0 -22.667 -7.66699 -41.667 -23 -57s-34.666 -23 -57.999 -23s-42.5 7.66699 -57.5 23s-22.5 34.333 -22.5 57zM331 1271
c0 23.333 7.5 42.833 22.5 58.5s33.833 23.5 56.5 23.5c24 0 43.667 -7.83301 59 -23.5s23 -35.167 23 -58.5c0 -22.667 -7.66699 -41.667 -23 -57s-35 -23 -59 -23c-22.667 0 -41.5 7.66699 -56.5 23s-22.5 34.333 -22.5 57z" />
    <glyph glyph-name="copyright" unicode="&#xa9;" horiz-adv-x="1488" 
d="M62 641c0 92 15.5 178.333 46.5 259s76 151.167 135 211.5s130.667 108 215 143s180.166 52.5 287.499 52.5c106.667 0 202.5 -17.5 287.5 -52.5s157 -82.667 216 -143s104.167 -130.833 135.5 -211.5s47 -167 47 -259s-15.667 -178.333 -47 -259s-76.5 -151 -135.5 -211
s-131 -107.333 -216 -142s-180.833 -52 -287.5 -52c-107.333 0 -203.166 17.333 -287.499 52s-156 82 -215 142s-104 130.333 -135 211s-46.5 167 -46.5 259zM222 639c0 -84.667 12.333 -160.667 37 -228s59.667 -124.5 105 -171.5s100.166 -83 164.499 -108
s136.166 -37.5 215.499 -37.5s151.166 12.5 215.499 37.5s119.333 61 165 108s80.834 104.167 105.501 171.5s37 143.333 37 228s-12.333 160.667 -37 228s-59.834 124.5 -105.501 171.5s-100.667 83 -165 108s-136.166 37.5 -215.499 37.5s-151.166 -12.5 -215.499 -37.5
s-119.166 -61 -164.499 -108s-80.333 -104.167 -105 -171.5s-37 -143.333 -37 -228zM1062 508c-4.66699 -45.333 -13.998 -83.834 -27.998 -115.501s-33.667 -57.5 -59 -77.5s-56.833 -34.5 -94.5 -43.5s-82.5 -13.5 -134.5 -13.5c-100.667 0 -178.334 25.5 -233.001 76.5
s-84.667 130.5 -90 238.5c-0.666992 12 -1.16699 22.667 -1.5 32s-0.5 18.5 -0.5 27.5s0.166992 18.833 0.5 29.5s0.833008 23.334 1.5 38.001c4 103.333 33.667 181.5 89 234.5s133.333 79.5 234 79.5c98.667 0 172.834 -19.333 222.501 -58s80.834 -100 93.501 -184h-189
c-5.33301 41.333 -19.5 72.166 -42.5 92.499s-51.167 30.5 -84.5 30.5c-46 0 -78.833 -13.833 -98.5 -41.5s-31.834 -69.167 -36.501 -124.5v-166c3.33301 -57.333 15.166 -102.666 35.499 -135.999s53.5 -50 99.5 -50c38 0 67.667 11.833 89 35.5s34.666 55.5 39.999 95.5
h187z" />
    <glyph glyph-name="ordfeminine" unicode="&#xaa;" horiz-adv-x="696" 
d="M249 679c-32 0 -59.165 4.16895 -81.498 12.502s-40.5 19.833 -54.5 34.5s-24.167 32.334 -30.5 53.001s-9.5 43 -9.5 67c0 49.333 13.333 90.5 40 123.5s71.667 56.5 135 70.5c42.667 9.33301 82.167 17.166 118.5 23.499s63.166 11.5 80.499 15.5
c0 21.333 -2.5 37.666 -7.5 48.999s-12.167 19.666 -21.5 24.999s-21 8.5 -35 9.5s-30.333 1.5 -49 1.5c-15.333 0 -35.5 -0.833008 -60.5 -2.5s-49.5 -3.16699 -73.5 -4.5l-88 -6l-5 102c48.667 2 93.334 4 134.001 6c17.333 0.666992 34.666 1.5 51.999 2.5
s33.333 1.83301 48 2.5s27.667 1.16699 39 1.5s19.666 0.5 24.999 0.5c40 0 72 -5.66699 96 -17s42.5 -27.5 55.5 -48.5s21.5 -46.333 25.5 -76s6 -63.167 6 -100.5v-338h-139v75c-19.333 -29.333 -46.5 -50.333 -81.5 -63s-74.5 -19 -118.5 -19zM309.002 962.002
c-35.333 -10 -62.832 -24.332 -82.499 -42.999s-29.5 -41.667 -29.5 -69c0 -14 3.16699 -25.667 9.5 -35s14.166 -17 23.499 -23s19 -10.333 29 -13s19 -4 27 -4c26 0 49.167 4.33301 69.5 13s37.333 20.167 51 34.5s24.167 30.666 31.5 48.999s11 37.5 11 57.5v69
c-25.333 -5.33301 -50.333 -11.333 -75 -18z" />
    <glyph glyph-name="guillemotleft" unicode="&#xab;" horiz-adv-x="610" 
d="M111 1204h164v-149l-130 -319h-88zM373 1204h164v-149l-130 -319h-88z" />
    <glyph glyph-name="logicalnot" unicode="&#xac;" horiz-adv-x="829" 
d="M16 1141v138h780v-346h-165v208h-615z" />
    <glyph glyph-name="uni00AD" unicode="&#xad;" horiz-adv-x="847" 
d="M43 612h745v-160h-745v160z" />
    <glyph glyph-name="registered" unicode="&#xae;" horiz-adv-x="1460" 
d="M62 641c0 92 15.5 178.333 46.5 259s76 151.167 135 211.5s130.667 108 215 143s180.166 52.5 287.499 52.5c106.667 0 202.5 -17.5 287.5 -52.5s157 -82.667 216 -143s104.167 -130.833 135.5 -211.5s47 -167 47 -259s-15.667 -178.333 -47 -259s-76.5 -151 -135.5 -211
s-131 -107.333 -216 -142s-180.833 -52 -287.5 -52c-107.333 0 -203.166 17.333 -287.499 52s-156 82 -215 142s-104 130.333 -135 211s-46.5 167 -46.5 259zM222 639c0 -84.667 12.333 -160.667 37 -228s59.667 -124.5 105 -171.5s100.166 -83 164.499 -108
s136.166 -37.5 215.499 -37.5s151.166 12.5 215.499 37.5s119.333 61 165 108s80.834 104.167 105.501 171.5s37 143.333 37 228s-12.333 160.667 -37 228s-59.834 124.5 -105.501 171.5s-100.667 83 -165 108s-136.166 37.5 -215.499 37.5s-151.166 -12.5 -215.499 -37.5
s-119.166 -61 -164.499 -108s-80.333 -104.167 -105 -171.5s-37 -143.333 -37 -228zM1021 778c0 -34.667 -4.66699 -64.832 -14 -90.499s-22.166 -47.334 -38.499 -65.001s-35.833 -31.667 -58.5 -42s-47.334 -17.5 -74.001 -21.5l175 -280h-140l-157 276h-45v-276h-138v725
h244c35.333 0 68 -4 98 -12s56 -21 78 -39s39.167 -41.333 51.5 -70s18.5 -63.667 18.5 -105zM755 649.002c16.667 0 33.499 1.5 50.499 4.5s32.333 9 46 18s24.834 22 33.501 39s13 39.5 13 67.5c0 28.667 -4.16699 52 -12.5 70s-19.333 32 -33 42s-29 16.667 -46 20
s-34.167 5 -51.5 5h-86v-266h86z" />
    <glyph glyph-name="macron" unicode="&#xaf;" horiz-adv-x="1022" 
d="M-1 1277h1025v-160h-1025v160z" />
    <glyph glyph-name="degree" unicode="&#xb0;" horiz-adv-x="745" 
d="M91 1001c0 39.333 7.5 76.5 22.5 111.5s35.5 65.5 61.5 91.5s56.5 46.5 91.5 61.5s72.167 22.5 111.5 22.5s76.333 -7.5 111 -22.5s65 -35.5 91 -61.5s46.5 -56.5 61.5 -91.5s22.5 -72.167 22.5 -111.5s-7.5 -76.333 -22.5 -111s-35.5 -65 -61.5 -91
s-56.333 -46.5 -91 -61.5s-71.667 -22.5 -111 -22.5s-76.5 7.5 -111.5 22.5s-65.5 35.5 -91.5 61.5s-46.5 56.333 -61.5 91s-22.5 71.667 -22.5 111zM202 1001c0 -24.667 4.5 -47.5 13.5 -68.5s21.167 -39.333 36.5 -55s33.666 -28 54.999 -37s44.333 -13.5 69 -13.5
s47.667 4.5 69 13.5s40 21.333 56 37s28.5 34 37.5 55s13.5 43.833 13.5 68.5s-4.5 47.834 -13.5 69.501s-21.5 40.5 -37.5 56.5s-34.667 28.5 -56 37.5s-44.333 13.5 -69 13.5s-47.667 -4.5 -69 -13.5s-39.666 -21.5 -54.999 -37.5s-27.5 -34.833 -36.5 -56.5
s-13.5 -44.834 -13.5 -69.501z" />
    <glyph glyph-name="plusminus" unicode="&#xb1;" horiz-adv-x="573" 
d="M25 621h195v188h137v-188h195v-129h-195v-199h-137v199h-195v129zM32 115h510v-115h-510v115z" />
    <glyph glyph-name="twosuperior" unicode="&#xb2;" horiz-adv-x="495" 
d="M424 789l0.00195312 -103.003h-362c7.33301 12.667 17.333 29 30 49l41.5 66l46.5 74.5l45.5 74l39 64l27.5 45.5c8 13.333 13.167 27.166 15.5 41.499s1.83301 27.5 -1.5 39.5s-9.33301 22 -18 30s-20.334 12.667 -35.001 14
c-18 0.666992 -32.333 -2.16602 -43 -8.49902s-18.834 -15 -24.501 -26s-9 -23.667 -10 -38s-1.16699 -29.166 -0.5 -44.499h-125c-2 32 0 61 6 87s16.833 48.333 32.5 67s36.5 33 62.5 43s58 15 96 15c40 0 74.667 -7.83301 104 -23.5s51 -36.667 65 -63
s19.5 -57.166 16.5 -92.499s-16.833 -72.666 -41.5 -111.999l-39.5 -65.5l-41.5 -64.5l-46 -69h160z" />
    <glyph glyph-name="threesuperior" unicode="&#xb3;" horiz-adv-x="463" 
d="M298 996c22 -2.66699 40.501 -8.49902 55.501 -17.499s27.333 -20.167 37 -33.5s16.667 -28.5 21 -45.5s6.5 -34.5 6.5 -52.5c0 -25.333 -4.66699 -48.666 -14 -69.999s-22.5 -39.5 -39.5 -54.5s-37.5 -26.667 -61.5 -35s-51 -12.5 -81 -12.5s-56.667 3.16699 -80 9.5
s-43 16.666 -59 30.999s-28 33.166 -36 56.499s-12 52 -12 86h125c0 -30.667 5.5 -52.834 16.5 -66.501s27.833 -20.5 50.5 -20.5s40.167 7.33301 52.5 22s18.5 36 18.5 64c0 32 -8.16699 55.167 -24.5 69.5s-43.5 21.5 -81.5 21.5v77c24 0 44.5 7.83301 61.5 23.5
s25.5 36.5 25.5 62.5c0 21.333 -3.66699 37.833 -11 49.5s-20.333 18.5 -39 20.5c-30 4.66699 -50.333 -0.833008 -61 -16.5s-16.334 -37.5 -17.001 -65.5h-116c-4 56.667 9.83301 101.5 41.5 134.5s78.5 49.5 140.5 49.5c30 0 56.5 -4.16699 79.5 -12.5
s42.167 -19.666 57.5 -33.999s26.833 -31 34.5 -50s11.5 -38.833 11.5 -59.5c0 -13.333 -1.83301 -27 -5.5 -41s-9.5 -27 -17.5 -39s-18.5 -22.5 -31.5 -31.5s-28.833 -15.5 -47.5 -19.5z" />
    <glyph glyph-name="acute" unicode="&#xb4;" horiz-adv-x="563" 
d="M304 1332h215l-297 -162h-121z" />
    <glyph glyph-name="mu1" unicode="&#xb5;" horiz-adv-x="1001" 
d="M107 928h218.999v-533c0 -80 13.167 -139.833 39.5 -179.5s69.166 -59.5 128.499 -59.5c30 0 56.5 6.16699 79.5 18.5s42.333 30 58 53s27.5 50.833 35.5 83.5s12 69 12 109v508h213v-928h-213v113c-19.333 -38 -44.666 -67.667 -75.999 -89s-70 -32 -116 -32
c-12 0 -25.667 1.16699 -41 3.5s-30.666 6 -45.999 11s-30 11.667 -44 20s-25.333 18.833 -34 31.5v-316h-215v1186z" />
    <glyph glyph-name="paragraph" unicode="&#xb6;" horiz-adv-x="929" 
d="M660 1118l-148 0.00390625v-1118h-128v649h-8c-46.667 0 -89.334 6.66699 -128.001 20s-72 32.666 -100 57.999s-49.667 56.166 -65 92.499s-23 77.833 -23 124.5s7.66699 88.167 23 124.5s37 67.166 65 92.499s61.333 44.666 100 57.999s81.334 20 128.001 20h518v-121
h-107v-1118h-127v1118z" />
    <glyph glyph-name="periodcentered" unicode="&#xb7;" horiz-adv-x="618" 
d="M190 428v260h256v-260h-256z" />
    <glyph glyph-name="cedilla" unicode="&#xb8;" horiz-adv-x="440" 
d="M154 -334v84h95c23.333 0 40 4.5 50 13.5s14.5 18.833 13.5 29.5s-6.66699 20.5 -17 29.5s-23.833 13.5 -40.5 13.5h-115c-25.333 0 -44 7.83301 -56 23.5s-17.5 33.667 -16.5 54s8.33301 40.5 22 60.5s33.834 34 60.501 42c-18.667 -26.667 -25.334 -50 -20.001 -70
s22.333 -30 51 -30h115c20.667 0 38.667 -6.16699 54 -18.5s26.833 -27.833 34.5 -46.5s11.167 -38.667 10.5 -60s-6.5 -41.333 -17.5 -60s-27.333 -34.167 -49 -46.5s-49.5 -18.5 -83.5 -18.5h-91z" />
    <glyph glyph-name="onesuperior" unicode="&#xb9;" horiz-adv-x="456" 
d="M90 784l102 0.000976562v305h-95v69c31.333 0 56 6 74 18s32 25.333 42 40c11.333 17.333 19.333 36.666 24 57.999h80v-490h64v-100h-291v100z" />
    <glyph glyph-name="ordmasculine" unicode="&#xba;" horiz-adv-x="663" 
d="M579 1033c0.666992 -12 0.999023 -22.332 0.999023 -30.999v-24v-22c0 -7.33301 -0.333008 -15.666 -1 -24.999c-3.33301 -85.333 -26.5 -148 -69.5 -188s-104.833 -60 -185.5 -60s-142.167 20 -184.5 60s-65.166 102.667 -68.499 188
c-0.666992 9.33301 -1.16699 17.666 -1.5 24.999s-0.5 14.666 -0.5 21.999s0.166992 15.333 0.5 24s0.833008 19 1.5 31c2 80.667 24.5 141.834 67.5 183.501s104.833 62.5 185.5 62.5s142.5 -20.833 185.5 -62.5s66.167 -102.834 69.5 -183.501zM437.999 916.001
c0.666992 22 1.16797 44.667 1.50098 68s-0.166992 44.666 -1.5 63.999c-2.66699 44 -12.834 78 -30.501 102s-45.5 36 -83.5 36c-37.333 0 -64.666 -12 -81.999 -36s-27.666 -58 -30.999 -102c-0.666992 -19.333 -1 -40.666 -1 -63.999s0.333008 -46 1 -68
c1.33301 -44.667 11.166 -79.167 29.499 -103.5s46.166 -36.5 83.499 -36.5c38 0 66 12.167 84 36.5s28 58.833 30 103.5z" />
    <glyph glyph-name="guillemotright" unicode="&#xbb;" horiz-adv-x="594" 
d="M111 1204h164v-149l-130 -319h-88zM373 1204h164v-149l-130 -319h-88z" />
    <glyph glyph-name="onequarter" unicode="&#xbc;" horiz-adv-x="1423" 
d="M96 575l339.999 -0.000976562v119h-74v582h-93c-5.33301 -26 -14.666 -49 -27.999 -69c-11.333 -17.333 -28 -33.166 -50 -47.499s-51 -21.5 -87 -21.5v-81h112v-363h-120v-119zM1299 250.999h-71v136h-128l-1 -139h-153l185 457h-150l-238 -571h356v-134h129v134h71v117
zM487.999 -0.000976562h-118l500 1277h118z" />
    <glyph glyph-name="onehalf" unicode="&#xbd;" horiz-adv-x="1427" 
d="M1088 124l55 81.999l49 76.5l48 78.5c28.667 47.333 44.834 92 48.501 134s-2.83301 78.833 -19.5 110.5s-42.5 56.667 -77.5 75s-76.5 27.5 -124.5 27.5c-45.333 0 -83.5 -6 -114.5 -18s-55.833 -29 -74.5 -51s-31.5 -48.667 -38.5 -80s-9.16699 -66 -6.5 -104h149
c-0.666992 18 -0.333984 35.5 0.999023 52.5s5.16602 32 11.499 45s15.833 23.333 28.5 31s30 11.167 52 10.5c16.667 -1.33301 30.334 -6.66602 41.001 -15.999s18 -21 22 -35s4.66699 -29.667 2 -47s-9 -34 -19 -50c-7.33301 -13.333 -18 -31.5 -32 -54.5l-47 -76.5
l-54.5 -88l-55.5 -89l-49.5 -79l-35.5 -58h432v123h-191zM137 574.999l339.999 -0.000976562v119h-74v582h-93c-5.33301 -26 -14.666 -49 -27.999 -69c-11.333 -17.333 -28 -33.166 -50 -47.499s-51 -21.5 -87 -21.5v-81h112v-363h-120v-119zM487.999 -0.00195312h-118
l500 1277h118z" />
    <glyph glyph-name="threequarters" unicode="&#xbe;" horiz-adv-x="1427" 
d="M402 950c25.333 -3.33301 46.999 -10.334 64.999 -21.001s32.667 -24 44 -40s19.666 -33.833 24.999 -53.5s8 -40.5 8 -62.5c0 -30 -5.5 -57.5 -16.5 -82.5s-26.667 -46.5 -47 -64.5s-44.833 -32 -73.5 -42s-60.667 -15 -96 -15c-36 0 -67.833 3.83301 -95.5 11.5
s-51 20 -70 37s-33.333 39.333 -43 67s-14.167 61.834 -13.5 102.501h148c0 -36.667 6.5 -63.167 19.5 -79.5s32.833 -24.5 59.5 -24.5c27.333 0 48.5 8.66699 63.5 26s22.5 42.666 22.5 75.999c0 38 -9.66699 65.5 -29 82.5s-52 25.5 -98 25.5v91
c28.667 0 53 9.16699 73 27.5s30 42.833 30 73.5c0 25.333 -4.33301 45 -13 59s-24 22.333 -46 25c-36 5.33301 -60.167 -1.16699 -72.5 -19.5s-18.833 -44.166 -19.5 -77.499h-138c-2.66699 33.333 0.333008 63.333 9 90s22.167 49.5 40.5 68.5s41.5 33.5 69.5 43.5
s60.333 15 97 15c36 0 67.5 -5 94.5 -15s49.667 -23.333 68 -40s32 -36.167 41 -58.5s13.5 -45.833 13.5 -70.5c0 -16 -2.16699 -32.167 -6.5 -48.5s-11.166 -31.666 -20.499 -45.999s-21.666 -26.833 -36.999 -37.5s-34 -18.334 -56 -23.001zM1287 132.999h-71v-133h-128
v133h-354l237 568h149l-184 -455h152l1 139h127v-136h71v-116zM487.999 -0.000976562h-118l500 1277h118z" />
    <glyph glyph-name="questiondown" unicode="&#xbf;" horiz-adv-x="907" 
d="M450 -220c76 0 140.664 10.498 193.997 31.498s96.166 49.833 128.499 86.5s55 79.834 68 129.501s17.167 102.834 12.5 159.501h-240c2 -38 -0.333008 -70.333 -7 -97s-17 -48.667 -31 -66s-31.5 -30 -52.5 -38s-44.833 -12 -71.5 -12c-46 0 -81.333 15.833 -106 47.5
s-37 73.5 -37 125.5c0 19.333 6.83301 38.833 20.5 58.5s30.667 40.834 51 63.501l65 73.5c23 26.333 43.667 55.666 62 87.999s32.5 68.166 42.5 107.499s12 83.333 6 132h-208c0.666992 -40.667 -5.66602 -75.5 -18.999 -104.5s-30.333 -55.667 -51 -80
s-43.167 -47.666 -67.5 -69.999s-47 -47 -68 -74s-38.5 -57.667 -52.5 -92s-21 -75.833 -21 -124.5c0 -49.333 7.83301 -95 23.5 -137s39.334 -78.5 71.001 -109.5s71.334 -55.167 119.001 -72.5s103.834 -26 168.501 -26zM570.997 1060v-224h-243v224h243z" />
    <glyph glyph-name="Agrave" unicode="&#xc0;" horiz-adv-x="1214" 
d="M457 1278h309l486 -1278h-261l-131 387h-499l-131 -387h-261zM416 551h389l-195 575zM812 1399h-121l-297 162h215z" />
    <glyph glyph-name="Aacute" unicode="&#xc1;" horiz-adv-x="1222" 
d="M460 1278h309l486 -1278h-261l-131 387h-499l-131 -387h-261zM419 551h389l-195 575zM675 1561h215l-297 -162h-121z" />
    <glyph glyph-name="Acircumflex" unicode="&#xc2;" horiz-adv-x="1203" 
d="M455 1278h309l486 -1278h-261l-131 387h-499l-131 -387h-261zM414 551h389l-195 575zM663 1677l196 -273h-132l-98 162l-107 -162h-134l206 273h69z" />
    <glyph glyph-name="Atilde" unicode="&#xc3;" horiz-adv-x="1208" 
d="M766 1278l486 -1278h-261l-131 387h-499l-131 -387h-261l488 1278h309zM805 551l-195 575l-194 -575h389zM453 1487c7.33301 10 14.832 20.835 22.499 32.502s16 22.5 25 32.5s19.333 18.333 31 25s25.5 10 41.5 10c21.333 0 39.833 -6.33301 55.5 -19
s29.667 -26.5 42 -41.5s24.166 -28.667 35.499 -41s23.666 -18.5 36.999 -18.5c16 0 29.833 4 41.5 12s21.834 17.667 30.501 29s16.334 23.5 23.001 36.5s13.334 24.5 20.001 34.5v-118c-4 -12 -9 -23.833 -15 -35.5s-13.333 -22.334 -22 -32.001s-19 -17.5 -31 -23.5
s-26 -9 -42 -9c-14 0 -25.833 2.83301 -35.5 8.5s-18.5 12.667 -26.5 21s-15.667 17.5 -23 27.5s-15.166 19.167 -23.499 27.5s-17.833 15.333 -28.5 21s-23.334 8.5 -38.001 8.5c-17.333 0 -32.166 -4.33301 -44.499 -13s-23 -18.834 -32 -30.501
s-16.833 -23.667 -23.5 -36s-13.334 -21.833 -20.001 -28.5v120z" />
    <glyph glyph-name="Adieresis" unicode="&#xc4;" horiz-adv-x="1203" 
d="M764 1278l486 -1278h-261l-131 387h-499l-131 -387h-261l488 1278h309zM803 551l-195 575l-194 -575h389zM402 1502c0 23.333 7.5 42.833 22.5 58.5s34.167 23.5 57.5 23.5s42.666 -7.83301 57.999 -23.5s23 -35.167 23 -58.5c0 -22.667 -7.66699 -41.667 -23 -57
s-34.666 -23 -57.999 -23s-42.5 7.66699 -57.5 23s-22.5 34.333 -22.5 57zM654 1502c0 23.333 7.5 42.833 22.5 58.5s33.833 23.5 56.5 23.5c24 0 43.667 -7.83301 59 -23.5s23 -35.167 23 -58.5c0 -22.667 -7.66699 -41.667 -23 -57s-35 -23 -59 -23
c-22.667 0 -41.5 7.66699 -56.5 23s-22.5 34.333 -22.5 57z" />
    <glyph glyph-name="Aring" unicode="&#xc5;" horiz-adv-x="1209" 
d="M356 1471c0 34 6.5 66.167 19.5 96.5s30.833 56.833 53.5 79.5s49.167 40.667 79.5 54s62.5 20 96.5 20s66.167 -6.66699 96.5 -20s56.833 -31.333 79.5 -54s40.667 -49.167 54 -79.5s20 -62.5 20 -96.5c0 -40 -8.5 -76.5 -25.5 -109.5s-40.167 -60.833 -69.5 -83.5h-309
c-28.667 22.667 -51.667 50.5 -69 83.5s-26 69.5 -26 109.5zM456 1471c0 -20.667 4 -40.334 12 -59.001s18.667 -35.167 32 -49.5s29.166 -25.666 47.499 -33.999s37.5 -12.5 57.5 -12.5c20.667 0 40.167 4.16699 58.5 12.5s34.333 19.666 48 33.999
s24.334 30.833 32.001 49.5s11.5 38.334 11.5 59.001s-3.83301 40.167 -11.5 58.5s-18.334 34.333 -32.001 48s-29.667 24.334 -48 32.001s-37.833 11.5 -58.5 11.5c-20 0 -39.167 -3.83301 -57.5 -11.5s-34.166 -18.334 -47.499 -32.001s-24 -29.667 -32 -48
s-12 -37.833 -12 -58.5zM761 1278l486 -1278h-261l-131 387h-499l-131 -387h-261l488 1278h309zM800 551l-195 575l-194 -575h389z" />
    <glyph glyph-name="AE" unicode="&#xc6;" horiz-adv-x="1439" 
d="M599 1278h117v-178l-297 -615h297v-159h-353l-139 -326h-254zM715 0v1278h618v-182h-425v-322h360v-180h-360v-414h425v-180h-618z" />
    <glyph glyph-name="Ccedilla" unicode="&#xc7;" horiz-adv-x="1214" 
d="M611 154c78 0 137.5 22.6689 178.5 68.002s66.167 107.666 75.5 186.999h240c-8.66699 -73.333 -26 -136.833 -52 -190.5s-60 -98.167 -102 -133.5s-91.5 -61.666 -148.5 -78.999s-120.833 -26 -191.5 -26c-162.667 0 -287.334 44.667 -374.001 134
s-134 226.666 -142 411.999c-0.666992 20.667 -1.16699 39.167 -1.5 55.5s-0.5 32.666 -0.5 48.999s0.166992 34 0.5 53s0.833008 41.833 1.5 68.5c6 179.333 52.667 314.833 140 406.5s212.666 137.5 375.999 137.5c68 0 130 -8.66699 186 -26s104.5 -43.5 145.5 -78.5
s74.333 -78.667 100 -131s42.167 -113.5 49.5 -183.5h-233c-1.33301 30.667 -8.16602 60.667 -20.499 90s-29.166 55.5 -50.499 78.5s-47 41.5 -77 55.5s-63.333 21 -100 21c-92 0 -160.167 -28 -204.5 -84s-69.5 -136.333 -75.5 -241c-3.33301 -48 -4.83301 -99 -4.5 -153
s1.83301 -107 4.5 -159c4 -105.333 28.667 -186.833 74 -244.5s114 -86.5 206 -86.5zM625 -363.998v84h95c23.333 0 40 4.5 50 13.5s14.5 18.833 13.5 29.5s-6.66699 20.5 -17 29.5s-23.833 13.5 -40.5 13.5h-115c-25.333 0 -44 7.83301 -56 23.5s-17.5 33.667 -16.5 54
s8.33301 40.5 22 60.5s33.834 34 60.501 42c-18.667 -26.667 -25.334 -50 -20.001 -70s22.333 -30 51 -30h115c20.667 0 38.667 -6.16699 54 -18.5s26.833 -27.833 34.5 -46.5s11.167 -38.667 10.5 -60s-6.5 -41.333 -17.5 -60s-27.333 -34.167 -49 -46.5
s-49.5 -18.5 -83.5 -18.5h-91z" />
    <glyph glyph-name="Egrave" unicode="&#xc8;" horiz-adv-x="1028" 
d="M140 0v1278h774v-182h-532v-322h450v-180h-450v-414h532v-180h-774zM741 1399h-121l-297 162h215z" />
    <glyph glyph-name="Eacute" unicode="&#xc9;" horiz-adv-x="1065" 
d="M140 0v1278h774v-182h-532v-322h450v-180h-450v-414h532v-180h-774zM601 1561h215l-297 -162h-121z" />
    <glyph glyph-name="Ecircumflex" unicode="&#xca;" horiz-adv-x="1071" 
d="M140 0v1278h774v-182h-532v-322h450v-180h-450v-414h532v-180h-774zM539 1677l196 -273h-132l-98 162l-107 -162h-134l206 273h69z" />
    <glyph glyph-name="Edieresis" unicode="&#xcb;" horiz-adv-x="1058" 
d="M140 1278h774v-182h-532v-322h450v-180h-450v-414h532v-180h-774v1278zM358 1502c0 23.333 7.5 42.833 22.5 58.5s34.167 23.5 57.5 23.5s42.666 -7.83301 57.999 -23.5s23 -35.167 23 -58.5c0 -22.667 -7.66699 -41.667 -23 -57s-34.666 -23 -57.999 -23
s-42.5 7.66699 -57.5 23s-22.5 34.333 -22.5 57zM610 1502c0 23.333 7.5 42.833 22.5 58.5s33.833 23.5 56.5 23.5c24 0 43.667 -7.83301 59 -23.5s23 -35.167 23 -58.5c0 -22.667 -7.66699 -41.667 -23 -57s-35 -23 -59 -23c-22.667 0 -41.5 7.66699 -56.5 23
s-22.5 34.333 -22.5 57z" />
    <glyph glyph-name="Igrave" unicode="&#xcc;" horiz-adv-x="506" 
d="M134 0v1278h240v-1278h-240zM395 1399h-121l-297 162h215z" />
    <glyph glyph-name="Iacute" unicode="&#xcd;" horiz-adv-x="512" 
d="M134 0v1278h240v-1278h-240zM253 1561h215l-297 -162h-121z" />
    <glyph glyph-name="Icircumflex" unicode="&#xce;" horiz-adv-x="506" 
d="M134 0v1278h240v-1278h-240zM307 1677l196 -273h-132l-98 162l-107 -162h-134l206 273h69z" />
    <glyph glyph-name="Idieresis" unicode="&#xcf;" horiz-adv-x="512" 
d="M134 1278h240v-1278h-240v1278zM68 1502c0 23.333 7.5 42.833 22.5 58.5s34.167 23.5 57.5 23.5s42.666 -7.83301 57.999 -23.5s23 -35.167 23 -58.5c0 -22.667 -7.66699 -41.667 -23 -57s-34.666 -23 -57.999 -23s-42.5 7.66699 -57.5 23s-22.5 34.333 -22.5 57z
M320 1502c0 23.333 7.5 42.833 22.5 58.5s33.833 23.5 56.5 23.5c24 0 43.667 -7.83301 59 -23.5s23 -35.167 23 -58.5c0 -22.667 -7.66699 -41.667 -23 -57s-35 -23 -59 -23c-22.667 0 -41.5 7.66699 -56.5 23s-22.5 34.333 -22.5 57z" />
    <glyph glyph-name="Eth" unicode="&#xd0;" horiz-adv-x="1241" 
d="M11 732l211 -0.00195312v546h426c96.667 0 174.667 -15.833 234 -47.5s105 -75.667 137 -132s53.333 -123.666 64 -201.999s16 -164.166 16 -257.499c0 -94 -5.33301 -180 -16 -258s-32 -145.333 -64 -202s-77.667 -100.667 -137 -132s-137.333 -47 -234 -47h-426v566
h-211v166zM580 157.998c52.667 0 96.834 5.33301 132.501 16s64.834 25.834 87.501 45.501s39.667 43.667 51 72s19.333 60.333 24 96s7.16699 74.667 7.5 117s0.5 87.166 0.5 134.499s-0.166992 92 -0.5 134s-2.83301 80.833 -7.5 116.5s-12.667 67.667 -24 96
s-28.333 52.5 -51 72.5s-51.834 35.333 -87.501 46s-79.834 16 -132.501 16h-141v-388h170v-166h-170v-408h141z" />
    <glyph glyph-name="Ntilde" unicode="&#xd1;" horiz-adv-x="1308" 
d="M953 1278h221v-1278h-344l-465 1143v-1143h-223v1278h344l467 -1120v1120zM466 1517c7.33301 10 14.832 20.835 22.499 32.502s16 22.5 25 32.5s19.333 18.333 31 25s25.5 10 41.5 10c21.333 0 39.833 -6.33301 55.5 -19s29.667 -26.5 42 -41.5
s24.166 -28.667 35.499 -41s23.666 -18.5 36.999 -18.5c16 0 29.833 4 41.5 12s21.834 17.667 30.501 29s16.334 23.5 23.001 36.5s13.334 24.5 20.001 34.5v-118c-4 -12 -9 -23.833 -15 -35.5s-13.333 -22.334 -22 -32.001s-19 -17.5 -31 -23.5s-26 -9 -42 -9
c-14 0 -25.833 2.83301 -35.5 8.5s-18.5 12.667 -26.5 21s-15.667 17.5 -23 27.5s-15.166 19.167 -23.499 27.5s-17.833 15.333 -28.5 21s-23.334 8.5 -38.001 8.5c-17.333 0 -32.166 -4.33301 -44.499 -13s-23 -18.834 -32 -30.501s-16.833 -23.667 -23.5 -36
s-13.334 -21.833 -20.001 -28.5v120z" />
    <glyph glyph-name="Ograve" unicode="&#xd2;" horiz-adv-x="1216" 
d="M597 1296c163.333 0 288.666 -45.833 375.999 -137.5s134 -227.167 140 -406.5c0.666992 -26.667 1.33398 -49.5 2.00098 -68.5s1 -36.667 1 -53s-0.333008 -32.666 -1 -48.999s-1.33398 -34.833 -2.00098 -55.5c-7.33301 -185.333 -54.5 -322.333 -141.5 -411
s-211.833 -133 -374.5 -133c-163.333 0 -288.166 44.333 -374.499 133s-133.5 225.667 -141.5 411c-0.666992 20.667 -1.16699 39.167 -1.5 55.5s-0.5 32.666 -0.5 48.999s0.166992 34 0.5 53s0.833008 41.833 1.5 68.5c6 179.333 52.5 314.833 139.5 406.5
s212.5 137.5 376.5 137.5zM877 485c2 52 3.33105 105 3.99805 159s-0.666016 105 -3.99902 153c-6 104.667 -31 185 -75 241s-112.333 84 -205 84s-161.167 -28 -205.5 -84s-69.5 -136.333 -75.5 -241c-3.33301 -48 -4.66602 -99 -3.99902 -153s2 -107 4 -159
c4 -105.333 28.667 -186.833 74 -244.5s114.333 -86.5 207 -86.5s161.5 28.833 206.5 86.5s69.5 139.167 73.5 244.5zM822.998 1399h-121l-297 162h215z" />
    <glyph glyph-name="Oacute" unicode="&#xd3;" horiz-adv-x="1204" 
d="M599 1296c163.333 0 288.666 -45.833 375.999 -137.5s134 -227.167 140 -406.5c0.666992 -26.667 1.33398 -49.5 2.00098 -68.5s1 -36.667 1 -53s-0.333008 -32.666 -1 -48.999s-1.33398 -34.833 -2.00098 -55.5c-7.33301 -185.333 -54.5 -322.333 -141.5 -411
s-211.833 -133 -374.5 -133c-163.333 0 -288.166 44.333 -374.499 133s-133.5 225.667 -141.5 411c-0.666992 20.667 -1.16699 39.167 -1.5 55.5s-0.5 32.666 -0.5 48.999s0.166992 34 0.5 53s0.833008 41.833 1.5 68.5c6 179.333 52.5 314.833 139.5 406.5
s212.5 137.5 376.5 137.5zM879 485c2 52 3.33105 105 3.99805 159s-0.666016 105 -3.99902 153c-6 104.667 -31 185 -75 241s-112.333 84 -205 84s-161.167 -28 -205.5 -84s-69.5 -136.333 -75.5 -241c-3.33301 -48 -4.66602 -99 -3.99902 -153s2 -107 4 -159
c4 -105.333 28.667 -186.833 74 -244.5s114.333 -86.5 207 -86.5s161.5 28.833 206.5 86.5s69.5 139.167 73.5 244.5zM663.998 1561h215l-297 -162h-121z" />
    <glyph glyph-name="Ocircumflex" unicode="&#xd4;" horiz-adv-x="1204" 
d="M599 1296c163.333 0 288.666 -45.833 375.999 -137.5s134 -227.167 140 -406.5c0.666992 -26.667 1.33398 -49.5 2.00098 -68.5s1 -36.667 1 -53s-0.333008 -32.666 -1 -48.999s-1.33398 -34.833 -2.00098 -55.5c-7.33301 -185.333 -54.5 -322.333 -141.5 -411
s-211.833 -133 -374.5 -133c-163.333 0 -288.166 44.333 -374.499 133s-133.5 225.667 -141.5 411c-0.666992 20.667 -1.16699 39.167 -1.5 55.5s-0.5 32.666 -0.5 48.999s0.166992 34 0.5 53s0.833008 41.833 1.5 68.5c6 179.333 52.5 314.833 139.5 406.5
s212.5 137.5 376.5 137.5zM879 485c2 52 3.33105 105 3.99805 159s-0.666016 105 -3.99902 153c-6 104.667 -31 185 -75 241s-112.333 84 -205 84s-161.167 -28 -205.5 -84s-69.5 -136.333 -75.5 -241c-3.33301 -48 -4.66602 -99 -3.99902 -153s2 -107 4 -159
c4 -105.333 28.667 -186.833 74 -244.5s114.333 -86.5 207 -86.5s161.5 28.833 206.5 86.5s69.5 139.167 73.5 244.5zM636.998 1677l196 -273h-132l-98 162l-107 -162h-134l206 273h69z" />
    <glyph glyph-name="Otilde" unicode="&#xd5;" horiz-adv-x="1208" 
d="M599 1296c163.333 0 288.666 -45.833 375.999 -137.5s134 -227.167 140 -406.5c0.666992 -26.667 1.33398 -49.5 2.00098 -68.5s1 -36.667 1 -53s-0.333008 -32.666 -1 -48.999s-1.33398 -34.833 -2.00098 -55.5c-7.33301 -185.333 -54.5 -322.333 -141.5 -411
s-211.833 -133 -374.5 -133c-163.333 0 -288.166 44.333 -374.499 133s-133.5 225.667 -141.5 411c-0.666992 20.667 -1.16699 39.167 -1.5 55.5s-0.5 32.666 -0.5 48.999s0.166992 34 0.5 53s0.833008 41.833 1.5 68.5c6 179.333 52.5 314.833 139.5 406.5
s212.5 137.5 376.5 137.5zM879 485c2 52 3.33105 105 3.99805 159s-0.666016 105 -3.99902 153c-6 104.667 -31 185 -75 241s-112.333 84 -205 84s-161.167 -28 -205.5 -84s-69.5 -136.333 -75.5 -241c-3.33301 -48 -4.66602 -99 -3.99902 -153s2 -107 4 -159
c4 -105.333 28.667 -186.833 74 -244.5s114.333 -86.5 207 -86.5s161.5 28.833 206.5 86.5s69.5 139.167 73.5 244.5zM403.998 1517c7.33301 10 14.832 20.835 22.499 32.502s16 22.5 25 32.5s19.333 18.333 31 25s25.5 10 41.5 10c21.333 0 39.833 -6.33301 55.5 -19
s29.667 -26.5 42 -41.5s24.166 -28.667 35.499 -41s23.666 -18.5 36.999 -18.5c16 0 29.833 4 41.5 12s21.834 17.667 30.501 29s16.334 23.5 23.001 36.5s13.334 24.5 20.001 34.5v-118c-4 -12 -9 -23.833 -15 -35.5s-13.333 -22.334 -22 -32.001s-19 -17.5 -31 -23.5
s-26 -9 -42 -9c-14 0 -25.833 2.83301 -35.5 8.5s-18.5 12.667 -26.5 21s-15.667 17.5 -23 27.5s-15.166 19.167 -23.499 27.5s-17.833 15.333 -28.5 21s-23.334 8.5 -38.001 8.5c-17.333 0 -32.166 -4.33301 -44.499 -13s-23 -18.834 -32 -30.501
s-16.833 -23.667 -23.5 -36s-13.334 -21.833 -20.001 -28.5v120z" />
    <glyph glyph-name="Odieresis" unicode="&#xd6;" horiz-adv-x="1204" 
d="M599 1296c163.333 0 288.666 -45.833 375.999 -137.5s134 -227.167 140 -406.5c0.666992 -26.667 1.33398 -49.5 2.00098 -68.5s1 -36.667 1 -53s-0.333008 -32.666 -1 -48.999s-1.33398 -34.833 -2.00098 -55.5c-7.33301 -185.333 -54.5 -322.333 -141.5 -411
s-211.833 -133 -374.5 -133c-163.333 0 -288.166 44.333 -374.499 133s-133.5 225.667 -141.5 411c-0.666992 20.667 -1.16699 39.167 -1.5 55.5s-0.5 32.666 -0.5 48.999s0.166992 34 0.5 53s0.833008 41.833 1.5 68.5c6 179.333 52.5 314.833 139.5 406.5
s212.5 137.5 376.5 137.5zM879 485c2 52 3.33105 105 3.99805 159s-0.666016 105 -3.99902 153c-6 104.667 -31 185 -75 241s-112.333 84 -205 84s-161.167 -28 -205.5 -84s-69.5 -136.333 -75.5 -241c-3.33301 -48 -4.66602 -99 -3.99902 -153s2 -107 4 -159
c4 -105.333 28.667 -186.833 74 -244.5s114.333 -86.5 207 -86.5s161.5 28.833 206.5 86.5s69.5 139.167 73.5 244.5zM379.998 1502c0 23.333 7.5 42.833 22.5 58.5s34.167 23.5 57.5 23.5s42.666 -7.83301 57.999 -23.5s23 -35.167 23 -58.5
c0 -22.667 -7.66699 -41.667 -23 -57s-34.666 -23 -57.999 -23s-42.5 7.66699 -57.5 23s-22.5 34.333 -22.5 57zM631.998 1502c0 23.333 7.5 42.833 22.5 58.5s33.833 23.5 56.5 23.5c24 0 43.667 -7.83301 59 -23.5s23 -35.167 23 -58.5
c0 -22.667 -7.66699 -41.667 -23 -57s-35 -23 -59 -23c-22.667 0 -41.5 7.66699 -56.5 23s-22.5 34.333 -22.5 57z" />
    <glyph glyph-name="multiply" unicode="&#xd7;" horiz-adv-x="782" 
d="M204 835l188 -189l188 189l121 -121l-188 -189l188 -188l-121 -121l-188 188l-188 -188l-121 121l188 188l-188 189z" />
    <glyph glyph-name="Oslash" unicode="&#xd8;" horiz-adv-x="1138" 
d="M560 1296c40 0 77.499 -2.83301 112.499 -8.5s68.167 -14.167 99.5 -25.5l66 147l99 -45l-68 -151c64.667 -44 114.334 -104.333 149.001 -181s54 -170 58 -280c0.666992 -26.667 1.33398 -49.5 2.00098 -68.5s1 -36.667 1 -53s-0.333008 -32.666 -1 -48.999
s-1.33398 -34.833 -2.00098 -55.5c-7.33301 -185.333 -54.5 -322.333 -141.5 -411s-211.833 -133 -374.5 -133c-87.333 0 -163 12.333 -227 37l-74 -164l-98 47l76 169c-60 43.333 -106 102.5 -138 177.5s-50.333 167.5 -55 277.5
c-0.666992 20.667 -1.16699 39.167 -1.5 55.5s-0.5 32.666 -0.5 48.999s0.166992 34 0.5 53s0.833008 41.833 1.5 68.5c6 179.333 52.5 314.833 139.5 406.5s212.5 137.5 376.5 137.5zM839.999 485c2 52 3.33008 105.001 3.99707 159.001s-0.666016 105 -3.99902 153
c-3.33301 46 -9.66602 87.167 -18.999 123.5s-22.666 68.166 -39.999 95.499l-371 -825c39.333 -24.667 89.333 -37 150 -37c92.667 0 161.5 28.833 206.5 86.5s69.5 139.167 73.5 244.5zM278.996 485.001c1.33301 -42.667 6.16602 -81.5 14.499 -116.5
s20.166 -65.833 35.499 -92.5l367 817c-37.333 19.333 -82.666 29 -135.999 29c-92.667 0 -161.167 -28 -205.5 -84s-69.5 -136.333 -75.5 -241c-3.33301 -48 -4.66602 -99 -3.99902 -153s2 -107 4 -159z" />
    <glyph glyph-name="Ugrave" unicode="&#xd9;" horiz-adv-x="1144" 
d="M816 1278l248 0.000976562v-795c0 -82 -11.167 -153.833 -33.5 -215.5s-54.5 -112.834 -96.5 -153.501s-93.167 -71.167 -153.5 -91.5s-128.5 -30.5 -204.5 -30.5c-75.333 0 -143 10.167 -203 30.5s-111 50.833 -153 91.5s-74.333 91.834 -97 153.501
s-34 133.5 -34 215.5v795h248v-780c0 -50 4.33301 -95.333 13 -136s22.667 -75.334 42 -104.001s44 -50.834 74 -66.501s66.667 -23.5 110 -23.5c46 0 84.5 7.5 115.5 22.5s55.667 36.833 74 65.5s31.333 63.334 39 104.001s11.5 86.667 11.5 138v780zM733 1399h-121
l-297 162h215z" />
    <glyph glyph-name="Uacute" unicode="&#xda;" horiz-adv-x="1161" 
d="M816 1278l248 0.000976562v-795c0 -82 -11.167 -153.833 -33.5 -215.5s-54.5 -112.834 -96.5 -153.501s-93.167 -71.167 -153.5 -91.5s-128.5 -30.5 -204.5 -30.5c-75.333 0 -143 10.167 -203 30.5s-111 50.833 -153 91.5s-74.333 91.834 -97 153.501
s-34 133.5 -34 215.5v795h248v-780c0 -50 4.33301 -95.333 13 -136s22.667 -75.334 42 -104.001s44 -50.834 74 -66.501s66.667 -23.5 110 -23.5c46 0 84.5 7.5 115.5 22.5s55.667 36.833 74 65.5s31.333 63.334 39 104.001s11.5 86.667 11.5 138v780zM693 1561h215
l-297 -162h-121z" />
    <glyph glyph-name="Ucircumflex" unicode="&#xdb;" horiz-adv-x="1149" 
d="M816 1278l248 0.000976562v-795c0 -82 -11.167 -153.833 -33.5 -215.5s-54.5 -112.834 -96.5 -153.501s-93.167 -71.167 -153.5 -91.5s-128.5 -30.5 -204.5 -30.5c-75.333 0 -143 10.167 -203 30.5s-111 50.833 -153 91.5s-74.333 91.834 -97 153.501
s-34 133.5 -34 215.5v795h248v-780c0 -50 4.33301 -95.333 13 -136s22.667 -75.334 42 -104.001s44 -50.834 74 -66.501s66.667 -23.5 110 -23.5c46 0 84.5 7.5 115.5 22.5s55.667 36.833 74 65.5s31.333 63.334 39 104.001s11.5 86.667 11.5 138v780zM629 1677l196 -273
h-132l-98 162l-107 -162h-134l206 273h69z" />
    <glyph glyph-name="Udieresis" unicode="&#xdc;" horiz-adv-x="1144" 
d="M816 1278l248 0.000976562v-795c0 -82 -11.167 -153.833 -33.5 -215.5s-54.5 -112.834 -96.5 -153.501s-93.167 -71.167 -153.5 -91.5s-128.5 -30.5 -204.5 -30.5c-75.333 0 -143 10.167 -203 30.5s-111 50.833 -153 91.5s-74.333 91.834 -97 153.501
s-34 133.5 -34 215.5v795h248v-780c0 -50 4.33301 -95.333 13 -136s22.667 -75.334 42 -104.001s44 -50.834 74 -66.501s66.667 -23.5 110 -23.5c46 0 84.5 7.5 115.5 22.5s55.667 36.833 74 65.5s31.333 63.334 39 104.001s11.5 86.667 11.5 138v780zM378 1502
c0 23.333 7.5 42.833 22.5 58.5s34.167 23.5 57.5 23.5s42.666 -7.83301 57.999 -23.5s23 -35.167 23 -58.5c0 -22.667 -7.66699 -41.667 -23 -57s-34.666 -23 -57.999 -23s-42.5 7.66699 -57.5 23s-22.5 34.333 -22.5 57zM630 1502c0 23.333 7.5 42.833 22.5 58.5
s33.833 23.5 56.5 23.5c24 0 43.667 -7.83301 59 -23.5s23 -35.167 23 -58.5c0 -22.667 -7.66699 -41.667 -23 -57s-35 -23 -59 -23c-22.667 0 -41.5 7.66699 -56.5 23s-22.5 34.333 -22.5 57z" />
    <glyph glyph-name="Yacute" unicode="&#xdd;" horiz-adv-x="864" 
d="M437 678l258 600h244l-385 -754v-524h-236v524l-383 754h244zM519 1561h215l-297 -162h-121z" />
    <glyph glyph-name="Thorn" unicode="&#xde;" horiz-adv-x="1050" 
d="M124 1279h220v-291c53.333 22.667 117.666 34 192.999 34c130 0 229.333 -33.333 298 -100s105.334 -165 110.001 -295c0.666992 -19.333 1.33398 -39.833 2.00098 -61.5s1 -43.167 1 -64.5s-0.333008 -41.833 -1 -61.5s-1.33398 -37.167 -2.00098 -52.5
c-5.33301 -135.333 -42.5 -235.333 -111.5 -300s-167.833 -97 -296.5 -97c-74 0 -138.333 10.667 -193 32v-282h-220v1539zM719 364c0.666992 17.333 1.16602 39.166 1.49902 65.499s0.5 53.166 0.5 80.499s-0.166992 53.666 -0.5 78.999s-0.833008 46 -1.5 62
c-4 71.333 -20.167 126.166 -48.5 164.499s-72.833 57.5 -133.5 57.5c-60 0 -104 -19.167 -132 -57.5s-44.667 -93.166 -50 -164.499c-0.666992 -16 -1.16699 -36.667 -1.5 -62s-0.5 -51.666 -0.5 -78.999s0.166992 -54.166 0.5 -80.499s0.833008 -48.166 1.5 -65.499
c3.33301 -72 19.5 -127.5 48.5 -166.5s73.5 -58.5 133.5 -58.5c60.667 0 105.334 19.5 134.001 58.5s44.667 94.5 48 166.5z" />
    <glyph glyph-name="germandbls" unicode="&#xdf;" horiz-adv-x="1169" 
d="M351 0l-217.003 -0.00488281v915c0 62.667 11 116.834 33 162.501s52 83.334 90 113.001s83 51.667 135 66s108 21.5 168 21.5c49.333 0 97 -5.16699 143 -15.5s86.833 -27.666 122.5 -51.999s64.167 -56.666 85.5 -96.999s32 -90.5 32 -150.5c0 -36 -5 -65.5 -15 -88.5
s-22.5 -42 -37.5 -57s-31.333 -27.5 -49 -37.5s-34 -19.667 -49 -29s-27.5 -19.833 -37.5 -31.5s-15 -26.834 -15 -45.501c0 -17.333 8.16699 -32.666 24.5 -45.999s36.833 -26.5 61.5 -39.5l81 -42.5c29.333 -15.333 57 -33.666 83 -54.999s48.5 -47 67.5 -77
s30.5 -66.333 34.5 -109c6 -56.667 2 -104.5 -12 -143.5s-37.833 -70.5 -71.5 -94.5s-77.167 -41.167 -130.5 -51.5s-117 -15.5 -191 -15.5h-92v162h53c41.333 0 77 2.16699 107 6.5s54.167 12.166 72.5 23.499s30.666 27.333 36.999 48s6.5 47 0.5 79
c-4 23.333 -13.667 44 -29 62s-33.333 35 -54 51s-42.667 31.333 -66 46s-44.666 30.5 -63.999 47.5s-35.333 35.5 -48 55.5s-19 43.333 -19 70c-3.33301 22 -1.66602 41.333 5.00098 58s16.167 32.334 28.5 47.001s26 29 41 43s29.333 29.167 43 45.5s25 34.833 34 55.5
s13.5 45 13.5 73c0 22 -3.5 42 -10.5 60s-18.167 33.5 -33.5 46.5s-35.166 23.167 -59.499 30.5s-53.833 11.333 -88.5 12c-37.333 0.666992 -69.166 -4.5 -95.499 -15.5s-47.833 -28.333 -64.5 -52s-29 -53.667 -37 -90s-12 -79.833 -12 -130.5z" />
    <glyph glyph-name="agrave" unicode="&#xe0;" horiz-adv-x="1011" 
d="M349 -12c-52 0 -96.1719 6.66895 -132.505 20.002s-65.833 32 -88.5 56s-39 52.5 -49 85.5s-15 69.167 -15 108.5s5.16699 75.666 15.5 108.999s26.833 63.333 49.5 90s52 49.5 88 68.5s79.333 34.167 130 45.5c34 7.33301 67.333 14.166 100 20.499l91.5 17.5l76 14.5
c22.333 4.33301 40.5 8.16602 54.5 11.499c0 34 -4 60.333 -12 79s-19.667 32.334 -35 41.001s-34.333 13.667 -57 15s-49 2 -79 2c-12 0 -26.5 -0.333008 -43.5 -1s-35 -1.5 -54 -2.5s-38.667 -2.16699 -59 -3.5l-59.5 -4c-45.333 -3.33301 -92.666 -7 -141.999 -11l-8 165
c78 4 150 7.33301 216 10l84 4c28 1.33301 54 2.5 78 3.5s45.167 1.83301 63.5 2.5s31.5 1 39.5 1c64.667 0 116.334 -9 155.001 -27s68.334 -44 89.001 -78s34.334 -75.167 41.001 -123.5s10 -102.5 10 -162.5v-545h-225v121c-15.333 -23.333 -34 -43.5 -56 -60.5
s-46.833 -30.833 -74.5 -41.5s-57.667 -18.5 -90 -23.5s-66.166 -7.5 -101.499 -7.5zM444.995 446.002c-56.667 -16 -100.834 -39.3311 -132.501 -69.998s-47.5 -68 -47.5 -112c0 -22 5.16699 -40.667 15.5 -56s22.833 -27.833 37.5 -37.5s30.334 -16.667 47.001 -21
s31 -6.5 43 -6.5c42 0 79.333 7 112 21s60.167 32.5 82.5 55.5s39.333 49.667 51 80s17.5 61.5 17.5 93.5v111c-40 -8.66699 -80.167 -18.334 -120.5 -29.001s-75.5 -20.334 -105.5 -29.001zM654.995 1115h-121l-297 162h215z" />
    <glyph glyph-name="aacute" unicode="&#xe1;" horiz-adv-x="1001" 
d="M349 -12c-52 0 -96.1719 6.66895 -132.505 20.002s-65.833 32 -88.5 56s-39 52.5 -49 85.5s-15 69.167 -15 108.5s5.16699 75.666 15.5 108.999s26.833 63.333 49.5 90s52 49.5 88 68.5s79.333 34.167 130 45.5c34 7.33301 67.333 14.166 100 20.499l91.5 17.5l76 14.5
c22.333 4.33301 40.5 8.16602 54.5 11.499c0 34 -4 60.333 -12 79s-19.667 32.334 -35 41.001s-34.333 13.667 -57 15s-49 2 -79 2c-12 0 -26.5 -0.333008 -43.5 -1s-35 -1.5 -54 -2.5s-38.667 -2.16699 -59 -3.5l-59.5 -4c-45.333 -3.33301 -92.666 -7 -141.999 -11l-8 165
c78 4 150 7.33301 216 10l84 4c28 1.33301 54 2.5 78 3.5s45.167 1.83301 63.5 2.5s31.5 1 39.5 1c64.667 0 116.334 -9 155.001 -27s68.334 -44 89.001 -78s34.334 -75.167 41.001 -123.5s10 -102.5 10 -162.5v-545h-225v121c-15.333 -23.333 -34 -43.5 -56 -60.5
s-46.833 -30.833 -74.5 -41.5s-57.667 -18.5 -90 -23.5s-66.166 -7.5 -101.499 -7.5zM444.995 446.002c-56.667 -16 -100.834 -39.3311 -132.501 -69.998s-47.5 -68 -47.5 -112c0 -22 5.16699 -40.667 15.5 -56s22.833 -27.833 37.5 -37.5s30.334 -16.667 47.001 -21
s31 -6.5 43 -6.5c42 0 79.333 7 112 21s60.167 32.5 82.5 55.5s39.333 49.667 51 80s17.5 61.5 17.5 93.5v111c-40 -8.66699 -80.167 -18.334 -120.5 -29.001s-75.5 -20.334 -105.5 -29.001zM518.995 1262h215l-297 -162h-121z" />
    <glyph glyph-name="acircumflex" unicode="&#xe2;" horiz-adv-x="991" 
d="M349 -12c-52 0 -96.1719 6.66895 -132.505 20.002s-65.833 32 -88.5 56s-39 52.5 -49 85.5s-15 69.167 -15 108.5s5.16699 75.666 15.5 108.999s26.833 63.333 49.5 90s52 49.5 88 68.5s79.333 34.167 130 45.5c34 7.33301 67.333 14.166 100 20.499l91.5 17.5l76 14.5
c22.333 4.33301 40.5 8.16602 54.5 11.499c0 34 -4 60.333 -12 79s-19.667 32.334 -35 41.001s-34.333 13.667 -57 15s-49 2 -79 2c-12 0 -26.5 -0.333008 -43.5 -1s-35 -1.5 -54 -2.5s-38.667 -2.16699 -59 -3.5l-59.5 -4c-45.333 -3.33301 -92.666 -7 -141.999 -11l-8 165
c78 4 150 7.33301 216 10l84 4c28 1.33301 54 2.5 78 3.5s45.167 1.83301 63.5 2.5s31.5 1 39.5 1c64.667 0 116.334 -9 155.001 -27s68.334 -44 89.001 -78s34.334 -75.167 41.001 -123.5s10 -102.5 10 -162.5v-545h-225v121c-15.333 -23.333 -34 -43.5 -56 -60.5
s-46.833 -30.833 -74.5 -41.5s-57.667 -18.5 -90 -23.5s-66.166 -7.5 -101.499 -7.5zM444.995 446.002c-56.667 -16 -100.834 -39.3311 -132.501 -69.998s-47.5 -68 -47.5 -112c0 -22 5.16699 -40.667 15.5 -56s22.833 -27.833 37.5 -37.5s30.334 -16.667 47.001 -21
s31 -6.5 43 -6.5c42 0 79.333 7 112 21s60.167 32.5 82.5 55.5s39.333 49.667 51 80s17.5 61.5 17.5 93.5v111c-40 -8.66699 -80.167 -18.334 -120.5 -29.001s-75.5 -20.334 -105.5 -29.001zM536.995 1318l196 -273h-132l-98 162l-107 -162h-134l206 273h69z" />
    <glyph glyph-name="atilde" unicode="&#xe3;" horiz-adv-x="1001" 
d="M349 -12c-52 0 -96.1719 6.66895 -132.505 20.002s-65.833 32 -88.5 56s-39 52.5 -49 85.5s-15 69.167 -15 108.5s5.16699 75.666 15.5 108.999s26.833 63.333 49.5 90s52 49.5 88 68.5s79.333 34.167 130 45.5c34 7.33301 67.333 14.166 100 20.499l91.5 17.5l76 14.5
c22.333 4.33301 40.5 8.16602 54.5 11.499c0 34 -4 60.333 -12 79s-19.667 32.334 -35 41.001s-34.333 13.667 -57 15s-49 2 -79 2c-12 0 -26.5 -0.333008 -43.5 -1s-35 -1.5 -54 -2.5s-38.667 -2.16699 -59 -3.5l-59.5 -4c-45.333 -3.33301 -92.666 -7 -141.999 -11l-8 165
c78 4 150 7.33301 216 10l84 4c28 1.33301 54 2.5 78 3.5s45.167 1.83301 63.5 2.5s31.5 1 39.5 1c64.667 0 116.334 -9 155.001 -27s68.334 -44 89.001 -78s34.334 -75.167 41.001 -123.5s10 -102.5 10 -162.5v-545h-225v121c-15.333 -23.333 -34 -43.5 -56 -60.5
s-46.833 -30.833 -74.5 -41.5s-57.667 -18.5 -90 -23.5s-66.166 -7.5 -101.499 -7.5zM444.995 446.002c-56.667 -16 -100.834 -39.3311 -132.501 -69.998s-47.5 -68 -47.5 -112c0 -22 5.16699 -40.667 15.5 -56s22.833 -27.833 37.5 -37.5s30.334 -16.667 47.001 -21
s31 -6.5 43 -6.5c42 0 79.333 7 112 21s60.167 32.5 82.5 55.5s39.333 49.667 51 80s17.5 61.5 17.5 93.5v111c-40 -8.66699 -80.167 -18.334 -120.5 -29.001s-75.5 -20.334 -105.5 -29.001zM307.995 1204c7.33301 10 14.832 20.835 22.499 32.502s16 22.5 25 32.5
s19.333 18.333 31 25s25.5 10 41.5 10c21.333 0 39.833 -6.33301 55.5 -19s29.667 -26.5 42 -41.5s24.166 -28.667 35.499 -41s23.666 -18.5 36.999 -18.5c16 0 29.833 4 41.5 12s21.834 17.667 30.501 29s16.334 23.5 23.001 36.5s13.334 24.5 20.001 34.5v-118
c-4 -12 -9 -23.833 -15 -35.5s-13.333 -22.334 -22 -32.001s-19 -17.5 -31 -23.5s-26 -9 -42 -9c-13.333 0 -25 2.83301 -35 8.5s-19 12.667 -27 21s-15.667 17.5 -23 27.5s-15.166 19.167 -23.499 27.5s-17.833 15.333 -28.5 21s-23.334 8.5 -38.001 8.5
c-17.333 0 -32.166 -4.33301 -44.499 -13s-23 -18.834 -32 -30.501s-16.833 -23.667 -23.5 -36s-13.334 -21.833 -20.001 -28.5v120z" />
    <glyph glyph-name="adieresis" unicode="&#xe4;" horiz-adv-x="995" 
d="M349 -12c-52 0 -96.1719 6.66895 -132.505 20.002s-65.833 32 -88.5 56s-39 52.5 -49 85.5s-15 69.167 -15 108.5s5.16699 75.666 15.5 108.999s26.833 63.333 49.5 90s52 49.5 88 68.5s79.333 34.167 130 45.5c34 7.33301 67.333 14.166 100 20.499l91.5 17.5l76 14.5
c22.333 4.33301 40.5 8.16602 54.5 11.499c0 34 -4 60.333 -12 79s-19.667 32.334 -35 41.001s-34.333 13.667 -57 15s-49 2 -79 2c-12 0 -26.5 -0.333008 -43.5 -1s-35 -1.5 -54 -2.5s-38.667 -2.16699 -59 -3.5l-59.5 -4c-45.333 -3.33301 -92.666 -7 -141.999 -11l-8 165
c78 4 150 7.33301 216 10l84 4c28 1.33301 54 2.5 78 3.5s45.167 1.83301 63.5 2.5s31.5 1 39.5 1c64.667 0 116.334 -9 155.001 -27s68.334 -44 89.001 -78s34.334 -75.167 41.001 -123.5s10 -102.5 10 -162.5v-545h-225v121c-15.333 -23.333 -34 -43.5 -56 -60.5
s-46.833 -30.833 -74.5 -41.5s-57.667 -18.5 -90 -23.5s-66.166 -7.5 -101.499 -7.5zM444.995 446.002c-56.667 -16 -100.834 -39.3311 -132.501 -69.998s-47.5 -68 -47.5 -112c0 -22 5.16699 -40.667 15.5 -56s22.833 -27.833 37.5 -37.5s30.334 -16.667 47.001 -21
s31 -6.5 43 -6.5c42 0 79.333 7 112 21s60.167 32.5 82.5 55.5s39.333 49.667 51 80s17.5 61.5 17.5 93.5v111c-40 -8.66699 -80.167 -18.334 -120.5 -29.001s-75.5 -20.334 -105.5 -29.001zM275.995 1181c0 23.333 7.5 42.833 22.5 58.5s34.167 23.5 57.5 23.5
s42.666 -7.83301 57.999 -23.5s23 -35.167 23 -58.5c0 -22.667 -7.66699 -41.667 -23 -57s-34.666 -23 -57.999 -23s-42.5 7.66699 -57.5 23s-22.5 34.333 -22.5 57zM527.995 1181c0 23.333 7.5 42.833 22.5 58.5s33.833 23.5 56.5 23.5c24 0 43.667 -7.83301 59 -23.5
s23 -35.167 23 -58.5c0 -22.667 -7.66699 -41.667 -23 -57s-35 -23 -59 -23c-22.667 0 -41.5 7.66699 -56.5 23s-22.5 34.333 -22.5 57z" />
    <glyph glyph-name="aring" unicode="&#xe5;" horiz-adv-x="1005" 
d="M269 1259c0 30.667 6 59.834 18 87.501s28.167 51.834 48.5 72.501s44.333 37.167 72 49.5s57.167 18.5 88.5 18.5c30.667 0 59.834 -6.16699 87.501 -18.5s51.834 -28.833 72.501 -49.5s37 -44.834 49 -72.501s18 -56.834 18 -87.501c0 -31.333 -6 -60.666 -18 -87.999
s-28.333 -51.333 -49 -72s-44.834 -37 -72.501 -49s-56.834 -18 -87.501 -18c-31.333 0 -60.833 6 -88.5 18s-51.667 28.333 -72 49s-36.5 44.667 -48.5 72s-18 56.666 -18 87.999zM360 1259c0 -18.667 3.66699 -36.167 11 -52.5s17.166 -30.666 29.499 -42.999
s26.666 -22 42.999 -29s33.833 -10.5 52.5 -10.5s36.334 3.5 53.001 10.5s31.167 16.667 43.5 29s22 26.666 29 42.999s10.5 33.833 10.5 52.5c0 19.333 -3.5 37.333 -10.5 54s-16.667 31.167 -29 43.5s-26.833 22 -43.5 29s-34.334 10.5 -53.001 10.5
s-36.167 -3.5 -52.5 -10.5s-30.666 -16.667 -42.999 -29s-22.166 -26.833 -29.499 -43.5s-11 -34.667 -11 -54zM349 -12c-52 0 -96.1719 6.66895 -132.505 20.002s-65.833 32 -88.5 56s-39 52.5 -49 85.5s-15 69.167 -15 108.5s5.16699 75.666 15.5 108.999
s26.833 63.333 49.5 90s52 49.5 88 68.5s79.333 34.167 130 45.5c34 7.33301 67.333 14.166 100 20.499l91.5 17.5l76 14.5c22.333 4.33301 40.5 8.16602 54.5 11.499c0 34 -4 60.333 -12 79s-19.667 32.334 -35 41.001s-34.333 13.667 -57 15s-49 2 -79 2
c-12 0 -26.5 -0.333008 -43.5 -1s-35 -1.5 -54 -2.5s-38.667 -2.16699 -59 -3.5l-59.5 -4c-45.333 -3.33301 -92.666 -7 -141.999 -11l-8 165c78 4 150 7.33301 216 10l84 4c28 1.33301 54 2.5 78 3.5s45.167 1.83301 63.5 2.5s31.5 1 39.5 1
c64.667 0 116.334 -9 155.001 -27s68.334 -44 89.001 -78s34.334 -75.167 41.001 -123.5s10 -102.5 10 -162.5v-545h-225v121c-15.333 -23.333 -34 -43.5 -56 -60.5s-46.833 -30.833 -74.5 -41.5s-57.667 -18.5 -90 -23.5s-66.166 -7.5 -101.499 -7.5zM444.995 446.002
c-56.667 -16 -100.834 -39.3311 -132.501 -69.998s-47.5 -68 -47.5 -112c0 -22 5.16699 -40.667 15.5 -56s22.833 -27.833 37.5 -37.5s30.334 -16.667 47.001 -21s31 -6.5 43 -6.5c42 0 79.333 7 112 21s60.167 32.5 82.5 55.5s39.333 49.667 51 80s17.5 61.5 17.5 93.5v111
c-40 -8.66699 -80.167 -18.334 -120.5 -29.001s-75.5 -20.334 -105.5 -29.001z" />
    <glyph glyph-name="ae" unicode="&#xe6;" horiz-adv-x="1540" 
d="M1430 250c-5.33301 -45.333 -18.6699 -84.6689 -40.0029 -118.002s-48.666 -60.833 -81.999 -82.5s-71.333 -37.667 -114 -48s-87.667 -15.5 -135 -15.5c-34.667 0 -67.667 3.5 -99 10.5s-60.333 18 -87 33s-50.667 34 -72 57s-39.333 50.5 -54 82.5
c-24 -33.333 -49.5 -61.5 -76.5 -84.5s-56.5 -41.833 -88.5 -56.5s-67.167 -25.167 -105.5 -31.5s-81.166 -9.16602 -128.499 -8.49902c-49.333 0.666992 -90.833 7.66699 -124.5 21s-61.167 32 -82.5 56s-36.666 52.333 -45.999 85s-14 68.667 -14 108
s4.83301 75.666 14.5 108.999s25.167 63.333 46.5 90s48.833 49.5 82.5 68.5s74.5 34.167 122.5 45.5c32 7.33301 63.333 14.166 94 20.499l85.5 17.5l71 14.5c21 4.33301 38.167 8.16602 51.5 11.499c0 34 -3.66699 60.333 -11 79s-18.333 32.334 -33 41.001
s-32.667 13.667 -54 15s-46 2 -74 2c-11.333 0 -25 -0.333008 -41 -1s-33 -1.5 -51 -2.5s-36.5 -2.16699 -55.5 -3.5l-55.5 -4c-42.667 -3.33301 -87 -7 -133 -11l-8 165c74 4 141.667 7.33301 203 10l78.5 4c26.333 1.33301 50.833 2.5 73.5 3.5s42.5 1.83301 59.5 2.5
s29.5 1 37.5 1c24.667 0 46.834 -2.83301 66.501 -8.5s37.334 -13.334 53.001 -23.001s29.667 -20.667 42 -33s23.833 -25.166 34.5 -38.499c13.333 16 30 30.833 50 44.5s42.167 25.834 66.5 36.501s50.166 19 77.499 25s55.333 9 84 9c62 0 117.333 -9 166 -27
s89.667 -44.667 123 -80s58.833 -79 76.5 -131s26.5 -112 26.5 -180c0 -19.333 -0.166992 -36.166 -0.5 -50.499s-0.5 -27.333 -0.5 -39s-0.166992 -22.167 -0.5 -31.5s-0.5 -18.666 -0.5 -27.999h-573c0.666992 -38.667 5.33398 -73.667 14.001 -105s20.667 -58 36 -80
s34.166 -38.833 56.499 -50.5s47.833 -17.5 76.5 -17.5c42.667 0 75.667 11.167 99 33.5s37.666 51.833 42.999 88.5h229zM438.996 445.997c-53.333 -16 -94.832 -39.3311 -124.499 -69.998s-44.5 -68 -44.5 -112c0 -22 4.83301 -40.667 14.5 -56s21.5 -27.833 35.5 -37.5
s28.667 -16.667 44 -21s28.666 -6.5 39.999 -6.5c39.333 0 74.333 7 105 21s56.5 32.5 77.5 55.5s37 49.667 48 80s16.5 61.5 16.5 93.5v111c-38 -8.66699 -75.833 -18.334 -113.5 -29.001s-70.5 -20.334 -98.5 -29.001zM1059 805.999
c-34.667 0 -63.668 -7.49902 -87.001 -22.499s-42.166 -35.167 -56.499 -60.5s-24.666 -54.833 -30.999 -88.5s-9.83301 -68.834 -10.5 -105.501h360c0 32 -2 64 -6 96s-12.333 61 -25 87s-30.334 47.667 -53.001 65s-53 27 -91 29z" />
    <glyph glyph-name="ccedilla" unicode="&#xe7;" horiz-adv-x="975" 
d="M892 301c-6 -57.333 -18.0029 -106.002 -36.0029 -146.002s-43 -72.5 -75 -97.5s-71.667 -43.167 -119 -54.5s-104 -17 -170 -17c-127.333 0 -225.833 32.333 -295.5 97s-107.5 164.667 -113.5 300c-1.33301 15.333 -2.16602 28.833 -2.49902 40.5
s-0.5 23.334 -0.5 35.001s0.166992 24.5 0.5 38.5s1.16602 30.667 2.49902 50c2 64.667 12.5 121.5 31.5 170.5s45.833 90.167 80.5 123.5s77 58.5 127 75.5s106.667 25.5 170 25.5c62 0 116.333 -5.83301 163 -17.5s86.167 -30 118.5 -55s58.166 -56.667 77.499 -95
s33 -84.166 41 -137.499h-240c-6 52 -23.833 91 -53.5 117s-65.167 39 -106.5 39c-29.333 0 -54.166 -4.33301 -74.499 -13s-37.166 -21.834 -50.499 -39.501s-23.5 -39.667 -30.5 -66s-11.833 -57.166 -14.5 -92.499c-1.33301 -32 -2 -66.5 -2 -103.5
s0.666992 -72.833 2 -107.5c2 -36 6.33301 -68.5 13 -97.5s16.834 -53.833 30.501 -74.5s30.834 -36.5 51.501 -47.5s45.667 -16.5 75 -16.5c48.667 0 86.5 15.167 113.5 45.5s43.167 70.5 48.5 120.5h238zM363.997 -347.002v84h95c23.333 0 40 4.5 50 13.5
s14.5 18.833 13.5 29.5s-6.66699 20.5 -17 29.5s-23.833 13.5 -40.5 13.5h-115c-25.333 0 -44 7.83301 -56 23.5s-17.5 33.667 -16.5 54s8.33301 40.5 22 60.5s33.834 34 60.501 42c-18.667 -26.667 -25.334 -50 -20.001 -70s22.333 -30 51 -30h115
c20.667 0 38.667 -6.16699 54 -18.5s26.833 -27.833 34.5 -46.5s11.167 -38.667 10.5 -60s-6.5 -41.333 -17.5 -60s-27.333 -34.167 -49 -46.5s-49.5 -18.5 -83.5 -18.5h-91z" />
    <glyph glyph-name="egrave" unicode="&#xe8;" horiz-adv-x="991" 
d="M894 248c-5.33301 -45.333 -19.3369 -84.333 -42.0039 -117s-51.834 -59.834 -87.501 -81.501s-76.167 -37.667 -121.5 -48s-93.333 -15.5 -144 -15.5c-133.333 0 -234.5 32.333 -303.5 97s-107.833 164.667 -116.5 300c-1.33301 15.333 -2.16602 28.833 -2.49902 40.5
s-0.5 23.334 -0.5 35.001s0.166992 24.5 0.5 38.5s1.16602 30.667 2.49902 50c6.66699 130 44.834 228.333 114.501 295s171.5 100 305.5 100c66 0 124.833 -9 176.5 -27s95.334 -44.5 131.001 -79.5s62.834 -78.333 81.501 -130s28 -111.167 28 -178.5v-100.5
c0 -27.667 -0.666992 -43.5 -2 -47.5h-610c0.666992 -38.667 5.5 -73.5 14.5 -104.5s21.833 -57.5 38.5 -79.5s36.834 -38.833 60.501 -50.5s50.834 -17.5 81.501 -17.5c45.333 0 80.333 11.167 105 33.5s40 51.5 46 87.5h244zM498.996 801
c-37.333 0 -68.332 -7.5 -92.999 -22.5s-44.667 -35 -60 -60s-26.333 -54.167 -33 -87.5s-10.334 -68.333 -11.001 -105h383c0 31.333 -2.16699 62.833 -6.5 94.5s-13 60.5 -26 86.5s-31.833 47.667 -56.5 65s-57 27 -97 29zM660.997 1083h-121l-297 162h215z" />
    <glyph glyph-name="eacute" unicode="&#xe9;" horiz-adv-x="987" 
d="M894 248c-5.33301 -45.333 -19.3369 -84.333 -42.0039 -117s-51.834 -59.834 -87.501 -81.501s-76.167 -37.667 -121.5 -48s-93.333 -15.5 -144 -15.5c-133.333 0 -234.5 32.333 -303.5 97s-107.833 164.667 -116.5 300c-1.33301 15.333 -2.16602 28.833 -2.49902 40.5
s-0.5 23.334 -0.5 35.001s0.166992 24.5 0.5 38.5s1.16602 30.667 2.49902 50c6.66699 130 44.834 228.333 114.501 295s171.5 100 305.5 100c66 0 124.833 -9 176.5 -27s95.334 -44.5 131.001 -79.5s62.834 -78.333 81.501 -130s28 -111.167 28 -178.5v-100.5
c0 -27.667 -0.666992 -43.5 -2 -47.5h-610c0.666992 -38.667 5.5 -73.5 14.5 -104.5s21.833 -57.5 38.5 -79.5s36.834 -38.833 60.501 -50.5s50.834 -17.5 81.501 -17.5c45.333 0 80.333 11.167 105 33.5s40 51.5 46 87.5h244zM498.996 801
c-37.333 0 -68.332 -7.5 -92.999 -22.5s-44.667 -35 -60 -60s-26.333 -54.167 -33 -87.5s-10.334 -68.333 -11.001 -105h383c0 31.333 -2.16699 62.833 -6.5 94.5s-13 60.5 -26 86.5s-31.833 47.667 -56.5 65s-57 27 -97 29zM529.997 1251h215l-297 -162h-121z" />
    <glyph glyph-name="ecircumflex" unicode="&#xea;" horiz-adv-x="987" 
d="M894 248c-5.33301 -45.333 -19.3369 -84.333 -42.0039 -117s-51.834 -59.834 -87.501 -81.501s-76.167 -37.667 -121.5 -48s-93.333 -15.5 -144 -15.5c-133.333 0 -234.5 32.333 -303.5 97s-107.833 164.667 -116.5 300c-1.33301 15.333 -2.16602 28.833 -2.49902 40.5
s-0.5 23.334 -0.5 35.001s0.166992 24.5 0.5 38.5s1.16602 30.667 2.49902 50c6.66699 130 44.834 228.333 114.501 295s171.5 100 305.5 100c66 0 124.833 -9 176.5 -27s95.334 -44.5 131.001 -79.5s62.834 -78.333 81.501 -130s28 -111.167 28 -178.5v-100.5
c0 -27.667 -0.666992 -43.5 -2 -47.5h-610c0.666992 -38.667 5.5 -73.5 14.5 -104.5s21.833 -57.5 38.5 -79.5s36.834 -38.833 60.501 -50.5s50.834 -17.5 81.501 -17.5c45.333 0 80.333 11.167 105 33.5s40 51.5 46 87.5h244zM498.996 801
c-37.333 0 -68.332 -7.5 -92.999 -22.5s-44.667 -35 -60 -60s-26.333 -54.167 -33 -87.5s-10.334 -68.333 -11.001 -105h383c0 31.333 -2.16699 62.833 -6.5 94.5s-13 60.5 -26 86.5s-31.833 47.667 -56.5 65s-57 27 -97 29zM524.997 1329l196 -273h-132l-98 162l-107 -162
h-134l206 273h69z" />
    <glyph glyph-name="edieresis" unicode="&#xeb;" horiz-adv-x="987" 
d="M894 248c-5.33301 -45.333 -19.3369 -84.333 -42.0039 -117s-51.834 -59.834 -87.501 -81.501s-76.167 -37.667 -121.5 -48s-93.333 -15.5 -144 -15.5c-133.333 0 -234.5 32.333 -303.5 97s-107.833 164.667 -116.5 300c-1.33301 15.333 -2.16602 28.833 -2.49902 40.5
s-0.5 23.334 -0.5 35.001s0.166992 24.5 0.5 38.5s1.16602 30.667 2.49902 50c6.66699 130 44.834 228.333 114.501 295s171.5 100 305.5 100c66 0 124.833 -9 176.5 -27s95.334 -44.5 131.001 -79.5s62.834 -78.333 81.501 -130s28 -111.167 28 -178.5v-100.5
c0 -27.667 -0.666992 -43.5 -2 -47.5h-610c0.666992 -38.667 5.5 -73.5 14.5 -104.5s21.833 -57.5 38.5 -79.5s36.834 -38.833 60.501 -50.5s50.834 -17.5 81.501 -17.5c45.333 0 80.333 11.167 105 33.5s40 51.5 46 87.5h244zM498.996 801
c-37.333 0 -68.332 -7.5 -92.999 -22.5s-44.667 -35 -60 -60s-26.333 -54.167 -33 -87.5s-10.334 -68.333 -11.001 -105h383c0 31.333 -2.16699 62.833 -6.5 94.5s-13 60.5 -26 86.5s-31.833 47.667 -56.5 65s-57 27 -97 29zM281.997 1148c0 23.333 7.5 42.833 22.5 58.5
s34.167 23.5 57.5 23.5s42.666 -7.83301 57.999 -23.5s23 -35.167 23 -58.5c0 -22.667 -7.66699 -41.667 -23 -57s-34.666 -23 -57.999 -23s-42.5 7.66699 -57.5 23s-22.5 34.333 -22.5 57zM533.997 1148c0 23.333 7.5 42.833 22.5 58.5s33.833 23.5 56.5 23.5
c24 0 43.667 -7.83301 59 -23.5s23 -35.167 23 -58.5c0 -22.667 -7.66699 -41.667 -23 -57s-35 -23 -59 -23c-22.667 0 -41.5 7.66699 -56.5 23s-22.5 34.333 -22.5 57z" />
    <glyph glyph-name="igrave" unicode="&#xec;" horiz-adv-x="463" 
d="M388 1085h-121l-297 162h215zM114 0v934h240v-934h-240z" />
    <glyph glyph-name="iacute" unicode="&#xed;" horiz-adv-x="483" 
d="M234 1241h215l-297 -162h-121zM114 0v934h240v-934h-240z" />
    <glyph glyph-name="icircumflex" unicode="&#xee;" horiz-adv-x="467" 
d="M262 1330l196 -273h-132l-98 162l-107 -162h-134l206 273h69zM114 0v934h240v-934h-240z" />
    <glyph glyph-name="idieresis" unicode="&#xef;" horiz-adv-x="473" 
d="M32 1183c0 23.333 7.5 42.833 22.5 58.5s34.167 23.5 57.5 23.5s42.666 -7.83301 57.999 -23.5s23 -35.167 23 -58.5c0 -22.667 -7.66699 -41.667 -23 -57s-34.666 -23 -57.999 -23s-42.5 7.66699 -57.5 23s-22.5 34.333 -22.5 57zM284 1183
c0 23.333 7.5 42.833 22.5 58.5s33.833 23.5 56.5 23.5c24 0 43.667 -7.83301 59 -23.5s23 -35.167 23 -58.5c0 -22.667 -7.66699 -41.667 -23 -57s-35 -23 -59 -23c-22.667 0 -41.5 7.66699 -56.5 23s-22.5 34.333 -22.5 57zM114 934h240v-934h-240v934z" />
    <glyph glyph-name="eth" unicode="&#xf0;" horiz-adv-x="848" 
d="M546 894l48.4932 -80.998l46 -74l43 -72c13.667 -24 26.834 -49.333 39.501 -76c16 -34 28.333 -63.833 37 -89.5s14.834 -49.5 18.501 -71.5s5.33398 -43.333 5.00098 -64s-1.16602 -42.334 -2.49902 -65.001c-3.33301 -42.667 -14.333 -82.334 -33 -119.001
s-43.667 -68.667 -75 -96s-68.5 -48.833 -111.5 -64.5s-89.833 -23.5 -140.5 -23.5c-51.333 0 -98.833 8 -142.5 24s-81.5 38.833 -113.5 68.5s-57.167 65.167 -75.5 106.5s-27.5 87 -27.5 137c0 48.667 6.33301 92 19 130s29.834 70.667 51.501 98
s46.834 49.833 75.501 67.5s59.334 30.5 92.001 38.5c8.66699 2 20 3.5 34 4.5s28.833 1 44.5 0s31.667 -3.16699 48 -6.5s31.5 -8.33301 45.5 -15l-100 150l-130 -81l-42 62l124 84l-93 127l187 110l81 -144l123 76l40 -70zM424.993 528.002
c-20.667 0 -40 -4.33203 -58 -12.999s-33.833 -20.834 -47.5 -36.501s-24.5 -34.5 -32.5 -56.5s-12 -46 -12 -72c0 -29.333 3.83301 -55.5 11.5 -78.5s18 -42.667 31 -59s28.5 -28.833 46.5 -37.5s37.667 -13 59 -13c50 0 90.5 16.5 121.5 49.5s46.5 78.5 46.5 136.5
c0 28 -4.66699 53.167 -14 75.5s-21.833 41.333 -37.5 57s-33.5 27.5 -53.5 35.5s-40.333 12 -61 12z" />
    <glyph glyph-name="ntilde" unicode="&#xf1;" horiz-adv-x="1061" 
d="M750 532c0 39.333 -5.16797 74.5 -15.501 105.5s-24.833 57 -43.5 78s-41.334 37 -68.001 48s-56 16.5 -88 16.5c-64 0 -114 -21.5 -150 -64.5s-54 -104.167 -54 -183.5v-532h-228v928h228v-123c22.667 41.333 55.334 73.5 98.001 96.5s98 34.5 166 34.5
c69.333 0 127.833 -10 175.5 -30s86.334 -47.5 116.001 -82.5s51 -75.833 64 -122.5s19.5 -96.667 19.5 -150v-551h-220v532zM356.999 1173c7.33301 10 14.832 20.835 22.499 32.502s16 22.5 25 32.5s19.333 18.333 31 25s25.5 10 41.5 10
c21.333 0 39.833 -6.33301 55.5 -19s29.667 -26.5 42 -41.5s24.166 -28.667 35.499 -41s23.666 -18.5 36.999 -18.5c16 0 29.833 4 41.5 12s21.834 17.667 30.501 29s16.334 23.5 23.001 36.5s13.334 24.5 20.001 34.5v-118c-4 -12 -9 -23.833 -15 -35.5
s-13.333 -22.334 -22 -32.001s-19 -17.5 -31 -23.5s-26 -9 -42 -9c-14 0 -25.833 2.83301 -35.5 8.5s-18.5 12.667 -26.5 21s-15.667 17.5 -23 27.5s-15.166 19.167 -23.499 27.5s-17.833 15.333 -28.5 21s-23.334 8.5 -38.001 8.5c-17.333 0 -32.166 -4.33301 -44.499 -13
s-23 -18.834 -32 -30.501s-16.833 -23.667 -23.5 -36s-13.334 -21.833 -20.001 -28.5v120z" />
    <glyph glyph-name="ograve" unicode="&#xf2;" horiz-adv-x="970" 
d="M894 547c0.666992 -19.333 1.33301 -36 2 -50s1 -26.833 1 -38.5s-0.333008 -23.334 -1 -35.001s-1.33398 -25.167 -2.00098 -40.5c-5.33301 -135.333 -42.5 -235.333 -111.5 -300s-167.833 -97 -296.5 -97c-129.333 0 -228 32.333 -296 97s-105 164.667 -111 300
c-0.666992 15.333 -1.16699 28.833 -1.5 40.5s-0.5 23.334 -0.5 35.001s0.166992 24.5 0.5 38.5s0.833008 30.667 1.5 50c4 130 40.333 228.333 109 295s168 100 298 100s229.333 -33.333 298 -100s105.334 -165 110.001 -295zM667.999 360
c1.33301 35.333 2.16602 71.333 2.49902 108s-0.5 71 -2.5 103c-4 71.333 -20.167 126.166 -48.5 164.499s-72.833 57.5 -133.5 57.5c-60 0 -104 -19.167 -132 -57.5s-44.667 -93.166 -50 -164.499c-1.33301 -32 -2 -66.333 -2 -103s0.666992 -72.667 2 -108
c3.33301 -72 19.5 -127.5 48.5 -166.5s73.5 -58.5 133.5 -58.5c60.667 0 105.334 19.5 134.001 58.5s44.667 94.5 48 166.5zM639.999 1067h-121l-297 162h215z" />
    <glyph glyph-name="oacute" unicode="&#xf3;" horiz-adv-x="975" 
d="M894 547c0.666992 -19.333 1.33301 -36 2 -50s1 -26.833 1 -38.5s-0.333008 -23.334 -1 -35.001s-1.33398 -25.167 -2.00098 -40.5c-5.33301 -135.333 -42.5 -235.333 -111.5 -300s-167.833 -97 -296.5 -97c-129.333 0 -228 32.333 -296 97s-105 164.667 -111 300
c-0.666992 15.333 -1.16699 28.833 -1.5 40.5s-0.5 23.334 -0.5 35.001s0.166992 24.5 0.5 38.5s0.833008 30.667 1.5 50c4 130 40.333 228.333 109 295s168 100 298 100s229.333 -33.333 298 -100s105.334 -165 110.001 -295zM667.999 360
c1.33301 35.333 2.16602 71.333 2.49902 108s-0.5 71 -2.5 103c-4 71.333 -20.167 126.166 -48.5 164.499s-72.833 57.5 -133.5 57.5c-60 0 -104 -19.167 -132 -57.5s-44.667 -93.166 -50 -164.499c-1.33301 -32 -2 -66.333 -2 -103s0.666992 -72.667 2 -108
c3.33301 -72 19.5 -127.5 48.5 -166.5s73.5 -58.5 133.5 -58.5c60.667 0 105.334 19.5 134.001 58.5s44.667 94.5 48 166.5zM498.999 1209h215l-297 -162h-121z" />
    <glyph glyph-name="ocircumflex" unicode="&#xf4;" horiz-adv-x="970" 
d="M894 547c0.666992 -19.333 1.33301 -36 2 -50s1 -26.833 1 -38.5s-0.333008 -23.334 -1 -35.001s-1.33398 -25.167 -2.00098 -40.5c-5.33301 -135.333 -42.5 -235.333 -111.5 -300s-167.833 -97 -296.5 -97c-129.333 0 -228 32.333 -296 97s-105 164.667 -111 300
c-0.666992 15.333 -1.16699 28.833 -1.5 40.5s-0.5 23.334 -0.5 35.001s0.166992 24.5 0.5 38.5s0.833008 30.667 1.5 50c4 130 40.333 228.333 109 295s168 100 298 100s229.333 -33.333 298 -100s105.334 -165 110.001 -295zM667.999 360
c1.33301 35.333 2.16602 71.333 2.49902 108s-0.5 71 -2.5 103c-4 71.333 -20.167 126.166 -48.5 164.499s-72.833 57.5 -133.5 57.5c-60 0 -104 -19.167 -132 -57.5s-44.667 -93.166 -50 -164.499c-1.33301 -32 -2 -66.333 -2 -103s0.666992 -72.667 2 -108
c3.33301 -72 19.5 -127.5 48.5 -166.5s73.5 -58.5 133.5 -58.5c60.667 0 105.334 19.5 134.001 58.5s44.667 94.5 48 166.5zM517.999 1315l196 -273h-132l-98 162l-107 -162h-134l206 273h69z" />
    <glyph glyph-name="otilde" unicode="&#xf5;" horiz-adv-x="975" 
d="M894 547c0.666992 -19.333 1.33301 -36 2 -50s1 -26.833 1 -38.5s-0.333008 -23.334 -1 -35.001s-1.33398 -25.167 -2.00098 -40.5c-5.33301 -135.333 -42.5 -235.333 -111.5 -300s-167.833 -97 -296.5 -97c-129.333 0 -228 32.333 -296 97s-105 164.667 -111 300
c-0.666992 15.333 -1.16699 28.833 -1.5 40.5s-0.5 23.334 -0.5 35.001s0.166992 24.5 0.5 38.5s0.833008 30.667 1.5 50c4 130 40.333 228.333 109 295s168 100 298 100s229.333 -33.333 298 -100s105.334 -165 110.001 -295zM667.999 360
c1.33301 35.333 2.16602 71.333 2.49902 108s-0.5 71 -2.5 103c-4 71.333 -20.167 126.166 -48.5 164.499s-72.833 57.5 -133.5 57.5c-60 0 -104 -19.167 -132 -57.5s-44.667 -93.166 -50 -164.499c-1.33301 -32 -2 -66.333 -2 -103s0.666992 -72.667 2 -108
c3.33301 -72 19.5 -127.5 48.5 -166.5s73.5 -58.5 133.5 -58.5c60.667 0 105.334 19.5 134.001 58.5s44.667 94.5 48 166.5zM292.999 1171c7.33301 10 14.832 20.835 22.499 32.502s16 22.5 25 32.5s19.333 18.333 31 25s25.5 10 41.5 10c21.333 0 39.833 -6.33301 55.5 -19
s29.667 -26.5 42 -41.5s24.166 -28.667 35.499 -41s23.666 -18.5 36.999 -18.5c16 0 29.833 4 41.5 12s21.834 17.667 30.501 29s16.334 23.5 23.001 36.5s13.334 24.5 20.001 34.5v-118c-4 -12 -9 -23.833 -15 -35.5s-13.333 -22.334 -22 -32.001s-19 -17.5 -31 -23.5
s-26 -9 -42 -9c-13.333 0 -25 2.83301 -35 8.5s-19 12.667 -27 21s-15.667 17.5 -23 27.5s-15.166 19.167 -23.499 27.5s-17.833 15.333 -28.5 21s-23.334 8.5 -38.001 8.5c-17.333 0 -32.166 -4.33301 -44.499 -13s-23 -18.834 -32 -30.501s-16.833 -23.667 -23.5 -36
s-13.334 -21.833 -20.001 -28.5v120z" />
    <glyph glyph-name="odieresis" unicode="&#xf6;" horiz-adv-x="970" 
d="M894 547c0.666992 -19.333 1.33301 -36 2 -50s1 -26.833 1 -38.5s-0.333008 -23.334 -1 -35.001s-1.33398 -25.167 -2.00098 -40.5c-5.33301 -135.333 -42.5 -235.333 -111.5 -300s-167.833 -97 -296.5 -97c-129.333 0 -228 32.333 -296 97s-105 164.667 -111 300
c-0.666992 15.333 -1.16699 28.833 -1.5 40.5s-0.5 23.334 -0.5 35.001s0.166992 24.5 0.5 38.5s0.833008 30.667 1.5 50c4 130 40.333 228.333 109 295s168 100 298 100s229.333 -33.333 298 -100s105.334 -165 110.001 -295zM667.999 360
c1.33301 35.333 2.16602 71.333 2.49902 108s-0.5 71 -2.5 103c-4 71.333 -20.167 126.166 -48.5 164.499s-72.833 57.5 -133.5 57.5c-60 0 -104 -19.167 -132 -57.5s-44.667 -93.166 -50 -164.499c-1.33301 -32 -2 -66.333 -2 -103s0.666992 -72.667 2 -108
c3.33301 -72 19.5 -127.5 48.5 -166.5s73.5 -58.5 133.5 -58.5c60.667 0 105.334 19.5 134.001 58.5s44.667 94.5 48 166.5zM285.999 1163c0 23.333 7.5 42.833 22.5 58.5s34.167 23.5 57.5 23.5s42.666 -7.83301 57.999 -23.5s23 -35.167 23 -58.5
c0 -22.667 -7.66699 -41.667 -23 -57s-34.666 -23 -57.999 -23s-42.5 7.66699 -57.5 23s-22.5 34.333 -22.5 57zM537.999 1163c0 23.333 7.5 42.833 22.5 58.5s33.833 23.5 56.5 23.5c24 0 43.667 -7.83301 59 -23.5s23 -35.167 23 -58.5
c0 -22.667 -7.66699 -41.667 -23 -57s-35 -23 -59 -23c-22.667 0 -41.5 7.66699 -56.5 23s-22.5 34.333 -22.5 57z" />
    <glyph glyph-name="divide" unicode="&#xf7;" horiz-adv-x="709" 
d="M222 719v260h256v-260h-256zM224 0v260h256v-260h-256zM26 591h641v-194h-641v194z" />
    <glyph glyph-name="oslash" unicode="&#xf8;" horiz-adv-x="917" 
d="M861 547c0.666992 -19.333 1.33398 -36 2.00098 -50s1 -26.833 1 -38.5s-0.333008 -23.334 -1 -35.001s-1.33398 -25.167 -2.00098 -40.5c-5.33301 -135.333 -42.5 -235.333 -111.5 -300s-167.833 -97 -296.5 -97c-32 0 -61.667 1.83301 -89 5.5s-53 9.16699 -77 16.5
l-59 -133l-67 33l57 130c-108 60.667 -165.333 175.667 -172 345c-0.666992 15.333 -1.16699 28.833 -1.5 40.5s-0.5 23.334 -0.5 35.001s0.166992 24.5 0.5 38.5s0.833008 30.667 1.5 50c4 130 40.333 228.333 109 295s168 100 298 100c57.333 0 109 -7 155 -21l44 99
l68 -31l-42 -96c116 -60.667 177 -176 183 -346zM635 360c1.33301 35.333 2.16699 71.333 2.5 108s-0.5 71 -2.5 103c-2 30 -5.83301 57 -11.5 81s-13.834 45.333 -24.501 64l-245 -555c26.667 -17.333 59.667 -26 99 -26c60.667 0 105.334 19.5 134.001 58.5
s44.667 94.5 48 166.5zM271.001 360c2 -54.667 12 -100.001 30 -136.001l242 548c-25.333 14 -55.333 21 -90 21c-60 0 -104 -19.167 -132 -57.5s-44.667 -93.166 -50 -164.499c-1.33301 -32 -2 -66.333 -2 -103s0.666992 -72.667 2 -108z" />
    <glyph glyph-name="ugrave" unicode="&#xf9;" horiz-adv-x="1018" 
d="M679 113c-19.333 -38 -47.665 -67.667 -84.998 -89s-86.333 -32 -147 -32c-65.333 0 -119.333 10 -162 30s-76.834 47.5 -102.501 82.5s-43.667 75.833 -54 122.5s-15.5 96.667 -15.5 150v551h213v-533c0 -80 13.167 -139.833 39.5 -179.5s69.166 -59.5 128.499 -59.5
c30 0 56.5 6.16699 79.5 18.5s42.333 30 58 53s27.5 50.833 35.5 83.5s12 69 12 109v508h213v-928h-213v113zM653.001 1084h-121l-297 162h215z" />
    <glyph glyph-name="uacute" unicode="&#xfa;" horiz-adv-x="1028" 
d="M679 113c-19.333 -38 -47.665 -67.667 -84.998 -89s-86.333 -32 -147 -32c-65.333 0 -119.333 10 -162 30s-76.834 47.5 -102.501 82.5s-43.667 75.833 -54 122.5s-15.5 96.667 -15.5 150v551h213v-533c0 -80 13.167 -139.833 39.5 -179.5s69.166 -59.5 128.499 -59.5
c30 0 56.5 6.16699 79.5 18.5s42.333 30 58 53s27.5 50.833 35.5 83.5s12 69 12 109v508h213v-928h-213v113zM546.001 1244h215l-297 -162h-121z" />
    <glyph glyph-name="ucircumflex" unicode="&#xfb;" horiz-adv-x="1022" 
d="M679 113c-19.333 -38 -47.665 -67.667 -84.998 -89s-86.333 -32 -147 -32c-65.333 0 -119.333 10 -162 30s-76.834 47.5 -102.501 82.5s-43.667 75.833 -54 122.5s-15.5 96.667 -15.5 150v551h213v-533c0 -80 13.167 -139.833 39.5 -179.5s69.166 -59.5 128.499 -59.5
c30 0 56.5 6.16699 79.5 18.5s42.333 30 58 53s27.5 50.833 35.5 83.5s12 69 12 109v508h213v-928h-213v113zM550.001 1355l196 -273h-132l-98 162l-107 -162h-134l206 273h69z" />
    <glyph glyph-name="udieresis" unicode="&#xfc;" horiz-adv-x="1032" 
d="M679 113c-19.333 -38 -47.665 -67.667 -84.998 -89s-86.333 -32 -147 -32c-65.333 0 -119.333 10 -162 30s-76.834 47.5 -102.501 82.5s-43.667 75.833 -54 122.5s-15.5 96.667 -15.5 150v551h213v-533c0 -80 13.167 -139.833 39.5 -179.5s69.166 -59.5 128.499 -59.5
c30 0 56.5 6.16699 79.5 18.5s42.333 30 58 53s27.5 50.833 35.5 83.5s12 69 12 109v508h213v-928h-213v113zM305.001 1177c0 23.333 7.5 42.833 22.5 58.5s34.167 23.5 57.5 23.5s42.666 -7.83301 57.999 -23.5s23 -35.167 23 -58.5c0 -22.667 -7.66699 -41.667 -23 -57
s-34.666 -23 -57.999 -23s-42.5 7.66699 -57.5 23s-22.5 34.333 -22.5 57zM557.001 1177c0 23.333 7.5 42.833 22.5 58.5s33.833 23.5 56.5 23.5c24 0 43.667 -7.83301 59 -23.5s23 -35.167 23 -58.5c0 -22.667 -7.66699 -41.667 -23 -57s-35 -23 -59 -23
c-22.667 0 -41.5 7.66699 -56.5 23s-22.5 34.333 -22.5 57z" />
    <glyph glyph-name="yacute" unicode="&#xfd;" horiz-adv-x="757" 
d="M184 -260l133 387l-326 801h242l178 -525l135 525h236l-375 -1188h-223zM438 1232h215l-297 -162h-121z" />
    <glyph glyph-name="thorn" unicode="&#xfe;" horiz-adv-x="871" 
d="M126 1062h179.999v-263c21.333 18.667 46.166 32.667 74.499 42s57.5 14 87.5 14c106 0 185.667 -26.833 239 -80.5s82 -132.167 86 -235.5c2 -45.333 -2.66699 -88 -14 -128s-30.166 -74.833 -56.499 -104.5s-60.5 -53.167 -102.5 -70.5s-92.667 -26 -152 -26
c-30 0 -59.167 4.5 -87.5 13.5s-53.166 22.5 -74.499 40.5v-264h-180v1062zM459.999 329c33.333 0 60.166 6.5 80.499 19.5s35.833 30.167 46.5 51.5s17.5 45.333 20.5 72s3.5 54 1.5 82c-3.33301 56.667 -16.666 101 -39.999 133s-59.666 48 -108.999 48
c-48.667 0 -85.5 -16.667 -110.5 -50s-37.5 -82.333 -37.5 -147c0 -43.333 3.16699 -78.5 9.5 -105.5s15.666 -48.167 27.999 -63.5s27.833 -25.833 46.5 -31.5s40 -8.5 64 -8.5z" />
    <glyph glyph-name="ydieresis" unicode="&#xff;" horiz-adv-x="772" 
d="M298 127l-326 801h242l168 -588l145 588h236l-375 -1188h-223zM190 1161c0 23.333 7.5 42.833 22.5 58.5s34.167 23.5 57.5 23.5s42.666 -7.83301 57.999 -23.5s23 -35.167 23 -58.5c0 -22.667 -7.66699 -41.667 -23 -57s-34.666 -23 -57.999 -23s-42.5 7.66699 -57.5 23
s-22.5 34.333 -22.5 57zM442 1161c0 23.333 7.5 42.833 22.5 58.5s33.833 23.5 56.5 23.5c24 0 43.667 -7.83301 59 -23.5s23 -35.167 23 -58.5c0 -22.667 -7.66699 -41.667 -23 -57s-35 -23 -59 -23c-22.667 0 -41.5 7.66699 -56.5 23s-22.5 34.333 -22.5 57z" />
    <glyph glyph-name="OE" unicode="&#x152;" horiz-adv-x="1757" 
d="M595 1296c82 0 149.833 -15.666 203.5 -46.999s98.5 -76.333 134.5 -135v164h656v-182h-457v-322h387v-180h-387v-414h457v-180h-656v159c-35.333 -58 -80 -102 -134 -132s-122 -45 -204 -45c-151.333 0 -267.166 44.333 -347.499 133s-124.166 225.667 -131.499 411
c-0.666992 20.667 -1.16699 39.167 -1.5 55.5s-0.5 32.666 -0.5 48.999s0.166992 34 0.5 53s0.833008 41.833 1.5 68.5c5.33301 178 48.666 313.167 129.999 405.5s197.666 138.5 348.999 138.5zM866 485.001c1.33301 52 2.33301 105 3 159s-0.333008 105 -3 153
c-6 104.667 -31 185 -75 241s-109.333 84 -196 84c-85.333 0 -148.666 -28 -189.999 -84s-65 -136.333 -71 -241c-2.66699 -48 -3.66699 -99 -3 -153s1.66699 -107 3 -159c4 -105.333 27.167 -186.833 69.5 -244.5s106.166 -86.5 191.499 -86.5
c86.667 0 152.5 28.833 197.5 86.5s69.5 139.167 73.5 244.5z" />
    <glyph glyph-name="oe" unicode="&#x153;" horiz-adv-x="1546" 
d="M1475 248c-5.33301 -45.333 -18.833 -84.333 -40.5 -117s-49.5 -59.834 -83.5 -81.501s-72.833 -37.667 -116.5 -48s-89.834 -15.5 -138.501 -15.5c-34 0 -66.167 4.5 -96.5 13.5s-58.333 21.5 -84 37.5s-48.834 34.833 -69.501 56.5s-38 45.5 -52 71.5
c-14.667 -26 -32.667 -49.833 -54 -71.5s-45.166 -40.5 -71.499 -56.5s-54.833 -28.5 -85.5 -37.5s-63 -13.5 -97 -13.5c-129.333 0 -228 32.333 -296 97s-105 164.667 -111 300c-0.666992 15.333 -1.16699 28.833 -1.5 40.5s-0.5 23.334 -0.5 35.001
s0.166992 24.5 0.5 38.5s0.833008 30.667 1.5 50c4 130 40.333 228.333 109 295s168 100 298 100c34 0 66.333 -4.66699 97 -14s59 -22 85 -38s49.667 -35.167 71 -57.5s39.333 -46.5 54 -72.5c14.667 26 32.334 50.167 53.001 72.5s44 41.5 70 57.5s54.167 28.667 84.5 38
s62.166 14 95.499 14c126.667 0 224.834 -35.167 294.501 -105.5s104.5 -176.833 104.5 -319.5l-1 -138h-587c0.666992 -38.667 5.5 -73.5 14.5 -104.5s21.5 -57.5 37.5 -79.5s35.5 -38.833 58.5 -50.5s49.167 -17.5 78.5 -17.5c44 0 77.833 11.167 101.5 33.5
s38.167 51.5 43.5 87.5h234zM671 360c2 35.333 3.00098 71.333 3.00098 108s-1 71 -3 103c-4 71.333 -20.667 126.166 -50 164.499s-74.333 57.5 -135 57.5c-60 0 -104.333 -19.167 -133 -57.5s-45 -93.166 -49 -164.499c-2 -32 -2.83301 -66.333 -2.5 -103
s1.16602 -72.667 2.49902 -108c3.33301 -72 19.5 -127.5 48.5 -166.5s73.5 -58.5 133.5 -58.5c60.667 0 105.5 19.5 134.5 58.5s45.833 94.5 50.5 166.5zM1096 801c-35.333 0 -64.9971 -7.5 -88.9971 -22.5s-43.5 -35 -58.5 -60s-25.833 -54.167 -32.5 -87.5
s-10.334 -68.333 -11.001 -105h370c0 31.333 -2 62.833 -6 94.5s-12.333 60.5 -25 86.5s-30.834 47.667 -54.501 65s-54.834 27 -93.501 29z" />
    <glyph glyph-name="Scaron" unicode="&#x160;" horiz-adv-x="1046" 
d="M448 1385l-234 236h176l133 -174l129 174h176l-231 -236h-149zM504 1296c74 0 138.833 -8.83105 194.5 -26.498s101.834 -43.167 138.501 -76.5s63.834 -73.666 81.501 -120.999s25.834 -100.333 24.501 -159h-226c0 30 -4.5 59 -13.5 87s-22.167 52.5 -39.5 73.5
s-39.333 37.833 -66 50.5s-57.334 19 -92.001 19c-25.333 0 -49.5 -3.83301 -72.5 -11.5s-43 -18.5 -60 -32.5s-30.5 -30.5 -40.5 -49.5s-15 -39.833 -15 -62.5s3.5 -43.167 10.5 -61.5s19 -36.166 36 -53.499s40 -34.833 69 -52.5s65.5 -36.834 109.5 -57.501
c68 -31.333 126.5 -61.666 175.5 -90.999s89.333 -61 121 -95s55 -71.833 70 -113.5s22.5 -90.167 22.5 -145.5c0 -51.333 -11 -97.333 -33 -138s-52.5 -75.5 -91.5 -104.5s-85.333 -51.167 -139 -66.5s-112.5 -23 -176.5 -23c-52 0 -102.333 5.66699 -151 17
s-92.167 31.166 -130.5 59.499s-69.5 66.666 -93.5 114.999s-37 109.5 -39 183.5h226c0 -38 5.33301 -70.167 16 -96.5s24.834 -48 42.501 -65s37.834 -29.333 60.501 -37s45.667 -11.5 69 -11.5c66 0 116.667 15.833 152 47.5s53 76.5 53 134.5
c0 30.667 -5.5 57.667 -16.5 81s-26.5 44.166 -46.5 62.499s-43.833 35.166 -71.5 50.499s-57.834 30.333 -90.501 45c-61.333 28.667 -115.833 57 -163.5 85s-87.834 58.167 -120.501 90.5s-57.667 67.666 -75 105.999s-26 82.5 -26 132.5c0 44.667 9.66699 86 29 124
s47.166 70.833 83.499 98.5s80.166 49.334 131.499 65.001s109 23.5 173 23.5z" />
    <glyph glyph-name="scaron" unicode="&#x161;" horiz-adv-x="788" 
d="M332 1041l-233 235h176l133 -174l129 174h176l-231 -235h-150zM410 131c35.333 0 63.1768 7.16699 83.5098 21.5s32.166 37.833 35.499 70.5c1.33301 16.667 -0.333984 32.334 -5.00098 47.001s-13.334 28.834 -26.001 42.501s-29.834 27.167 -51.501 40.5
s-48.834 27.333 -81.501 42c-40.667 18 -80.334 36.667 -119.001 56s-72.334 41.5 -101.001 66.5s-50.5 53.833 -65.5 86.5s-19.5 71.667 -13.5 117c4 32.667 14.167 62.667 30.5 90s38.666 50.833 66.999 70.5s62.5 35 102.5 46s86 16.5 138 16.5s100 -5.5 144 -16.5
s82 -27.5 114 -49.5s56.667 -50 74 -84s25.666 -74 24.999 -120h-217c0 18 -2.16699 34.5 -6.5 49.5s-11.5 28 -21.5 39s-23.167 19.5 -39.5 25.5s-36.833 9 -61.5 9c-42 0 -72.667 -8.5 -92 -25.5s-29 -43.5 -29 -79.5c0 -18.667 4 -34.334 12 -47.001
s19.833 -24.5 35.5 -35.5s34.834 -21.667 57.501 -32l79 -36.5c34 -16.667 67.667 -34.5 101 -53.5s63 -40.5 89 -64.5s47 -51.167 63 -81.5s24 -65.5 24 -105.5c0 -37.333 -7.5 -71.5 -22.5 -102.5s-37.5 -57.5 -67.5 -79.5s-67.5 -39.167 -112.5 -51.5
s-97.167 -18.5 -156.5 -18.5c-54 0 -101.5 7 -142.5 21s-75.667 33.5 -104 58.5s-50.5 55 -66.5 90s-25.667 73.167 -29 114.5h232c0.666992 -22.667 4.66699 -42.5 12 -59.5s16.666 -31.333 27.999 -43s24.166 -20.334 38.499 -26.001s29.5 -8.5 45.5 -8.5z" />
    <glyph glyph-name="Ydieresis" unicode="&#x178;" horiz-adv-x="923" 
d="M730 1278h244l-385 -754v-524h-236v524l-383 754h244l258 -600zM269 1502c0 23.333 7.5 42.833 22.5 58.5s34.167 23.5 57.5 23.5s42.666 -7.83301 57.999 -23.5s23 -35.167 23 -58.5c0 -22.667 -7.66699 -41.667 -23 -57s-34.666 -23 -57.999 -23
s-42.5 7.66699 -57.5 23s-22.5 34.333 -22.5 57zM521 1502c0 23.333 7.5 42.833 22.5 58.5s33.833 23.5 56.5 23.5c24 0 43.667 -7.83301 59 -23.5s23 -35.167 23 -58.5c0 -22.667 -7.66699 -41.667 -23 -57s-35 -23 -59 -23c-22.667 0 -41.5 7.66699 -56.5 23
s-22.5 34.333 -22.5 57z" />
    <glyph glyph-name="Zcaron" unicode="&#x17d;" horiz-adv-x="868" 
d="M322 1391l-233 235h176l133 -174l129 174h176l-231 -235h-150zM851 1278l-510 -1100h485v-178h-803l510 1104h-485v174h803z" />
    <glyph glyph-name="zcaron" unicode="&#x17e;" horiz-adv-x="688" 
d="M322 1041l-233 235h176l133 -174l129 174h176l-231 -235h-150zM662 0h-657l362 758h-337v170h657l-363 -751h338v-177z" />
    <glyph glyph-name="florin" unicode="&#x192;" horiz-adv-x="641" 
d="M157 711l-143.999 0.00195312v159h144v144c0 54.667 7.16699 99.167 21.5 133.5s32.833 61.166 55.5 80.499s47.667 32.5 75 39.5s53.666 10.5 78.999 10.5h209v-154h-139c-28 0 -51.833 -11.167 -71.5 -33.5s-29.5 -58.166 -29.5 -107.499v-113h193v-159h-195v-793
c0 -54 -4.66699 -99.333 -14 -136s-23.333 -66.167 -42 -88.5s-41.834 -38.333 -69.501 -48s-59.5 -14.5 -95.5 -14.5h-135v158h69c20.667 0 36.834 4 48.501 12s20.5 19.167 26.5 33.5s9.83301 31.666 11.5 51.999s2.5 43.166 2.5 68.499v756z" />
    <glyph glyph-name="circumflex" unicode="&#x2c6;" horiz-adv-x="640" 
d="M363 1446l196 -273h-132l-98 162l-107 -162h-134l206 273h69z" />
    <glyph glyph-name="tilde" unicode="&#x2dc;" horiz-adv-x="563" 
d="M77 1286c7.33301 10 14.832 20.835 22.499 32.502s16 22.5 25 32.5s19.333 18.333 31 25s25.5 10 41.5 10c21.333 0 39.833 -6.33301 55.5 -19s29.667 -26.5 42 -41.5s24.166 -28.667 35.499 -41s23.666 -18.5 36.999 -18.5c16 0 29.833 4 41.5 12
s21.834 17.667 30.501 29s16.334 23.5 23.001 36.5s13.334 24.5 20.001 34.5v-118c-4 -12 -9 -23.833 -15 -35.5s-13.333 -22.334 -22 -32.001s-19 -17.5 -31 -23.5s-26 -9 -42 -9c-13.333 0 -25 2.83301 -35 8.5s-19 12.667 -27 21s-15.667 17.5 -23 27.5
s-15.166 19.167 -23.499 27.5s-17.833 15.333 -28.5 21s-23.334 8.5 -38.001 8.5c-17.333 0 -32.166 -4.33301 -44.499 -13s-23 -18.834 -32 -30.501s-16.833 -23.667 -23.5 -36s-13.334 -21.833 -20.001 -28.5v120z" />
    <glyph glyph-name="sheva" unicode="&#x5b0;" 
d="M-77 -206c0 21.333 7.5 39.5 22.5 54.5s33.167 22.5 54.5 22.5s39.666 -7.5 54.999 -22.5s23 -33.167 23 -54.5s-7.66699 -39.666 -23 -54.999s-33.666 -23 -54.999 -23s-39.5 7.66699 -54.5 23s-22.5 33.666 -22.5 54.999zM-77 -446c0 21.333 7.5 39.5 22.5 54.5
s33.167 22.5 54.5 22.5s39.666 -7.5 54.999 -22.5s23 -33.167 23 -54.5s-7.66699 -39.666 -23 -54.999s-33.666 -23 -54.999 -23s-39.5 7.66699 -54.5 23s-22.5 33.666 -22.5 54.999z" />
    <glyph glyph-name="hatafsegol" unicode="&#x5b1;" 
d="M243 -206c0 21.333 7.5 39.5 22.5 54.5s33.167 22.5 54.5 22.5s39.666 -7.5 54.999 -22.5s23 -33.167 23 -54.5s-7.66699 -39.666 -23 -54.999s-33.666 -23 -54.999 -23s-39.5 7.66699 -54.5 23s-22.5 33.666 -22.5 54.999zM243 -446c0 21.333 7.5 39.5 22.5 54.5
s33.167 22.5 54.5 22.5s39.666 -7.5 54.999 -22.5s23 -33.167 23 -54.5s-7.66699 -39.666 -23 -54.999s-33.666 -23 -54.999 -23s-39.5 7.66699 -54.5 23s-22.5 33.666 -22.5 54.999zM-37 -206c0 21.333 7.5 39.5 22.5 54.5s33.167 22.5 54.5 22.5s39.666 -7.5 54.999 -22.5
s23 -33.167 23 -54.5s-7.66699 -39.666 -23 -54.999s-33.666 -23 -54.999 -23s-39.5 7.66699 -54.5 23s-22.5 33.666 -22.5 54.999zM-307 -206c0 21.333 7.5 39.5 22.5 54.5s33.167 22.5 54.5 22.5s39.666 -7.5 54.999 -22.5s23 -33.167 23 -54.5
s-7.66699 -39.666 -23 -54.999s-33.666 -23 -54.999 -23s-39.5 7.66699 -54.5 23s-22.5 33.666 -22.5 54.999zM-171 -410c0 21.333 7.5 39.5 22.5 54.5s33.167 22.5 54.5 22.5s39.666 -7.5 54.999 -22.5s23 -33.167 23 -54.5s-7.66699 -39.666 -23 -54.999
s-33.666 -23 -54.999 -23s-39.5 7.66699 -54.5 23s-22.5 33.666 -22.5 54.999z" />
    <glyph glyph-name="hatafpatah" unicode="&#x5b2;" 
d="M243 -206c0 21.333 7.5 39.5 22.5 54.5s33.167 22.5 54.5 22.5s39.666 -7.5 54.999 -22.5s23 -33.167 23 -54.5s-7.66699 -39.666 -23 -54.999s-33.666 -23 -54.999 -23s-39.5 7.66699 -54.5 23s-22.5 33.666 -22.5 54.999zM243 -446c0 21.333 7.5 39.5 22.5 54.5
s33.167 22.5 54.5 22.5s39.666 -7.5 54.999 -22.5s23 -33.167 23 -54.5s-7.66699 -39.666 -23 -54.999s-33.666 -23 -54.999 -23s-39.5 7.66699 -54.5 23s-22.5 33.666 -22.5 54.999zM-302 -251v102h424v-102h-424z" />
    <glyph glyph-name="hatafqamats" unicode="&#x5b3;" 
d="M243 -206c0 21.333 7.5 39.5 22.5 54.5s33.167 22.5 54.5 22.5s39.666 -7.5 54.999 -22.5s23 -33.167 23 -54.5s-7.66699 -39.666 -23 -54.999s-33.666 -23 -54.999 -23s-39.5 7.66699 -54.5 23s-22.5 33.666 -22.5 54.999zM243 -446c0 21.333 7.5 39.5 22.5 54.5
s33.167 22.5 54.5 22.5s39.666 -7.5 54.999 -22.5s23 -33.167 23 -54.5s-7.66699 -39.666 -23 -54.999s-33.666 -23 -54.999 -23s-39.5 7.66699 -54.5 23s-22.5 33.666 -22.5 54.999zM-146 -439v188h-156v102h424v-102h-154v-188h-114z" />
    <glyph glyph-name="hiriq" unicode="&#x5b4;" 
d="M1 -140c12.667 0 24.834 -2.49805 36.501 -7.49805s21.834 -11.667 30.501 -20s15.5 -18.333 20.5 -30s7.5 -24.167 7.5 -37.5c0 -14 -2.5 -26.667 -7.5 -38s-11.833 -21.333 -20.5 -30s-18.834 -15.334 -30.501 -20.001s-23.834 -7 -36.501 -7
c-28 0 -51.167 8.83301 -69.5 26.5s-27.5 40.5 -27.5 68.5c0 11.333 2 22.666 6 33.999s10.167 21.5 18.5 30.5s18.5 16.333 30.5 22s26 8.5 42 8.5z" />
    <glyph glyph-name="tsere" unicode="&#x5b5;" 
d="M-130 -141c18.667 0 37.665 -7.00195 56.998 -21.002c18 -15.333 27 -36.333 27 -63c0 -23.333 -8.16699 -43.166 -24.5 -59.499s-36.166 -24.5 -59.499 -24.5c-26 0 -46.5 7.83301 -61.5 23.5s-22.5 35.834 -22.5 60.501c0 24 7.83301 44 23.5 60s35.834 24 60.501 24z
M129.998 -141.002c14 0 26.167 -2.49707 36.5 -7.49707s19 -11.5 26 -19.5s12.333 -17 16 -27s5.5 -20 5.5 -30c0 -24.667 -7.66699 -44.834 -23 -60.501s-35.666 -23.5 -60.999 -23.5c-9.33301 0 -19 1.83301 -29 5.5s-19 9.16699 -27 16.5s-14.667 16.166 -20 26.499
s-8 22.166 -8 35.499c0 10.667 2 21 6 31s9.66699 19 17 27s16.166 14.333 26.499 19s21.833 7 34.5 7z" />
    <glyph glyph-name="segol" unicode="&#x5b6;" 
d="M-130 -140c18.667 0 37.665 -7.00293 56.998 -21.0029c18 -15.333 27 -36.333 27 -63c0 -23.333 -8.16699 -43.166 -24.5 -59.499s-36.166 -24.5 -59.499 -24.5c-26 0 -46.5 7.83301 -61.5 23.5s-22.5 35.834 -22.5 60.501s7.83301 44.834 23.5 60.501
s35.834 23.5 60.501 23.5zM129.998 -140.003c14 0 26.167 -2.49707 36.5 -7.49707s19 -11.5 26 -19.5s12.333 -17 16 -27s5.5 -20 5.5 -30c0 -24.667 -7.66699 -44.834 -23 -60.501s-35.666 -23.5 -60.999 -23.5c-9.33301 0 -19 1.83301 -29 5.5s-19 9.16699 -27 16.5
s-14.667 16.166 -20 26.499s-8 22.166 -8 35.499c0 10.667 2 21 6 31s9.66699 19 17 27s16.166 14.333 26.499 19s21.833 7 34.5 7zM0.998047 -351c23.333 0 43.166 -8.16602 59.499 -24.499s24.5 -36.166 24.5 -59.499c0 -12 -2.16699 -23 -6.5 -33
s-10.333 -18.833 -18 -26.5s-16.667 -13.667 -27 -18s-21.166 -6.5 -32.499 -6.5c-24.667 0 -45.167 8.16699 -61.5 24.5s-24.5 36.166 -24.5 59.499s8.16699 43.166 24.5 59.499s36.833 24.5 61.5 24.5z" />
    <glyph glyph-name="patah" unicode="&#x5b7;" 
d="M394 -251v102h424v-102h-424z" />
    <glyph glyph-name="qamats" unicode="&#x5b8;" 
d="M-56 -439v188h-156v102h424v-102h-154v-188h-114z" />
    <glyph glyph-name="holam" unicode="&#x5b9;" 
d="M-82 1248c0 24.667 8.33301 45.334 25 62.001s37.334 25 62.001 25s45.5 -8.33301 62.5 -25s25.5 -37.334 25.5 -62.001s-8.5 -45.5 -25.5 -62.5s-37.833 -25.5 -62.5 -25.5s-45.334 8.5 -62.001 25.5s-25 37.833 -25 62.5z" />
    <glyph glyph-name="qubuts" unicode="&#x5bb;" 
d="M-76 -326c0 21.333 7.5 39.5 22.5 54.5s33.167 22.5 54.5 22.5s39.666 -7.5 54.999 -22.5s23 -33.167 23 -54.5s-7.66699 -39.666 -23 -54.999s-33.666 -23 -54.999 -23s-39.5 7.66699 -54.5 23s-22.5 33.666 -22.5 54.999zM84 -456c0 21.333 7.5 39.5 22.5 54.5
s33.167 22.5 54.5 22.5s39.666 -7.5 54.999 -22.5s23 -33.167 23 -54.5s-7.66699 -39.666 -23 -54.999s-33.666 -23 -54.999 -23s-39.5 7.66699 -54.5 23s-22.5 33.666 -22.5 54.999zM-236 -196c0 21.333 7.5 39.5 22.5 54.5s33.167 22.5 54.5 22.5
s39.666 -7.5 54.999 -22.5s23 -33.167 23 -54.5s-7.66699 -39.666 -23 -54.999s-33.666 -23 -54.999 -23s-39.5 7.66699 -54.5 23s-22.5 33.666 -22.5 54.999z" />
    <glyph glyph-name="dagesh" unicode="&#x5bc;" 
d="M0 662c10 0 19.998 -1.83691 29.998 -5.50391s19 -9.16699 27 -16.5s14.5 -16.166 19.5 -26.499s7.5 -22.166 7.5 -35.499c0 -23.333 -8.16699 -43.166 -24.5 -59.499s-36.166 -24.5 -59.499 -24.5s-43.166 7.83301 -59.499 23.5s-24.5 35.834 -24.5 60.501
c0 10 1.83301 20 5.5 30s9 19 16 27s15.667 14.5 26 19.5s22.5 7.5 36.5 7.5z" />
    <glyph glyph-name="meteg" unicode="&#x5bd;" 
d="M-52 -111h104v-379h-104v379z" />
    <glyph glyph-name="maqaf" unicode="&#x5be;" horiz-adv-x="630" 
d="M60 1060h502v-191h-502v191z" />
    <glyph glyph-name="paseq" unicode="&#x5c0;" 
d="M-97 -1v1277h195v-1277h-195z" />
    <glyph glyph-name="shindot" unicode="&#x5c1;" 
d="M-82 1248c0 24.667 8.33301 45.334 25 62.001s37.334 25 62.001 25s45.5 -8.33301 62.5 -25s25.5 -37.334 25.5 -62.001s-8.5 -45.5 -25.5 -62.5s-37.833 -25.5 -62.5 -25.5s-45.334 8.5 -62.001 25.5s-25 37.833 -25 62.5z" />
    <glyph glyph-name="sindot" unicode="&#x5c2;" 
d="M-82 1248c0 24.667 8.33301 45.334 25 62.001s37.334 25 62.001 25s45.5 -8.33301 62.5 -25s25.5 -37.334 25.5 -62.001s-8.5 -45.5 -25.5 -62.5s-37.833 -25.5 -62.5 -25.5s-45.334 8.5 -62.001 25.5s-25 37.833 -25 62.5z" />
    <glyph glyph-name="alef" unicode="&#x5d0;" horiz-adv-x="1192" 
d="M824 0l-374.996 579.996c-20.667 -6 -37.334 -13.167 -50.001 -21.5s-22.5 -18.666 -29.5 -30.999s-11.667 -27.666 -14 -45.999s-3.5 -40.833 -3.5 -67.5v-414h-242v354c0 42 3.83301 82.833 11.5 122.5s20.667 75.667 39 108s43.166 59.833 74.499 82.5
s70.666 38 117.999 46l-235 348h264l323 -489c26.667 2 48.667 6.83301 66 14.5s31.166 18.334 41.499 32.001s17.5 30.334 21.5 50.001s6 42.5 6 68.5v324h240v-299c0 -52 -6.33301 -97.833 -19 -137.5s-30.834 -73.5 -54.501 -101.5s-52.167 -50.5 -85.5 -67.5
s-70.666 -28.833 -111.999 -35.5l288 -420h-273z" />
    <glyph glyph-name="bet" unicode="&#x5d1;" horiz-adv-x="1012" 
d="M945 195v-195h-856l2 195h481v671h-477v195h729v-866h121v0z" />
    <glyph glyph-name="gimel" unicode="&#x5d2;" horiz-adv-x="747" 
d="M425 279c-7.33301 -48.667 -20.334 -90.666 -39.001 -125.999s-41.834 -64.333 -69.501 -87s-59.667 -39.334 -96 -50.001s-75.5 -16 -117.5 -16h-59v225h108c47.333 0 87 8.66699 119 26s57.333 41.5 76 72.5s30.834 67.667 36.501 110s5.83398 88.833 0.500977 139.5
l-11.5 90l-12.5 96c-4.66699 35.333 -9.66699 71 -15 107h-209v195h418l143 -1061h-222l-42 279h-8z" />
    <glyph glyph-name="dalet" unicode="&#x5d3;" horiz-adv-x="1001" 
d="M542 0v866h-494v195h869v-195h-117v-866h-258v0z" />
    <glyph glyph-name="he" unicode="&#x5d4;" horiz-adv-x="1122" 
d="M128 0v572h252v-572h-252zM120 1061h878v-1061h-254v866h-624v195z" />
    <glyph glyph-name="vav" unicode="&#x5d5;" horiz-adv-x="559" 
d="M149 1061h258v-1061h-258v1061v0z" />
    <glyph glyph-name="zayin" unicode="&#x5d6;" horiz-adv-x="811" 
d="M349 0l-43.001 199l-18.5 85l-18.5 86.5l-17.5 81c-5.66699 25.667 -10.5 48.5 -14.5 68.5c-8.66699 39.333 -13.667 77.166 -15 113.499s1.83398 69.5 9.50098 99.5s20.667 56.5 39 79.5s42.5 40.833 72.5 53.5h-275v195h654v-195h-183
c-26 -17.333 -44.167 -38.666 -54.5 -63.999s-15.833 -52.5 -16.5 -81.5s1.83301 -58.333 7.5 -88s11.5 -57.5 17.5 -83.5l18.5 -85l20 -90.5l21 -91l19.5 -87.5l43 -195h-266v0z" />
    <glyph glyph-name="het" unicode="&#x5d7;" horiz-adv-x="1210" 
d="M731 1061c72 0 130.501 -10.833 175.501 -32.5s80.167 -52.167 105.5 -91.5s42.5 -87 51.5 -143s13.5 -118 13.5 -186v-608h-254v592c0 39.333 -2 75.833 -6 109.5s-12.333 62.667 -25 87s-30.334 43.333 -53.001 57s-52.667 20.5 -90 20.5h-240v-866h-252v1061h574z" />
    <glyph glyph-name="tet" unicode="&#x5d8;" horiz-adv-x="1173" 
d="M1062 1061l0.000976562 -511.998c0 -103.333 -12.333 -190 -37 -260s-59.167 -126.333 -103.5 -169s-97.5 -73.334 -159.5 -92.001s-130 -28 -204 -28h-344l-131 1061h252l108 -866h45c34 0 66 1.16699 96 3.5s57.333 8 82 17s46.667 22.5 66 40.5
s35.666 42.667 48.999 74s23.5 70.666 30.5 117.999s10.5 105 10.5 173v245h-199v195h439z" />
    <glyph glyph-name="yod" unicode="&#x5d9;" horiz-adv-x="547" 
d="M150 1061h262v-596h-262v596v0z" />
    <glyph glyph-name="finalkaf" unicode="&#x5da;" horiz-adv-x="868" 
d="M742 1061v-1321h-260v1126h-426v195h686v0z" />
    <glyph glyph-name="kaf" unicode="&#x5db;" horiz-adv-x="950" 
d="M433 1061c144.667 0 250.832 -34.8311 318.499 -104.498s101.5 -176.834 101.5 -321.501v-211c0 -143.333 -35.167 -249.833 -105.5 -319.5s-175.166 -104.5 -314.499 -104.5h-336v195h295c35.333 0 66 4.5 92 13.5s47.5 24.167 64.5 45.5s29.667 49.666 38 84.999
s12.5 79.333 12.5 132v119c0 52 -4 95.667 -12 131s-20.5 63.833 -37.5 85.5s-38.5 37 -64.5 46s-57 13.5 -93 13.5h-299v195h340z" />
    <glyph glyph-name="lamed" unicode="&#x5dc;" horiz-adv-x="929" 
d="M898 1061l-395 -1061h-258l329 866h-504v412h240v-217h588z" />
    <glyph glyph-name="finalmem" unicode="&#x5dd;" horiz-adv-x="1144" 
d="M1037 0l-907.002 -0.00195312v1061h551c67.333 0 123.833 -8.33301 169.5 -25s82.334 -41.667 110.001 -75s47.334 -75.166 59.001 -125.499s17.5 -109.166 17.5 -176.499v-659zM801.998 626.998c0 36 -1.16699 68.667 -3.5 98s-9.83301 54.5 -22.5 75.5
s-32 37.333 -58 49s-63 17.5 -111 17.5h-240v-673h435v433z" />
    <glyph glyph-name="mem" unicode="&#x5de;" horiz-adv-x="1132" 
d="M572 195l213.001 0.000976562v393c0 42.667 -3.33301 81.167 -10 115.5s-18.334 63.666 -35.001 87.999s-39.667 43 -69 56s-66.333 19.5 -111 19.5h-68l-194 -867h-248l213 866h-172v195h514c80 0 147 -10.667 201 -32s97.5 -53.5 130.5 -96.5s56.5 -96.667 70.5 -161
s20.667 -139.833 20 -226.5v-545h-455v195z" />
    <glyph glyph-name="finalnun" unicode="&#x5df;" horiz-adv-x="521" 
d="M134 1061h262v-1321h-262v1321v0z" />
    <glyph glyph-name="nun" unicode="&#x5e0;" horiz-adv-x="657" 
d="M207 195c22.667 0 40.3311 1.83301 52.998 5.5s22.334 10.5 29.001 20.5s10.834 24.333 12.501 43s2.5 43 2.5 73v529h-150v195h398v-786c0 -94.667 -21.667 -164.167 -65 -208.5s-108.333 -66.5 -195 -66.5h-244v195h159z" />
    <glyph glyph-name="samekh" unicode="&#x5e1;" horiz-adv-x="1132" 
d="M1033 1061l0.000976562 -511.999c0 -103.333 -12.833 -190 -38.5 -260s-61.334 -126.333 -107.001 -169s-100 -73.334 -163 -92.001s-131.5 -28 -205.5 -28h-313l-121 1061h948zM793.001 867.001h-448.002l88 -673h43c60.667 0 111.334 4.5 152.001 13.5
s73.334 27 98.001 54s42 65.167 52 114.5s15 114.333 15 195v296z" />
    <glyph glyph-name="ayin" unicode="&#x5e2;" horiz-adv-x="1087" 
d="M980 1061l0.000976562 -439.998c0 -74 -4.33301 -138.833 -13 -194.5s-26.334 -105.334 -53.001 -149.001s-65 -82.334 -115 -116.001s-116.333 -65.5 -199 -95.5c-16 -6 -35.833 -13 -59.5 -21l-77.5 -25.5l-88.5 -28.5l-91.5 -30l-224 -72l-52 191l283 84l-198 897h258
l163 -828c42 16 76.833 32 104.5 48s49.667 36.833 66 62.5s27.833 58.5 34.5 98.5s10 92 10 156v463h252z" />
    <glyph glyph-name="finalpe" unicode="&#x5e3;" horiz-adv-x="1066" 
d="M958 -260h-257.997v854c0 52 -2.33301 95.5 -7 130.5s-13.834 63 -27.501 84s-32.834 35.833 -57.501 44.5s-57 13 -97 13h-138v-401h-255v596h457c74 0 135.667 -8 185 -24s88.666 -41 117.999 -75s50 -77 62 -129s18 -114 18 -186v-907z" />
    <glyph glyph-name="pe" unicode="&#x5e4;" horiz-adv-x="1095" 
d="M576 1061c143.333 0 249.167 -34.833 317.5 -104.5s102.5 -176.834 102.5 -321.501v-211c0 -143.333 -35.333 -249.833 -106 -319.5s-175.334 -104.5 -314.001 -104.5h-442v195h401c34.667 0 65.334 4.16699 92.001 12.5s48.667 22.666 66 42.999s30.5 47.833 39.5 82.5
s13.5 78 13.5 130v143c0 52.667 -4.33301 95.834 -13 129.501s-21.834 60.334 -39.501 80.001s-39.667 33.167 -66 40.5s-57.166 11 -92.499 11h-150v-386h-253v580h444z" />
    <glyph glyph-name="finaltsadi" unicode="&#x5e5;" horiz-adv-x="979" 
d="M873 1061l1 -283.001c0 -146.667 -36.5 -254.5 -109.5 -323.5s-178.167 -104.5 -315.5 -106.5l129 -608h-245l-283 1321h244l114 -532c40 0.666992 74 4.33398 102 11.001s50.833 19 68.5 37s30.667 43 39 75s12.5 73.333 12.5 124v285h243z" />
    <glyph glyph-name="tsadi" unicode="&#x5e6;" horiz-adv-x="1116" 
d="M978 758c0 -51.333 -5 -97.3311 -15 -137.998s-26.333 -75.667 -49 -105s-52.167 -52.5 -88.5 -69.5s-80.5 -27.5 -132.5 -31.5l275 -414h-875v195h477l-536 866h268l294 -487c32 0.666992 57.333 5.5 76 14.5s32.5 21.167 41.5 36.5s14.667 33.666 17 54.999
s3.5 44.666 3.5 69.999v311h244v-303z" />
    <glyph glyph-name="qof" unicode="&#x5e7;" horiz-adv-x="1204" 
d="M1084 1061l-0.000976562 -511.997c0 -103.333 -8.5 -190 -25.5 -260s-43.5 -126.333 -79.5 -169s-82.167 -73.334 -138.5 -92.001s-123.833 -28 -202.5 -28h-70v193h33c30.667 0 57.667 1.16699 81 3.5s43.5 7.16602 60.5 14.499s31.333 18 43 32s20.834 33 27.501 57
s11.5 53.667 14.5 89s4.5 77.666 4.5 126.999v350h-700v195h952zM147.999 658.003h252v-918h-252v918z" />
    <glyph glyph-name="resh" unicode="&#x5e8;" horiz-adv-x="884" 
d="M427 1061c72 0 130.168 -11.667 174.501 -35s78.666 -55.833 102.999 -97.5s40.5 -91 48.5 -148s12 -119.167 12 -186.5v-594h-260v583c0 39.333 -2 76.166 -6 110.499s-12 64.333 -24 90s-29.167 45.834 -51.5 60.501s-51.833 22 -88.5 22h-293v195h385z" />
    <glyph glyph-name="shin" unicode="&#x5e9;" horiz-adv-x="1419" 
d="M1302 1061v-512c0 -183.333 -44.5 -320.666 -133.5 -411.999s-216.833 -137 -383.5 -137h-589l-99 1061h241l90 -866h263c54 0 104 3.16699 150 9.5s85.667 20.166 119 41.499s59.333 52.333 78 93s28 95 28 163v559h236zM837 416h-238v645h238v-645z" />
    <glyph glyph-name="tav" unicode="&#x5ea;" horiz-adv-x="1235" 
d="M757 1061c72 0 130.831 -11.3359 176.498 -34.0029s81.5 -54.167 107.5 -94.5s43.833 -88.666 53.5 -144.999s14.5 -118.166 14.5 -185.499v-602h-256v590c0 39.333 -2.66699 75.833 -8 109.5s-15.166 62.834 -29.499 87.501s-34.166 44 -59.499 58s-58 21 -98 21h-164
v-866h-444v195h215v671h-129v195h621z" />
    <glyph glyph-name="uni2000" unicode="&#x2000;" horiz-adv-x="860" 
 />
    <glyph glyph-name="uni2001" unicode="&#x2001;" horiz-adv-x="1721" 
 />
    <glyph glyph-name="uni2002" unicode="&#x2002;" horiz-adv-x="860" 
 />
    <glyph glyph-name="uni2003" unicode="&#x2003;" horiz-adv-x="1721" 
 />
    <glyph glyph-name="uni2004" unicode="&#x2004;" horiz-adv-x="573" 
 />
    <glyph glyph-name="uni2005" unicode="&#x2005;" horiz-adv-x="430" 
 />
    <glyph glyph-name="uni2006" unicode="&#x2006;" horiz-adv-x="286" 
 />
    <glyph glyph-name="uni2007" unicode="&#x2007;" horiz-adv-x="286" 
 />
    <glyph glyph-name="uni2008" unicode="&#x2008;" horiz-adv-x="215" 
 />
    <glyph glyph-name="uni2009" unicode="&#x2009;" horiz-adv-x="344" 
 />
    <glyph glyph-name="uni200A" unicode="&#x200a;" horiz-adv-x="95" 
 />
    <glyph glyph-name="uni2010" unicode="&#x2010;" horiz-adv-x="817" 
d="M107 625h588v-176h-588v176z" />
    <glyph glyph-name="uni2011" unicode="&#x2011;" horiz-adv-x="817" 
d="M107 625h588v-176h-588v176z" />
    <glyph glyph-name="figuredash" unicode="&#x2012;" horiz-adv-x="817" 
d="M107 625h588v-176h-588v176z" />
    <glyph glyph-name="endash" unicode="&#x2013;" horiz-adv-x="1108" 
d="M43 612h1025v-160h-1025v160z" />
    <glyph glyph-name="emdash" unicode="&#x2014;" horiz-adv-x="2177" 
d="M77 588h2068v-116h-2068v116z" />
    <glyph glyph-name="quoteleft" unicode="&#x2018;" horiz-adv-x="442" 
d="M104 729l60 475h184v-151l-146 -324h-98v0z" />
    <glyph glyph-name="quoteright" unicode="&#x2019;" horiz-adv-x="440" 
d="M104 729l60 475h184v-151l-146 -324h-98v0z" />
    <glyph glyph-name="quotesinglbase" unicode="&#x201a;" horiz-adv-x="442" 
d="M104 729l60 475h184v-151l-146 -324h-98v0z" />
    <glyph glyph-name="quotedblleft" unicode="&#x201c;" horiz-adv-x="610" 
d="M111 1204h164v-149l-130 -319h-88zM373 1204h164v-149l-130 -319h-88z" />
    <glyph glyph-name="quotedblright" unicode="&#x201d;" horiz-adv-x="610" 
d="M111 1204h164v-149l-130 -319h-88zM373 1204h164v-149l-130 -319h-88z" />
    <glyph glyph-name="quotedblbase" unicode="&#x201e;" horiz-adv-x="610" 
d="M111 1204h164v-149l-130 -319h-88zM373 1204h164v-149l-130 -319h-88z" />
    <glyph glyph-name="dagger" unicode="&#x2020;" horiz-adv-x="782" 
d="M-26 752h862l-213 -371.5l-219 -378.5zM605 618h-397l200 -366z" />
    <glyph glyph-name="daggerdbl" unicode="&#x2021;" horiz-adv-x="825" 
d="M834 227h-862l432 750zM204 360h397l-201 367z" />
    <glyph glyph-name="bullet" unicode="&#x2022;" horiz-adv-x="673" 
d="M105 534c0 31.333 5.83301 60.666 17.5 87.999s27.834 51.166 48.501 71.499s44.667 36.333 72 48s56.666 17.5 87.999 17.5s60.666 -5.83301 87.999 -17.5s51.166 -27.667 71.499 -48s36.333 -44.166 48 -71.499s17.5 -56.666 17.5 -87.999
s-5.83301 -60.666 -17.5 -87.999s-27.667 -51.166 -48 -71.499s-44.166 -36.333 -71.499 -48s-56.666 -17.5 -87.999 -17.5s-60.666 5.83301 -87.999 17.5s-51.333 27.667 -72 48s-36.834 44.166 -48.501 71.499s-17.5 56.666 -17.5 87.999z" />
    <glyph glyph-name="ellipsis" unicode="&#x2026;" horiz-adv-x="1763" 
d="M204 0v260h256v-260h-256zM745 0v260h256v-260h-256zM1324 0v260h256v-260h-256z" />
    <glyph glyph-name="uni202F" unicode="&#x202f;" horiz-adv-x="344" 
 />
    <glyph glyph-name="perthousand" unicode="&#x2030;" horiz-adv-x="1274" 
d="M140 0h-99l707 1062h97zM216 1070c58.667 0 103.167 -16.667 133.5 -50s45.5 -81 45.5 -143v-166c0 -63.333 -15.167 -111.333 -45.5 -144s-74.833 -49 -133.5 -49c-58 0 -102.5 16.5 -133.5 49.5s-46.5 80.833 -46.5 143.5v166c0 62.667 15.5 110.5 46.5 143.5
s75.5 49.5 133.5 49.5zM216 603c21.333 0 37.499 8.5 48.499 25.5s16.5 36.167 16.5 57.5v216c0 21.333 -6.16699 39.5 -18.5 54.5s-28.166 22.5 -47.499 22.5c-20 0 -35.5 -7.5 -46.5 -22.5s-16.5 -33.167 -16.5 -54.5v-216c0 -21.333 5.33301 -40.5 16 -57.5
s26.667 -25.5 48 -25.5zM661.999 546c58.667 0 103.334 -16.667 134.001 -50s46 -81.333 46 -144v-166c0 -64 -15.333 -112.333 -46 -145s-75.334 -49 -134.001 -49s-103.334 16.667 -134.001 50s-46 81.333 -46 144v166c0 63.333 15.333 111.5 46 144.5
s75.334 49.5 134.001 49.5zM661.999 77c21.333 0 37.498 8.66797 48.498 26.001s16.5 36.666 16.5 57.999v216c0 21.333 -6.16699 39.666 -18.5 54.999s-28.166 23 -47.499 23c-20 0 -35.667 -7.66699 -47 -23s-17 -33.666 -17 -54.999v-216c0 -10.667 1.33301 -21 4 -31
s6.83398 -19 12.501 -27s12.5 -14.333 20.5 -19s17.333 -7 28 -7zM1051 546.001c58.667 0 103.334 -16.667 134.001 -50s46 -81.333 46 -144v-166c0 -64 -15.333 -112.333 -46 -145s-75.334 -49 -134.001 -49s-103.334 16.667 -134.001 50s-46 81.333 -46 144v166
c0 63.333 15.333 111.5 46 144.5s75.334 49.5 134.001 49.5zM1051 77.001c21.333 0 37.498 8.66797 48.498 26.001s16.5 36.666 16.5 57.999v216c0 21.333 -6.16699 39.666 -18.5 54.999s-28.166 23 -47.499 23c-20 0 -35.667 -7.66699 -47 -23s-17 -33.666 -17 -54.999
v-216c0 -10.667 1.33301 -21 4 -31s6.83398 -19 12.501 -27s12.5 -14.333 20.5 -19s17.333 -7 28 -7z" />
    <glyph glyph-name="guilsinglleft" unicode="&#x2039;" horiz-adv-x="956" 
d="M20 633l817 405v-217l-617 -246l617 -241v-215l-817 405v109z" />
    <glyph glyph-name="guilsinglright" unicode="&#x203a;" horiz-adv-x="955" 
d="M908 479l-817 -405v215l617 241l-617 246v217l817 -405v-109z" />
    <glyph glyph-name="uni205F" unicode="&#x205f;" horiz-adv-x="430" 
 />
    <glyph glyph-name="newsheqelsign" unicode="&#x20aa;" horiz-adv-x="1732" 
d="M1204 375l-273.002 -0.000976562v348c0 28.667 -2.5 52.334 -7.5 71.001s-13 33.667 -24 45s-25.333 19.333 -43 24s-39.5 7.33398 -65.5 8.00098h-363v-871h-265v1061h789c52.667 0 95.334 -8.83301 128.001 -26.5s58 -41.834 76 -72.501s30.333 -66.167 37 -106.5
s10.334 -83.5 11.001 -129.5v-351zM551.998 -0.000976562v685.999h262v-496h375c20 0 38.333 2.16699 55 6.5s31 11.5 43 21.5s21.5 22.833 28.5 38.5s10.5 34.834 10.5 57.501v747h255v-730c0 -48.667 -5.66699 -93.167 -17 -133.5s-28.333 -75 -51 -104
s-51 -51.667 -85 -68s-73.667 -24.833 -119 -25.5h-757z" />
    <glyph glyph-name="Euro" unicode="&#x20ac;" horiz-adv-x="903" 
d="M-28 590h130.999v112h-131v129h131l2 105c0 58.667 10.667 110 32 154s50.5 80.5 87.5 109.5s80.333 50.667 130 65s102.5 21.5 158.5 21.5c68.667 0 127.667 -9.5 177 -28.5s89.666 -43.333 120.999 -73s54.333 -62.5 69 -98.5s22 -71 22 -105h-196
c-6 26.667 -13.5 50.334 -22.5 71.001s-20.667 38 -35 52s-32.5 24.667 -54.5 32s-49 11 -81 11c-21.333 0 -44.166 -2 -68.499 -6s-46.833 -13.667 -67.5 -29s-37.667 -38 -51 -68s-20 -71.333 -20 -124v-89h213v-129h-213v-112h213v-129h-213v-80
c0 -55.333 5.66699 -99.833 17 -133.5s26.5 -59.5 45.5 -77.5s41 -29.833 66 -35.5s51.167 -8.5 78.5 -8.5c32 0 59 3.66699 81 11s40.5 18.166 55.5 32.499s26.833 32.5 35.5 54.5s15.667 47.667 21 77h198c-0.666992 -37.333 -9 -74.833 -25 -112.5
s-40.333 -71.5 -73 -101.5s-73.334 -54.333 -122.001 -73s-105.667 -28 -171 -28c-55.333 0 -107.666 7.33301 -156.999 22s-92.666 36.5 -129.999 65.5s-66.833 65.167 -88.5 108.5s-32.5 93.333 -32.5 150v129h-133v129z" />
    <glyph glyph-name="trademark" unicode="&#x2122;" horiz-adv-x="1333" 
d="M64 1165v113h446v-113h-141v-407h-154v407h-151zM1022 1278h219v-520h-137v410l-106 -304h-160l-109 304v-410h-139v520h228l98 -295z" />
    <glyph glyph-name="arrowleft" unicode="&#x2190;" horiz-adv-x="2062" 
d="M553 823l-267 -229h1672v-121h-1672l269 -230h-162l-303 285l303 295h160z" />
    <glyph glyph-name="arrowright" unicode="&#x2192;" horiz-adv-x="2062" 
d="M1624 823l303 -295l-303 -285h-162l269 230h-1672v121h1672l-267 229h160z" />
    <glyph glyph-name="minus" unicode="&#x2212;" horiz-adv-x="807" 
d="M107 625h588v-176h-588v176z" />
    <glyph glyph-name="uni25FC" unicode="&#x25fc;" horiz-adv-x="930" 
d="M0 930h930v-930h-930v930z" />
    <glyph glyph-name="peace" unicode="&#x262e;" horiz-adv-x="931" 
d="M39 757v8v153h850v-823h-850v662zM206 517h-5v7h-9v2h9v14h-3v10h3v4h-11v2h-20v10h-4v39h-5v-71h23v-16h-15v-1h-7v1h-1v-1h-8v1h-5v-1h-3v1h-5v-1h-1v1h-1v-1h-1v1h-2v-1h-14v-16h16v-11h4v11h156v12h-31v1h5v7h-34v3h-31v-7zM826 771h13v16h-2v7h2v11h-2v8h2v13h-2v2
h2v30h-7v2h7v25h-67v-14h3v-15h-3v-6h11v30h2v-30h1v-1h-1v-28h10v44h3v-44h5v40h9v-40h2v52h12v-52h3v-19h-3v-31zM533 130h34v21h6v-21h11v9h1v-9h2v35h-9v2h9v14h-4v11h4v3h-11v3h-20v9h-3v37h-7v-68h24v-17h-24v-21h-4v-3h-9v-5zM342 297h17v12h-3v24h-25v33h-4v-24h-8
v24h-6v-27h4v-30h-4v-22h4v-2h-4v-5h6v1h8v-1h4v3h17v-3h11v8h-17v9zM720 297h16v12h-2v24h-26v33h-3v-24h-8v24h-6v-27h5v-30h-5v-22h5v-2h-5v-5h6v1h8v-1h3v3h18v-3h10v8h-16v9zM712 655h17v12h-3v24h-25v34h-4v-25h-8v25h-6v-27h5v-31h-5v-21h5v-3h-5v-3h18v2h17v-2h11v6
h-17v9zM291 412v7h-3v1h3v8h-3v36h69v-20h5v14h7v5h-7v9h6v23h-7v-17h-2v17h-6v-14h-2v14h-3v-23h9v-2h-187v-6h106v-45h3v-7h4v7h4v-7h4zM335 655h16v12h-3v24h-25v34h-3v-25h-9v25h-5v-27h4v-31h-4v-21h4v-3h-4v-3h17v2h18v-2h10v6h-16v9zM463 847v38h-68v-14h1v-15h-1v-6
h10v30h3v-30h1v-1h-1v-2h10v18h2v-18h5v14h10v-14h2v26h11v7h3v-33h12zM592 130h89v5h-6v1h-65v5h-13v9h52v3h2v2h12v3h-3v4h-37v3h-31v-35zM105 253h4v33h-11v-24h3v-4h-3v-18h2v-5h-2v-33h1v-6h-1v-11h8v-5h-8v-10h4v-3h-4v-12h2v-2h9v54h-9v14h9v29h-4v3zM188 140h7v-10
h7v18h7v17h-10v2h10v14h-3v11h3v3h-11v3h-10v-22h4v-17h-4v-19zM179 771v-33h8v13h5v20h4v-17h18v20h-18v-2h-4v7h-5v11h-8v-18h-2v-1h2zM574 754h17v20h-17v-2h-4v7h-5v11h-8v-52h8v13h5v20h4v-17zM215 144h4v6h52v3h2v2h13v3h-3v4h-37v3h-31v-21zM565 412v-33h7v13h6v20h4
v-17h17v20h-17v-2h-4v7h-6v11h-7v-18h-3v-1h3zM85 512v76h-12v-76h4v9h5v-9h3zM557 512h23v12h-10v2h10v14h-4v10h4v4h-12v2h-11v-22h5v-16h-5v-6zM204 395h17v20h-17v-2h-5v7h-5v11h-6v-52h6v13h5v20h5v-17zM233 318h3v-25h4v25h5v-25h3v65h-15v-40zM739 698h10v-21h17v36
h-27v-15zM547 566h-3v60h-3v3h-2v-95h17v22h-9v10zM604 677h2v-26h4v26h5v-26h3v67h-14v-41zM729 871v14h-81v-5h2v-9h2v8h5v-8h4v5h9v-5h3v13h10v-13h18v9h17v-9h11zM179 207h-4v43h-6v-74h18v22h-8v9zM848 571h-6v-17h4v6h5v-6h2v-3h-2v-139h4v159h-6v-9h-1v9zM612 450
v-30h3v32h7v-32h3v9h2v29h-2v3h-77v-5h64v-5h-47v-1h47zM493 885h-25v-38h10v28h8v-28h7v38zM475 511v-10h-4v10h-3v-10h-5v10h-3v-10h-35v10h-5v-1h4v-9h-7v-6h-1v-7h9v6h2v-6h7v6h26v-6h11v6h4v-6h3v6h1v7h-1v10h-3zM233 539v1h-27v-14h31v4h29v2h8v7h-20v-2h-14v2h-7z
M611 539v1h-27v-14h31v4h28v2h9v7h-20v-2h-14v2h-7zM227 677h2v-26h3v26h4v-26h4v67h-13v-41zM738 130h85v33h-3v-25h-8v25h-7v-13h5v-14h-17v-5h-3v5h-52v-6zM369 339h11v-21h15v36h-26v-15zM612 318h2v-25h4v25h4v-25h3v65h-13v-40zM100 580v25h-10v-6h3v-5h4v-6h-7v-76h3
v15h5v-15h2v54h-8v14h8zM351 871v14h-75v-6h3v-8h4v5h10v-5h3v13h10v-13h17v9h18v-9h10zM620 180v1h-28v-14h31v5h28v2h9v6h-21v-2h-14v2h-5zM241 180v1h-26v-14h31v5h27v2h10v6h-21v-2h-14v2h-7zM567 574h13v52h-13v-52zM758 318h2v7h5v-7h8v36h-26v-15h11v-21zM114 885
h-24v-38h10v28h9v-28h5v38zM584 512h3v6h5v-6h51v2h7v7h-35v3h-31v-12zM834 412h12v120h-4v-5h3v-5h-3v-98h-5v19h-3v-31zM201 698v20h-11v-30h4v-4h-4v-30h11v30h-5v14h5zM503 472v43h-14v-43h14zM369 472h26v23h-26v-23zM747 495v-23h26v23h-26zM708 379v32h8v26h-18v-17
h15v-1h-15v-8h6v-32h4zM190 574h11v52h-11v-52zM701 738v32h6v26h-16v-17h14v-1h-14v-8h5v-32h5zM475 174v-21h11v54h-9v6h-2v-18h9v-3h-9v-15h6v-3h-6zM69 885v-38h2v33h2v-33h12v38h-16zM493 580v81h-7v-21h2v-4h-2v-8h2v-15h-2v-33h7zM457 130h29v22h-11v-16h-4v16h-11
v-16h-3v-6zM726 495v-23h9v-28h4v14h7v5h-7v9h6v23h-7v-17h-2v17h-5v-14h-2v14h-3zM580 698v20h-13v-28h6v-7h-6v-13h13v14h-5v14h5zM631 438h11v16h-5v4h-8v-29h2v-9h19v8h-8v9h-11v1zM475 670h3v43h-10v-15h2v-7h3v-7h-5v-29h10v6h-3v9zM209 339v19h-13v-43h13v9h-4v15h4z
M660 357v1h-3v-1h-7v1h-11v-19h11v7h7v-7h3v7h4v-7h5v21h-5v-3h-4zM532 885h-29v-29h5v24h2v-24h4v27h2v-27h1v15h6v13h2v-13h7v14zM722 739h7v9h-11v-50h11v32h-7v9zM352 380h7v9h-11v-50h11v32h-7v9zM154 885h-28v-29h4v24h2v-24h5v27h1v-27h1v15h7v13h2v-13h6v14z
M739 831h27v18h-27v-18zM739 536h27v18h-27v-18zM353 837h-2v12h-10v-18h8v-28h5v14h7v5h-7v9h5v18h-6v-12zM283 357v1h-4v-1h-8v1h-9v-1h-1v-11h1v-7h9v7h8v-7h4v7h4v-7h4v21h-4v-3h-4zM623 797h11v17h-6v3h-6v-30h1v-8h18v7h-7v10h-11v1zM584 871h8v14h-35v-14h23v6h4v-6z
M246 797h10v17h-5v3h-7v-30h2v-8h17v7h-7v10h-10v1zM254 438h10v16h-5v4h-7v-29h2v-9h17v8h-7v9h-10v1zM245 430v-10h3v9h2v29h-17v-38h4v32h8v-1h-4v-21h4zM731 380h5v9h-10v-50h10v32h-5v9zM494 130h8v5h-2v20h2v4h-7v17h7v31h-8v-54h4v-1h-4v-22zM274 715v3h-3v-3h-8v3
h-9v-20h9v7h8v-7h3v7h5v-7h4v20h-4v-3h-5zM652 715v3h-2v-3h-9v3h-9v-3h-1v-10h1v-7h9v7h9v-7h2v7h5v-7h4v20h-4v-3h-5zM362 831h25v18h-25v-18zM389 136v-6h57v22h-3v-14h-9v14h-7v-2h4v-14h-15v-5h-3v5h-24zM523 390v-56h8v56h-8zM731 837h-2v12h-11v-18h9v-28h4v14h7v5
h-7v9h5v18h-5v-12zM345 739h6v9h-10v-50h10v32h-6v9zM468 532v-20h3v15h4v-15h3v54h-9v5h-1v-17h7v-3h-7v-15h5v-4h-5zM209 216v34h-13v-34h13zM494 389v-55h8v55h-8zM320 411h1v1h17v25h-18v-17h15v-1h-15v-8zM739 580h27v16h-27v-16zM69 152v-22h23v22h-10v-16h-5v16h-8z
M793 495v-33h10v60h-5v-12h3v-15h-8zM369 412h26v16h-26v-16zM747 412h26v16h-26v-16zM122 302h1v10h-7v-59h7v48h-1v1zM313 771h17v25h-17v-17h14v-1h-14v-7zM497 312h-3v-32h2v-3h-2v-7h2v-15h-2v-4h8v52h-5v9zM486 748v-58h7v58h-7zM516 748v-58h7v58h-7zM739 771h27v15
h-27v-15zM582 324v8h-7v-37h12v29h-5zM236 136v-6h67v5h-5v1h-62zM116 149h1v-18h-1v-1h7v5h-1v20h1v4h-6v17h6v31h-7v-54h4v-1h-4v-3zM73 623h12v38h-12v-18h7v-9h-5v-2h-1v2h-1v-11zM613 876h20v9h-35v-14h15v5zM463 599v14h-12v-33h12v13h-1v6h1zM90 623h10v38h-10v-38z
M766 871v14h-27v-14h27zM166 138v-8h4v10h17v19h-18v-21h-3zM362 771h25v15h-25v-15zM69 467v-51h8v30h-6v6h6v15h-8zM471 221v14h-1v5h1v15h-11v-34h11zM604 817v-38h4v32h7v-32h3v8h2v30h-16zM826 580h11v33h-11v-33zM73 805v-30h12v30h-12zM452 805v-3h-1v-27h12v30h-11z
M387 871v14h-25v-14h25zM849 713v-58h6v58h-6zM584 497v-8h-4v8h-15v-17h-3v-4h5v12h8v-12h12v21h-3zM525 629v-49h7v49h-7zM516 629v-49h7v49h-7zM587 216v28h-12v-28h12zM533 376v-42h8v42h-8zM793 177h10v36h-10v-10h3v-8h-3v-18zM408 536h10v35h-10v-8h2v-9h-2v-18z
M785 536h10v35h-10v-8h2v-9h-2v-18zM82 446v-30h11v30h-11zM98 446v-30h11v30h-11zM475 446v-30h11v30h-11zM227 817v-38h2v32h7v-32h4v8h2v30h-15zM848 713h-22v-15h22v15zM206 497v-8h-5v8h-13v-21h2v12h6v-12h13v21h-3zM461 446v-3h-1v-27h11v30h-10zM739 655h27v12h-27
v-12zM402 449v-37h11v16h-4v21h-7zM478 580v33h-10v-14h2v-6h-2v-13h10zM348 245h11v32h-11v-4h6v-6h-6v-22zM408 339h5v15h-11v-36h6v6h5v5h-5v10zM855 339v15h-21v-15h21zM525 735v-45h7v45h-7zM826 655h22v29h-3v-17h-19v-12zM484 323h2v9h-5v-8h-6v-27h11v15h-2v11z
M369 297h26v12h-26v-12zM73 722h12v26h-12v-26zM718 604h11v32h-11v-4h7v-6h-7v-22zM146 390v-44h7v44h-7zM305 798v22h-14v-22h14zM691 439v22h-14v-22h14zM416 177h9v36h-9v-10h3v-8h-3v-18zM90 805v-30h10v30h-10zM468 805v-30h10v30h-10zM503 642v-50h2v-3h-2v-9h5v49
h-1v6h1v7h-5zM777 698h6v15h-11v-36h5v7h6v4h-6v10zM747 410h-11v-21h2v-9h7v9h2v21zM780 495v-23h3v-10h7v33h-5v-4h-2v4h-3zM780 449v-37h10v16h-4v21h-6zM313 439v22h-13v-22h13zM682 798v22h-13v-22h13zM341 604h10v32h-10v-4h6v-6h-6v-22zM785 339h5v15h-10v-36h5v6h5
v5h-5v10zM775 821h8v28h-11v-18h3v-10zM138 805v-34h8v34h-8zM523 446v-34h8v34h-8zM154 446v-34h8v34h-8zM533 446v-34h8v34h-8zM739 720h27v10h-27v-10zM747 516h19v14h-19v-14zM146 651v33h-8v-33h8zM587 339v19h-12v-24h7v5h5zM395 361v10h-26v-10h26zM773 361v10h-26
v-10h26zM90 748v-26h10v26h-10zM109 609h5v52h-5v-52zM399 698h6v15h-10v-36h4v7h6v4h-6v10zM77 691h8v8h-12v-26h12v11h-8v7zM856 397v3h-85v-3h85zM486 516h7v2h-6v16h6v32h-7v-50zM650 472v23h-11v-23h11zM416 501v4h-63v-4h63zM380 713v-36h7v36h-7zM262 183h21v12h-21
v-12zM639 183h21v12h-21v-12zM739 768h-10v-20h2v-9h5v9h3v20zM812 462v35h-7v-35h7zM834 462h3v60h-11v-8h8v-52zM739 739h27v9h-27v-9zM739 604h27v9h-27v-9zM431 195h3v18h-7v-36h7v15h-3v3zM809 195h3v18h-7v-36h7v15h-3v3zM530 486v22h-11v-22h11zM650 221v22h-11v-22
h11zM154 376v-30h8v30h-8zM300 733v24h-10v-24h10zM678 733v24h-10v-24h10zM687 374v24h-10v-24h10zM637 318v40h-6v-40h6zM768 437v17h-14v-17h14zM146 446v-34h7v34h-7zM516 805v-34h7v34h-7zM556 871v14h-17v-14h17zM525 805v-34h7v34h-7zM553 412v34h-7v-34h7zM475 221
h11v23h-11v-4h3v-5h-3v-14zM145 556h1v10h-8v-32h8v2h-1v20zM847 843h1v15h-8v-30h8v10h-1v5zM747 380h26v9h-26v-9zM369 177h13v18h-13v-18zM747 177h13v18h-13v-18zM369 380h26v9h-26v-9zM162 221v29h-8v-29h8zM530 198h1v9h-8v-31h8v1h-1v21zM503 735v-45h5v45h-5z
M90 673h10v26h-10v-8h5v-7h-5v-11zM361 245h7v32h-7v-32zM98 291h11v21h-11v-12h9v-1h-9v-8zM510 745h1v-10h-1v-45h4v58h-4v-3zM209 295v17h-13v-17h13zM826 720h22v10h-22v-10zM632 543h20v11h-20v-11zM254 543h20v11h-20v-11zM82 262h11v24h-11v-1h5v-9h-5v-14zM726 251
h10v26h-10v-4h7v-6h-7v-16zM138 748v-27h8v27h-8zM494 439v-27h8v27h-8zM739 563h27v8h-27v-8zM308 374v24h-9v-24h9zM739 628h27v8h-27v-8zM557 835h1v12h9v-12h13v14h-23v-14zM518 389v-3h1v-10h-1v-42h4v56h-3v-1h-1zM436 402v-3h-18v-3h18v-7h6v7h2v3h-2v3h7v2h-7v6h-6
v-6h-6v-2h6zM834 361h21v10h-21v-10zM369 221h13v16h-13v-16zM747 221h13v16h-13v-16zM181 835v12h9v-12h11v14h-22v-10h-2v-4h4zM271 472v23h-9v-23h9zM402 495v-23h4v-10h7v5h-5v21h5v7h-5v-4h-3v4h-3zM628 677v41h-5v-41h5zM251 677v41h-5v-41h5zM478 334h8v20h-11v-15h3
v-5zM451 554h12v17h-12v-17zM834 221h6v34h-6v-34zM148 805v-34h6v34h-6zM522 556h1v10h-7v-32h7v2h-1v20zM175 412v34h-6v-34h6zM153 221v29h-7v-29h7zM123 221v29h-7v-29h7zM259 318v40h-5v-40h5zM146 580v25h-8v-25h8zM402 177h11v18h-11v-18zM140 389v-3h2v-10h-2v-30h5
v44h-3v-1h-2zM718 536h11v18h-11v-18zM772 536h11v18h-11v-18zM637 365v33h-6v-33h6zM639 249h11v18h-11v-18zM849 613v-33h6v33h-6zM842 613v-33h6v33h-6zM271 221v22h-9v-22h9zM263 580v22h-9v-22h9zM641 580v22h-9v-22h9zM460 195h11v18h-11v-18zM348 177h11v18h-11v-18z
M152 198h1v9h-7v-31h7v1h-1v21zM510 629v-49h4v49h-4zM219 885v-14h14v14h-14zM683 831h6v16h8v-16h4v18h-18v-18zM839 148h1v15h-6v-33h6v15h-1v3zM639 293h8v-6h3v22h-11v-16zM353 604h6v32h-6v-32zM834 297h6v9h10v-9h5v27h-2v-15h-19v-12zM154 654v30h-6v-33h4v3h2z
M575 251h12v16h-12v-16zM116 439v-27h7v27h-7zM486 798v-27h7v27h-7zM82 241h11v17h-11v-17zM82 202h11v17h-11v-17zM161 871h8v9h15v5h-23v-14zM826 554h11v17h-11v-17zM109 516h5v2h-4v16h4v32h-5v-50zM502 221v23h-8v-23h8zM541 221v23h-8v-23h8zM531 221v23h-8v-23h8z
M196 253h13v14h-13v-14zM738 251h7v26h-7v-26zM341 536h10v18h-10v-18zM395 536h10v18h-10v-18zM726 177h10v18h-10v-18zM780 177h10v18h-10v-18zM451 698h12v15h-12v-15zM451 536h12v15h-12v-15zM362 536h10v18h-10v-18zM348 412h11v16h-11v-16zM359 221v16h-11v-16h11z
M402 221h11v16h-11v-16zM729 580v16h-11v-16h11zM772 580h11v16h-11v-16zM221 427v25h-7v-25h7zM82 511v-23h11v23h-3v-16h-5v16h-3zM70 185h7v11h-8v-26h8v10h-7v5zM544 771v34h-5v-34h5zM166 771v34h-5v-34h5zM850 255v-34h5v34h-5zM747 158h13v13h-13v-13zM423 554h2v17
h-5v-35h5v15h-2v3zM369 158h13v13h-13v-13zM512 376v-42h4v42h-4zM546 334h7v24h-7v-24zM359 401v-4h10v4h5v4h-5v1h-10v-1h-14v-4h14zM800 554h3v17h-5v-35h5v15h-3v3zM106 149h3v3h-10v-22h10v1h-3v18zM369 280h13v6h7v-6h6v8h-26v-8zM251 724v33h-5v-33h5zM628 724v33h-5
v-33h5zM460 339h11v15h-11v-15zM460 177h11v15h-11v-15zM718 771h11v15h-11v-15zM772 771h11v15h-11v-15zM259 365v33h-5v-33h5zM116 389v-13h1v-3h-1v-8h7v24h-7zM137 651v33h-5v-33h5zM826 536h11v15h-11v-15zM306 831h5v16h9v-16h3v18h-17v-18zM766 640v6h-27v-6h27z
M262 249h9v18h-9v-18zM632 608h9v18h-9v-18zM254 608h9v18h-9v-18zM632 831h9v18h-9v-18zM254 831h9v18h-9v-18zM739 850h27v6h-27v-6zM726 412h10v16h-10v-16zM793 412h10v16h-10v-16zM351 580v16h-10v-16h10zM405 580v16h-10v-16h10zM780 221h10v16h-10v-16zM736 221v16
h-10v-16h10zM503 566v-32h5v32h-5zM132 566v-32h5v32h-5zM418 580v16h-10v-16h10zM785 580h10v16h-10v-16zM793 221h10v16h-10v-16zM731 604h5v32h-5v-32zM138 629v-20h8v20h-8zM362 580h10v16h-10v-16zM641 771v7h-18v-10h11v3h7zM747 297h13v12h-13v-12zM262 293h7v-6h2
v22h-9v-16zM240 563v39h-4v-39h4zM140 439v-27h5v34h-3v-7h-2zM132 798v-27h5v34h-3v-7h-2zM313 494v-22h6v16h4v6h-10zM691 494v-22h6v16h4v6h-10zM397 821h8v5h-5v21h5v2h-10v-18h2v-10zM650 412v7h-19v-9h11v2h8zM140 207v-31h5v31h-5zM123 315v22h-7v-22h7zM632 651h7
v-5h2v21h-9v-16zM254 651h7v-5h2v21h-9v-16zM71 512v76h-2v-76h2zM69 511v-23h8v23h-4v-16h-2v16h-2zM533 270v-19h8v19h-8zM523 270v-19h8v19h-8zM362 698h10v15h-10v-15zM154 580v25h-6v-25h6zM341 771h10v15h-10v-15zM395 771h10v15h-10v-15zM362 850h25v6h-25v-6z
M785 771h10v15h-10v-15zM795 698v15h-10v-15h10zM418 698v15h-10v-15h10zM803 339v15h-10v-15h10zM166 654v30h-5v-30h5zM263 771v7h-17v-10h10v3h7zM849 748v-9h6v28h-5v-19h-1zM109 673h5v31h-5v-2h3v-3h-3v-26zM145 221v29h-5v-29h5zM765 195v-18h8v18h-8zM73 609h12v12
h-12v-12zM451 655h12v12h-12v-12zM416 221h9v16h-9v-16zM98 389v-13h11v13h-11zM82 376h11v13h-11v-13zM567 216v28h-5v-28h5zM539 690h5v28h-5v-28zM271 412v7h-17v-9h10v2h7zM557 850h23v6h-23v-6zM69 202h8v17h-8v-17zM206 550h34v4h-34v-4zM584 550h34v4h-34v-4zM69 241
h8v17h-8v-17zM154 270v-17h8v17h-8zM109 798v-27h5v27h-5zM425 339v15h-9v-15h9zM503 798v-27h5v27h-5zM85 594v11h-12v-11h12zM82 155h11v12h-11v-12zM460 297h11v12h-11v-12zM416 412h6v4h3v12h-9v-16zM93 300v12h-11v-12h11zM179 850h22v6h-22v-6zM683 532h6v22h-6v-22z
M402 297h11v12h-11v-12zM772 655h11v12h-11v-12zM73 826v-15h12v9h-8v6h-4zM240 724v33h-4v-33h4zM237 365v33h-4v-33h4zM608 724v33h-4v-33h4zM319 221v22h-6v-22h6zM689 580v22h-6v-22h6zM126 642v-33h4v33h-4zM369 203h13v10h-13v-10zM382 245v10h-13v-10h13zM747 203h13
v10h-13v-10zM109 748v-26h5v26h-5zM408 771h5v4h5v11h-10v-15zM803 150v13h-10v-13h10zM694 243h-3v-22h6v21h-3v1zM510 798v-27h4v34h-3v-7h-1zM518 439v-27h4v34h-3v-7h-1zM512 283v-32h4v32h-4zM765 237v-16h8v16h-8zM138 688h8v16h-8v-16zM126 566v-32h4v32h-4zM510 566
v-32h4v32h-4zM451 826v-5h1v-10h11v9h-7v6h-5zM361 130h21v6h-21v-6zM380 554v-18h7v18h-7zM313 174h6v21h-6v-21zM691 174h6v21h-6v-21zM361 177h7v18h-7v-18zM738 177h7v18h-7v-18zM137 580v25h-5v-25h5zM114 580v25h-5v-25h5zM181 574v31h-4v-31h4zM135 207v-31h4v31h-4z
M518 207v-31h4v31h-4zM512 207v-31h4v31h-4zM525 566v-10h5v-20h-5v-2h7v32h-7zM533 207v-9h6v-21h-6v-1h8v31h-8zM82 185h11v11h-11v-11zM82 224h11v11h-11v-11zM593 431v15h-8v-15h8zM562 334h5v24h-5v-24zM362 655h10v12h-10v-12zM181 654v30h-4v-30h4zM148 629v-20h6v20
h-6zM772 807v-20h6v20h-6zM395 807v-20h6v20h-6zM248 203v40h-3v-40h3zM625 203v40h-3v-40h3zM395 655h10v12h-10v-12zM780 297h10v12h-10v-12zM793 297h10v12h-10v-12zM785 655h10v12h-10v-12zM451 720h12v10h-12v-10zM135 376v-30h4v30h-4zM90 609h10v12h-10v-12zM840 860
h8v15h-8v-15zM146 270v-17h7v17h-7zM546 251h7v16h-5v3h-2v-19zM826 739h13v9h-13v-9zM98 315h11v12h-6v-3h-5v-9zM618 563v39h-3v-39h3zM425 150v13h-9v-13h9zM403 168h10v3h-11v-13h8v-8h3v13h-10v5zM610 465v2h-58v-2h58zM132 745h2v-10h-2v-14h5v27h-5v-3zM850 163v-15
h5v26h-5v-6h3v-5h-3zM135 283v-30h4v17h-1v6h1v7h-4zM380 596v-16h7v16h-7zM69 276v-14h8v14h-8zM664 495v-23h5v22h-3v1h-2zM812 221v16h-7v-16h7zM745 221v16h-7v-16h7zM427 221h7v16h-7v-16zM368 221v16h-7v-16h7zM606 574h4v28h-4v-28zM148 566v-10h4v-20h-4v-2h6v32h-6
zM738 412h7v16h-7v-16zM361 412h7v16h-7v-16zM805 412h7v16h-7v-16zM539 402v3h-37v-3h37zM82 170h11v10h-11v-10zM306 532h5v22h-5v-22zM460 361h11v10h-11v-10zM471 153v10h-11v-10h11zM413 361v10h-11v-10h11zM783 720v10h-11v-10h11zM311 580v22h-5v-22h5zM475 361h11
v10h-11v-10zM348 203h11v10h-11v-10zM413 245v10h-11v-10h11zM402 203h11v10h-11v-10zM669 221v22h-5v-22h5zM664 287h5v22h-5v-22zM639 203h11v10h-11v-10zM139 221v29h-4v-17h2v-3h-2v-9h4zM82 467v-15h11v8h-8v7h-3zM389 195v-18h6v18h-6zM834 380h12v9h-12v-9zM130 651
v33h-4v-11h2v-12h-2v-10h4zM85 327h-3v-12h11v9h-8v3zM313 249h6v18h-6v-18zM236 216h4v27h-4v-27zM683 608h6v18h-6v-18zM614 216h4v27h-4v-27zM126 798v-27h4v27h-4zM135 439v-27h4v27h-4zM512 439v-27h4v27h-4zM683 850h18v6h-18v-6zM353 536h6v18h-6v-18zM451 739h12v9
h-12v-9zM812 339v15h-7v-15h7zM745 339v15h-7v-15h7zM434 339v15h-7v-15h7zM368 339v15h-7v-15h7zM602 375v7h-15v-7h15zM69 389v-13h8v13h-8zM554 574h2v52h-2v-52zM765 171v-13h8v13h-8zM747 280h13v8h-13v-8zM840 813h8v13h-8v-13zM154 324h8v13h-8v-13zM823 221v34h-3
v-34h3zM446 221v34h-3v-34h3zM306 850h17v6h-17v-6zM187 216v34h-3v-34h3zM691 249h3v2h3v16h-6v-18zM154 207v-9h7v-21h-7v-1h8v31h-8zM726 203h10v10h-10v-10zM780 203h10v10h-10v-10zM790 361v10h-10v-10h10zM372 720v10h-10v-10h10zM405 720v10h-10v-10h10zM468 720h10
v10h-10v-10zM132 629v-20h5v20h-5zM418 720v10h-10v-10h10zM795 720v10h-10v-10h10zM803 361v10h-10v-10h10zM618 724v33h-3v-33h3zM615 365v33h-3v-33h3zM625 365v33h-3v-33h3zM592 192h33v3h-33v-3zM783 604v9h-11v-9h11zM460 380h11v9h-11v-9zM402 380h11v9h-11v-9z
M772 739h11v9h-11v-9zM475 389v-9h11v9h-11zM664 174h5v21h-5v-12h2v-3h-2v-6zM460 467v-5h1v-10h10v8h-8v7h-3zM248 365v33h-3v-33h3zM215 192h33v3h-33v-3zM348 158h11v13h-6v-9h-5v-4zM70 153v2h7v12h-8v-14h1zM380 530v-14h7v14h-7zM359 580v16h-6v-16h6zM69 315h8v12
h-8v-12zM77 300v12h-8v-12h8zM148 688h6v16h-6v-16zM765 309v-12h8v12h-8zM389 237v-16h6v16h-6zM288 381v12h-8v-12h8zM130 580v25h-4v-13h2v-3h-2v-9h4zM843 782h5v5h-8v-16h8v4h-5v7zM522 221v23h-4v-23h4zM240 472v23h-4v-23h4zM283 472v23h-4v-23h4zM618 472v23h-4v-23
h4zM738 158h7v13h-7v-13zM580 654v7h-13v-7h13zM361 158h7v13h-7v-13zM209 276v7h-13v-7h13zM580 635v7h-13v-7h13zM146 324h7v13h-7v-13zM161 609h5v17h-3v3h-2v-20zM486 670h7v13h-7v-13zM516 670h7v13h-7v-13zM525 670h7v13h-7v-13zM747 270h13v7h-13v-7zM369 270h13v7
h-13v-7zM785 739h10v9h-10v-9zM313 130h18v5h-18v-5zM793 380h10v9h-10v-9zM606 318v18h-5v-18h5zM229 318v18h-5v-18h5zM664 249h5v18h-5v-18zM287 495v-23h4v22h-2v1h-2zM306 608h5v18h-5v-18zM425 361v10h-9v-10h9zM731 536h5v18h-5v-18zM405 604v9h-10v-9h10zM418 604v9
h-10v-9h10zM425 245v10h-9v-10h9zM795 604v9h-10v-9h10zM353 771h6v15h-6v-15zM359 698v15h-6v-15h6zM395 739h10v9h-10v-9zM780 380h10v9h-10v-9zM262 203h9v10h-9v-10zM468 748v-9h10v9h-10zM90 820v-9h10v9h-10zM408 739h10v9h-10v-9zM468 820v-9h10v9h-10zM834 177h6v15
h-6v-15zM169 253h6v14h-4v3h-2v-17zM372 604v9h-10v-9h10zM362 739h10v9h-10v-9zM849 858v-15h6v15h-6zM849 875v-15h6v15h-6zM119 482v18h-5v-18h5zM287 287h4v22h-4v-22zM718 563h11v8h-11v-8zM82 291h11v8h-11v-8zM283 580v22h-4v-22h4zM291 221v22h-4v-22h4zM772 628h11
v8h-11v-8zM279 287h4v22h-4v-22zM283 221v22h-4v-22h4zM413 280v8h-11v-8h11zM98 460v-8h11v8h-11zM697 532h4v22h-4v-22zM69 224h8v11h-8v-11zM351 757h11v8h-11v-8zM661 580v22h-4v-22h4zM475 460v-8h11v8h-11zM475 280h11v8h-11v-8zM772 563h11v8h-11v-8zM98 365h11v8
h-11v-8zM82 365h11v8h-11v-8zM840 794h8v11h-8v-11zM826 628h11v8h-11v-8zM790 510v11h3v-11h2v12h-10v-12h5zM413 510v11h3v-11h2v12h-10v-12h5zM516 221v23h-4v-11h2v-3h-2v-9h4zM567 295v17h-5v-17h5zM726 158h10v13h-5v-9h-5v-4zM691 130h17v5h-17v-5zM140 270v-17h5v17
h-5zM353 516h6v14h-6v-14zM148 735v-14h6v14h-6zM657 646h4v21h-4v-21zM657 532h4v22h-4v-11h1v-4h-1v-7zM586 574h3v28h-3v-28zM738 297h7v12h-7v-12zM327 174h4v21h-4v-21zM229 574h3v28h-3v-28zM427 416h7v12h-7v-12zM359 871v14h-6v-14h6zM739 516h6v14h-6v-14zM805 297
h7v12h-7v-12zM361 297h7v12h-7v-12zM279 532h4v22h-4v-11h1v-4h-1v-7zM362 516h6v14h-6v-14zM587 276v7h-12v-7h12zM380 667v-12h7v12h-7zM279 646h4v21h-4v-21zM416 380h9v9h-9v-9zM300 339h3v27h-3v-27zM670 698h3v27h-3v-27zM287 174h4v21h-4v-12h1v-3h-1v-6zM293 698h3
v27h-3v-27zM678 339h3v27h-3v-27zM785 628h10v8h-10v-8zM798 580h5v16h-5v-16zM468 628h10v8h-10v-8zM803 280v8h-10v-8h10zM362 628h10v8h-10v-8zM395 628h10v8h-10v-8zM341 563h10v8h-10v-8zM736 580v16h-5v-16h5zM132 688h5v16h-5v-16zM562 251h5v16h-5v-16zM154 302h8
v10h-8v-10zM765 213v-10h8v10h-8zM531 293v10h-8v-10h8zM362 563h10v8h-10v-8zM395 563h10v8h-10v-8zM790 280v8h-10v-8h10zM451 628h12v8h-5v-2h-5v-2h-1v2h-1v-6zM161 688h5v16h-5v-16zM408 628h10v8h-10v-8zM420 580h5v16h-5v-16zM389 171v-13h6v13h-6zM169 324h6v13h-6
v-13zM849 826v-13h6v13h-6zM402 270h11v7h-11v-7zM650 276v7h-11v-7h11zM201 635v7h-11v-7h11zM475 270h11v7h-11v-7zM518 270v-19h4v19h-4zM803 698v15h-5v-15h5zM736 698v15h-5v-15h5zM425 698v15h-5v-15h5zM850 145v-15h5v15h-5zM731 771h5v15h-5v-15zM850 192v-15h5v15
h-5zM798 771h5v15h-5v-15zM463 512v10h-12v-8h5v7h4v-9h3zM780 158h7v-8h3v13h-10v-5zM541 295v8h-8v-10h5v2h3zM279 249h4v18h-4v-18zM279 608h4v18h-4v-18zM697 608h4v18h-4v-18zM236 831h4v18h-4v-18zM353 655h6v12h-6v-12zM606 831h4v18h-4v-18zM425 280v8h-9v-8h9z
M327 249h4v18h-4v-18zM606 608h4v18h-4v-18zM254 563h9v8h-9v-8zM169 346h6v12h-6v-12zM287 249h4v18h-4v-18zM614 249h4v18h-4v-18zM279 831h4v18h-4v-18zM236 249h4v18h-4v-18zM236 608h4v18h-4v-18zM657 831h4v18h-4v-18zM494 323h8v9h-8v-9zM632 563h9v8h-9v-8zM523 323
h8v9h-8v-9zM533 323h8v9h-8v-9zM840 739h8v9h-8v-9zM657 608h4v18h-4v-18zM793 270h10v7h-10v-7zM427 153h7v10h-7v-10zM736 871v14h-5v-14h5zM361 203h7v10h-7v-10zM434 245v10h-7v-10h7zM745 361v10h-7v-10h7zM738 203h7v10h-7v-10zM380 730v-10h7v10h-7zM146 302h7v10h-7
v-10zM731 516h5v14h-5v-14zM812 245v10h-7v-10h7zM780 270h10v7h-10v-7zM413 391v10h-7v-10h7zM812 361v10h-7v-10h7zM460 270h11v7h-6v-1h-3v-2h-1v2h-1v-6zM434 361v10h-7v-10h7zM368 361v10h-7v-10h7zM523 651v10h-7v-10h7zM592 488h3v-12h2v21h-5v-9zM625 472v23h-3v-23
h3zM660 472v23h-3v-23h3zM723 521h3v-5h3v14h-6v-9zM345 521h3v-5h3v14h-6v-9zM248 472v23h-3v-23h3zM664 158h17v4h-17v-4zM177 609h4v17h-4v-17zM98 346h11v7h-11v-2h3v-3h-3v-2zM190 216v34h-2v-34h2zM597 677v17h-4v-17h4zM220 677v17h-4v-17h4zM460 168h11v6h-11v-6z
M274 580v22h-3v-22h3zM678 287h3v22h-3v-22zM437 580v33h-2v-33h2zM300 287h3v22h-3v-22zM303 221v22h-3v-22h3zM293 532h3v22h-3v-22zM673 580v22h-3v-22h3zM320 532h3v22h-3v-22zM670 532h3v22h-3v-22zM296 580v22h-3v-22h3zM783 640v6h-11v-6h11zM229 724v33h-2v-33h2z
M660 221v22h-3v-22h3zM718 850h11v6h-11v-6zM826 640h11v6h-11v-6zM814 580v33h-2v-33h2zM348 130h11v6h-11v-6zM681 221v22h-3v-22h3zM657 287h3v22h-3v-22zM849 805v-11h6v11h-6zM140 324h5v13h-5v-13zM539 670h5v13h-5v-13zM503 670h5v13h-5v-13zM701 580v16h-4v-16h4z
M162 315v8h-8v-8h8zM331 221v16h-4v-16h4zM126 688h4v16h-4v-16zM69 365h8v8h-8v-8zM494 460v-8h8v8h-8zM532 654v7h-7v-10h5v3h2zM69 291h8v8h-8v-8zM287 158h16v4h-16v-4zM279 516h4v4h4v-4h4v1h5v4h-17v-5zM765 288v-8h8v8h-8zM177 688h4v16h-4v-16zM416 270h9v7h-9v-7z
M271 276v7h-9v-7h9zM486 820v-9h7v9h-7zM271 646h3v21h-3v-21zM427 380h7v9h-7v-9zM546 323h7v9h-7v-9zM641 635v7h-9v-7h9zM380 748v-9h7v9h-7zM300 174h3v21h-3v-21zM368 389h-7v-9h7v9zM263 635v7h-9v-7h9zM670 646h3v21h-3v-21zM293 646h3v21h-3v-21zM465 280h6v8h-11
v-3h5v-5zM805 380h7v9h-7v-9zM380 613v-9h7v9h-7zM678 174h3v21h-3v-21zM705 174h3v21h-3v-21zM103 330h6v7h-11v-4h5v-3zM546 518v-6h10v6h-10zM691 203h6v10h-6v-10zM215 488h2v-12h2v21h-4v-9zM589 698v20h-3v-20h3zM451 527h12v5h-12v-5zM389 213v-10h6v10h-6zM731 655
h5v12h-5v-12zM418 655v6h-10v-6h10zM418 640v6h-10v-6h10zM162 295v6h-8v-8h6v2h2zM657 516h3v4h4v-4h5v1h4v4h-16v-5zM169 302h6v10h-6v-10zM405 640v6h-10v-6h10zM798 655h5v12h-5v-12zM359 720v10h-6v-10h6zM372 640v6h-10v-6h10zM795 640v6h-10v-6h10zM726 130h10v6h-10
v-6zM389 255v-10h6v10h-6zM849 838v-10h6v10h-6zM209 654h2v30h-2v-30zM341 850h10v6h-10v-6zM840 195v10h-6v-10h6zM313 203h6v10h-6v-10zM849 730v-10h6v10h-6zM69 805v-30h2v30h-2zM842 551v-15h4v15h-4zM468 640h10v6h-10v-6zM77 751v14h-4v-11h-1v-3h5zM668 768h10v4
h-5v6h-3v-6h-2v-4zM217 295h2v29h-2v-29zM140 832h6v7h-8v-8h2v1zM290 768h10v4h-4v6h-3v-6h-3v-4zM595 295h2v29h-2v-29zM434 280v8h-7v-8h7zM138 642v-7h8v7h-8zM523 283v-7h8v7h-8zM154 283v-7h8v7h-8zM368 280v8h-7v-8h7zM745 280v8h-7v-8h7zM533 480v-7h8v7h-8z
M812 280v8h-7v-8h7zM116 460v-8h7v8h-7zM77 330v7h-8v-7h8zM553 295v8h-7v-8h7zM380 636v-8h7v8h-7zM533 283v-7h8v7h-8zM153 293v8h-7v-8h7zM153 315v8h-7v-8h7zM234 871h4v14h-4v-14zM209 574h2v28h-2v-28zM154 480v-7h8v7h-8zM554 690h2v28h-2v-28zM126 735v-14h4v14h-4z
M765 277v-7h8v7h-8zM380 571v-8h7v8h-7zM826 527h11v5h-11v-5zM186 880h11v5h-11v-5zM420 775h5v11h-5v-11zM271 831h3v18h-3v-18zM293 831h3v18h-3v-18zM245 249h3v18h-3v-18zM229 608h3v18h-3v-18zM320 608h3v18h-3v-18zM670 831h3v18h-3v-18zM678 249h3v18h-3v-18z
M293 608h3v18h-3v-18zM820 195h3v18h-3v-18zM359 748h-6v-9h6v9zM615 608h3v18h-3v-18zM670 608h3v18h-3v-18zM657 249h3v18h-3v-18zM443 195h3v18h-3v-18zM229 831h3v18h-3v-18zM300 249h3v18h-3v-18zM615 831h3v18h-3v-18zM622 249h3v18h-3v-18zM271 608h3v18h-3v-18z
M254 850h9v6h-9v-6zM93 333v4h-11v-7h3v3h8zM217 216h2v26h-2v-26zM557 574h1v52h-1v-52zM69 673h2v26h-2v-26zM135 324h4v13h-4v-13zM510 670h4v13h-4v-13zM747 251h13v4h-13v-4zM69 748v-26h2v26h-2zM595 216h2v26h-2v-26zM518 832h5v7h-7v-8h2v1zM458 640h5v6h-12v-3h7
v-3zM135 130h10v5h-10v-5zM425 720v10h-5v-10h5zM850 205v-10h5v10h-5zM420 512h5v10h-5v-10zM664 203h5v10h-5v-10zM803 720v10h-5v-10h5zM736 720v10h-5v-10h5zM140 302h5v10h-5v-10zM512 130h10v5h-10v-5zM323 738v10h-5v-10h5zM508 651v10h-5v-10h5zM418 821v5h-10v-5
h10zM516 642v-7h7v7h-7zM146 283v-7h7v7h-7zM525 839v-7h7v7h-7zM427 270h7v7h-7v-7zM525 642v-7h7v7h-7zM805 270h7v7h-7v-7zM123 346v7h-7v-7h7zM553 276v7h-7v-7h7zM175 315v8h-6v-8h6zM708 221v16h-3v-16h3zM677 410h10v3h-6v6h-3v-6h-1v-3zM834 280h6v8h-6v-8zM842 636
v-8h6v8h-6zM85 392v14h-3v-11h-2v-3h5zM313 420h6v8h-6v-8zM331 472v12h-4v-12h4zM691 420h6v8h-6v-8zM820 412h3v16h-3v-16zM323 580v16h-3v-16h3zM683 563h6v8h-6v-8zM823 462v16h-3v-16h3zM353 563h6v8h-6v-8zM705 251h3v16h-3v-16zM849 636v-8h6v8h-6zM840 879h8v6h-8
v-6zM632 850h9v5h-8v1h-1v-6zM98 511v-23h2v23h-2zM586 835h3v14h-5v-2h2v-12zM299 410h9v3h-5v6h-3v-6h-1v-3zM562 323h5v9h-5v-9zM109 820v-9h5v9h-5zM798 739h5v9h-5v-9zM425 297v5h-9v-5h9zM823 177v15h-3v-15h3zM446 339v15h-3v-15h3zM803 604v9h-5v-9h5zM425 462v5h-9
v-5h9zM425 604v9h-5v-9h5zM503 820v-9h5v9h-5zM132 820v-9h5v9h-5zM823 339v15h-3v-15h3zM420 739h5v9h-5v-9zM446 177v15h-3v-15h3zM652 580v22h-2v-22h2zM475 251h11v4h-11v-4zM526 473h5v7h-6v-8h1v1zM369 516h3v14h-3v-14zM380 646v-6h7v6h-7zM184 253h3v14h-3v-14z
M834 270h6v7h-6v-7zM689 771v7h-6v-7h6zM683 779h6v7h-6v-7zM175 276v7h-6v-7h6zM389 277v-7h6v7h-6zM586 670h3v14h-3v-14zM148 839v-7h6v7h-6zM319 412v7h-6v-7h6zM148 642v-7h6v7h-6zM650 646h2v21h-2v-21zM697 412v7h-6v-7h6zM279 203h4v10h-4v-10zM503 839v-8h5v8h-5z
M135 302h4v10h-4v-10zM306 563h5v8h-5v-8zM211 698v20h-2v-20h2zM731 563h5v8h-5v-8zM798 628h5v8h-5v-8zM140 480v-8h5v8h-5zM516 293v10h-4v-10h4zM145 293v8h-5v-8h5zM140 460v-8h5v8h-5zM780 251h10v4h-10v-4zM132 839v-8h5v8h-5zM331 379v10h-4v-10h4zM850 288v-8h5v8
h-5zM664 420h5v8h-5v-8zM420 628h5v8h-5v-8zM793 251h10v4h-10v-4zM145 315v8h-5v-8h5zM523 130h8v5h-8v-5zM812 502h2v20h-2v-20zM522 293v10h-4v-10h4zM608 768v10h-4v-10h4zM240 768v10h-4v-10h4zM514 651v10h-4v-10h4zM287 203h4v10h-4v-10zM327 203h4v10h-4v-10z
M184 324h3v13h-3v-13zM849 775v-4h1v-3h5v7h-6zM219 339v19h-2v-19h2zM597 339v19h-2v-19h2zM254 724h12v6h-5v-5h-7v-1zM237 410v9h-4v-9h4zM126 820v-9h4v9h-4zM184 346h3v12h-3v-12zM849 885v-6h6v6h-6zM650 831h2v18h-2v-18zM443 416h3v12h-3v-12zM849 646v-6h6v6h-6z
M650 608h2v18h-2v-18zM71 643v18h-2v-18h2zM443 297h3v12h-3v-12zM842 646v-6h6v6h-6zM820 297h3v12h-3v-12zM359 640v6h-6v-6h6zM851 389v-9h4v9h-4zM708 472v12h-3v-12h3zM175 295v6h-6v-6h6zM834 168h6v6h-6v-6zM639 365h12v7h-4v-6h-8v-1zM518 323h4v9h-4v-9zM510 820
v-9h4v9h-4zM149 473h4v7h-5v-8h1v1zM353 850h6v6h-6v-6zM512 323h4v9h-4v-9zM140 283v-7h5v7h-5zM434 297v5h-7v-5h7zM544 635v7h-5v-7h5zM434 462v5h-7v-5h7zM105 394v7h-5v-7h5zM544 654v7h-5v-7h5zM562 276h5v7h-5v-7zM166 635v7h-5v-7h5zM146 130h7v5h-7v-5zM262 365h11
v7h-4v-6h-7v-1zM132 642v-7h5v7h-5zM306 779h5v7h-5v-7zM669 412v7h-5v-7h5zM311 771v7h-5v-7h5zM850 277v-7h5v7h-5zM209 835h2v14h-5v-2h3v-12zM435 554h2v17h-2v-17zM812 554h2v17h-2v-17zM533 159v-4h8v4h-8zM135 460v-8h4v8h-4zM518 480v-8h4v8h-4zM139 293v8h-4v-8h4z
M512 460v-8h4v8h-4zM510 839v-8h4v8h-4zM279 563h4v8h-4v-8zM139 315v8h-4v-8h4zM518 460v-8h4v8h-4zM523 159v-4h8v4h-8zM697 563h4v8h-4v-8zM512 480v-8h4v8h-4zM126 839v-8h4v8h-4zM97 753v8h-4v-8h4zM657 563h4v8h-4v-8zM154 159v-4h8v4h-8zM135 480v-8h4v8h-4zM765 255
v-4h8v4h-8zM632 724h11v6h-4v-5h-7v-1zM780 522v-10h3v10h-3zM823 361v10h-3v-10h3zM849 787v-5h6v5h-6zM681 472v10h-3v-10h3zM814 698v15h-2v-15h2zM814 536v15h-2v-15h2zM812 771h2v15h-2v-15zM731 850h5v6h-5v-6zM300 203h3v10h-3v-10zM793 168h10v3h-10v-3zM834 208h6
v5h-6v-5zM803 640v6h-5v-6h5zM785 527h10v3h-10v-3zM780 168h10v3h-10v-3zM206 850h5v6h-5v-6zM705 203h3v10h-3v-10zM584 850h5v6h-5v-6zM446 361v10h-3v-10h3zM303 472v10h-3v-10h3zM618 768v10h-3v-10h3zM443 153h3v10h-3v-10zM657 203h3v10h-3v-10zM69 826v-15h2v15h-2z
M402 522v-10h3v10h-3zM408 527h10v3h-10v-3zM184 302h3v10h-3v-10zM736 640v6h-5v-6h5zM425 640v6h-5v-6h5zM437 536v15h-2v-15h2zM678 203h3v10h-3v-10zM425 655v6h-5v-6h5zM437 698v15h-2v-15h2zM618 276v7h-4v-7h4zM610 635v7h-4v-7h4zM279 779h4v7h-4v-7zM510 642v-7h4
v7h-4zM657 779h4v7h-4v-7zM283 276v7h-4v-7h4zM240 635v7h-4v-7h4zM181 635v7h-4v-7h4zM77 392v14h-2v-14h2zM188 253h2v14h-2v-14zM283 771v7h-4v-7h4zM71 751v14h-2v-14h2zM518 283v-7h4v7h-4zM661 771v7h-4v-7h4zM240 276v7h-4v-7h4zM557 690h1v28h-1v-28zM146 159v-4h7
v4h-7zM553 476v4h-7v-4h7zM615 410v9h-3v-9h3zM248 410v9h-3v-9h3zM820 380h3v9h-3v-9zM625 410v9h-3v-9h3zM443 380h3v9h-3v-9zM416 168h9v3h-9v-3zM188 324h2v13h-2v-13zM554 670h2v13h-2v-13zM425 821v5h-5v-5h5zM850 213v-5h5v5h-5zM664 361h5v5h-5v-5zM200 435v25h-1
v-25h1zM85 702v2h-12v-2h12zM691 273h6v4h-6v-4zM313 273h6v4h-6v-4zM657 850h4v6h-4v-6zM236 850h4v6h-4v-6zM812 655h2v12h-2v-12zM187 315v8h-3v-8h3zM691 158h6v4h-6v-4zM670 563h3v8h-3v-8zM175 476v4h-6v-4h6zM271 563h3v8h-3v-8zM279 850h4v6h-4v-6zM435 655h2v12h-2
v-12zM188 346h2v12h-2v-12zM300 420h3v8h-3v-8zM69 609h2v12h-2v-12zM293 563h3v8h-3v-8zM823 280v8h-3v-8h3zM525 514h6v4h-6v-4zM154 389v-3h8v3h-8zM657 420h3v8h-3v-8zM606 850h4v6h-4v-6zM533 389v-3h8v3h-8zM683 632h6v4h-6v-4zM146 460v-8h3v8h-3zM313 158h6v4h-6v-4
zM523 460v-8h3v8h-3zM320 563h3v8h-3v-8zM678 420h3v8h-3v-8zM435 775h2v11h-2v-11zM82 346h11v2h-11v-2zM184 432h2v11h-2v-11zM93 351v2h-11v-2h11zM71 594v11h-2v-11h2zM69 634v-11h2v11h-2zM618 635v7h-3v-7h3zM805 168h7v3h-7v-3zM293 779h3v7h-3v-7zM232 635v7h-3v-7
h3zM427 168h7v3h-7v-3zM625 276v7h-3v-7h3zM271 779h3v7h-3v-7zM820 270h3v7h-3v-7zM525 748v-3h7v3h-7zM248 276v7h-3v-7h3zM274 771v7h-3v-7h3zM660 276v7h-3v-7h3zM589 635v7h-3v-7h3zM274 635v7h-3v-7h3zM187 276v7h-3v-7h3zM670 779h3v7h-3v-7zM660 412v7h-3v-7h3z
M589 654v7h-3v-7h3zM287 361h4v5h-4v-5zM166 835v4h-5v-4h5zM279 720h4v5h-4v-5zM188 302h2v10h-2v-10zM544 835v4h-5v-4h5zM229 768v10h-2v-10h2zM657 720h4v5h-4v-5zM697 516h4v5h-4v-5zM306 632h5v4h-5v-4zM140 159v-4h5v4h-5zM437 720v10h-2v-10h2zM100 702v2h-10v-2h10
zM154 130h4v5h-4v-5zM814 720v10h-2v-10h2zM435 512h2v10h-2v-10zM413 443v18h-1v-18h1zM435 502h2v9h-2v-9zM446 270v6h-3v-6h3zM443 168h3v6h-3v-6zM148 748v-3h6v3h-6zM670 850h3v6h-3v-6zM435 739h2v9h-2v-9zM783 802v18h-1v-18h1zM812 739h2v9h-2v-9zM271 850h3v6h-3
v-6zM229 850h3v6h-3v-6zM138 820v-9h2v9h-2zM615 850h3v6h-3v-6zM405 802v18h-1v-18h1zM516 820v-9h2v9h-2zM820 168h3v6h-3v-6zM187 295v6h-3v-6h3zM293 850h3v6h-3v-6zM327 158h4v4h-4v-4zM69 346h8v2h-8v-2zM812 628h2v8h-2v-8zM518 514h4v4h-4v-4zM77 351v2h-8v-2h8z
M472 761v-8h2v8h-2zM135 159v-4h4v4h-4zM512 159v-4h4v4h-4zM697 632h4v4h-4v-4zM188 517h-1v16h1v-16zM518 159v-4h4v4h-4zM327 273h4v4h-4v-4zM650 563h2v8h-2v-8zM190 315v8h-2v-8h2zM420 527h5v3h-5v-3zM503 748v-3h5v3h-5zM446 462v5h-3v-5h3zM669 280v3h-5v-3h5z
M681 280v5h-3v-5h3zM320 516h3v5h-3v-5zM798 527h5v3h-5v-3zM556 635v7h-2v-7h2zM652 635v7h-2v-7h2zM556 654v7h-2v-7h2zM772 530v-14h1v14h-1zM211 635v7h-2v-7h2zM597 276v7h-2v-7h2zM650 779h2v7h-2v-7zM219 276v7h-2v-7h2zM480 401v-7h2v7h-2zM190 276v7h-2v-7h2z
M652 771v7h-2v-7h2zM303 280v5h-2v-2h-1v-3h3zM196 365h13v1h-13v-1zM567 724h13v1h-13v-1zM557 670h1v13h-1v-13zM187 476v4h-3v-4h3zM575 365h12v1h-12v-1zM814 640v6h-2v-6h2zM360 751v3h-4v-3h4zM190 295v6h-2v-6h2zM678 273h3v4h-3v-4zM650 850h2v6h-2v-6zM539 512h2v6
h-2v-6zM293 632h3v4h-3v-4zM135 389v-3h4v3h-4zM300 273h3v4h-3v-4zM291 280v3h-4v-3h4zM437 628v6h-2v-6h2zM126 748v-3h4v3h-4zM512 389v-3h4v3h-4zM705 158h3v4h-3v-4zM705 273h3v4h-3v-4zM320 632h3v4h-3v-4zM670 632h3v4h-3v-4zM177 791h1v11h-1v-11zM562 432h1v11h-1
v-11zM190 724h11v1h-11v-1zM554 791h1v11h-1v-11zM437 821v5h-2v-5h2zM812 527h2v5h-2v-5zM435 527h2v5h-2v-5zM793 329v-5h2v5h-2zM443 285h3v3h-3v-3zM780 530v-3h3v3h-3zM368 392v3h-3v-3h3zM296 640v3h-3v-3h3zM402 530v-3h3v3h-3zM77 285v1h-8v-1h8zM283 640v2h-4v-2h4
zM512 518v-4h2v4h-2zM556 835v4h-2v-4h2zM673 640v3h-2v-1h-1v-2h3zM661 640v2h-4v-2h4zM558 654v7h-1v-7h1zM558 635v7h-1v-7h1zM435 643h2v3h-2v-3zM215 517h-6v1h6v-1zM416 329v-5h1v5h-1zM539 724h5v1h-5v-1zM562 365h5v1h-5v-1zM161 724h5v1h-5v-1zM664 276h5v1h-5v-1z
M408 688v-4h1v4h-1zM177 724h4v1h-4v-1zM71 702v2h-2v-2h2zM287 276h4v1h-4v-1zM279 635h4v1h-4v-1zM785 688v-4h1v4h-1zM657 635h4v1h-4v-1zM279 365h4v1h-4v-1zM187 412v1h-3v-1h3zM586 724h3v1h-3v-1zM184 365h3v1h-3v-1zM657 365h3v1h-3v-1zM271 724h3v1h-3v-1zM217 365
h2v1h-2v-1zM188 365h2v1h-2v-1zM595 365h2v1h-2v-1zM556 771v1h-2v-1h2zM554 724h2v1h-2v-1zM650 724h2v1h-2v-1zM209 724h2v1h-2v-1zM557 724h1v1h-1v-1z" />
    </font>
</defs>
</svg>
